<svg width="29" height="24" viewBox="0 0 29 24" fill="none" xmlns="http://www.w3.org/2000/svg">
<path d="M16.8003 8.19336L5.79343 8.19336C5.62791 8.19336 5.29687 8.35888 5.29687 8.68991C5.29687 8.85543 5.46239 9.18646 5.79343 9.18646L16.8003 9.18646C16.9658 9.18646 17.2969 9.02095 17.2969 8.68991C17.2969 8.52439 17.1314 8.19336 16.8003 8.19336Z" fill="#6941C6"/>
<path d="M9.93136 11.2549L5.79343 11.2549C5.62791 11.2549 5.29687 11.4204 5.29687 11.7514C5.29687 11.917 5.46239 12.248 5.79343 12.248L9.93136 12.248C10.0969 12.248 10.4279 12.0825 10.4279 11.7514C10.4279 11.5859 10.2624 11.2549 9.93136 11.2549Z" fill="#6941C6"/>
<path d="M24.9103 1.05316e-09C23.2552 9.83182e-10 21.931 1.07586 21.3517 2.48276L1.4069 2.48276C0.579309 2.48276 -1.29458e-10 3.06207 -1.64446e-10 3.88966L-7.6625e-10 18.1241C-8.01239e-10 18.9517 0.579309 19.531 1.4069 19.531L2.56552 19.531L2.56552 23.4207C2.56552 23.5862 2.64828 23.7517 2.81379 23.9172C2.81379 24 2.97931 24 3.06207 24C3.31034 24 3.3931 23.9172 3.47586 23.7517L7.77931 19.4483L26.1517 19.4483C26.3172 19.4483 26.6483 19.2828 26.6483 18.9517L26.6483 7.11724C27.8897 6.45517 28.7172 5.21379 28.7172 3.8069C28.7172 1.65517 26.9793 1.14063e-09 24.9103 1.05316e-09ZM25.4897 18.2897L7.53103 18.2897C7.36552 18.2897 7.2 18.3724 7.11724 18.4552L3.64138 21.931L3.64138 18.7862C3.64138 18.4552 3.47586 18.2897 3.14483 18.2897L1.4069 18.2897C1.32414 18.2897 1.15862 18.2069 1.15862 18.0414L1.15862 3.88966C1.15862 3.8069 1.24138 3.64138 1.4069 3.64138L21.1862 3.64138L21.1862 3.72414C21.1862 5.7931 22.8414 7.44828 24.9103 7.44828C25.0759 7.44828 25.2414 7.44828 25.4897 7.36552L25.4897 18.2897ZM26.6483 5.62759C26.3172 5.95862 25.9035 6.12414 25.4897 6.2069C25.3241 6.2069 25.1586 6.28966 24.9103 6.28966C23.5034 6.28966 22.3448 5.13103 22.3448 3.72414L22.3448 3.64138C22.3448 3.22759 22.5103 2.81379 22.6759 2.48276C23.0897 1.73793 23.9172 1.24138 24.9103 1.24138C26.3172 1.24138 27.4759 2.4 27.4759 3.8069C27.4759 4.55172 27.1448 5.21379 26.6483 5.62759Z" fill="#6941C6"/>
</svg>
