<svg width="29" height="24" viewBox="0 0 29 24" fill="none" xmlns="http://www.w3.org/2000/svg">
<path d="M19.154 8.56343H12.5429C11.8953 8.56343 11.3711 8.03925 11.3711 7.39163C11.3711 6.74401 11.8953 6.21983 12.5429 6.21983H19.154C19.8016 6.21983 20.3258 6.74401 20.3258 7.39163C20.3258 8.03925 19.8016 8.56343 19.154 8.56343Z" fill="#00B682"/>
<path d="M16.4861 13.1292H9.87883C9.23121 13.1292 8.70703 12.6051 8.70703 11.9574C8.70703 11.3098 9.23121 10.7856 9.87883 10.7856H16.4861C17.1337 10.7856 17.6579 11.3098 17.6579 11.9574C17.6579 12.6051 17.1337 13.1292 16.4861 13.1292Z" fill="#00B682"/>
<path d="M13.7946 17.7745H7.18352C6.53589 17.7745 6.01172 17.2503 6.01172 16.6027C6.01172 15.9551 6.53589 15.4309 7.18352 15.4309H13.7946C14.4422 15.4309 14.9664 15.9551 14.9664 16.6027C14.9664 17.2503 14.4422 17.7745 13.7946 17.7745Z" fill="#00B682"/>
<path d="M24.0314 11.2185C23.9896 11.1311 23.9364 11.0514 23.8775 10.9773L25.6419 7.93859C26.6028 6.2863 26.6085 4.30925 25.6552 2.65126C24.6999 0.991375 22.9887 0 21.0724 0H13.0901C11.2195 0 9.4684 1.00847 8.52071 2.63227L0.724557 16.0614C-0.236431 17.7137 -0.242128 19.6908 0.711262 21.3487C1.66655 23.0086 3.37772 24 5.294 24H18.9719C21.4086 24 23.6382 22.7693 24.9354 20.7049C26.2325 18.6424 26.3768 16.0994 25.3209 13.9039L24.0314 11.2185ZM7.31093 21.5216H5.2921C4.27603 21.5216 3.36632 20.9955 2.85924 20.1143C2.35406 19.2349 2.35596 18.1866 2.86684 17.3092L10.6668 3.87814C11.1701 3.01401 12.1007 2.47844 13.0939 2.47844H21.0762C22.0923 2.47844 23.002 3.00451 23.5091 3.88573C24.0143 4.76505 24.0124 5.81341 23.5015 6.69083L15.6977 20.1238C15.2001 20.9841 14.2733 21.5197 13.2782 21.5197H7.31093V21.5216Z" fill="#00B682"/>
</svg>
