<svg width="20" height="24" viewBox="0 0 20 24" fill="none" xmlns="http://www.w3.org/2000/svg">
<path d="M15.0326 13.2924C15.0155 13.2924 14.9812 13.2924 14.9641 13.2924C14.4507 13.2753 13.9543 12.9843 13.6976 12.4709C13.3895 11.8547 13.5607 11.1188 14.057 10.708C12.9445 11.2728 8.118 13.6518 7.03973 14.1653C6.97127 14.1995 6.91993 14.2166 6.8857 14.2338C6.2182 14.5418 5.87589 15.3291 6.16685 16.0651C6.23531 16.2191 6.32089 16.3561 6.4407 16.493C6.83435 16.9038 7.41627 17.0578 7.92973 16.8866C7.96396 16.8695 7.99819 16.8524 8.04954 16.8524L8.25492 16.7668L8.68281 16.5957C8.76838 16.5614 15.4605 13.2753 15.4605 13.2753C15.5289 13.2411 15.5803 13.224 15.6487 13.1897C15.4605 13.2411 15.238 13.2924 15.0326 13.2924Z" fill="#FF1F1F"/>
<path d="M19.1939 6.9082C19.1426 5.98397 18.9714 5.12821 18.6805 4.3409C18.5264 3.93014 18.3211 3.53648 18.0643 3.17706C17.8247 2.83476 17.568 2.52668 17.277 2.2186C16.4384 1.34572 15.4286 0.712456 14.2647 0.335919C12.8784 -0.109079 11.4578 -0.109078 10.0373 0.318805C9.98591 0.33592 9.93456 0.353036 9.8661 0.370151C9.18149 0.592651 8.5311 0.952071 7.89784 1.41418C7.11053 2.01322 6.44304 2.7663 5.94669 3.65629C5.6215 4.23821 5.41612 4.8886 5.34766 5.60744C5.45035 5.21379 5.72419 4.85436 6.11785 4.64898C6.8538 4.28956 7.7438 4.58052 8.10322 5.31648C8.18879 5.48763 8.24014 5.65878 8.25726 5.82994C8.25726 5.77859 8.27437 5.72725 8.27437 5.6759C8.39418 4.85436 8.89053 4.16975 9.78052 3.58783C10.1228 3.36533 10.4822 3.19418 10.8417 3.07437C11.783 2.76629 12.7757 2.81764 13.7684 3.22841C15.343 3.87879 16.4042 5.57321 16.3015 7.26762C16.2501 8.03781 16.079 8.63685 15.7538 9.15031C15.4286 9.68088 15.0178 10.1088 14.5386 10.4168C15.2232 10.1943 15.9763 10.5024 16.3015 11.1699C16.6609 11.8888 16.3699 12.7616 15.6511 13.1382C17.1059 12.4022 18.2184 11.1186 18.7318 9.56107C18.8174 9.33858 18.8859 9.13319 18.9372 8.91069C19.1597 8.2432 19.2282 7.5757 19.1939 6.9082Z" fill="#AA02D3"/>
<path d="M16.3367 11.17C16.0115 10.5025 15.2585 10.2115 14.5739 10.4169C14.5054 10.434 14.4369 10.4682 14.3685 10.5025C14.2658 10.5538 14.1631 10.6223 14.0604 10.7079C13.564 11.1357 13.3929 11.8546 13.701 12.4707C13.9406 12.9671 14.4369 13.2752 14.9675 13.2923C14.9846 13.2923 15.0188 13.2923 15.036 13.2923C15.2413 13.2923 15.4638 13.2409 15.6692 13.1382C15.6692 13.1382 15.6863 13.1382 15.6863 13.1211C16.4052 12.7617 16.6961 11.8888 16.3367 11.17Z" fill="#EF726C"/>
<path d="M8.25852 5.84688C8.2414 5.62439 8.15582 5.40188 8.0189 5.1965C7.64236 4.61458 6.88929 4.37497 6.25603 4.61458C5.7768 4.80285 5.46872 5.17938 5.34892 5.62438C5.29757 5.82977 5.28045 6.05227 5.31468 6.25765C5.3318 6.39457 5.38314 6.5315 5.4516 6.66842C5.60564 6.95938 5.82814 7.18188 6.10199 7.33591C6.51276 7.5413 7.0091 7.55841 7.43698 7.35303C8.0189 7.04496 8.32698 6.44592 8.25852 5.84688Z" fill="#FF7878"/>
<path d="M13.0342 7.83225C12.6747 7.11341 11.819 6.82244 11.1001 7.18186C11.0488 7.2161 10.9803 7.25033 10.929 7.28456L10.5011 7.45571C10.4155 7.48994 3.72343 10.7761 3.72343 10.7761C3.65496 10.8103 3.60362 10.8274 3.53516 10.8617C3.74054 10.759 3.94592 10.7076 4.16842 10.7076C4.18554 10.7076 4.21977 10.7076 4.23689 10.7076C4.75034 10.7247 5.24669 11.0157 5.50342 11.5292C5.81149 12.1453 5.64034 12.8813 5.144 13.292C6.25649 12.7272 11.083 10.3482 12.1442 9.83474C12.2297 9.81762 12.2982 9.78339 12.3667 9.74916C13.0855 9.40686 13.3765 8.53398 13.0342 7.83225Z" fill="#2D2F54"/>
<path d="M0.00833367 17.0918C0.0596796 18.016 0.230833 18.8718 0.521793 19.6591C0.675831 20.0699 0.881216 20.4635 1.13795 20.8229C1.37756 21.1652 1.63429 21.4733 1.92525 21.7814C2.7639 22.6543 3.7737 23.2875 4.93754 23.6641C6.32388 24.1091 7.74446 24.1091 9.16503 23.6812C9.21637 23.6641 9.26772 23.647 9.33618 23.6298C10.0208 23.4073 10.6712 23.0479 11.3044 22.5858C12.0917 21.9868 12.7592 21.2337 13.2556 20.3437C13.5808 19.7618 13.7862 19.1114 13.8546 18.3926C13.7519 18.7862 13.4781 19.1456 13.0844 19.351C12.3485 19.7104 11.4585 19.4195 11.0991 18.6835C11.0135 18.5124 10.9621 18.3412 10.945 18.1701C10.945 18.2214 10.9279 18.2727 10.9279 18.3241C10.8081 19.1456 10.3118 19.8302 9.42176 20.4122C9.07945 20.6347 8.72003 20.8058 8.36061 20.9256C7.41926 21.2337 6.42658 21.1824 5.43389 20.7716C3.85928 20.1212 2.79813 18.4268 2.90082 16.7324C2.95217 15.9622 3.12332 15.3631 3.44851 14.8497C3.7737 14.3191 4.18447 13.8912 4.6637 13.5832C3.97909 13.8056 3.22601 13.4976 2.90082 12.8301C2.5414 12.1112 2.83236 11.2384 3.55121 10.8618C2.0964 11.5978 0.983909 12.8814 0.470449 14.4389C0.384873 14.6614 0.316409 14.8668 0.265063 15.0893C0.0425643 15.7568 -0.025897 16.4243 0.00833367 17.0918Z" fill="#0847F9"/>
<path d="M5.50463 11.5291C5.26502 11.0327 4.76868 10.7246 4.2381 10.7075C4.22099 10.7075 4.18675 10.7075 4.16964 10.7075C3.96425 10.7075 3.74176 10.7589 3.53637 10.8616C3.53637 10.8616 3.51926 10.8616 3.51926 10.8787C2.80041 11.2381 2.50946 12.111 2.86888 12.8469C3.19407 13.5144 3.94714 13.8054 4.63175 13.6C4.70021 13.5829 4.76868 13.5487 4.83714 13.5144C4.93983 13.4631 5.04252 13.3946 5.14521 13.3091C5.64156 12.8812 5.81271 12.1452 5.50463 11.5291Z" fill="#8761FF"/>
<path d="M13.8908 17.7592C13.8737 17.6223 13.8223 17.4853 13.7539 17.3484C13.5998 17.0575 13.3773 16.835 13.1035 16.6809C12.6927 16.4755 12.1964 16.4584 11.7685 16.6638C11.2037 16.9548 10.8956 17.5538 10.9469 18.1528C10.9641 18.3753 11.0496 18.5978 11.1866 18.8032C11.5631 19.3851 12.3162 19.6248 12.9494 19.3852C13.4287 19.1969 13.7367 18.8203 13.8565 18.3753C13.9079 18.1871 13.925 17.9646 13.8908 17.7592Z" fill="#25BF88"/>
<path opacity="0.12" d="M13.8908 17.7592C13.8737 17.6223 13.8223 17.4853 13.7539 17.3484C13.5998 17.0575 13.3773 16.835 13.1035 16.6809C12.6927 16.4755 12.1964 16.4584 11.7685 16.6638C11.2037 16.9548 10.8956 17.5538 10.9469 18.1528C10.9641 18.3753 11.0496 18.5978 11.1866 18.8032C11.5631 19.3851 12.3162 19.6248 12.9494 19.3852C13.4287 19.1969 13.7367 18.8203 13.8565 18.3753C13.9079 18.1871 13.925 17.9646 13.8908 17.7592Z" fill="#0847F9"/>
</svg>
