<svg width="20" height="21" viewBox="0 0 20 21" fill="none" xmlns="http://www.w3.org/2000/svg">
<path d="M14.203 14.7558C14.0549 14.7549 13.9107 14.7082 13.7902 14.622C13.6697 14.5359 13.5789 14.4145 13.5301 14.2747C13.4814 14.1348 13.4772 13.9832 13.5181 13.8409C13.559 13.6985 13.643 13.5723 13.7585 13.4796L18.1175 10.0528L13.8159 6.65456C13.742 6.59619 13.6803 6.52383 13.6344 6.44162C13.5884 6.35941 13.5591 6.26896 13.5481 6.17542C13.5371 6.08189 13.5447 5.98711 13.5703 5.89649C13.596 5.80587 13.6392 5.72119 13.6976 5.64729C13.756 5.57338 13.8283 5.5117 13.9105 5.46576C13.9928 5.41981 14.0832 5.39051 14.1767 5.37953C14.2703 5.36854 14.3651 5.37609 14.4557 5.40174C14.5463 5.42738 14.631 5.47062 14.7049 5.529L19.7234 9.48639C19.8097 9.55341 19.8796 9.63928 19.9277 9.73744C19.9758 9.8356 20.0007 9.94346 20.0007 10.0528C20.0007 10.1621 19.9758 10.2699 19.9277 10.3681C19.8796 10.4662 19.8097 10.5521 19.7234 10.6191L14.6404 14.5837C14.5181 14.6886 14.364 14.7492 14.203 14.7558Z" fill="#6941C6"/>
<path d="M5.97217 15.8239C5.81376 15.8235 5.65998 15.7705 5.53484 15.6734L0.258258 11.5511C0.17544 11.4822 0.109227 11.3954 0.0645438 11.2974C0.0198602 11.1993 -0.00214492 11.0925 0.000164719 10.9847C0.00151404 10.8765 0.0273719 10.7699 0.0757971 10.6731C0.124222 10.5762 0.193957 10.4916 0.279766 10.4255L5.51333 6.30325C5.58771 6.24488 5.67286 6.20173 5.76391 6.17626C5.85496 6.1508 5.95014 6.14352 6.04401 6.15483C6.13788 6.16615 6.2286 6.19585 6.31099 6.24222C6.39338 6.2886 6.46583 6.35075 6.5242 6.42513C6.58257 6.4995 6.62572 6.58465 6.65119 6.6757C6.67666 6.76675 6.68394 6.86193 6.67262 6.9558C6.6613 7.04966 6.63161 7.14038 6.58523 7.22277C6.53885 7.30516 6.4767 7.37761 6.40232 7.43599L1.87851 11.0206L6.43817 14.6052C6.55371 14.6979 6.6377 14.8241 6.6786 14.9664C6.7195 15.1088 6.7153 15.2603 6.66658 15.4002C6.61786 15.5401 6.527 15.6614 6.40651 15.7476C6.28602 15.8337 6.1418 15.8804 5.99368 15.8813L5.97217 15.8239Z" fill="#6941C6"/>
<path d="M7.92773 20.0897L7.77 20.0897C7.67753 20.0694 7.59001 20.0309 7.51247 19.9766C7.43494 19.9222 7.36894 19.8531 7.31828 19.7731C7.26763 19.6931 7.23331 19.6039 7.21733 19.5106C7.20134 19.4172 7.20399 19.3217 7.22514 19.2294L11.4693 0.575145C11.4881 0.482133 11.5252 0.39377 11.5783 0.315181C11.6315 0.236592 11.6997 0.16934 11.7791 0.117324C11.8585 0.0653076 11.9474 0.0295623 12.0406 0.0121601C12.1339 -0.005242 12.2297 -0.00395465 12.3225 0.0159476C12.4143 0.0370771 12.5011 0.0760997 12.5778 0.130784C12.6545 0.185468 12.7197 0.254741 12.7697 0.334642C12.8196 0.414543 12.8533 0.503504 12.8688 0.596437C12.8844 0.689371 12.8814 0.784455 12.8602 0.876252L8.60164 19.5305C8.56688 19.6851 8.48191 19.8238 8.35998 19.925C8.23806 20.0261 8.08606 20.0841 7.92773 20.0897Z" fill="#6941C6"/>
</svg>
