<svg width="25" height="25" viewBox="0 0 25 25" fill="none" xmlns="http://www.w3.org/2000/svg">
<path d="M3.40651 1.89246L2.48047 1.89246L2.48047 2.8185L3.40651 2.8185L3.40651 1.89246Z" fill="#6941C6"/>
<path d="M5.0237 1.89246L4.09766 1.89246L4.09766 2.8185L5.0237 2.8185L5.0237 1.89246Z" fill="#6941C6"/>
<path d="M6.57058 1.89233L5.64453 1.89233L5.64453 2.81838L6.57058 2.81838L6.57058 1.89233Z" fill="#6941C6"/>
<path d="M24.2411 0.19458L1.24427 0.19458C1.01276 0.19458 0.78125 0.426092 0.78125 0.657603L0.78125 23.7316C0.78125 23.9631 1.01276 24.1946 1.24427 24.1946L24.3182 24.1946C24.5497 24.1946 24.7812 23.9631 24.7812 23.7316L24.7812 0.734774C24.7812 0.503262 24.5497 0.19458 24.2411 0.19458ZM23.8552 23.3457L1.7073 23.3457L1.7073 4.43895L23.8552 4.43895L23.8552 23.3457ZM23.8552 3.43574L1.7073 3.43574L1.7073 1.1978L23.8552 1.1978L23.8552 3.43574Z" fill="#6941C6"/>
<path d="M10.7365 14.2389L14.7493 14.2389C14.9808 14.2389 15.2123 14.0074 15.2123 13.7759L15.2123 9.45436C15.2123 9.22284 14.9808 8.99133 14.7493 8.99133L10.7365 8.99133C10.5049 8.99133 10.2734 9.22284 10.2734 9.45436L10.2734 13.7759C10.2734 14.0846 10.5049 14.2389 10.7365 14.2389ZM11.1995 9.99455L14.2863 9.99455L14.2863 13.39L11.1995 13.39L11.1995 9.99455Z" fill="#6941C6"/>
<path d="M16.834 9.22294C16.7569 9.30012 16.6797 9.37729 16.6797 9.53163L16.6797 13.8532C16.6797 14.0847 16.834 14.3162 17.1427 14.3162L21.1556 14.3162C21.3871 14.3162 21.6186 14.0847 21.6186 13.8532L21.6186 9.53163C21.6186 9.30012 21.3871 9.0686 21.1556 9.0686L17.1427 9.0686C16.9884 9.0686 16.9112 9.0686 16.834 9.22294ZM17.6057 9.99465L20.6154 9.99465L20.6154 13.3901L17.6057 13.3901L17.6057 9.99465Z" fill="#6941C6"/>
<path d="M4.40834 14.2389L8.4212 14.2389C8.65271 14.2389 8.88422 14.0074 8.88422 13.7759L8.88422 9.45436C8.88422 9.22284 8.65271 8.99133 8.4212 8.99133L4.40834 8.99133C4.25399 8.99133 4.17682 9.0685 4.09965 9.14567C4.02248 9.22284 3.94531 9.30002 3.94531 9.45436L3.94531 13.7759C3.94531 14.0846 4.09965 14.2389 4.40834 14.2389ZM4.87136 9.99455L7.881 9.99455L7.881 13.39L4.87136 13.39L4.87136 9.99455Z" fill="#6941C6"/>
<path d="M10.7365 21.1077L14.7493 21.1077C14.9808 21.1077 15.2123 20.8762 15.2123 20.6447L15.2123 16.3231C15.2123 16.0916 14.9808 15.8601 14.7493 15.8601L10.7365 15.8601C10.5049 15.8601 10.2734 16.0916 10.2734 16.3231L10.2734 20.6447C10.2734 20.8762 10.5049 21.1077 10.7365 21.1077ZM11.1995 16.7862L14.2863 16.7862L14.2863 20.1817L11.1995 20.1817L11.1995 16.7862Z" fill="#6941C6"/>
<path d="M21.1556 15.8599L17.1427 15.8599C16.9884 15.8599 16.9112 15.937 16.834 16.0142C16.7569 16.0914 16.6797 16.1685 16.6797 16.3229L16.6797 20.6444C16.6797 20.8759 16.834 21.1075 17.1427 21.1075L21.1556 21.1075C21.3871 21.1075 21.6186 20.8759 21.6186 20.6444L21.6186 16.3229C21.6186 16.0914 21.3871 15.8599 21.1556 15.8599ZM20.6154 20.1814L17.6057 20.1814L17.6057 16.7859L20.6154 16.7859L20.6154 20.1814Z" fill="#6941C6"/>
<path d="M4.40834 21.1077L8.4212 21.1077C8.65271 21.1077 8.88422 20.8762 8.88422 20.6447L8.88422 16.3231C8.88422 16.0916 8.65271 15.8601 8.4212 15.8601L4.40834 15.8601C4.25399 15.8601 4.17682 15.9373 4.09965 16.0144C4.02248 16.0916 3.94531 16.1688 3.94531 16.3231L3.94531 20.6447C3.94531 20.8762 4.09965 21.1077 4.40834 21.1077ZM4.87136 16.7862L7.881 16.7862L7.881 20.1817L4.87136 20.1817L4.87136 16.7862Z" fill="#6941C6"/>
<path d="M8.34193 7.37221L9.57665 7.37221C9.80817 7.37221 10.0397 7.1407 10.0397 6.90919C10.0397 6.67768 9.80817 6.44617 9.57665 6.44617L8.34193 6.44617C8.11042 6.44617 7.87891 6.67768 7.87891 6.90919C7.87891 7.1407 8.11042 7.37221 8.34193 7.37221Z" fill="#6941C6"/>
<path d="M12.2013 7.37221L13.436 7.37221C13.6675 7.37221 13.8991 7.1407 13.8991 6.90919C13.8991 6.67768 13.6675 6.44617 13.436 6.44617L12.2013 6.44617C11.9698 6.44617 11.7383 6.67768 11.7383 6.90919C11.7383 7.1407 11.8926 7.37221 12.2013 7.37221Z" fill="#6941C6"/>
<path d="M15.9826 7.37221L17.2173 7.37221C17.4488 7.37221 17.6803 7.1407 17.6803 6.90919C17.6803 6.67768 17.4488 6.44617 17.2173 6.44617L15.9826 6.44617C15.751 6.44617 15.5195 6.67768 15.5195 6.90919C15.5195 7.1407 15.751 7.37221 15.9826 7.37221Z" fill="#6941C6"/>
</svg>
