<svg width="130" height="40" viewBox="0 0 130 40" fill="none" xmlns="http://www.w3.org/2000/svg">
<path d="M60.6227 19.4766C59.7861 18.823 59.3155 17.8818 59.2109 16.6792H60.2305C60.8319 16.6792 61.224 16.7053 61.4593 16.7838C61.6685 16.8622 61.8253 16.9929 61.9037 17.1759C62.0606 17.5419 62.2959 17.8034 62.6358 17.9602C62.9756 18.1432 63.4462 18.2217 64.0475 18.2217C64.6227 18.2217 65.0671 18.1171 65.3809 17.9341C65.6946 17.7511 65.8515 17.4635 65.8515 17.0975C65.8515 16.653 65.6423 16.3393 65.224 16.1302C64.8057 15.921 64.1783 15.7119 63.3417 15.5027C62.5573 15.2936 61.9299 15.1106 61.4332 14.9014C60.9364 14.6923 60.5181 14.4047 60.1783 14.0125C59.8122 13.6204 59.6554 13.0713 59.6554 12.4439C59.6554 11.4766 60.0214 10.6923 60.7273 10.1432C61.4332 9.59422 62.4005 9.30664 63.6292 9.30664C64.8841 9.30664 65.8776 9.62037 66.6096 10.2217C67.3417 10.823 67.7861 11.6857 67.9168 12.8099L65.407 12.7315C65.3286 12.2609 65.1717 11.9472 64.8841 11.7642C64.5966 11.5812 64.1783 11.4766 63.6031 11.4766C62.6096 11.4766 62.1129 11.7903 62.1129 12.4178C62.1129 12.7315 62.2959 12.9929 62.6358 13.1759C63.0018 13.3589 63.5508 13.5419 64.3613 13.7511C65.1979 13.9602 65.8776 14.1955 66.4005 14.4047C66.9234 14.6138 67.3939 14.9537 67.76 15.372C68.1521 15.8164 68.3351 16.3916 68.3351 17.0975C68.3351 18.1694 67.943 19.006 67.1848 19.6073C66.4005 20.2347 65.3547 20.5485 64.0214 20.5485C62.5835 20.47 61.4593 20.1563 60.6227 19.4766Z" fill="#1C0049"/>
<path d="M71.2633 19.4766C70.4267 18.823 69.9561 17.8818 69.8516 16.6792H70.8712C71.4725 16.6792 71.8646 16.7053 72.0999 16.7838C72.3091 16.8622 72.4659 16.9929 72.5444 17.1759C72.7012 17.5419 72.9365 17.8034 73.2764 17.9602C73.6163 18.1432 74.0869 18.2217 74.6882 18.2217C75.2633 18.2217 75.7078 18.1171 76.0215 17.9341C76.3352 17.7511 76.4921 17.4635 76.4921 17.0975C76.4921 16.653 76.2829 16.3393 75.8646 16.1302C75.4463 15.921 74.8189 15.7119 73.9823 15.5027C73.198 15.2936 72.5705 15.1106 72.0738 14.9014C71.5771 14.6923 71.1587 14.4047 70.8189 14.0125C70.4529 13.6204 70.296 13.0713 70.296 12.4439C70.296 11.4766 70.662 10.6923 71.3679 10.1432C72.0738 9.59422 73.0411 9.30664 74.2699 9.30664C75.5248 9.30664 76.5182 9.62037 77.2503 10.2217C77.9823 10.823 78.4267 11.6857 78.5574 12.8099L76.0476 12.7315C75.9692 12.2609 75.8123 11.9472 75.5248 11.7642C75.2372 11.5812 74.8189 11.4766 74.2437 11.4766C73.2503 11.4766 72.7535 11.7903 72.7535 12.4178C72.7535 12.7315 72.9365 12.9929 73.2764 13.1759C73.6424 13.3589 74.1914 13.5419 75.0019 13.7511C75.8385 13.9602 76.5182 14.1955 77.0411 14.4047C77.564 14.6138 78.0346 14.9537 78.4006 15.372C78.7927 15.8164 78.9757 16.3916 78.9757 17.0975C78.9757 18.1694 78.5836 19.006 77.8254 19.6073C77.0411 20.2347 75.9954 20.5485 74.662 20.5485C73.2241 20.47 72.0999 20.1563 71.2633 19.4766Z" fill="#1C0049"/>
<path d="M92.2852 20.3654V9.41113H93.9845C94.1675 9.41113 94.3505 9.46342 94.4812 9.59414C94.612 9.72486 94.7165 10.1954 94.7427 10.4046C95.4747 9.82943 96.3636 9.51571 97.4355 9.51571C98.612 9.51571 99.527 9.82943 100.181 10.483C100.834 11.1105 101.174 11.9994 101.174 13.1236V20.4438H98.6904V13.2543C98.6904 12.7575 98.5335 12.3915 98.2459 12.1301C97.9584 11.8686 97.5139 11.7379 96.9387 11.7379C96.2852 11.7379 95.7623 11.9471 95.344 12.3654C94.9257 12.7837 94.7427 13.3066 94.7427 13.9602V20.3654H92.2852Z" fill="#1C0049"/>
<path d="M103.892 11.6339H103.265C103.029 11.6339 102.82 11.5555 102.69 11.3725C102.559 11.2156 102.48 10.8757 102.48 10.4052V9.43784H103.892V5.93457H106.376V9.46398H108.258V11.6339H106.376V17.7254C106.376 17.9084 106.402 18.013 106.48 18.0653C106.533 18.1176 106.69 18.1437 106.899 18.1437C107.369 18.1437 107.709 18.196 107.918 18.2744C108.128 18.3529 108.232 18.5882 108.232 18.9542V20.1829C107.605 20.3398 107.056 20.4182 106.585 20.4182C105.748 20.4182 105.095 20.2091 104.624 19.8169C104.154 19.4248 103.918 18.8496 103.918 18.0653V11.6339H103.892Z" fill="#1C0049"/>
<path d="M112.287 8.65352C111.711 8.65352 111.215 8.47052 110.849 8.07836C110.456 7.6862 110.273 7.21562 110.273 6.64045V5.93457H111.999C112.208 5.93457 112.391 6.013 112.548 6.16986C112.705 6.32673 112.783 6.50973 112.783 6.71888V8.67967H112.287V8.65352ZM112.783 20.3659H110.326V9.43784H112.783V20.3659Z" fill="#1C0049"/>
<path d="M114.797 15.3203C115.241 14.8236 115.764 14.4837 116.366 14.3007C116.967 14.0915 117.725 13.9347 118.614 13.804C119.346 13.6994 119.869 13.5687 120.183 13.4379C120.522 13.3072 120.679 13.0981 120.679 12.8366C120.679 12 120.104 11.5817 118.954 11.5817C118.248 11.5817 117.751 11.7125 117.437 12C117.124 12.2876 116.967 12.7321 116.967 13.3857L114.562 13.6994C114.457 12.3922 114.823 11.3726 115.634 10.6144C116.444 9.85625 117.542 9.49023 118.928 9.49023C120.261 9.49023 121.281 9.80396 121.96 10.4053C122.666 11.0066 123.006 11.8955 123.006 13.0719V17.6994C123.006 17.9608 123.032 18.1438 123.085 18.2745C123.137 18.4053 123.268 18.6667 123.503 19.085C123.555 19.1896 123.634 19.3203 123.738 19.5033C123.843 19.6863 123.947 19.8955 124.104 20.183C123.712 20.3922 123.294 20.4968 122.823 20.4968C122.405 20.4968 122.039 20.4183 121.699 20.2353C121.359 20.0785 121.098 19.817 120.915 19.4772C120.104 20.2353 119.111 20.6013 117.882 20.6013C116.732 20.6013 115.817 20.3138 115.137 19.7386C114.457 19.1634 114.117 18.3791 114.117 17.4118C114.117 16.4968 114.352 15.817 114.797 15.3203ZM117.045 18.17C117.281 18.353 117.673 18.4314 118.222 18.4314C119.085 18.4314 119.712 18.1177 120.104 17.4902C120.496 16.8628 120.705 16.1569 120.705 15.3464C120.209 15.5294 119.634 15.6863 119.032 15.817C118.3 15.9739 117.725 16.2092 117.307 16.4706C116.888 16.7321 116.679 17.0196 116.679 17.3334C116.679 17.6994 116.81 17.987 117.045 18.17Z" fill="#1C0049"/>
<path d="M127.843 20.3659H125.359V5.93457H127.817V20.3659H127.843Z" fill="#1C0049"/>
<path d="M52.9128 17.8559V14.0651H56.5206C56.599 14.0651 56.6513 14.0128 56.6513 13.9343V11.8167C56.6513 11.7383 56.599 11.686 56.5206 11.686H52.9128V8.33958H57.6709C57.7494 8.33958 57.8278 8.26114 57.8278 8.18271V5.9082H50.586C50.403 5.9082 50.2461 6.06507 50.2461 6.24807V20.3657H57.8278V17.9605C57.8278 17.9082 57.7755 17.8559 57.7232 17.8559H52.9128Z" fill="#1C0049"/>
<path d="M88.3353 16.7582C88.0739 16.7582 87.8386 16.915 87.7079 17.1503C87.3157 17.8562 86.6621 18.1961 85.6687 18.1961C84.9628 18.1961 84.3876 17.9869 83.917 17.5425C83.4726 17.098 83.185 16.4706 83.0543 15.6863H90.5314C90.5837 14.4575 90.4268 13.3595 90.0608 12.3921C89.6948 11.4248 89.1458 10.6405 88.3876 10.0915C87.6294 9.54246 86.6883 9.25488 85.5902 9.25488C84.6229 9.25488 83.734 9.49018 82.9497 9.98691C82.1654 10.4836 81.5641 11.1372 81.1458 12C80.7013 12.8627 80.4922 13.8039 80.4922 14.8758C80.4922 15.9215 80.7013 16.8627 81.1458 17.6993C81.5641 18.5621 82.1915 19.2418 82.9497 19.7385C83.734 20.2353 84.6491 20.4706 85.6687 20.4706C87.002 20.4706 88.0739 20.1046 88.9105 19.3464C89.6164 18.6928 90.087 17.8562 90.3223 16.7843H88.3353V16.7582ZM84.0216 11.9477C84.4399 11.5817 84.9628 11.3987 85.5902 11.3987C86.8974 11.3987 87.6817 12.1307 87.917 13.5948H83.1327C83.3157 12.8627 83.6033 12.3399 84.0216 11.9477Z" fill="#1C0049"/>
<path d="M90.4034 27.3984H90.3511C89.8543 26.6403 89.1223 26.2481 88.155 26.2481C87.1877 26.2481 86.3772 26.6403 85.7498 27.3984C85.1223 28.1566 84.8086 29.1501 84.8086 30.3788C84.8086 31.6337 85.1223 32.6272 85.7236 33.3854C86.3249 34.1435 87.1354 34.5095 88.1027 34.5095C89.1485 34.5095 89.9328 34.0912 90.4295 33.2546H90.4557V34.2743H92.4426V23.3984H90.3772V27.3984H90.4034ZM89.9851 32.1305C89.6713 32.5488 89.2008 32.7579 88.5994 32.7579C88.0766 32.7579 87.6583 32.5488 87.3707 32.1305C87.0831 31.7122 86.9262 31.137 86.9262 30.3527C86.9262 29.6207 87.0831 29.0194 87.3707 28.5749C87.6583 28.1305 88.1027 27.8952 88.6517 27.8952C89.8543 27.8952 90.4557 28.7318 90.4557 30.3788C90.4557 31.1631 90.2988 31.7383 89.9851 32.1305Z" fill="#1C0049"/>
<path d="M99.4776 27.3984H99.4253C98.9286 26.6403 98.1965 26.2481 97.2292 26.2481C96.2619 26.2481 95.4514 26.6403 94.824 27.3984C94.1965 28.1566 93.8828 29.1501 93.8828 30.3788C93.8828 31.6337 94.1965 32.6272 94.7978 33.3854C95.3992 34.1435 96.2096 34.5095 97.1769 34.5095C98.2227 34.5095 99.007 34.0912 99.5037 33.2546H99.5299V34.2743H101.517V23.3984H99.4776V27.3984ZM99.0331 32.1305C98.7194 32.5488 98.2488 32.7579 97.6475 32.7579C97.1246 32.7579 96.7063 32.5488 96.4188 32.1305C96.1312 31.7122 95.9743 31.137 95.9743 30.3527C95.9743 29.6207 96.1312 29.0194 96.4188 28.5749C96.7063 28.1305 97.1508 27.8952 97.6998 27.8952C98.9024 27.8952 99.5037 28.7318 99.5037 30.3788C99.5037 31.1631 99.3469 31.7383 99.0331 32.1305Z" fill="#1C0049"/>
<path d="M107.004 26.2471C105.802 26.2471 104.834 26.6392 104.076 27.4235C103.318 28.2079 102.926 29.2013 102.926 30.3778C102.926 31.5543 103.318 32.5477 104.076 33.332C104.834 34.1164 105.828 34.5085 107.004 34.5085C108.207 34.5085 109.174 34.1164 109.932 33.332C110.69 32.5477 111.083 31.5543 111.083 30.3778C111.083 29.2013 110.69 28.2079 109.932 27.4235C109.174 26.6392 108.207 26.2471 107.004 26.2471ZM108.468 32.234C108.128 32.7046 107.632 32.9137 107.004 32.9137C106.377 32.9137 105.88 32.6784 105.54 32.234C105.2 31.7634 105.017 31.1621 105.017 30.3778C105.017 29.5935 105.2 28.966 105.54 28.5216C105.88 28.051 106.377 27.8418 107.004 27.8418C107.632 27.8418 108.102 28.0771 108.468 28.5477C108.808 29.0183 108.991 29.6458 108.991 30.4039C108.991 31.136 108.808 31.7634 108.468 32.234Z" fill="#1C0049"/>
<path d="M116.862 26.2471C115.869 26.2471 115.084 26.6654 114.561 27.5281H114.509V26.4562H112.496V34.2732H114.561V29.8549C114.561 29.332 114.718 28.8876 115.006 28.5739C115.293 28.234 115.686 28.0771 116.13 28.0771C116.548 28.0771 116.888 28.2079 117.124 28.4693C117.359 28.7307 117.49 29.0706 117.49 29.515V34.2994H119.555V29.2013C119.555 28.3386 119.293 27.6327 118.797 27.0837C118.326 26.5347 117.673 26.2471 116.862 26.2471Z" fill="#1C0049"/>
<path d="M127.554 31.0582C127.449 30.7968 127.292 30.5876 127.135 30.4307C126.979 30.2739 126.769 30.1432 126.482 30.0124C126.22 29.8817 125.959 29.8033 125.75 29.751C125.541 29.6987 125.279 29.6203 124.939 29.568C124.835 29.5419 124.678 29.5157 124.495 29.4896C124.312 29.4634 124.155 29.4111 124.05 29.385C123.946 29.3589 123.815 29.3327 123.658 29.3066C123.501 29.2804 123.397 29.2281 123.318 29.202C123.24 29.1758 123.162 29.1236 123.057 29.0713C122.979 29.019 122.9 28.9406 122.874 28.8621C122.848 28.7837 122.822 28.7053 122.822 28.6007C122.822 28.3392 122.952 28.104 123.188 27.9732C123.423 27.8164 123.763 27.7379 124.181 27.7379C125.096 27.7379 125.619 28.1301 125.697 28.8883H127.58C127.501 28.0778 127.162 27.4504 126.586 27.0059C126.011 26.5353 125.227 26.3262 124.207 26.3262C123.266 26.3262 122.508 26.5353 121.907 26.9536C121.305 27.3719 121.018 27.9994 121.018 28.8098C121.018 29.2281 121.096 29.568 121.227 29.8556C121.384 30.1432 121.593 30.3785 121.88 30.5353C122.168 30.6922 122.456 30.8229 122.717 30.9275C122.979 31.0059 123.345 31.0843 123.763 31.1889C123.841 31.2151 123.998 31.2412 124.207 31.2674C124.416 31.2935 124.573 31.3196 124.652 31.3458C124.73 31.3719 124.861 31.3981 125.018 31.4242C125.175 31.4765 125.305 31.5026 125.358 31.5549C125.436 31.6072 125.488 31.6595 125.593 31.7118C125.671 31.7902 125.75 31.8425 125.776 31.9209C125.802 31.9994 125.828 32.104 125.828 32.1824C125.828 32.4438 125.697 32.6791 125.462 32.836C125.201 32.9928 124.861 33.0713 124.416 33.0713C123.423 33.0713 122.848 32.653 122.717 31.7902H120.809C120.861 32.653 121.227 33.3066 121.854 33.8033C122.482 34.3 123.345 34.5353 124.469 34.5353C125.462 34.5353 126.247 34.3 126.848 33.8556C127.449 33.4111 127.763 32.7837 127.763 32.0255C127.737 31.6334 127.684 31.3196 127.554 31.0582Z" fill="#1C0049"/>
<path d="M80.4931 23.3984H78.2186L76.9375 27.0586H78.846C79.0813 26.2481 79.2643 25.6468 79.3166 25.4638H79.3427L82.0094 34.2743H84.3101L80.4931 23.3984Z" fill="#1C0049"/>
<path d="M50.4564 30.2217C50.3519 30.2217 50.2734 30.3001 50.2734 30.3785V31.9472C50.2734 32.0256 50.3519 32.104 50.4564 32.104H79.6591L80.2342 30.2217H50.4564Z" fill="url(#paint0_linear_3895_26728)"/>
<path d="M4.80854 4.88823C8.46867 1.25424 13.7236 0.835938 20.1288 0.835938C26.5602 0.835938 31.8151 1.25424 35.4752 4.88823C39.1353 8.52221 39.4752 13.7771 39.4752 20.2085C39.4752 26.6399 39.083 31.8948 35.4752 35.5287C31.8151 39.1889 26.5602 39.5288 20.1288 39.5288C13.6974 39.5288 8.44253 39.1366 4.7824 35.5287C1.12227 31.8686 0.7824 26.6137 0.7824 20.2085C0.756256 13.7771 1.14841 8.52221 4.80854 4.88823Z" fill="#6F0AF2"/>
<path opacity="0.65" d="M20.1277 34.98C30.8124 34.98 39.4741 28.3667 39.4741 20.2087C39.4741 12.0508 30.8124 5.4375 20.1277 5.4375C9.44293 5.4375 0.78125 12.0508 0.78125 20.2087C0.78125 28.3667 9.44293 34.98 20.1277 34.98Z" fill="url(#paint1_linear_3895_26728)"/>
<path opacity="0.65" d="M20.1277 34.98C30.8124 34.98 39.4741 28.3667 39.4741 20.2087C39.4741 12.0508 30.8124 5.4375 20.1277 5.4375C9.44293 5.4375 0.78125 12.0508 0.78125 20.2087C0.78125 28.3667 9.44293 34.98 20.1277 34.98Z" fill="url(#paint2_linear_3895_26728)"/>
<path opacity="0.8" d="M28.833 11.5026C37.3036 19.9732 40.2578 30.7183 35.4474 35.5288C30.6369 40.3393 19.8918 37.3589 11.4212 28.9144C2.95062 20.47 0.0225168 9.69872 4.83297 4.88827C9.64343 0.077808 20.3624 3.0582 28.833 11.5026Z" fill="url(#paint3_linear_3895_26728)"/>
<path opacity="0.3" d="M28.833 11.5026C37.3036 19.9732 40.2578 30.7183 35.4474 35.5288C30.6369 40.3393 19.8918 37.3589 11.4212 28.9144C2.95062 20.47 0.0225168 9.69872 4.83297 4.88827C9.64343 0.077808 20.3624 3.0582 28.833 11.5026Z" fill="url(#paint4_linear_3895_26728)"/>
<path opacity="0.4" d="M28.833 11.5026C37.3036 19.9732 40.2578 30.7183 35.4474 35.5288C30.6369 40.3393 19.8918 37.3589 11.4212 28.9144C2.95062 20.47 0.0225168 9.69872 4.83297 4.88827C9.64343 0.077808 20.3624 3.0582 28.833 11.5026Z" fill="url(#paint5_linear_3895_26728)"/>
<path opacity="0.3" d="M28.833 11.5026C37.3036 19.9732 40.2578 30.7183 35.4474 35.5288C30.6369 40.3393 19.8918 37.3589 11.4212 28.9144C2.95062 20.47 0.0225168 9.69872 4.83297 4.88827C9.64343 0.077808 20.3624 3.0582 28.833 11.5026Z" fill="url(#paint6_linear_3895_26728)"/>
<path opacity="0.9" d="M12.414 12.4708C3.96951 20.9152 0.753827 31.4511 5.2767 35.9479C9.79958 40.4446 20.3094 37.2551 28.7538 28.8106C37.1983 20.3662 40.414 9.83023 35.8911 5.3335C31.3682 0.836764 20.8584 4.02631 12.414 12.4708Z" fill="url(#paint7_linear_3895_26728)"/>
<path opacity="0.9" d="M12.414 12.4708C3.96951 20.9152 0.753827 31.4511 5.2767 35.9479C9.79958 40.4446 20.3094 37.2551 28.7538 28.8106C37.1983 20.3662 40.414 9.83023 35.8911 5.3335C31.3682 0.836764 20.8584 4.02631 12.414 12.4708Z" fill="url(#paint8_linear_3895_26728)"/>
<path opacity="0.9" d="M12.414 12.4708C3.96951 20.9152 0.753827 31.4511 5.2767 35.9479C9.79958 40.4446 20.3094 37.2551 28.7538 28.8106C37.1983 20.3662 40.414 9.83023 35.8911 5.3335C31.3682 0.836764 20.8584 4.02631 12.414 12.4708Z" fill="url(#paint9_linear_3895_26728)"/>
<path d="M10.6669 15.8163H17.6211C18.3793 15.8163 19.0067 15.1888 19.0067 14.4307C19.0067 13.6725 18.3793 13.045 17.6211 13.045H10.6669C9.9087 13.045 9.28125 13.6725 9.28125 14.4307C9.33354 15.215 9.93484 15.8163 10.6669 15.8163Z" fill="white"/>
<path d="M27.792 19.3987L25.0469 13.987C24.4978 12.9412 23.0599 12.8628 22.5632 13.987L17.5436 23.8955C17.3083 24.3399 16.8639 24.6536 16.341 24.6536H10.8246C10.0926 24.6536 9.46517 25.1765 9.41288 25.9085C9.33445 26.7451 9.9619 27.3987 10.7724 27.3987H18.0403C18.5632 27.3987 19.0076 27.1373 19.2429 26.6667L23.8442 17.5687L25.4129 20.6536C25.6482 21.1504 26.1449 21.4118 26.6155 21.4118C26.8246 21.4118 27.0338 21.3857 27.2429 21.2811C27.8704 20.8628 28.1318 20.0523 27.792 19.3987Z" fill="white"/>
<path d="M30.8225 25.3852L29.7767 23.3198C29.4369 22.6401 28.6003 22.3787 27.9467 22.6924C27.2669 23.0323 27.0055 23.8689 27.3192 24.5225L28.365 26.5878C28.6003 27.0845 29.097 27.346 29.5676 27.346C29.7767 27.346 29.9859 27.3198 30.195 27.2153C30.9009 26.8754 31.1362 26.0388 30.8225 25.3852Z" fill="white"/>
<path d="M10.6669 21.5682H14.7192C15.4773 21.5682 16.1048 20.9408 16.1048 20.1826C16.1048 19.4244 15.4773 18.797 14.7192 18.797H10.6669C9.9087 18.797 9.28125 19.4244 9.28125 20.1826C9.33354 20.9669 9.93484 21.5682 10.6669 21.5682Z" fill="white"/>
<path d="M10.6669 15.7634H17.6211C18.3793 15.7634 19.0067 15.136 19.0067 14.3778C19.0067 13.6196 18.3793 12.9922 17.6211 12.9922H10.6669C9.9087 12.9922 9.28125 13.6196 9.28125 14.3778C9.33354 15.1621 9.93484 15.7634 10.6669 15.7634Z" fill="white"/>
<path d="M27.792 19.3459L25.0469 13.9341C24.4978 12.8884 23.0599 12.8099 22.5632 13.9341L17.5436 23.8426C17.3083 24.287 16.8639 24.6008 16.341 24.6008H10.8246C10.0926 24.6008 9.46517 25.1237 9.41288 25.8557C9.33445 26.6923 9.9619 27.3459 10.7724 27.3459H18.0403C18.5632 27.3459 19.0076 27.0844 19.2429 26.6138L23.8442 17.5158L25.4129 20.6008C25.6482 21.0975 26.1449 21.3589 26.6155 21.3589C26.8246 21.3589 27.0338 21.3328 27.2429 21.2282C27.8704 20.8361 28.1318 19.9995 27.792 19.3459Z" fill="white"/>
<path d="M30.8225 25.3323L29.7767 23.267C29.4369 22.5872 28.6003 22.3258 27.9467 22.6395C27.2669 22.9794 27.0055 23.816 27.3192 24.4696L28.365 26.535C28.6003 27.0317 29.097 27.2931 29.5676 27.2931C29.7767 27.2931 29.9859 27.267 30.195 27.1624C30.9009 26.8225 31.1362 25.9859 30.8225 25.3323Z" fill="white"/>
<path d="M10.6669 21.5408H14.7192C15.4773 21.5408 16.1048 20.9133 16.1048 20.1552C16.1048 19.397 15.4773 18.7695 14.7192 18.7695H10.6669C9.9087 18.7695 9.28125 19.397 9.28125 20.1552C9.33354 20.9133 9.93484 21.5408 10.6669 21.5408Z" fill="white"/>
<path d="M76.6546 34.2735H74.4062L76.6023 27.999H78.5893L76.6546 34.2735Z" fill="#6F0AF2"/>
<defs>
<linearGradient id="paint0_linear_3895_26728" x1="75.3442" y1="31.1765" x2="50.5332" y2="31.1765" gradientUnits="userSpaceOnUse">
<stop stop-color="#6F0AF2"/>
<stop offset="0.9995" stop-color="white" stop-opacity="0"/>
</linearGradient>
<linearGradient id="paint1_linear_3895_26728" x1="29.1029" y1="10.4688" x2="9.24133" y2="32.0045" gradientUnits="userSpaceOnUse">
<stop offset="0.00334821" stop-color="#6B0AD9" stop-opacity="0.6"/>
<stop offset="0.3007" stop-color="#690DDC" stop-opacity="0.6836"/>
<stop offset="0.5234" stop-color="#6317E5" stop-opacity="0.7462"/>
<stop offset="0.7211" stop-color="#5827F3" stop-opacity="0.8018"/>
<stop offset="0.8215" stop-color="#5132FE" stop-opacity="0.83"/>
<stop offset="0.9113" stop-color="#742DFE" stop-opacity="0.9155"/>
<stop offset="1" stop-color="#9A27FF"/>
</linearGradient>
<linearGradient id="paint2_linear_3895_26728" x1="36.8324" y1="13.1471" x2="5.70101" y2="26.3034" gradientUnits="userSpaceOnUse">
<stop stop-color="#9A27FF" stop-opacity="0.75"/>
<stop offset="0.0741759" stop-color="#742DFE" stop-opacity="0.7898"/>
<stop offset="0.1493" stop-color="#5132FE" stop-opacity="0.83"/>
<stop offset="0.2532" stop-color="#5827F3" stop-opacity="0.8018"/>
<stop offset="0.458" stop-color="#6317E5" stop-opacity="0.7462"/>
<stop offset="0.6886" stop-color="#690DDC" stop-opacity="0.6836"/>
<stop offset="0.9967" stop-color="#6B0AD9" stop-opacity="0.6"/>
</linearGradient>
<linearGradient id="paint3_linear_3895_26728" x1="1.65149" y1="21.4569" x2="34.2055" y2="29.0618" gradientUnits="userSpaceOnUse">
<stop offset="0.0854828" stop-color="#9A27FF"/>
<stop offset="0.7703" stop-color="#6F0AF2" stop-opacity="0"/>
<stop offset="1" stop-color="#7A35FF" stop-opacity="0.3"/>
</linearGradient>
<linearGradient id="paint4_linear_3895_26728" x1="10.9544" y1="10.3042" x2="34.4686" y2="35.6447" gradientUnits="userSpaceOnUse">
<stop stop-color="#7A35FF" stop-opacity="0"/>
<stop offset="0.2411" stop-color="#6F0AF2" stop-opacity="0"/>
<stop offset="1" stop-color="#9A27FF"/>
</linearGradient>
<linearGradient id="paint5_linear_3895_26728" x1="10.9544" y1="10.3042" x2="34.4686" y2="35.6447" gradientUnits="userSpaceOnUse">
<stop stop-color="#7A35FF" stop-opacity="0"/>
<stop offset="0.2411" stop-color="#6F0AF2" stop-opacity="0"/>
<stop offset="1" stop-color="#9A27FF"/>
</linearGradient>
<linearGradient id="paint6_linear_3895_26728" x1="10.9544" y1="10.3042" x2="34.4686" y2="35.6447" gradientUnits="userSpaceOnUse">
<stop stop-color="#7A35FF" stop-opacity="0"/>
<stop offset="0.2411" stop-color="#6F0AF2" stop-opacity="0"/>
<stop offset="1" stop-color="#9A27FF"/>
</linearGradient>
<linearGradient id="paint7_linear_3895_26728" x1="22.8291" y1="29.2592" x2="16.8629" y2="6.46521" gradientUnits="userSpaceOnUse">
<stop stop-color="#6F0AF2" stop-opacity="0"/>
<stop offset="0.4116" stop-color="#710CF3" stop-opacity="0.4116"/>
<stop offset="0.6488" stop-color="#7A11F5" stop-opacity="0.6488"/>
<stop offset="0.8413" stop-color="#881BF9" stop-opacity="0.8413"/>
<stop offset="1" stop-color="#9A27FF"/>
</linearGradient>
<linearGradient id="paint8_linear_3895_26728" x1="27.0701" y1="30.4732" x2="16.6987" y2="9.67987" gradientUnits="userSpaceOnUse">
<stop offset="0.00082672" stop-color="#9A27FF" stop-opacity="0.3"/>
<stop offset="0.5103" stop-color="#9C27FF" stop-opacity="0.1476"/>
<stop offset="0.6938" stop-color="#A326FF" stop-opacity="0.0926574"/>
<stop offset="0.8247" stop-color="#AE25FF" stop-opacity="0.0535202"/>
<stop offset="0.9297" stop-color="#BF23FF" stop-opacity="0.0220816"/>
<stop offset="0.9701" stop-color="#C822FF" stop-opacity="0.01"/>
</linearGradient>
<linearGradient id="paint9_linear_3895_26728" x1="19.4131" y1="16.1123" x2="24.1555" y2="34.6228" gradientUnits="userSpaceOnUse">
<stop offset="0.1945" stop-color="#6F0AF2" stop-opacity="0.1"/>
<stop offset="0.4389" stop-color="#730DF3" stop-opacity="0.3584"/>
<stop offset="0.6855" stop-color="#7F15F7" stop-opacity="0.6192"/>
<stop offset="0.9326" stop-color="#9322FD" stop-opacity="0.8805"/>
<stop offset="0.9984" stop-color="#9A27FF" stop-opacity="0.95"/>
</linearGradient>
</defs>
</svg>
