<svg width="22" height="24" viewBox="0 0 22 24" fill="none" xmlns="http://www.w3.org/2000/svg">
<g clip-path="url(#clip0_1518_16346)">
<path d="M14.3654 0.171432H0V15.1658H5.90379V14.8799H11.1067V9.09075H5.90379V5.4456H14.7518V15.0225C18.3683 14.3509 21.0987 11.1915 21.0987 7.3891V6.90339C21.098 3.18762 18.0818 0.171432 14.3654 0.171432Z" fill="#D047DF"/>
<path d="M14.7518 9.1627V18.5251H5.90379V14.8799H11.1067V9.09074H0V23.8279H14.7518C18.2824 23.652 21.0987 20.7271 21.0987 17.1526V16.4663C21.0987 12.7352 18.3397 9.6624 14.7518 9.16204V9.1627Z" fill="#6C3BFF"/>
<path d="M14.7504 18.5157H5.90234V23.8286H14.7504V18.5157Z" fill="#9975FF"/>
<path d="M14.7518 9.1627V18.5251H5.90379V14.8799H11.1067V9.09074H0V23.8279H14.7518C18.2824 23.652 21.0987 20.7271 21.0987 17.1526V16.4663C21.0987 12.7352 18.3397 9.6624 14.7518 9.16204V9.1627Z" fill="#6C3BFF"/>
<path d="M14.3646 0.171432H5.90234V5.50357H14.7504V0.182759C14.6231 0.17543 14.4945 0.171432 14.3646 0.171432Z" fill="#EE9AFF"/>
<path d="M14.7504 18.5157H5.90234V23.8286H14.7504V18.5157Z" fill="#9975FF"/>
</g>
<defs>
<clipPath id="clip0_1518_16346">
<rect width="21.2571" height="24" fill="white"/>
</clipPath>
</defs>
</svg>
