<svg width="26" height="24" viewBox="0 0 26 24" fill="none" xmlns="http://www.w3.org/2000/svg">
<path d="M22.5984 22.1334C23.2651 22.1334 23.7984 21.6001 23.7984 20.9334C23.7984 20.2667 23.2651 19.7334 22.5984 19.7334C21.9318 19.7334 21.3984 20.2667 21.3984 20.9334C21.3984 21.6001 21.9318 22.1334 22.5984 22.1334Z" fill="#597DFC"/>
<path d="M18.8008 19.8C18.2674 19.8 17.8008 20.2667 17.8008 20.8C17.8008 21.3334 18.2674 21.8 18.8008 21.8C19.3341 21.8 19.8008 21.3334 19.8008 20.8C19.7341 20.2667 19.3341 19.8 18.8008 19.8Z" fill="#597DFC"/>
<path d="M25.201 22.5334C24.9344 22.5334 24.7344 22.7335 24.7344 23.0001C24.7344 23.2668 24.9344 23.4668 25.201 23.4668C25.4677 23.4668 25.6677 23.2668 25.6677 23.0001C25.6677 22.7335 25.4677 22.5334 25.201 22.5334Z" fill="#597DFC"/>
<path d="M20.7331 24.0001C21.0664 24.0001 21.3997 23.7334 21.3997 23.3334C21.3997 23.0001 21.1331 22.6667 20.7331 22.6667C20.3997 22.6667 20.0664 22.9334 20.0664 23.3334C20.1331 23.7334 20.3997 24.0001 20.7331 24.0001Z" fill="#597DFC"/>
<path d="M9.33177 6.40002C9.4651 6.40002 9.59844 6.46668 9.6651 6.46668C10.3984 6.46668 10.9318 5.86668 10.9318 5.20002C10.9318 4.46668 10.3318 3.93335 9.6651 3.93335C8.93177 3.93335 8.39844 4.53335 8.39844 5.20002C8.39844 5.66668 8.6651 6.13335 9.13177 6.33335C9.19844 6.33335 9.2651 6.40002 9.33177 6.40002Z" fill="#597DFC"/>
<path d="M18.0667 14.8667C19 13.4 19.5333 11.6 19.5333 9.73333C19.5333 5.06667 16.2 1.13333 11.7333 0.199999C11.0667 0.0666662 10.4 0 9.66667 0C4.33333 0 0 4.33333 0 9.73333C0 14.2667 3.06667 18.1333 7.26667 19.2C6.6 18.8667 1.93333 15.6667 2 9.46667C2 5.46666 5.4 2.2 9.4 2.06667C13.7333 1.93333 17.3333 5.4 17.3333 9.73333C17.3333 12.9333 15.4 15.6667 12.6 16.8C12 17 10 17.4667 8.26667 15.1333C7.13333 13.4667 7.26667 11.6667 7.33333 11.1333C7.4 10.1333 8.2 9.4 9.13334 9.4C9.2 9.4 9.26667 9.4 9.33333 9.4C10.4667 9.46667 11.2 10.2667 11.1333 11.3333C11.0667 12.2 10.8667 13.1333 10.4667 13.9333L10.4 14C10.3333 14.1333 10.2667 14.2667 10.2 14.4C10.1333 14.5333 10.1333 14.6667 10.1333 14.8C10.2 15.1333 10.5333 15.3333 10.8667 15.2667C11.0667 15.2667 11.2 15.1333 11.2667 15C12.1333 13.7333 12.7333 12.4667 12.7333 10.9333C12.7333 10 12.4 9.13333 11.8 8.53333C11.1333 7.86667 10.2667 7.53333 9.26667 7.53333C9.2 7.53333 9.13334 7.53333 9.06667 7.53333C8.53333 7.53333 8.06667 7.66667 7.66667 7.86667C7.66667 7.86667 5.53333 8.53333 5.33333 11C5.13333 12.4 5.26667 14.6667 7.33333 16.9333C7.6 17.2 7.8 17.4667 8.13334 17.7333C8.46667 18 8.8 18.2 9.2 18.4667C9.4 18.6 9.6 18.6667 9.73333 18.7333C10.0667 18.8667 10.4667 19 10.8667 19.0667C11.7333 19.2 12.6 19.0667 13.4 18.7333C14.0667 18.4667 14.6667 18.1333 15.2 17.7333L16.8 19.2C17.2 18.8 17.8 18.6 18.4 18.6C19.3333 18.6 20.2 19.2 20.5333 20C20.7333 19.4667 21.2 19.0667 21.7333 18.8667L18.0667 14.8667Z" fill="#597DFC"/>
</svg>
