<svg width="18" height="17" viewBox="0 0 18 17" fill="none" xmlns="http://www.w3.org/2000/svg">
<path d="M9.73875 0.90875C9.45041 0.36375 8.55375 0.36375 8.26541 0.90875L0.765415 15.0754C0.697901 15.2024 0.664431 15.3447 0.668265 15.4884C0.672099 15.6322 0.713107 15.7725 0.787293 15.8957C0.861479 16.0189 0.966312 16.1208 1.09158 16.1914C1.21685 16.262 1.35827 16.299 1.50208 16.2987H16.5021C16.6458 16.299 16.7871 16.2621 16.9123 16.1915C17.0375 16.1209 17.1422 16.0191 17.2164 15.896C17.2905 15.7728 17.3314 15.6326 17.3352 15.489C17.339 15.3453 17.3054 15.2031 17.2379 15.0762L9.73875 0.90875ZM9.83541 13.7987H8.16875V12.1321H9.83541V13.7987ZM8.16875 10.4654V6.29875H9.83541L9.83625 10.4654H8.16875Z" fill="#FF3E3E"/>
</svg>
