<svg width="29" height="25" viewBox="0 0 29 25" fill="none" xmlns="http://www.w3.org/2000/svg">
<path d="M26.194 0.7948L2.69401 0.7948C1.61068 0.7948 0.777344 1.71147 0.777344 2.71147L0.777344 22.8781C0.777344 23.9615 1.69401 24.7948 2.69401 24.7948L26.1107 24.7948C27.194 24.7948 28.0273 23.8781 28.0273 22.8781L28.0273 2.71147C28.1107 1.62813 27.194 0.7948 26.194 0.7948ZM26.944 22.8781C26.944 23.3781 26.5273 23.7115 26.1107 23.7115L2.69401 23.7115C2.19401 23.7115 1.86068 23.2948 1.86068 22.8781L1.86068 2.71147C1.86068 2.21147 2.27734 1.87813 2.69401 1.87813L26.1107 1.87813C26.6107 1.87813 26.944 2.2948 26.944 2.71147L26.944 22.8781Z" fill="#6941C6"/>
<path d="M17.026 18.9608C16.776 18.9608 16.6094 18.7941 16.6094 18.5441L16.6094 12.2108C16.6094 11.8775 16.8594 11.7941 17.026 11.7941L23.1094 11.7941C23.276 11.7941 23.526 11.7941 23.526 12.2108L23.526 18.6275C23.526 18.9608 23.276 19.0441 23.1094 19.0441L17.026 19.0441L17.026 18.9608ZM17.6094 17.8775L22.6094 17.8775L22.6094 12.7941L17.6094 12.7941L17.6094 17.8775Z" fill="#6941C6"/>
<path d="M7.44531 7.04547C7.44531 6.46214 7.02864 6.04547 6.44531 6.04547C5.86198 6.04547 5.44531 6.46214 5.44531 7.04547C5.44531 7.62881 5.86198 8.04547 6.44531 8.04547C7.02864 8.04547 7.44531 7.62881 7.44531 7.04547Z" fill="#6941C6"/>
<path d="M18.3594 7.04547C18.3594 6.46214 17.9427 6.04547 17.3594 6.04547C16.776 6.04547 16.3594 6.46214 16.3594 7.04547C16.3594 7.62881 16.776 8.04547 17.3594 8.04547C17.9427 8.04547 18.3594 7.62881 18.3594 7.04547Z" fill="#6941C6"/>
<path d="M23.8594 7.04547C23.8594 6.46214 23.4427 6.04547 22.8594 6.04547C22.276 6.04547 21.8594 6.46214 21.8594 7.04547C21.8594 7.62881 22.276 8.04547 22.8594 8.04547C23.3594 8.04547 23.8594 7.62881 23.8594 7.04547Z" fill="#6941C6"/>
<path d="M12.9453 7.04547C12.9453 6.46214 12.5286 6.04547 11.9453 6.04547C11.362 6.04547 10.9453 6.46214 10.9453 7.04547C10.9453 7.62881 11.362 8.04547 11.9453 8.04547C12.4453 8.04547 12.9453 7.62881 12.9453 7.04547Z" fill="#6941C6"/>
<path d="M7.44531 12.5451C7.44531 11.9618 7.02864 11.5451 6.44531 11.5451C5.86198 11.5451 5.44531 11.9618 5.44531 12.5451C5.44531 13.1284 5.86198 13.5451 6.44531 13.5451C7.02864 13.6284 7.44531 13.1284 7.44531 12.5451Z" fill="#6941C6"/>
<path d="M12.9453 12.5451C12.9453 11.9618 12.5286 11.5451 11.9453 11.5451C11.362 11.5451 10.9453 11.9618 10.9453 12.5451C10.9453 13.1284 11.362 13.5451 11.9453 13.5451C12.4453 13.6284 12.9453 13.1284 12.9453 12.5451Z" fill="#6941C6"/>
<path d="M7.44531 18.1278C7.44531 17.5445 7.02864 17.1278 6.44531 17.1278C5.86198 17.1278 5.44531 17.5445 5.44531 18.1278C5.44531 18.7111 5.86198 19.1278 6.44531 19.1278C7.02864 19.1278 7.44531 18.7111 7.44531 18.1278Z" fill="#6941C6"/>
<path d="M12.9453 18.1278C12.9453 17.5445 12.5286 17.1278 11.9453 17.1278C11.362 17.1278 10.9453 17.5445 10.9453 18.1278C10.9453 18.7111 11.362 19.1278 11.9453 19.1278C12.4453 19.1278 12.9453 18.7111 12.9453 18.1278Z" fill="#6941C6"/>
</svg>
