<svg width="27" height="25" viewBox="0 0 27 25" fill="none" xmlns="http://www.w3.org/2000/svg">
<path d="M16.8337 24.7777C14.9935 24.7777 13.2299 24.6244 11.4663 24.241C11.2363 24.1643 11.0829 24.0109 11.0829 23.7042L11.0829 17.4934L7.86247 16.5732C7.63244 16.5732 7.47908 16.3432 7.47908 16.1132C7.47908 15.8831 7.63244 15.6531 7.86247 15.5764L16.6804 12.9694C16.757 12.9694 16.757 12.9694 16.8337 12.9694C16.9104 12.9694 16.9104 12.9694 16.9871 12.9694L25.8816 15.5764C25.9583 15.5764 25.9583 15.5764 26.035 15.6531C26.1883 15.7298 26.265 15.8831 26.265 16.1132L26.265 19.2569L26.6484 20.1771C26.7251 20.3304 26.7251 20.4838 26.6484 20.5605C26.5717 20.7138 26.4951 20.7905 26.3417 20.8672C26.265 20.8672 26.1883 20.9438 26.1117 20.9438C25.9583 20.9438 25.4216 20.9438 25.2682 20.9438C25.1915 20.9438 25.1149 20.9438 25.0382 20.8672C24.8082 20.7905 24.6548 20.4838 24.7315 20.1771L25.1149 19.2569L25.1149 16.7266L16.9104 19.1803C16.8337 19.1803 16.8337 19.1803 16.757 19.1803C16.6804 19.1803 16.6804 19.1803 16.6037 19.1803L12.003 17.8001L12.003 23.2442L12.0797 23.2442C13.6133 23.5509 15.1468 23.6276 16.757 23.6276C18.3673 23.6276 19.9008 23.4742 21.4344 23.2442L21.511 23.2442L21.511 19.717C21.511 19.4103 21.7411 19.1803 22.0478 19.1803C22.3545 19.1803 22.5845 19.4103 22.5845 19.717L22.5845 23.7042C22.5845 23.9343 22.4312 24.1643 22.2011 24.241C20.5142 24.6244 18.674 24.7777 16.8337 24.7777ZM9.85608 16.1132L16.8337 18.1835L23.888 16.1132L16.8337 14.0429L9.85608 16.1132ZM9.08931 21.4039C9.01263 21.4039 9.01263 21.4039 8.93595 21.4039L0.961512 18.8736C0.73148 18.7969 0.578125 18.5668 0.578125 18.3368L0.578125 1.31445C0.578125 1.1611 0.654802 1.00774 0.808156 0.854388C0.884834 0.77771 1.03819 0.77771 1.11487 0.77771C1.19154 0.77771 1.19154 0.77771 1.26822 0.77771L11.6963 3.99816L21.9711 0.77771C22.0478 0.77771 22.0478 0.77771 22.1244 0.77771C22.2011 0.77771 22.3545 0.77771 22.4312 0.854388C22.5845 0.931065 22.6612 1.08442 22.6612 1.31445L22.6612 12.2026C22.6612 12.5093 22.4312 12.7394 22.1244 12.7394C21.8177 12.7394 21.5877 12.5093 21.5877 12.2026L21.5877 2.08122L12.1564 5.07164L12.1564 11.9726C12.1564 12.2793 11.9264 12.5093 11.6197 12.5093C11.3129 12.5093 11.0829 12.2793 11.0829 11.9726L11.0829 4.99496L1.65161 2.00455L1.65161 18.0301L9.24266 20.4071C9.54937 20.4838 9.70273 20.7905 9.54937 21.0972C9.47269 21.2506 9.31934 21.4039 9.08931 21.4039ZM6.32892 13.3528C6.25225 13.3528 6.25225 13.3528 6.17557 13.3528L4.48867 12.816C4.33531 12.7394 4.25864 12.6627 4.18196 12.586C4.10528 12.4327 4.10528 12.356 4.18196 12.2026C4.25864 11.9726 4.48867 11.8192 4.7187 11.8192C4.79538 11.8192 4.79538 11.8192 4.87205 11.8192L6.55895 12.356C6.86566 12.4327 7.01902 12.7394 6.86566 13.0461C6.78899 13.1994 6.55896 13.3528 6.32892 13.3528ZM15.2235 10.8224C14.9935 10.8224 14.7634 10.6691 14.6868 10.4391C14.6101 10.2857 14.6868 10.1323 14.6868 10.0557C14.7634 9.90231 14.8401 9.82563 14.9935 9.82563L18.3673 8.75215C18.4439 8.75215 18.4439 8.75215 18.5206 8.75215C18.7506 8.75215 18.9807 8.90551 19.0574 9.13554C19.134 9.44225 18.9807 9.67228 18.7506 9.82563L15.3768 10.8991C15.3002 10.8224 15.2235 10.8224 15.2235 10.8224ZM8.01582 10.8224C7.93915 10.8224 7.93915 10.8224 7.86247 10.8224L4.48867 9.74896C4.18196 9.67228 4.0286 9.36557 4.18196 9.05886C4.25864 8.82883 4.48867 8.67547 4.7187 8.67547C4.79538 8.67547 4.79538 8.67547 4.87205 8.67547L8.24586 9.74896C8.39921 9.82563 8.47589 9.90231 8.55257 9.97899C8.62924 10.1323 8.62924 10.209 8.55257 10.3624C8.47589 10.6691 8.24586 10.8224 8.01582 10.8224ZM15.2235 7.98538C14.9935 7.98538 14.7634 7.83202 14.6868 7.60199C14.6101 7.29528 14.7634 7.06525 14.9935 6.9119L18.3673 5.83841C18.4439 5.83841 18.4439 5.83841 18.5206 5.83841C18.7506 5.83841 18.9807 5.99177 19.0574 6.2218C19.134 6.37515 19.0574 6.52851 19.0574 6.60519C18.9807 6.75854 18.904 6.83522 18.7506 6.83522L15.3768 7.9087C15.3002 7.98538 15.2235 7.98538 15.2235 7.98538ZM8.01582 7.98538C7.93915 7.98538 7.93915 7.98538 7.86247 7.98538L4.48867 6.9119C4.33531 6.83522 4.25864 6.75854 4.18196 6.68186C4.10528 6.52851 4.10528 6.45183 4.18196 6.29848C4.25864 6.06845 4.48867 5.91509 4.7187 5.91509C4.79538 5.91509 4.79538 5.91509 4.87205 5.91509L8.24586 6.98857C8.55257 7.06525 8.70592 7.37196 8.55257 7.67867C8.47589 7.83202 8.24586 7.98538 8.01582 7.98538Z" fill="#6941C6"/>
</svg>
