<svg width="23" height="24" viewBox="0 0 23 24" fill="none" xmlns="http://www.w3.org/2000/svg">
<path d="M22.3794 -0.00048828L11.4984 -0.000488281L0.540193 -0.000488281C0.231512 -0.000488281 0 0.231022 0 0.539704L-9.91831e-10 23.4593C-1.00488e-09 23.768 0.231512 23.9995 0.540193 23.9995L11.4212 23.9995L22.3022 23.9995C22.6109 23.9995 22.8424 23.768 22.8424 23.4593L22.8424 0.539704C22.9196 0.231022 22.6881 -0.00048828 22.3794 -0.00048828ZM21.8392 22.9191L10.9582 22.9191L7.40836 22.9191L1.15756 22.9191L1.15756 1.0799L12.0386 1.0799L14.045 1.0799L21.8392 1.0799L21.8392 22.9191Z" fill="#6941C6"/>
<path d="M8.25514 10.9575L3.93359 10.9575L3.93359 12.4238L8.25514 12.4238L8.25514 10.9575Z" fill="#6941C6"/>
<path d="M6.71034 11.4214L5.39844 11.4214L5.39844 11.8844L6.71034 11.8844L6.71034 11.4214Z" fill="#6941C6"/>
<path d="M19.0622 7.94824L10.0332 7.94824C9.95608 7.94824 9.87891 8.02541 9.87891 8.10258L9.87891 15.2023C9.87891 15.2794 9.95608 15.3566 10.0332 15.3566L19.0622 15.3566C19.1394 15.3566 19.2165 15.2794 19.2165 15.2023L19.2165 8.10258C19.2165 8.02541 19.1394 7.94824 19.0622 7.94824ZM18.3677 14.199L16.3612 12.1154L16.2841 12.1154L14.895 13.3502L13.1201 11.1122C13.1201 11.1122 13.1201 11.1122 13.0429 11.1122C13.0429 11.1122 13.0429 11.1122 12.9657 11.1122L10.805 13.9675L10.805 8.87429L18.3677 8.87429L18.3677 14.199Z" fill="#6941C6"/>
<path d="M16.1282 11.0356C16.5141 11.0356 16.8228 10.7269 16.8228 10.341C16.8228 9.95517 16.5141 9.64648 16.1282 9.64648C15.7424 9.64648 15.4337 9.95517 15.4337 10.341C15.3565 10.6497 15.6652 11.0356 16.1282 11.0356Z" fill="#6941C6"/>
</svg>
