<svg width="24" height="25" viewBox="0 0 24 25" fill="none" xmlns="http://www.w3.org/2000/svg">
<path d="M22.5747 0.939453L11.6937 0.939453L0.735506 0.939453C0.426824 0.939453 0.195312 1.17096 0.195312 1.47965L0.195312 24.3993C0.195312 24.7079 0.426824 24.9395 0.735506 24.9395L11.6165 24.9395L22.4976 24.9395C22.8062 24.9395 23.0378 24.7079 23.0378 24.3993L23.0378 1.47965C23.1149 1.17096 22.8834 0.939453 22.5747 0.939453ZM22.0345 23.8591L11.1535 23.8591L7.60367 23.8591L1.35287 23.8591L1.35287 2.01984L12.2339 2.01984L14.2403 2.01984L22.0345 2.01984L22.0345 23.8591Z" fill="#6941C6"/>
<path d="M8.45045 11.8975L4.12891 11.8975L4.12891 13.3637L8.45045 13.3637L8.45045 11.8975Z" fill="#6941C6"/>
<path d="M6.90565 12.3612L5.59375 12.3612L5.59375 12.8242L6.90565 12.8242L6.90565 12.3612Z" fill="#6941C6"/>
<path d="M19.2575 8.88818L10.2286 8.88818C10.1514 8.88818 10.0742 8.96535 10.0742 9.04253L10.0742 16.1422C10.0742 16.2194 10.1514 16.2965 10.2286 16.2965L19.2575 16.2965C19.3347 16.2965 19.4118 16.2194 19.4118 16.1422L19.4118 9.04253C19.4118 8.96535 19.3347 8.88818 19.2575 8.88818ZM18.563 15.139L16.5565 13.0554L16.4794 13.0554L15.0903 14.2901L13.3154 12.0522C13.3154 12.0522 13.3154 12.0522 13.2382 12.0522C13.2382 12.0522 13.2382 12.0522 13.161 12.0522L11.0003 14.9075L11.0003 9.81423L18.563 9.81423L18.563 15.139Z" fill="#6941C6"/>
<path d="M16.3235 11.9755C16.7094 11.9755 17.0181 11.6668 17.0181 11.281C17.0181 10.8951 16.7094 10.5864 16.3235 10.5864C15.9377 10.5864 15.629 10.8951 15.629 11.281C15.5518 11.5896 15.8605 11.9755 16.3235 11.9755Z" fill="#6941C6"/>
</svg>
