<svg width="32" height="33" viewBox="0 0 32 33" fill="none" xmlns="http://www.w3.org/2000/svg">
<rect y="0.5" width="32" height="32" rx="8" fill="white"/>
<path d="M20.6358 15.5919C20.7762 15.5751 20.9108 15.5744 21.0344 15.5919C21.106 15.4278 21.1183 15.1449 21.0539 14.8369C20.9583 14.379 20.8288 14.1019 20.5612 14.145C20.2936 14.1882 20.2837 14.5199 20.3794 14.9778C20.4332 15.2353 20.529 15.4555 20.6358 15.5919Z" fill="black"/>
<path d="M18.3401 15.9527C18.5315 16.0367 18.6492 16.0924 18.6952 16.0438C18.7249 16.0134 18.716 15.9555 18.6702 15.8808C18.5758 15.7266 18.3815 15.5702 18.1752 15.4823C17.7535 15.3008 17.2507 15.3612 16.8627 15.64C16.7346 15.7338 16.6131 15.8638 16.6306 15.9427C16.6362 15.9683 16.6553 15.9875 16.7003 15.9938C16.8059 16.0059 17.175 15.8193 17.6 15.7933C17.9001 15.7749 18.1486 15.8688 18.3401 15.9527Z" fill="black"/>
<path d="M17.956 16.1745C17.7067 16.2139 17.5692 16.296 17.4809 16.3725C17.4056 16.4384 17.359 16.5111 17.3594 16.5624C17.3596 16.5867 17.3701 16.6007 17.3784 16.6078C17.3898 16.6178 17.4033 16.6234 17.4194 16.6234C17.4758 16.6234 17.6019 16.5728 17.6019 16.5728C17.9489 16.4486 18.1778 16.4636 18.4046 16.4895C18.5299 16.5035 18.5892 16.5114 18.6166 16.4684C18.6247 16.4561 18.6346 16.4293 18.6095 16.3887C18.5512 16.2939 18.2994 16.1337 17.956 16.1745Z" fill="black"/>
<path d="M19.8604 16.9814C20.0297 17.0646 20.2161 17.0319 20.2768 16.9085C20.3375 16.785 20.2494 16.6175 20.0801 16.5343C19.9108 16.4511 19.7244 16.4838 19.6637 16.6072C19.603 16.7307 19.6911 16.8982 19.8604 16.9814Z" fill="black"/>
<path d="M20.9502 16.0293C20.8127 16.027 20.6986 16.178 20.6954 16.3666C20.6922 16.5552 20.8011 16.71 20.9386 16.7123C21.0762 16.7147 21.1902 16.5636 21.1934 16.3751C21.1966 16.1864 21.0877 16.0317 20.9502 16.0293Z" fill="black"/>
<path d="M11.7098 19.4301C11.6756 19.3872 11.6194 19.4003 11.565 19.413C11.527 19.4218 11.4839 19.4318 11.4367 19.431C11.3356 19.4291 11.2499 19.3858 11.2018 19.3119C11.1391 19.2157 11.1427 19.0723 11.2119 18.908C11.2212 18.8859 11.2322 18.8613 11.2442 18.8345C11.3545 18.587 11.5391 18.1728 11.3318 17.7781C11.1758 17.481 10.9214 17.2961 10.6155 17.2572C10.3218 17.22 10.0194 17.3289 9.82661 17.5417C9.52234 17.8773 9.4748 18.3341 9.53361 18.4955C9.55518 18.5546 9.58889 18.5709 9.61339 18.5743C9.66513 18.5813 9.74168 18.5436 9.78967 18.4146C9.79313 18.4053 9.79771 18.3909 9.80342 18.3726C9.82477 18.3044 9.86456 18.1774 9.92972 18.0756C10.0083 17.9529 10.1307 17.8683 10.2744 17.8376C10.4207 17.8062 10.5703 17.8341 10.6955 17.9161C10.9086 18.0556 10.9907 18.3168 10.8997 18.566C10.8526 18.6949 10.7762 18.9413 10.7931 19.1438C10.8272 19.5536 11.0792 19.7182 11.3057 19.7357C11.5259 19.744 11.6798 19.6204 11.7187 19.53C11.7417 19.4766 11.7224 19.4441 11.7098 19.4301Z" fill="black"/>
<path d="M24.4195 18.6808C24.4111 18.6512 24.3566 18.4516 24.2815 18.211C24.2065 17.9705 24.1288 17.8012 24.1288 17.8012C24.4297 17.3507 24.4351 16.9478 24.3951 16.7197C24.3523 16.4368 24.2346 16.1958 23.9973 15.9466C23.7599 15.6974 23.2745 15.4423 22.5923 15.2507C22.5143 15.2289 22.257 15.1583 22.2344 15.1513C22.2326 15.1365 22.2156 14.3075 22.2 13.9516C22.1887 13.6943 22.1666 13.2927 22.042 12.897C21.8935 12.3615 21.6347 11.8929 21.3117 11.5932C22.2031 10.6691 22.7595 9.65125 22.7582 8.77801C22.7556 7.09872 20.6932 6.59059 18.1517 7.643C18.149 7.64413 17.6171 7.86971 17.6132 7.87163C17.6109 7.8693 16.6397 6.91643 16.6251 6.90369C13.7274 4.37618 4.66735 14.4466 7.56399 16.8925L8.19703 17.4287C8.03281 17.8541 7.96829 18.3414 8.02101 18.8655C8.08869 19.5386 8.43591 20.1839 8.99865 20.6825C9.5329 21.1558 10.2353 21.4554 10.9169 21.4548C12.0442 24.0525 14.6197 25.646 17.6396 25.7357C20.8789 25.8319 23.5981 24.3119 24.7376 21.5815C24.8121 21.3898 25.1283 20.5264 25.1283 19.7642C25.1283 18.9982 24.6953 18.6808 24.4195 18.6808ZM11.166 20.7252C11.0676 20.742 10.9672 20.7487 10.866 20.7463C9.8876 20.72 8.83079 19.8392 8.72575 18.7947C8.60968 17.6401 9.19962 16.7515 10.2442 16.5408C10.369 16.5157 10.52 16.5012 10.6827 16.5096C11.2679 16.5416 12.1303 16.9911 12.3274 18.2659C12.5018 19.3951 12.2247 20.5447 11.166 20.7252ZM10.0734 15.8501C9.42313 15.9765 8.85003 16.3451 8.49957 16.8541C8.29007 16.6794 7.89986 16.3412 7.83094 16.2094C7.27144 15.147 8.44159 13.0814 9.25899 11.915C11.2791 9.03212 14.4431 6.85006 15.9078 7.24595C16.1458 7.31333 16.9344 8.22772 16.9344 8.22772C16.9344 8.22772 15.4704 9.04005 14.1126 10.1724C12.2832 11.581 10.9013 13.6284 10.0734 15.8501ZM20.343 20.2935C20.3642 20.2846 20.3789 20.2603 20.3765 20.2361C20.3735 20.2065 20.347 20.1849 20.3173 20.1879C20.3173 20.1879 18.7846 20.4148 17.3368 19.8847C17.4944 19.3722 17.9138 19.5573 18.5476 19.6084C19.6901 19.6765 20.714 19.5096 21.4707 19.2924C22.1265 19.1042 22.9877 18.7332 23.6567 18.2053C23.8823 18.7009 23.962 19.2463 23.962 19.2463C23.962 19.2463 24.1366 19.2151 24.2826 19.3049C24.4205 19.3898 24.5217 19.5662 24.4526 20.0223C24.3119 20.8746 23.9497 21.5663 23.3408 22.2026C22.9703 22.6015 22.5203 22.9484 22.0056 23.2006C21.7322 23.3442 21.441 23.4684 21.1336 23.5688C18.8385 24.3184 16.4892 23.4943 15.7318 21.7246C15.6714 21.5915 15.6203 21.4523 15.58 21.3066C15.2572 20.1404 15.5313 18.7412 16.3877 17.8605C16.3878 17.8604 16.3876 17.8602 16.3876 17.8601C16.4404 17.804 16.4943 17.7379 16.4943 17.6548C16.4943 17.5853 16.4501 17.512 16.4118 17.46C16.1122 17.0254 15.0743 16.2848 15.2826 14.8516C15.4322 13.8221 16.3327 13.0969 17.1722 13.1399C17.2431 13.1435 17.3141 13.1479 17.3849 13.1521C17.7488 13.1736 18.0662 13.2203 18.3656 13.2328C18.8669 13.2544 19.3177 13.1816 19.8515 12.7368C20.0316 12.5866 20.176 12.4566 20.4203 12.4152C20.4459 12.4108 20.5098 12.3879 20.6375 12.3939C20.7678 12.4008 20.8919 12.4367 21.0034 12.5109C21.4314 12.7957 21.4921 13.4855 21.5143 13.9901C21.5269 14.2781 21.5618 14.975 21.5737 15.1751C21.6009 15.6325 21.7212 15.697 21.9644 15.7771C22.1012 15.8221 22.2283 15.8557 22.4154 15.9082C22.982 16.0673 23.3179 16.2287 23.5296 16.436C23.6559 16.5655 23.7146 16.7032 23.7327 16.8345C23.7996 17.3218 23.3544 17.9239 22.1759 18.4709C20.8876 19.0688 19.3248 19.2202 18.245 19.0999C18.1622 19.0907 17.8677 19.0573 17.8667 19.0572C17.003 18.9408 16.5102 20.0571 17.0286 20.8219C17.3627 21.3147 18.2727 21.6355 19.1832 21.6357C21.2707 21.636 22.8753 20.7445 23.4722 19.9745C23.49 19.9515 23.4918 19.949 23.5199 19.9065C23.5493 19.8622 23.5251 19.8378 23.4885 19.8629C23.0008 20.1965 20.8348 21.5212 18.518 21.1227C18.518 21.1227 18.2365 21.0764 17.9795 20.9764C17.7753 20.897 17.3479 20.7004 17.2959 20.2619C19.1657 20.8401 20.343 20.2935 20.343 20.2935ZM13.8044 11.9032C14.5226 11.0733 15.4067 10.3517 16.1987 9.94662C16.2261 9.9326 16.2552 9.96233 16.2403 9.98927C16.1774 10.1032 16.0564 10.347 16.018 10.532C16.012 10.5608 16.0434 10.5825 16.0677 10.5659C16.5604 10.23 17.4175 9.87018 18.1693 9.82393C18.2016 9.82193 18.2172 9.86335 18.1915 9.88307C18.0772 9.97074 17.9521 10.0921 17.8608 10.2149C17.8452 10.2358 17.8598 10.2658 17.8859 10.266C18.4138 10.2698 19.158 10.4545 19.643 10.7266C19.6758 10.745 19.6525 10.8085 19.6158 10.8001C18.8819 10.6319 17.6806 10.5043 16.4327 10.8087C15.3186 11.0804 14.4683 11.5 13.848 11.9511C13.8167 11.9739 13.7791 11.9325 13.8044 11.9032Z" fill="black"/>
</svg>
