<svg width="28" height="25" viewBox="0 0 28 25" fill="none" xmlns="http://www.w3.org/2000/svg">
<path d="M25.6003 0.186035L2.10026 0.186035C1.01693 0.186035 0.183594 1.1027 0.183594 2.1027L0.183594 22.2694C0.183594 23.3527 1.10026 24.186 2.10026 24.186L25.5169 24.186C26.6003 24.186 27.4336 23.2694 27.4336 22.2694L27.4336 2.1027C27.5169 1.01937 26.6003 0.186035 25.6003 0.186035ZM26.3503 22.2694C26.3503 22.7694 25.9336 23.1027 25.5169 23.1027L2.10026 23.1027C1.60026 23.1027 1.26693 22.686 1.26693 22.2694L1.26693 2.1027C1.26693 1.6027 1.68359 1.26937 2.10026 1.26937L25.5169 1.26937C26.0169 1.26937 26.3503 1.68603 26.3503 2.1027L26.3503 22.2694Z" fill="#6941C6"/>
<path d="M16.1862 9.6864C15.4362 8.85307 14.3529 8.4364 13.2695 8.4364C12.1862 8.4364 11.1862 8.85307 10.4362 9.60307C9.6862 10.3531 9.26953 11.3531 9.26953 12.4364C9.26953 13.5197 9.6862 14.5197 10.4362 15.3531L12.6862 17.6031C13.4362 18.4364 14.5195 18.8531 15.6029 18.8531C16.6862 18.8531 17.6862 18.4364 18.4362 17.6864C19.1862 16.9364 19.6029 15.9364 19.6029 14.8531C19.6029 13.7697 19.1862 12.7697 18.4362 11.9364L16.1862 9.6864ZM17.8529 17.1031C17.2695 17.6864 16.5195 18.0197 15.6862 18.0197C14.8529 18.0197 14.0195 17.6864 13.3529 17.0197L11.1029 14.7697C10.5195 14.1864 10.1862 13.3531 10.1862 12.5197C10.1862 11.6864 10.5195 10.8531 11.1029 10.2697C11.6862 9.6864 12.4362 9.35307 13.2695 9.35307C14.1029 9.35307 14.9362 9.6864 15.6029 10.3531L17.8529 12.6864C18.4362 13.2697 18.7695 14.1031 18.7695 14.9364C18.7695 15.6864 18.4362 16.5197 17.8529 17.1031Z" fill="#6941C6"/>
<path d="M13.2682 11.7688C13.1849 11.6855 13.1016 11.6022 12.9349 11.6022C12.8516 11.6022 12.6849 11.6855 12.6016 11.7688C12.4349 11.9355 12.4349 12.2688 12.6016 12.4355L13.5182 13.3522C13.6016 13.4355 13.6849 13.5188 13.8516 13.5188C13.9349 13.5188 14.1016 13.4355 14.1849 13.3522C14.2682 13.2688 14.3516 13.1855 14.3516 13.0188C14.3516 12.9355 14.2682 12.7688 14.1849 12.6855L13.2682 11.7688Z" fill="#6941C6"/>
<path d="M11.3516 7.43555C11.4349 7.43555 11.5182 7.35221 11.6016 7.35221C11.6849 7.26888 11.7682 7.10221 11.6849 7.01888C11.6849 6.85221 11.5182 6.68555 11.2682 6.68555C10.3516 6.85221 9.51823 7.26888 8.85156 7.93555C8.1849 8.60221 7.76823 9.43555 7.60156 10.3522C7.60156 10.4355 7.60156 10.6022 7.6849 10.6855C7.76823 10.7689 7.85156 10.8522 7.9349 10.8522L8.01823 10.8522C8.1849 10.8522 8.35156 10.6855 8.4349 10.5189C8.60156 9.76888 8.9349 9.10221 9.51823 8.60221C9.9349 7.93555 10.6016 7.60221 11.3516 7.43555Z" fill="#6941C6"/>
<path d="M11.7682 5.60254C11.8516 5.60254 11.9349 5.51921 12.0182 5.51921C12.1016 5.43587 12.1849 5.26921 12.1016 5.18587C12.1016 5.01921 11.9349 4.85254 11.6849 4.85254C10.1849 5.10254 8.76823 5.76921 7.6849 6.85254C6.60156 7.93587 5.85156 9.26921 5.60156 10.7692C5.60156 10.8525 5.60156 11.0192 5.6849 11.1025C5.76823 11.1859 5.85156 11.2692 5.9349 11.2692L6.01823 11.2692C6.1849 11.2692 6.35156 11.1025 6.4349 10.9359C6.6849 9.60254 7.35156 8.35254 8.26823 7.43587C9.1849 6.43587 10.4349 5.85254 11.7682 5.60254Z" fill="#6941C6"/>
</svg>
