<svg width="26" height="24" viewBox="0 0 26 24" fill="none" xmlns="http://www.w3.org/2000/svg">
<path d="M23.7014 0.0814209L2.19769 0.0814209C0.980498 0.0814209 0.0878906 1.05517 0.0878906 2.19122L0.0878906 10.7927L0.0878906 20.8548L0.0878906 21.0171C0.0878906 22.2343 1.06164 23.1269 2.19769 23.1269L23.6203 23.1269C24.8374 23.1269 25.7301 22.1532 25.7301 21.0171L25.7301 2.27237C25.8112 1.05517 24.9186 0.0814209 23.7014 0.0814209ZM24.9997 21.0171C24.9997 21.7474 24.4317 22.3154 23.7014 22.3154L2.19769 22.3154C1.62967 22.3154 1.14279 21.9909 0.980498 21.504L0.980498 2.19122C0.980498 1.4609 1.54852 0.892882 2.27884 0.892882L23.7014 0.892882C24.4317 0.892882 24.9997 1.4609 24.9997 2.19122L24.9997 21.0171Z" fill="#6941C6"/>
<path d="M2.75979 1.86658L1.86719 1.86658L1.86719 2.75918L2.75979 2.75918L2.75979 1.86658Z" fill="#6941C6"/>
<path d="M4.46292 1.86658L3.57031 1.86658L3.57031 2.75918L4.46292 2.75918L4.46292 1.86658Z" fill="#6941C6"/>
<path d="M6.17386 1.86658L5.28125 1.86658L5.28125 2.75918L6.17386 2.75918L6.17386 1.86658Z" fill="#6941C6"/>
<path d="M24.1012 3.5708L1.86719 3.5708L1.86719 4.46341L24.1012 4.46341L24.1012 3.5708Z" fill="#6941C6"/>
<path d="M20.774 12.4968L18.8265 12.4968C18.6642 12.4968 18.502 12.6591 18.502 12.8214C18.502 12.9837 18.6642 13.146 18.8265 13.146L20.774 13.146C20.9363 13.146 21.0986 12.9837 21.0986 12.8214C21.0986 12.6591 20.9363 12.4968 20.774 12.4968Z" fill="#6941C6"/>
<path d="M21.9984 10.5491L17.6165 10.5491C16.9673 10.5491 16.4805 11.0359 16.4805 11.6851L16.4805 13.9572C16.4805 14.6064 16.9673 15.0933 17.6165 15.0933L21.9984 15.0933C22.6476 15.0933 23.1344 14.6064 23.1344 13.9572L23.1344 11.6851C23.1344 11.0359 22.6476 10.5491 21.9984 10.5491ZM22.323 13.9572C22.323 14.1195 22.1607 14.2818 21.9984 14.2818L17.6165 14.2818C17.4542 14.2818 17.2919 14.1195 17.2919 13.9572L17.2919 11.6851C17.2919 11.5228 17.4542 11.3605 17.6165 11.3605L21.9984 11.3605C22.1607 11.3605 22.323 11.5228 22.323 11.6851L22.323 13.9572Z" fill="#6941C6"/>
<path d="M13.555 10.6304L3.9798 10.6304C3.33063 10.6304 2.84375 11.1172 2.84375 11.7664L2.84375 14.0385C2.84375 14.6877 3.33063 15.1746 3.9798 15.1746L13.555 15.1746C14.2042 15.1746 14.6911 14.6877 14.6911 14.0385L14.6911 11.7664C14.6911 11.1172 14.2042 10.6304 13.555 10.6304ZM13.8796 14.0385C13.8796 14.2008 13.7173 14.3631 13.555 14.3631L3.9798 14.3631C3.8175 14.3631 3.65521 14.2008 3.65521 14.0385L3.65521 11.7664C3.65521 11.6041 3.8175 11.4418 3.9798 11.4418L13.555 11.4418C13.7173 11.4418 13.8796 11.6041 13.8796 11.7664L13.8796 14.0385Z" fill="#6941C6"/>
<path d="M5.60123 12.2532C5.27664 12.2532 5.0332 12.4966 5.0332 12.8212C5.0332 13.1458 5.27664 13.3892 5.60123 13.3892C5.92581 13.3892 6.16925 13.1458 6.16925 12.8212C6.16925 12.4966 5.84466 12.2532 5.60123 12.2532Z" fill="#6941C6"/>
<path d="M7.22037 12.2532C6.89578 12.2532 6.65234 12.4966 6.65234 12.8212C6.65234 13.1458 6.89578 13.3892 7.22037 13.3892C7.54495 13.3892 7.78839 13.1458 7.78839 12.8212C7.78839 12.4966 7.46381 12.2532 7.22037 12.2532Z" fill="#6941C6"/>
<path d="M25.2364 0.649168C24.8307 0.243438 24.2627 1.02578e-09 23.6947 1.00176e-09L2.19094 0C0.973753 0 0 0.973752 0 2.19094L-8.88547e-10 21.0168C-9.40007e-10 22.234 0.973753 23.2078 2.19094 23.2078L23.6135 23.2078C24.8307 23.2078 25.8045 22.234 25.8045 21.0168L25.8045 2.27209C25.8856 1.62292 25.6422 1.0549 25.2364 0.649168ZM24.9118 21.0168C24.9118 21.666 24.3438 22.234 23.6947 22.234L2.19094 22.234C1.70407 22.234 1.21719 21.9094 1.0549 21.5037L1.0549 2.19094C1.0549 1.54177 1.62292 0.973752 2.27209 0.973752L23.6947 0.973752C24.3438 0.973752 24.9118 1.54177 24.9118 2.19094L24.9118 21.0168Z" fill="#6941C6"/>
<path d="M2.84396 1.7854L1.78906 1.7854L1.78906 2.8403L2.84396 2.8403L2.84396 1.7854Z" fill="#6941C6"/>
<path d="M4.54709 1.7854L3.49219 1.7854L3.49219 2.8403L4.54709 2.8403L4.54709 1.7854Z" fill="#6941C6"/>
<path d="M6.24826 1.78528L5.19336 1.78528L5.19336 2.84018L6.24826 2.84018L6.24826 1.78528Z" fill="#6941C6"/>
<path d="M24.1854 3.48938L1.78906 3.48938L1.78906 4.54428L24.1854 4.54428L24.1854 3.48938Z" fill="#6941C6"/>
<path d="M20.7751 12.4154L18.8276 12.4154C18.5842 12.4154 18.4219 12.5777 18.4219 12.8211C18.4219 13.0646 18.5842 13.2269 18.8276 13.2269L20.7751 13.2269C21.0186 13.2269 21.1808 13.0646 21.1808 12.8211C21.1808 12.5777 21.0186 12.4154 20.7751 12.4154Z" fill="#6941C6"/>
<path d="M21.9897 10.4679L17.6078 10.4679C16.9586 10.4679 16.3906 11.0359 16.3906 11.6851L16.3906 13.9572C16.3906 14.6063 16.9586 15.1744 17.6078 15.1744L21.9897 15.1744C22.6389 15.1744 23.2069 14.6063 23.2069 13.9572L23.2069 11.6851C23.2069 11.0359 22.6389 10.4679 21.9897 10.4679ZM22.2331 13.9572C22.2331 14.0383 22.152 14.2006 21.9897 14.2006L17.6078 14.2006C17.5267 14.2006 17.3644 14.1195 17.3644 13.9572L17.3644 11.6851C17.3644 11.6039 17.4455 11.4416 17.6078 11.4416L21.9897 11.4416C22.0709 11.4416 22.2331 11.5228 22.2331 11.6851L22.2331 13.9572Z" fill="#6941C6"/>
<path d="M13.5483 10.549L3.97305 10.549C3.32388 10.549 2.75586 11.117 2.75586 11.7661L2.75586 14.0382C2.75586 14.6874 3.32388 15.2554 3.97305 15.2554L13.5483 15.2554C14.1975 15.2554 14.7655 14.6874 14.7655 14.0382L14.7655 11.7661C14.7655 11.0358 14.2786 10.549 13.5483 10.549ZM13.7917 14.0382C13.7917 14.1194 13.7106 14.2817 13.5483 14.2817L3.97305 14.2817C3.8919 14.2817 3.72961 14.2005 3.72961 14.0382L3.72961 11.7661C3.72961 11.685 3.81076 11.5227 3.97305 11.5227L13.5483 11.5227C13.6294 11.5227 13.7917 11.6038 13.7917 11.7661L13.7917 14.0382Z" fill="#6941C6"/>
<path d="M5.60034 13.4702C5.95887 13.4702 6.24951 13.1796 6.24951 12.821C6.24951 12.4625 5.95887 12.1719 5.60034 12.1719C5.24182 12.1719 4.95117 12.4625 4.95117 12.821C4.95117 13.1796 5.24182 13.4702 5.60034 13.4702Z" fill="#6941C6"/>
<path d="M7.22534 13.4702C7.58387 13.4702 7.87451 13.1796 7.87451 12.821C7.87451 12.4625 7.58387 12.1719 7.22534 12.1719C6.86682 12.1719 6.57617 12.4625 6.57617 12.821C6.57617 13.1796 6.86682 13.4702 7.22534 13.4702Z" fill="#6941C6"/>
<path d="M8.84839 13.4702C9.20691 13.4702 9.49756 13.1796 9.49756 12.821C9.49756 12.4625 9.20691 12.1719 8.84839 12.1719C8.48986 12.1719 8.19922 12.4625 8.19922 12.821C8.19922 13.1796 8.48986 13.4702 8.84839 13.4702Z" fill="#6941C6"/>
<path d="M8.84537 12.2532C8.52078 12.2532 8.27734 12.4966 8.27734 12.8212C8.27734 13.1458 8.52078 13.3892 8.84537 13.3892C9.16995 13.3892 9.41339 13.1458 9.41339 12.8212C9.41339 12.4966 9.08881 12.2532 8.84537 12.2532Z" fill="#6941C6"/>
</svg>
