<svg width="18" height="18" viewBox="0 0 18 18" fill="none" xmlns="http://www.w3.org/2000/svg">
<path d="M13.168 1.78259C14.4249 2.50831 15.4704 3.5497 16.2012 4.80368C16.9319 6.05765 17.3224 7.48074 17.3342 8.93204C17.3459 10.3833 16.9784 11.8126 16.268 13.0782C15.5576 14.3438 14.529 15.4019 13.284 16.1479C12.039 16.8938 10.6208 17.3016 9.16972 17.331C7.71866 17.3603 6.28509 17.0102 5.01093 16.3153C3.73677 15.6204 2.66619 14.6047 1.90519 13.3689C1.14419 12.133 0.719143 10.7199 0.672136 9.26926L0.667969 8.99926L0.672136 8.72926C0.718805 7.29008 1.13759 5.88756 1.88767 4.65842C2.63775 3.42928 3.69351 2.41547 4.95205 1.71583C6.21058 1.01619 7.62892 0.65459 9.06881 0.666291C10.5087 0.677992 11.921 1.06259 13.168 1.78259ZM12.0905 6.74343C11.947 6.59995 11.7561 6.51375 11.5535 6.50102C11.351 6.48828 11.1508 6.54988 10.9905 6.67426L10.9121 6.74343L8.16797 9.48676L7.09047 8.41009L7.01214 8.34093C6.85179 8.21664 6.65161 8.15511 6.44914 8.16789C6.24667 8.18066 6.05581 8.26686 5.91235 8.41031C5.7689 8.55376 5.6827 8.74462 5.66993 8.9471C5.65716 9.14957 5.71868 9.34975 5.84297 9.51009L5.91214 9.58842L7.5788 11.2551L7.65714 11.3243C7.80328 11.4376 7.983 11.4992 8.16797 11.4992C8.35294 11.4992 8.53266 11.4376 8.6788 11.3243L8.75714 11.2551L12.0905 7.92176L12.1596 7.84343C12.284 7.68309 12.3456 7.48288 12.3329 7.28036C12.3201 7.07784 12.234 6.88692 12.0905 6.74343Z" fill="#52CB98"/>
</svg>
