<svg width="27" height="22" viewBox="0 0 27 22" fill="none" xmlns="http://www.w3.org/2000/svg">
<path d="M25.9837 20.2712L25.058 16.8769L25.0194 16.8383C25.0194 16.8383 24.9809 16.7997 24.9809 16.7612C24.9809 16.7226 24.9423 16.684 24.9423 16.684C24.3251 14.8326 22.8209 13.444 20.9694 12.9812L20.6994 12.904C20.5837 12.8655 20.5066 12.8655 20.3909 12.8655C20.0437 12.8655 19.6966 13.0197 19.4266 13.2897C18.4623 14.4083 17.1894 14.4855 15.9166 14.4855C14.528 14.4855 13.3323 14.4083 12.4066 13.2897C12.1751 13.0197 11.8666 12.8655 11.4809 12.8655C11.3651 12.8655 11.2494 12.8655 11.1337 12.904L10.7866 12.9812C9.43658 13.2897 8.24086 14.1769 7.39229 15.4112L4.69229 15.4112C4.69229 15.3726 4.69229 15.3726 4.65372 15.334L5.23229 13.3283C5.73372 11.7083 6.69801 11.284 8.62658 10.7826L8.66515 10.7826L8.70372 10.744C8.70372 10.744 8.74229 10.7055 8.78086 10.7055C8.78086 10.7055 8.78086 10.7055 8.81944 10.7055C8.97372 10.8212 9.12801 10.9369 9.28229 10.9755C9.39801 11.0912 9.51372 11.0912 9.59086 11.0912C9.78372 11.0912 10.0152 10.9755 10.0923 10.744C10.1694 10.5512 10.208 10.3583 10.1309 10.204C10.0537 10.0883 9.97658 9.9726 9.82229 9.9726C8.81944 9.47117 8.12515 7.96688 8.12515 6.42403C8.12515 5.07403 9.20515 3.99403 10.5551 3.99403C10.7094 3.99403 10.9023 4.0326 11.0951 4.07117C10.8637 4.64974 10.748 5.26688 10.748 5.96117C10.748 9.93403 13.1009 13.2126 15.9937 13.2126C18.8094 13.2126 21.2394 9.81831 21.2394 5.96117C21.2394 3.06831 18.8866 0.715454 15.9937 0.715454C14.258 0.715454 12.638 1.56403 11.6737 2.99117C11.288 2.87545 10.9023 2.79831 10.5551 2.79831C9.32086 2.79831 8.20229 3.41545 7.46944 4.49545C7.31515 4.68831 7.27658 4.8426 7.12229 5.22831C7.00658 5.53688 6.92944 5.96117 6.92944 6.34688C6.92944 7.5426 7.31515 8.77688 7.97086 9.7026C6.54372 10.0883 5.46372 10.5897 4.73086 11.7469C4.73086 11.7855 4.30658 12.364 4.19086 12.9812L3.65086 15.1026C3.53515 15.4883 3.65086 15.8355 3.88229 16.0669C4.11372 16.3369 4.38372 16.5297 4.69229 16.5297L6.92944 16.5297C6.89086 16.6455 6.85229 16.7612 6.85229 16.8383L5.92658 20.194C5.84944 20.5797 5.84944 21.0426 6.23515 21.4283C6.54372 21.814 6.89086 22.0069 7.31515 22.0069L24.6723 22.0069C25.0966 22.0069 25.4437 21.814 25.7523 21.4669C26.0609 21.1969 26.138 20.734 25.9837 20.2712ZM12.1366 5.1126C12.2137 4.76545 12.2909 4.41831 12.4066 4.14831L12.5609 3.99403C13.2937 2.72117 14.6051 1.94974 16.0709 1.94974C17.8066 1.94974 19.3494 3.02974 19.928 4.64974C19.8509 4.64974 19.7737 4.64974 19.6966 4.64974C19.0023 4.64974 18.4237 4.34117 18.0766 3.83974C17.9609 3.68545 17.8066 3.60831 17.6137 3.60831C17.4594 3.60831 17.3437 3.64688 17.228 3.7626C17.1509 3.83974 17.0737 3.91688 17.0737 4.07117L17.0351 4.14831C16.5723 5.03545 15.3766 5.57545 13.7566 5.57545C13.2166 5.57545 12.6766 5.53688 12.098 5.42117C12.098 5.30545 12.1366 5.22831 12.1366 5.1126ZM13.6409 6.61688C15.5694 6.61688 16.9966 6.07688 17.7294 5.03545C18.2309 5.45974 18.8866 5.69117 19.7351 5.69117C19.8509 5.69117 19.9666 5.6526 20.0823 5.6526C20.1209 5.6526 20.1594 5.6526 20.198 5.6526C20.2366 5.72974 20.2366 5.80688 20.2366 5.9226C20.2366 9.1626 18.3466 12.0555 16.148 12.0555C14.1809 12.0555 12.3294 9.54831 12.098 6.50117C12.5994 6.61688 13.1394 6.61688 13.6409 6.61688ZM24.8652 20.8112C24.788 20.8883 24.788 20.8883 24.7109 20.8883L7.23801 20.8883C7.19944 20.8883 7.16086 20.8883 7.12229 20.8883L7.12229 20.8497L7.08372 20.8112C7.08372 20.8112 7.04515 20.7726 7.04515 20.6183L7.97086 17.2626C8.39515 15.7583 9.59086 14.6012 11.1723 14.1383L11.4809 14.0612C11.4809 14.0612 11.5194 14.0612 11.5194 14.0997C11.558 14.0997 11.558 14.1383 11.5966 14.1383C12.8309 15.5655 14.2966 15.6812 15.9551 15.6812C17.4594 15.6812 19.0409 15.5655 20.3137 14.1383C20.3523 14.0997 20.3523 14.0997 20.3909 14.0997L20.468 14.1383L20.738 14.2155C22.2423 14.6012 23.4766 15.7969 23.9394 17.3397L24.3251 18.8055L24.3637 18.9212L24.4023 18.9597L24.9423 20.6955C24.9423 20.6569 24.9037 20.734 24.8652 20.8112Z" fill="#6941C6"/>
<path d="M1.5678 8.73837L3.07209 7.27265C3.26494 7.07979 3.26494 6.88694 3.07209 6.69408C2.99494 6.61694 2.87923 6.53979 2.76352 6.53979C2.6478 6.53979 2.57066 6.57837 2.45494 6.69408L0.680658 8.46837C0.603516 8.54551 0.603516 8.66122 0.603516 8.73837C0.603516 8.81551 0.642087 8.85408 0.680658 8.93122L0.680658 8.96979L2.49352 10.7827C2.57066 10.8598 2.68637 10.9369 2.80209 10.9369C2.9178 10.9369 2.99494 10.8984 3.11066 10.7827C3.1878 10.7055 3.26494 10.5898 3.26494 10.4741C3.26494 10.3584 3.22637 10.2812 3.11066 10.1655L1.5678 8.73837Z" fill="#6941C6"/>
</svg>
