<svg width="18" height="18" viewBox="0 0 18 18" fill="none" xmlns="http://www.w3.org/2000/svg">
<path d="M9.02086 0.666016C11.3292 0.666016 13.2984 1.48109 14.9285 3.11124C16.5587 4.74139 17.3738 6.7041 17.3738 8.99935C17.3738 11.2946 16.5587 13.2573 14.9285 14.8875C13.2984 16.5176 11.3292 17.3327 9.02086 17.3327C6.71257 17.3327 4.74335 16.5176 3.1132 14.8875C1.48304 13.2573 0.667969 11.2946 0.667969 8.99935C0.667969 6.7041 1.48304 4.74139 3.1132 3.11124C4.74335 1.48109 6.71257 0.666016 9.02086 0.666016ZM9.86202 13.1856V8.17775H8.17971V13.1856H9.86202ZM9.86202 6.49544V4.81312H8.17971V6.49544H9.86202Z" fill="#FFB545"/>
</svg>
