<svg width="28" height="28" viewBox="0 0 28 28" fill="none" xmlns="http://www.w3.org/2000/svg">
<mask id="mask0_3639_55601" style="mask-type:luminance" maskUnits="userSpaceOnUse" x="0" y="0" width="28" height="28">
<path d="M27.332 0.215454L0.332031 0.215454L0.332031 27.2155L27.332 27.2155L27.332 0.215454Z" fill="white"/>
</mask>
<g mask="url(#mask0_3639_55601)">
<path d="M25.4911 0.215454L2.17294 0.215454C1.19112 0.215454 0.332031 1.07454 0.332031 2.05636L0.332031 25.3745C0.332031 26.3564 1.19112 27.2155 2.17294 27.2155L25.4911 27.2155C26.4729 27.2155 27.332 26.3564 27.332 25.3745L27.332 2.05636C27.332 0.992727 26.5548 0.215454 25.4911 0.215454ZM26.3502 3.81545C26.3502 3.81545 26.3502 3.81545 26.3502 3.93818L26.3502 25.2927C26.3502 25.7427 25.9002 26.1518 25.4911 26.1518L2.17294 26.1518C1.72294 26.1518 1.31385 25.7018 1.31385 25.2927C1.31385 25.2518 1.31385 3.81545 1.31385 3.81545L1.31385 1.97455C1.31385 1.52455 1.76385 1.11545 2.17294 1.11545L25.4911 1.11545C25.9411 1.11545 26.3502 1.56545 26.3502 1.97455L26.3502 3.81545Z" fill="#6941C6"/>
<path d="M13.8743 9.82905L22.5879 9.82905C22.8334 9.82905 22.997 9.66541 22.997 9.41996C22.997 9.1745 22.8334 9.01086 22.5879 9.01086L13.8743 9.01086C13.6288 9.01086 13.4652 9.1745 13.4652 9.41996C13.4243 9.66541 13.5879 9.82905 13.8743 9.82905Z" fill="#6941C6"/>
<path d="M5.03604 12.3655L22.5451 12.3655C22.7906 12.3655 22.9542 12.2019 22.9542 11.9565C22.9542 11.711 22.7906 11.5474 22.5451 11.5474L5.03604 11.5474C4.79059 11.5474 4.62695 11.711 4.62695 11.9565C4.62695 12.2019 4.79059 12.3655 5.03604 12.3655Z" fill="#6941C6"/>
<path d="M5.03604 14.9018L22.5451 14.9018C22.7906 14.9018 22.9542 14.7382 22.9542 14.4927C22.9542 14.2473 22.7906 14.0836 22.5451 14.0836L5.03604 14.0836C4.79059 14.0836 4.62695 14.2473 4.62695 14.4927C4.62695 14.7382 4.79059 14.9018 5.03604 14.9018Z" fill="#6941C6"/>
<path d="M5.03604 17.4791L22.5451 17.4791C22.7906 17.4791 22.9542 17.3154 22.9542 17.07C22.9542 16.8245 22.7906 16.6609 22.5451 16.6609L5.03604 16.6609C4.79059 16.6609 4.62695 16.8245 4.62695 17.07C4.62695 17.3154 4.79059 17.4791 5.03604 17.4791Z" fill="#6941C6"/>
<path d="M13.8743 7.2519L22.5879 7.2519C22.8334 7.2519 22.997 7.08826 22.997 6.84281C22.997 6.59735 22.8334 6.43372 22.5879 6.43372L13.8743 6.43372C13.6288 6.43372 13.4652 6.59735 13.4652 6.84281C13.4243 7.08826 13.5879 7.2519 13.8743 7.2519Z" fill="#6941C6"/>
<path d="M13.8743 4.7154L22.5879 4.7154C22.8334 4.7154 22.997 4.55176 22.997 4.30631C22.997 4.06085 22.8334 3.89722 22.5879 3.89722L13.8743 3.89722C13.6288 3.89722 13.4652 4.06085 13.4652 4.30631C13.4243 4.55176 13.5879 4.7154 13.8743 4.7154Z" fill="#6941C6"/>
<path d="M4.91332 22.5518L10.5179 22.5518C10.6815 22.5518 10.8042 22.3882 10.8042 22.1427C10.8042 21.8973 10.6815 21.7336 10.5179 21.7336L4.91332 21.7336C4.74968 21.7336 4.62695 21.8973 4.62695 22.1427C4.62695 22.3882 4.74968 22.5518 4.91332 22.5518Z" fill="#6941C6"/>
<path d="M4.91332 20.0154L10.5179 20.0154C10.6815 20.0154 10.8042 19.8518 10.8042 19.6064C10.8042 19.3609 10.6815 19.1973 10.5179 19.1973L4.91332 19.1973C4.74968 19.1973 4.62695 19.3609 4.62695 19.6064C4.62695 19.8518 4.74968 20.0154 4.91332 20.0154Z" fill="#6941C6"/>
<path d="M5.24112 9.87007L11.2548 9.87007C11.4593 9.87007 11.6638 9.70644 11.6638 9.46098L11.6638 8.47916C11.6638 7.37462 10.8457 6.35189 9.78203 6.10644C10.8048 4.83825 9.90476 2.91553 8.26839 2.91553C6.63203 2.91553 5.73203 4.83825 6.75476 6.10644C5.65021 6.35189 4.83203 7.37462 4.83203 8.47916L4.83203 9.46098C4.83203 9.66553 4.99567 9.87007 5.24112 9.87007ZM8.22749 3.73371C8.88203 3.73371 9.37294 4.26553 9.37294 4.87916C9.29112 6.43371 7.12294 6.43371 7.04112 4.87916C7.08203 4.26553 7.61385 3.73371 8.22749 3.73371ZM5.6093 8.47916C5.6093 7.62007 6.34567 6.8428 7.24567 6.8428L9.2093 6.8428C10.0684 6.8428 10.8457 7.57916 10.8457 8.47916L10.8457 9.05189L5.6093 9.05189L5.6093 8.47916Z" fill="#6941C6"/>
<path d="M17.4722 24.27C16.9403 24.27 16.5312 24.72 16.5312 25.2109C16.5312 25.7427 16.9812 26.1519 17.4722 26.1519C17.9631 26.1519 18.4131 25.7018 18.4131 25.2109C18.454 24.72 18.004 24.27 17.4722 24.27ZM17.4722 25.5382C17.3085 25.5382 17.1858 25.4155 17.1858 25.2519C17.1858 25.0882 17.3085 24.9655 17.4722 24.9655C17.6358 24.9655 17.7585 25.0882 17.7585 25.2519C17.7585 25.4155 17.6358 25.5382 17.4722 25.5382Z" fill="#6941C6"/>
<path d="M20.5815 24.27C20.0497 24.27 19.6406 24.72 19.6406 25.2109C19.6406 25.7427 20.0906 26.1519 20.5815 26.1519C21.1134 26.1519 21.5224 25.7018 21.5224 25.2109C21.5224 24.72 21.1134 24.27 20.5815 24.27ZM20.5815 25.5382C20.4179 25.5382 20.2952 25.4155 20.2952 25.2519C20.2952 25.0882 20.4179 24.9655 20.5815 24.9655C20.7452 24.9655 20.8679 25.0882 20.8679 25.2519C20.8679 25.4155 20.7452 25.5382 20.5815 25.5382Z" fill="#6941C6"/>
<path d="M22.4235 20.0564C22.3417 19.9746 22.2598 19.9337 22.178 19.9337L16.1644 19.9337L15.9189 18.9928C15.878 18.8701 15.7553 18.7473 15.5917 18.7473L14.3644 18.7473C14.1598 18.7473 14.0371 18.911 14.0371 19.0746C14.0371 19.2382 14.2007 19.4019 14.3644 19.4019L15.3462 19.4019L16.5326 23.9019C16.5735 24.0655 16.6962 24.1473 16.8598 24.1473L21.1962 24.1473C21.3598 24.1473 21.4826 24.0246 21.5235 23.9019L22.4644 20.3019C22.4644 20.261 22.4644 20.1382 22.4235 20.0564ZM17.1053 23.4928L16.3689 20.5882L21.728 20.5882L20.9507 23.4928L17.1053 23.4928Z" fill="#6941C6"/>
<path d="M20.1323 20.9155C20.0505 20.9155 19.9686 20.9564 19.9277 20.9973L18.6596 22.2655L18.1686 21.7746C18.1277 21.7337 18.0459 21.6928 17.9641 21.6928C17.8823 21.6928 17.8005 21.7337 17.7596 21.7746C17.7186 21.8155 17.6777 21.8973 17.6777 21.9792C17.6777 22.061 17.7186 22.1428 17.7596 22.1837L18.455 22.8792C18.4959 22.9201 18.5777 22.961 18.6596 22.961C18.7414 22.961 18.8232 22.9201 18.8641 22.8792L20.3368 21.3655C20.4596 21.2428 20.4596 21.0383 20.3368 20.9155C20.2959 20.9564 20.2141 20.9155 20.1323 20.9155Z" fill="#6941C6"/>
</g>
</svg>
