<svg width="26" height="20" viewBox="0 0 26 20" fill="none" xmlns="http://www.w3.org/2000/svg">
<path d="M7.15774 11.331L1.249 11.331C0.832887 11.331 0.5 10.9981 0.5 10.582L0.5 4.6733C0.5 4.2572 0.832887 3.92432 1.249 3.92432L7.15774 3.92432C7.57385 3.92432 7.90673 4.2572 7.90673 4.6733L7.90673 10.582C7.82351 10.9981 7.49062 11.331 7.15774 11.331ZM1.41544 10.4155L6.99129 10.4155L6.99129 4.83974L1.41544 4.83974L1.41544 10.4155Z" fill="#6941C6"/>
<path d="M15.8101 11.331L9.90134 11.331C9.48523 11.331 9.15234 10.9981 9.15234 10.582L9.15234 4.6733C9.15234 4.2572 9.48523 3.92432 9.90134 3.92432L15.8101 3.92432C16.2262 3.92432 16.5591 4.2572 16.5591 4.6733L16.5591 10.582C16.5591 10.9981 16.2262 11.331 15.8101 11.331ZM10.0678 10.4155L15.6436 10.4155L15.6436 4.83974L10.0678 4.83974L10.0678 10.4155Z" fill="#6941C6"/>
<path d="M24.5484 11.331L18.6396 11.331C18.2235 11.331 17.8906 10.9981 17.8906 10.582L17.8906 4.6733C17.8906 4.2572 18.2235 3.92432 18.6396 3.92432L24.5484 3.92432C24.9645 3.92432 25.2974 4.2572 25.2974 4.6733L25.2974 10.582C25.2974 10.9981 24.9645 11.331 24.5484 11.331ZM18.8061 10.4155L24.3819 10.4155L24.3819 4.83974L18.8061 4.83974L18.8061 10.4155Z" fill="#6941C6"/>
<path d="M7.15774 19.9858L1.249 19.9858C0.832887 19.9858 0.5 19.6529 0.5 19.2368L0.5 13.3281C0.5 12.912 0.832887 12.5791 1.249 12.5791L7.15774 12.5791C7.57385 12.5791 7.90673 12.912 7.90673 13.3281L7.90673 19.2368C7.82351 19.6529 7.49062 19.9858 7.15774 19.9858ZM1.41544 19.0703L6.99129 19.0703L6.99129 13.4945L1.41544 13.4945L1.41544 19.0703Z" fill="#6941C6"/>
<path d="M15.8101 19.9862L9.90134 19.9862C9.48523 19.9862 9.15234 19.6534 9.15234 19.2373L9.15234 13.3286C9.15234 12.9125 9.48523 12.5796 9.90134 12.5796L15.8101 12.5796C16.2262 12.5796 16.5591 12.9125 16.5591 13.3286L16.5591 19.2373C16.5591 19.6534 16.2262 19.9862 15.8101 19.9862ZM10.0678 19.0708L15.6436 19.0708L15.6436 13.495L10.0678 13.495L10.0678 19.0708Z" fill="#6941C6"/>
<path d="M24.5484 19.9858L18.6396 19.9858C18.2235 19.9858 17.8906 19.6529 17.8906 19.2368L17.8906 13.3281C17.8906 12.912 18.2235 12.5791 18.6396 12.5791L24.5484 12.5791C24.9645 12.5791 25.2974 12.912 25.2974 13.3281L25.2974 19.2368C25.2974 19.6529 24.9645 19.9858 24.5484 19.9858ZM18.8061 19.0703L24.3819 19.0703L24.3819 13.4945L18.8061 13.4945L18.8061 19.0703Z" fill="#6941C6"/>
<path d="M6.74055 0.845392L3.99423 0.845392C3.74457 0.845392 3.57812 0.67895 3.57812 0.429288C3.57812 0.179625 3.74457 0.0131836 3.99423 0.0131836L6.74055 0.0131836C6.99022 0.0131836 7.15666 0.179625 7.15666 0.429288C7.15666 0.67895 6.99022 0.845392 6.74055 0.845392Z" fill="#6941C6"/>
<path d="M11.7327 0.845392L8.98642 0.845392C8.73676 0.845392 8.57031 0.67895 8.57031 0.429288C8.57031 0.179625 8.73676 0.0131836 8.98642 0.0131836L11.7327 0.0131836C11.9824 0.0131836 12.1488 0.179625 12.1488 0.429288C12.1488 0.67895 11.9824 0.845392 11.7327 0.845392Z" fill="#6941C6"/>
<path d="M16.8109 0.845392L14.0645 0.845392C13.8149 0.845392 13.6484 0.67895 13.6484 0.429288C13.6484 0.179625 13.8149 0.0131836 14.0645 0.0131836L16.8109 0.0131836C17.0605 0.0131836 17.227 0.179625 17.227 0.429288C17.227 0.67895 17.0605 0.845392 16.8109 0.845392Z" fill="#6941C6"/>
<path d="M21.8031 0.845392L19.0567 0.845392C18.8071 0.845392 18.6406 0.67895 18.6406 0.429288C18.6406 0.179625 18.8071 0.0131836 19.0567 0.0131836L21.8031 0.0131836C22.0527 0.0131836 22.2192 0.179625 22.2192 0.429288C22.3024 0.67895 22.0527 0.845392 21.8031 0.845392Z" fill="#6941C6"/>
</svg>
