<svg width="33" height="20" viewBox="0 0 33 20" fill="none" xmlns="http://www.w3.org/2000/svg">
<path d="M29.4773 11.3139C29.3976 11.3139 29.3179 11.2343 29.1586 11.2343C28.9992 11.0749 28.9992 10.8359 29.1586 10.6765L30.8317 9.00336L29.1586 7.33019C28.9992 7.17084 28.9992 6.93182 29.1586 6.77247C29.3179 6.61312 29.5569 6.61312 29.7163 6.77247L32.0269 8.92369L29.796 11.1546C29.7163 11.3139 29.6366 11.3139 29.4773 11.3139Z" fill="#6941C6"/>
<path d="M2.54959 11.3139C2.62927 11.3139 2.70894 11.2343 2.86829 11.2343C3.02764 11.0749 3.02764 10.8359 2.86829 10.6765L1.19512 9.00336L2.86829 7.33019C3.02764 7.17084 3.02764 6.93182 2.86829 6.77247C2.70894 6.61312 2.46992 6.61312 2.31057 6.77247L0 8.92369L2.23089 11.1546C2.39024 11.3139 2.39024 11.3139 2.54959 11.3139Z" fill="#6941C6"/>
<path d="M21.3498 12.509L10.5938 12.509L10.5937 13.4651L21.3498 13.4651L21.3498 12.509Z" fill="#6941C6"/>
<path d="M21.3498 14.9789L10.5938 14.9789L10.5937 15.935L21.3498 15.935L21.3498 14.9789Z" fill="#6941C6"/>
<path d="M21.5907 6.13065e-10C20.7142 5.76012e-10 10.1175 1.28003e-10 10.1175 1.28003e-10C8.20529 0 7.08984 1.19512 7.08984 3.10732L7.16952 16.2537C7.16952 18.1659 8.52399 19.5203 10.4362 19.5203L21.511 19.6C23.4232 19.6 24.8573 18.1659 24.8573 16.2537L24.8573 3.26667C24.8573 1.43415 23.5028 6.93909e-10 21.5907 6.13065e-10ZM23.6622 16.2537C23.6622 17.5285 22.7858 18.4049 21.511 18.4049L10.4362 18.4049C9.32074 18.4049 8.52399 17.6878 8.36464 16.7317C8.28497 16.3333 8.28497 12.4293 8.28497 3.66504L8.28497 3.26667C8.28497 1.99187 8.92236 1.11545 10.2768 1.11545L21.511 1.11545C22.8655 1.11545 23.6622 1.99187 23.6622 3.26667L23.6622 16.2537Z" fill="#6941C6"/>
<path d="M11.471 10.4374C11.867 10.4374 12.1881 10.1164 12.1881 9.72037C12.1881 9.32434 11.867 9.0033 11.471 9.0033C11.075 9.0033 10.7539 9.32434 10.7539 9.72037C10.7539 10.1164 11.075 10.4374 11.471 10.4374Z" fill="#6941C6"/>
<path d="M14.0999 10.4374C14.4959 10.4374 14.817 10.1164 14.817 9.72037C14.817 9.32434 14.4959 9.0033 14.0999 9.0033C13.7039 9.0033 13.3828 9.32434 13.3828 9.72037C13.3828 10.1164 13.7039 10.4374 14.0999 10.4374Z" fill="#6941C6"/>
<path d="M16.7288 10.4374C17.1248 10.4374 17.4459 10.1164 17.4459 9.72037C17.4459 9.32434 17.1248 9.0033 16.7288 9.0033C16.3328 9.0033 16.0117 9.32434 16.0117 9.72037C16.0117 10.1164 16.3328 10.4374 16.7288 10.4374Z" fill="#6941C6"/>
</svg>
