<svg width="29" height="29" viewBox="0 0 29 29" fill="none" xmlns="http://www.w3.org/2000/svg">
<path d="M4.39481 28.8C1.96364 28.8 0 26.8364 0 24.4052V4.39481C0 1.96364 1.96364 0 4.39481 0H24.4052C26.8364 0 28.8 1.96364 28.8 4.39481V24.4052C28.8 26.8364 26.8364 28.8 24.4052 28.8H4.39481ZM2.8987 27.0234L3.27273 27.2104C3.64675 27.3974 4.02078 27.3974 4.39481 27.3974H24.4052C24.7792 27.3974 25.1532 27.3039 25.5273 27.2104L25.9013 27.0234L14.4 15.4286L2.8987 27.0234ZM4.39481 1.4961C2.8052 1.4961 1.4961 2.8052 1.4961 4.39481V24.4052C1.4961 24.7792 1.58961 25.1532 1.68312 25.5273L1.87013 25.9013L17.6727 10.0987L17.5792 9.91169C16.7377 8.32208 16.3636 7.10649 16.3636 6.17143C16.3636 4.58182 17.0182 3.08571 18.0468 1.87013L18.5143 1.4026H4.39481V1.4961ZM15.4286 14.4L26.9299 25.9013L27.1169 25.5273C27.3039 25.1532 27.3039 24.7792 27.3039 24.4052V10.3792L26.7429 11.3143C25.2468 13.839 23.4701 16.2701 23.0961 16.7377C22.9091 16.9247 22.7221 17.0182 22.5351 17.0182C22.3481 17.0182 22.0675 16.9247 21.974 16.7377C21.6935 16.3636 20.0104 14.213 18.6078 11.7818L18.4208 11.5013L15.4286 14.4ZM22.6286 1.4961C20.0104 1.4961 17.8597 3.64675 17.8597 6.26494C17.8597 8.41558 21.6 13.7455 22.4416 14.774L22.6286 15.0545L22.8156 14.774C23.5636 13.7455 27.3974 8.41558 27.3974 6.26494C27.3974 3.64675 25.2468 1.4961 22.6286 1.4961Z" fill="#5E2EFF"/>
<path d="M8.41556 12.717C5.89088 12.717 3.74023 10.6598 3.74023 8.04166C3.74023 5.42348 5.79738 3.36633 8.41556 3.36633C9.63114 3.36633 10.8467 3.83387 11.6883 4.76893C11.7818 4.86244 11.8753 5.04945 11.8753 5.32997C11.8753 5.61049 11.7818 5.704 11.6883 5.89101C11.5948 5.98452 11.4078 6.07802 11.1272 6.07802C10.8467 6.07802 10.7532 5.98452 10.5662 5.89101C10.0052 5.32997 9.16361 4.95594 8.32205 4.95594C6.54543 4.95594 5.14283 6.35854 5.14283 8.13516C5.14283 9.91179 6.54543 11.3144 8.32205 11.3144C9.63114 11.3144 10.8467 10.4728 11.3143 9.25724L11.5013 8.88322H8.41556C8.04153 8.88322 7.66751 8.50919 7.66751 8.13516C7.66751 7.76114 8.04153 7.38711 8.41556 7.38711H12.2493C12.6234 7.38711 12.9974 7.76114 12.9974 8.13516C12.9974 10.6598 10.9402 12.717 8.41556 12.717Z" fill="#5E2EFF"/>
</svg>
