<svg width="29" height="24" viewBox="0 0 29 24" fill="none" xmlns="http://www.w3.org/2000/svg">
<path d="M16.8003 8.19336L5.79343 8.19336C5.62791 8.19336 5.29687 8.35888 5.29687 8.68991C5.29687 8.85543 5.46239 9.18646 5.79343 9.18646L16.8003 9.18646C16.9658 9.18646 17.2969 9.02095 17.2969 8.68991C17.2969 8.52439 17.1314 8.19336 16.8003 8.19336Z" fill="#6941C6"/>
<path d="M9.93136 11.2548L5.79343 11.2548C5.62791 11.2548 5.29687 11.4203 5.29687 11.7513C5.29687 11.9168 5.46239 12.2479 5.79343 12.2479L9.93136 12.2479C10.0969 12.2479 10.4279 12.0823 10.4279 11.7513C10.4279 11.5858 10.2624 11.2548 9.93136 11.2548Z" fill="#6941C6"/>
<path d="M24.9103 -0.000122069C23.2552 -0.000122069 21.931 1.07574 21.3517 2.48264L1.4069 2.48264C0.579309 2.48264 -1.29458e-10 3.06195 -1.64446e-10 3.88953L-7.6625e-10 18.124C-8.01239e-10 18.9516 0.579309 19.5309 1.4069 19.5309L2.56552 19.5309L2.56552 23.4206C2.56552 23.5861 2.64828 23.7516 2.81379 23.9171C2.81379 23.9999 2.97931 23.9999 3.06207 23.9999C3.31034 23.9999 3.3931 23.9171 3.47586 23.7516L7.77931 19.4482L26.1517 19.4482C26.3172 19.4482 26.6483 19.2826 26.6483 18.9516L26.6483 7.11712C27.8897 6.45505 28.7172 5.21367 28.7172 3.80677C28.7172 1.65505 26.9793 -0.000122069 24.9103 -0.000122069ZM25.4897 18.2895L7.53103 18.2895C7.36552 18.2895 7.2 18.3723 7.11724 18.455L3.64138 21.9309L3.64138 18.7861C3.64138 18.4551 3.47586 18.2895 3.14483 18.2895L1.4069 18.2895C1.32414 18.2895 1.15862 18.2068 1.15862 18.0413L1.15862 3.88953C1.15862 3.80678 1.24138 3.64126 1.4069 3.64126L21.1862 3.64126L21.1862 3.72402C21.1862 5.79298 22.8414 7.44815 24.9103 7.44815C25.0759 7.44815 25.2414 7.44815 25.4897 7.3654L25.4897 18.2895ZM26.6483 5.62746C26.3172 5.9585 25.9035 6.12402 25.4897 6.20677C25.3241 6.20677 25.1586 6.28953 24.9103 6.28953C23.5034 6.28953 22.3448 5.13091 22.3448 3.72402L22.3448 3.64126C22.3448 3.22746 22.5103 2.81367 22.6759 2.48264C23.0897 1.73781 23.9172 1.24126 24.9103 1.24126C26.3172 1.24126 27.4759 2.39988 27.4759 3.80677C27.4759 4.5516 27.1448 5.21367 26.6483 5.62746Z" fill="#6941C6"/>
</svg>
