<svg width="24" height="24" viewBox="0 0 24 24" fill="none" xmlns="http://www.w3.org/2000/svg">
<path d="M3.66624 23.9999C1.64027 23.9999 0.00390625 22.3635 0.00390625 20.3375L0.00390625 3.66222C0.00390625 1.63624 1.64027 -0.00012207 3.66624 -0.00012207L20.3416 -0.000122069C22.3675 -0.000122069 24.0039 1.63624 24.0039 3.66222L24.0039 20.3375C24.0039 22.3635 22.3675 23.9999 20.3416 23.9999L3.66624 23.9999ZM2.41949 22.5194L2.73118 22.6752C3.04287 22.831 3.35456 22.831 3.66624 22.831L20.3416 22.831C20.6533 22.831 20.9649 22.7531 21.2766 22.6752L21.5883 22.5194L12.0039 12.857L2.41949 22.5194ZM3.66624 1.24663C2.34157 1.24663 1.25066 2.33754 1.25066 3.66222L1.25066 20.3375C1.25066 20.6492 1.32858 20.9609 1.4065 21.2726L1.56235 21.5843L14.7312 8.41546L14.6533 8.25962C13.952 6.93494 13.6403 5.92196 13.6403 5.14274C13.6403 3.81806 14.1857 2.57131 15.0429 1.55832L15.4325 1.16871L3.66624 1.16871L3.66624 1.24663ZM12.8611 11.9999L22.4455 21.5843L22.6013 21.2726C22.7572 20.9609 22.7572 20.6492 22.7572 20.3375L22.7572 8.64923L22.2896 9.42845C21.0429 11.5323 19.5623 13.5583 19.2507 13.9479C19.0948 14.1038 18.939 14.1817 18.7831 14.1817C18.6273 14.1817 18.3935 14.1038 18.3156 13.9479C18.0818 13.6362 16.6792 11.844 15.5104 9.81806L15.3546 9.58429L12.8611 11.9999ZM18.861 1.24663C16.6792 1.24663 14.887 3.03884 14.887 5.22066C14.887 7.01287 18.0039 11.4544 18.7052 12.3116L18.861 12.5453L19.0169 12.3116C19.6403 11.4544 22.8351 7.01287 22.8351 5.22066C22.8351 3.03884 21.0429 1.24663 18.861 1.24663Z" fill="#6941C6"/>
<path d="M7.0172 10.5981C4.9133 10.5981 3.12109 8.88383 3.12109 6.70201C3.12109 4.52019 4.83538 2.80591 7.0172 2.80591C8.03018 2.80591 9.04317 3.19552 9.74447 3.97474C9.82239 4.05266 9.90031 4.20851 9.90031 4.44227C9.90031 4.67604 9.82239 4.75396 9.74447 4.9098C9.66655 4.98773 9.5107 5.06565 9.27694 5.06565C9.04317 5.06565 8.96525 4.98773 8.80941 4.9098C8.34187 4.44227 7.64057 4.13058 6.93927 4.13058C5.45876 4.13058 4.28992 5.29941 4.28992 6.77993C4.28992 8.26045 5.45876 9.42928 6.93927 9.42928C8.03018 9.42928 9.04317 8.72799 9.43278 7.715L9.58863 7.40331L7.0172 7.40331C6.70551 7.40331 6.39382 7.09162 6.39382 6.77993C6.39382 6.46825 6.70551 6.15656 7.0172 6.15656L10.212 6.15656C10.5237 6.15656 10.8354 6.46825 10.8354 6.77993C10.8354 8.88383 9.12109 10.5981 7.0172 10.5981Z" fill="#6941C6"/>
</svg>
