<svg width="28" height="24" viewBox="0 0 28 24" fill="none" xmlns="http://www.w3.org/2000/svg">
<g clip-path="url(#clip0_3639_55537)">
<path d="M23.857 24.0027C22.6288 24.0027 21.4774 23.3886 21.0168 22.3907C20.5563 21.3928 20.0957 20.3949 19.6351 19.3203C19.4816 18.8597 19.2513 18.4759 19.0978 18.0154L18.407 16.4034L18.3302 16.4034C17.8696 16.4802 17.3323 16.4802 16.8718 16.4802C14.7993 16.4802 12.957 15.7893 11.4218 14.3309C9.57957 12.6422 8.7352 10.4161 8.88873 7.65275L8.88873 7.57601L7.35353 7.57601C7.04648 7.57601 6.6627 7.57601 6.35565 7.57601C5.89509 7.57601 5.66479 7.42248 5.66479 7.11545C5.66479 6.88515 5.66479 6.73164 5.74156 6.57813C5.81833 6.4246 6.04861 6.34785 6.35565 6.34785C6.81621 6.34785 7.73732 6.34785 8.35141 6.34785L9.11901 6.34785L9.11901 6.27109C9.11901 6.27109 9.73308 4.27533 10.9613 3.04717L11.1148 2.89364L0.982445 2.89364C0.905685 2.89364 0.752164 2.89364 0.675404 2.89364C0.445124 2.97041 0.214844 2.81688 0.214844 2.50984C0.214844 2.12604 0.445124 1.97252 0.675404 1.89576C0.752164 1.89576 0.828924 1.89576 0.905684 1.89576L1.13596 1.89576L12.4965 1.89576C12.4965 1.89576 12.7267 1.74224 13.2641 1.51196C14.3387 0.974643 15.5668 0.667603 16.795 0.667603C18.9443 0.667603 21.0168 1.51196 22.3985 2.97041C25.3155 5.88727 25.5456 10.2626 23.0893 13.5633L22.8591 13.9471L23.3964 14.7147C23.7035 15.0985 24.0105 15.559 24.3943 15.9429C25.085 16.864 25.7758 17.7083 26.4669 18.6294C27.0808 19.4738 27.3112 20.5485 27.0808 21.4696C26.8506 22.4674 26.1598 23.2351 25.1619 23.6956C24.7013 23.9258 24.2407 24.0027 23.857 24.0027ZM19.6351 16.2499L20.326 17.9386C20.8633 19.1668 21.3239 20.3949 21.8612 21.5463C22.245 22.3907 22.9358 22.8513 23.7801 22.8513C24.0872 22.8513 24.4709 22.7745 24.778 22.621C25.3155 22.3139 25.6992 21.8534 25.8527 21.3161C26.0063 20.702 25.8527 19.9344 25.3921 19.3203C24.778 18.4759 24.1641 17.7083 23.5499 16.864L22.0147 14.8682L19.6351 16.2499ZM16.795 1.819C14.9528 1.819 13.2641 2.50984 12.0359 3.81477C10.731 5.11967 10.0401 6.80841 10.1169 8.65066C10.1169 12.3351 13.1873 15.4055 16.8718 15.4055C20.633 15.4055 23.7035 12.3351 23.7035 8.57389C23.6266 4.8894 20.5563 1.819 16.795 1.819Z" fill="#6941C6"/>
<path d="M2.44088 12.3351C1.90356 12.3351 1.36624 12.3351 0.828924 12.3351C0.598644 12.3351 0.445124 12.2583 0.291604 12.1048C0.291604 11.9513 0.214844 11.8745 0.214844 11.721C0.214844 11.2604 0.598644 11.1837 0.828924 11.1069C1.0592 11.1069 1.28948 11.1069 1.51977 11.1069L2.51765 11.1069L3.51553 11.1069C3.7458 11.1069 3.97608 11.1069 4.20636 11.1069C4.66691 11.1069 4.89722 11.3372 4.89722 11.721C4.89722 12.2583 4.5134 12.3351 4.20636 12.3351C3.66904 12.3351 3.05497 12.3351 2.44088 12.3351Z" fill="#6941C6"/>
<path d="M1.67328 7.65272C1.28948 7.65272 0.905684 7.65272 0.752164 7.65272C0.598644 7.65272 0.214844 7.49921 0.214844 7.03865C0.214844 6.88514 0.291604 6.73161 0.368364 6.57809C0.445124 6.50133 0.598644 6.42456 0.752164 6.42456L2.67116 6.42456C3.05497 6.50133 3.28525 6.73161 3.28525 7.03865C3.28525 7.42244 3.05497 7.57597 2.67116 7.65272C2.51765 7.65272 2.13384 7.65272 1.67328 7.65272Z" fill="#6941C6"/>
<path d="M7.20062 12.3351C6.81681 12.3351 6.50977 12.028 6.50977 11.6442C6.50977 11.2604 6.81681 10.9534 7.20062 10.9534C7.35413 10.9534 7.58441 11.0301 7.66118 11.1836C7.81469 11.3372 7.89146 11.4907 7.89146 11.721C7.81469 12.028 7.58441 12.3351 7.20062 12.3351Z" fill="#6941C6"/>
</g>
<defs>
<clipPath id="clip0_3639_55537">
<rect width="27" height="23.339" fill="white" transform="translate(0.214844 0.667603)"/>
</clipPath>
</defs>
</svg>
