<svg width="55" height="50" viewBox="0 0 55 50" fill="none" xmlns="http://www.w3.org/2000/svg">
<path d="M39.766 17.2436C37.7738 17.2436 36.1627 15.6325 36.1627 13.6403V7.59854H12.5071C10.9722 7.59854 9.73114 8.83956 9.73114 10.3745V16.6885H7.14025C6.36733 16.6885 5.74682 17.309 5.74682 18.0819C5.74682 18.8548 6.36733 19.4753 7.14025 19.4753H9.73114H16.0342C16.8071 19.4753 17.4276 20.0958 17.4276 20.8687C17.4276 21.6416 16.8071 22.2622 16.0342 22.2622H15.479H9.73114H3.98327C3.21035 22.2622 2.58984 22.8827 2.58984 23.6556C2.58984 24.4285 3.21035 25.049 3.98327 25.049H9.73114H13.4433C14.2162 25.049 14.8367 25.6695 14.8367 26.4424C14.8367 27.2153 14.2162 27.8358 13.4433 27.8358H9.73114H8.70785C7.93493 27.8358 7.31442 28.4564 7.31442 29.2293C7.31442 30.0022 7.93493 30.6227 8.70785 30.6227H9.73114V47.224C9.73114 48.759 10.9722 50 12.5071 50H43.0209C44.5559 50 45.7969 48.759 45.7969 47.224V17.2436H39.766Z" fill="url(#paint0_linear_44_336)"/>
<path d="M2.13368 20.205C0.957979 20.205 0 19.247 0 18.0713C0 16.8956 0.957979 15.9376 2.13368 15.9376C3.30938 15.9376 4.26736 16.8956 4.26736 18.0713C4.26736 19.247 3.30938 20.205 2.13368 20.205ZM2.13368 16.8738C1.46963 16.8738 0.925321 17.4181 0.925321 18.0822C0.925321 18.7463 1.46963 19.2906 2.13368 19.2906C2.79773 19.2906 3.34204 18.7354 3.34204 18.0713C3.34204 17.4073 2.79773 16.8738 2.13368 16.8738Z" fill="url(#paint1_linear_44_336)"/>
<path d="M4.16979 30.59C4.93936 30.59 5.56322 29.9662 5.56322 29.1966C5.56322 28.4271 4.93936 27.8032 4.16979 27.8032C3.40022 27.8032 2.77637 28.4271 2.77637 29.1966C2.77637 29.9662 3.40022 30.59 4.16979 30.59Z" fill="url(#paint2_linear_44_336)"/>
<path d="M17.2435 19.4644H16.0352C16.8081 19.4644 17.4286 20.085 17.4286 20.8579C17.4286 21.6308 16.8081 22.2513 16.0352 22.2513H17.2435C18.0164 22.2513 18.6369 21.6308 18.6369 20.8579C18.6369 20.085 18.0164 19.4644 17.2435 19.4644Z" fill="#1FD36E"/>
<path d="M17.4286 19.4644H16.0352C16.8081 19.4644 17.4286 20.085 17.4286 20.8579C17.4286 21.6308 16.8081 22.2513 16.0352 22.2513H17.4286C18.2015 22.2513 18.822 21.6308 18.822 20.8579C18.822 20.085 18.2015 19.4644 17.4286 19.4644Z" fill="#1AC660"/>
<path d="M14.6527 25.0275H13.4443C14.2173 25.0275 14.8378 25.648 14.8378 26.4209C14.8378 27.1938 14.2173 27.8143 13.4443 27.8143H14.6527C15.4256 27.8143 16.0461 27.1938 16.0461 26.4209C16.0461 25.648 15.4147 25.0275 14.6527 25.0275Z" fill="#12B269"/>
<path d="M45.7974 17.2436L43.25 14.6854L45.7974 17.2436Z" fill="#1FD36E"/>
<path d="M38.5155 9.94994L36.1641 7.59854L38.5155 9.94994Z" fill="#1FD36E"/>
<path d="M39.7665 17.2436H45.7975L43.2501 14.6963H39.8645C39.1134 14.6963 38.5037 14.0867 38.5037 13.3355V9.94994L36.1523 7.59854V13.6295C36.1632 15.6216 37.7744 17.2436 39.7665 17.2436Z" fill="#1FD36E"/>
<path d="M43.2501 14.6852L38.5146 9.94975L43.2501 14.6852Z" fill="white"/>
<path d="M41.2252 12.6495H43.8815C44.3604 12.6495 44.7415 12.2576 44.7415 11.7895V9.13332C44.7415 8.65433 44.3496 8.27332 43.8815 8.27332H41.2252C40.7462 8.27332 40.3652 8.66522 40.3652 9.13332V11.7895C40.3652 12.2576 40.7462 12.6495 41.2252 12.6495Z" fill="url(#paint3_linear_44_336)"/>
<path d="M49.6512 8.40425H47.5284C46.8752 8.40425 46.3418 7.87083 46.3418 7.21767V5.09487C46.3418 4.4417 46.8752 3.90828 47.5284 3.90828H49.6512C50.3043 3.90828 50.8378 4.4417 50.8378 5.09487V7.21767C50.8378 7.87083 50.3043 8.40425 49.6512 8.40425ZM47.5284 4.8336C47.3869 4.8336 47.2671 4.95335 47.2671 5.09487V7.21767C47.2671 7.35919 47.3869 7.47893 47.5284 7.47893H49.6512C49.7927 7.47893 49.9124 7.35919 49.9124 7.21767V5.09487C49.9124 4.95335 49.7927 4.8336 49.6512 4.8336H47.5284Z" fill="url(#paint4_linear_44_336)"/>
<path d="M48.7369 12.8567H50.2936C50.5222 12.8567 50.7073 12.6716 50.7073 12.443V10.8863C50.7073 10.6577 50.5222 10.4726 50.2936 10.4726H48.7369C48.5083 10.4726 48.3232 10.6577 48.3232 10.8863V12.443C48.3232 12.6716 48.5083 12.8567 48.7369 12.8567Z" fill="#0BB782"/>
<path d="M42.1074 5.37754H43.0872C43.2178 5.37754 43.3267 5.26868 43.3267 5.13804V4.15829C43.3267 4.02766 43.2178 3.9188 43.0872 3.9188H42.1074C41.9768 3.9188 41.8679 4.02766 41.8679 4.15829V5.13804C41.8571 5.26868 41.9659 5.37754 42.1074 5.37754Z" fill="#3AC9AD"/>
<path d="M45.6567 1.45874H46.4622C46.6473 1.45874 46.7888 1.30634 46.7888 1.13216V0.326584C46.7888 0.14152 46.6364 0 46.4622 0H45.6567C45.4716 0 45.3301 0.152406 45.3301 0.326584V1.13216C45.3301 1.31722 45.4716 1.45874 45.6567 1.45874Z" fill="#1EE277"/>
<path d="M43.109 49.9678H33.0067L27.2588 39.8654L37.3611 39.4953L43.109 49.9678Z" fill="url(#paint5_linear_44_336)"/>
<path d="M31.2434 49.968H29.3927L23.917 39.9528L25.4084 39.4956L31.2434 49.968Z" fill="url(#paint6_linear_44_336)"/>
<path d="M31.8965 17.6138H23.4598L17.7119 7.59854H26.4208L31.8965 17.6138Z" fill="url(#paint7_linear_44_336)"/>
<path d="M20.6732 17.6138H17.9844L12.5195 7.59854H15.1104L20.6732 17.6138Z" fill="url(#paint8_linear_44_336)"/>
<path d="M38.1233 30.4051H27.9992C27.7053 30.4051 27.4658 30.1656 27.4658 29.8717V29.5451C27.4658 29.2512 27.7053 29.0117 27.9992 29.0117H38.1233C38.4173 29.0117 38.6568 29.2512 38.6568 29.5451V29.8717C38.6568 30.1656 38.4173 30.4051 38.1233 30.4051Z" fill="#13A55F"/>
<path d="M24.7983 30.4051C25.1831 30.4051 25.495 30.0932 25.495 29.7084C25.495 29.3236 25.1831 29.0117 24.7983 29.0117C24.4135 29.0117 24.1016 29.3236 24.1016 29.7084C24.1016 30.0932 24.4135 30.4051 24.7983 30.4051Z" fill="#13A55F"/>
<path d="M37.851 29.8496H27.8684C27.5309 29.8496 27.2588 29.5775 27.2588 29.24V28.8808C27.2588 28.5433 27.5309 28.2711 27.8684 28.2711H37.851C38.1885 28.2711 38.4606 28.5433 38.4606 28.8808V29.24C38.4497 29.5775 38.1776 29.8496 37.851 29.8496Z" fill="white"/>
<path d="M36.7624 40.4202H27.8684C27.5309 40.4202 27.2588 40.1481 27.2588 39.8106V39.4514C27.2588 39.1139 27.5309 38.8417 27.8684 38.8417H36.7624C37.0998 38.8417 37.372 39.1139 37.372 39.4514V39.8106C37.3611 40.1481 37.089 40.4202 36.7624 40.4202Z" fill="#B6FFC4"/>
<path d="M24.6139 29.8499C25.0468 29.8499 25.3977 29.499 25.3977 29.0661C25.3977 28.6332 25.0468 28.2823 24.6139 28.2823C24.181 28.2823 23.8301 28.6332 23.8301 29.0661C23.8301 29.499 24.181 29.8499 24.6139 29.8499Z" fill="white"/>
<path d="M34.6074 33.9318H27.9778C27.6838 33.9318 27.4443 33.6923 27.4443 33.3984V33.0718C27.4443 32.7779 27.6838 32.5384 27.9778 32.5384H34.6074C34.9013 32.5384 35.1408 32.7779 35.1408 33.0718V33.3984C35.1408 33.6923 34.9013 33.9318 34.6074 33.9318Z" fill="#14A560"/>
<path d="M24.7983 33.932C25.1831 33.932 25.495 33.6201 25.495 33.2353C25.495 32.8505 25.1831 32.5386 24.7983 32.5386C24.4135 32.5386 24.1016 32.8505 24.1016 33.2353C24.1016 33.6201 24.4135 33.932 24.7983 33.932Z" fill="#14A560"/>
<path d="M37.5458 36.3379L35.8911 37.5463H28.1293C27.7483 37.5463 27.4326 37.2306 27.4326 36.8496C27.4326 36.4686 27.7483 36.1529 28.1293 36.1529H35.8694L37.5458 36.3379Z" fill="#14A560"/>
<path d="M24.7983 37.5465C25.1831 37.5465 25.495 37.2346 25.495 36.8498C25.495 36.465 25.1831 36.1531 24.7983 36.1531C24.4135 36.1531 24.1016 36.465 24.1016 36.8498C24.1016 37.2346 24.4135 37.5465 24.7983 37.5465Z" fill="#14A560"/>
<path d="M34.3458 33.3768H27.8577C27.5202 33.3768 27.248 33.1046 27.248 32.7672V32.4079C27.248 32.0704 27.5202 31.7983 27.8577 31.7983H34.3458C34.6833 31.7983 34.9554 32.0704 34.9554 32.4079V32.7672C34.9554 33.1046 34.6833 33.3768 34.3458 33.3768Z" fill="#D7FFDF"/>
<path d="M24.6139 33.3659C25.0468 33.3659 25.3977 33.015 25.3977 32.5821C25.3977 32.1492 25.0468 31.7983 24.6139 31.7983C24.181 31.7983 23.8301 32.1492 23.8301 32.5821C23.8301 33.015 24.181 33.3659 24.6139 33.3659Z" fill="#D7FFDF"/>
<path d="M24.6139 36.9802C25.0468 36.9802 25.3977 36.6293 25.3977 36.1964C25.3977 35.7635 25.0468 35.4126 24.6139 35.4126C24.181 35.4126 23.8301 35.7635 23.8301 36.1964C23.8301 36.6293 24.181 36.9802 24.6139 36.9802Z" fill="#D4FFDB"/>
<path d="M24.6139 40.4094C25.0468 40.4094 25.3977 40.0584 25.3977 39.6255C25.3977 39.1927 25.0468 38.8417 24.6139 38.8417C24.181 38.8417 23.8301 39.1927 23.8301 39.6255C23.8301 40.0584 24.181 40.4094 24.6139 40.4094Z" fill="#B6FFC4"/>
<path d="M45.8001 32.9093L40.3135 35.3152L45.8001 30.4055V32.9093Z" fill="#11A35D"/>
<path d="M53.0608 26.0512L40.2261 35.3697L38.7129 33.3013L51.5476 23.9828L53.0608 26.0512Z" fill="url(#paint9_linear_44_336)"/>
<path d="M54.0625 25.3219L53.061 26.0512L51.5479 23.9829L52.5494 23.2535C52.9848 22.9269 53.6053 23.0249 53.9319 23.4712L54.2803 23.9502C54.596 24.3748 54.498 24.9953 54.0625 25.3219Z" fill="#003136"/>
<path d="M35.8389 36.9912L37.5806 36.349L36.9819 35.5325L35.8389 36.9912Z" fill="#134649"/>
<path d="M38.7668 33.2684L36.9814 35.5327L37.5802 36.3492L40.2799 35.3368L38.7668 33.2684Z" fill="url(#paint10_linear_44_336)"/>
<path d="M13.8147 30.5898L9.73242 31.5151V30.5898H13.8147Z" fill="#12B269"/>
<path d="M35.8806 36.991H28.0426C27.6071 36.991 27.2588 36.6427 27.2588 36.2072C27.2588 35.7718 27.6071 35.4234 28.0426 35.4234H37.0781L35.8806 36.991Z" fill="#D4FFDB"/>
<defs>
<linearGradient id="paint0_linear_44_336" x1="42.8194" y1="6.97785" x2="8.67902" y2="56.4377" gradientUnits="userSpaceOnUse">
<stop stop-color="#68FF61"/>
<stop offset="1" stop-color="#01BAB4"/>
</linearGradient>
<linearGradient id="paint1_linear_44_336" x1="3.2175" y1="16.2396" x2="1.05248" y2="19.9127" gradientUnits="userSpaceOnUse">
<stop stop-color="#68FF61"/>
<stop offset="1" stop-color="#01BAB4"/>
</linearGradient>
<linearGradient id="paint2_linear_44_336" x1="12.9239" y1="14.3577" x2="2.6274" y2="31.8263" gradientUnits="userSpaceOnUse">
<stop stop-color="#68FF61"/>
<stop offset="1" stop-color="#01BAB4"/>
</linearGradient>
<linearGradient id="paint3_linear_44_336" x1="40.9868" y1="12.2129" x2="44.2265" y2="8.59016" gradientUnits="userSpaceOnUse">
<stop stop-color="#68FF61"/>
<stop offset="1" stop-color="#01BAB4"/>
</linearGradient>
<linearGradient id="paint4_linear_44_336" x1="46.9912" y1="8.19277" x2="50.0802" y2="4.2517" gradientUnits="userSpaceOnUse">
<stop stop-color="#68FF61"/>
<stop offset="1" stop-color="#01BAB4"/>
</linearGradient>
<linearGradient id="paint5_linear_44_336" x1="33.5653" y1="41.9265" x2="38.9478" y2="51.8563" gradientUnits="userSpaceOnUse">
<stop stop-color="#0FB797"/>
<stop offset="1" stop-color="#2FD98F"/>
</linearGradient>
<linearGradient id="paint6_linear_44_336" x1="24.8198" y1="39.9873" x2="30.3084" y2="49.9498" gradientUnits="userSpaceOnUse">
<stop stop-color="#0BA88A"/>
<stop offset="1" stop-color="#1DCD9D"/>
</linearGradient>
<linearGradient id="paint7_linear_44_336" x1="22.9225" y1="7.66281" x2="26.5842" y2="17.2917" gradientUnits="userSpaceOnUse">
<stop stop-color="#7DF777"/>
<stop offset="1" stop-color="#45E87D" stop-opacity="0"/>
</linearGradient>
<linearGradient id="paint8_linear_44_336" x1="13.7443" y1="7.46844" x2="19.4125" y2="17.7569" gradientUnits="userSpaceOnUse">
<stop stop-color="#7DF777"/>
<stop offset="1" stop-color="#45E87D" stop-opacity="0"/>
</linearGradient>
<linearGradient id="paint9_linear_44_336" x1="39.4203" y1="33.7549" x2="49.0304" y2="27.6953" gradientUnits="userSpaceOnUse">
<stop stop-color="#68FF61"/>
<stop offset="1" stop-color="#01BAB4"/>
</linearGradient>
<linearGradient id="paint10_linear_44_336" x1="37.9208" y1="35.3349" x2="40.2561" y2="33.8282" gradientUnits="userSpaceOnUse">
<stop stop-color="#68FF61"/>
<stop offset="1" stop-color="#01BAB4"/>
</linearGradient>
</defs>
</svg>
