<svg width="60" height="60" viewBox="0 0 60 60" fill="none" xmlns="http://www.w3.org/2000/svg">
<path d="M40.9721 23.1912H28.6242C27.4146 23.1912 26.4355 22.2122 26.4355 21.0026C26.4355 19.793 27.4146 18.814 28.6242 18.814H40.9721C42.1817 18.814 43.1607 19.793 43.1607 21.0026C43.1607 22.2122 42.1817 23.1912 40.9721 23.1912Z" fill="#00B682"/>
<path d="M35.9953 31.7196H23.6545C22.4449 31.7196 21.4658 30.7405 21.4658 29.5309C21.4658 28.3213 22.4449 27.3423 23.6545 27.3423H35.9953C37.2049 27.3423 38.1839 28.3213 38.1839 29.5309C38.1839 30.7405 37.2049 31.7196 35.9953 31.7196Z" fill="#00B682"/>
<path d="M30.9604 40.3959H18.6125C17.4029 40.3959 16.4238 39.4169 16.4238 38.2073C16.4238 36.9977 17.4029 36.0187 18.6125 36.0187H30.9604C32.17 36.0187 33.149 36.9977 33.149 38.2073C33.149 39.4169 32.17 40.3959 30.9604 40.3959Z" fill="#00B682"/>
<path d="M50.0821 28.1507C50.004 27.9875 49.9047 27.8385 49.7947 27.7002L53.0901 22.0247C54.885 18.9386 54.8956 15.2459 53.1149 12.1492C51.3307 9.04892 48.1346 7.19727 44.5555 7.19727H29.6465C26.1525 7.19727 22.882 9.08084 21.1119 12.1137L6.55056 37.1961C4.75567 40.2822 4.74503 43.9749 6.52573 47.0716C8.30999 50.1719 11.506 52.0235 15.0852 52.0235H40.6323C45.1833 52.0235 49.3478 49.7249 51.7705 45.8691C54.1933 42.0168 54.4629 37.2671 52.4906 33.1665L50.0821 28.1507ZM18.8523 47.3944H15.0816C13.1839 47.3944 11.4847 46.4118 10.5376 44.7659C9.59408 43.1235 9.59763 41.1655 10.5518 39.5266L25.1203 14.4407C26.0603 12.8267 27.7984 11.8264 29.6536 11.8264H44.5626C46.4603 11.8264 48.1595 12.809 49.1066 14.4549C50.0501 16.0972 50.0466 18.0553 49.0924 19.6941L34.5169 44.7836C33.5875 46.3905 31.8564 47.3908 29.9977 47.3908H18.8523V47.3944Z" fill="#00B682"/>
</svg>
