<svg width="40" height="50" viewBox="0 0 40 50" fill="none" xmlns="http://www.w3.org/2000/svg">
<g clip-path="url(#clip0_68_3731)">
<path d="M31.0689 27.5954C31.0307 27.5954 30.9544 27.5954 30.9162 27.5954C29.8475 27.5572 28.817 26.9465 28.3208 25.916C27.672 24.6565 28.0155 23.1298 29.0842 22.2519C26.7559 23.3969 16.7941 28.3206 14.5804 29.3893C14.4277 29.4656 14.3514 29.5038 14.275 29.542C12.901 30.1908 12.2139 31.7939 12.7865 33.3206C12.901 33.6259 13.0918 33.9313 13.359 34.1985C14.1605 35.0763 15.3819 35.3435 16.4506 35C16.5269 34.9618 16.6033 34.9618 16.6796 34.9236L17.1376 34.7328L18.0155 34.3511C18.2063 34.2748 32.0613 27.4809 32.0613 27.4809C32.1758 27.4046 32.3285 27.3664 32.443 27.2901C31.9468 27.4809 31.5269 27.5954 31.0689 27.5954Z" fill="#FF1F1F"/>
<path d="M39.6945 14.4275C39.58 12.5191 39.2365 10.7252 38.6258 9.12214C38.3204 8.28245 37.8624 7.48092 37.3281 6.71756C36.8319 6.03054 36.2975 5.38168 35.6868 4.73283C33.9693 2.90077 31.8701 1.60306 29.4655 0.839697C26.6029 -0.0763334 23.6639 -0.0763334 20.725 0.801529C20.6105 0.839697 20.496 0.877865 20.3815 0.916033C18.9693 1.37405 17.5952 2.09924 16.2975 3.05344C14.6563 4.27481 13.3204 5.8397 12.2517 7.67176C11.5647 8.89313 11.1449 10.229 10.9922 11.7176C11.2212 10.8779 11.7555 10.1527 12.5952 9.73283C14.122 8.96947 15.954 9.61832 16.7174 11.1069C16.8701 11.4504 16.9846 11.7939 17.0227 12.1374C17.0227 12.0229 17.0609 11.9084 17.0609 11.8321C17.3281 10.1527 18.3204 8.74046 20.1907 7.51909C20.9159 7.06107 21.641 6.67939 22.4044 6.45038C24.351 5.80153 26.3739 5.91603 28.4731 6.75573C31.7555 8.09161 33.9311 11.6031 33.7021 15.0763C33.5876 16.6794 33.2441 17.9008 32.5952 18.9695C31.9082 20.0382 31.0685 20.9542 30.0762 21.6031C31.4884 21.145 33.0533 21.7939 33.7403 23.1298C34.4655 24.6183 33.893 26.4504 32.4044 27.1756C35.4197 25.687 37.7097 23.0153 38.7785 19.8092C38.9311 19.3512 39.0838 18.8931 39.2365 18.4733C39.58 17.1756 39.7326 15.8015 39.6945 14.4275Z" fill="#AA02D3"/>
<path d="M33.7781 23.2061C33.0911 21.8321 31.5262 21.2214 30.114 21.6794C29.9613 21.7176 29.8468 21.7939 29.6942 21.8321C29.4652 21.9466 29.2743 22.0993 29.0835 22.2519C28.0529 23.1298 27.7094 24.6565 28.3201 25.9161C28.8163 26.9466 29.8468 27.5573 30.9155 27.5955C30.9537 27.5955 31.03 27.5955 31.0682 27.5955C31.4881 27.5955 31.9461 27.481 32.3659 27.2901C32.3659 27.2901 32.4041 27.2901 32.4041 27.2519C33.8926 26.5268 34.5033 24.6947 33.7781 23.2061Z" fill="#EF726C"/>
<path d="M17.0606 12.2138C17.0225 11.7557 16.8698 11.2977 16.5645 10.8397C15.8011 9.61834 14.2362 9.12216 12.9003 9.65651C11.908 10.0382 11.2591 10.8397 11.0301 11.7557C10.9156 12.1756 10.8774 12.6336 10.9538 13.0535C10.9919 13.3206 11.1064 13.626 11.221 13.8932C11.5263 14.5038 12.0225 14.9619 12.5568 15.2672C13.3965 15.687 14.4271 15.7252 15.3431 15.3054C16.5645 14.6947 17.2133 13.4351 17.0606 12.2138Z" fill="#FF7878"/>
<path d="M26.9456 16.2977C26.2204 14.8091 24.4265 14.2366 22.9379 14.9618C22.8234 15.0381 22.7089 15.0763 22.5944 15.1527L21.7165 15.5343C21.5257 15.6107 7.67074 22.4046 7.67074 22.4046C7.55624 22.4809 7.40357 22.5191 7.28906 22.5954C7.70891 22.4046 8.16693 22.2901 8.58677 22.2901C8.62494 22.2901 8.70128 22.2901 8.73944 22.2901C9.80815 22.3282 10.8387 22.9389 11.3349 23.9694C11.9837 25.229 11.6402 26.7557 10.5715 27.6336C12.8998 26.4885 22.8616 21.5649 25.0753 20.4962C25.228 20.458 25.3807 20.3817 25.5333 20.3053C27.0601 19.542 27.6707 17.7862 26.9456 16.2977Z" fill="#2D2F54"/>
<path d="M-0.000134185 35.458C0.11437 37.3664 0.457881 39.1603 1.06857 40.7633C1.37391 41.603 1.83193 42.4045 2.36628 43.1679C2.86246 43.8549 3.39681 44.5038 4.0075 45.1526C5.76322 46.9847 7.86246 48.2824 10.2289 49.0458C13.0915 49.9618 16.0304 49.9618 18.9693 49.0839C19.0838 49.0458 19.1983 49.0076 19.3128 48.9694C20.7251 48.5114 22.0991 47.7862 23.3586 46.7939C24.9999 45.5725 26.3357 44.0076 27.4044 42.1755C28.0915 40.9542 28.5113 39.6183 28.664 38.1297C28.435 38.9694 27.9006 39.6946 27.0609 40.1145C25.5342 40.8778 23.7022 40.229 22.9388 38.7404C22.7861 38.3969 22.6716 38.0534 22.6335 37.7099C22.6335 37.8244 22.5953 37.9389 22.5953 38.0152C22.3281 39.6946 21.3357 41.1068 19.4655 42.3282C18.7403 42.7862 18.0151 43.1679 17.2518 43.3969C15.3052 44.0458 13.2823 43.9313 11.1831 43.0916C7.9388 41.7175 5.72506 38.2061 5.95406 34.7328C6.06857 33.1297 6.41208 31.9084 7.06093 30.8397C7.74796 29.771 8.58765 28.8549 9.58002 28.2061C8.1678 28.6641 6.60292 28.0152 5.9159 26.6793C5.19071 25.1908 5.76322 23.3587 7.25177 22.6335C4.27467 24.1221 1.94643 26.7557 0.915896 30C0.763225 30.458 0.610553 30.916 0.457881 31.3358C0.11437 32.7099 -0.0383021 34.0839 -0.000134185 35.458Z" fill="#0847F9"/>
<path d="M11.3744 23.9694C10.8783 22.9389 9.84772 22.3282 8.77902 22.29C8.74085 22.29 8.66452 22.29 8.62635 22.29C8.2065 22.29 7.74849 22.4045 7.32864 22.5954C7.32864 22.5954 7.29047 22.5954 7.29047 22.6336C5.80192 23.3969 5.19123 25.1908 5.95459 26.6794C6.64161 28.0534 8.2065 28.6641 9.61871 28.2061C9.77139 28.1679 9.88589 28.0916 10.0386 28.0534C10.2676 27.9389 10.4584 27.7862 10.6492 27.6336C11.6416 26.7557 12.0233 25.229 11.3744 23.9694Z" fill="#8761FF"/>
<path d="M28.7021 36.8321C28.6639 36.5649 28.5494 36.2595 28.4349 35.9924C28.1296 35.3817 27.6334 34.9237 27.099 34.6183C26.2593 34.1985 25.2288 34.1603 24.3128 34.5801C23.1296 35.1527 22.4807 36.4122 22.6334 37.6336C22.6715 38.0916 22.8242 38.5496 23.1296 39.0076C23.8929 40.229 25.4578 40.7252 26.7937 40.1908C27.786 39.8092 28.4349 39.0076 28.6639 38.0916C28.7784 37.7099 28.7784 37.2901 28.7021 36.8321Z" fill="#25BF88"/>
<path opacity="0.12" d="M28.7021 36.8321C28.6639 36.5649 28.5494 36.2595 28.4349 35.9924C28.1296 35.3817 27.6334 34.9237 27.099 34.6183C26.2593 34.1985 25.2288 34.1603 24.3128 34.5801C23.1296 35.1527 22.4807 36.4122 22.6334 37.6336C22.6715 38.0916 22.8242 38.5496 23.1296 39.0076C23.8929 40.229 25.4578 40.7252 26.7937 40.1908C27.786 39.8092 28.4349 39.0076 28.6639 38.0916C28.7784 37.7099 28.7784 37.2901 28.7021 36.8321Z" fill="#0847F9"/>
</g>
<defs>
<clipPath id="clip0_68_3731">
<rect width="39.6947" height="50" fill="white"/>
</clipPath>
</defs>
</svg>
