<svg width="23" height="24" viewBox="0 0 23 24" fill="none" xmlns="http://www.w3.org/2000/svg">
<path d="M8.76725 8.28906L1.26709 8.28906C0.55655 8.28906 0.00390625 8.8417 0.00390625 9.55225L0.00390625 22.7367C0.00390625 23.4473 0.55655 23.9999 1.26709 23.9999L8.76725 23.9999C9.4778 23.9999 10.0304 23.4473 10.0304 22.7367L10.0304 9.6312C10.0304 8.84171 9.4778 8.28906 8.76725 8.28906ZM9.08305 22.7367C9.08305 22.8946 8.92515 23.0525 8.76725 23.0525L1.26709 23.0525C1.10919 23.0525 0.951296 22.8946 0.951296 22.7367L0.951296 9.6312C0.951296 9.4733 1.10919 9.3154 1.26709 9.3154L8.76725 9.3154C8.92515 9.3154 9.08305 9.4733 9.08305 9.6312L9.08305 22.7367Z" fill="#6941C6"/>
<path d="M20.7673 8.28906L13.2671 8.28906C12.5565 8.28906 12.0039 8.8417 12.0039 9.55225L12.0039 22.7367C12.0039 23.4473 12.5565 23.9999 13.2671 23.9999L20.7673 23.9999C21.4778 23.9999 22.0304 23.4473 22.0304 22.7367L22.0304 9.6312C22.1094 8.84171 21.4778 8.28906 20.7673 8.28906ZM21.0831 22.7367C21.0831 22.8946 20.9252 23.0525 20.7673 23.0525L13.2671 23.0525C13.1092 23.0525 12.9513 22.8946 12.9513 22.7367L12.9513 9.6312C12.9513 9.4733 13.1092 9.3154 13.2671 9.3154L20.7673 9.3154C20.9252 9.3154 21.0831 9.4733 21.0831 9.6312L21.0831 22.7367Z" fill="#6941C6"/>
<path d="M8.21323 5.13157L14.6871 5.13157C15.3976 5.13157 16.0292 4.57892 16.0292 3.78943L16.0292 1.34201C16.0292 0.63147 15.4765 -0.00012207 14.6871 -0.00012207L8.21323 -0.00012207C7.50269 -0.00012207 6.87109 0.552521 6.87109 1.34201L6.87109 3.78943C6.87109 4.57892 7.42374 5.13157 8.21323 5.13157ZM7.81848 1.42096C7.81848 1.26306 7.97638 1.10516 8.13428 1.10516L14.6081 1.10516C14.766 1.10516 14.9239 1.26306 14.9239 1.42096L14.9239 3.86838C14.9239 4.02628 14.766 4.18418 14.6081 4.18418L8.13428 4.18418C7.97638 4.18418 7.81848 4.02628 7.81848 3.86838L7.81848 1.42096Z" fill="#6941C6"/>
<path d="M12.3203 3.55347L12.3993 3.55347L12.4782 3.55347L12.5572 3.55347L12.6361 3.55347L12.7151 3.55347L12.794 3.55347L12.873 3.55347L12.9519 3.55347L13.0309 3.55347L13.1098 3.55347L13.1888 3.55347L13.2677 3.55347L13.3467 3.55347L13.4256 3.55347L13.5045 3.55347L13.5835 3.55347L13.6624 3.55347L13.7414 3.55347L13.8203 3.55347L13.8993 3.55347L13.9782 3.55347L14.0572 3.55347L14.1361 3.55347L14.2151 3.55347L14.2151 3.07978L14.2151 2.21134L14.2151 1.65869L14.1361 1.65869L14.0572 1.65869L13.9782 1.65869L13.8993 1.65869L13.8203 1.65869L13.7414 1.65869L13.6624 1.65869L13.5835 1.65869L13.5045 1.65869L13.4256 1.65869L13.3467 1.65869L13.2677 1.65869L13.1888 1.65869L13.1098 1.65869L13.0309 1.65869L12.9519 1.65869L12.873 1.65869L12.794 1.65869L12.7151 1.65869L12.6361 1.65869L12.5572 1.65869L12.4782 1.65869L12.3993 1.65869L12.3203 1.65869L12.3203 2.21134L12.3203 3.07978L12.3203 3.55347Z" fill="#6941C6"/>
<path d="M19.1101 12.0787L19.0311 12.0787L18.9522 12.0787L18.8732 12.0787L18.7943 12.0787L18.7153 12.0787L18.6364 12.0787L18.5574 12.0787L18.4785 12.0787L18.3995 12.0787L18.3206 12.0787L18.2416 12.0787L18.1627 12.0787L18.0837 12.0787L18.0048 12.0787L17.9258 12.0787L17.8469 12.0787L17.7679 12.0787L17.689 12.0787L17.61 12.0787L17.5311 12.0787L17.4522 12.0787L17.3732 12.0787L17.2943 12.0787L17.2153 12.0787L17.1364 12.0787L17.0574 12.0787L16.9785 12.0787L16.8995 12.0787L16.8206 12.0787L16.7416 12.0787L16.6627 12.0787L16.5837 12.0787L16.5048 12.0787L16.4258 12.0787L16.3469 12.0787L16.2679 12.0787L16.189 12.0787L16.11 12.0787L16.0311 12.0787L15.9521 12.0787L15.8732 12.0787L15.7942 12.0787L15.7153 12.0787L15.6363 12.0787L15.5574 12.0787L15.4784 12.0787L15.3995 12.0787L15.3205 12.0787L15.2416 12.0787L15.1626 12.0787L15.0837 12.0787L15.0047 12.0787L14.9258 12.0787L14.9258 13.0261L15.0047 13.0261L15.0837 13.0261L15.1626 13.0261L15.2416 13.0261L15.3205 13.0261L15.3995 13.0261L15.4784 13.0261L15.5574 13.0261L15.6363 13.0261L15.7153 13.0261L15.7942 13.0261L15.8732 13.0261L15.9521 13.0261L16.0311 13.0261L16.11 13.0261L16.189 13.0261L16.2679 13.0261L16.3469 13.0261L16.4258 13.0261L16.5048 13.0261L16.5837 13.0261L16.6627 13.0261L16.7416 13.0261L16.8206 13.0261L16.8995 13.0261L16.9785 13.0261L17.0574 13.0261L17.1364 13.0261L17.2153 13.0261L17.2943 13.0261L17.3732 13.0261L17.4522 13.0261L17.5311 13.0261L17.61 13.0261L17.689 13.0261L17.7679 13.0261L17.8469 13.0261L17.9258 13.0261L18.0048 13.0261L18.0837 13.0261L18.1627 13.0261L18.2416 13.0261L18.3206 13.0261L18.3995 13.0261L18.4785 13.0261L18.5574 13.0261L18.6364 13.0261L18.7153 13.0261L18.7943 13.0261L18.8732 13.0261L18.9522 13.0261L19.0311 13.0261L19.1101 13.0261L19.1101 12.0787Z" fill="#6941C6"/>
<path d="M19.1101 14.368L19.0311 14.368L18.9522 14.368L18.8732 14.368L18.7943 14.368L18.7153 14.368L18.6364 14.368L18.5574 14.368L18.4785 14.368L18.3995 14.368L18.3206 14.368L18.2416 14.368L18.1627 14.368L18.0837 14.368L18.0048 14.368L17.9258 14.368L17.8469 14.368L17.7679 14.368L17.689 14.368L17.61 14.368L17.5311 14.368L17.4522 14.368L17.3732 14.368L17.2943 14.368L17.2153 14.368L17.1364 14.368L17.0574 14.368L16.9785 14.368L16.8995 14.368L16.8206 14.368L16.7416 14.368L16.6627 14.368L16.5837 14.368L16.5048 14.368L16.4258 14.368L16.3469 14.368L16.2679 14.368L16.189 14.368L16.11 14.368L16.0311 14.368L15.9521 14.368L15.8732 14.368L15.7942 14.368L15.7153 14.368L15.6363 14.368L15.5574 14.368L15.4784 14.368L15.3995 14.368L15.3205 14.368L15.2416 14.368L15.1626 14.368L15.0837 14.368L15.0047 14.368L14.9258 14.368L14.9258 15.3154L15.0047 15.3154L15.0837 15.3154L15.1626 15.3154L15.2416 15.3154L15.3205 15.3154L15.3995 15.3154L15.4784 15.3154L15.5574 15.3154L15.6363 15.3154L15.7153 15.3154L15.7942 15.3154L15.8732 15.3154L15.9521 15.3154L16.0311 15.3154L16.11 15.3154L16.189 15.3154L16.2679 15.3154L16.3469 15.3154L16.4258 15.3154L16.5048 15.3154L16.5837 15.3154L16.6627 15.3154L16.7416 15.3154L16.8206 15.3154L16.8995 15.3154L16.9785 15.3154L17.0574 15.3154L17.1364 15.3154L17.2153 15.3154L17.2943 15.3154L17.3732 15.3154L17.4522 15.3154L17.5311 15.3154L17.61 15.3154L17.689 15.3154L17.7679 15.3154L17.8469 15.3154L17.9258 15.3154L18.0048 15.3154L18.0837 15.3154L18.1627 15.3154L18.2416 15.3154L18.3206 15.3154L18.3995 15.3154L18.4785 15.3154L18.5574 15.3154L18.6364 15.3154L18.7153 15.3154L18.7943 15.3154L18.8732 15.3154L18.9522 15.3154L19.0311 15.3154L19.1101 15.3154L19.1101 14.368Z" fill="#6941C6"/>
<path d="M19.1101 16.6591L19.0311 16.6591L18.9522 16.6591L18.8732 16.6591L18.7943 16.6591L18.7153 16.6591L18.6364 16.6591L18.5574 16.6591L18.4785 16.6591L18.3995 16.6591L18.3206 16.6591L18.2416 16.6591L18.1627 16.6591L18.0837 16.6591L18.0048 16.6591L17.9258 16.6591L17.8469 16.6591L17.7679 16.6591L17.689 16.6591L17.61 16.6591L17.5311 16.6591L17.4522 16.6591L17.3732 16.6591L17.2943 16.6591L17.2153 16.6591L17.1364 16.6591L17.0574 16.6591L16.9785 16.6591L16.8995 16.6591L16.8206 16.6591L16.7416 16.6591L16.6627 16.6591L16.5837 16.6591L16.5048 16.6591L16.4258 16.6591L16.3469 16.6591L16.2679 16.6591L16.189 16.6591L16.11 16.6591L16.0311 16.6591L15.9521 16.6591L15.8732 16.6591L15.7942 16.6591L15.7153 16.6591L15.6363 16.6591L15.5574 16.6591L15.4784 16.6591L15.3995 16.6591L15.3205 16.6591L15.2416 16.6591L15.1626 16.6591L15.0837 16.6591L15.0047 16.6591L14.9258 16.6591L14.9258 17.6064L15.0047 17.6064L15.0837 17.6064L15.1626 17.6064L15.2416 17.6064L15.3205 17.6064L15.3995 17.6064L15.4784 17.6064L15.5574 17.6064L15.6363 17.6064L15.7153 17.6064L15.7942 17.6064L15.8732 17.6064L15.9521 17.6064L16.0311 17.6064L16.11 17.6064L16.189 17.6064L16.2679 17.6064L16.3469 17.6064L16.4258 17.6064L16.5048 17.6064L16.5837 17.6064L16.6627 17.6064L16.7416 17.6064L16.8206 17.6064L16.8995 17.6064L16.9785 17.6064L17.0574 17.6064L17.1364 17.6064L17.2153 17.6064L17.2943 17.6064L17.3732 17.6064L17.4522 17.6064L17.5311 17.6064L17.61 17.6064L17.689 17.6064L17.7679 17.6064L17.8469 17.6064L17.9258 17.6064L18.0048 17.6064L18.0837 17.6064L18.1627 17.6064L18.2416 17.6064L18.3206 17.6064L18.3995 17.6064L18.4785 17.6064L18.5574 17.6064L18.6364 17.6064L18.7153 17.6064L18.7943 17.6064L18.8732 17.6064L18.9522 17.6064L19.0311 17.6064L19.1101 17.6064L19.1101 16.6591Z" fill="#6941C6"/>
<path d="M7.02805 12.0787L6.9491 12.0787L6.87015 12.0787L6.7912 12.0787L6.71226 12.0787L6.63331 12.0787L6.55436 12.0787L6.47541 12.0787L6.39646 12.0787L6.31751 12.0787L6.23856 12.0787L6.15961 12.0787L6.08066 12.0787L6.00171 12.0787L5.92276 12.0787L5.84382 12.0787L5.76487 12.0787L5.68592 12.0787L5.60697 12.0787L5.52802 12.0787L5.44907 12.0787L5.37012 12.0787L5.29117 12.0787L5.21222 12.0787L5.13327 12.0787L5.05433 12.0787L4.97538 12.0787L4.89643 12.0787L4.81748 12.0787L4.73853 12.0787L4.65958 12.0787L4.58063 12.0787L4.50168 12.0787L4.42273 12.0787L4.34378 12.0787L4.26483 12.0787L4.18589 12.0787L4.10694 12.0787L4.02799 12.0787L3.94904 12.0787L3.87009 12.0787L3.79114 12.0787L3.71219 12.0787L3.63324 12.0787L3.55429 12.0787L3.47534 12.0787L3.39639 12.0787L3.31744 12.0787L3.2385 12.0787L3.15955 12.0787L3.0806 12.0787L3.00165 12.0787L2.9227 12.0787L2.84375 12.0787L2.84375 13.0261L2.9227 13.0261L3.00165 13.0261L3.0806 13.0261L3.15955 13.0261L3.2385 13.0261L3.31744 13.0261L3.39639 13.0261L3.47534 13.0261L3.55429 13.0261L3.63324 13.0261L3.71219 13.0261L3.79114 13.0261L3.87009 13.0261L3.94904 13.0261L4.02799 13.0261L4.10694 13.0261L4.18589 13.0261L4.26483 13.0261L4.34378 13.0261L4.42273 13.0261L4.50168 13.0261L4.58063 13.0261L4.65958 13.0261L4.73853 13.0261L4.81748 13.0261L4.89643 13.0261L4.97538 13.0261L5.05433 13.0261L5.13327 13.0261L5.21222 13.0261L5.29117 13.0261L5.37012 13.0261L5.44907 13.0261L5.52802 13.0261L5.60697 13.0261L5.68592 13.0261L5.76487 13.0261L5.84382 13.0261L5.92276 13.0261L6.00171 13.0261L6.08066 13.0261L6.15961 13.0261L6.23856 13.0261L6.31751 13.0261L6.39646 13.0261L6.47541 13.0261L6.55436 13.0261L6.63331 13.0261L6.71226 13.0261L6.7912 13.0261L6.87015 13.0261L6.9491 13.0261L7.02805 13.0261L7.107 13.0261L7.107 12.0787L7.02805 12.0787Z" fill="#6941C6"/>
<path d="M7.02805 14.368L6.9491 14.368L6.87015 14.368L6.7912 14.368L6.71226 14.368L6.63331 14.368L6.55436 14.368L6.47541 14.368L6.39646 14.368L6.31751 14.368L6.23856 14.368L6.15961 14.368L6.08066 14.368L6.00171 14.368L5.92276 14.368L5.84382 14.368L5.76487 14.368L5.68592 14.368L5.60697 14.368L5.52802 14.368L5.44907 14.368L5.37012 14.368L5.29117 14.368L5.21222 14.368L5.13327 14.368L5.05433 14.368L4.97538 14.368L4.89643 14.368L4.81748 14.368L4.73853 14.368L4.65958 14.368L4.58063 14.368L4.50168 14.368L4.42273 14.368L4.34378 14.368L4.26483 14.368L4.18589 14.368L4.10694 14.368L4.02799 14.368L3.94904 14.368L3.87009 14.368L3.79114 14.368L3.71219 14.368L3.63324 14.368L3.55429 14.368L3.47534 14.368L3.39639 14.368L3.31744 14.368L3.2385 14.368L3.15955 14.368L3.0806 14.368L3.00165 14.368L2.9227 14.368L2.84375 14.368L2.84375 15.3154L2.9227 15.3154L3.00165 15.3154L3.0806 15.3154L3.15955 15.3154L3.2385 15.3154L3.31744 15.3154L3.39639 15.3154L3.47534 15.3154L3.55429 15.3154L3.63324 15.3154L3.71219 15.3154L3.79114 15.3154L3.87009 15.3154L3.94904 15.3154L4.02799 15.3154L4.10694 15.3154L4.18589 15.3154L4.26483 15.3154L4.34378 15.3154L4.42273 15.3154L4.50168 15.3154L4.58063 15.3154L4.65958 15.3154L4.73853 15.3154L4.81748 15.3154L4.89643 15.3154L4.97538 15.3154L5.05433 15.3154L5.13327 15.3154L5.21222 15.3154L5.29117 15.3154L5.37012 15.3154L5.44907 15.3154L5.52802 15.3154L5.60697 15.3154L5.68592 15.3154L5.76487 15.3154L5.84382 15.3154L5.92276 15.3154L6.00171 15.3154L6.08066 15.3154L6.15961 15.3154L6.23856 15.3154L6.31751 15.3154L6.39646 15.3154L6.47541 15.3154L6.55436 15.3154L6.63331 15.3154L6.71226 15.3154L6.7912 15.3154L6.87015 15.3154L6.9491 15.3154L7.02805 15.3154L7.107 15.3154L7.107 14.368L7.02805 14.368Z" fill="#6941C6"/>
<path d="M7.02805 16.6591L6.9491 16.6591L6.87015 16.6591L6.7912 16.6591L6.71226 16.6591L6.63331 16.6591L6.55436 16.6591L6.47541 16.6591L6.39646 16.6591L6.31751 16.6591L6.23856 16.6591L6.15961 16.6591L6.08066 16.6591L6.00171 16.6591L5.92276 16.6591L5.84382 16.6591L5.76487 16.6591L5.68592 16.6591L5.60697 16.6591L5.52802 16.6591L5.44907 16.6591L5.37012 16.6591L5.29117 16.6591L5.21222 16.6591L5.13327 16.6591L5.05433 16.6591L4.97538 16.6591L4.89643 16.6591L4.81748 16.6591L4.73853 16.6591L4.65958 16.6591L4.58063 16.6591L4.50168 16.6591L4.42273 16.6591L4.34378 16.6591L4.26483 16.6591L4.18589 16.6591L4.10694 16.6591L4.02799 16.6591L3.94904 16.6591L3.87009 16.6591L3.79114 16.6591L3.71219 16.6591L3.63324 16.6591L3.55429 16.6591L3.47534 16.6591L3.39639 16.6591L3.31744 16.6591L3.2385 16.6591L3.15955 16.6591L3.0806 16.6591L3.00165 16.6591L2.9227 16.6591L2.84375 16.6591L2.84375 17.6064L2.9227 17.6064L3.00165 17.6064L3.0806 17.6064L3.15955 17.6064L3.2385 17.6064L3.31744 17.6064L3.39639 17.6064L3.47534 17.6064L3.55429 17.6064L3.63324 17.6064L3.71219 17.6064L3.79114 17.6064L3.87009 17.6064L3.94904 17.6064L4.02799 17.6064L4.10694 17.6064L4.18589 17.6064L4.26483 17.6064L4.34378 17.6064L4.42273 17.6064L4.50168 17.6064L4.58063 17.6064L4.65958 17.6064L4.73853 17.6064L4.81748 17.6064L4.89643 17.6064L4.97538 17.6064L5.05433 17.6064L5.13327 17.6064L5.21222 17.6064L5.29117 17.6064L5.37012 17.6064L5.44907 17.6064L5.52802 17.6064L5.60697 17.6064L5.68592 17.6064L5.76487 17.6064L5.84382 17.6064L5.92276 17.6064L6.00171 17.6064L6.08066 17.6064L6.15961 17.6064L6.23856 17.6064L6.31751 17.6064L6.39646 17.6064L6.47541 17.6064L6.55436 17.6064L6.63331 17.6064L6.71226 17.6064L6.7912 17.6064L6.87015 17.6064L6.9491 17.6064L7.02805 17.6064L7.107 17.6064L7.107 16.6591L7.02805 16.6591Z" fill="#6941C6"/>
</svg>
