<svg width="45" height="50" viewBox="0 0 45 50" fill="none" xmlns="http://www.w3.org/2000/svg">
<path d="M19.2132 6.78132L1.01816 22.1299C-0.0422858 22.9392 -0.321351 24.4182 0.404218 25.5624L5.09251 32.846L11.6226 42.976L34.6734 23.8601L22.5341 7.28364C21.7527 6.22319 20.2736 5.99994 19.2132 6.78132Z" fill="#00E8D7"/>
<path d="M40.8413 14.0928L3.39077 23.4973C0.962909 24.2786 0.823377 26.2321 1.7722 27.6832L15.1394 48.3061C15.7533 49.2549 16.8975 49.7014 17.958 49.4224L42.0133 43.255C43.1296 42.976 43.5482 41.8039 43.4924 40.7435L44.3296 16.1579C44.2738 14.3997 42.3761 13.7021 40.8413 14.0928Z" fill="url(#paint0_linear_44_508)"/>
<path d="M5.31553 38.6505L11.2875 48.0829C11.4829 48.362 11.3154 48.7527 10.9805 48.8364L6.62713 49.9806C6.34807 50.0643 6.0411 49.8689 6.01319 49.562L4.39461 38.9854C4.3109 38.4831 5.00856 38.204 5.31553 38.6505Z" fill="#7664F9"/>
<path d="M32.9148 12.6414C34.379 12.6414 35.5659 11.4545 35.5659 9.99032C35.5659 8.52615 34.379 7.3392 32.9148 7.3392C31.4506 7.3392 30.2637 8.52615 30.2637 9.99032C30.2637 11.4545 31.4506 12.6414 32.9148 12.6414Z" fill="#00E8D7"/>
<path d="M40.1702 6.92058C41.2491 6.92058 42.1237 6.04599 42.1237 4.96712C42.1237 3.88826 41.2491 3.01367 40.1702 3.01367C39.0914 3.01367 38.2168 3.88826 38.2168 4.96712C38.2168 6.04599 39.0914 6.92058 40.1702 6.92058Z" fill="#43EFDE"/>
<path d="M29.5935 3.4604C30.549 3.4604 31.3237 2.68577 31.3237 1.7302C31.3237 0.774638 30.549 0 29.5935 0C28.6379 0 27.8633 0.774638 27.8633 1.7302C27.8633 2.68577 28.6379 3.4604 29.5935 3.4604Z" fill="#43EFDE"/>
<path d="M1.24121 25.7298L1.40865 25.0321C1.32493 25.2833 1.26912 25.5065 1.24121 25.7298Z" fill="url(#paint1_linear_44_508)"/>
<path d="M5.84637 22.8832L3.3906 23.4972C2.33015 23.832 1.71621 24.3902 1.40924 25.032L1.2418 25.7297C1.18599 26.3994 1.38133 27.0692 1.77203 27.6831L11.4277 42.5852L32.7761 45.627L39.7806 43.841L30.7948 26.3715L5.84637 22.8832Z" fill="url(#paint2_linear_44_508)"/>
<path d="M5.84637 22.8832L3.3906 23.4972C2.33015 23.832 1.71621 24.3902 1.40924 25.032L1.2418 25.7297C1.18599 26.3994 1.38133 27.0692 1.77203 27.6831L11.4277 42.5852L32.7761 45.627L39.7806 43.841L30.7948 26.3715L5.84637 22.8832Z" fill="url(#paint3_linear_44_508)"/>
<defs>
<linearGradient id="paint0_linear_44_508" x1="13.1531" y1="49.2242" x2="34.3386" y2="13.2343" gradientUnits="userSpaceOnUse">
<stop stop-color="#211F84"/>
<stop offset="0.6359" stop-color="#3B38CD"/>
<stop offset="1" stop-color="#4844F2"/>
</linearGradient>
<linearGradient id="paint1_linear_44_508" x1="1.80705" y1="25.5933" x2="38.1902" y2="41.0057" gradientUnits="userSpaceOnUse">
<stop stop-color="#211F84"/>
<stop offset="0.1969" stop-color="#222088"/>
<stop offset="0.3865" stop-color="#262493"/>
<stop offset="0.5731" stop-color="#2D2BA7"/>
<stop offset="0.7578" stop-color="#3734C2"/>
<stop offset="0.9397" stop-color="#4340E5"/>
<stop offset="1" stop-color="#4844F2"/>
</linearGradient>
<linearGradient id="paint2_linear_44_508" x1="1.55203" y1="26.1966" x2="37.9352" y2="41.609" gradientUnits="userSpaceOnUse">
<stop stop-color="#4B4BF9"/>
<stop offset="0.2504" stop-color="#4A48F6" stop-opacity="0.7496"/>
<stop offset="1" stop-color="#4844F2" stop-opacity="0"/>
</linearGradient>
<linearGradient id="paint3_linear_44_508" x1="9.24354" y1="26.2389" x2="25.4092" y2="37.4698" gradientUnits="userSpaceOnUse">
<stop stop-color="#4B4BF9"/>
<stop offset="0.2766" stop-color="#4947F5" stop-opacity="0.7234"/>
<stop offset="1" stop-color="#4844F2" stop-opacity="0"/>
</linearGradient>
</defs>
</svg>
