<svg width="24" height="24" viewBox="0 0 24 24" fill="none" xmlns="http://www.w3.org/2000/svg">
<path d="M2.62526 1.69775L1.69922 1.69775L1.69922 2.6238L2.62526 2.6238L2.62526 1.69775Z" fill="#6941C6"/>
<path d="M4.24245 1.69775L3.31641 1.69775L3.31641 2.6238L4.24245 2.6238L4.24245 1.69775Z" fill="#6941C6"/>
<path d="M5.78933 1.69763L4.86328 1.69763L4.86328 2.62368L5.78933 2.62368L5.78933 1.69763Z" fill="#6941C6"/>
<path d="M23.4598 -0.000122069L0.463023 -0.00012207C0.231512 -0.00012207 0 0.231389 0 0.462901L-9.95093e-10 23.5369C-1.00488e-09 23.7684 0.231512 23.9999 0.463023 23.9999L23.537 23.9999C23.7685 23.9999 24 23.7684 24 23.5369L24 0.540071C24 0.30856 23.7685 -0.000122069 23.4598 -0.000122069ZM23.074 23.151L0.926046 23.151L0.926046 4.24425L23.074 4.24425L23.074 23.151ZM23.074 3.24104L0.926046 3.24104L0.926046 1.00309L23.074 1.00309L23.074 3.24104Z" fill="#6941C6"/>
<path d="M9.95521 14.0442L13.9681 14.0442C14.1996 14.0442 14.4311 13.8127 14.4311 13.5812L14.4311 9.25965C14.4311 9.02814 14.1996 8.79663 13.9681 8.79663L9.95521 8.79663C9.7237 8.79663 9.49219 9.02814 9.49219 9.25965L9.49219 13.5812C9.49219 13.8899 9.7237 14.0442 9.95521 14.0442ZM10.4182 9.79985L13.505 9.79985L13.505 13.1953L10.4182 13.1953L10.4182 9.79985Z" fill="#6941C6"/>
<path d="M16.0528 9.02824C15.9756 9.10541 15.8984 9.18258 15.8984 9.33692L15.8984 13.6585C15.8984 13.89 16.0528 14.1215 16.3615 14.1215L20.3743 14.1215C20.6058 14.1215 20.8373 13.89 20.8373 13.6585L20.8373 9.33692C20.8373 9.10541 20.6058 8.8739 20.3743 8.8739L16.3615 8.8739C16.2071 8.8739 16.1299 8.8739 16.0528 9.02824ZM16.8245 9.79995L19.8341 9.79995L19.8341 13.1954L16.8245 13.1954L16.8245 9.79995Z" fill="#6941C6"/>
<path d="M3.62709 14.0442L7.63995 14.0442C7.87146 14.0442 8.10297 13.8127 8.10297 13.5812L8.10297 9.25965C8.10297 9.02814 7.87146 8.79663 7.63995 8.79663L3.62709 8.79663C3.47274 8.79663 3.39557 8.8738 3.3184 8.95097C3.24123 9.02814 3.16406 9.10531 3.16406 9.25965L3.16406 13.5812C3.16406 13.8899 3.3184 14.0442 3.62709 14.0442ZM4.09011 9.79985L7.09975 9.79985L7.09975 13.1953L4.09011 13.1953L4.09011 9.79985Z" fill="#6941C6"/>
<path d="M9.95521 20.913L13.9681 20.913C14.1996 20.913 14.4311 20.6815 14.4311 20.45L14.4311 16.1284C14.4311 15.8969 14.1996 15.6654 13.9681 15.6654L9.95521 15.6654C9.7237 15.6654 9.49219 15.8969 9.49219 16.1284L9.49219 20.45C9.49219 20.6815 9.7237 20.913 9.95521 20.913ZM10.4182 16.5915L13.505 16.5915L13.505 19.9869L10.4182 19.9869L10.4182 16.5915Z" fill="#6941C6"/>
<path d="M20.3743 15.6652L16.3615 15.6652C16.2071 15.6652 16.1299 15.7423 16.0528 15.8195C15.9756 15.8967 15.8984 15.9738 15.8984 16.1282L15.8984 20.4497C15.8984 20.6812 16.0528 20.9127 16.3615 20.9127L20.3743 20.9127C20.6058 20.9127 20.8373 20.6812 20.8373 20.4497L20.8373 16.1282C20.8373 15.8967 20.6058 15.6652 20.3743 15.6652ZM19.8341 19.9867L16.8245 19.9867L16.8245 16.5912L19.8341 16.5912L19.8341 19.9867Z" fill="#6941C6"/>
<path d="M3.62709 20.913L7.63995 20.913C7.87146 20.913 8.10297 20.6815 8.10297 20.45L8.10297 16.1284C8.10297 15.8969 7.87146 15.6654 7.63995 15.6654L3.62709 15.6654C3.47274 15.6654 3.39557 15.7426 3.3184 15.8197C3.24123 15.8969 3.16406 15.9741 3.16406 16.1284L3.16406 20.45C3.16406 20.6815 3.3184 20.913 3.62709 20.913ZM4.09011 16.5915L7.09975 16.5915L7.09975 19.9869L4.09011 19.9869L4.09011 16.5915Z" fill="#6941C6"/>
<path d="M7.56068 7.17751L8.7954 7.17751C9.02692 7.17751 9.25843 6.946 9.25843 6.71449C9.25843 6.48298 9.02692 6.25146 8.7954 6.25146L7.56068 6.25146C7.32917 6.25146 7.09766 6.48298 7.09766 6.71449C7.09766 6.946 7.32917 7.17751 7.56068 7.17751Z" fill="#6941C6"/>
<path d="M11.4201 7.17751L12.6548 7.17751C12.8863 7.17751 13.1178 6.946 13.1178 6.71449C13.1178 6.48298 12.8863 6.25146 12.6548 6.25146L11.4201 6.25146C11.1885 6.25146 10.957 6.48298 10.957 6.71449C10.957 6.946 11.1114 7.17751 11.4201 7.17751Z" fill="#6941C6"/>
<path d="M15.2013 7.17751L16.436 7.17751C16.6675 7.17751 16.8991 6.946 16.8991 6.71449C16.8991 6.48298 16.6675 6.25146 16.436 6.25146L15.2013 6.25146C14.9698 6.25146 14.7383 6.48298 14.7383 6.71449C14.7383 6.946 14.9698 7.17751 15.2013 7.17751Z" fill="#6941C6"/>
</svg>
