<svg width="30" height="30" viewBox="0 0 30 30" fill="none" xmlns="http://www.w3.org/2000/svg">
<path d="M3.18045 2.05872H2.05762V3.18154H3.18045V2.05872Z" fill="#5E2EFF"/>
<path d="M5.14724 2.05872H4.02441V3.18154H5.14724V2.05872Z" fill="#5E2EFF"/>
<path d="M7.01834 2.05872H5.89551V3.18154H7.01834V2.05872Z" fill="#5E2EFF"/>
<path d="M28.445 0H0.561415C0.280708 0 0 0.280708 0 0.561415V28.5386C0 28.8193 0.280708 29.1 0.561415 29.1H28.5386C28.8193 29.1 29.1 28.8193 29.1 28.5386V0.654985C29.1 0.374277 28.8193 0 28.445 0ZM27.9772 28.0707H1.12283V5.1463H27.9772V28.0707ZM27.9772 3.9299H1.12283V1.2164H27.9772V3.9299Z" fill="#5E2EFF"/>
<path d="M12.0712 17.0295H16.9368C17.2175 17.0295 17.4982 16.7488 17.4982 16.4681V11.2282C17.4982 10.9475 17.2175 10.6668 16.9368 10.6668H12.0712C11.7905 10.6668 11.5098 10.9475 11.5098 11.2282V16.4681C11.5098 16.8423 11.7905 17.0295 12.0712 17.0295ZM12.6326 11.8832H16.3754V16.0002H12.6326V11.8832Z" fill="#5E2EFF"/>
<path d="M19.462 10.9476C19.3685 11.0411 19.2749 11.1347 19.2749 11.3219V16.5617C19.2749 16.8424 19.462 17.1231 19.8363 17.1231H24.7019C24.9826 17.1231 25.2633 16.8424 25.2633 16.5617V11.3219C25.2633 11.0411 24.9826 10.7604 24.7019 10.7604H19.8363C19.6492 10.7604 19.5556 10.7604 19.462 10.9476ZM20.3977 11.8833H24.0469V16.0003H20.3977V11.8833Z" fill="#5E2EFF"/>
<path d="M4.39735 17.0295H9.26295C9.54365 17.0295 9.82436 16.7488 9.82436 16.4681V11.2282C9.82436 10.9475 9.54365 10.6668 9.26295 10.6668H4.39735C4.21021 10.6668 4.11665 10.7603 4.02308 10.8539C3.92951 10.9475 3.83594 11.0411 3.83594 11.2282V16.4681C3.83594 16.8423 4.02308 17.0295 4.39735 17.0295ZM4.95877 11.8832H8.60796V16.0002H4.95877V11.8832Z" fill="#5E2EFF"/>
<path d="M12.0712 25.3571H16.9368C17.2175 25.3571 17.4982 25.0763 17.4982 24.7956V19.5558C17.4982 19.2751 17.2175 18.9944 16.9368 18.9944H12.0712C11.7905 18.9944 11.5098 19.2751 11.5098 19.5558V24.7956C11.5098 25.0763 11.7905 25.3571 12.0712 25.3571ZM12.6326 20.1172H16.3754V24.2342H12.6326V20.1172Z" fill="#5E2EFF"/>
<path d="M24.7019 18.9944H19.8363C19.6492 18.9944 19.5556 19.0879 19.462 19.1815C19.3685 19.2751 19.2749 19.3686 19.2749 19.5558V24.7956C19.2749 25.0763 19.462 25.3571 19.8363 25.3571H24.7019C24.9826 25.3571 25.2633 25.0763 25.2633 24.7956V19.5558C25.2633 19.2751 24.9826 18.9944 24.7019 18.9944ZM24.0469 24.2342H20.3977V20.1172H24.0469V24.2342Z" fill="#5E2EFF"/>
<path d="M4.39735 25.3571H9.26295C9.54365 25.3571 9.82436 25.0763 9.82436 24.7956V19.5558C9.82436 19.2751 9.54365 18.9944 9.26295 18.9944H4.39735C4.21021 18.9944 4.11665 19.0879 4.02308 19.1815C3.92951 19.2751 3.83594 19.3686 3.83594 19.5558V24.7956C3.83594 25.0763 4.02308 25.3571 4.39735 25.3571ZM4.95877 20.1172H8.60796V24.2342H4.95877V20.1172Z" fill="#5E2EFF"/>
<path d="M9.16884 8.70202H10.6659C10.9466 8.70202 11.2274 8.42132 11.2274 8.14061C11.2274 7.8599 10.9466 7.57919 10.6659 7.57919H9.16884C8.88813 7.57919 8.60742 7.8599 8.60742 8.14061C8.60742 8.42132 8.88813 8.70202 9.16884 8.70202Z" fill="#5E2EFF"/>
<path d="M13.8475 8.70202H15.3447C15.6254 8.70202 15.9061 8.42132 15.9061 8.14061C15.9061 7.8599 15.6254 7.57919 15.3447 7.57919H13.8475C13.5668 7.57919 13.2861 7.8599 13.2861 8.14061C13.2861 8.42132 13.4733 8.70202 13.8475 8.70202Z" fill="#5E2EFF"/>
<path d="M18.4325 8.70202H19.9296C20.2103 8.70202 20.491 8.42132 20.491 8.14061C20.491 7.8599 20.2103 7.57919 19.9296 7.57919H18.4325C18.1518 7.57919 17.8711 7.8599 17.8711 8.14061C17.8711 8.42132 18.1518 8.70202 18.4325 8.70202Z" fill="#5E2EFF"/>
</svg>
