<svg width="107" height="114" viewBox="0 0 107 114" fill="none" xmlns="http://www.w3.org/2000/svg">
<path d="M50.3667 106.464C78.1834 106.464 100.733 83.9141 100.733 56.0974C100.733 28.2806 78.1834 5.73071 50.3667 5.73071C22.5499 5.73071 0 28.2806 0 56.0974C0 83.9141 22.5499 106.464 50.3667 106.464Z" fill="url(#paint0_linear_15_33)"/>
<path fill-rule="evenodd" clip-rule="evenodd" d="M23.3129 38.5266H39.1457L39.2206 38.5652H39.2774C40.2244 38.5652 40.9942 39.0512 41.5869 40.0231C41.7891 40.4274 41.889 40.8429 41.889 41.2721C41.889 42.319 41.3712 43.1275 40.3357 43.6952C39.9814 43.8587 39.6294 43.9405 39.2752 43.9405H23.1426C22.3841 43.9405 21.7164 43.593 21.1351 42.8981C20.7558 42.394 20.5673 41.8762 20.5673 41.3448V41.1177C20.5673 40.2843 20.9829 39.5712 21.8163 38.9785C22.2705 38.7015 22.7202 38.5629 23.1607 38.5629H23.2357L23.3129 38.5266ZM23.2743 52.0681L31.4359 52.1067C31.9787 52.1067 32.56 52.3837 33.1777 52.9401C33.6705 53.5078 33.9158 54.1278 33.9158 54.7954C33.9158 55.7288 33.4798 56.4941 32.61 57.0868C32.1808 57.3389 31.7652 57.466 31.361 57.466H23.1039C22.2955 57.466 21.5961 57.0618 21.0011 56.2534C20.7104 55.7992 20.5651 55.345 20.5651 54.8908V54.6637C20.5651 53.8053 21.0124 53.0673 21.9094 52.4473C22.3636 52.2202 22.7928 52.1067 23.1971 52.1067H23.2357C23.2629 52.1067 23.2743 52.0931 23.2743 52.0681ZM39.1253 52.1067H39.257C40.2789 52.1067 41.0805 52.6358 41.6619 53.6963C41.814 54.0756 41.889 54.4412 41.889 54.7954C41.889 55.856 41.3644 56.6712 40.3175 57.239C39.9383 57.3911 39.6044 57.466 39.3138 57.466H39.0481C38.1897 57.466 37.4584 57.0187 36.8521 56.1217C36.6114 55.6675 36.4933 55.2178 36.4933 54.7773C36.4933 53.7417 37.011 52.9333 38.0466 52.3542C38.4372 52.1884 38.7983 52.1067 39.1253 52.1067ZM23.3129 65.5505H39.1457C39.1457 65.5755 39.341 65.6073 39.7339 65.6459C40.3902 65.8094 40.8898 66.1069 41.2304 66.5361C41.6732 67.0539 41.8935 67.6466 41.8935 68.3165C41.8935 69.3384 41.3757 70.1468 40.3402 70.7396C40.0246 70.8531 39.8111 70.9099 39.6953 70.9099H22.7633C22.3205 70.9099 21.7914 70.6124 21.1737 70.0197C20.7694 69.4769 20.5673 68.9274 20.5673 68.371V68.2007C20.5673 67.2673 21.0397 66.502 21.9867 65.9093C22.2637 65.7458 22.6929 65.6323 23.2743 65.5687C23.2743 65.5573 23.2879 65.5505 23.3129 65.5505ZM66.2605 38.8105H66.4875C67.4731 38.8105 68.2861 39.3033 68.9311 40.2866C73.7409 49.8449 76.1776 54.7228 76.2411 54.9249C76.4183 55.5426 76.5068 55.915 76.5068 56.0422C76.5068 57.1776 75.9573 58.0678 74.8582 58.7128C74.3903 58.9399 73.9294 59.0534 73.4752 59.0534C72.4896 59.0534 71.663 58.606 70.9953 57.709C70.9204 57.5955 69.576 54.9181 66.9622 49.6791C66.785 49.5019 66.5897 49.4134 66.374 49.4134C65.9698 49.4134 65.6428 49.7676 65.3884 50.4739L55.6916 69.6586C55.3124 70.2263 54.7583 70.6306 54.0248 70.8713C53.9248 70.8963 53.8363 70.9099 53.7591 70.9099H52.7553C52.3125 70.9099 51.7902 70.6578 51.1838 70.1514C50.5775 69.5337 50.2755 68.8138 50.2755 67.9917C50.2755 67.424 50.7047 66.3499 51.5631 64.7716C51.5631 64.733 54.9081 58.0497 61.6005 44.7171C63.0653 41.7627 63.8533 40.2025 63.9668 40.039C64.639 39.2215 65.4021 38.8105 66.2605 38.8105ZM79.4045 65.1349H79.6498C80.6104 65.1349 81.412 65.6141 82.0547 66.5747C82.3317 67.0925 82.4703 67.5784 82.4703 68.0326C82.4703 69.1318 81.9411 70.0015 80.8806 70.6464C80.5014 70.8236 80.2175 70.9121 80.029 70.9121H79.0435C78.5893 70.9121 78.0465 70.6351 77.4152 70.0787C76.8725 69.461 76.5999 68.7843 76.5999 68.0531C76.5999 67.1197 76.9974 66.3294 77.7922 65.6868C78.3372 65.3189 78.8731 65.1349 79.4045 65.1349Z" fill="black"/>
<path fill-rule="evenodd" clip-rule="evenodd" d="M23.3129 38.5266H39.1457L39.2206 38.5652H39.2774C40.2244 38.5652 40.9942 39.0512 41.5869 40.0231C41.7891 40.4274 41.889 40.8429 41.889 41.2721C41.889 42.319 41.3712 43.1275 40.3357 43.6952C39.9814 43.8587 39.6294 43.9405 39.2752 43.9405H23.1426C22.3841 43.9405 21.7164 43.593 21.1351 42.8981C20.7558 42.394 20.5673 41.8762 20.5673 41.3448V41.1177C20.5673 40.2843 20.9829 39.5712 21.8163 38.9785C22.2705 38.7015 22.7202 38.5629 23.1607 38.5629H23.2357L23.3129 38.5266ZM23.2743 52.0681L31.4359 52.1067C31.9787 52.1067 32.56 52.3837 33.1777 52.9401C33.6705 53.5078 33.9158 54.1278 33.9158 54.7954C33.9158 55.7288 33.4798 56.4941 32.61 57.0868C32.1808 57.3389 31.7652 57.466 31.361 57.466H23.1039C22.2955 57.466 21.5961 57.0618 21.0011 56.2534C20.7104 55.7992 20.5651 55.345 20.5651 54.8908V54.6637C20.5651 53.8053 21.0124 53.0673 21.9094 52.4473C22.3636 52.2202 22.7928 52.1067 23.1971 52.1067H23.2357C23.2629 52.1067 23.2743 52.0931 23.2743 52.0681ZM39.1253 52.1067H39.257C40.2789 52.1067 41.0805 52.6358 41.6619 53.6963C41.814 54.0756 41.889 54.4412 41.889 54.7954C41.889 55.856 41.3644 56.6712 40.3175 57.239C39.9383 57.3911 39.6044 57.466 39.3138 57.466H39.0481C38.1897 57.466 37.4584 57.0187 36.8521 56.1217C36.6114 55.6675 36.4933 55.2178 36.4933 54.7773C36.4933 53.7417 37.011 52.9333 38.0466 52.3542C38.4372 52.1884 38.7983 52.1067 39.1253 52.1067ZM23.3129 65.5505H39.1457C39.1457 65.5755 39.341 65.6073 39.7339 65.6459C40.3902 65.8094 40.8898 66.1069 41.2304 66.5361C41.6732 67.0539 41.8935 67.6466 41.8935 68.3165C41.8935 69.3384 41.3757 70.1468 40.3402 70.7396C40.0246 70.8531 39.8111 70.9099 39.6953 70.9099H22.7633C22.3205 70.9099 21.7914 70.6124 21.1737 70.0197C20.7694 69.4769 20.5673 68.9274 20.5673 68.371V68.2007C20.5673 67.2673 21.0397 66.502 21.9867 65.9093C22.2637 65.7458 22.6929 65.6323 23.2743 65.5687C23.2743 65.5573 23.2879 65.5505 23.3129 65.5505ZM66.2605 38.8105H66.4875C67.4731 38.8105 68.2861 39.3033 68.9311 40.2866C73.7409 49.8449 76.1776 54.7228 76.2411 54.9249C76.4183 55.5426 76.5068 55.915 76.5068 56.0422C76.5068 57.1776 75.9573 58.0678 74.8582 58.7128C74.3903 58.9399 73.9294 59.0534 73.4752 59.0534C72.4896 59.0534 71.663 58.606 70.9953 57.709C70.9204 57.5955 69.576 54.9181 66.9622 49.6791C66.785 49.5019 66.5897 49.4134 66.374 49.4134C65.9698 49.4134 65.6428 49.7676 65.3884 50.4739L55.6916 69.6586C55.3124 70.2263 54.7583 70.6306 54.0248 70.8713C53.9248 70.8963 53.8363 70.9099 53.7591 70.9099H52.7553C52.3125 70.9099 51.7902 70.6578 51.1838 70.1514C50.5775 69.5337 50.2755 68.8138 50.2755 67.9917C50.2755 67.424 50.7047 66.3499 51.5631 64.7716C51.5631 64.733 54.9081 58.0497 61.6005 44.7171C63.0653 41.7627 63.8533 40.2025 63.9668 40.039C64.639 39.2215 65.4021 38.8105 66.2605 38.8105ZM79.4045 65.1349H79.6498C80.6104 65.1349 81.412 65.6141 82.0547 66.5747C82.3317 67.0925 82.4703 67.5784 82.4703 68.0326C82.4703 69.1318 81.9411 70.0015 80.8806 70.6464C80.5014 70.8236 80.2175 70.9121 80.029 70.9121H79.0435C78.5893 70.9121 78.0465 70.6351 77.4152 70.0787C76.8725 69.461 76.5999 68.7843 76.5999 68.0531C76.5999 67.1197 76.9974 66.3294 77.7922 65.6868C78.3372 65.3189 78.8731 65.1349 79.4045 65.1349Z" fill="white"/>
<g opacity="0.9132">
<g opacity="0.9132">
<path opacity="0.9132" d="M85.7837 31.3192C94.0388 31.3192 100.731 24.6271 100.731 16.372C100.731 8.11688 94.0388 1.4248 85.7837 1.4248C77.5286 1.4248 70.8365 8.11688 70.8365 16.372C70.8365 24.6271 77.5286 31.3192 85.7837 31.3192Z" fill="black"/>
</g>
<g opacity="0.9132">
<path opacity="0.9132" d="M85.7837 31.3192C94.0388 31.3192 100.731 24.6271 100.731 16.372C100.731 8.11688 94.0388 1.4248 85.7837 1.4248C77.5286 1.4248 70.8365 8.11688 70.8365 16.372C70.8365 24.6271 77.5286 31.3192 85.7837 31.3192Z" fill="white"/>
</g>
</g>
<path d="M85.9183 21.0847C88.4467 21.0847 90.4964 19.035 90.4964 16.5065C90.4964 13.9781 88.4467 11.9284 85.9183 11.9284C83.3898 11.9284 81.3401 13.9781 81.3401 16.5065C81.3401 19.035 83.3898 21.0847 85.9183 21.0847Z" fill="black"/>
<path d="M85.9183 21.0847C88.4467 21.0847 90.4964 19.035 90.4964 16.5065C90.4964 13.9781 88.4467 11.9284 85.9183 11.9284C83.3898 11.9284 81.3401 13.9781 81.3401 16.5065C81.3401 19.035 83.3898 21.0847 85.9183 21.0847Z" fill="#A43DFF"/>
<g opacity="0.9132">
<g opacity="0.9132">
<path opacity="0.9132" d="M17.4165 96.4788C18.8194 96.3065 19.8171 95.0296 19.6448 93.6266C19.4726 92.2237 18.1956 91.226 16.7927 91.3983C15.3897 91.5705 14.3921 92.8475 14.5643 94.2504C14.7366 95.6534 16.0136 96.651 17.4165 96.4788Z" fill="black"/>
</g>
<g opacity="0.9132">
<path opacity="0.9132" d="M17.4165 96.4788C18.8194 96.3065 19.8171 95.0296 19.6448 93.6266C19.4726 92.2237 18.1956 91.226 16.7927 91.3983C15.3897 91.5705 14.3921 92.8475 14.5643 94.2504C14.7366 95.6534 16.0136 96.651 17.4165 96.4788Z" fill="white"/>
</g>
</g>
<path d="M103.695 34.8202C105.479 34.8202 106.926 33.3734 106.926 31.5887C106.926 29.804 105.479 28.3572 103.695 28.3572C101.91 28.3572 100.463 29.804 100.463 31.5887C100.463 33.3734 101.91 34.8202 103.695 34.8202Z" fill="#F5A623"/>
<path d="M69.2204 4.92409C70.5587 4.92409 71.6435 3.83925 71.6435 2.50103C71.6435 1.1628 70.5587 0.0779572 69.2204 0.0779572C67.8822 0.0779572 66.7974 1.1628 66.7974 2.50103C66.7974 3.83925 67.8822 4.92409 69.2204 4.92409Z" fill="#D8D8D8"/>
<path opacity="0.8979" fill-rule="evenodd" clip-rule="evenodd" d="M46.0503 93.531C44.0996 93.9102 42.4623 94.9866 41.345 96.4491C40.1255 98.0456 38.3542 99.1288 36.383 99.5126C34.4255 99.8941 32.3794 99.5784 30.6694 98.552C28.9776 97.5392 26.9019 97.1599 24.8104 97.6686C22.8733 98.141 21.2632 99.3218 20.2118 100.877L20.1959 100.9C19.1467 102.463 18.654 104.397 18.9446 106.371C19.5964 110.804 23.8044 113.749 28.1532 112.904C30.1039 112.525 31.7413 111.451 32.8586 109.986C34.078 108.39 35.8493 107.306 37.8205 106.923C39.778 106.541 41.8219 106.859 43.5341 107.883C45.2237 108.896 47.3039 109.275 49.3931 108.767C51.3256 108.296 52.9312 107.12 53.9849 105.569L54.0144 105.526C55.059 103.966 55.5496 102.036 55.2589 100.064C54.9251 97.7867 53.6511 95.9018 51.9002 94.7209C50.247 93.6037 48.1645 93.12 46.0503 93.531Z" fill="url(#paint1_linear_15_33)"/>
<path opacity="0.0969" fill-rule="evenodd" clip-rule="evenodd" d="M59.5163 11.3867C57.5269 11.3958 55.9169 13.0127 55.9169 15.0043C55.9169 15.9262 56.262 16.7665 56.8275 17.4046C57.4452 18.1018 57.7835 19.0033 57.7835 19.9344C57.7835 20.7928 57.5042 21.6331 56.9683 22.3007C56.3006 22.8366 55.4627 23.116 54.602 23.116C53.6709 23.116 52.7694 22.7799 52.0722 22.1599C51.4341 21.5922 50.5938 21.2493 49.6718 21.2493C47.6167 21.2493 45.9634 22.9615 46.0588 25.0372C46.1428 26.8902 47.6462 28.3913 49.4992 28.4799C50.4962 28.5276 51.4068 28.1688 52.0881 27.5602C52.7762 26.9425 53.68 26.6177 54.6043 26.6177C55.5353 26.6177 56.4369 26.9538 57.1341 27.5738C57.7722 28.1415 58.6124 28.4844 59.5344 28.4844C59.9909 28.4844 60.4292 28.3981 60.8311 28.2437C60.8334 28.2437 60.8357 28.2437 60.8357 28.2414C60.8902 28.221 60.9447 28.1983 60.9969 28.1756C61.0014 28.1733 61.006 28.171 61.0105 28.1688C61.0605 28.1461 61.1104 28.1233 61.1581 28.0984C61.1649 28.0938 61.174 28.0915 61.1808 28.087C61.2263 28.0643 61.2717 28.0393 61.3171 28.0143C61.3262 28.0098 61.3375 28.003 61.3466 27.9962C61.3875 27.9712 61.4306 27.9485 61.4692 27.9212C61.4829 27.9144 61.4942 27.9053 61.5056 27.8962C61.5419 27.8713 61.5805 27.8486 61.6169 27.8213C61.6328 27.81 61.6464 27.7986 61.66 27.7895C61.6918 27.7645 61.7259 27.7418 61.7577 27.7168C61.7758 27.7032 61.7917 27.6896 61.8099 27.676C61.8394 27.6533 61.8667 27.6283 61.8962 27.6056C61.9166 27.5897 61.9348 27.5715 61.9529 27.5533C61.9779 27.5306 62.0029 27.5079 62.0256 27.4852C62.0483 27.4648 62.0688 27.4443 62.0892 27.4216C62.1096 27.4012 62.1324 27.3808 62.1528 27.358C62.1755 27.3331 62.1982 27.3081 62.2209 27.2854C62.2391 27.2649 62.255 27.2468 62.2731 27.2286C62.2981 27.2013 62.3208 27.1718 62.3435 27.1423C62.3572 27.1264 62.3708 27.1082 62.3844 27.0901C62.4094 27.0583 62.4344 27.0242 62.4571 26.9924C62.4684 26.9765 62.4798 26.9629 62.4889 26.9493C62.5139 26.9129 62.5388 26.8766 62.5638 26.838C62.5729 26.8266 62.5797 26.813 62.5888 26.8017C62.6138 26.7608 62.6388 26.7199 62.6637 26.679C62.6683 26.67 62.6751 26.6586 62.6819 26.6495C62.7069 26.6041 62.7319 26.5587 62.7546 26.5133C62.7591 26.5064 62.7614 26.4996 62.7659 26.4906C62.7909 26.4429 62.8136 26.3929 62.8363 26.3429C62.8386 26.3384 62.8409 26.3339 62.8431 26.3293C62.8659 26.2771 62.8886 26.2226 62.909 26.1681L62.9113 26.1635C63.0657 25.7616 63.1497 25.3233 63.1497 24.8668C63.1497 23.9449 62.8045 23.1046 62.2391 22.4665C61.6214 21.7693 61.283 20.8678 61.283 19.9367C61.283 19.0124 61.6078 18.1086 62.2255 17.4205C62.8363 16.7415 63.1929 15.8286 63.1452 14.8317C63.0589 12.9786 61.5555 11.4775 59.7025 11.3912C59.6525 11.389 59.6025 11.3867 59.5526 11.3867H59.5163Z" fill="white"/>
<defs>
<linearGradient id="paint0_linear_15_33" x1="50.3617" y1="5.73139" x2="50.3617" y2="106.461" gradientUnits="userSpaceOnUse">
<stop stop-color="#2460FF"/>
<stop offset="1" stop-color="#B80AFF"/>
</linearGradient>
<linearGradient id="paint1_linear_15_33" x1="53.7377" y1="97.2269" x2="18.0258" y2="110.083" gradientUnits="userSpaceOnUse">
<stop stop-color="#FF710F"/>
<stop offset="1" stop-color="#CB16A9"/>
</linearGradient>
</defs>
</svg>
