<svg width="54" height="50" viewBox="0 0 54 50" fill="none" xmlns="http://www.w3.org/2000/svg">
<path d="M47.0394 46.0712C48.4364 46.0712 49.569 44.9387 49.569 43.5416C49.569 42.1445 48.4364 41.012 47.0394 41.012C45.6423 41.012 44.5098 42.1445 44.5098 43.5416C44.5098 44.9387 45.6423 46.0712 47.0394 46.0712Z" fill="#597DFC"/>
<path d="M39.0208 41.2811C37.8906 41.2811 36.9756 42.1961 36.9756 43.3263C36.9756 44.4566 37.8906 45.3715 39.0208 45.3715C40.151 45.3715 41.066 44.4566 41.066 43.3263C41.066 42.1961 40.151 41.2811 39.0208 41.2811Z" fill="#597DFC"/>
<path d="M52.4219 46.986C51.8837 46.986 51.4531 47.4165 51.4531 47.9547C51.4531 48.493 51.8837 48.9235 52.4219 48.9235C52.9601 48.9235 53.3907 48.493 53.3907 47.9547C53.3907 47.4165 52.9601 46.986 52.4219 46.986Z" fill="#597DFC"/>
<path d="M43.1649 50C43.908 50 44.5104 49.3976 44.5104 48.6545C44.5104 47.9113 43.908 47.3089 43.1649 47.3089C42.4218 47.3089 41.8193 47.9113 41.8193 48.6545C41.8193 49.3976 42.4218 50 43.1649 50Z" fill="#597DFC"/>
<path d="M19.3759 13.2938C19.645 13.3477 19.8603 13.4015 20.1294 13.4015H20.1833C21.6903 13.4015 22.8743 12.2174 22.8743 10.7104C22.8743 9.20342 21.6903 8.01935 20.1833 8.01935C18.6763 8.01935 17.4922 9.20342 17.4922 10.7104C17.4922 11.733 18.0842 12.648 18.9454 13.0786C19.1068 13.1862 19.2683 13.24 19.3759 13.2938Z" fill="#597DFC"/>
<path d="M37.5673 30.9473C39.5049 27.8256 40.6351 24.1658 40.6351 20.2368C40.6351 10.4413 33.6384 2.2605 24.3811 0.430571C23.0355 0.161464 21.5824 0 20.1292 0C8.93435 0 0 9.09581 0 20.2907C0 29.7632 6.35092 37.7288 15.1238 39.9355C13.7245 39.2896 4.09042 32.6158 4.19807 19.6986C4.25189 11.3563 11.2487 4.57482 19.6448 4.30571C28.6868 3.98278 36.168 11.3025 36.168 20.2907C36.168 26.9645 32.1314 32.6157 26.3725 35.0377C25.1346 35.4683 20.8827 36.4371 17.3843 31.647C15.07 28.0948 15.3391 24.3811 15.4467 23.3585C15.662 21.2056 17.2228 19.6986 19.2681 19.6986C19.3757 19.6986 19.5372 19.6986 19.6448 19.6986C21.9591 19.9139 23.4661 21.4747 23.3585 23.6814C23.2508 25.5113 22.7664 27.3951 22.0129 29.1174L21.9053 29.2788C21.7977 29.5479 21.6362 29.817 21.5285 30.0861C21.4209 30.3553 21.3671 30.6782 21.4747 30.9473C21.6362 31.5931 22.282 32.0237 22.9279 31.9161C23.2508 31.8623 23.5738 31.647 23.789 31.3779C25.5113 28.7944 26.8569 26.1034 26.8569 22.8203C26.8569 20.8827 26.1572 19.1066 24.8655 17.8149C23.5199 16.4693 21.6362 15.7158 19.5372 15.7158C19.3757 15.7158 19.2681 15.7158 19.1066 15.7158C18.0302 15.7697 17.0614 15.9849 16.2002 16.3617C16.2002 16.3617 11.7331 17.8149 11.4101 22.9279C11.0334 25.7804 11.3025 30.6244 15.5544 35.3068C16.0388 35.8989 16.577 36.4371 17.2228 36.9215C17.8687 37.4597 18.6222 37.9441 19.4833 38.3746C19.8601 38.5899 20.2368 38.8052 20.6674 38.9667C20.6674 38.9667 20.7212 38.9667 20.7212 39.0205C21.4747 39.3434 22.282 39.5587 23.0894 39.6664C24.8117 39.9355 26.6416 39.6664 28.3639 38.9667C29.7094 38.3746 30.9473 37.675 32.1314 36.8138L35.4145 39.8816C36.2756 39.0743 37.4597 38.5899 38.7514 38.5899C40.7428 38.5899 42.4651 39.774 43.2724 41.4963C43.703 40.366 44.6179 39.5049 45.7482 39.182L37.5673 30.9473Z" fill="#597DFC"/>
</svg>
