<?xml version="1.0" encoding="utf-8"?>
<!-- Generator: Adobe Illustrator 26.5.0, SVG Export Plug-In . SVG Version: 6.00 Build 0)  -->
<svg version="1.1" id="Layer_1" xmlns="http://www.w3.org/2000/svg" xmlns:xlink="http://www.w3.org/1999/xlink" x="0px" y="0px"
	 viewBox="0 0 100 100" style="enable-background:new 0 0 100 100;" height="50px" width="50px" xml:space="preserve">
<style type="text/css">
	.st0{fill-rule:evenodd;clip-rule:evenodd;fill:url(#Oval-2_00000165913550171255139800000006029297721315188920_);}
	.st1{fill-rule:evenodd;clip-rule:evenodd;}
	.st2{fill-rule:evenodd;clip-rule:evenodd;fill:#FFFFFF;}
	.st3{opacity:0.9132;}
	.st4{fill-rule:evenodd;clip-rule:evenodd;fill:#A43DFF;}
	.st5{fill-rule:evenodd;clip-rule:evenodd;fill:#F5A623;}
	.st6{fill-rule:evenodd;clip-rule:evenodd;fill:#D8D8D8;}
	
		.st7{opacity:0.8979;fill-rule:evenodd;clip-rule:evenodd;fill:url(#Fill-1_00000045617211679988332420000008454651664252763327_);enable-background:new    ;}
	.st8{opacity:9.687500e-02;fill-rule:evenodd;clip-rule:evenodd;fill:#FFFFFF;enable-background:new    ;}
</style>
<g id="Page-1_1_">
	<g id="EB-Logo-Copy-3" transform="translate(-58.000000, -11.000000)">
		<g id="EB-Logo_1_" transform="translate(58.000000, 25.000000)">
			
				<linearGradient id="Oval-2_00000134965267387324581800000017656415126489085074_" gradientUnits="userSpaceOnUse" x1="-1863.8765" y1="5140.4199" x2="-1863.8765" y2="5140.1812" gradientTransform="matrix(374 0 0 -374 697137 1922508)">
				<stop  offset="0" style="stop-color:#2460FF"/>
				<stop  offset="1" style="stop-color:#B80AFF"/>
			</linearGradient>
			
				<circle id="Oval-2_1_" style="fill-rule:evenodd;clip-rule:evenodd;fill:url(#Oval-2_00000134965267387324581800000017656415126489085074_);" cx="47.2" cy="35.7" r="44.6"/>
			<g id="EB_1_">
				<g>
					<path id="path-2_1_" class="st1" d="M34.8,14.1h24.8l0,0l0,0c1.5,0,2.7,0.6,3.5,2.1c0.3,0.6,0.6,1.2,0.6,1.8
						c0,1.5-0.9,2.4-2.4,3.3c-0.6,0.3-1.2,0.3-1.8,0.3H34.2c-1.2,0-2.4-0.6-3.3-1.5c-0.6-0.6-0.9-1.5-0.9-2.1v-0.3
						c0-1.2,0.6-2.1,2.1-3C33,14.1,33.6,14.1,34.8,14.1L34.8,14.1L34.8,14.1z M35.1,32.4H49c0.9,0,1.8,0.3,3,1.2
						c0.6,0.6,1.2,1.5,1.2,2.4c0,1.2-0.9,2.4-2.4,3c-0.6,0.3-1.5,0.6-2.1,0.6H34.8c-1.5,0-2.7-0.6-3.5-1.8c-0.6-0.6-0.9-1.2-0.9-1.8
						l0,0c0-1.2,0.9-2.1,2.4-3C33.3,32.4,34.2,32.4,35.1,32.4L35.1,32.4L35.1,32.4z M60.2,32.4L60.2,32.4c1.5,0,2.7,0.6,3.3,2.1
						c0.3,0.6,0.3,0.9,0.3,1.5c0,1.5-0.6,2.7-2.1,3.3c-0.6,0.3-0.9,0.3-1.5,0.3h-0.3c-1.2,0-2.1-0.6-3-1.8c-0.3-0.6-0.6-1.2-0.6-1.8
						c0-1.5,0.6-2.4,2.1-3.3C59.3,32.4,59.6,32.4,60.2,32.4z M34.8,50.1h24.8c0,0,0.3,0,0.9,0c0.9,0.3,1.8,0.6,2.4,1.2
						s1.2,1.5,1.2,2.4c0,1.5-0.9,2.4-2.4,3.3c-0.6,0.3-0.9,0.3-0.9,0.3H34.2c-0.6,0-1.5-0.3-2.4-1.2c-0.6-0.6-0.9-1.5-0.9-2.1v-0.3
						c0-1.2,0.9-2.4,2.4-3C33,50.4,33.6,50.4,34.8,50.1C34.5,50.1,34.5,50.1,34.8,50.1z"/>
				</g>
				<g>
					<path class="st2" d="M34.8,14.1h24.8l0,0l0,0c1.5,0,2.7,0.6,3.5,2.1c0.3,0.6,0.6,1.2,0.6,1.8c0,1.5-0.9,2.4-2.4,3.3
						c-0.6,0.3-1.2,0.3-1.8,0.3H34.2c-1.2,0-2.4-0.6-3.3-1.5c-0.6-0.6-0.9-1.5-0.9-2.1v-0.3c0-1.2,0.6-2.1,2.1-3
						C33,14.1,33.6,14.1,34.8,14.1L34.8,14.1L34.8,14.1z M35.1,32.4H49c0.9,0,1.8,0.3,3,1.2c0.6,0.6,1.2,1.5,1.2,2.4
						c0,1.2-0.9,2.4-2.4,3c-0.6,0.3-1.5,0.6-2.1,0.6H34.8c-1.5,0-2.7-0.6-3.5-1.8c-0.6-0.6-0.9-1.2-0.9-1.8l0,0c0-1.2,0.9-2.1,2.4-3
						C33.3,32.4,34.2,32.4,35.1,32.4L35.1,32.4L35.1,32.4z M60.2,32.4L60.2,32.4c1.5,0,2.7,0.6,3.3,2.1c0.3,0.6,0.3,0.9,0.3,1.5
						c0,1.5-0.6,2.7-2.1,3.3c-0.6,0.3-0.9,0.3-1.5,0.3h-0.3c-1.2,0-2.1-0.6-3-1.8c-0.3-0.6-0.6-1.2-0.6-1.8c0-1.5,0.6-2.4,2.1-3.3
						C59.3,32.4,59.6,32.4,60.2,32.4z M34.8,50.1h24.8c0,0,0.3,0,0.9,0c0.9,0.3,1.8,0.6,2.4,1.2s1.2,1.5,1.2,2.4
						c0,1.5-0.9,2.4-2.4,3.3c-0.6,0.3-0.9,0.3-0.9,0.3H34.2c-0.6,0-1.5-0.3-2.4-1.2c-0.6-0.6-0.9-1.5-0.9-2.1v-0.3
						c0-1.2,0.9-2.4,2.4-3C33,50.4,33.6,50.4,34.8,50.1C34.5,50.1,34.5,50.1,34.8,50.1z"/>
				</g>
			</g>
			<g id="Oval-3" class="st3">
				<g>
					<circle id="path-4" class="st1" cx="78.5" cy="0.5" r="13.3"/>
				</g>
				<g>
					<circle class="st2" cx="78.5" cy="0.5" r="13.3"/>
				</g>
			</g>
			<g>
				<g>
					<circle id="path-6" class="st1" cx="78.5" cy="0.5" r="4.1"/>
				</g>
				<g>
					<circle class="st4" cx="78.5" cy="0.5" r="4.1"/>
				</g>
			</g>
			
				<g id="Oval-3-Copy-2" transform="translate(63.500000, 348.500000) rotate(-7.000000) translate(-63.500000, -348.500000) " class="st3">
				<g>
					<circle id="path-8" class="st1" cx="52.1" cy="65.6" r="2.4"/>
				</g>
				<g>
					<circle class="st2" cx="52.1" cy="65.6" r="2.4"/>
				</g>
			</g>
			<circle id="Oval-3-Copy-4" class="st5" cx="94.5" cy="14.1" r="3"/>
			<circle id="Oval-3-Copy-5" class="st6" cx="63.7" cy="-11.9" r="2.1"/>
			
				<linearGradient id="Fill-1_00000010291099437805504430000003615368169917748890_" gradientUnits="userSpaceOnUse" x1="-1830.0746" y1="5125.5645" x2="-1830.249" y2="5125.3252" gradientTransform="matrix(94.2614 63.5801 63.6147 -94.3127 -153505.8125 599834.1875)">
				<stop  offset="0" style="stop-color:#FF710F"/>
				<stop  offset="1" style="stop-color:#CB16A9"/>
			</linearGradient>
			
				<path id="Fill-1" style="opacity:0.8979;fill-rule:evenodd;clip-rule:evenodd;fill:url(#Fill-1_00000010291099437805504430000003615368169917748890_);enable-background:new    ;" d="
				M43.3,68.8c-1.8,0.3-3.3,1.2-4.1,2.7c-1.2,1.5-2.7,2.4-4.4,2.7c-1.8,0.3-3.5,0-5-0.9c-1.5-0.9-3.3-1.2-5.3-0.9
				c-1.8,0.3-3.3,1.5-4.1,3l0,0c-0.9,1.5-1.5,3.3-1.2,4.7c0.6,3.8,4.4,6.5,8.3,5.9c1.8-0.3,3.3-1.2,4.1-2.7c1.2-1.5,2.7-2.4,4.4-2.7
				s3.5,0,5,0.9c1.5,0.9,3.3,1.2,5.3,0.9c1.8-0.3,3.3-1.5,4.1-3l0,0c0.9-1.5,1.5-3.3,1.2-4.7c-0.3-2.1-1.5-3.8-3-4.7
				C46.9,69.1,45.1,68.5,43.3,68.8"/>
			<path class="st8" d="M55.2-3.9c-1.8,0-3.3,1.5-3.3,3.3c0,0.9,0.3,1.5,0.9,2.1c0.6,0.6,0.9,1.5,0.9,2.4l0,0c0,0.9-0.3,1.5-0.6,2.1
				c-0.6,0.6-1.5,0.6-2.1,0.6c-0.9,0-1.8-0.3-2.4-0.9c-0.6-0.6-1.2-0.9-2.1-0.9c-1.8,0-3.3,1.5-3.3,3.3s1.5,3,3,3
				c0.9,0,1.8-0.3,2.4-0.9c0.6,0,1.5-0.3,2.1-0.3c0.9,0,1.8,0.3,2.4,0.9c0.6,0.6,1.2,0.9,2.1,0.9c0.3,0,0.9,0,1.2-0.3l0,0l0,0l0,0
				l0,0l0,0l0,0l0,0l0,0l0,0l0,0l0,0l0,0l0,0l0,0l0,0l0,0l0,0l0,0l0,0l0,0l0,0l0,0l0,0l0,0l0,0l0,0l0,0l0,0l0,0l0,0l0,0l0,0l0,0l0,0
				c0-0.3,0.3-0.9,0.3-1.2c0-0.9-0.3-1.5-0.9-2.1c-0.6-0.6-0.9-1.5-0.9-2.4s0.3-1.5,0.9-2.4c0.6-0.6,0.9-1.5,0.9-2.4
				C58.1-2.5,56.9-3.7,55.2-3.9L55.2-3.9L55.2-3.9L55.2-3.9z"/>
		</g>
	</g>
</g>
</svg>
