<svg width="8" height="11" viewBox="0 0 8 11" fill="none" xmlns="http://www.w3.org/2000/svg">
<path d="M3.85636 11C3.66671 10.9368 3.54027 10.8103 3.41383 10.6839C2.33912 9.60919 1.26441 8.53448 0.252913 7.52299C0.0632577 7.33333 3.92795e-05 7.14368 0.0632577 6.8908C0.189694 6.51149 0.632223 6.38506 0.948315 6.63793C1.01153 6.70115 1.01153 6.70115 1.07475 6.76437C1.77015 7.52299 2.52878 8.21839 3.22418 8.97701C3.22418 8.97701 3.2874 9.04023 3.2874 9.10345C3.2874 9.10345 3.2874 9.10345 3.35061 9.10345C3.35061 9.04023 3.35061 9.04023 3.35061 8.97701C3.35061 6.1954 3.35061 3.47701 3.35061 0.6954C3.35061 0.505745 3.41383 0.31609 3.54027 0.189653C3.72992 -1.97208e-06 3.91958 -0.0632204 4.17245 0.0632164C4.36211 0.126435 4.48855 0.31609 4.48855 0.568964C4.48855 0.632182 4.48855 0.6954 4.48855 0.6954C4.48855 3.47701 4.48855 6.1954 4.48855 8.97701C4.48855 9.04023 4.48855 9.04023 4.48855 9.10345C4.55176 9.04023 4.55176 9.04023 4.61498 8.97701C5.3736 8.21839 6.13222 7.45977 6.89084 6.70115C7.0805 6.51149 7.33337 6.44827 7.58625 6.57471C7.90234 6.76437 7.96556 7.14368 7.7759 7.39655C7.71268 7.45977 7.71268 7.45977 7.64947 7.52299C6.63797 8.53448 5.56326 9.60919 4.55176 10.6207C4.42533 10.7471 4.29889 10.8736 4.10924 10.9368C3.9828 11 3.91958 11 3.85636 11Z" fill="#5E2EFF"/>
</svg>
