<svg width="28" height="24" viewBox="0 0 28 24" fill="none" xmlns="http://www.w3.org/2000/svg">
<path d="M25.4206 -0.000122069L1.92057 -0.00012207C0.837239 -0.00012207 0.00390625 0.916544 0.00390625 1.91654L0.00390625 22.0832C0.00390625 23.1665 0.920572 23.9999 1.92057 23.9999L25.3372 23.9999C26.4206 23.9999 27.2539 23.0832 27.2539 22.0832L27.2539 1.91654C27.3372 0.833211 26.4206 -0.000122069 25.4206 -0.000122069ZM26.1706 22.0832C26.1706 22.5832 25.7539 22.9165 25.3372 22.9165L1.92057 22.9165C1.42057 22.9165 1.08724 22.4999 1.08724 22.0832L1.08724 1.91654C1.08724 1.41654 1.50391 1.08321 1.92057 1.08321L25.3372 1.08321C25.8372 1.08321 26.1706 1.49988 26.1706 1.91654L26.1706 22.0832Z" fill="#6941C6"/>
<path d="M16.2526 18.1659C16.0026 18.1659 15.8359 17.9992 15.8359 17.7492L15.8359 11.4159C15.8359 11.0825 16.0859 10.9992 16.2526 10.9992L22.3359 10.9992C22.5026 10.9992 22.7526 10.9992 22.7526 11.4159L22.7526 17.8325C22.7526 18.1659 22.5026 18.2492 22.3359 18.2492L16.2526 18.2492L16.2526 18.1659ZM16.8359 17.0825L21.8359 17.0825L21.8359 11.9992L16.8359 11.9992L16.8359 17.0825Z" fill="#6941C6"/>
<path d="M6.67187 6.25055C6.67187 5.66722 6.25521 5.25055 5.67187 5.25055C5.08854 5.25055 4.67187 5.66722 4.67187 6.25055C4.67187 6.83388 5.08854 7.25055 5.67187 7.25055C6.25521 7.25055 6.67187 6.83388 6.67187 6.25055Z" fill="#6941C6"/>
<path d="M17.5859 6.25055C17.5859 5.66722 17.1693 5.25055 16.5859 5.25055C16.0026 5.25055 15.5859 5.66722 15.5859 6.25055C15.5859 6.83388 16.0026 7.25055 16.5859 7.25055C17.1693 7.25055 17.5859 6.83388 17.5859 6.25055Z" fill="#6941C6"/>
<path d="M23.0859 6.25055C23.0859 5.66722 22.6693 5.25055 22.0859 5.25055C21.5026 5.25055 21.0859 5.66722 21.0859 6.25055C21.0859 6.83388 21.5026 7.25055 22.0859 7.25055C22.5859 7.25055 23.0859 6.83388 23.0859 6.25055Z" fill="#6941C6"/>
<path d="M12.1719 6.25055C12.1719 5.66722 11.7552 5.25055 11.1719 5.25055C10.5885 5.25055 10.1719 5.66722 10.1719 6.25055C10.1719 6.83388 10.5885 7.25055 11.1719 7.25055C11.6719 7.25055 12.1719 6.83388 12.1719 6.25055Z" fill="#6941C6"/>
<path d="M6.67187 11.7502C6.67187 11.1669 6.25521 10.7502 5.67187 10.7502C5.08854 10.7502 4.67187 11.1669 4.67187 11.7502C4.67187 12.3335 5.08854 12.7502 5.67187 12.7502C6.25521 12.8335 6.67187 12.3335 6.67187 11.7502Z" fill="#6941C6"/>
<path d="M12.1719 11.7502C12.1719 11.1669 11.7552 10.7502 11.1719 10.7502C10.5885 10.7502 10.1719 11.1669 10.1719 11.7502C10.1719 12.3335 10.5885 12.7502 11.1719 12.7502C11.6719 12.8335 12.1719 12.3335 12.1719 11.7502Z" fill="#6941C6"/>
<path d="M6.67187 17.3329C6.67187 16.7496 6.25521 16.3329 5.67187 16.3329C5.08854 16.3329 4.67187 16.7496 4.67187 17.3329C4.67187 17.9162 5.08854 18.3329 5.67187 18.3329C6.25521 18.3329 6.67187 17.9162 6.67187 17.3329Z" fill="#6941C6"/>
<path d="M12.1719 17.3329C12.1719 16.7496 11.7552 16.3329 11.1719 16.3329C10.5885 16.3329 10.1719 16.7496 10.1719 17.3329C10.1719 17.9162 10.5885 18.3329 11.1719 18.3329C11.6719 18.3329 12.1719 17.9162 12.1719 17.3329Z" fill="#6941C6"/>
</svg>
