<svg width="33" height="29" viewBox="0 0 33 29" fill="none" xmlns="http://www.w3.org/2000/svg">
<path d="M30.5 0H2.3C0.999999 0 0 1.1 0 2.3V26.5C0 27.8 1.1 28.8 2.3 28.8H30.4C31.7 28.8 32.7 27.7 32.7 26.5V2.3C32.8 0.999999 31.7 0 30.5 0ZM31.4 26.5C31.4 27.1 30.9 27.5 30.4 27.5H2.3C1.7 27.5 1.3 27 1.3 26.5V2.3C1.3 1.7 1.8 1.3 2.3 1.3H30.4C31 1.3 31.4 1.8 31.4 2.3V26.5Z" fill="#5E2EFF"/>
<path d="M19.5 21.8C19.2 21.8 19 21.6 19 21.3V13.7C19 13.3 19.3 13.2 19.5 13.2H26.8C27 13.2 27.3 13.2 27.3 13.7V21.4C27.3 21.8 27 21.9 26.8 21.9H19.5V21.8ZM20.2 20.5H26.2V14.4H20.2V20.5Z" fill="#5E2EFF"/>
<path d="M7.99961 7.49981C7.99961 6.79981 7.49961 6.2998 6.79961 6.2998C6.09961 6.2998 5.59961 6.79981 5.59961 7.49981C5.59961 8.19981 6.09961 8.6998 6.79961 8.6998C7.49961 8.6998 7.99961 8.19981 7.99961 7.49981Z" fill="#5E2EFF"/>
<path d="M21.0997 7.49981C21.0997 6.79981 20.5997 6.2998 19.8997 6.2998C19.1997 6.2998 18.6997 6.79981 18.6997 7.49981C18.6997 8.19981 19.1997 8.6998 19.8997 8.6998C20.5997 8.6998 21.0997 8.19981 21.0997 7.49981Z" fill="#5E2EFF"/>
<path d="M27.6998 7.49981C27.6998 6.79981 27.1998 6.2998 26.4998 6.2998C25.7998 6.2998 25.2998 6.79981 25.2998 7.49981C25.2998 8.19981 25.7998 8.6998 26.4998 8.6998C27.0998 8.6998 27.6998 8.19981 27.6998 7.49981Z" fill="#5E2EFF"/>
<path d="M14.5997 7.49981C14.5997 6.79981 14.0997 6.2998 13.3997 6.2998C12.6997 6.2998 12.1997 6.79981 12.1997 7.49981C12.1997 8.19981 12.6997 8.6998 13.3997 8.6998C13.9997 8.6998 14.5997 8.19981 14.5997 7.49981Z" fill="#5E2EFF"/>
<path d="M7.99961 14.0999C7.99961 13.3999 7.49961 12.8999 6.79961 12.8999C6.09961 12.8999 5.59961 13.3999 5.59961 14.0999C5.59961 14.7999 6.09961 15.2999 6.79961 15.2999C7.49961 15.3999 7.99961 14.7999 7.99961 14.0999Z" fill="#5E2EFF"/>
<path d="M14.5997 14.0999C14.5997 13.3999 14.0997 12.8999 13.3997 12.8999C12.6997 12.8999 12.1997 13.3999 12.1997 14.0999C12.1997 14.7999 12.6997 15.2999 13.3997 15.2999C13.9997 15.3999 14.5997 14.7999 14.5997 14.0999Z" fill="#5E2EFF"/>
<path d="M7.99961 20.7999C7.99961 20.0999 7.49961 19.5999 6.79961 19.5999C6.09961 19.5999 5.59961 20.0999 5.59961 20.7999C5.59961 21.4999 6.09961 21.9999 6.79961 21.9999C7.49961 21.9999 7.99961 21.4999 7.99961 20.7999Z" fill="#5E2EFF"/>
<path d="M14.5997 20.7999C14.5997 20.0999 14.0997 19.5999 13.3997 19.5999C12.6997 19.5999 12.1997 20.0999 12.1997 20.7999C12.1997 21.4999 12.6997 21.9999 13.3997 21.9999C13.9997 21.9999 14.5997 21.4999 14.5997 20.7999Z" fill="#5E2EFF"/>
</svg>
