<svg width="149" height="171" viewBox="0 0 149 171" fill="none" xmlns="http://www.w3.org/2000/svg">
<g clip-path="url(#clip0_19_1131)">
<g opacity="0.2">
<path opacity="0.0909091" d="M144.091 150.866C144.663 152.201 145.999 154.11 141.419 154.969C141.419 154.969 85.5005 167.088 64.698 170.427C63.0758 170.714 59.6406 170.427 56.6824 169.092C41.9871 162.126 21.1847 151.915 7.53901 143.041C4.39001 141.037 7.34816 138.27 10.4017 137.792C32.2538 134.548 97.3331 124.528 97.3331 124.528C99.4324 123.574 101.627 123.956 102.295 125.292L144.091 150.866Z" fill="#F7F7F7"/>
<path opacity="0.1818" d="M143.137 150.579C143.709 151.915 145.045 153.728 140.465 154.587C140.465 154.587 84.9282 166.42 64.4121 169.664C62.7898 169.95 59.45 169.569 56.6827 168.328C42.2737 161.553 20.6124 150.961 8.20725 142.945C5.15368 140.941 8.30267 138.365 11.3562 137.983C33.0175 134.739 96.9517 124.719 96.9517 124.719C99.051 123.765 101.246 124.147 101.818 125.483L143.137 150.579Z" fill="#EFEFF0"/>
<path opacity="0.2727" d="M142.278 150.388C142.85 151.724 144.186 153.537 139.701 154.396C139.701 154.396 84.5463 166.038 64.221 169.187C62.5988 169.473 59.3544 168.996 56.6825 167.756C42.4643 161.076 19.9442 150.007 8.97045 142.85C6.0123 140.941 9.44757 138.556 12.3103 138.079C33.6853 134.834 96.4743 124.719 96.4743 124.719C98.5737 123.765 100.673 124.147 101.341 125.483L142.278 150.388Z" fill="#E7E8E8"/>
<path opacity="0.3636" d="M141.323 150.102C141.896 151.438 143.232 153.251 138.747 154.11C138.747 154.11 84.0686 165.465 63.8387 168.614C62.2165 168.901 59.0675 168.424 56.491 167.183C42.6545 160.599 19.371 149.053 9.7332 142.85C6.77506 140.941 10.592 138.747 13.3593 138.365C34.5435 135.025 96.1874 124.91 96.1874 124.91C98.1914 123.956 100.386 124.338 100.959 125.674L141.323 150.102Z" fill="#DFE0E1"/>
<path opacity="0.4545" d="M140.369 149.911C140.942 151.152 142.182 153.06 137.793 153.824C137.793 153.824 83.4964 164.893 63.4573 168.042C61.8351 168.328 58.7816 167.756 56.396 166.611C42.8457 160.026 18.7034 148.098 10.497 142.755C7.63424 140.941 11.642 138.938 14.4093 138.46C35.4027 135.121 95.8061 125.006 95.8061 125.006C97.81 124.147 100.005 124.433 100.577 125.769L140.369 149.911Z" fill="#D7D8D9"/>
<path opacity="0.5455" d="M139.415 149.625C139.988 150.866 141.228 152.679 136.839 153.537C136.839 153.537 82.9241 164.32 63.1713 167.374C61.5491 167.66 58.591 166.992 56.3008 165.943C43.0368 159.454 18.0357 147.049 11.1652 142.564C8.39788 140.846 12.692 138.938 15.2684 138.556C35.9754 135.216 95.3292 125.006 95.3292 125.006C97.3331 124.147 99.4325 124.433 100.1 125.769L139.415 149.625Z" fill="#CFD0D2"/>
<path opacity="0.6364" d="M138.557 149.339C139.129 150.579 140.37 152.392 135.98 153.251C135.98 153.251 82.5426 163.748 62.8853 166.801C61.3585 167.088 58.4003 166.42 56.2056 165.37C43.2279 158.977 17.368 146.094 11.9288 142.564C9.25691 140.846 13.8373 139.224 16.3183 138.747C36.8345 135.311 94.9478 125.196 94.9478 125.196C96.9517 124.338 99.051 124.624 99.6235 125.96L138.557 149.339Z" fill="#C7C8CA"/>
<path opacity="0.7273" d="M137.602 149.148C138.174 150.388 139.415 152.201 135.121 152.965C135.121 152.965 82.0651 163.175 62.5986 166.229C61.0718 166.515 58.2091 165.752 56.2052 164.702C43.6092 158.309 16.8905 145.045 12.7872 142.373C10.2108 140.751 14.982 139.224 17.463 138.842C37.5975 135.502 94.5657 125.196 94.5657 125.196C96.5696 124.338 98.6689 124.624 99.2415 125.96L137.602 149.148Z" fill="#BFC0C3"/>
<path opacity="0.8182" d="M136.648 148.862C137.22 150.102 138.461 151.915 134.167 152.679C134.167 152.679 81.4925 162.698 62.3122 165.656C60.7854 165.943 58.0181 165.084 56.1097 164.129C43.8 157.831 16.2224 144.09 13.4551 142.373C10.9741 140.751 16.0315 139.51 18.3217 139.033C38.3608 135.598 94.1839 125.292 94.1839 125.292C96.1878 124.433 98.1917 124.719 98.7642 126.055L136.648 148.862Z" fill="#B7B9BB"/>
<path opacity="0.9091" d="M135.694 148.671C136.266 149.911 137.507 151.629 133.213 152.488C133.213 152.488 81.0156 162.221 61.9308 165.084C60.404 165.275 57.7321 164.511 55.9191 163.557C43.8956 157.259 15.4593 143.136 14.1233 142.277C11.6423 140.751 17.0815 139.606 19.2762 139.224C39.1244 135.789 93.707 125.483 93.707 125.483C95.6155 124.624 97.7148 124.91 98.2874 126.151L135.694 148.671Z" fill="#AFB1B4"/>
<path opacity="0.5" d="M134.835 148.384C135.407 149.625 136.648 151.343 132.354 152.106C132.354 152.106 80.5383 161.553 61.6444 164.416C60.1176 164.607 57.5411 163.748 55.9189 162.889C44.1818 156.686 14.8866 142.182 14.8866 142.182C12.501 140.751 18.131 139.796 20.3257 139.415C39.8877 135.884 93.4206 125.578 93.4206 125.578C95.3291 124.719 97.4284 125.006 98.0009 126.246L134.835 148.384Z" fill="#A7A9AC"/>
</g>
<path d="M91.0348 132.067C91.0348 132.544 90.6531 132.926 90.0806 132.83L15.4589 138.747C14.9818 138.747 14.6001 138.365 14.6001 137.888V85.8817C14.6001 85.4046 14.9818 85.1184 15.4589 85.1184L88.9355 76.6256C89.4126 76.6256 89.8897 77.0073 89.8897 77.4844L91.0348 132.067Z" fill="url(#paint0_linear_19_1131)"/>
<path d="M88.4585 134.548C88.4585 135.025 88.8402 135.407 89.4127 135.407L133.022 151.247C133.499 151.247 133.88 150.77 133.88 150.293V93.9928C133.88 93.5157 133.499 93.4203 133.022 93.134L89.4127 76.6256C88.9356 76.6256 88.4585 77.1027 88.4585 77.5799V134.548Z" fill="url(#paint1_linear_19_1131)"/>
<path opacity="0.0909091" d="M89.0302 77.3889C90.0799 76.5301 88.2668 76.6256 87.8851 76.721L15.9354 84.9274C13.9315 85.4045 15.4582 85.8817 15.8399 85.9771L89.0302 77.3889Z" fill="white"/>
<path opacity="0.1818" d="M89.0304 77.2936C89.9846 76.5302 88.267 76.6256 87.8853 76.7211L16.031 84.9275C14.2179 85.3092 15.4584 85.7863 15.7447 85.8818L89.0304 77.2936Z" fill="white"/>
<path opacity="0.2727" d="M88.9349 77.2935C89.7937 76.6255 88.1715 76.721 87.7898 76.721L16.2218 84.9274C14.5996 85.3091 15.5538 85.7863 15.8401 85.7863L88.9349 77.2935Z" fill="white"/>
<path opacity="0.3636" d="M88.9355 77.2935C89.6989 76.6255 88.1721 76.7209 87.7904 76.8163L16.3177 85.0228C14.7909 85.3091 15.4589 85.7862 15.7452 85.8816L88.9355 77.2935Z" fill="white"/>
<path opacity="0.0909091" d="M59.3538 103.154C60.4035 102.772 59.3538 102.199 59.1629 102.199L15.5541 85.5001C14.2182 85.2138 14.7907 86.168 14.9816 86.3589L59.3538 103.154Z" fill="white"/>
<path opacity="0.1818" d="M59.3534 103.154C60.3076 102.772 59.258 102.295 59.0671 102.199L15.6491 85.5955C14.4086 85.3092 14.8858 86.168 14.9812 86.3589L59.3534 103.154Z" fill="white"/>
<path opacity="0.2727" d="M59.354 103.058C60.2128 102.676 59.2585 102.295 59.0677 102.199L15.6497 85.5954C14.6 85.4046 14.7909 86.0726 14.9817 86.2634L59.354 103.058Z" fill="white"/>
<path opacity="0.3636" d="M59.3536 103.058C60.117 102.772 59.1627 102.295 58.9719 102.295L15.7448 85.6908C14.7905 85.5 14.8859 86.0725 14.9814 86.2634C14.9814 86.168 59.3536 103.058 59.3536 103.058Z" fill="white"/>
<path opacity="0.4545" d="M59.3537 102.963C60.0217 102.676 59.1629 102.295 58.972 102.199L15.8403 85.6908C14.9815 85.4999 14.9815 85.977 15.0769 86.1679L59.3537 102.963Z" fill="white"/>
<path opacity="0.5455" d="M59.3536 102.962C59.9262 102.676 59.1628 102.39 58.9719 102.295L15.9357 85.7862C15.1723 85.5953 14.9814 85.977 15.0769 86.0724L59.3536 102.962Z" fill="white"/>
<path opacity="0.6364" d="M59.3538 102.867C59.8309 102.676 59.0675 102.295 58.8766 102.295L15.9358 85.7862C15.2678 85.5954 14.9815 85.8816 15.077 85.9771C15.077 86.0725 59.3538 102.867 59.3538 102.867Z" fill="white"/>
<path opacity="0.7273" d="M59.3539 102.867C59.7356 102.676 59.0677 102.39 58.8768 102.295L16.0314 85.8816C15.4588 85.7862 15.0771 85.8816 15.0771 85.977C15.1726 85.977 59.3539 102.867 59.3539 102.867Z" fill="white"/>
<path opacity="0.8182" d="M59.3537 102.772C59.64 102.581 58.972 102.39 58.7812 102.295L16.1266 85.9772C15.6495 85.8818 15.1724 85.8818 15.1724 85.9772C15.1724 85.8818 59.3537 102.772 59.3537 102.772Z" fill="white"/>
<path opacity="0.9091" d="M59.3535 102.772C59.5443 102.676 58.9718 102.39 58.7809 102.39L16.2218 85.977C15.8401 85.8816 15.1721 85.7862 15.2675 85.8816C15.1721 85.8816 59.3535 102.772 59.3535 102.772Z" fill="white"/>
<path d="M59.3537 102.676C59.4492 102.581 58.8766 102.39 58.6858 102.295L16.222 86.0726C15.9358 85.9771 15.1724 85.7863 15.1724 85.7863C15.2678 85.7863 59.3537 102.676 59.3537 102.676Z" fill="white"/>
<path opacity="0.0909091" d="M133.308 93.8972C134.357 93.5155 133.212 93.1338 132.926 93.0384L89.6034 76.6255C88.2674 76.3392 88.5537 76.9117 88.7446 77.198L133.308 93.8972Z" fill="white"/>
<path opacity="0.1818" d="M133.307 93.8973C134.261 93.5156 133.116 93.2294 132.925 93.1339L89.6027 76.6256C88.3622 76.3393 88.553 76.9118 88.7439 77.1027L133.307 93.8973Z" fill="white"/>
<path opacity="0.2727" d="M133.307 93.8972C134.166 93.5155 133.117 93.2292 132.926 93.1338L89.6985 76.7209C88.6489 76.53 88.6489 76.9117 88.8397 77.1026L133.307 93.8972Z" fill="white"/>
<path opacity="0.3636" d="M133.308 93.8018C134.071 93.5156 133.117 93.2293 132.926 93.1339L89.6987 76.7209C88.7445 76.5301 88.6491 76.9118 88.7445 77.0072L133.308 93.8018Z" fill="white"/>
<path opacity="0.4545" d="M133.308 93.8019C133.976 93.5156 133.022 93.2293 132.831 93.1339L89.7949 76.8164C88.9361 76.6255 88.7453 76.9118 88.8407 77.0072L133.308 93.8019Z" fill="white"/>
<path opacity="0.5455" d="M133.307 93.802C133.88 93.5157 133.021 93.3249 132.83 93.2294L89.8894 76.8165C89.126 76.6256 88.8398 76.8165 88.9352 77.0073L133.307 93.802Z" fill="white"/>
<path opacity="0.6364" d="M133.307 93.7065C133.784 93.5157 133.02 93.2294 132.83 93.134L89.8887 76.8164C89.2207 76.6256 88.839 76.8164 88.9344 76.9119L133.307 93.7065Z" fill="white"/>
<path opacity="0.0909091" d="M133.879 94.1835C134.929 93.3247 133.116 93.4201 132.734 93.4201L60.3074 102.104C58.3035 102.581 59.8303 103.058 60.212 103.153L133.879 94.1835Z" fill="white"/>
<path opacity="0.1818" d="M133.88 94.0882C134.834 93.2294 133.117 93.4202 132.735 93.4202L60.4988 102.008C58.6857 102.39 59.9262 102.963 60.2125 103.058L133.88 94.0882Z" fill="white"/>
<path opacity="0.2727" d="M133.879 94.0882C134.738 93.3248 133.116 93.5156 132.734 93.5156L60.6891 102.104C59.0668 102.486 60.0211 102.963 60.3074 103.058L133.879 94.0882Z" fill="white"/>
<path opacity="0.3636" d="M133.784 93.9926C134.548 93.3247 133.021 93.4201 132.639 93.5155L60.785 102.104C59.2582 102.485 59.9262 102.867 60.2124 102.963L133.784 93.9926Z" fill="white"/>
<path opacity="0.0909091" d="M59.5443 102.676C59.926 102.676 61.5482 102.581 59.7352 101.627L15.6493 84.9275C15.363 84.8321 13.6453 84.2595 14.4087 85.3092C14.4087 85.4046 59.5443 102.676 59.5443 102.676Z" fill="white"/>
<path opacity="0.1818" d="M59.6403 102.676C60.022 102.676 61.3579 102.486 59.6403 101.627L15.7452 85.0229C15.4589 84.9275 13.8367 84.355 14.5047 85.4046L59.6403 102.676Z" fill="white"/>
<path opacity="0.2727" d="M59.6404 102.676C59.9267 102.676 60.9763 102.486 59.4495 101.722L15.7453 85.1183C15.459 85.0229 13.9323 84.4503 14.5048 85.4046L59.6404 102.676Z" fill="white"/>
<path opacity="0.3636" d="M59.7356 102.581C60.0218 102.581 60.7852 102.295 59.4493 101.627L15.8405 85.1184C15.5542 85.0229 14.1229 84.5458 14.6 85.3092L59.7356 102.581Z" fill="white"/>
<path d="M63.5522 44.563L42.8452 110.978H105.062L81.3966 44.563H63.5522Z" fill="url(#paint2_linear_19_1131)"/>
<path d="M70.5185 65.0793L66.5107 83.9732C64.8885 89.0307 68.7054 94.0882 73.9538 94.0882C79.3929 94.0882 83.1145 88.7444 81.3014 83.5915L76.7211 65.0793H70.5185Z" fill="url(#paint3_linear_19_1131)"/>
<path d="M96.3782 42.8455C97.1416 45.9945 96.2828 49.2389 95.3285 52.2925C93.5155 58.495 91.7024 64.6976 89.8894 70.8047C89.6031 71.759 89.126 72.9041 88.0763 73.0949C86.645 73.2858 85.977 71.3773 85.977 69.9459C85.977 67.5603 86.1678 65.1747 86.7404 62.8845C86.9312 62.2166 87.1221 61.4532 86.9312 60.6898C86.7404 60.0218 86.1678 59.5447 85.5953 59.0676C83.496 57.3499 81.0149 56.014 78.4385 54.9643C79.011 51.1474 79.4881 41.4141 82.6371 38.8377C84.5456 37.5971 95.9011 40.7461 96.3782 42.8455Z" fill="url(#paint4_linear_19_1131)"/>
<path opacity="0.2" d="M82.7327 39.1239C81.0151 40.5552 80.0608 44.1814 79.4883 47.8075C80.5379 50.861 81.7785 54.4872 82.7327 57.3499C83.6869 57.9224 84.7366 58.5904 85.5954 59.3538L94.279 41.3186C90.8438 39.4101 84.1641 37.9788 82.7327 39.1239Z" fill="url(#paint5_linear_19_1131)"/>
<path d="M49.9066 43.6089C49.2386 46.7579 50.1929 49.9069 51.2425 52.9605C53.2464 59.0676 55.2504 65.1747 57.2543 71.3773C57.5405 72.3316 58.1131 73.4766 59.0673 73.5721C60.4987 73.6675 61.0712 71.8544 61.0712 70.4231C61.0712 68.0375 60.6895 65.7473 60.117 63.4571C59.9261 62.7891 59.7353 62.0257 59.9261 61.2623C60.117 60.5944 60.6895 60.1173 61.1666 59.6401C63.266 57.8271 65.6516 56.3957 68.1326 55.3461C67.3692 51.6245 66.7012 41.8913 63.4568 39.4102C61.5483 37.8834 50.3837 41.4141 49.9066 43.6089Z" fill="url(#paint6_linear_19_1131)"/>
<path opacity="0.4" d="M67.6555 52.5787C66.9876 48.0938 66.0333 41.4141 63.4569 39.4102C62.8843 38.9331 61.2621 39.0285 59.4491 39.3148L53.0557 58.495C53.7236 60.5943 54.3916 62.6937 55.0596 64.793C56.8726 64.8884 58.8765 64.8884 60.4033 64.8884C60.3079 64.4113 60.2125 63.9342 60.0216 63.4571C59.8308 62.7891 59.6399 62.0257 59.8308 61.2623C60.0216 60.5943 60.5942 60.1172 61.0713 59.6401C62.5981 58.3042 64.3157 57.1591 66.1288 56.3003C66.6059 55.0597 67.083 53.8192 67.6555 52.5787Z" fill="url(#paint7_linear_19_1131)"/>
<path d="M80.7338 65.0792C89.0357 45.6127 87.8907 22.52 79.2071 3.24436C78.4437 1.62215 77.1077 0.477062 75.3901 0.0953654C75.2947 0.0953654 75.1038 -5.86733e-05 75.0084 -5.86733e-05C72.8136 -0.381755 70.6189 0.66791 69.4738 2.48097C58.0229 20.039 56.8778 46.6623 66.6111 65.27C71.1914 65.8426 76.1535 64.7929 80.7338 65.0792Z" fill="url(#paint8_linear_19_1131)"/>
<path d="M68.801 39.8873C63.0756 18.0351 68.6102 6.77509 72.3317 0.381676C71.0912 0.858796 70.0415 1.62219 69.3736 2.76728C58.0181 20.3253 56.873 46.7578 66.6063 65.3655C68.7056 65.6518 70.8049 65.5563 72.9997 65.3655C72.2363 59.1629 71.6637 50.6702 68.801 39.8873Z" fill="url(#paint9_linear_19_1131)"/>
<path d="M73.0948 10.8782C76.6255 10.7828 79.5836 13.6455 79.679 17.2716C79.7745 20.8023 76.9117 23.7605 73.2856 23.8559C69.7549 23.8559 66.7968 20.9932 66.7968 17.4625C66.7013 13.9318 69.5641 10.9736 73.0948 10.8782Z" fill="url(#paint10_linear_19_1131)"/>
<path d="M73.6678 10.3057C77.1985 10.2102 80.1567 13.073 80.2521 16.6991C80.3475 20.2298 77.4848 23.1879 73.8587 23.2833C70.328 23.3788 67.3698 20.516 67.2744 16.8899C67.2744 13.3592 70.1371 10.4011 73.6678 10.3057Z" fill="url(#paint11_linear_19_1131)"/>
<path d="M73.7631 12.5005C76.1487 12.5005 78.0572 14.3136 78.0572 16.6992C78.0572 19.0848 76.2442 20.9933 73.8586 20.9933C71.4729 20.9933 69.5645 19.1802 69.5645 16.7946C69.469 14.5044 71.3775 12.5959 73.7631 12.5005Z" fill="#EFDC8F"/>
<path opacity="0.5" d="M86.2635 38.9331L78.3433 65.0793C78.725 65.0793 79.0112 65.0793 79.3929 65.0793C79.4884 65.0793 79.4884 65.0793 79.5838 65.0793C79.9655 65.0793 80.3472 65.0793 80.6334 65.0793C84.2596 56.7774 86.0726 47.9029 86.2635 38.9331Z" fill="url(#paint12_linear_19_1131)"/>
<path d="M76.7206 11.0692C75.671 13.9319 73.7625 19.2756 72.522 23.188C72.9991 23.2835 73.4762 23.3789 73.9533 23.2835C77.484 23.188 80.3467 20.3253 80.3467 16.6992C80.2513 14.2182 78.82 12.1188 76.7206 11.0692Z" fill="url(#paint13_linear_19_1131)"/>
<path d="M72.2357 70.2321L72.6174 73.1903C72.7129 73.7628 73.19 74.2399 73.7625 74.2399C74.3351 74.2399 74.9076 73.7628 74.9076 73.1903L76.1481 53.6283C76.2436 52.0061 75.0031 50.5748 73.2854 50.4793C71.4723 50.4793 70.1364 52.0061 70.3272 53.7238L70.7089 57.2544" fill="url(#paint14_linear_19_1131)"/>
<path d="M120.043 71.3772C98.7638 81.2059 89.126 101.817 89.126 101.817L93.8018 100.672C93.8018 100.672 104.489 82.0647 127.964 73.7628C129.395 73.2856 127.296 72.4268 123.479 72.0451C122.238 71.9497 121.666 70.6138 120.043 71.3772Z" fill="#FDD14E"/>
<path d="M81.2057 88.4581C75.9574 93.7064 73.7626 100.482 72.9038 102.772L76.1482 101.913C79.3927 94.8515 81.5874 92.8476 85.5952 89.1261C86.7403 88.0764 84.9273 88.3627 83.7822 88.1718C82.8279 87.8856 82.7325 86.9313 81.2057 88.4581Z" fill="white"/>
<path d="M22.1387 70.7092C43.5137 80.5379 53.1515 101.15 53.1515 101.15L48.4758 100.004C48.4758 100.004 37.7883 81.3967 14.3139 73.0948C12.8826 72.6177 14.9819 71.7589 18.7989 71.3772C19.944 71.2817 20.5165 69.9458 22.1387 70.7092Z" fill="#F9E853"/>
<path d="M55.8236 92.275C59.9269 96.3782 61.6445 101.722 62.3125 103.535L59.736 102.867C57.1596 97.3325 55.4419 95.7103 52.2929 92.8476C51.3387 91.9887 52.8655 92.275 53.7243 92.0842C54.5831 91.8933 54.6785 91.1299 55.8236 92.275Z" fill="#FF8578"/>
<path d="M37.311 91.4163C37.979 91.4163 37.979 90.4621 37.311 90.4621C36.6431 90.3667 36.6431 91.4163 37.311 91.4163Z" fill="white"/>
<path d="M107.734 92.2751C108.402 92.2751 108.402 91.3209 107.734 91.3209C107.066 91.3209 107.066 92.2751 107.734 92.2751Z" fill="white"/>
<path d="M23.4741 88.8398C24.7146 88.8398 24.7146 86.8359 23.4741 86.8359C22.1382 86.8359 22.1382 88.8398 23.4741 88.8398Z" fill="white"/>
<path d="M114.414 41.9865C115.655 41.9865 115.655 39.9826 114.414 39.9826C113.078 39.9826 113.078 41.9865 114.414 41.9865Z" fill="white"/>
<path d="M124.242 64.6975C125.483 64.6975 125.483 62.6936 124.242 62.6936C122.906 62.6936 122.906 64.6975 124.242 64.6975Z" fill="white"/>
<path d="M28.5317 65.8425C29.7723 65.8425 29.7723 63.8386 28.5317 63.8386C27.1958 63.8386 27.1958 65.8425 28.5317 65.8425Z" fill="white"/>
<path d="M120.139 91.4162C121.379 91.4162 121.379 89.4123 120.139 89.4123C118.898 89.4123 118.898 91.4162 120.139 91.4162Z" fill="white"/>
<path d="M22.1384 37.0245C23.3789 37.0245 23.3789 35.0206 22.1384 35.0206C20.8979 35.116 20.8979 37.0245 22.1384 37.0245Z" fill="white"/>
<path d="M22.5195 46.1852C25.1914 46.7577 25.9548 47.1394 27.4816 48.0937C27.6724 47.712 28.4358 46.5669 28.4358 46.5669C28.4358 46.5669 27.0045 44.3721 24.0463 43.0362C23.5692 43.895 22.9012 45.1355 22.5195 46.1852Z" fill="#FF7D7D"/>
<path d="M140.847 79.4882C137.698 80.1562 136.743 80.6333 134.835 81.7784C134.549 81.3967 133.785 79.8699 133.785 79.8699C133.785 79.8699 135.503 77.1981 139.033 75.5758C139.511 76.7209 140.274 78.2477 140.847 79.4882Z" fill="url(#paint15_linear_19_1131)"/>
<path d="M126.532 30.2494C125.292 30.5357 125.005 30.7266 124.242 31.1083C124.147 30.9174 123.86 30.3449 123.86 30.3449C123.86 30.3449 124.528 29.2952 125.864 28.7227C125.96 29.1998 126.341 29.7723 126.532 30.2494Z" fill="#EA2828"/>
<path d="M34.8296 63.3616C34.8296 63.3616 36.1655 63.5525 36.6426 63.6479C36.6426 63.2662 36.5472 62.8845 36.3564 62.5028C35.4021 62.4074 34.4479 62.0257 33.4937 61.9303C33.8753 62.312 34.8296 63.3616 34.8296 63.3616Z" fill="#2EFFC8"/>
<path d="M4.8667 44.4676C4.8667 44.4676 6.20264 44.6584 6.67976 44.7538C6.67976 44.3721 6.58433 43.9904 6.39348 43.6087C5.43924 43.5133 4.485 43.1316 3.53076 43.0362C4.00788 43.5133 4.8667 44.4676 4.8667 44.4676Z" fill="#FDD14E"/>
<path d="M136.457 46.9487L136.17 43.6088L141.228 40.7461L143.9 44.9447L136.457 46.9487Z" fill="url(#paint16_linear_19_1131)"/>
<path d="M115.559 58.6858L115.368 56.5864L118.517 54.8688L120.139 57.4453L115.559 58.6858Z" fill="#FF7AD0"/>
<path d="M109.452 42.2729L109.261 40.6507L111.742 39.3148L112.982 41.2232L109.452 42.2729Z" fill="#FDD14E"/>
<path d="M22.711 28.9135L22.8064 27.4821L20.7071 26.2416L19.562 28.0546L22.711 28.9135Z" fill="#2EFFC8"/>
<path d="M6.39334 61.1669L6.58419 58.7813L3.0535 56.7774L1.14502 59.7355L6.39334 61.1669Z" fill="url(#paint17_linear_19_1131)"/>
<path d="M29.963 95.1378L30.7264 94.1836L29.8675 92.2751L28.1499 92.9431L29.963 95.1378Z" fill="#2EB564"/>
<path d="M124.72 40.8415L125.006 40.0781C125.101 39.8873 125.292 39.6965 125.578 39.6965H126.342C126.914 39.6965 127.105 39.0285 126.723 38.6468L126.151 38.1697C125.96 37.9788 125.865 37.788 125.96 37.5017L126.246 36.7383C126.437 36.1658 125.865 35.7841 125.387 36.0703L124.72 36.5475C124.529 36.7383 124.242 36.6429 124.052 36.5475L123.479 36.0703C123.002 35.6886 122.429 36.1658 122.62 36.7383L122.811 37.5017C122.906 37.788 122.811 37.9788 122.62 38.1697L121.952 38.6468C121.475 38.9331 121.761 39.6965 122.239 39.6965H123.002C123.288 39.6965 123.479 39.8873 123.574 40.0781L123.765 40.8415C123.765 41.3187 124.529 41.3187 124.72 40.8415Z" fill="white"/>
<path d="M134.357 150.484C134.357 150.961 133.976 151.343 133.498 151.343L60.0219 163.557C59.5448 163.557 59.1631 163.176 59.1631 162.698V103.249C59.1631 102.772 59.5448 102.39 60.0219 102.39L133.403 93.8022C133.88 93.8022 134.262 94.1839 134.262 94.661V150.484H134.357Z" fill="url(#paint18_linear_19_1131)"/>
<path d="M134.262 114.032C134.358 114.509 134.262 122.811 134.262 122.811L72.2365 134.071C71.8548 134.166 71.4731 133.785 71.3777 133.308L60.1176 103.058C60.0222 102.581 60.3085 102.104 60.6902 102.104L133.308 94.5655C133.69 94.47 133.785 94.6609 134.167 95.3289L134.262 114.032Z" fill="#6C65E6"/>
<path d="M147.812 114.127C148.098 114.604 148.003 114.7 147.144 114.986L73.6676 127.105C73.2859 127.2 73.1905 127.2 72.8088 126.437L60.1174 102.963C60.022 102.581 60.3083 102.199 60.7854 102.104L133.403 93.4203C133.785 93.3249 133.88 93.5157 134.262 94.0883L147.812 114.127Z" fill="url(#paint19_linear_19_1131)"/>
<path d="M14.5046 140.178C14.5046 140.655 14.4092 140.56 15.3634 141.037L59.4493 163.557C59.9265 163.557 60.3082 163.175 60.3082 162.698V103.249C60.3082 102.772 59.9265 102.39 59.4493 102.39L15.4588 85.6908C14.9817 85.6908 14.6 86.0725 14.6 86.5497V140.178H14.5046Z" fill="url(#paint20_linear_19_1131)"/>
<path d="M14.5995 107.352C14.4087 107.829 14.5995 116.895 14.5995 116.895L42.2725 130.158C42.6542 130.349 43.1314 130.063 43.3222 129.586L60.0214 103.058C60.2123 102.581 60.1169 102.199 59.7352 102.008L15.4584 86.2634C15.0767 86.0725 14.9812 86.2634 14.4087 86.8359L14.5995 107.352Z" fill="#6C65E5"/>
<path d="M0.285875 101.531C-0.0958212 101.913 -0.0958212 102.104 0.667572 102.485L43.513 122.906C43.8947 123.097 43.9901 123.097 44.4672 122.525L60.0214 102.867C60.4985 102.295 60.0214 102.104 59.6397 101.913L15.2675 85.1183C14.8858 84.9274 14.7903 85.0229 14.3132 85.5L0.285875 101.531Z" fill="url(#paint21_linear_19_1131)"/>
</g>
<defs>
<linearGradient id="paint0_linear_19_1131" x1="49.2045" y1="81.6294" x2="57.3466" y2="151.386" gradientUnits="userSpaceOnUse">
<stop stop-color="#7674F1"/>
<stop offset="1" stop-color="#0D0B95"/>
</linearGradient>
<linearGradient id="paint1_linear_19_1131" x1="80.6993" y1="175.981" x2="131.886" y2="71.7633" gradientUnits="userSpaceOnUse">
<stop offset="0.2418" stop-color="#AE8EE3"/>
<stop offset="1" stop-color="#2A3DE4"/>
</linearGradient>
<linearGradient id="paint2_linear_19_1131" x1="170.237" y1="85.8263" x2="-18.7116" y2="71.79" gradientUnits="userSpaceOnUse">
<stop stop-color="#0047FF"/>
<stop offset="0.0535178" stop-color="#1758FF" stop-opacity="0.9465"/>
<stop offset="0.2038" stop-color="#5484FF" stop-opacity="0.7962"/>
<stop offset="0.3533" stop-color="#88A9FF" stop-opacity="0.6467"/>
<stop offset="0.4984" stop-color="#B3C8FF" stop-opacity="0.5016"/>
<stop offset="0.6382" stop-color="#D4E0FF" stop-opacity="0.3618"/>
<stop offset="0.7713" stop-color="#ECF1FF" stop-opacity="0.2287"/>
<stop offset="0.895" stop-color="#FAFBFF" stop-opacity="0.105"/>
<stop offset="1" stop-color="white" stop-opacity="0"/>
</linearGradient>
<linearGradient id="paint3_linear_19_1131" x1="98.2192" y1="81.3274" x2="50.3972" y2="77.7748" gradientUnits="userSpaceOnUse">
<stop stop-color="#0047FF" stop-opacity="0"/>
<stop offset="0.0581606" stop-color="#225FFF" stop-opacity="0.0581606"/>
<stop offset="0.1577" stop-color="#5584FF" stop-opacity="0.1577"/>
<stop offset="0.2617" stop-color="#83A5FF" stop-opacity="0.2617"/>
<stop offset="0.3683" stop-color="#A9C1FF" stop-opacity="0.3683"/>
<stop offset="0.478" stop-color="#C8D7FF" stop-opacity="0.478"/>
<stop offset="0.592" stop-color="#E0E9FF" stop-opacity="0.592"/>
<stop offset="0.712" stop-color="#F2F5FF" stop-opacity="0.712"/>
<stop offset="0.8419" stop-color="#FCFDFF" stop-opacity="0.8419"/>
<stop offset="1" stop-color="white"/>
</linearGradient>
<linearGradient id="paint4_linear_19_1131" x1="96.4406" y1="29.0664" x2="78.3507" y2="74.2" gradientUnits="userSpaceOnUse">
<stop offset="0.0587714" stop-color="#B79DFF"/>
<stop offset="0.3212" stop-color="#9789FF"/>
<stop offset="0.8937" stop-color="#4856FF"/>
<stop offset="1" stop-color="#384CFF"/>
</linearGradient>
<linearGradient id="paint5_linear_19_1131" x1="94.5396" y1="42.835" x2="69.5351" y2="58.1271" gradientUnits="userSpaceOnUse">
<stop stop-color="#17057E" stop-opacity="0.89"/>
<stop offset="0.9707" stop-color="#5558D0" stop-opacity="0.029277"/>
<stop offset="1" stop-color="#5558D0" stop-opacity="0"/>
</linearGradient>
<linearGradient id="paint6_linear_19_1131" x1="51.3728" y1="14.8034" x2="64.1636" y2="75.4687" gradientUnits="userSpaceOnUse">
<stop offset="0.0587714" stop-color="#B79DFF"/>
<stop offset="0.3212" stop-color="#9789FF"/>
<stop offset="0.8937" stop-color="#4856FF"/>
<stop offset="1" stop-color="#384CFF"/>
</linearGradient>
<linearGradient id="paint7_linear_19_1131" x1="65.0945" y1="48.7355" x2="44.4993" y2="61.8416" gradientUnits="userSpaceOnUse">
<stop stop-color="#17057E" stop-opacity="0.89"/>
<stop offset="0.9707" stop-color="#5558D0" stop-opacity="0.029277"/>
<stop offset="1" stop-color="#5558D0" stop-opacity="0"/>
</linearGradient>
<linearGradient id="paint8_linear_19_1131" x1="60.6666" y1="26.6175" x2="84.0336" y2="40.0985" gradientUnits="userSpaceOnUse">
<stop stop-color="#FFFCFF"/>
<stop offset="1" stop-color="#5569FF"/>
</linearGradient>
<linearGradient id="paint9_linear_19_1131" x1="74.9207" y1="28.4912" x2="56.8308" y2="55.1694" gradientUnits="userSpaceOnUse">
<stop stop-color="#FFFCFF"/>
<stop offset="1" stop-color="#5569FF"/>
</linearGradient>
<linearGradient id="paint10_linear_19_1131" x1="63.0034" y1="23.0953" x2="76.936" y2="15.2761" gradientUnits="userSpaceOnUse">
<stop stop-color="#8CBDFF"/>
<stop offset="1" stop-color="#83B8FF" stop-opacity="0"/>
</linearGradient>
<linearGradient id="paint11_linear_19_1131" x1="67.3394" y1="16.8013" x2="80.2568" y2="16.8013" gradientUnits="userSpaceOnUse">
<stop offset="0.0587714" stop-color="#B79DFF"/>
<stop offset="0.3212" stop-color="#9789FF"/>
<stop offset="0.8937" stop-color="#4856FF"/>
<stop offset="1" stop-color="#384CFF"/>
</linearGradient>
<linearGradient id="paint12_linear_19_1131" x1="91.5366" y1="52.6498" x2="73.1527" y2="51.2841" gradientUnits="userSpaceOnUse">
<stop stop-color="#5C55FF"/>
<stop offset="1" stop-color="#83B8FF" stop-opacity="0"/>
</linearGradient>
<linearGradient id="paint13_linear_19_1131" x1="71.8196" y1="17.1464" x2="84.2032" y2="17.1464" gradientUnits="userSpaceOnUse">
<stop stop-color="white" stop-opacity="0"/>
<stop offset="1" stop-color="white"/>
</linearGradient>
<linearGradient id="paint14_linear_19_1131" x1="70.6798" y1="62.3636" x2="75.3153" y2="62.3636" gradientUnits="userSpaceOnUse">
<stop stop-color="#FFFCFF"/>
<stop offset="0.1464" stop-color="#D8DAFF"/>
<stop offset="0.3472" stop-color="#AAB2FF"/>
<stop offset="0.5391" stop-color="#8592FF"/>
<stop offset="0.7171" stop-color="#6B7CFF"/>
<stop offset="0.876" stop-color="#5B6EFF"/>
<stop offset="1" stop-color="#5569FF"/>
</linearGradient>
<linearGradient id="paint15_linear_19_1131" x1="133.715" y1="78.7116" x2="140.813" y2="78.7116" gradientUnits="userSpaceOnUse">
<stop offset="0.0587714" stop-color="#FF7F86"/>
<stop offset="0.3194" stop-color="#FF9FA4"/>
<stop offset="0.8877" stop-color="#FFEEEF"/>
<stop offset="1" stop-color="white"/>
</linearGradient>
<linearGradient id="paint16_linear_19_1131" x1="136.144" y1="43.8736" x2="143.903" y2="43.8736" gradientUnits="userSpaceOnUse">
<stop offset="0.0587714" stop-color="#2EFFC8"/>
<stop offset="0.2253" stop-color="#4EFFD0"/>
<stop offset="0.5916" stop-color="#9EFFE6"/>
<stop offset="1" stop-color="white"/>
</linearGradient>
<linearGradient id="paint17_linear_19_1131" x1="1.12517" y1="58.9651" x2="6.58162" y2="58.9651" gradientUnits="userSpaceOnUse">
<stop offset="0.0587714" stop-color="#B79DFF"/>
<stop offset="0.3212" stop-color="#9789FF"/>
<stop offset="0.8937" stop-color="#4856FF"/>
<stop offset="1" stop-color="#384CFF"/>
</linearGradient>
<linearGradient id="paint18_linear_19_1131" x1="93.2477" y1="98.9814" x2="102.063" y2="174.505" gradientUnits="userSpaceOnUse">
<stop stop-color="#A293FF"/>
<stop offset="1" stop-color="#413DFA"/>
</linearGradient>
<linearGradient id="paint19_linear_19_1131" x1="86.7207" y1="67.8103" x2="121.423" y2="149.708" gradientUnits="userSpaceOnUse">
<stop offset="0.1667" stop-color="#B79DFF"/>
<stop offset="0.9479" stop-color="#384CFF"/>
</linearGradient>
<linearGradient id="paint20_linear_19_1131" x1="63.1349" y1="94.5766" x2="-16.637" y2="187.87" gradientUnits="userSpaceOnUse">
<stop offset="0.1042" stop-color="#A793FF"/>
<stop offset="1" stop-color="#5751FB"/>
</linearGradient>
<linearGradient id="paint21_linear_19_1131" x1="36.8713" y1="87.4003" x2="10.0703" y2="146.19" gradientUnits="userSpaceOnUse">
<stop stop-color="#A894FF"/>
<stop offset="1" stop-color="#5961FF"/>
</linearGradient>
<clipPath id="clip0_19_1131">
<rect width="148.003" height="171" fill="white"/>
</clipPath>
</defs>
</svg>
