<svg width="24" height="24" viewBox="0 0 24 24" fill="none" xmlns="http://www.w3.org/2000/svg">
<path d="M9.20992 11.5071C10.0318 11.5071 10.6894 10.8495 10.6894 10.0276C10.6894 9.20569 10.0318 8.54816 9.20992 8.54816C8.388 8.54816 7.73047 9.20569 7.73047 10.0276C7.73047 10.8495 8.388 11.5071 9.20992 11.5071Z" fill="#6941C6"/>
<path d="M22.5245 16.1095C21.7847 15.3697 20.7984 14.9588 19.8121 14.7944L19.7299 14.7944L19.7299 3.04097C19.7299 2.21906 19.4012 1.47933 18.8258 0.903988C18.2505 0.328645 17.5108 -0.00012207 16.6888 -0.00012207L3.045 -0.00012207C2.22308 -0.00012207 1.48336 0.328645 0.908016 0.903988C0.332674 1.47933 0.00390625 2.21906 0.00390625 3.04097L0.00390625 19.8903C0.00390625 20.7122 0.332674 21.4519 0.908016 22.0273C1.48336 22.6026 2.22308 22.9314 3.045 22.9314L16.1957 22.9314C17.0998 23.6711 18.0861 23.9999 19.1546 23.9999C20.3875 23.9999 21.5382 23.5067 22.4423 22.6026C23.3464 21.6985 23.8395 20.5478 23.8395 19.3149C23.8395 18.1643 23.3464 16.9314 22.5245 16.1095ZM0.908016 3.04097C0.908016 2.46563 1.15459 1.97248 1.56555 1.56152C1.97651 1.15056 2.46966 0.903988 3.045 0.903988L16.6066 0.903988C17.182 0.903988 17.6751 1.15056 18.0861 1.56152C18.4971 1.97248 18.7436 2.46563 18.7436 3.04097L18.7436 13.7259L15.2094 10.1917C15.1272 10.1095 14.9628 10.0273 14.8806 10.0273C14.7162 10.0273 14.634 10.1095 14.5519 10.1917L9.29158 15.3697L5.34637 11.8355C5.26418 11.7533 5.0998 11.6711 5.0176 11.6711C4.85322 11.6711 4.77103 11.7533 4.68884 11.8355L0.908016 15.6985L0.908016 3.04097ZM3.045 22.0273L2.88062 21.9451C2.38747 21.9451 1.89432 21.6985 1.48336 21.2875C1.0724 20.8766 0.908016 20.3834 0.908016 19.8081L0.908016 17.0136L5.0176 12.8218L8.96281 16.356C9.045 16.4382 9.12719 16.5204 9.29158 16.5204C9.45596 16.5204 9.53815 16.4382 9.62035 16.356L14.7984 11.178L18.3327 14.7122L17.9217 14.8766C17.8395 14.8766 17.7573 14.9588 17.5929 14.9588L17.5108 14.9588C17.4286 14.9588 17.4286 14.9588 17.3464 15.041C17.2642 15.041 17.2642 15.041 17.182 15.1232L17.0998 15.2054C17.0176 15.2054 17.0176 15.2054 16.9354 15.2875L16.4423 15.6163L16.3601 15.6163C16.1957 15.7807 16.0313 15.8629 15.8669 16.1095C14.9628 17.0136 14.4697 18.1643 14.4697 19.3971C14.4697 19.7259 14.4697 19.9725 14.5519 20.3834L14.634 20.63C14.7162 20.8766 14.7984 21.041 14.8806 21.2875L14.9628 21.3697C15.045 21.5341 15.1272 21.6985 15.2094 21.7807L15.3738 22.0273L3.045 22.0273ZM21.7847 22.0273C21.1272 22.6848 20.1409 23.0958 19.1546 23.0958C18.1683 23.0958 17.2642 22.6848 16.6066 22.0273C16.5245 22.0273 16.5245 21.9451 16.4423 21.9451C16.3601 21.8629 16.3601 21.8629 16.2779 21.7807L16.1957 21.6985L16.1135 21.6163C16.0313 21.5341 15.9491 21.3697 15.8669 21.2054C15.8669 21.1232 15.7847 21.1232 15.7847 21.1232C15.7847 21.041 15.7025 21.041 15.7025 20.9588C15.6203 20.7944 15.6203 20.7122 15.6203 20.5478C15.6203 20.4656 15.6203 20.4656 15.5382 20.3834C15.5382 20.3012 15.5382 20.3012 15.456 20.2191C15.3738 19.9725 15.3738 19.7259 15.3738 19.4793C15.3738 18.493 15.7847 17.5889 16.4423 16.8492C17.0998 16.1917 18.0861 15.7807 19.0724 15.7807C20.0587 15.7807 20.9628 16.1917 21.7025 16.8492C22.3601 17.5067 22.771 18.493 22.771 19.4793C22.8532 20.3834 22.5245 21.2875 21.7847 22.0273Z" fill="#6941C6"/>
<path d="M20.5536 18.9033L19.5673 18.9033L19.5673 17.917C19.5673 17.6705 19.3207 17.4239 19.0742 17.4239C18.8276 17.4239 18.581 17.6705 18.581 17.917L18.581 18.9033L17.5947 18.9033C17.3481 18.9033 17.1016 19.1499 17.1016 19.3965C17.1016 19.6431 17.3481 19.8896 17.5947 19.8896L18.581 19.8896L18.581 20.8759C18.581 21.1225 18.8276 21.3691 19.0742 21.3691C19.3207 21.3691 19.5673 21.1225 19.5673 20.8759L19.5673 19.8896L20.5536 19.8896C20.8002 19.8896 21.0468 19.6431 21.0468 19.3965C21.0468 19.1499 20.8824 18.9033 20.5536 18.9033Z" fill="#6941C6"/>
</svg>
