<svg width="29" height="30" viewBox="0 0 29 30" fill="none" xmlns="http://www.w3.org/2000/svg">
<path d="M11.1999 14C12.1999 14 12.9999 13.2 12.9999 12.2C12.9999 11.2 12.1999 10.4 11.1999 10.4C10.1999 10.4 9.3999 11.2 9.3999 12.2C9.3999 13.2 10.1999 14 11.1999 14Z" fill="#5E2EFF"/>
<path d="M27.4 19.6C26.5 18.7 25.3 18.2 24.1 18H24V3.7C24 2.7 23.6 1.8 22.9 1.1C22.2 0.4 21.3 0 20.3 0H3.7C2.7 0 1.8 0.4 1.1 1.1C0.4 1.8 0 2.7 0 3.7V24.2C0 25.2 0.4 26.1 1.1 26.8C1.8 27.5 2.7 27.9 3.7 27.9H19.7C20.8 28.8 22 29.2 23.3 29.2C24.8 29.2 26.2 28.6 27.3 27.5C28.4 26.4 29 25 29 23.5C29 22.1 28.4 20.6 27.4 19.6ZM1.1 3.7C1.1 3 1.4 2.4 1.9 1.9C2.4 1.4 3 1.1 3.7 1.1H20.2C20.9 1.1 21.5 1.4 22 1.9C22.5 2.4 22.8 3 22.8 3.7V16.7L18.5 12.4C18.4 12.3 18.2 12.2 18.1 12.2C17.9 12.2 17.8 12.3 17.7 12.4L11.3 18.7L6.5 14.4C6.4 14.3 6.2 14.2 6.1 14.2C5.9 14.2 5.8 14.3 5.7 14.4L1.1 19.1V3.7ZM3.7 26.8L3.5 26.7C2.9 26.7 2.3 26.4 1.8 25.9C1.3 25.4 1.1 24.8 1.1 24.1V20.7L6.1 15.6L10.9 19.9C11 20 11.1 20.1 11.3 20.1C11.5 20.1 11.6 20 11.7 19.9L18 13.6L22.3 17.9L21.8 18.1C21.7 18.1 21.6 18.2 21.4 18.2H21.3C21.2 18.2 21.2 18.2 21.1 18.3C21 18.3 21 18.3 20.9 18.4L20.8 18.5C20.7 18.5 20.7 18.5 20.6 18.6L20 19H19.9C19.7 19.2 19.5 19.3 19.3 19.6C18.2 20.7 17.6 22.1 17.6 23.6C17.6 24 17.6 24.3 17.7 24.8L17.8 25.1C17.9 25.4 18 25.6 18.1 25.9L18.2 26C18.3 26.2 18.4 26.4 18.5 26.5L18.7 26.8H3.7ZM26.5 26.8C25.7 27.6 24.5 28.1 23.3 28.1C22.1 28.1 21 27.6 20.2 26.8C20.1 26.8 20.1 26.7 20 26.7C19.9 26.6 19.9 26.6 19.8 26.5L19.7 26.4L19.6 26.3C19.5 26.2 19.4 26 19.3 25.8C19.3 25.7 19.2 25.7 19.2 25.7C19.2 25.6 19.1 25.6 19.1 25.5C19 25.3 19 25.2 19 25C19 24.9 19 24.9 18.9 24.8C18.9 24.7 18.9 24.7 18.8 24.6C18.7 24.3 18.7 24 18.7 23.7C18.7 22.5 19.2 21.4 20 20.5C20.8 19.7 22 19.2 23.2 19.2C24.4 19.2 25.5 19.7 26.4 20.5C27.2 21.3 27.7 22.5 27.7 23.7C27.8 24.8 27.4 25.9 26.5 26.8Z" fill="#5E2EFF"/>
<path d="M24.9998 23H23.7998V21.8C23.7998 21.5 23.4998 21.2 23.1998 21.2C22.8998 21.2 22.5998 21.5 22.5998 21.8V23H21.3998C21.0998 23 20.7998 23.3 20.7998 23.6C20.7998 23.9 21.0998 24.2 21.3998 24.2H22.5998V25.4C22.5998 25.7 22.8998 26 23.1998 26C23.4998 26 23.7998 25.7 23.7998 25.4V24.2H24.9998C25.2998 24.2 25.5998 23.9 25.5998 23.6C25.5998 23.3 25.3998 23 24.9998 23Z" fill="#5E2EFF"/>
</svg>
