<svg width="28" height="24" viewBox="0 0 28 24" fill="none" xmlns="http://www.w3.org/2000/svg">
<path d="M25.4167 -0.000122069L1.91667 -0.00012207C0.833333 -0.00012207 0 0.916544 0 1.91654L-9.33636e-10 22.0832C-9.79437e-10 23.1665 0.916666 23.9999 1.91667 23.9999L25.3333 23.9999C26.4167 23.9999 27.25 23.0832 27.25 22.0832L27.25 1.91654C27.3333 0.833211 26.4167 -0.000122069 25.4167 -0.000122069ZM26.1667 22.0832C26.1667 22.5832 25.75 22.9165 25.3333 22.9165L1.91667 22.9165C1.41667 22.9165 1.08333 22.4999 1.08333 22.0832L1.08333 1.91654C1.08333 1.41654 1.5 1.08321 1.91667 1.08321L25.3333 1.08321C25.8333 1.08321 26.1667 1.49988 26.1667 1.91654L26.1667 22.0832Z" fill="#6941C6"/>
<path d="M16.082 12.4999L11.082 12.4999C10.832 12.4999 10.582 12.6665 10.582 12.9999L10.582 18.1665C10.6654 18.4999 10.832 18.6665 11.082 18.6665L16.082 18.6665C16.332 18.6665 16.582 18.4999 16.582 18.1665L16.582 12.9999C16.582 12.7499 16.4987 12.4999 16.082 12.4999ZM15.6654 17.8332L11.582 17.8332L11.582 13.5832L15.6654 13.5832L15.6654 17.8332Z" fill="#6941C6"/>
<path d="M8.41536 12.4999L3.83203 12.4999C3.58203 12.4999 3.33203 12.6665 3.33203 12.9999L3.33203 18.1665C3.33203 18.4999 3.4987 18.6665 3.83203 18.6665L8.41536 18.6665C8.66536 18.6665 8.91536 18.4999 8.91536 18.1665L8.91536 12.9999C8.9987 12.7499 8.83203 12.4999 8.41536 12.4999ZM7.9987 17.8332L4.33203 17.8332L4.33203 13.5832L7.9987 13.5832L7.9987 17.8332Z" fill="#6941C6"/>
<path d="M23.418 12.4999L18.418 12.4999C18.168 12.4999 17.918 12.6665 17.918 12.9999L17.918 18.1665C17.918 18.4999 18.168 18.6665 18.418 18.6665L23.418 18.6665C23.668 18.6665 23.918 18.4999 23.918 18.1665L23.918 12.9999C24.0013 12.7499 23.8346 12.4999 23.418 12.4999ZM23.0013 17.8332L18.918 17.8332L18.918 13.5832L23.0013 13.5832L23.0013 17.8332Z" fill="#6941C6"/>
<path d="M23.418 4.99988L18.418 4.99988C18.168 4.99988 17.918 5.16654 17.918 5.49988L17.918 10.6665C17.918 10.9165 18.168 11.1665 18.418 11.1665L23.418 11.1665C23.668 11.1665 23.918 10.9999 23.918 10.6665L23.918 5.49988C24.0013 5.24988 23.8346 4.99988 23.418 4.99988ZM23.0013 10.2499L18.918 10.2499L18.918 5.99988L23.0013 5.99988L23.0013 10.2499Z" fill="#6941C6"/>
<path d="M8.41536 4.99988L3.83203 4.99988C3.58203 4.99988 3.33203 5.16654 3.33203 5.49988L3.33203 10.6665C3.33203 10.9165 3.4987 11.1665 3.83203 11.1665L8.41536 11.1665C8.66536 11.1665 8.91536 10.9999 8.91536 10.6665L8.91536 5.49988C8.9987 5.24988 8.83203 4.99988 8.41536 4.99988ZM7.9987 10.2499L4.33203 10.2499L4.33203 5.99988L7.9987 5.99988L7.9987 10.2499Z" fill="#6941C6"/>
<path d="M15 4.91687L12.3333 4.91687C11.3333 4.91687 10.5 5.7502 10.5 6.7502L10.5 9.41687C10.5 10.4169 11.3333 11.2502 12.3333 11.2502L15 11.2502C16 11.2502 16.8333 10.4169 16.8333 9.41687L16.8333 6.7502C16.75 5.7502 16 4.91687 15 4.91687ZM11.3333 6.7502C11.3333 6.2502 11.75 5.83354 12.25 5.83354L14.9167 5.83354C15.4167 5.83354 15.8333 6.2502 15.8333 6.7502L15.8333 9.41687C15.8333 9.91687 15.4167 10.3335 14.9167 10.3335L12.25 10.3335C11.75 10.3335 11.3333 9.91687 11.3333 9.41687L11.3333 6.7502Z" fill="#6941C6"/>
<path d="M13.582 9.33258C14.2487 9.33258 14.832 8.74925 14.832 8.08258C14.832 7.41591 14.2487 6.83258 13.582 6.83258C12.9154 6.83258 12.332 7.41591 12.332 8.08258C12.4154 8.74925 12.9154 9.33258 13.582 9.33258ZM13.582 7.41591C13.9154 7.41591 14.2487 7.74925 14.2487 8.08258C14.2487 8.41591 13.9154 8.74925 13.582 8.74925C13.2487 8.74925 12.9154 8.41591 12.9154 8.08258C12.9154 7.74925 13.2487 7.41591 13.582 7.41591Z" fill="#6941C6"/>
<path d="M15.1641 6.99921C15.2474 6.99921 15.4141 6.91587 15.4974 6.83254C15.5807 6.74921 15.6641 6.66587 15.6641 6.49921C15.6641 6.41587 15.5807 6.24921 15.4974 6.16587C15.4141 6.08254 15.3307 5.99921 15.1641 5.99921C14.9974 5.99921 14.9141 6.08254 14.8307 6.16587C14.7474 6.24921 14.6641 6.33254 14.6641 6.49921C14.6641 6.58254 14.7474 6.74921 14.8307 6.83254C14.9141 6.99921 14.9974 6.99921 15.1641 6.99921Z" fill="#6941C6"/>
</svg>
