<svg width="33" height="29" viewBox="0 0 33 29" fill="none" xmlns="http://www.w3.org/2000/svg">
<path d="M30.5 0H2.3C0.999999 0 0 1.1 0 2.3V26.5C0 27.8 1.1 28.8 2.3 28.8H30.4C31.7 28.8 32.7 27.7 32.7 26.5V2.3C32.8 0.999999 31.7 0 30.5 0ZM31.4 26.5C31.4 27.1 30.9 27.5 30.4 27.5H2.3C1.7 27.5 1.3 27 1.3 26.5V2.3C1.3 1.7 1.8 1.3 2.3 1.3H30.4C31 1.3 31.4 1.8 31.4 2.3V26.5Z" fill="#5E2EFF"/>
<path d="M19.3012 15H13.3012C13.0012 15 12.7012 15.2 12.7012 15.6V21.8C12.8012 22.2 13.0012 22.4 13.3012 22.4H19.3012C19.6012 22.4 19.9012 22.2 19.9012 21.8V15.6C19.9012 15.3 19.8012 15 19.3012 15ZM18.8012 21.4H13.9012V16.3H18.8012V21.4Z" fill="#5E2EFF"/>
<path d="M10.1 15H4.6C4.3 15 4 15.2 4 15.6V21.8C4 22.2 4.2 22.4 4.6 22.4H10.1C10.4 22.4 10.7 22.2 10.7 21.8V15.6C10.8 15.3 10.6 15 10.1 15ZM9.6 21.4H5.2V16.3H9.6V21.4Z" fill="#5E2EFF"/>
<path d="M28.1 15H22.1C21.8 15 21.5 15.2 21.5 15.6V21.8C21.5 22.2 21.8 22.4 22.1 22.4H28.1C28.4 22.4 28.7 22.2 28.7 21.8V15.6C28.8 15.3 28.6 15 28.1 15ZM27.6 21.4H22.7V16.3H27.6V21.4Z" fill="#5E2EFF"/>
<path d="M28.1 6H22.1C21.8 6 21.5 6.2 21.5 6.6V12.8C21.5 13.1 21.8 13.4 22.1 13.4H28.1C28.4 13.4 28.7 13.2 28.7 12.8V6.6C28.8 6.3 28.6 6 28.1 6ZM27.6 12.3H22.7V7.2H27.6V12.3Z" fill="#5E2EFF"/>
<path d="M10.1 6H4.6C4.3 6 4 6.2 4 6.6V12.8C4 13.1 4.2 13.4 4.6 13.4H10.1C10.4 13.4 10.7 13.2 10.7 12.8V6.6C10.8 6.3 10.6 6 10.1 6ZM9.6 12.3H5.2V7.2H9.6V12.3Z" fill="#5E2EFF"/>
<path d="M17.9996 5.8999H14.7996C13.5996 5.8999 12.5996 6.8999 12.5996 8.0999V11.2999C12.5996 12.4999 13.5996 13.4999 14.7996 13.4999H17.9996C19.1996 13.4999 20.1996 12.4999 20.1996 11.2999V8.0999C20.0996 6.8999 19.1996 5.8999 17.9996 5.8999ZM13.5996 8.0999C13.5996 7.4999 14.0996 6.9999 14.6996 6.9999H17.8996C18.4996 6.9999 18.9996 7.4999 18.9996 8.0999V11.2999C18.9996 11.8999 18.4996 12.3999 17.8996 12.3999H14.6996C14.0996 12.3999 13.5996 11.8999 13.5996 11.2999V8.0999Z" fill="#5E2EFF"/>
<path d="M16.3008 11.1997C17.1008 11.1997 17.8008 10.4997 17.8008 9.69971C17.8008 8.89971 17.1008 8.19971 16.3008 8.19971C15.5008 8.19971 14.8008 8.89971 14.8008 9.69971C14.9008 10.4997 15.5008 11.1997 16.3008 11.1997ZM16.3008 8.89971C16.7008 8.89971 17.1008 9.29971 17.1008 9.69971C17.1008 10.0997 16.7008 10.4997 16.3008 10.4997C15.9008 10.4997 15.5008 10.0997 15.5008 9.69971C15.5008 9.29971 15.9008 8.89971 16.3008 8.89971Z" fill="#5E2EFF"/>
<path d="M18.1996 8.39971C18.2996 8.39971 18.4996 8.29971 18.5996 8.19971C18.6996 8.09971 18.7996 7.99971 18.7996 7.79971C18.7996 7.69971 18.6996 7.49971 18.5996 7.39971C18.4996 7.29971 18.3996 7.19971 18.1996 7.19971C17.9996 7.19971 17.8996 7.29971 17.7996 7.39971C17.6996 7.49971 17.5996 7.59971 17.5996 7.79971C17.5996 7.89971 17.6996 8.09971 17.7996 8.19971C17.8996 8.39971 17.9996 8.39971 18.1996 8.39971Z" fill="#5E2EFF"/>
</svg>
