<svg width="27" height="24" viewBox="0 0 27 24" fill="none" xmlns="http://www.w3.org/2000/svg">
<path d="M16.2595 23.9999C14.4192 23.9999 12.6557 23.8465 10.8921 23.4631C10.6621 23.3865 10.5087 23.2331 10.5087 22.9264L10.5087 16.7155L7.28825 15.7954C7.05822 15.7954 6.90486 15.5654 6.90486 15.3353C6.90486 15.1053 7.05822 14.8753 7.28825 14.7986L16.1061 12.1916C16.1828 12.1916 16.1828 12.1916 16.2595 12.1916C16.3362 12.1916 16.3362 12.1916 16.4129 12.1916L25.3074 14.7986C25.3841 14.7986 25.3841 14.7986 25.4608 14.8753C25.6141 14.952 25.6908 15.1053 25.6908 15.3353L25.6908 18.4791L26.0742 19.3992C26.1509 19.5526 26.1509 19.7059 26.0742 19.7826C25.9975 19.936 25.9208 20.0127 25.7675 20.0893C25.6908 20.0893 25.6141 20.166 25.5375 20.166C25.3841 20.166 24.8474 20.166 24.694 20.166C24.6173 20.166 24.5406 20.166 24.464 20.0893C24.2339 20.0127 24.0806 19.7059 24.1573 19.3992L24.5406 18.4791L24.5406 15.9488L16.3362 18.4024C16.2595 18.4024 16.2595 18.4024 16.1828 18.4024C16.1061 18.4024 16.1061 18.4024 16.0295 18.4024L11.4288 17.0222L11.4288 22.4663L11.5055 22.4663C13.039 22.773 14.5726 22.8497 16.1828 22.8497C17.793 22.8497 19.3266 22.6964 20.8601 22.4663L20.9368 22.4663L20.9368 18.9392C20.9368 18.6325 21.1668 18.4024 21.4736 18.4024C21.7803 18.4024 22.0103 18.6325 22.0103 18.9392L22.0103 22.9264C22.0103 23.1564 21.8569 23.3865 21.6269 23.4631C19.94 23.8465 18.0998 23.9999 16.2595 23.9999ZM9.28186 15.3353L16.2595 17.4056L23.3138 15.3353L16.2595 13.2651L9.28186 15.3353ZM8.51509 20.6261C8.43841 20.6261 8.43841 20.6261 8.36173 20.6261L0.387293 18.0957C0.157261 18.019 0.00390625 17.789 0.00390625 17.559L0.00390625 0.53662C0.00390625 0.383265 0.080583 0.22991 0.233938 0.0765555C0.310615 -0.000121779 0.463971 -0.00012207 0.540648 -0.00012207C0.617325 -0.00012207 0.617324 -0.00012207 0.694002 -0.00012207L11.1221 3.22033L21.3969 -0.000122069C21.4736 -0.000122069 21.4736 -0.000122069 21.5502 -0.000122069C21.6269 -0.000122069 21.7803 -0.000121778 21.8569 0.0765555C22.0103 0.153233 22.087 0.306588 22.087 0.53662L22.087 11.4248C22.087 11.7315 21.8569 11.9615 21.5502 11.9615C21.2435 11.9615 21.0135 11.7315 21.0135 11.4248L21.0135 1.30339L11.5822 4.29381L11.5822 11.1948C11.5822 11.5015 11.3521 11.7315 11.0454 11.7315C10.7387 11.7315 10.5087 11.5015 10.5087 11.1948L10.5087 4.21713L1.07739 1.22672L1.07739 17.2523L8.66844 19.6293C8.97515 19.7059 9.12851 20.0127 8.97515 20.3194C8.89847 20.4727 8.74512 20.6261 8.51509 20.6261ZM5.7547 12.575C5.67803 12.575 5.67803 12.575 5.60135 12.575L3.91445 12.0382C3.76109 11.9615 3.68442 11.8849 3.60774 11.8082C3.53106 11.6548 3.53106 11.5782 3.60774 11.4248C3.68442 11.1948 3.91445 11.0414 4.14448 11.0414C4.22116 11.0414 4.22116 11.0414 4.29784 11.0414L5.98474 11.5782C6.29145 11.6548 6.4448 11.9615 6.29145 12.2683C6.21477 12.4216 5.98474 12.575 5.7547 12.575ZM14.6493 10.0446C14.4192 10.0446 14.1892 9.89125 14.1125 9.66122C14.0359 9.50787 14.1125 9.35451 14.1125 9.27783C14.1892 9.12448 14.2659 9.0478 14.4192 9.0478L17.793 7.97432C17.8697 7.97432 17.8697 7.97432 17.9464 7.97432C18.1764 7.97432 18.4065 8.12767 18.4831 8.35771C18.5598 8.66441 18.4065 8.89445 18.1764 9.0478L14.8026 10.1213C14.7259 10.0446 14.6493 10.0446 14.6493 10.0446ZM7.44161 10.0446C7.36493 10.0446 7.36493 10.0446 7.28825 10.0446L3.91445 8.97112C3.60774 8.89445 3.45439 8.58774 3.60774 8.28103C3.68442 8.051 3.91445 7.89764 4.14448 7.89764C4.22116 7.89764 4.22116 7.89764 4.29784 7.89764L7.67164 8.97112C7.82499 9.0478 7.90167 9.12448 7.97835 9.20116C8.05502 9.35451 8.05502 9.43119 7.97835 9.58454C7.90167 9.89125 7.67164 10.0446 7.44161 10.0446ZM14.6493 7.20755C14.4192 7.20755 14.1892 7.05419 14.1125 6.82416C14.0359 6.51745 14.1892 6.28742 14.4192 6.13406L17.793 5.06058C17.8697 5.06058 17.8697 5.06058 17.9464 5.06058C18.1764 5.06058 18.4065 5.21394 18.4831 5.44397C18.5598 5.59732 18.4831 5.75068 18.4831 5.82735C18.4065 5.98071 18.3298 6.05739 18.1764 6.05739L14.8026 7.13087C14.7259 7.20755 14.6493 7.20755 14.6493 7.20755ZM7.44161 7.20755C7.36493 7.20755 7.36493 7.20755 7.28825 7.20755L3.91445 6.13406C3.76109 6.05739 3.68442 5.98071 3.60774 5.90403C3.53106 5.75068 3.53106 5.674 3.60774 5.52065C3.68442 5.29061 3.91445 5.13726 4.14448 5.13726C4.22116 5.13726 4.22116 5.13726 4.29784 5.13726L7.67164 6.21074C7.97835 6.28742 8.1317 6.59413 7.97835 6.90084C7.90167 7.05419 7.67164 7.20755 7.44161 7.20755Z" fill="#6941C6"/>
</svg>
