<svg width="25" height="12" viewBox="0 0 25 12" fill="none" xmlns="http://www.w3.org/2000/svg">
<path d="M0.284047 6.68501C0.284337 6.6853 0.28458 6.68564 0.284918 6.68593L5.34157 11.7182C5.72039 12.0952 6.33311 12.0938 6.7102 11.7149C7.08723 11.3361 7.08578 10.7234 6.70695 10.3463L3.31192 6.96774L23.8067 6.96774C24.3412 6.96774 24.7744 6.53448 24.7744 6C24.7744 5.46552 24.3412 5.03226 23.8067 5.03226L3.31197 5.03226L6.70691 1.65367C7.08573 1.27664 7.08718 0.663915 6.71015 0.285092C6.33307 -0.0938277 5.72029 -0.0951338 5.34152 0.281802L0.28487 5.31406C0.284579 5.31435 0.284337 5.31469 0.283998 5.31498C-0.0950179 5.69327 -0.0938079 6.30798 0.284047 6.68501Z" fill="#7564A2"/>
</svg>
