<svg width="23" height="24" viewBox="0 0 23 24" fill="none" xmlns="http://www.w3.org/2000/svg">
<path d="M22.3794 -0.000122069L11.4984 -0.00012207L0.540193 -0.00012207C0.231512 -0.00012207 0 0.231388 0 0.54007L-9.91831e-10 23.4597C-1.00488e-09 23.7684 0.231512 23.9999 0.540193 23.9999L11.4212 23.9999L22.3022 23.9999C22.6109 23.9999 22.8424 23.7684 22.8424 23.4597L22.8424 0.54007C22.9196 0.231388 22.6881 -0.000122069 22.3794 -0.000122069ZM21.8392 22.9195L10.9582 22.9195L7.40836 22.9195L1.15756 22.9195L1.15756 1.08026L12.0386 1.08026L14.045 1.08026L21.8392 1.08026L21.8392 22.9195Z" fill="#6941C6"/>
<path d="M8.25514 10.9579L3.93359 10.9579L3.93359 12.4241L8.25514 12.4241L8.25514 10.9579Z" fill="#6941C6"/>
<path d="M6.71034 11.4216L5.39844 11.4216L5.39844 11.8847L6.71034 11.8847L6.71034 11.4216Z" fill="#6941C6"/>
<path d="M19.0622 7.94861L10.0332 7.94861C9.95608 7.94861 9.87891 8.02578 9.87891 8.10295L9.87891 15.2026C9.87891 15.2798 9.95608 15.357 10.0332 15.357L19.0622 15.357C19.1394 15.357 19.2165 15.2798 19.2165 15.2026L19.2165 8.10295C19.2165 8.02578 19.1394 7.94861 19.0622 7.94861ZM18.3677 14.1994L16.3612 12.1158L16.2841 12.1158L14.895 13.3505L13.1201 11.1126C13.1201 11.1126 13.1201 11.1126 13.0429 11.1126C13.0429 11.1126 13.0429 11.1126 12.9657 11.1126L10.805 13.9679L10.805 8.87465L18.3677 8.87465L18.3677 14.1994Z" fill="#6941C6"/>
<path d="M16.1282 11.0359C16.5141 11.0359 16.8228 10.7272 16.8228 10.3414C16.8228 9.95553 16.5141 9.64685 16.1282 9.64685C15.7424 9.64685 15.4337 9.95553 15.4337 10.3414C15.3565 10.6501 15.6652 11.0359 16.1282 11.0359Z" fill="#6941C6"/>
</svg>
