<svg width="28" height="29" viewBox="0 0 28 29" fill="none" xmlns="http://www.w3.org/2000/svg">
<path d="M26.6303 0H13.8904H1.06021C0.698796 0 0.427734 0.27106 0.427734 0.632475V27.4675C0.427734 27.8289 0.698796 28.1 1.06021 28.1H13.8001H26.54C26.9014 28.1 27.1724 27.8289 27.1724 27.4675V0.632475C27.2628 0.27106 26.9917 0 26.6303 0ZM25.9978 26.835H13.258H9.10169H1.78304V1.26495H14.5229H16.8721H25.9978V26.835Z" fill="#5E2EFF"/>
<path d="M10.0955 12.8304H5.03564V14.5471H10.0955V12.8304Z" fill="#5E2EFF"/>
<path d="M8.28797 13.3725H6.75195V13.9146H8.28797V13.3725Z" fill="#5E2EFF"/>
<path d="M22.7457 9.30624H12.1744C12.084 9.30624 11.9937 9.3966 11.9937 9.48695V17.7995C11.9937 17.8898 12.084 17.9802 12.1744 17.9802H22.7457C22.8361 17.9802 22.9264 17.8898 22.9264 17.7995V9.48695C22.9264 9.3966 22.8361 9.30624 22.7457 9.30624ZM21.9326 16.6249L19.5834 14.1853H19.493L17.8666 15.631L15.7885 13.0107C15.7885 13.0107 15.7885 13.0107 15.6982 13.0107C15.6982 13.0107 15.6982 13.0107 15.6078 13.0107L13.0779 16.3538V10.3905H21.9326V16.6249Z" fill="#5E2EFF"/>
<path d="M19.3133 12.9207C19.7651 12.9207 20.1265 12.5593 20.1265 12.1075C20.1265 11.6557 19.7651 11.2943 19.3133 11.2943C18.8616 11.2943 18.5002 11.6557 18.5002 12.1075C18.4098 12.4689 18.7712 12.9207 19.3133 12.9207Z" fill="#5E2EFF"/>
</svg>
