<svg width="31" height="24" viewBox="0 0 31 24" fill="none" xmlns="http://www.w3.org/2000/svg">
<path d="M4.90526 12.9296L2.87709 12.9296C2.70808 12.9296 2.53906 13.0986 2.53906 13.2676C2.53906 13.4366 2.70808 13.6056 2.87709 13.6056L4.90526 13.6056C5.07427 13.6056 5.24329 13.4366 5.24329 13.2676C5.24329 13.0986 5.15878 12.9296 4.90526 12.9296Z" fill="#6941C6"/>
<path d="M6.25743 11.2394L1.60954 11.2394C0.764469 11.2394 0.00390625 11.9999 0.00390625 12.845L0.00390625 13.8591C0.00390625 14.7042 0.764469 15.4647 1.60954 15.4647L1.86306 15.4647L4.65179 15.4647L6.25743 15.4647C7.1025 15.4647 7.86306 14.7042 7.86306 13.8591L7.86306 12.845C7.86306 11.9154 7.1025 11.2394 6.25743 11.2394ZM7.1025 13.7746C7.1025 14.1971 6.76447 14.6197 6.25743 14.6197L1.60954 14.6197C1.187 14.6197 0.764469 14.2816 0.764469 13.7746L0.764469 12.7605C0.764469 12.338 1.1025 11.9154 1.60954 11.9154L2.62362 11.9154L6.34193 11.9154C6.76447 11.9154 7.187 12.2535 7.187 12.7605L7.187 13.7746L7.1025 13.7746Z" fill="#6941C6"/>
<path d="M13.8623 12.9297L11.8341 12.9297C11.6651 12.9297 11.4961 13.0987 11.4961 13.2677C11.4961 13.4367 11.6651 13.6057 11.8341 13.6057L13.8623 13.6057C14.0313 13.6057 14.2003 13.4367 14.2003 13.2677C14.2003 13.0987 14.1158 12.9297 13.8623 12.9297Z" fill="#6941C6"/>
<path d="M15.2145 11.2395L10.5666 11.2395C9.7215 11.2395 8.96094 12.0001 8.96094 12.8451L8.96094 13.8592C8.96094 14.7043 9.7215 15.4649 10.5666 15.4649L10.8201 15.4649L13.6088 15.4649L15.2145 15.4649C16.0595 15.4649 16.8201 14.7043 16.8201 13.8592L16.8201 12.8451C16.8201 11.9156 16.0595 11.2395 15.2145 11.2395ZM16.0595 13.7747C16.0595 14.1972 15.7215 14.6198 15.2145 14.6198L10.5666 14.6198C10.144 14.6198 9.7215 14.2818 9.7215 13.7747L9.7215 12.7606C9.7215 12.3381 10.0595 11.9156 10.5666 11.9156L11.5807 11.9156L15.299 11.9156C15.7215 11.9156 16.144 12.2536 16.144 12.7606L16.144 13.7747L16.0595 13.7747Z" fill="#6941C6"/>
<path d="M22.9053 12.9297L20.8771 12.9297C20.7081 12.9297 20.5391 13.0987 20.5391 13.2677C20.5391 13.4367 20.7081 13.6057 20.8771 13.6057L22.9053 13.6057C23.0743 13.6057 23.2433 13.4367 23.2433 13.2677C23.2433 13.0987 23.0743 12.9297 22.9053 12.9297Z" fill="#6941C6"/>
<path d="M24.1715 11.2395L19.5236 11.2395C18.6785 11.2395 17.918 12.0001 17.918 12.8451L17.918 13.8592C17.918 14.7043 18.6785 15.4649 19.5236 15.4649L19.7771 15.4649L22.5659 15.4649L24.1715 15.4649C25.0166 15.4649 25.7771 14.7043 25.7771 13.8592L25.7771 12.8451C25.7771 11.9156 25.1011 11.2395 24.1715 11.2395ZM25.0166 13.7747C25.0166 14.1972 24.6785 14.6198 24.1715 14.6198L19.5236 14.6198C19.1011 14.6198 18.6785 14.2818 18.6785 13.7747L18.6785 12.7606C18.6785 12.3381 19.0166 11.9156 19.5236 11.9156L20.5377 11.9156L24.256 11.9156C24.6785 11.9156 25.1011 12.2536 25.1011 12.7606C25.0166 12.8451 25.0166 13.7747 25.0166 13.7747Z" fill="#6941C6"/>
<path d="M28.2283 1.03968e-09L5.8339 0C4.5663 0 3.63672 1.01408 3.63672 2.19718L3.63672 9.80282C3.63672 9.97183 3.72123 10.0563 3.89024 10.0563L4.31278 10.0563C4.48179 10.0563 4.5663 9.97183 4.5663 9.80282L4.5663 2.19718C4.5663 1.43662 5.15785 0.84507 5.91841 0.84507L28.2283 0.84507C28.9888 0.84507 29.5804 1.43662 29.5804 2.19718L29.5804 21.8028C29.5804 22.5634 28.9888 23.1549 28.2283 23.1549L5.8339 23.1549C5.07334 23.1549 4.48179 22.5634 4.48179 21.8028L4.48179 17.0704C4.48179 16.8169 4.31278 16.6479 4.05925 16.6479C3.80573 16.6479 3.63672 16.8169 3.63672 17.0704L3.63672 21.8028C3.63672 23.0704 4.6508 24 5.8339 24L28.1438 24C29.4114 24 30.3409 22.9859 30.3409 21.8028L30.3409 2.28169C30.4254 1.01409 29.4959 1.09327e-09 28.2283 1.03968e-09Z" fill="#6941C6"/>
<path d="M5.49609 1.85913L6.42567 1.85913L6.42567 2.78871L5.49609 2.78871L5.49609 1.85913Z" fill="#6941C6"/>
<path d="M7.27344 1.85913L8.20301 1.85913L8.20301 2.78871L7.27344 2.78871L7.27344 1.85913Z" fill="#6941C6"/>
<path d="M9.04688 1.85913L9.97645 1.85913L9.97645 2.78871L9.04687 2.78871L9.04688 1.85913Z" fill="#6941C6"/>
<path d="M5.49609 3.63379L28.651 3.63379L28.651 4.56337L5.49609 4.56337L5.49609 3.63379Z" fill="#6941C6"/>
<path d="M28.3129 13.0986L27.4678 12.2536C27.3833 12.1691 27.2988 12.1691 27.2988 12.1691L27.1298 12.2536C27.0453 12.3381 27.0453 12.5071 27.1298 12.5916L27.8058 13.2677L27.1298 13.9437C27.0453 14.0282 27.0453 14.1972 27.1298 14.2817C27.2143 14.3663 27.2988 14.3662 27.2988 14.3662L27.4678 14.2817L28.3129 13.4367C28.3974 13.3522 28.3974 13.2677 28.3974 13.2677C28.3129 13.2677 28.3129 13.1832 28.3129 13.0986Z" fill="#6941C6"/>
</svg>
