<svg width="24" height="24" viewBox="0 0 24 24" fill="none" xmlns="http://www.w3.org/2000/svg">
<path d="M23.4637 -0.000122069L0.466928 -0.00012207C0.235416 -0.00012207 0.00390625 0.231388 0.00390625 0.462899L0.00390625 23.5369C0.00390625 23.7684 0.235416 23.9999 0.466928 23.9999L23.5409 23.9999C23.7724 23.9999 24.0039 23.7684 24.0039 23.5369L24.0039 0.54007C24.0039 0.231388 23.7724 -0.000122069 23.4637 -0.000122069ZM23.0779 23.0738L23.0007 23.0738L0.92995 23.0738L0.92995 4.16708L23.0779 4.16708L23.0779 23.0738ZM23.0779 3.24103L23.0007 3.24103L0.92995 3.24103L0.92995 1.00309L23.0779 1.00309L23.0779 3.24103Z" fill="#6941C6"/>
<path d="M2.47292 1.62109L1.54688 1.62109L1.54687 2.54714L2.47292 2.54714L2.47292 1.62109Z" fill="#6941C6"/>
<path d="M4.09401 1.62109L3.16797 1.62109L3.16797 2.54714L4.09401 2.54714L4.09401 1.62109Z" fill="#6941C6"/>
<path d="M5.63698 1.62109L4.71094 1.62109L4.71094 2.54714L5.63698 2.54714L5.63698 1.62109Z" fill="#6941C6"/>
<path d="M4.59584 9.41525L19.4126 9.41525C19.6441 9.41525 19.8756 9.18374 19.8756 8.95223L19.8756 6.55995C19.8756 6.32844 19.6441 6.09692 19.4126 6.09692L4.59584 6.09692C4.36432 6.09692 4.13281 6.32844 4.13281 6.55995L4.13281 8.95223C4.13281 9.18374 4.28715 9.41525 4.59584 9.41525ZM5.05886 7.02297L18.8724 7.02297L18.8724 8.48921L5.05886 8.48921L5.05886 7.02297Z" fill="#6941C6"/>
<path d="M4.59584 17.71L19.4126 17.71C19.6441 17.71 19.8756 17.4784 19.8756 17.2469L19.8756 11.7678C19.8756 11.5363 19.6441 11.3048 19.4126 11.3048L4.59584 11.3048C4.36432 11.3048 4.13281 11.5363 4.13281 11.7678L4.13281 17.2469C4.13281 17.4784 4.28715 17.71 4.59584 17.71ZM5.05886 12.2309L18.8724 12.2309L18.8724 16.7839L5.05886 16.7839L5.05886 12.2309Z" fill="#6941C6"/>
<path d="M15.0756 20.5277L4.34889 20.5277C4.23313 20.5277 4.13281 20.4351 4.13281 20.3117L4.13281 19.8178C4.13281 19.702 4.22542 19.6017 4.34889 19.6017L15.0833 19.6017C15.1991 19.6017 15.2994 19.6943 15.2994 19.8178L15.2994 20.3117C15.2917 20.4274 15.1991 20.5277 15.0756 20.5277Z" fill="#6941C6"/>
</svg>
