<svg width="29" height="29" viewBox="0 0 29 29" fill="none" xmlns="http://www.w3.org/2000/svg">
<path d="M28.3473 0H0.559484C0.279741 0 0 0.279741 0 0.559484V28.4405C0 28.7203 0.279741 29 0.559484 29H28.4405C28.7203 29 29 28.7203 29 28.4405V0.652732C29 0.279742 28.7203 0 28.3473 0ZM27.881 27.881H27.7878H1.11897V5.03537H27.881V27.881ZM27.881 3.9164H27.7878H1.11897V1.21222H27.881V3.9164Z" fill="#5E2EFF"/>
<path d="M2.98372 1.95819H1.86475V3.07716H2.98372V1.95819Z" fill="#5E2EFF"/>
<path d="M4.94173 1.95819H3.82275V3.07716H4.94173V1.95819Z" fill="#5E2EFF"/>
<path d="M6.80647 1.95819H5.6875V3.07716H6.80647V1.95819Z" fill="#5E2EFF"/>
<path d="M5.54777 11.376H23.4513C23.731 11.376 24.0108 11.0963 24.0108 10.8165V7.92585C24.0108 7.64611 23.731 7.36636 23.4513 7.36636H5.54777C5.26802 7.36636 4.98828 7.64611 4.98828 7.92585V10.8165C4.98828 11.0963 5.17478 11.376 5.54777 11.376ZM6.10725 8.48533H22.7986V10.257H6.10725V8.48533Z" fill="#5E2EFF"/>
<path d="M5.54777 21.4001H23.4513C23.731 21.4001 24.0108 21.1204 24.0108 20.8406V14.2201C24.0108 13.9403 23.731 13.6606 23.4513 13.6606H5.54777C5.26802 13.6606 4.98828 13.9403 4.98828 14.2201V20.8406C4.98828 21.1204 5.17478 21.4001 5.54777 21.4001ZM6.10725 14.7796H22.7986V20.2812H6.10725V14.7796Z" fill="#5E2EFF"/>
<path d="M18.2108 24.8037H5.24938C5.1095 24.8037 4.98828 24.6918 4.98828 24.5426V23.9458C4.98828 23.8059 5.10018 23.6847 5.24938 23.6847H18.2201C18.36 23.6847 18.4812 23.7966 18.4812 23.9458V24.5426C18.4719 24.6824 18.36 24.8037 18.2108 24.8037Z" fill="#5E2EFF"/>
</svg>
