<svg width="50" height="50" viewBox="0 0 50 50" fill="none" xmlns="http://www.w3.org/2000/svg">
<path fill-rule="evenodd" clip-rule="evenodd" d="M17.3262 45.8263C22.1883 45.8263 27.0274 45.8263 31.864 45.8263C31.6017 47.5088 28.3031 49.6533 25.4907 49.9591C22.2485 50.311 18.3216 48.3469 17.3262 45.8263Z" fill="#5614D5"/>
<path fill-rule="evenodd" clip-rule="evenodd" d="M47.6326 39.0597C47.3332 39.0341 47.0299 39.0494 46.728 39.0494C46.0102 39.0481 45.2923 39.0494 44.4044 39.0494C44.4044 38.5018 44.4044 38.1167 44.4044 37.7315C44.4031 31.7613 44.4261 25.7911 44.3826 19.8209C44.3724 18.4723 44.2508 17.1032 43.9834 15.7828C41.7571 4.78283 30.6957 -2.13805 19.8032 0.601382C11.1063 2.78807 4.84569 10.7146 4.88152 19.7275C4.90327 25.1552 4.88408 30.5829 4.8828 36.0106C4.8828 36.5019 4.88024 38.0361 4.87768 39.0482C4.21489 39.043 2.30714 39.0315 1.64052 39.0712C0.651453 39.1288 -0.0126134 39.8939 0.000181704 40.874C0.0129768 41.8285 0.645056 42.5079 1.61621 42.595C1.88618 42.6193 2.15872 42.6142 2.42997 42.6142C17.2352 42.6193 32.0417 42.6231 46.847 42.6257C47.1182 42.6257 47.3907 42.6295 47.6607 42.6026C48.6178 42.5067 49.2742 41.8029 49.2921 40.8715C49.3087 39.9285 48.5986 39.1428 47.6326 39.0597Z" fill="#5614D5"/>
<path d="M36.02 34.66C37.1147 34.66 38.002 33.7726 38.002 32.678C38.002 31.5834 37.1147 30.6961 36.02 30.6961C34.9254 30.6961 34.0381 31.5834 34.0381 32.678C34.0381 33.7726 34.9254 34.66 36.02 34.66Z" fill="#836EFF"/>
<path fill-rule="evenodd" clip-rule="evenodd" d="M37.8267 17.8587L37.8574 17.8382C37.8305 17.6706 37.8075 17.4992 37.7755 17.3367C36.5727 11.3933 31.4496 7.01356 25.4307 6.65402C25.4231 6.65402 25.4154 6.65274 25.4077 6.65274C25.1492 6.63739 24.8908 6.62715 24.6298 6.62715C24.6234 6.62715 24.6182 6.62715 24.6118 6.62715C24.6055 6.62715 24.6003 6.62715 24.5939 6.62715C24.3329 6.62715 24.0732 6.63739 23.816 6.65274C23.8083 6.65274 23.8006 6.65402 23.793 6.65402C17.7741 7.01356 12.651 11.3933 11.4482 17.3367C11.415 17.4992 11.3919 17.6706 11.3663 17.8382L11.3971 17.8587C11.2806 18.5624 11.2192 19.2815 11.2218 20.0083C11.2243 20.5866 11.2256 32.7868 11.2269 34.4463L15.3379 38.8836C15.3379 35.777 15.3367 21.7574 15.3303 19.9929C15.3136 15.8217 18.268 12.0484 22.3561 11.021C22.6951 10.9353 23.038 10.8726 23.3822 10.8252C23.4398 10.8176 23.4961 10.8086 23.555 10.8022C23.6855 10.7868 23.816 10.7753 23.9452 10.7651C24.132 10.7523 24.3188 10.7421 24.5082 10.7408C24.5428 10.7408 24.5773 10.7382 24.6118 10.7369C24.6464 10.7369 24.6809 10.7395 24.7155 10.7408C24.9049 10.7421 25.0917 10.7523 25.2785 10.7651C25.409 10.7753 25.5395 10.7868 25.6687 10.8022C25.7263 10.8086 25.7839 10.8176 25.8415 10.8252C26.1856 10.8726 26.5286 10.9353 26.8676 11.021C30.9544 12.0484 33.9101 15.823 33.8934 19.9929C33.8909 20.6544 33.8896 26.4276 33.8883 29.1286L38.0007 26.3841C38.0007 24.8193 38.0019 20.1849 38.0019 20.0096C38.0045 19.2802 37.9444 18.5624 37.8267 17.8587Z" fill="#836EFF"/>
<path fill-rule="evenodd" clip-rule="evenodd" d="M44.3829 19.819C44.388 20.5854 44.3906 21.3531 44.3944 22.1195L49.4024 18.7941L46.1729 13.9524L43.9082 15.4482C43.9325 15.5595 43.9619 15.6682 43.985 15.7796C44.2511 17.1013 44.3739 18.4716 44.3829 19.819Z" fill="#00F9AC"/>
<path opacity="0.9" fill-rule="evenodd" clip-rule="evenodd" d="M11.1331 25.7828L6.85059 29.7224L16.8359 40.4984L44.394 22.1208C44.3902 21.3544 44.3889 20.5867 44.3825 19.8202C44.3723 18.4716 44.2507 17.1026 43.9833 15.7821C43.9603 15.6695 43.9321 15.5607 43.9065 15.4507L17.7444 32.8969L11.1331 25.7828Z" fill="#21D8A3"/>
</svg>
