<svg width="28" height="24" viewBox="0 0 28 24" fill="none" xmlns="http://www.w3.org/2000/svg">
<path d="M25.4206 -0.000122069L1.92057 -0.00012207C0.837239 -0.00012207 0.00390625 0.916544 0.00390625 1.91654L0.00390625 22.0832C0.00390625 23.1665 0.920572 23.9999 1.92057 23.9999L25.3372 23.9999C26.4206 23.9999 27.2539 23.0832 27.2539 22.0832L27.2539 1.91654C27.3372 0.833211 26.4206 -0.000122069 25.4206 -0.000122069ZM26.1706 22.0832C26.1706 22.5832 25.7539 22.9165 25.3372 22.9165L1.92057 22.9165C1.42057 22.9165 1.08724 22.4999 1.08724 22.0832L1.08724 1.91654C1.08724 1.41654 1.50391 1.08321 1.92057 1.08321L25.3372 1.08321C25.8372 1.08321 26.1706 1.49988 26.1706 1.91654L26.1706 22.0832Z" fill="#6941C6"/>
<path d="M16.0065 9.50024C15.2565 8.66691 14.1732 8.25024 13.0898 8.25024C12.0065 8.25024 11.0065 8.66691 10.2565 9.41691C9.50651 10.1669 9.08984 11.1669 9.08984 12.2502C9.08984 13.3336 9.50651 14.3336 10.2565 15.1669L12.5065 17.4169C13.2565 18.2502 14.3398 18.6669 15.4232 18.6669C16.5065 18.6669 17.5065 18.2502 18.2565 17.5002C19.0065 16.7502 19.4232 15.7502 19.4232 14.6669C19.4232 13.5836 19.0065 12.5836 18.2565 11.7502L16.0065 9.50024ZM17.6732 16.9169C17.0898 17.5002 16.3398 17.8336 15.5065 17.8336C14.6732 17.8336 13.8398 17.5002 13.1732 16.8336L10.9232 14.5836C10.3398 14.0002 10.0065 13.1669 10.0065 12.3336C10.0065 11.5002 10.3398 10.6669 10.9232 10.0836C11.5065 9.50024 12.2565 9.16691 13.0898 9.16691C13.9232 9.16691 14.7565 9.50025 15.4232 10.1669L17.6732 12.5002C18.2565 13.0836 18.5898 13.9169 18.5898 14.7502C18.5898 15.5002 18.2565 16.3336 17.6732 16.9169Z" fill="#6941C6"/>
<path d="M13.0885 11.5827C13.0052 11.4993 12.9219 11.416 12.7552 11.416C12.6719 11.416 12.5052 11.4993 12.4219 11.5827C12.2552 11.7493 12.2552 12.0827 12.4219 12.2493L13.3385 13.166C13.4219 13.2493 13.5052 13.3327 13.6719 13.3327C13.7552 13.3327 13.9219 13.2493 14.0052 13.166C14.0885 13.0827 14.1719 12.9993 14.1719 12.8327C14.1719 12.7493 14.0885 12.5827 14.0052 12.4993L13.0885 11.5827Z" fill="#6941C6"/>
<path d="M11.1719 7.24939C11.2552 7.24939 11.3385 7.16606 11.4219 7.16606C11.5052 7.08272 11.5885 6.91606 11.5052 6.83272C11.5052 6.66606 11.3385 6.49939 11.0885 6.49939C10.1719 6.66606 9.33854 7.08272 8.67187 7.74939C8.00521 8.41606 7.58854 9.24939 7.42187 10.1661C7.42187 10.2494 7.42188 10.4161 7.50521 10.4994C7.58854 10.5827 7.67187 10.6661 7.75521 10.6661L7.83854 10.6661C8.00521 10.6661 8.17187 10.4994 8.25521 10.3327C8.42187 9.58272 8.75521 8.91606 9.33854 8.41606C9.75521 7.74939 10.4219 7.41606 11.1719 7.24939Z" fill="#6941C6"/>
<path d="M11.5885 5.41638C11.6719 5.41638 11.7552 5.33305 11.8385 5.33305C11.9219 5.24972 12.0052 5.08305 11.9219 4.99972C11.9219 4.83305 11.7552 4.66638 11.5052 4.66638C10.0052 4.91638 8.58854 5.58305 7.50521 6.66638C6.42188 7.74972 5.67188 9.08305 5.42187 10.5831C5.42187 10.6664 5.42188 10.833 5.50521 10.9164C5.58854 10.9997 5.67187 11.083 5.75521 11.083L5.83854 11.083C6.00521 11.083 6.17188 10.9164 6.25521 10.7497C6.50521 9.41638 7.17187 8.16638 8.08854 7.24972C9.00521 6.24972 10.2552 5.66638 11.5885 5.41638Z" fill="#6941C6"/>
</svg>
