<svg width="28" height="24" viewBox="0 0 28 24" fill="none" xmlns="http://www.w3.org/2000/svg">
<path d="M25.4206 -0.000122069L1.92057 -0.00012207C0.837239 -0.00012207 0.00390625 0.916544 0.00390625 1.91654L0.00390625 22.0832C0.00390625 23.1665 0.920572 23.9999 1.92057 23.9999L25.3372 23.9999C26.4206 23.9999 27.2539 23.0832 27.2539 22.0832L27.2539 1.91654C27.3372 0.833211 26.4206 -0.000122069 25.4206 -0.000122069ZM26.1706 22.0832C26.1706 22.5832 25.7539 22.9165 25.3372 22.9165L1.92057 22.9165C1.42057 22.9165 1.08724 22.4999 1.08724 22.0832L1.08724 1.91654C1.08724 1.41654 1.50391 1.08321 1.92057 1.08321L25.3372 1.08321C25.8372 1.08321 26.1706 1.49988 26.1706 1.91654L26.1706 22.0832Z" fill="#6941C6"/>
<path d="M6.83782 11.9163C6.75448 11.9996 6.83782 11.9163 6.83782 11.9163C6.75448 11.9996 6.83782 12.0829 6.83782 12.0829C6.92115 12.0829 6.92115 11.9996 6.83782 11.9163C6.92115 11.9996 6.92115 11.9163 6.83782 11.9163Z" fill="#6941C6"/>
<path d="M20.4219 12.5823C20.0052 12.5823 19.5885 12.9157 19.5885 13.3323L18.1719 13.749C17.9219 13.3323 17.5052 12.999 17.0052 12.8323L17.0052 10.4157C17.4219 10.249 17.7552 9.83234 17.7552 9.33234C17.7552 9.16567 17.7552 8.999 17.6719 8.83234L19.3385 6.999C19.4219 6.999 19.5052 6.999 19.5885 6.999C20.0885 6.999 20.5052 6.58234 20.5052 6.08234C20.5052 5.58234 20.0885 5.16567 19.5885 5.16567C19.0885 5.16567 18.6719 5.58234 18.6719 6.08234C18.6719 6.16567 18.6719 6.249 18.7552 6.41567L17.0885 8.249C16.9219 8.16567 16.8385 8.16567 16.6719 8.16567C16.1719 8.16567 15.7552 8.499 15.5885 8.91567L12.6719 8.91567C12.5052 8.249 12.0052 7.66567 11.2552 7.499L11.2552 5.999C11.5885 5.83234 11.7552 5.58234 11.7552 5.249C11.7552 4.749 11.3385 4.33234 10.8385 4.33234C10.3385 4.33234 9.92187 4.749 9.92187 5.249C9.92187 5.58234 10.0885 5.91567 10.4219 5.999L10.4219 7.499C9.58854 7.66567 9.00521 8.41567 9.00521 9.33234C9.00521 9.58234 9.08854 9.83234 9.17187 9.999L7.42187 11.1657C7.25521 11.0823 7.17187 11.0823 7.00521 11.0823C6.50521 11.0823 6.08854 11.499 6.08854 11.999C6.08854 12.499 6.50521 12.9157 7.00521 12.9157C7.50521 12.9157 7.92187 12.499 7.92187 11.999L7.92187 11.9157L9.50521 10.6657C9.75521 10.9157 10.0052 11.0823 10.3385 11.0823L10.3385 13.499C9.92187 13.6657 9.58854 14.0823 9.58854 14.5823C9.58854 14.749 9.58854 14.9157 9.67188 15.0823L7.08854 17.8323C7.00521 17.8323 6.92187 17.8323 6.83854 17.8323C6.33854 17.8323 5.92187 18.249 5.92187 18.749C5.92187 19.249 6.33854 19.6657 6.83854 19.6657C7.33854 19.6657 7.75521 19.249 7.75521 18.749C7.75521 18.6657 7.75521 18.5823 7.67187 18.4157L10.3385 15.6657C10.5052 15.749 10.5885 15.749 10.7552 15.749L10.8385 15.749L11.5052 17.249C11.4219 17.4157 11.3385 17.5823 11.3385 17.8323C11.3385 18.3323 11.7552 18.749 12.2552 18.749C12.7552 18.749 13.1719 18.3323 13.1719 17.8323C13.1719 17.3323 12.7552 16.999 12.3385 16.9157L11.6719 15.4157C11.7552 15.3323 11.8385 15.1657 11.9219 14.999L14.8385 14.999C15.0052 15.6657 15.5052 16.249 16.2552 16.4157L16.2552 17.9157C15.9219 18.0823 15.7552 18.3323 15.7552 18.6657C15.7552 19.1657 16.1719 19.5823 16.6719 19.5823C17.1719 19.5823 17.5885 19.1657 17.5885 18.6657C17.5885 18.3323 17.4219 17.999 17.0885 17.9157L17.0885 16.499C17.9219 16.3323 18.5052 15.5823 18.5052 14.6657C18.5052 14.5823 18.5052 14.5823 18.5052 14.499L19.9219 14.0823C20.0885 14.249 20.3385 14.3323 20.5885 14.3323C21.0885 14.3323 21.5052 13.9157 21.5052 13.4157C21.5052 12.9157 20.8385 12.5823 20.4219 12.5823ZM19.4219 5.999C19.5885 5.999 19.6719 6.08234 19.6719 6.249C19.6719 6.41567 19.5885 6.499 19.4219 6.499C19.2552 6.499 19.1719 6.41567 19.1719 6.249C19.1719 6.08234 19.2552 5.999 19.4219 5.999ZM6.83854 12.249C6.67187 12.249 6.58854 12.1657 6.58854 11.999C6.58854 11.8323 6.67187 11.749 6.83854 11.749C7.00521 11.749 7.08854 11.8323 7.08854 11.999C7.08854 12.1657 7.00521 12.249 6.83854 12.249ZM6.83854 18.999C6.67187 18.999 6.58854 18.9157 6.58854 18.749C6.58854 18.5823 6.67187 18.499 6.83854 18.499C7.00521 18.499 7.08854 18.5823 7.08854 18.749C7.08854 18.9157 7.00521 18.999 6.83854 18.999ZM12.1719 17.5823C12.3385 17.5823 12.4219 17.6657 12.4219 17.8323C12.4219 17.999 12.3385 18.0823 12.1719 18.0823C12.0052 18.0823 11.9219 17.999 11.9219 17.8323C11.9219 17.6657 12.0052 17.5823 12.1719 17.5823ZM16.5052 8.83234C16.7552 8.83234 17.0052 9.08234 17.0052 9.33234C17.0052 9.58234 16.7552 9.83234 16.5052 9.83234C16.2552 9.83234 16.0052 9.58234 16.0052 9.33234C16.0052 9.08234 16.2552 8.83234 16.5052 8.83234ZM10.7552 4.999C10.9219 4.999 11.0052 5.08234 11.0052 5.249C11.0052 5.41567 10.9219 5.499 10.7552 5.499C10.5885 5.499 10.5052 5.41567 10.5052 5.249C10.5052 5.08234 10.5885 4.999 10.7552 4.999ZM9.50521 9.33234C9.50521 8.66567 10.0052 8.16567 10.6719 8.16567C11.3385 8.16567 11.8385 8.66567 11.8385 9.33234C11.8385 9.999 11.3385 10.499 10.6719 10.499C10.0885 10.5823 9.50521 9.999 9.50521 9.33234ZM10.7552 15.1657C10.5052 15.1657 10.2552 14.9157 10.2552 14.6657C10.2552 14.4157 10.5052 14.1657 10.7552 14.1657C11.0052 14.1657 11.2552 14.4157 11.2552 14.6657C11.1719 14.9157 11.0052 15.1657 10.7552 15.1657ZM14.8385 14.4157L11.6719 14.4157C11.5885 14.0823 11.3385 13.8323 11.0052 13.749L11.0052 10.999C11.7552 10.9157 12.3385 10.3323 12.4219 9.58234L15.5885 9.58234C15.6719 9.91567 15.9219 10.1657 16.2552 10.249L16.2552 12.999C15.5052 13.0823 14.9219 13.6657 14.8385 14.4157ZM16.5052 18.999C16.3385 18.999 16.2552 18.9157 16.2552 18.749C16.2552 18.5823 16.3385 18.499 16.5052 18.499C16.6719 18.499 16.7552 18.5823 16.7552 18.749C16.7552 18.9157 16.6719 18.999 16.5052 18.999ZM16.5052 15.8323C15.8385 15.8323 15.3385 15.3323 15.3385 14.6657C15.3385 13.999 15.8385 13.499 16.5052 13.499C17.1719 13.499 17.6719 13.999 17.6719 14.6657C17.7552 15.3323 17.1719 15.8323 16.5052 15.8323ZM20.4219 13.6657C20.2552 13.6657 20.1719 13.5823 20.1719 13.4157C20.1719 13.249 20.2552 13.1657 20.4219 13.1657C20.5885 13.1657 20.6719 13.249 20.6719 13.4157C20.6719 13.5823 20.5052 13.6657 20.4219 13.6657Z" fill="#6941C6"/>
<path d="M6.92318 7.8325C7.10727 7.8325 7.25651 7.68326 7.25651 7.49917C7.25651 7.31507 7.10727 7.16583 6.92318 7.16583C6.73908 7.16583 6.58984 7.31507 6.58984 7.49917C6.58984 7.68326 6.73908 7.8325 6.92318 7.8325Z" fill="#6941C6"/>
<path d="M15.1732 4.33262C15.3573 4.33262 15.5065 4.18338 15.5065 3.99929C15.5065 3.81519 15.3573 3.66595 15.1732 3.66595C14.9891 3.66595 14.8398 3.81519 14.8398 3.99929C14.8398 4.18338 14.9891 4.33262 15.1732 4.33262Z" fill="#6941C6"/>
<path d="M22.0872 10.1658C22.2713 10.1658 22.4206 10.0165 22.4206 9.83242C22.4206 9.64832 22.2713 9.49908 22.0872 9.49908C21.9031 9.49908 21.7539 9.64832 21.7539 9.83242C21.7539 10.0165 21.9031 10.1658 22.0872 10.1658Z" fill="#6941C6"/>
<path d="M22.5872 18.8341C22.7713 18.8341 22.9206 18.6848 22.9206 18.5008C22.9206 18.3167 22.7713 18.1674 22.5872 18.1674C22.4031 18.1674 22.2539 18.3167 22.2539 18.5008C22.2539 18.6848 22.4031 18.8341 22.5872 18.8341Z" fill="#6941C6"/>
<path d="M4.67318 17.2494C4.85727 17.2494 5.00651 17.1002 5.00651 16.9161C5.00651 16.732 4.85727 16.5828 4.67318 16.5828C4.48908 16.5828 4.33984 16.732 4.33984 16.9161C4.33984 17.1002 4.48908 17.2494 4.67318 17.2494Z" fill="#6941C6"/>
<path d="M14.1693 12.0827C14.3534 12.0827 14.5026 11.9334 14.5026 11.7493C14.5026 11.5653 14.3534 11.416 14.1693 11.416C13.9852 11.416 13.8359 11.5653 13.8359 11.7493C13.8359 11.9334 13.9852 12.0827 14.1693 12.0827Z" fill="#6941C6"/>
</svg>
