<svg width="43" height="50" viewBox="0 0 43 50" fill="none" xmlns="http://www.w3.org/2000/svg">
<path d="M40.3121 28.7681C40.3483 28.6232 40.3483 28.442 40.3483 28.2971C40.3483 26.9203 39.2251 25.8333 37.8845 25.8333C36.8338 25.8333 35.928 26.4855 35.6019 27.4275L35.5295 27.5362C35.4932 27.6087 35.4932 27.7174 35.457 27.8261C33.7903 34.2754 28.7541 40.0362 22.1961 43.0072L22.7034 38.442C22.7396 38.1884 22.6672 37.9348 22.486 37.7536C22.3048 37.5725 22.0874 37.4638 21.7976 37.4638C21.7976 37.4638 19.986 37.4638 19.9498 37.4638C12.7758 37.4638 6.90628 32.8623 5.31208 26.0145C4.40628 22.029 5.09469 17.8985 7.2686 14.4203C8.93526 11.7754 11.2541 9.78261 14.044 8.51449C14.1889 8.47826 14.37 8.4058 14.515 8.2971L14.5874 8.26087C15.3121 7.82609 15.7831 7.02898 15.7831 6.12319C15.7831 4.74638 14.6599 3.62319 13.2831 3.62319C13.0295 3.62319 12.8121 3.65942 12.5947 3.73188V3.69565L12.3411 3.80435C8.50048 5.47101 5.31208 8.22464 3.10193 11.7391C0.239612 16.3406 -0.702417 21.8116 0.529467 27.1014C2.41353 35.2899 8.9715 41.1956 17.3048 42.2464L16.4715 50L19.986 49.058C26.4715 47.3188 32.4498 43.0797 36.3628 37.4638C38.2106 34.8188 39.515 31.9928 40.2758 29.0217C40.2758 28.9855 40.2758 28.9855 40.2758 28.9493L40.3121 28.7681Z" fill="url(#paint0_linear_44_428)"/>
<path d="M42.7392 17.7899C42.7029 17.6088 42.558 17.4638 42.3406 17.4276L40.3116 17.0291L39.6957 15.0725C39.6232 14.8551 39.4421 14.7464 39.2247 14.7464C39.0435 14.7464 38.8986 14.8551 38.7899 15.0001L37.8116 16.8117H35.7464C35.5652 16.8117 35.3841 16.9204 35.3116 17.1015C35.2392 17.2827 35.2754 17.5001 35.4203 17.645L36.8334 19.1667L36.1812 21.1233C36.145 21.2682 36.145 21.4493 36.2537 21.558C36.3623 21.703 36.5073 21.7754 36.6522 21.7754C36.7247 21.7754 36.7971 21.7754 36.8696 21.7392L38.7174 20.8696L40.3841 22.1015C40.4566 22.174 40.5652 22.2102 40.6739 22.2102C40.8189 22.2102 40.9638 22.1378 41.0363 22.0291C41.145 21.9204 41.1812 21.7754 41.145 21.6305L40.8913 19.5653L42.558 18.3696C42.7029 18.1885 42.7754 18.0073 42.7392 17.7899Z" fill="#FF7D73"/>
<path d="M26.5444 3.11594C26.5082 2.93478 26.3633 2.75362 26.1459 2.71739L24.1531 2.31884L23.5372 0.362319C23.4647 0.144928 23.2836 0 23.0662 0C22.885 0 22.7401 0.108696 22.6314 0.253623L21.6169 2.06522L19.5517 2.02899C19.3705 2.02899 19.1894 2.13768 19.0807 2.31884C19.0082 2.5 19.0444 2.71739 19.1531 2.86232L20.5662 4.38406L19.914 6.34058C19.8778 6.48551 19.8778 6.66667 19.9865 6.77536C20.0952 6.92029 20.2401 6.99275 20.385 6.99275C20.4575 6.99275 20.5299 6.99275 20.6024 6.95652L22.4865 6.08696L24.1531 7.31884C24.2256 7.3913 24.3343 7.42754 24.443 7.42754C24.5879 7.42754 24.7328 7.35507 24.8053 7.24638C24.914 7.13768 24.9502 6.99275 24.914 6.84783L24.6604 4.78261L26.3633 3.58696C26.5082 3.51449 26.6169 3.33333 26.5444 3.11594Z" fill="#FF7D73"/>
<path d="M37.7399 9.81891L35.9645 7.93485L36.7616 5.47108C36.8341 5.28993 36.7979 5.10877 36.6892 4.96384C36.5805 4.81891 36.3993 4.74645 36.2544 4.74645C36.1819 4.74645 36.0732 4.78268 36.0007 4.78268L33.6457 5.86964L31.5805 4.3479C31.4718 4.27543 31.3631 4.2392 31.2544 4.2392C31.1094 4.2392 30.9283 4.31166 30.8196 4.42036C30.7109 4.52906 30.6747 4.71022 30.6747 4.85514L31.0008 7.42761L28.8993 8.94935C28.7181 9.09427 28.6457 9.31166 28.6819 9.52906C28.7181 9.74645 28.8993 9.92761 29.1167 9.96384L31.6529 10.4349L32.45 12.8986C32.5225 13.116 32.7399 13.2972 32.9935 13.2972C33.2109 13.2972 33.3921 13.1885 33.4645 13.0073L34.7326 10.7247H37.3051C37.5225 10.7247 37.7399 10.5798 37.8123 10.3986C37.9573 10.2175 37.921 9.96384 37.7399 9.81891Z" fill="#FF5850"/>
<defs>
<linearGradient id="paint0_linear_44_428" x1="29.2295" y1="17.0095" x2="-12.0781" y2="50.1808" gradientUnits="userSpaceOnUse">
<stop stop-color="#004FFF"/>
<stop offset="1" stop-color="#0033C1"/>
</linearGradient>
</defs>
</svg>
