<svg width="28" height="19" viewBox="0 0 28 19" fill="none" xmlns="http://www.w3.org/2000/svg">
<g clip-path="url(#clip0_3639_55229)">
<path d="M14.4504 0.213745L0.912984 0.213745C0.706621 0.213745 0.458984 0.378836 0.458984 0.667745L0.458984 18.2499C0.458984 18.4976 0.624075 18.7039 0.912984 18.7039L14.4504 18.7039C14.6981 18.7039 14.9044 18.5388 14.9044 18.2499L14.9044 0.667745C14.9044 0.378836 14.6568 0.213745 14.4504 0.213745ZM14.079 17.7959L13.9964 17.7959L1.44953 17.7959L1.44953 1.12175L14.079 1.12175L14.079 17.7959Z" fill="#6941C6"/>
<path d="M17.2958 5.86811L27.0362 5.86811C27.2838 5.86811 27.4902 5.70302 27.4902 5.41411L27.4902 0.667745C27.5314 0.378836 27.3251 0.213745 27.0774 0.213745L17.2545 0.213745C17.0482 0.213745 16.8418 0.378836 16.8418 0.667745L16.8418 5.41411C16.8831 5.66174 17.0482 5.86811 17.2958 5.86811ZM17.8323 1.0392L26.706 1.0392L26.706 4.96011L17.8323 4.96011L17.8323 1.0392Z" fill="#6941C6"/>
<path d="M27.1229 11.4813L17.2587 11.4813C17.0111 11.4813 16.8047 11.6464 16.8047 11.9353L16.8047 16.3102C16.8047 16.5579 16.9698 16.7642 17.2587 16.7642L26.9991 16.7642C27.2467 16.7642 27.4531 16.5991 27.4531 16.3102L27.4531 11.9353C27.5769 11.6051 27.3705 11.4813 27.1229 11.4813ZM26.6689 15.815L17.8365 15.815L17.8365 12.2655L26.7101 12.2655L26.6689 15.815Z" fill="#6941C6"/>
<path d="M24.9341 17.8784L17.4638 17.8784C17.2161 17.8784 17.0098 18.1261 17.0098 18.3324C17.0098 18.5801 17.2574 18.7864 17.4638 18.7864L24.9341 18.7864C25.1818 18.7864 25.3881 18.5388 25.3881 18.3324C25.3881 18.1261 25.1818 17.8784 24.9341 17.8784Z" fill="#6941C6"/>
<path d="M17.4638 7.23022C17.2161 7.23022 17.0098 7.47786 17.0098 7.68422C17.0098 7.93186 17.2574 8.13822 17.4638 8.13822L24.9341 8.13822C25.1818 8.13822 25.3881 7.89059 25.3881 7.68422C25.3881 7.43659 25.1405 7.23022 24.9341 7.23022L17.4638 7.23022Z" fill="#6941C6"/>
</g>
<defs>
<clipPath id="clip0_3639_55229">
<rect width="27.24" height="18.5727" fill="white" transform="translate(0.380859 0.213623)"/>
</clipPath>
</defs>
</svg>
