<svg width="227" height="56" viewBox="0 0 227 56" fill="none" xmlns="http://www.w3.org/2000/svg">
<path d="M6.22222 56C9.65866 56 12.4444 53.2142 12.4444 49.7778C12.4444 46.3413 9.65866 43.5556 6.22222 43.5556C2.78578 43.5556 0 46.3413 0 49.7778C0 53.2142 2.78578 56 6.22222 56Z" fill="#FFB45A"/>
<path d="M24.4366 56C27.873 56 30.6588 53.2142 30.6588 49.7778C30.6588 46.3413 27.873 43.5556 24.4366 43.5556C21.0001 43.5556 18.2144 46.3413 18.2144 49.7778C18.2144 53.2142 21.0001 56 24.4366 56Z" fill="#FF7B8E"/>
<path d="M42.5367 56C45.9731 56 48.7589 53.2142 48.7589 49.7778C48.7589 46.3413 45.9731 43.5556 42.5367 43.5556C39.1002 43.5556 36.3145 46.3413 36.3145 49.7778C36.3145 53.2142 39.1002 56 42.5367 56Z" fill="#5AC0FF"/>
<path d="M35.4101 10.4081C35.0707 10.4081 34.7313 10.4081 34.3919 10.4081C33.0343 4.41212 27.7172 0 21.3818 0C19.6848 0 18.101 0.339394 16.6303 0.905051V5.31717H23.0788V11.6525C20.9293 11.6525 18.7798 11.6525 16.6303 11.6525V22.4H23.305C23.0788 22.8525 22.8525 23.5313 22.7394 23.8707C21.4949 26.8121 18.5535 28.396 15.3859 27.8303C12.4444 27.2646 10.2949 24.7758 10.0687 21.6081C10.0687 20.703 10.0687 19.798 10.0687 18.8929C10.0687 17.5354 10.0687 13.0101 10.0687 11.5394C9.27677 11.5394 8.59798 11.5394 7.80606 11.5394C3.28081 13.6889 0 18.3273 0 23.6444C0 30.998 5.99596 36.9939 13.3495 36.9939H35.5232C42.8768 36.8808 48.7596 30.998 48.7596 23.6444C48.7596 16.404 42.7636 10.4081 35.4101 10.4081Z" fill="#5633D1"/>
<path d="M73.0826 33.261C71.725 33.261 70.9331 32.4691 70.9331 30.8852V22.966H74.7796V19.459H70.4806L69.8018 16.065H66.521V32.1297C66.521 35.2974 67.9917 36.7681 70.82 36.7681H74.6665V33.261H73.0826Z" fill="#424C5E"/>
<path d="M85.1879 19.459C79.7576 19.459 77.0425 22.2873 77.0425 27.9438C77.0425 33.8266 80.2102 36.7681 86.4324 36.7681C88.5819 36.7681 90.5051 36.6549 91.9758 36.3155V32.8085C90.2788 33.1479 88.4687 33.261 86.7718 33.261C83.1516 33.261 81.3415 32.0165 81.3415 29.6408H92.8809C92.994 28.962 92.994 28.1701 92.994 27.4913C93.1071 22.1741 90.392 19.459 85.1879 19.459ZM81.4546 26.5862C81.6809 24.0974 82.9253 22.8529 85.1879 22.8529C87.5637 22.8529 88.8081 24.0974 88.8081 26.4731V26.5862H81.4546Z" fill="#424C5E"/>
<path d="M115.846 19.459C113.922 19.459 112.112 20.2509 110.302 21.8347C109.51 20.2509 108.04 19.459 105.777 19.459C103.627 19.459 101.704 20.2509 100.234 21.9479L99.6679 19.459H96.2739V36.7681H100.686V24.7761C101.817 23.6448 103.062 23.0792 104.306 23.0792C105.89 23.0792 106.682 24.0974 106.682 26.0206V36.8812H111.094V24.8893C112.339 23.758 113.583 23.1923 114.827 23.1923C116.524 23.1923 117.429 24.0974 117.429 26.1337V36.9943H121.842V26.2469C121.842 21.6085 119.805 19.459 115.846 19.459Z" fill="#424C5E"/>
<path d="M133.268 19.459C130.666 19.459 128.29 19.6852 126.027 20.1378V44.0085H130.439V35.9761C131.571 36.5418 132.815 36.7681 133.947 36.7681C139.377 36.7681 142.205 33.7135 142.205 27.7176C142.092 22.1741 139.151 19.459 133.268 19.459ZM133.833 33.1479C132.589 33.1479 131.458 32.8085 130.326 32.2428V23.1923C131.118 23.0792 132.136 22.966 133.381 22.966C136.209 22.966 137.68 24.5499 137.68 27.6044C137.793 31.3378 136.435 33.1479 133.833 33.1479Z" fill="#424C5E"/>
<path d="M145.374 13.1235H149.786V36.6548H145.374V13.1235Z" fill="#424C5E"/>
<path d="M160.759 19.459C158.836 19.459 156.799 19.6852 154.424 20.2509V23.758C156.686 23.1923 158.836 22.966 160.759 22.966C163.022 22.966 164.153 23.758 164.153 25.3418V26.6994C163.022 26.4731 161.777 26.36 160.646 26.36C155.668 26.36 153.179 28.057 153.179 31.564C153.179 35.1842 155.329 36.9943 159.515 36.9943C161.325 36.9943 163.022 36.4287 164.492 35.4105L166.076 36.9943H168.565V25.3418C168.452 21.2691 165.85 19.459 160.759 19.459ZM160.08 33.6004C158.27 33.6004 157.478 32.8085 157.478 31.3378C157.478 29.8671 158.496 29.1883 160.646 29.1883C161.89 29.1883 163.022 29.3014 164.153 29.5277V32.2428C162.795 33.1479 161.438 33.6004 160.08 33.6004Z" fill="#424C5E"/>
<path d="M178.748 33.261C177.391 33.261 176.599 32.4691 176.599 30.8852V22.966H180.445V19.459H176.146L175.467 16.065H172.187V32.1297C172.187 35.2974 173.657 36.7681 176.486 36.7681H180.332V33.261H178.748Z" fill="#424C5E"/>
<path d="M190.852 19.459C185.422 19.459 182.707 22.2873 182.707 27.9438C182.707 33.8266 185.874 36.7681 192.096 36.7681C194.246 36.7681 196.169 36.6549 197.64 36.3155V32.8085C195.943 33.1479 194.133 33.261 192.436 33.261C188.816 33.261 187.006 32.0165 187.006 29.6408H198.545C198.658 28.962 198.658 28.1701 198.658 27.4913C198.771 22.061 196.056 19.459 190.852 19.459ZM187.119 26.5862C187.345 24.0974 188.589 22.8529 190.852 22.8529C193.228 22.8529 194.472 24.0974 194.472 26.4731V26.5862H187.119Z" fill="#424C5E"/>
<path d="M202.052 13.1235H206.464V36.6548H202.052V13.1235Z" fill="#424C5E"/>
<path d="M221.738 19.3457L217.439 31.7902L213.027 19.3457H208.388L215.063 36.7679C214.158 38.6912 212.8 40.0488 210.877 40.9538L213.027 43.8952C215.855 42.5376 217.891 40.275 219.136 37.2205L226.263 19.3457H221.738Z" fill="#424C5E"/>
</svg>
