<svg width="13" height="14" viewBox="0 0 13 14" fill="none" xmlns="http://www.w3.org/2000/svg">
<path d="M0.199219 1.65824C0.199219 1.41954 0.29404 1.19063 0.462823 1.02184C0.631605 0.853061 0.860524 0.75824 1.09922 0.75824H11.8992C12.1379 0.75824 12.3668 0.853061 12.5356 1.02184C12.7044 1.19063 12.7992 1.41954 12.7992 1.65824V3.45824C12.7992 3.69693 12.7044 3.92585 12.5356 4.09464C12.3668 4.26342 12.1379 4.35824 11.8992 4.35824H1.09922C0.860524 4.35824 0.631605 4.26342 0.462823 4.09464C0.29404 3.92585 0.199219 3.69693 0.199219 3.45824V1.65824ZM0.199219 7.05824C0.199219 6.81954 0.29404 6.59063 0.462823 6.42184C0.631605 6.25306 0.860524 6.15824 1.09922 6.15824H6.49922C6.73791 6.15824 6.96683 6.25306 7.13561 6.42184C7.3044 6.59063 7.39922 6.81954 7.39922 7.05824V12.4582C7.39922 12.6969 7.3044 12.9259 7.13561 13.0946C6.96683 13.2634 6.73791 13.3582 6.49922 13.3582H1.09922C0.860524 13.3582 0.631605 13.2634 0.462823 13.0946C0.29404 12.9259 0.199219 12.6969 0.199219 12.4582V7.05824ZM10.0992 6.15824C9.86052 6.15824 9.63161 6.25306 9.46282 6.42184C9.29404 6.59063 9.19922 6.81954 9.19922 7.05824V12.4582C9.19922 12.6969 9.29404 12.9259 9.46282 13.0946C9.63161 13.2634 9.86052 13.3582 10.0992 13.3582H11.8992C12.1379 13.3582 12.3668 13.2634 12.5356 13.0946C12.7044 12.9259 12.7992 12.6969 12.7992 12.4582V7.05824C12.7992 6.81954 12.7044 6.59063 12.5356 6.42184C12.3668 6.25306 12.1379 6.15824 11.8992 6.15824H10.0992Z" fill="url(#paint0_linear_2004_35335)"/>
<defs>
<linearGradient id="paint0_linear_2004_35335" x1="6.49922" y1="0.75824" x2="6.49922" y2="13.3582" gradientUnits="userSpaceOnUse">
<stop stop-color="#9373FF"/>
<stop offset="1" stop-color="#7650F6"/>
</linearGradient>
</defs>
</svg>
