<svg width="16" height="17" viewBox="0 0 16 17" fill="none" xmlns="http://www.w3.org/2000/svg">
<path d="M0 16.5571C0 13.2434 2.68629 10.5571 6 10.5571C9.31373 10.5571 12 13.2434 12 16.5571H0ZM6 9.80713C3.51375 9.80713 1.5 7.79338 1.5 5.30713C1.5 2.82088 3.51375 0.807129 6 0.807129C8.48625 0.807129 10.5 2.82088 10.5 5.30713C10.5 7.79338 8.48625 9.80713 6 9.80713ZM11.5221 11.482C13.8362 12.0734 15.5759 14.0998 15.7377 16.5571H13.5C13.5 14.5998 12.7502 12.8176 11.5221 11.482ZM10.0051 9.7748C11.2296 8.67628 12 7.08168 12 5.30713C12 4.24412 11.7235 3.24569 11.2387 2.37978C12.9565 2.72261 14.25 4.23812 14.25 6.05713C14.25 8.129 12.5719 9.80713 10.5 9.80713C10.3322 9.80713 10.167 9.7961 10.0051 9.7748Z" fill="url(#paint0_linear_2004_35339)"/>
<defs>
<linearGradient id="paint0_linear_2004_35339" x1="7.86885" y1="0.807129" x2="7.86885" y2="16.5571" gradientUnits="userSpaceOnUse">
<stop stop-color="#FFBAC4"/>
<stop offset="1" stop-color="#FF7B8E"/>
</linearGradient>
</defs>
</svg>
