<svg width="17" height="17" viewBox="0 0 17 17" fill="none" xmlns="http://www.w3.org/2000/svg">
<path fill-rule="evenodd" clip-rule="evenodd" d="M2.5 0.807129C1.25736 0.807129 0.25 1.81449 0.25 3.05713V14.3071C0.25 15.5498 1.25736 16.5571 2.5 16.5571H14.5C15.7427 16.5571 16.75 15.5498 16.75 14.3071V5.30713C16.75 4.06449 15.7427 3.05713 14.5 3.05713H8.5L6.90901 1.46614C6.48705 1.04418 5.91476 0.807129 5.31802 0.807129H2.5ZM8.5 5.30713C8.91422 5.30713 9.25 5.64291 9.25 6.05713V10.9965L10.2197 10.0268C10.5126 9.73393 10.9874 9.73393 11.2803 10.0268C11.5732 10.3197 11.5732 10.7946 11.2803 11.0875L9.03032 13.3375C8.73745 13.6303 8.26255 13.6303 7.96968 13.3375L5.71967 11.0875C5.42678 10.7946 5.42678 10.3197 5.71967 10.0268C6.01256 9.73393 6.48744 9.73393 6.78033 10.0268L7.75 10.9965V6.05713C7.75 5.64291 8.08577 5.30713 8.5 5.30713Z" fill="url(#paint0_linear_2004_35344)"/>
<defs>
<linearGradient id="paint0_linear_2004_35344" x1="8.5" y1="0.807129" x2="8.5" y2="16.5571" gradientUnits="userSpaceOnUse">
<stop stop-color="#FFCD91"/>
<stop offset="1" stop-color="#FAAD50"/>
</linearGradient>
</defs>
</svg>
