<svg width="27" height="29" viewBox="0 0 27 29" fill="none" xmlns="http://www.w3.org/2000/svg">
<path d="M11.2877 9.8092H2.41271C1.57192 9.8092 0.917969 10.4632 0.917969 11.3039V26.9053C0.917969 27.746 1.57192 28.4 2.41271 28.4H11.2877C12.1285 28.4 12.7824 27.746 12.7824 26.9053V11.3974C12.7824 10.4632 12.1285 9.8092 11.2877 9.8092ZM11.6614 26.9053C11.6614 27.0921 11.4745 27.2789 11.2877 27.2789H2.41271C2.22586 27.2789 2.03902 27.0921 2.03902 26.9053V11.3974C2.03902 11.2105 2.22586 11.0237 2.41271 11.0237H11.2877C11.4745 11.0237 11.6614 11.2105 11.6614 11.3974V26.9053Z" fill="#5E2EFF"/>
<path d="M25.4869 9.8092H16.6119C15.7711 9.8092 15.1172 10.4632 15.1172 11.3039V26.9053C15.1172 27.746 15.7711 28.4 16.6119 28.4H25.4869C26.3277 28.4 26.9817 27.746 26.9817 26.9053V11.3974C27.0751 10.4632 26.3277 9.8092 25.4869 9.8092ZM25.8606 26.9053C25.8606 27.0921 25.6738 27.2789 25.4869 27.2789H16.6119C16.4251 27.2789 16.2382 27.0921 16.2382 26.9053V11.3974C16.2382 11.2105 16.4251 11.0237 16.6119 11.0237H25.4869C25.6738 11.0237 25.8606 11.2105 25.8606 11.3974V26.9053Z" fill="#5E2EFF"/>
<path d="M10.6331 6.07237H18.2936C19.1344 6.07237 19.8818 5.41842 19.8818 4.48421V1.58816C19.8818 0.747367 19.2278 0 18.2936 0H10.6331C9.79229 0 9.04492 0.653946 9.04492 1.58816V4.48421C9.04492 5.41842 9.69887 6.07237 10.6331 6.07237ZM10.166 1.68158C10.166 1.49474 10.3528 1.30789 10.5397 1.30789H18.2002C18.387 1.30789 18.5739 1.49474 18.5739 1.68158V4.57763C18.5739 4.76447 18.387 4.95131 18.2002 4.95131H10.5397C10.3528 4.95131 10.166 4.76447 10.166 4.57763V1.68158Z" fill="#5E2EFF"/>
<path d="M15.4912 4.20405H15.5846H15.6781H15.7715H15.8649H15.9583H16.0517H16.1452H16.2386H16.332H16.4254H16.5188H16.6123H16.7057H16.7991H16.8925H16.9859H17.0794H17.1728H17.2662H17.3596H17.4531H17.5465H17.6399H17.7333V3.64352V2.61589V1.96194H17.6399H17.5465H17.4531H17.3596H17.2662H17.1728H17.0794H16.9859H16.8925H16.7991H16.7057H16.6123H16.5188H16.4254H16.332H16.2386H16.1452H16.0517H15.9583H15.8649H15.7715H15.6781H15.5846H15.4912V2.61589V3.64352V4.20405Z" fill="#5E2EFF"/>
<path d="M23.5265 14.2932H23.4331H23.3397H23.2462H23.1528H23.0594H22.966H22.8726H22.7791H22.6857H22.5923H22.4989H22.4055H22.312H22.2186H22.1252H22.0318H21.9384H21.8449H21.7515H21.6581H21.5647H21.4712H21.3778H21.2844H21.191H21.0976H21.0041H20.9107H20.8173H20.7239H20.6305H20.537H20.4436H20.3502H20.2568H20.1634H20.0699H19.9765H19.8831H19.7897H19.6962H19.6028H19.5094H19.416H19.3226H19.2291H19.1357H19.0423H18.9489H18.8555H18.762H18.6686H18.5752V15.4143H18.6686H18.762H18.8555H18.9489H19.0423H19.1357H19.2291H19.3226H19.416H19.5094H19.6028H19.6962H19.7897H19.8831H19.9765H20.0699H20.1634H20.2568H20.3502H20.4436H20.537H20.6305H20.7239H20.8173H20.9107H21.0041H21.0976H21.191H21.2844H21.3778H21.4712H21.5647H21.6581H21.7515H21.8449H21.9384H22.0318H22.1252H22.2186H22.312H22.4055H22.4989H22.5923H22.6857H22.7791H22.8726H22.966H23.0594H23.1528H23.2462H23.3397H23.4331H23.5265V14.2932Z" fill="#5E2EFF"/>
<path d="M23.5265 17.0028H23.4331H23.3397H23.2462H23.1528H23.0594H22.966H22.8726H22.7791H22.6857H22.5923H22.4989H22.4055H22.312H22.2186H22.1252H22.0318H21.9384H21.8449H21.7515H21.6581H21.5647H21.4712H21.3778H21.2844H21.191H21.0976H21.0041H20.9107H20.8173H20.7239H20.6305H20.537H20.4436H20.3502H20.2568H20.1634H20.0699H19.9765H19.8831H19.7897H19.6962H19.6028H19.5094H19.416H19.3226H19.2291H19.1357H19.0423H18.9489H18.8555H18.762H18.6686H18.5752V18.1239H18.6686H18.762H18.8555H18.9489H19.0423H19.1357H19.2291H19.3226H19.416H19.5094H19.6028H19.6962H19.7897H19.8831H19.9765H20.0699H20.1634H20.2568H20.3502H20.4436H20.537H20.6305H20.7239H20.8173H20.9107H21.0041H21.0976H21.191H21.2844H21.3778H21.4712H21.5647H21.6581H21.7515H21.8449H21.9384H22.0318H22.1252H22.2186H22.312H22.4055H22.4989H22.5923H22.6857H22.7791H22.8726H22.966H23.0594H23.1528H23.2462H23.3397H23.4331H23.5265V17.0028Z" fill="#5E2EFF"/>
<path d="M23.5265 19.7119H23.4331H23.3397H23.2462H23.1528H23.0594H22.966H22.8726H22.7791H22.6857H22.5923H22.4989H22.4055H22.312H22.2186H22.1252H22.0318H21.9384H21.8449H21.7515H21.6581H21.5647H21.4712H21.3778H21.2844H21.191H21.0976H21.0041H20.9107H20.8173H20.7239H20.6305H20.537H20.4436H20.3502H20.2568H20.1634H20.0699H19.9765H19.8831H19.7897H19.6962H19.6028H19.5094H19.416H19.3226H19.2291H19.1357H19.0423H18.9489H18.8555H18.762H18.6686H18.5752V20.833H18.6686H18.762H18.8555H18.9489H19.0423H19.1357H19.2291H19.3226H19.416H19.5094H19.6028H19.6962H19.7897H19.8831H19.9765H20.0699H20.1634H20.2568H20.3502H20.4436H20.537H20.6305H20.7239H20.8173H20.9107H21.0041H21.0976H21.191H21.2844H21.3778H21.4712H21.5647H21.6581H21.7515H21.8449H21.9384H22.0318H22.1252H22.2186H22.312H22.4055H22.4989H22.5923H22.6857H22.7791H22.8726H22.966H23.0594H23.1528H23.2462H23.3397H23.4331H23.5265V19.7119Z" fill="#5E2EFF"/>
<path d="M9.23208 14.2932H9.13866H9.04524H8.95181H8.85839H8.76497H8.67155H8.57813H8.48471H8.39129H8.29787H8.20445H8.11103H8.0176H7.92418H7.83076H7.73734H7.64392H7.5505H7.45708H7.36366H7.27024H7.17681H7.08339H6.98997H6.89655H6.80313H6.70971H6.61629H6.52287H6.42945H6.33603H6.2426H6.14918H6.05576H5.96234H5.86892H5.7755H5.68208H5.58866H5.49524H5.40182H5.30839H5.21497H5.12155H5.02813H4.93471H4.84129H4.74787H4.65445H4.56103H4.4676H4.37418H4.28076V15.4143H4.37418H4.4676H4.56103H4.65445H4.74787H4.84129H4.93471H5.02813H5.12155H5.21497H5.30839H5.40182H5.49524H5.58866H5.68208H5.7755H5.86892H5.96234H6.05576H6.14918H6.2426H6.33603H6.42945H6.52287H6.61629H6.70971H6.80313H6.89655H6.98997H7.08339H7.17681H7.27024H7.36366H7.45708H7.5505H7.64392H7.73734H7.83076H7.92418H8.0176H8.11103H8.20445H8.29787H8.39129H8.48471H8.57813H8.67155H8.76497H8.85839H8.95181H9.04524H9.13866H9.23208H9.3255V14.2932H9.23208Z" fill="#5E2EFF"/>
<path d="M9.23208 17.0028H9.13866H9.04524H8.95181H8.85839H8.76497H8.67155H8.57813H8.48471H8.39129H8.29787H8.20445H8.11103H8.0176H7.92418H7.83076H7.73734H7.64392H7.5505H7.45708H7.36366H7.27024H7.17681H7.08339H6.98997H6.89655H6.80313H6.70971H6.61629H6.52287H6.42945H6.33603H6.2426H6.14918H6.05576H5.96234H5.86892H5.7755H5.68208H5.58866H5.49524H5.40182H5.30839H5.21497H5.12155H5.02813H4.93471H4.84129H4.74787H4.65445H4.56103H4.4676H4.37418H4.28076V18.1239H4.37418H4.4676H4.56103H4.65445H4.74787H4.84129H4.93471H5.02813H5.12155H5.21497H5.30839H5.40182H5.49524H5.58866H5.68208H5.7755H5.86892H5.96234H6.05576H6.14918H6.2426H6.33603H6.42945H6.52287H6.61629H6.70971H6.80313H6.89655H6.98997H7.08339H7.17681H7.27024H7.36366H7.45708H7.5505H7.64392H7.73734H7.83076H7.92418H8.0176H8.11103H8.20445H8.29787H8.39129H8.48471H8.57813H8.67155H8.76497H8.85839H8.95181H9.04524H9.13866H9.23208H9.3255V17.0028H9.23208Z" fill="#5E2EFF"/>
<path d="M9.23208 19.7119H9.13866H9.04524H8.95181H8.85839H8.76497H8.67155H8.57813H8.48471H8.39129H8.29787H8.20445H8.11103H8.0176H7.92418H7.83076H7.73734H7.64392H7.5505H7.45708H7.36366H7.27024H7.17681H7.08339H6.98997H6.89655H6.80313H6.70971H6.61629H6.52287H6.42945H6.33603H6.2426H6.14918H6.05576H5.96234H5.86892H5.7755H5.68208H5.58866H5.49524H5.40182H5.30839H5.21497H5.12155H5.02813H4.93471H4.84129H4.74787H4.65445H4.56103H4.4676H4.37418H4.28076V20.833H4.37418H4.4676H4.56103H4.65445H4.74787H4.84129H4.93471H5.02813H5.12155H5.21497H5.30839H5.40182H5.49524H5.58866H5.68208H5.7755H5.86892H5.96234H6.05576H6.14918H6.2426H6.33603H6.42945H6.52287H6.61629H6.70971H6.80313H6.89655H6.98997H7.08339H7.17681H7.27024H7.36366H7.45708H7.5505H7.64392H7.73734H7.83076H7.92418H8.0176H8.11103H8.20445H8.29787H8.39129H8.48471H8.57813H8.67155H8.76497H8.85839H8.95181H9.04524H9.13866H9.23208H9.3255V19.7119H9.23208Z" fill="#5E2EFF"/>
</svg>
