<svg width="33" height="20" viewBox="0 0 33 20" fill="none" xmlns="http://www.w3.org/2000/svg">
<path d="M29.4812 11.3138C29.4015 11.3138 29.3218 11.2341 29.1625 11.2341C29.0031 11.0748 29.0031 10.8358 29.1625 10.6764L30.8357 9.00324L29.1625 7.33007C29.0031 7.17072 29.0031 6.93169 29.1625 6.77234C29.3218 6.61299 29.5609 6.61299 29.7202 6.77234L32.0308 8.92356L29.7999 11.1545C29.7202 11.3138 29.6405 11.3138 29.4812 11.3138Z" fill="#6941C6"/>
<path d="M2.5535 11.3138C2.63317 11.3138 2.71285 11.2341 2.8722 11.2341C3.03155 11.0748 3.03155 10.8358 2.8722 10.6764L1.19903 9.00324L2.8722 7.33007C3.03155 7.17072 3.03155 6.93169 2.8722 6.77234C2.71285 6.61299 2.47383 6.61299 2.31448 6.77234L0.00390625 8.92356L2.2348 11.1545C2.39415 11.3138 2.39415 11.3138 2.5535 11.3138Z" fill="#6941C6"/>
<path d="M21.3538 12.5089L10.5977 12.5089L10.5977 13.465L21.3538 13.465L21.3538 12.5089Z" fill="#6941C6"/>
<path d="M21.3538 14.9788L10.5977 14.9788L10.5977 15.9349L21.3538 15.9349L21.3538 14.9788Z" fill="#6941C6"/>
<path d="M21.5946 -0.00012207C20.7181 -0.00012207 10.1214 -0.00012207 10.1214 -0.00012207C8.2092 -0.00012207 7.09375 1.195 7.09375 3.10719L7.17343 16.2535C7.17343 18.1657 8.5279 19.5202 10.4401 19.5202L21.5149 19.5999C23.4271 19.5999 24.8612 18.1657 24.8612 16.2535L24.8612 3.26654C24.8612 1.43402 23.5068 -0.00012207 21.5946 -0.00012207ZM23.6661 16.2535C23.6661 17.5283 22.7897 18.4048 21.5149 18.4048L10.4401 18.4048C9.32464 18.4048 8.5279 17.6877 8.36855 16.7316C8.28887 16.3332 8.28887 12.4291 8.28887 3.66492L8.28887 3.26654C8.28887 1.99175 8.92627 1.11532 10.2807 1.11532L21.5149 1.11532C22.8694 1.11532 23.6661 1.99175 23.6661 3.26654L23.6661 16.2535Z" fill="#6941C6"/>
<path d="M11.4749 10.4373C11.8709 10.4373 12.192 10.1163 12.192 9.72025C12.192 9.32422 11.8709 9.00317 11.4749 9.00317C11.0789 9.00317 10.7578 9.32422 10.7578 9.72025C10.7578 10.1163 11.0789 10.4373 11.4749 10.4373Z" fill="#6941C6"/>
<path d="M14.1038 10.4373C14.4998 10.4373 14.8209 10.1163 14.8209 9.72025C14.8209 9.32422 14.4998 9.00317 14.1038 9.00317C13.7078 9.00317 13.3867 9.32422 13.3867 9.72025C13.3867 10.1163 13.7078 10.4373 14.1038 10.4373Z" fill="#6941C6"/>
<path d="M16.7327 10.4373C17.1287 10.4373 17.4498 10.1163 17.4498 9.72025C17.4498 9.32422 17.1287 9.00317 16.7327 9.00317C16.3367 9.00317 16.0156 9.32422 16.0156 9.72025C16.0156 10.1163 16.3367 10.4373 16.7327 10.4373Z" fill="#6941C6"/>
</svg>
