<svg width="21" height="22" viewBox="0 0 21 22" fill="none" xmlns="http://www.w3.org/2000/svg">
<g clip-path="url(#clip0_2453_33833)">
<path d="M6.67586 17.0843L17.1946 17.0843C17.4284 17.0843 17.6209 16.8918 17.6209 16.6581L17.6209 15.1731L20.5771 7.14306C20.7009 6.84056 20.4809 6.54494 20.1852 6.54494L16.459 6.54494C15.799 5.71307 14.6784 5.22494 13.4409 4.80556C14.0527 4.55806 14.6371 4.26931 15.1252 3.89119C16.3559 2.95619 16.6034 1.83557 16.6034 0.433066C16.6034 0.199316 16.4109 0.00681584 16.1771 0.00681584C15.9434 0.00681584 15.7509 0.199316 15.7509 0.433066C15.7509 1.58807 15.5996 2.46119 14.6165 3.21057C13.9565 3.71244 13.0627 4.05619 12.1484 4.37931C11.1446 4.04931 10.1477 3.70557 9.41898 3.19682C8.35336 2.46119 8.11273 1.62932 8.16086 0.439941C8.16773 0.206191 7.98211 0.00681584 7.74836 -5.91581e-05C7.51461 -0.00693416 7.31523 0.178691 7.30836 0.412441C7.28086 1.05869 7.32898 1.67057 7.56273 2.26182C8.10586 3.62307 9.45336 4.32431 10.8627 4.83994C9.76961 5.25244 8.77961 5.74057 8.19523 6.54494L5.97461 6.54494L5.73398 5.45181C5.35586 4.31056 4.29023 3.54057 3.08711 3.54057L1.16211 3.54057C0.845855 3.54057 0.543355 3.67119 0.337105 3.87744C-0.391645 4.60619 0.12398 5.86431 1.16211 5.86431L3.08711 5.86431C3.32086 5.86431 3.50648 6.00869 3.55461 6.23556L5.41086 14.6162C5.43836 14.7399 5.45211 14.8156 5.43148 14.8637C5.28711 15.1593 4.66836 15.3862 4.25586 16.1631C3.45148 17.6962 4.28336 19.5937 5.98836 19.9856C6.27023 20.0543 6.37336 20.0474 6.65523 20.0543C6.72398 20.8449 7.22586 21.5324 7.96836 21.8418C9.30211 22.3849 10.7802 21.4843 10.9109 20.0543L15.1596 20.0543C15.1802 20.2674 15.2284 20.4806 15.3177 20.6799C15.8952 22.0893 17.724 22.4468 18.7965 21.3743C19.6352 20.5356 19.6352 19.1881 18.7965 18.3562C18.7071 18.2737 18.6109 18.1843 18.5077 18.1156C18.4115 18.0056 18.2877 17.9093 18.1502 17.8474C17.999 17.7787 17.834 17.7374 17.6484 17.7374L6.67586 17.7374C6.46273 17.7374 6.34586 17.6618 6.29086 17.5518C6.20148 17.3524 6.31836 17.0912 6.67586 17.0912L6.67586 17.0843ZM17.7859 18.6724C18.6177 19.0162 18.8584 20.1093 18.2052 20.7693C17.394 21.5737 16.0121 21.0031 16.0121 19.8618C16.0121 18.9406 16.954 18.3218 17.7927 18.6724L17.7859 18.6724ZM15.5927 18.5762C15.4484 18.7618 15.3384 18.9749 15.2696 19.2018L10.8284 19.2018C10.7527 18.9749 10.6427 18.7687 10.5052 18.5762L15.5996 18.5762L15.5927 18.5762ZM9.28148 18.6724C10.1271 19.0162 10.354 20.1162 9.70086 20.7693C8.89648 21.5737 7.50773 21.0031 7.50773 19.8618C7.50773 18.9406 8.44961 18.3218 9.28836 18.6724L9.28148 18.6724ZM12.1277 5.29369C12.1759 5.27994 12.1552 5.27994 12.224 5.30056C13.3171 5.65119 14.4034 6.00182 15.1596 6.54494L9.44648 6.54494C10.134 5.99494 11.124 5.64431 12.1209 5.29369L12.1277 5.29369ZM7.81023 7.39744C7.72773 7.68619 7.66586 7.99556 7.66586 8.35306C7.32898 8.33244 7.09523 8.68994 7.26023 8.99244L7.76211 9.86556C7.92711 10.1474 8.33961 10.1543 8.50461 9.85181L8.99273 8.98556C9.17836 8.66244 8.88273 8.27744 8.51836 8.36681C8.52523 7.99556 8.60773 7.67931 8.74523 7.39744L15.9434 7.39744C16.1015 7.68619 16.1909 8.00931 16.1977 8.38744C15.8196 8.23619 15.469 8.65556 15.6821 9.00619L16.2115 9.86556C16.3834 10.1612 16.7752 10.1474 16.9402 9.88619L17.4902 9.00619C17.6896 8.68994 17.4146 8.29806 17.0502 8.35994C17.0502 8.00244 17.0021 7.68619 16.9059 7.39744L19.5734 7.39744L16.899 14.6712L7.78961 14.6712L6.16711 7.39744L7.80336 7.39744L7.81023 7.39744ZM6.68273 18.5899L7.08836 18.5899C6.94398 18.7756 6.83398 18.9887 6.76523 19.2156C6.54523 19.2156 6.43523 19.2224 6.19461 19.1674C4.72336 18.8237 4.32461 16.9193 5.47961 16.0049C5.89211 15.6818 6.10523 15.4549 6.20836 15.2212C6.34586 14.9393 6.30461 14.7262 6.24273 14.4374L4.37961 6.05681C4.24211 5.43807 3.71273 5.01869 3.08023 5.01869L1.14148 5.01869C0.72898 5.01869 0.72898 4.39306 1.14148 4.39306L3.06648 4.39306C3.52023 4.39306 3.94648 4.54432 4.29023 4.81932C4.55836 5.03244 4.81961 5.38994 4.91586 5.71994L7.01961 15.1662C7.04711 15.3724 7.22586 15.5374 7.44586 15.5374L7.44586 15.5512L16.7684 15.5512L16.7684 16.2593L6.67586 16.2593C5.01898 16.2593 4.98461 18.6037 6.67586 18.6037L6.68273 18.5899Z" fill="#6941C6"/>
</g>
<defs>
<clipPath id="clip0_2453_33833">
<rect width="20.6044" height="22" fill="white"/>
</clipPath>
</defs>
</svg>
