<svg width="50" height="43" viewBox="0 0 50 43" fill="none" xmlns="http://www.w3.org/2000/svg">
<path d="M21.2499 42.4998C9.49995 42.4998 0 32.9998 0 21.2499C0 9.49995 9.49995 0 21.2499 0C24.9999 0 28.4999 0.999995 31.7498 2.74999C32.7498 3.24998 32.9998 4.49998 32.4998 5.49997C31.9998 6.49997 30.7498 6.74997 29.7499 6.24997C27.2499 4.74998 24.2499 3.99998 21.2499 3.99998C11.7499 3.99998 3.99998 11.7499 3.99998 21.2499C3.99998 30.7499 11.7499 38.4998 21.2499 38.4998C25.9999 38.4998 30.4999 36.4998 33.7498 32.9998C34.4998 32.2498 35.7498 32.2498 36.4998 32.9998C37.2498 33.7498 37.2498 34.9998 36.4998 35.7498C32.7498 39.9998 26.9999 42.4998 21.2499 42.4998Z" fill="url(#paint0_radial_80_14)"/>
<path d="M18.75 16.9997L14.25 13.2498C13.5 12.4998 12.25 12.4998 11.5 13.2498C10.75 13.9997 10.75 15.4997 11.5 16.2497L16.25 20.4997C16.5 18.9997 17.5 17.7497 18.75 16.9997Z" fill="#24E2AC"/>
<path d="M44.4999 4.5003C43.7499 3.5003 42.4999 3.5003 41.7499 4.0003L25 17.2502C26 18.0002 27 19.2502 27.25 20.7502L44.2499 7.25029C44.9999 6.50029 45.2499 5.25029 44.4999 4.5003Z" fill="#24E2AC"/>
<path d="M23.4997 18.4998C22.9997 18.2498 22.2497 17.9998 21.7497 17.9998C21.2497 17.9998 20.7497 18.2498 20.2497 18.2498C18.9998 18.9997 17.9998 20.2497 17.9998 21.7497V21.9997C18.2498 23.9997 19.7497 25.4997 21.7497 25.4997C23.7497 25.4997 25.2497 23.9997 25.4997 22.2497C25.4997 21.9997 25.4997 21.9997 25.4997 21.7497C25.4997 20.2497 24.4997 19.2497 23.4997 18.4998Z" fill="#3DEAB5"/>
<path d="M49.5 16.5002H44.5C44.25 16.5002 44 16.7502 44 17.0002V21.5002C44 21.7502 44.25 22.0002 44.5 22.0002H49.5C49.75 22.0002 50 21.7502 50 21.5002V17.2502C50 16.7502 49.75 16.5002 49.5 16.5002Z" fill="#6C62FF"/>
<path d="M40.9997 16.5002H35.9998C35.7498 16.5002 35.4998 16.7502 35.4998 17.0002V21.5002C35.4998 21.7502 35.7498 22.0002 35.9998 22.0002H40.9997C41.2497 22.0002 41.4997 21.7502 41.4997 21.5002V17.2502C41.7497 16.7502 41.2497 16.5002 40.9997 16.5002Z" fill="#CCCCFF"/>
<path d="M40.9997 24.0002H35.9998C35.7498 24.0002 35.4998 24.2502 35.4998 24.5002V29.0002C35.4998 29.2502 35.7498 29.5002 35.9998 29.5002H40.9997C41.2497 29.5002 41.4997 29.2502 41.4997 29.0002V24.5002C41.7497 24.2502 41.2497 24.0002 40.9997 24.0002Z" fill="#CCCCFF"/>
<path d="M49.4992 24.0002H44.4993C44.2493 24.0002 43.9993 24.2502 43.9993 24.5002V29.0002C43.9993 29.2502 44.2493 29.5002 44.4993 29.5002H49.4992C49.7492 29.5002 49.9992 29.2502 49.9992 29.0002V24.5002C49.9992 24.2502 49.7492 24.0002 49.4992 24.0002Z" fill="#CCCCFF"/>
<defs>
<radialGradient id="paint0_radial_80_14" cx="0" cy="0" r="1" gradientUnits="userSpaceOnUse" gradientTransform="translate(35.8498 33.0386) scale(17.5994)">
<stop stop-color="#F3F3FF"/>
<stop offset="0.0892121" stop-color="#E3E2FF"/>
<stop offset="0.3958" stop-color="#B0ACFF"/>
<stop offset="0.6607" stop-color="#8B84FF"/>
<stop offset="0.8709" stop-color="#746CFF"/>
<stop offset="1" stop-color="#6C63FF"/>
</radialGradient>
</defs>
</svg>
