<?xml version="1.0" encoding="utf-8"?>
<!-- Generator: Adobe Illustrator 27.7.0, SVG Export Plug-In . SVG Version: 6.00 Build 0)  -->
<svg height="128" version="1.1" id="Capa_1" xmlns="http://www.w3.org/2000/svg" xmlns:xlink="http://www.w3.org/1999/xlink" x="0px" y="0px"
	 viewBox="0 0 60 60" style="enable-background:new 0 0 60 60;" xml:space="preserve">
<g>
	<path class="st0" d="M57.2,26.8H54v-5.9c0-1.7-1.3-3-3-3h-2.9v-6.4L36.1,0H7.9v10.9H3c-1.7,0-3,1.3-3,3v43.2l0,0.3h0
		c0,0.5,0.2,1,0.6,1.4C1.1,59.6,2,60,2.9,60h44.3c1.3,0,2.4-0.8,2.7-2L60,30.2V30C60,28.1,58.8,26.8,57.2,26.8z M47.4,57.2
		c0,0.1-0.1,0.2-0.3,0.2H2.9c-0.1,0-0.2,0-0.2-0.1c0-0.1-0.1-0.1-0.1-0.1c0,0,0,0,0,0l10.1-27.6l0-0.1c0-0.1,0.1-0.2,0.3-0.2h44.3
		c0.1,0,0.2,0.2,0.2,0.5L47.4,57.2z M7.9,34.9L2.6,49.5V13.9c0-0.2,0.2-0.4,0.4-0.4h4.9V34.9z M45.5,13.3v13.4H12.9
		c-0.2,0-0.3,0-0.5,0c-0.8,0.1-1.5,0.6-1.9,1.3V2.6h23.8L45.5,13.3z M51.5,26.8h-3.4v-6.3H51c0.2,0,0.4,0.2,0.4,0.4V26.8z"/>
	<path class="st0" d="M16.7,15.9h20.7c0.7,0,1.3-0.6,1.3-1.3s-0.6-1.3-1.3-1.3H16.7c-0.7,0-1.3,0.6-1.3,1.3S16,15.9,16.7,15.9z"/>
	<path class="st0" d="M16.7,9h9.9c0.7,0,1.3-0.6,1.3-1.3s-0.6-1.3-1.3-1.3h-9.9c-0.7,0-1.3,0.6-1.3,1.3S16,9,16.7,9z"/>
	<path class="st0" d="M15.4,21.5c0,0.7,0.6,1.3,1.3,1.3h21.2c0.7,0,1.3-0.6,1.3-1.3s-0.6-1.3-1.3-1.3H16.7
		C16,20.3,15.4,20.8,15.4,21.5z"/>
</g>
</svg>
