<svg viewBox="0 0 24 24" xmlns="http://www.w3.org/2000/svg">
<path fill-rule="evenodd" clip-rule="evenodd" d="M5.05546 3.05546C5.57118 2.53973 6.27065 2.25 7 2.25C7.72935 2.25 8.42882 2.53973 8.94454 3.05546C9.46027 3.57118 9.75 4.27065 9.75 5C9.75 5.72935 9.46027 6.42882 8.94454 6.94454C8.42882 7.46027 7.72935 7.75 7 7.75C6.27065 7.75 5.57118 7.46027 5.05546 6.94454C4.53973 6.42882 4.25 5.72935 4.25 5C4.25 4.27065 4.53973 3.57118 5.05546 3.05546ZM7 3.75C6.66848 3.75 6.35054 3.8817 6.11612 4.11612C5.8817 4.35054 5.75 4.66848 5.75 5C5.75 5.33152 5.8817 5.64946 6.11612 5.88388C6.35054 6.1183 6.66848 6.25 7 6.25C7.33152 6.25 7.64946 6.1183 7.88388 5.88388C8.1183 5.64946 8.25 5.33152 8.25 5C8.25 4.66848 8.1183 4.35054 7.88388 4.11612C7.64946 3.8817 7.33152 3.75 7 3.75ZM15.0555 3.05546C15.5712 2.53973 16.2707 2.25 17 2.25C17.7293 2.25 18.4288 2.53973 18.9445 3.05546C19.4603 3.57118 19.75 4.27065 19.75 5C19.75 5.72935 19.4603 6.42882 18.9445 6.94454C18.4288 7.46027 17.7293 7.75 17 7.75C16.2707 7.75 15.5712 7.46027 15.0555 6.94454C14.5397 6.42882 14.25 5.72935 14.25 5C14.25 4.27065 14.5397 3.57118 15.0555 3.05546ZM17 3.75C16.6685 3.75 16.3505 3.8817 16.1161 4.11612C15.8817 4.35054 15.75 4.66848 15.75 5C15.75 5.33152 15.8817 5.64946 16.1161 5.88388C16.3505 6.1183 16.6685 6.25 17 6.25C17.3315 6.25 17.6495 6.1183 17.8839 5.88388C18.1183 5.64946 18.25 5.33152 18.25 5C18.25 4.66848 18.1183 4.35054 17.8839 4.11612C17.6495 3.8817 17.3315 3.75 17 3.75ZM5 10.75C4.66848 10.75 4.35054 10.8817 4.11612 11.1161C3.8817 11.3505 3.75 11.6685 3.75 12V13C3.75 13.4142 3.41421 13.75 3 13.75C2.58579 13.75 2.25 13.4142 2.25 13V12C2.25 11.2707 2.53973 10.5712 3.05546 10.0555C3.57118 9.53973 4.27065 9.25 5 9.25H7C7.41421 9.25 7.75 9.58579 7.75 10C7.75 10.4142 7.41421 10.75 7 10.75H5ZM16.25 10C16.25 9.58579 16.5858 9.25 17 9.25H19C19.7293 9.25 20.4288 9.53973 20.9445 10.0555C21.4603 10.5712 21.75 11.2707 21.75 12V13C21.75 13.4142 21.4142 13.75 21 13.75C20.5858 13.75 20.25 13.4142 20.25 13V12C20.25 11.6685 20.1183 11.3505 19.8839 11.1161C19.6495 10.8817 19.3315 10.75 19 10.75H17C16.5858 10.75 16.25 10.4142 16.25 10ZM10.0555 11.0555C10.5712 10.5397 11.2707 10.25 12 10.25C12.7293 10.25 13.4288 10.5397 13.9445 11.0555C14.4603 11.5712 14.75 12.2707 14.75 13C14.75 13.7293 14.4603 14.4288 13.9445 14.9445C13.4288 15.4603 12.7293 15.75 12 15.75C11.2707 15.75 10.5712 15.4603 10.0555 14.9445C9.53973 14.4288 9.25 13.7293 9.25 13C9.25 12.2707 9.53973 11.5712 10.0555 11.0555ZM12 11.75C11.6685 11.75 11.3505 11.8817 11.1161 12.1161C10.8817 12.3505 10.75 12.6685 10.75 13C10.75 13.3315 10.8817 13.6495 11.1161 13.8839C11.3505 14.1183 11.6685 14.25 12 14.25C12.3315 14.25 12.6495 14.1183 12.8839 13.8839C13.1183 13.6495 13.25 13.3315 13.25 13C13.25 12.6685 13.1183 12.3505 12.8839 12.1161C12.6495 11.8817 12.3315 11.75 12 11.75ZM10 18.75C9.66848 18.75 9.35054 18.8817 9.11612 19.1161C8.8817 19.3505 8.75 19.6685 8.75 20V21C8.75 21.4142 8.41421 21.75 8 21.75C7.58579 21.75 7.25 21.4142 7.25 21V20C7.25 19.2707 7.53973 18.5712 8.05546 18.0555C8.57118 17.5397 9.27065 17.25 10 17.25H14C14.7293 17.25 15.4288 17.5397 15.9445 18.0555C16.4603 18.5712 16.75 19.2707 16.75 20V21C16.75 21.4142 16.4142 21.75 16 21.75C15.5858 21.75 15.25 21.4142 15.25 21V20C15.25 19.6685 15.1183 19.3505 14.8839 19.1161C14.6495 18.8817 14.3315 18.75 14 18.75H10Z"/>
</svg>
