<svg viewBox="0 0 24 24" xmlns="http://www.w3.org/2000/svg">
<path fill-rule="evenodd" clip-rule="evenodd" d="M5.05547 3.05545C5.57119 2.53972 6.27067 2.25 7 2.25H14C14.1989 2.25 14.3897 2.32902 14.5303 2.46967L19.5303 7.46967C19.671 7.61032 19.75 7.80109 19.75 8V19C19.75 19.7293 19.4603 20.4288 18.9445 20.9445C18.4288 21.4603 17.7293 21.75 17 21.75H7C6.27067 21.75 5.57118 21.4603 5.05544 20.9445C4.53973 20.4288 4.25 19.7293 4.25 19V5C4.25 4.27067 4.53972 3.57119 5.05545 3.05547C5.05546 3.05546 5.05546 3.05546 5.05547 3.05545ZM7 3.75C6.66848 3.75 6.35054 3.88169 6.11613 4.11611L6.11611 4.11613C5.88169 4.35054 5.75 4.66848 5.75 5V19C5.75 19.3315 5.88168 19.6494 6.11613 19.8839L5.58633 20.4137L6.11614 19.8839C6.35054 20.1183 6.66847 20.25 7 20.25H17C17.3315 20.25 17.6494 20.1183 17.8839 19.8839C18.1183 19.6494 18.25 19.3315 18.25 19V8.75H15C14.5359 8.75 14.0907 8.56565 13.7625 8.2374L13.7625 8.23738C13.4345 7.90927 13.25 7.46421 13.25 7V3.75H7ZM14.75 4.81066L17.1893 7.25H15C14.9337 7.25 14.8701 7.22364 14.8233 7.17684M14.8233 7.17682C14.7763 7.12986 14.75 7.06622 14.75 7V4.81066M8.25 13C8.25 12.5858 8.58579 12.25 9 12.25H15C15.4142 12.25 15.75 12.5858 15.75 13C15.75 13.4142 15.4142 13.75 15 13.75H9C8.58579 13.75 8.25 13.4142 8.25 13ZM8.25 17C8.25 16.5858 8.58579 16.25 9 16.25H15C15.4142 16.25 15.75 16.5858 15.75 17C15.75 17.4142 15.4142 17.75 15 17.75H9C8.58579 17.75 8.25 17.4142 8.25 17Z"/>
</svg>
