<svg viewBox="0 0 24 24" xmlns="http://www.w3.org/2000/svg">
<path fill-rule="evenodd" clip-rule="evenodd" d="M9.03622 3.59396C10.9859 3.13928 13.0141 3.13929 14.9638 3.59396C16.0881 2.88095 16.9575 2.55477 17.5907 2.41713C17.9333 2.34264 18.2049 2.32382 18.4073 2.32832C18.5083 2.33056 18.5913 2.3386 18.6564 2.34812C18.689 2.35288 18.717 2.35799 18.7405 2.3629C18.7523 2.36536 18.7629 2.36776 18.7723 2.37004L18.7857 2.37336L18.7917 2.37493L18.7946 2.37569L18.796 2.37607C18.7967 2.37625 18.7973 2.37644 18.6 3.10001L18.7973 2.37644C19.0137 2.43543 19.1922 2.58812 19.2841 2.79265C19.756 3.84299 19.8451 5.02024 19.545 6.12212C20.3201 7.07198 20.7488 8.26384 20.75 9.49926V9.50001C20.75 11.955 20.0225 13.6131 18.7909 14.6795C17.8926 15.4573 16.7911 15.8614 15.6856 16.0806C15.6968 16.1284 15.7065 16.177 15.7148 16.2267C15.7636 16.5194 15.7582 16.8667 15.7531 17.2009C15.7515 17.3024 15.75 17.4028 15.75 17.5V21C15.75 21.4142 15.4142 21.75 15 21.75C14.5858 21.75 14.25 21.4142 14.25 21V17.5C14.25 17.3156 14.2522 17.167 14.254 17.043C14.2579 16.7752 14.2601 16.6226 14.2352 16.4733C14.2149 16.3515 14.1777 16.2383 13.9697 16.0303C13.7654 15.8261 13.6966 15.5227 13.7928 15.2504C13.8889 14.978 14.1329 14.785 14.4201 14.7543C15.7702 14.6096 16.9585 14.282 17.8091 13.5455C18.6274 12.837 19.2499 11.6453 19.25 9.50076C19.249 8.50061 18.8587 7.54005 18.1619 6.8225C17.9596 6.61416 17.8958 6.30774 17.998 6.03593C18.2629 5.33187 18.2889 4.56488 18.0797 3.85106C18.0285 3.85894 17.9718 3.86931 17.9093 3.88289C17.444 3.98404 16.6551 4.26469 15.516 5.02405C15.3381 5.14268 15.1179 5.1797 14.911 5.1258C13.0021 4.62867 10.9979 4.62867 9.08902 5.1258C8.88205 5.1797 8.66192 5.14268 8.48397 5.02405C7.34493 4.26469 6.55596 3.98404 6.09067 3.88289C6.02821 3.86931 5.97145 3.85894 5.9203 3.85106C5.71111 4.56486 5.73712 5.33186 6.00198 6.03595C6.10422 6.30777 6.04036 6.61418 5.83804 6.82251C5.14131 7.53996 4.75111 8.50037 4.75 9.50043C4.75008 11.6451 5.37258 12.8369 6.19093 13.5455C7.0415 14.282 8.22979 14.6096 9.5799 14.7543C9.86709 14.785 10.1111 14.978 10.2072 15.2504C10.3034 15.5227 10.2346 15.8261 10.0303 16.0303C9.83032 16.2303 9.75661 16.3971 9.724 16.5666C9.68556 16.7665 9.69517 17.0147 9.74421 17.407C9.74806 17.4378 9.75 17.4689 9.75 17.5V18.9828C9.75027 18.9944 9.75027 19.006 9.75 19.0175V21C9.75 21.4142 9.41421 21.75 9 21.75C8.58578 21.75 8.25 21.4142 8.25 21V19.9647C7.5072 20.0985 6.8592 20.0749 6.28547 19.9145C5.46716 19.6856 4.89333 19.2041 4.45904 18.7046C4.1884 18.3934 3.92526 18.0106 3.70898 17.6959C3.61076 17.553 3.52221 17.4242 3.44701 17.3225C3.15314 16.9252 2.96001 16.77 2.78837 16.7195C2.39099 16.6026 2.1636 16.1858 2.28047 15.7884C2.39735 15.391 2.81424 15.1636 3.21162 15.2805C3.88998 15.48 4.33436 15.9998 4.65299 16.4306C4.79455 16.622 4.91263 16.7952 5.02426 16.959C5.20577 17.2253 5.37025 17.4666 5.59095 17.7204C5.90666 18.0834 6.24534 18.3457 6.68952 18.4699C7.05425 18.5719 7.55137 18.5978 8.25 18.4331V17.5461C8.20192 17.1508 8.16774 16.7163 8.25099 16.2834C8.26437 16.2138 8.28055 16.1453 8.29966 16.0776C7.19907 15.8578 6.10337 15.4538 5.20906 14.6795C3.97747 13.6131 3.25 11.955 3.25 9.50001L3.25 9.49924C3.25126 8.26385 3.67981 7.07199 4.45504 6.1221C4.1549 5.02025 4.24395 3.843 4.71588 2.79264C4.80777 2.58812 4.98634 2.43543 5.20266 2.37644L5.4 3.10001C5.20266 2.37644 5.20334 2.37625 5.20402 2.37607L5.20541 2.37569L5.20827 2.37493L5.2143 2.37336L5.22765 2.37004C5.23712 2.36776 5.24773 2.36536 5.25947 2.3629C5.28298 2.35799 5.31099 2.35288 5.34355 2.34812C5.40874 2.3386 5.49172 2.33056 5.59271 2.32832C5.79511 2.32382 6.06668 2.34264 6.40932 2.41713C7.04247 2.55477 7.91188 2.88095 9.03622 3.59396Z"/>
</svg>
