<svg viewBox="0 0 24 24" xmlns="http://www.w3.org/2000/svg">
<path fill-rule="evenodd" clip-rule="evenodd" d="M11.4697 2.46967C11.7626 2.17678 12.2374 2.17678 12.5303 2.46967L21.5303 11.4697C21.7448 11.6842 21.809 12.0068 21.6929 12.287C21.5768 12.5673 21.3034 12.75 21 12.75H19.75V19C19.75 19.7293 19.4603 20.4288 18.9445 20.9445C18.4288 21.4603 17.7293 21.75 17 21.75H7.00001C6.27068 21.75 5.57118 21.4603 5.05545 20.9445C4.53974 20.4288 4.25001 19.7293 4.25001 19V12.75H3.00001C2.69666 12.75 2.42318 12.5673 2.3071 12.287C2.19101 12.0068 2.25518 11.6842 2.46968 11.4697L11.4697 2.46967ZM4.81067 11.25H5.00001C5.41422 11.25 5.75001 11.5858 5.75001 12V19C5.75001 19.3315 5.88169 19.6494 6.11614 19.8839L5.5858 20.4142L6.11615 19.8839C6.35055 20.1183 6.66848 20.25 7.00001 20.25H17C17.3315 20.25 17.6494 20.1183 17.8839 19.8839C18.1183 19.6494 18.25 19.3315 18.25 19V12C18.25 11.5858 18.5858 11.25 19 11.25H19.1893L12 4.06066L4.81067 11.25ZM9.25001 16C9.25001 15.5858 9.58579 15.25 10 15.25H14C14.4142 15.25 14.75 15.5858 14.75 16C14.75 16.4142 14.4142 16.75 14 16.75H10C9.58579 16.75 9.25001 16.4142 9.25001 16Z"/>
</svg>
