<svg viewBox="0 0 24 24" xmlns="http://www.w3.org/2000/svg">
<path fill-rule="evenodd" clip-rule="evenodd" d="M14.25 4C14.25 3.58579 14.5858 3.25 15 3.25H20C20.4142 3.25 20.75 3.58579 20.75 4V9C20.75 9.41421 20.4142 9.75 20 9.75C19.5858 9.75 19.25 9.41421 19.25 9V5.81066L11.5303 13.5303C11.2374 13.8232 10.7626 13.8232 10.4697 13.5303C10.1768 13.2374 10.1768 12.7626 10.4697 12.4697L18.1893 4.75H15C14.5858 4.75 14.25 4.41421 14.25 4ZM4.05547 6.05545C4.57119 5.53972 5.27067 5.25 6 5.25H12C12.4142 5.25 12.75 5.58579 12.75 6C12.75 6.41421 12.4142 6.75 12 6.75H6C5.66848 6.75 5.35054 6.88169 5.11613 7.11611L5.11611 7.11613C4.88169 7.35054 4.75 7.66848 4.75 8V18C4.75 18.3315 4.88168 18.6494 5.11613 18.8839L5.11614 18.8839C5.35054 19.1183 5.66847 19.25 6 19.25H16C16.3315 19.25 16.6494 19.1183 16.8839 18.8839C17.1183 18.6494 17.25 18.3315 17.25 18V12C17.25 11.5858 17.5858 11.25 18 11.25C18.4142 11.25 18.75 11.5858 18.75 12V18C18.75 18.7293 18.4603 19.4288 17.9445 19.9445C17.4288 20.4603 16.7293 20.75 16 20.75H6C5.27067 20.75 4.57118 20.4603 4.05545 19.9445C3.53974 19.4288 3.25 18.7293 3.25 18V8C3.25 7.27067 3.53972 6.57119 4.05545 6.05547C4.05546 6.05546 4.05546 6.05546 4.05547 6.05545Z"/>
</svg>
