<svg width="24" height="24" viewBox="0 0 24 24" fill="none" xmlns="http://www.w3.org/2000/svg">
<path d="M3.66624 24C1.64027 24 0.00390625 22.3636 0.00390625 20.3377L0.00390625 3.66234C0.00390625 1.63636 1.64027 0 3.66624 1.54836e-10L20.3416 8.59835e-10C22.3675 9.4549e-10 24.0039 1.63636 24.0039 3.66234L24.0039 20.3377C24.0039 22.3636 22.3675 24 20.3416 24L3.66624 24ZM2.41949 22.5195L2.73118 22.6753C3.04287 22.8312 3.35456 22.8312 3.66624 22.8312L20.3416 22.8312C20.6533 22.8312 20.9649 22.7532 21.2766 22.6753L21.5883 22.5195L12.0039 12.8571L2.41949 22.5195ZM3.66624 1.24675C2.34157 1.24675 1.25066 2.33766 1.25066 3.66234L1.25066 20.3377C1.25066 20.6494 1.32858 20.961 1.4065 21.2727L1.56235 21.5844L14.7312 8.41559L14.6533 8.25974C13.952 6.93506 13.6403 5.92208 13.6403 5.14286C13.6403 3.81818 14.1857 2.57143 15.0429 1.55844L15.4325 1.16883L3.66624 1.16883L3.66624 1.24675ZM12.8611 12L22.4455 21.5844L22.6013 21.2727C22.7572 20.961 22.7572 20.6494 22.7572 20.3377L22.7572 8.64935L22.2896 9.42857C21.0429 11.5325 19.5623 13.5584 19.2507 13.9481C19.0948 14.1039 18.939 14.1818 18.7831 14.1818C18.6273 14.1818 18.3935 14.1039 18.3156 13.9481C18.0818 13.6364 16.6792 11.8442 15.5104 9.81818L15.3546 9.58442L12.8611 12ZM18.861 1.24675C16.6792 1.24675 14.887 3.03896 14.887 5.22078C14.887 7.01299 18.0039 11.4545 18.7052 12.3117L18.861 12.5455L19.0169 12.3117C19.6403 11.4545 22.8351 7.01299 22.8351 5.22078C22.8351 3.03896 21.0429 1.24675 18.861 1.24675Z" fill="#6941C6"/>
<path d="M7.0172 10.5984C4.9133 10.5984 3.12109 8.88407 3.12109 6.70226C3.12109 4.52044 4.83538 2.80615 7.0172 2.80615C8.03018 2.80615 9.04317 3.19576 9.74447 3.97498C9.82239 4.05291 9.90031 4.20875 9.90031 4.44252C9.90031 4.67628 9.82239 4.7542 9.74447 4.91005C9.66655 4.98797 9.5107 5.06589 9.27694 5.06589C9.04317 5.06589 8.96525 4.98797 8.80941 4.91005C8.34187 4.44252 7.64057 4.13083 6.93927 4.13083C5.45876 4.13083 4.28992 5.29966 4.28992 6.78018C4.28992 8.2607 5.45876 9.42953 6.93927 9.42953C8.03018 9.42953 9.04317 8.72823 9.43278 7.71524L9.58863 7.40355L7.0172 7.40355C6.70551 7.40355 6.39382 7.09187 6.39382 6.78018C6.39382 6.46849 6.70551 6.1568 7.0172 6.1568L10.212 6.1568C10.5237 6.1568 10.8354 6.46849 10.8354 6.78018C10.8354 8.88407 9.12109 10.5984 7.0172 10.5984Z" fill="#6941C6"/>
</svg>
