<svg width="21" height="24" viewBox="0 0 21 24" fill="none" xmlns="http://www.w3.org/2000/svg">
<path fill-rule="evenodd" clip-rule="evenodd" d="M3.98438 23.8796C4.30765 23.9525 4.64397 23.991 4.98928 23.991H14.053C17.6239 23.991 20.5188 21.0959 20.5188 17.5246C20.5188 14.6295 18.6165 12.1788 15.9938 11.3545L3.98438 23.8796Z" fill="#6E58F7"/>
<path d="M0 4.28153C0 1.91691 1.91671 0 4.28109 0H14.3195C16.6839 0 18.6006 1.91691 18.6006 4.28153V9.77449C18.6006 10.9178 18.1434 12.0135 17.3309 12.8177L7.29246 22.7531C4.58915 25.4287 0 23.5136 0 19.7099V4.28153Z" fill="url(#paint0_linear_1518_16420)"/>
<path d="M8.26562 6.42237C8.26562 5.07698 9.35617 3.98633 10.7014 3.98633H18.5993V8.85842H10.7014C9.35617 8.85842 8.26562 7.76776 8.26562 6.42237Z" fill="white"/>
<path d="M10.7611 7.60344C11.3734 7.60344 11.8698 7.07464 11.8698 6.42233C11.8698 5.77001 11.3734 5.24121 10.7611 5.24121C10.1487 5.24121 9.65234 5.77001 9.65234 6.42233C9.65234 7.07464 10.1487 7.60344 10.7611 7.60344Z" fill="#6E58F7"/>
<defs>
<linearGradient id="paint0_linear_1518_16420" x1="2.62042" y1="21.6552" x2="18.6027" y2="0.001578" gradientUnits="userSpaceOnUse">
<stop stop-color="#A293FF"/>
<stop offset="1" stop-color="#6E58F7"/>
</linearGradient>
</defs>
</svg>
