<svg width="32" height="33" viewBox="0 0 32 33" fill="none" xmlns="http://www.w3.org/2000/svg">
<rect y="0.5" width="32" height="32" rx="8" fill="white"/>
<g clip-path="url(#clip0_2035_41413)">
<path d="M10 8C10.2449 8.00003 10.4813 8.08996 10.6644 8.25272C10.8474 8.41547 10.9643 8.63975 10.993 8.883L11 9V12.171C11.5848 12.378 12.0912 12.7612 12.4492 13.2678C12.8073 13.7744 12.9996 14.3796 12.9996 15C12.9996 15.6204 12.8073 16.2256 12.4492 16.7322C12.0912 17.2388 11.5848 17.622 11 17.829V25C10.9997 25.2549 10.9021 25.5 10.7272 25.6854C10.5522 25.8707 10.313 25.9822 10.0586 25.9972C9.80416 26.0121 9.55362 25.9293 9.35817 25.7657C9.16271 25.6021 9.0371 25.3701 9.007 25.117L9 25V17.83C8.44328 17.6329 7.95706 17.276 7.6022 16.8039C7.24734 16.3318 7.0396 15.7656 7.005 15.176L7 15L7.005 14.824C7.0396 14.2344 7.24734 13.6682 7.6022 13.1961C7.95706 12.724 8.44328 12.3671 9 12.17V9C9 8.73478 9.10536 8.48043 9.29289 8.29289C9.48043 8.10536 9.73478 8 10 8Z" fill="#475467"/>
<path d="M16 8C16.2449 8.00003 16.4813 8.08996 16.6644 8.25272C16.8474 8.41547 16.9643 8.63975 16.993 8.883L17 9V18.171C17.5848 18.378 18.0912 18.7612 18.4492 19.2678C18.8073 19.7744 18.9996 20.3796 18.9996 21C18.9996 21.6204 18.8073 22.2256 18.4492 22.7322C18.0912 23.2388 17.5848 23.622 17 23.829V25C16.9997 25.2549 16.9021 25.5 16.7272 25.6854C16.5522 25.8707 16.313 25.9822 16.0586 25.9972C15.8042 26.0121 15.5536 25.9293 15.3582 25.7657C15.1627 25.6021 15.0371 25.3701 15.007 25.117L15 25V23.83C14.4433 23.6329 13.9571 23.276 13.6022 22.8039C13.2473 22.3318 13.0396 21.7656 13.005 21.176L13 21L13.005 20.824C13.0396 20.2344 13.2473 19.6682 13.6022 19.1961C13.9571 18.724 14.4433 18.3671 15 18.17V9C15 8.73478 15.1054 8.48043 15.2929 8.29289C15.4804 8.10536 15.7348 8 16 8Z" fill="#475467"/>
<path d="M22 8C22.2449 8.00003 22.4813 8.08996 22.6644 8.25272C22.8474 8.41547 22.9643 8.63975 22.993 8.883L23 9V9.171C23.5848 9.37802 24.0912 9.7612 24.4492 10.2678C24.8073 10.7744 24.9996 11.3796 24.9996 12C24.9996 12.6204 24.8073 13.2256 24.4492 13.7322C24.0912 14.2388 23.5848 14.622 23 14.829V25C22.9997 25.2549 22.9021 25.5 22.7272 25.6854C22.5522 25.8707 22.313 25.9822 22.0586 25.9972C21.8042 26.0121 21.5536 25.9293 21.3582 25.7657C21.1627 25.6021 21.0371 25.3701 21.007 25.117L21 25V14.83C20.4433 14.6329 19.9571 14.276 19.6022 13.8039C19.2473 13.3318 19.0396 12.7656 19.005 12.176L19 12L19.005 11.824C19.0396 11.2344 19.2473 10.6682 19.6022 10.1961C19.9571 9.72401 20.4433 9.36709 21 9.17V9C21 8.73478 21.1054 8.48043 21.2929 8.29289C21.4804 8.10536 21.7348 8 22 8Z" fill="#475467"/>
</g>
<defs>
<clipPath id="clip0_2035_41413">
<rect width="24" height="24" fill="white" transform="translate(4 5)"/>
</clipPath>
</defs>
</svg>
