<svg width="182" height="66" viewBox="0 0 182 66" fill="none" xmlns="http://www.w3.org/2000/svg">
    <path d="M86.0496 32.0321C84.8848 31.1221 84.2296 29.8117 84.084 28.1373H85.5036C86.3408 28.1373 86.8868 28.1737 87.2144 28.2829C87.5056 28.3921 87.724 28.5741 87.8332 28.8289C88.0516 29.3385 88.3792 29.7025 88.8524 29.9209C89.3256 30.1757 89.9808 30.2849 90.818 30.2849C91.6188 30.2849 92.2376 30.1393 92.6744 29.8845C93.1112 29.6297 93.3296 29.2293 93.3296 28.7197C93.3296 28.1009 93.0384 27.6641 92.456 27.3729C91.8736 27.0817 91 26.7905 89.8352 26.4993C88.7432 26.2081 87.8696 25.9533 87.178 25.6621C86.4864 25.3709 85.904 24.9705 85.4308 24.4245C84.9212 23.8785 84.7028 23.1141 84.7028 22.2405C84.7028 20.8937 85.2124 19.8017 86.1952 19.0373C87.178 18.2729 88.5248 17.8725 90.2356 17.8725C91.9828 17.8725 93.366 18.3093 94.3852 19.1465C95.4044 19.9837 96.0232 21.1849 96.2052 22.7501L92.7108 22.6409C92.6016 21.9857 92.3832 21.5489 91.9828 21.2941C91.5824 21.0393 91 20.8937 90.1992 20.8937C88.816 20.8937 88.1244 21.3305 88.1244 22.2041C88.1244 22.6409 88.3792 23.0049 88.8524 23.2597C89.362 23.5145 90.1264 23.7693 91.2548 24.0605C92.4196 24.3517 93.366 24.6793 94.094 24.9705C94.822 25.2617 95.4772 25.7349 95.9868 26.3173C96.5328 26.9361 96.7876 27.7369 96.7876 28.7197C96.7876 30.2121 96.2416 31.3769 95.186 32.2141C94.094 33.0877 92.638 33.5245 90.7816 33.5245C88.7796 33.4153 87.2144 32.9785 86.0496 32.0321Z" fill="#1C0049"/>
    <path d="M100.864 32.0321C99.6992 31.1221 99.044 29.8117 98.8984 28.1373H100.318C101.155 28.1373 101.701 28.1737 102.029 28.2829C102.32 28.3921 102.538 28.5741 102.648 28.8289C102.866 29.3385 103.194 29.7025 103.667 29.9209C104.14 30.1757 104.795 30.2849 105.632 30.2849C106.433 30.2849 107.052 30.1393 107.489 29.8845C107.926 29.6297 108.144 29.2293 108.144 28.7197C108.144 28.1009 107.853 27.6641 107.27 27.3729C106.688 27.0817 105.814 26.7905 104.65 26.4993C103.558 26.2081 102.684 25.9533 101.992 25.6621C101.301 25.3709 100.718 24.9705 100.245 24.4245C99.7356 23.8785 99.5172 23.1141 99.5172 22.2405C99.5172 20.8937 100.027 19.8017 101.01 19.0373C101.992 18.2729 103.339 17.8725 105.05 17.8725C106.797 17.8725 108.18 18.3093 109.2 19.1465C110.219 19.9837 110.838 21.1849 111.02 22.7501L107.525 22.6409C107.416 21.9857 107.198 21.5489 106.797 21.2941C106.397 21.0393 105.814 20.8937 105.014 20.8937C103.63 20.8937 102.939 21.3305 102.939 22.2041C102.939 22.6409 103.194 23.0049 103.667 23.2597C104.176 23.5145 104.941 23.7693 106.069 24.0605C107.234 24.3517 108.18 24.6793 108.908 24.9705C109.636 25.2617 110.292 25.7349 110.801 26.3173C111.347 26.9361 111.602 27.7369 111.602 28.7197C111.602 30.2121 111.056 31.3769 110 32.2141C108.908 33.0877 107.452 33.5245 105.596 33.5245C103.594 33.4153 102.029 32.9785 100.864 32.0321Z" fill="#1C0049"/>
    <path d="M130.13 33.2697V18.0181H132.496C132.751 18.0181 133.005 18.0909 133.187 18.2729C133.369 18.4549 133.515 19.1101 133.551 19.4013C134.571 18.6005 135.808 18.1637 137.301 18.1637C138.939 18.1637 140.213 18.6005 141.123 19.5105C142.033 20.3841 142.506 21.6217 142.506 23.1869V33.3789H139.048V23.3689C139.048 22.6773 138.829 22.1677 138.429 21.8037C138.029 21.4397 137.41 21.2577 136.609 21.2577C135.699 21.2577 134.971 21.5489 134.389 22.1313C133.806 22.7137 133.551 23.4417 133.551 24.3517V33.2697H130.13Z" fill="#1C0049"/>
    <path d="M146.291 21.112H145.417C145.09 21.112 144.798 21.0028 144.616 20.748C144.434 20.5296 144.325 20.0564 144.325 19.4012V18.0544H146.291V13.1768H149.749V18.0908H152.37V21.112H149.749V29.5933C149.749 29.8481 149.785 29.9937 149.894 30.0665C149.967 30.1392 150.186 30.1757 150.477 30.1757C151.132 30.1757 151.605 30.2485 151.896 30.3577C152.188 30.4669 152.333 30.7945 152.333 31.3041V33.0148C151.46 33.2332 150.695 33.3424 150.04 33.3424C148.875 33.3424 147.965 33.0513 147.31 32.5053C146.655 31.9593 146.327 31.1584 146.327 30.0665V21.112H146.291Z" fill="#1C0049"/>
    <path d="M157.976 16.9624C157.175 16.9624 156.483 16.7076 155.974 16.1616C155.428 15.6156 155.173 14.9604 155.173 14.1596V13.1768H157.575C157.866 13.1768 158.121 13.286 158.34 13.5044C158.558 13.7228 158.667 13.9776 158.667 14.2688V16.9988H157.976V16.9624ZM158.667 33.2696H155.246V18.0544H158.667V33.2696Z" fill="#1C0049"/>
    <path d="M161.47 26.2445C162.089 25.5529 162.817 25.0797 163.654 24.8249C164.491 24.5337 165.547 24.3153 166.784 24.1333C167.803 23.9877 168.531 23.8057 168.968 23.6237C169.441 23.4417 169.66 23.1505 169.66 22.7865C169.66 21.6217 168.859 21.0393 167.257 21.0393C166.275 21.0393 165.583 21.2213 165.146 21.6217C164.709 22.0221 164.491 22.6409 164.491 23.5509L161.142 23.9877C160.997 22.1677 161.506 20.7481 162.635 19.6925C163.763 18.6369 165.292 18.1273 167.221 18.1273C169.077 18.1273 170.497 18.5641 171.443 19.4013C172.426 20.2385 172.899 21.4761 172.899 23.1141V29.5569C172.899 29.9209 172.936 30.1757 173.009 30.3577C173.081 30.5397 173.263 30.9037 173.591 31.4861C173.664 31.6317 173.773 31.8137 173.919 32.0685C174.064 32.3233 174.21 32.6145 174.428 33.0149C173.882 33.3061 173.3 33.4517 172.645 33.4517C172.062 33.4517 171.553 33.3425 171.079 33.0877C170.606 32.8693 170.242 32.5053 169.987 32.0321C168.859 33.0877 167.476 33.5973 165.765 33.5973C164.163 33.5973 162.889 33.1969 161.943 32.3961C160.997 31.5953 160.523 30.5033 160.523 29.1565C160.523 27.8825 160.851 26.9361 161.47 26.2445ZM164.6 30.2121C164.928 30.4669 165.474 30.5761 166.238 30.5761C167.439 30.5761 168.313 30.1393 168.859 29.2657C169.405 28.3921 169.696 27.4093 169.696 26.2809C169.005 26.5357 168.204 26.7541 167.367 26.9361C166.347 27.1545 165.547 27.4821 164.964 27.8461C164.382 28.2101 164.091 28.6105 164.091 29.0473C164.091 29.5569 164.273 29.9573 164.6 30.2121Z" fill="#1C0049"/>
    <path d="M179.634 33.2696H176.176V13.1768H179.597V33.2696H179.634Z" fill="#1C0049"/>
    <path d="M75.3114 29.7753V24.4973H80.3346C80.4438 24.4973 80.5166 24.4245 80.5166 24.3153V21.3669C80.5166 21.2577 80.4438 21.1849 80.3346 21.1849H75.3114V16.5257H81.9362C82.0454 16.5257 82.1546 16.4165 82.1546 16.3073V13.1405H72.0718C71.817 13.1405 71.5986 13.3589 71.5986 13.6137V33.2697H82.1546V29.9209C82.1546 29.8481 82.0818 29.7753 82.009 29.7753H75.3114Z" fill="#1C0049"/>
    <path d="M124.634 28.2465C124.27 28.2465 123.942 28.4649 123.76 28.7925C123.214 29.7753 122.304 30.2485 120.921 30.2485C119.938 30.2485 119.137 29.9573 118.482 29.3385C117.863 28.7197 117.463 27.8461 117.281 26.7541H127.691C127.764 25.0433 127.546 23.5145 127.036 22.1677C126.527 20.8209 125.762 19.7289 124.707 18.9645C123.651 18.2001 122.341 17.7997 120.812 17.7997C119.465 17.7997 118.227 18.1273 117.135 18.8189C116.043 19.5105 115.206 20.4205 114.624 21.6217C114.005 22.8229 113.714 24.1333 113.714 25.6257C113.714 27.0817 114.005 28.392 114.624 29.5569C115.206 30.758 116.08 31.7045 117.135 32.3961C118.227 33.0877 119.501 33.4153 120.921 33.4153C122.777 33.4153 124.27 32.9057 125.435 31.8501C126.417 30.9401 127.073 29.7753 127.4 28.2829H124.634V28.2465ZM118.628 21.5489C119.21 21.0393 119.938 20.7845 120.812 20.7845C122.632 20.7845 123.724 21.8037 124.051 23.8421H117.39C117.645 22.8229 118.045 22.0949 118.628 21.5489Z" fill="#1C0049"/>
    <path d="M127.509 43.0613H127.437C126.745 42.0057 125.726 41.4597 124.379 41.4597C123.032 41.4597 121.904 42.0057 121.03 43.0613C120.157 44.1169 119.72 45.5001 119.72 47.2109C119.72 48.9581 120.157 50.3413 120.994 51.3969C121.831 52.4525 122.959 52.9621 124.306 52.9621C125.762 52.9621 126.854 52.3797 127.546 51.2149H127.582V52.6345H130.349V37.4921H127.473V43.0613H127.509ZM126.927 49.6497C126.49 50.2321 125.835 50.5233 124.998 50.5233C124.27 50.5233 123.687 50.2321 123.287 49.6497C122.887 49.0673 122.668 48.2665 122.668 47.1745C122.668 46.1553 122.887 45.3181 123.287 44.6993C123.687 44.0805 124.306 43.7529 125.071 43.7529C126.745 43.7529 127.582 44.9177 127.582 47.2109C127.582 48.3029 127.364 49.1037 126.927 49.6497Z" fill="#1C0049"/>
    <path d="M140.14 43.0613H140.067C139.376 42.0057 138.357 41.4597 137.01 41.4597C135.663 41.4597 134.535 42.0057 133.661 43.0613C132.787 44.1169 132.351 45.5001 132.351 47.2109C132.351 48.9581 132.787 50.3413 133.625 51.3969C134.462 52.4525 135.59 52.9621 136.937 52.9621C138.393 52.9621 139.485 52.3797 140.177 51.2149H140.213V52.6345H142.979V37.4921H140.14V43.0613ZM139.521 49.6497C139.085 50.2321 138.429 50.5233 137.592 50.5233C136.864 50.5233 136.282 50.2321 135.881 49.6497C135.481 49.0673 135.263 48.2665 135.263 47.1745C135.263 46.1553 135.481 45.3181 135.881 44.6993C136.282 44.0805 136.901 43.7529 137.665 43.7529C139.339 43.7529 140.177 44.9177 140.177 47.2109C140.177 48.3029 139.958 49.1037 139.521 49.6497Z" fill="#1C0049"/>
    <path d="M150.623 41.4597C148.948 41.4597 147.602 42.0057 146.546 43.0977C145.49 44.1897 144.944 45.5729 144.944 47.2109C144.944 48.8489 145.49 50.2321 146.546 51.3241C147.602 52.4161 148.985 52.9621 150.623 52.9621C152.297 52.9621 153.644 52.4161 154.7 51.3241C155.755 50.2321 156.301 48.8489 156.301 47.2109C156.301 45.5729 155.755 44.1897 154.7 43.0977C153.644 42.0057 152.297 41.4597 150.623 41.4597ZM152.661 49.7953C152.188 50.4505 151.496 50.7417 150.623 50.7417C149.749 50.7417 149.058 50.4141 148.584 49.7953C148.111 49.1401 147.856 48.3029 147.856 47.2109C147.856 46.1189 148.111 45.2453 148.584 44.6265C149.058 43.9713 149.749 43.6801 150.623 43.6801C151.496 43.6801 152.152 44.0077 152.661 44.6629C153.134 45.3181 153.389 46.1917 153.389 47.2473C153.389 48.2665 153.134 49.1401 152.661 49.7953Z" fill="#1C0049"/>
    <path d="M164.345 41.4597C162.962 41.4597 161.87 42.0421 161.142 43.2433H161.069V41.7509H158.267V52.6345H161.142V46.4829C161.142 45.7549 161.361 45.1361 161.761 44.6993C162.161 44.2261 162.707 44.0077 163.326 44.0077C163.909 44.0077 164.382 44.1897 164.709 44.5537C165.037 44.9177 165.219 45.3909 165.219 46.0097V52.6709H168.095V45.5729C168.095 44.3717 167.731 43.3889 167.039 42.6245C166.384 41.8601 165.474 41.4597 164.345 41.4597Z" fill="#1C0049"/>
    <path d="M179.233 48.1573C179.087 47.7933 178.869 47.502 178.651 47.2836C178.432 47.0652 178.141 46.8833 177.741 46.7013C177.377 46.5193 177.013 46.4101 176.721 46.3373C176.43 46.2645 176.066 46.1552 175.593 46.0824C175.447 46.046 175.229 46.0097 174.974 45.9732C174.719 45.9369 174.501 45.864 174.355 45.8276C174.21 45.7912 174.028 45.7548 173.809 45.7184C173.591 45.682 173.445 45.6092 173.336 45.5728C173.227 45.5364 173.118 45.4636 172.972 45.3908C172.863 45.318 172.754 45.2088 172.717 45.0996C172.681 44.9904 172.645 44.8812 172.645 44.7356C172.645 44.3716 172.827 44.044 173.154 43.862C173.482 43.6436 173.955 43.5344 174.537 43.5344C175.811 43.5344 176.539 44.0804 176.649 45.136H179.269C179.16 44.0076 178.687 43.1341 177.886 42.5152C177.085 41.86 175.993 41.5688 174.574 41.5688C173.263 41.5688 172.208 41.86 171.371 42.4424C170.533 43.0248 170.133 43.8984 170.133 45.0268C170.133 45.6092 170.242 46.0824 170.424 46.4828C170.643 46.8832 170.934 47.2109 171.334 47.4293C171.735 47.6477 172.135 47.8297 172.499 47.9753C172.863 48.0845 173.373 48.1937 173.955 48.3393C174.064 48.3757 174.283 48.4121 174.574 48.4485C174.865 48.4849 175.083 48.5212 175.193 48.5576C175.302 48.594 175.484 48.6304 175.702 48.6668C175.921 48.7396 176.103 48.776 176.175 48.8488C176.285 48.9216 176.357 48.9945 176.503 49.0673C176.612 49.1765 176.721 49.2493 176.758 49.3585C176.794 49.4677 176.831 49.6133 176.831 49.7225C176.831 50.0865 176.649 50.4141 176.321 50.6325C175.957 50.8509 175.484 50.96 174.865 50.96C173.482 50.96 172.681 50.3777 172.499 49.1765H169.842C169.915 50.3777 170.424 51.2877 171.298 51.9793C172.171 52.6709 173.373 52.9985 174.938 52.9985C176.321 52.9985 177.413 52.6708 178.25 52.052C179.087 51.4332 179.524 50.5596 179.524 49.504C179.488 48.958 179.415 48.5213 179.233 48.1573Z" fill="#1C0049"/>
    <path d="M113.713 37.4921H110.546L108.763 42.5881H111.42C111.748 41.4597 112.002 40.6225 112.075 40.3677H112.112L115.824 52.6345H119.028L113.713 37.4921Z" fill="#1C0049"/>
    <path d="M71.8896 46.9925C71.744 46.9925 71.6348 47.1017 71.6348 47.2109V49.3949C71.6348 49.5041 71.744 49.6133 71.8896 49.6133H112.548L113.349 46.9925H71.8896Z" fill="url(#paint0_linear_2130_422)"/>
    <path d="M8.33474 11.7209C13.4307 6.66132 20.7471 6.07892 29.6651 6.07892C38.6195 6.07892 45.9359 6.66132 51.0319 11.7209C56.1279 16.7805 56.6011 24.0969 56.6011 33.0513C56.6011 42.0057 56.0551 49.3221 51.0319 54.3817C45.9359 59.4777 38.6195 59.9509 29.6651 59.9509C20.7107 59.9509 13.3943 59.4049 8.29834 54.3817C3.20234 49.2857 2.72914 41.9693 2.72914 33.0513C2.69274 24.0969 3.23874 16.7805 8.33474 11.7209Z" fill="#6F0AF2"/>
    <path opacity="0.65" d="M29.6655 53.6173C44.5418 53.6173 56.6015 44.4096 56.6015 33.0513C56.6015 21.693 44.5418 12.4853 29.6655 12.4853C14.7892 12.4853 2.72949 21.693 2.72949 33.0513C2.72949 44.4096 14.7892 53.6173 29.6655 53.6173Z" fill="url(#paint1_linear_2130_422)"/>
    <path opacity="0.65" d="M29.6655 53.6173C44.5418 53.6173 56.6015 44.4096 56.6015 33.0513C56.6015 21.693 44.5418 12.4853 29.6655 12.4853C14.7892 12.4853 2.72949 21.693 2.72949 33.0513C2.72949 44.4096 14.7892 53.6173 29.6655 53.6173Z" fill="url(#paint2_linear_2130_422)"/>
    <path opacity="0.8" d="M41.7866 20.9301C53.5802 32.7237 57.6934 47.6841 50.9958 54.3817C44.2982 61.0793 29.3378 56.9297 17.5442 45.1725C5.7506 33.4153 1.6738 18.4185 8.3714 11.7209C15.069 5.0233 29.993 9.1729 41.7866 20.9301Z" fill="url(#paint3_linear_2130_422)"/>
    <path opacity="0.3" d="M41.7866 20.9301C53.5802 32.7237 57.6934 47.6841 50.9958 54.3817C44.2982 61.0793 29.3378 56.9297 17.5442 45.1725C5.7506 33.4153 1.6738 18.4185 8.3714 11.7209C15.069 5.0233 29.993 9.1729 41.7866 20.9301Z" fill="url(#paint4_linear_2130_422)"/>
    <path opacity="0.4" d="M41.7866 20.9301C53.5802 32.7237 57.6934 47.6841 50.9958 54.3817C44.2982 61.0793 29.3378 56.9297 17.5442 45.1725C5.7506 33.4153 1.6738 18.4185 8.3714 11.7209C15.069 5.0233 29.993 9.1729 41.7866 20.9301Z" fill="url(#paint5_linear_2130_422)"/>
    <path opacity="0.3" d="M41.7866 20.9301C53.5802 32.7237 57.6934 47.6841 50.9958 54.3817C44.2982 61.0793 29.3378 56.9297 17.5442 45.1725C5.7506 33.4153 1.6738 18.4185 8.3714 11.7209C15.069 5.0233 29.993 9.1729 41.7866 20.9301Z" fill="url(#paint6_linear_2130_422)"/>
    <path opacity="0.9" d="M18.9274 22.2769C7.17015 34.0341 2.69295 48.7033 8.99015 54.9641C15.2874 61.2249 29.9202 56.7841 41.6774 45.0269C53.4346 33.2697 57.9118 18.6005 51.6146 12.3397C45.3174 6.07891 30.6846 10.5197 18.9274 22.2769Z" fill="url(#paint7_linear_2130_422)"/>
    <path opacity="0.9" d="M18.9274 22.2769C7.17015 34.0341 2.69295 48.7033 8.99015 54.9641C15.2874 61.2249 29.9202 56.7841 41.6774 45.0269C53.4346 33.2697 57.9118 18.6005 51.6146 12.3397C45.3174 6.07891 30.6846 10.5197 18.9274 22.2769Z" fill="url(#paint8_linear_2130_422)"/>
    <path opacity="0.9" d="M18.9274 22.2769C7.17015 34.0341 2.69295 48.7033 8.99015 54.9641C15.2874 61.2249 29.9202 56.7841 41.6774 45.0269C53.4346 33.2697 57.9118 18.6005 51.6146 12.3397C45.3174 6.07891 30.6846 10.5197 18.9274 22.2769Z" fill="url(#paint9_linear_2130_422)"/>
    <path d="M16.4897 26.9361H26.1721C27.2277 26.9361 28.1013 26.0625 28.1013 25.0069C28.1013 23.9513 27.2277 23.0777 26.1721 23.0777H16.4897C15.4341 23.0777 14.5605 23.9513 14.5605 25.0069C14.6333 26.0989 15.4705 26.9361 16.4897 26.9361Z" fill="white"/>
    <path d="M40.3318 31.9228L36.5098 24.3881C35.7454 22.9321 33.7434 22.8228 33.0518 24.3881L26.063 38.1837C25.7354 38.8025 25.1166 39.2393 24.3886 39.2393H16.7082C15.689 39.2393 14.8154 39.9673 14.7426 40.9865C14.6334 42.1513 15.507 43.0613 16.6354 43.0613H26.7546C27.4826 43.0613 28.1014 42.6973 28.429 42.0421L34.8354 29.3748L37.0194 33.6701C37.347 34.3617 38.0386 34.7257 38.6938 34.7257C38.985 34.7257 39.2762 34.6893 39.5674 34.5437C40.441 33.9613 40.805 32.8328 40.3318 31.9228Z" fill="white"/>
    <path d="M44.5542 40.2585L43.0982 37.3829C42.625 36.4365 41.4602 36.0725 40.5502 36.5093C39.6038 36.9825 39.2398 38.1473 39.6766 39.0573L41.1326 41.9329C41.4602 42.6245 42.1518 42.9885 42.807 42.9885C43.0982 42.9885 43.3894 42.9521 43.6806 42.8065C44.6634 42.3333 44.991 41.1685 44.5542 40.2585Z" fill="white"/>
    <path d="M16.4897 34.9441H22.1317C23.1873 34.9441 24.0609 34.0705 24.0609 33.0149C24.0609 31.9593 23.1873 31.0857 22.1317 31.0857H16.4897C15.4341 31.0857 14.5605 31.9593 14.5605 33.0149C14.6333 34.1069 15.4705 34.9441 16.4897 34.9441Z" fill="white"/>
    <path d="M16.4897 26.8633H26.1721C27.2277 26.8633 28.1013 25.9897 28.1013 24.9341C28.1013 23.8785 27.2277 23.0049 26.1721 23.0049H16.4897C15.4341 23.0049 14.5605 23.8785 14.5605 24.9341C14.6333 26.0261 15.4705 26.8633 16.4897 26.8633Z" fill="white"/>
    <path d="M40.3318 31.8501L36.5098 24.3153C35.7454 22.8593 33.7434 22.7501 33.0518 24.3153L26.063 38.1109C25.7354 38.7297 25.1166 39.1665 24.3886 39.1665H16.7082C15.689 39.1665 14.8154 39.8945 14.7426 40.9137C14.6334 42.0785 15.507 42.9885 16.6354 42.9885H26.7546C27.4826 42.9885 28.1014 42.6245 28.429 41.9693L34.8354 29.3021L37.0194 33.5973C37.347 34.2889 38.0386 34.6529 38.6938 34.6529C38.985 34.6529 39.2762 34.6165 39.5674 34.4709C40.441 33.9249 40.805 32.7601 40.3318 31.8501Z" fill="white"/>
    <path d="M44.5542 40.1857L43.0982 37.3101C42.625 36.3637 41.4602 35.9997 40.5502 36.4365C39.6038 36.9097 39.2398 38.0745 39.6766 38.9845L41.1326 41.8601C41.4602 42.5517 42.1518 42.9157 42.807 42.9157C43.0982 42.9157 43.3894 42.8793 43.6806 42.7337C44.6634 42.2605 44.991 41.0957 44.5542 40.1857Z" fill="white"/>
    <path d="M16.4897 34.9077H22.1317C23.1873 34.9077 24.0609 34.0341 24.0609 32.9785C24.0609 31.9229 23.1873 31.0493 22.1317 31.0493H16.4897C15.4341 31.0493 14.5605 31.9229 14.5605 32.9785C14.6333 34.0341 15.4705 34.9077 16.4897 34.9077Z" fill="white"/>
    <path d="M108.363 52.6344H105.232L108.29 43.8984H111.056L108.363 52.6344Z" fill="#6F0AF2"/>
    <defs>
        <linearGradient id="paint0_linear_2130_422" x1="106.541" y1="48.3219" x2="71.9964" y2="48.3219" gradientUnits="userSpaceOnUse">
            <stop stop-color="#6F0AF2"/>
            <stop offset="0.9995" stop-color="white"/>
        </linearGradient>
        <linearGradient id="paint1_linear_2130_422" x1="42.1617" y1="19.4904" x2="14.5085" y2="49.4745" gradientUnits="userSpaceOnUse">
            <stop offset="0.00334821" stop-color="#6B0AD9" stop-opacity="0.6"/>
            <stop offset="0.3007" stop-color="#690DDC" stop-opacity="0.6836"/>
            <stop offset="0.5234" stop-color="#6317E5" stop-opacity="0.7462"/>
            <stop offset="0.7211" stop-color="#5827F3" stop-opacity="0.8018"/>
            <stop offset="0.8215" stop-color="#5132FE" stop-opacity="0.83"/>
            <stop offset="0.9113" stop-color="#742DFE" stop-opacity="0.9155"/>
            <stop offset="1" stop-color="#9A27FF"/>
        </linearGradient>
        <linearGradient id="paint2_linear_2130_422" x1="52.9235" y1="23.2194" x2="9.57928" y2="41.5369" gradientUnits="userSpaceOnUse">
            <stop stop-color="#9A27FF" stop-opacity="0.75"/>
            <stop offset="0.0741759" stop-color="#742DFE" stop-opacity="0.7898"/>
            <stop offset="0.1493" stop-color="#5132FE" stop-opacity="0.83"/>
            <stop offset="0.2532" stop-color="#5827F3" stop-opacity="0.8018"/>
            <stop offset="0.458" stop-color="#6317E5" stop-opacity="0.7462"/>
            <stop offset="0.6886" stop-color="#690DDC" stop-opacity="0.6836"/>
            <stop offset="0.9967" stop-color="#6B0AD9" stop-opacity="0.6"/>
        </linearGradient>
        <linearGradient id="paint3_linear_2130_422" x1="3.94182" y1="34.7894" x2="49.2668" y2="45.3778" gradientUnits="userSpaceOnUse">
            <stop offset="0.0854828" stop-color="#9A27FF"/>
            <stop offset="0.7703" stop-color="#6F0AF2" stop-opacity="0"/>
            <stop offset="1" stop-color="#7A35FF" stop-opacity="0.3"/>
        </linearGradient>
        <linearGradient id="paint4_linear_2130_422" x1="16.8942" y1="19.2614" x2="49.6331" y2="54.5431" gradientUnits="userSpaceOnUse">
            <stop stop-color="#7A35FF" stop-opacity="0"/>
            <stop offset="0.2411" stop-color="#6F0AF2" stop-opacity="0"/>
            <stop offset="1" stop-color="#9A27FF"/>
        </linearGradient>
        <linearGradient id="paint5_linear_2130_422" x1="16.8942" y1="19.2614" x2="49.6331" y2="54.5431" gradientUnits="userSpaceOnUse">
            <stop stop-color="#7A35FF" stop-opacity="0"/>
            <stop offset="0.2411" stop-color="#6F0AF2" stop-opacity="0"/>
            <stop offset="1" stop-color="#9A27FF"/>
        </linearGradient>
        <linearGradient id="paint6_linear_2130_422" x1="16.8942" y1="19.2614" x2="49.6331" y2="54.5431" gradientUnits="userSpaceOnUse">
            <stop stop-color="#7A35FF" stop-opacity="0"/>
            <stop offset="0.2411" stop-color="#6F0AF2" stop-opacity="0"/>
            <stop offset="1" stop-color="#9A27FF"/>
        </linearGradient>
        <linearGradient id="paint7_linear_2130_422" x1="33.4283" y1="45.6514" x2="25.1216" y2="13.9154" gradientUnits="userSpaceOnUse">
            <stop stop-color="#6F0AF2" stop-opacity="0"/>
            <stop offset="0.4116" stop-color="#710CF3" stop-opacity="0.4116"/>
            <stop offset="0.6488" stop-color="#7A11F5" stop-opacity="0.6488"/>
            <stop offset="0.8413" stop-color="#881BF9" stop-opacity="0.8413"/>
            <stop offset="1" stop-color="#9A27FF"/>
        </linearGradient>
        <linearGradient id="paint8_linear_2130_422" x1="39.333" y1="47.3417" x2="24.893" y2="18.3912" gradientUnits="userSpaceOnUse">
            <stop offset="0.00082672" stop-color="#9A27FF" stop-opacity="0.3"/>
            <stop offset="0.5103" stop-color="#9C27FF" stop-opacity="0.1476"/>
            <stop offset="0.6938" stop-color="#A326FF" stop-opacity="0.0926574"/>
            <stop offset="0.8247" stop-color="#AE25FF" stop-opacity="0.0535202"/>
            <stop offset="0.9297" stop-color="#BF23FF" stop-opacity="0.0220816"/>
            <stop offset="0.9701" stop-color="#C822FF" stop-opacity="0.01"/>
        </linearGradient>
        <linearGradient id="paint9_linear_2130_422" x1="28.6723" y1="27.347" x2="35.2751" y2="53.1192" gradientUnits="userSpaceOnUse">
            <stop offset="0.1945" stop-color="#6F0AF2" stop-opacity="0.1"/>
            <stop offset="0.4389" stop-color="#730DF3" stop-opacity="0.3584"/>
            <stop offset="0.6855" stop-color="#7F15F7" stop-opacity="0.6192"/>
            <stop offset="0.9326" stop-color="#9322FD" stop-opacity="0.8805"/>
            <stop offset="0.9984" stop-color="#9A27FF" stop-opacity="0.95"/>
        </linearGradient>
    </defs>
</svg>