<svg width="130" height="40" viewBox="0 0 130 40" fill="none" xmlns="http://www.w3.org/2000/svg">
<path d="M60.6269 19.4776C59.7902 18.824 59.3197 17.8828 59.2151 16.6802H60.2347C60.836 16.6802 61.2282 16.7063 61.4635 16.7847C61.6726 16.8632 61.8295 16.9939 61.9079 17.1769C62.0648 17.5429 62.3001 17.8043 62.6399 17.9612C62.9798 18.1442 63.4504 18.2226 64.0517 18.2226C64.6269 18.2226 65.0713 18.1181 65.385 17.9351C65.6988 17.7521 65.8556 17.4645 65.8556 17.0985C65.8556 16.654 65.6465 16.3403 65.2282 16.1311C64.8099 15.922 64.1824 15.7128 63.3458 15.5037C62.5615 15.2945 61.934 15.1115 61.4373 14.9024C60.9406 14.6932 60.5223 14.4057 60.1824 14.0135C59.8164 13.6213 59.6595 13.0723 59.6595 12.4449C59.6595 11.4776 60.0255 10.6932 60.7314 10.1442C61.4373 9.5952 62.4046 9.30762 63.6334 9.30762C64.8883 9.30762 65.8818 9.62134 66.6138 10.2226C67.3458 10.824 67.7902 11.6867 67.921 12.8109L65.4112 12.7325C65.3327 12.2619 65.1759 11.9481 64.8883 11.7651C64.6007 11.5821 64.1824 11.4776 63.6072 11.4776C62.6138 11.4776 62.1171 11.7913 62.1171 12.4187C62.1171 12.7325 62.3001 12.9939 62.6399 13.1769C63.0059 13.3599 63.555 13.5429 64.3654 13.7521C65.202 13.9612 65.8818 14.1965 66.4046 14.4057C66.9275 14.6148 67.3981 14.9547 67.7641 15.373C68.1563 15.8174 68.3393 16.3926 68.3393 17.0985C68.3393 18.1704 67.9471 19.007 67.1889 19.6083C66.4046 20.2357 65.3589 20.5494 64.0255 20.5494C62.5876 20.471 61.4635 20.1573 60.6269 19.4776Z" fill="white"/>
<path d="M71.2675 19.4776C70.4309 18.824 69.9603 17.8828 69.8557 16.6802H70.8753C71.4766 16.6802 71.8688 16.7063 72.1041 16.7847C72.3132 16.8632 72.4701 16.9939 72.5485 17.1769C72.7054 17.5429 72.9407 17.8043 73.2805 17.9612C73.6204 18.1442 74.091 18.2226 74.6923 18.2226C75.2675 18.2226 75.7119 18.1181 76.0256 17.9351C76.3394 17.7521 76.4962 17.4645 76.4962 17.0985C76.4962 16.654 76.2871 16.3403 75.8688 16.1311C75.4505 15.922 74.823 15.7128 73.9864 15.5037C73.2021 15.2945 72.5747 15.1115 72.0779 14.9024C71.5812 14.6932 71.1629 14.4057 70.823 14.0135C70.457 13.6213 70.3002 13.0723 70.3002 12.4449C70.3002 11.4776 70.6662 10.6932 71.372 10.1442C72.0779 9.5952 73.0453 9.30762 74.274 9.30762C75.5289 9.30762 76.5224 9.62134 77.2544 10.2226C77.9864 10.824 78.4309 11.6867 78.5616 12.8109L76.0518 12.7325C75.9734 12.2619 75.8165 11.9481 75.5289 11.7651C75.2413 11.5821 74.823 11.4776 74.2479 11.4776C73.2544 11.4776 72.7577 11.7913 72.7577 12.4187C72.7577 12.7325 72.9407 12.9939 73.2805 13.1769C73.6466 13.3599 74.1956 13.5429 75.006 13.7521C75.8426 13.9612 76.5224 14.1965 77.0453 14.4057C77.5681 14.6148 78.0387 14.9547 78.4047 15.373C78.7969 15.8174 78.9799 16.3926 78.9799 17.0985C78.9799 18.1704 78.5877 19.007 77.8296 19.6083C77.0453 20.2357 75.9995 20.5494 74.6662 20.5494C73.2283 20.471 72.1041 20.1573 71.2675 19.4776Z" fill="white"/>
<path d="M92.287 20.3664V9.41211H93.9863C94.1693 9.41211 94.3523 9.4644 94.4831 9.59512C94.6138 9.72584 94.7184 10.1964 94.7445 10.4056C95.4765 9.83041 96.3654 9.51668 97.4373 9.51668C98.6138 9.51668 99.5288 9.83041 100.182 10.484C100.836 11.1115 101.176 12.0003 101.176 13.1245V20.4448H98.6922V13.2552C98.6922 12.7585 98.5353 12.3925 98.2478 12.1311C97.9602 11.8696 97.5157 11.7389 96.9406 11.7389C96.287 11.7389 95.7641 11.9481 95.3458 12.3664C94.9275 12.7847 94.7445 13.3075 94.7445 13.9611V20.3664H92.287Z" fill="white"/>
<path d="M103.895 11.6344H103.267C103.032 11.6344 102.823 11.556 102.692 11.373C102.562 11.2161 102.483 10.8762 102.483 10.4056V9.43833H103.895V5.93506H106.379V9.46447H108.261V11.6344H106.379V17.7259C106.379 17.9089 106.405 18.0135 106.483 18.0658C106.535 18.1181 106.692 18.1442 106.901 18.1442C107.372 18.1442 107.712 18.1965 107.921 18.2749C108.13 18.3534 108.235 18.5887 108.235 18.9547V20.1834C107.607 20.3403 107.058 20.4187 106.588 20.4187C105.751 20.4187 105.097 20.2096 104.627 19.8174C104.156 19.4253 103.921 18.8501 103.921 18.0658V11.6344H103.895Z" fill="white"/>
<path d="M112.287 8.65401C111.712 8.65401 111.215 8.47101 110.849 8.07885C110.457 7.68669 110.274 7.2161 110.274 6.64094V5.93506H111.999C112.209 5.93506 112.392 6.01349 112.548 6.17035C112.705 6.32721 112.784 6.51022 112.784 6.71937V8.68016H112.287V8.65401ZM112.784 20.3664H110.326V9.43833H112.784V20.3664Z" fill="white"/>
<path d="M114.797 15.3208C115.241 14.8241 115.764 14.4842 116.365 14.3012C116.967 14.092 117.725 13.9352 118.614 13.8044C119.346 13.6999 119.869 13.5692 120.182 13.4384C120.522 13.3077 120.679 13.0986 120.679 12.8371C120.679 12.0005 120.104 11.5822 118.954 11.5822C118.248 11.5822 117.751 11.7129 117.437 12.0005C117.124 12.2881 116.967 12.7326 116.967 13.3861L114.562 13.6999C114.457 12.3927 114.823 11.3731 115.633 10.6149C116.444 9.85674 117.542 9.49072 118.928 9.49072C120.261 9.49072 121.28 9.80445 121.96 10.4058C122.666 11.0071 123.006 11.896 123.006 13.0724V17.6999C123.006 17.9613 123.032 18.1443 123.084 18.275C123.137 18.4058 123.267 18.6672 123.503 19.0855C123.555 19.1901 123.633 19.3208 123.738 19.5038C123.843 19.6868 123.947 19.896 124.104 20.1835C123.712 20.3927 123.294 20.4973 122.823 20.4973C122.405 20.4973 122.039 20.4188 121.699 20.2358C121.359 20.079 121.097 19.8175 120.914 19.4777C120.104 20.2358 119.111 20.6018 117.882 20.6018C116.731 20.6018 115.816 20.3143 115.137 19.7391C114.457 19.1639 114.117 18.3796 114.117 17.4123C114.117 16.4973 114.352 15.8175 114.797 15.3208ZM117.045 18.1705C117.28 18.3535 117.673 18.4319 118.222 18.4319C119.084 18.4319 119.712 18.1182 120.104 17.4907C120.496 16.8633 120.705 16.1574 120.705 15.3469C120.209 15.5299 119.633 15.6868 119.032 15.8175C118.3 15.9744 117.725 16.2097 117.307 16.4711C116.888 16.7326 116.679 17.0201 116.679 17.3339C116.679 17.6999 116.81 17.9875 117.045 18.1705Z" fill="white"/>
<path d="M127.843 20.3664H125.359V5.93506H127.816V20.3664H127.843Z" fill="white"/>
<path d="M52.9146 17.8564V14.0656H56.5224C56.6009 14.0656 56.6532 14.0133 56.6532 13.9348V11.8172C56.6532 11.7388 56.6009 11.6865 56.5224 11.6865H52.9146V8.34007H57.6728C57.7512 8.34007 57.8296 8.26163 57.8296 8.1832V5.90869H50.5878C50.4048 5.90869 50.2479 6.06555 50.2479 6.24856V20.3662H57.8296V17.961C57.8296 17.9087 57.7773 17.8564 57.7251 17.8564H52.9146Z" fill="white"/>
<path d="M88.3394 16.7586C88.078 16.7586 87.8427 16.9155 87.712 17.1508C87.3198 17.8567 86.6662 18.1965 85.6728 18.1965C84.9669 18.1965 84.3917 17.9874 83.9211 17.543C83.4767 17.0985 83.1891 16.4711 83.0584 15.6867H90.5355C90.5878 14.458 90.4309 13.3599 90.0649 12.3926C89.6989 11.4253 89.1499 10.641 88.3917 10.092C87.6335 9.54295 86.6924 9.25537 85.5943 9.25537C84.627 9.25537 83.7381 9.49067 82.9538 9.9874C82.1695 10.4841 81.5682 11.1377 81.1499 12.0005C80.7054 12.8632 80.4963 13.8044 80.4963 14.8763C80.4963 15.922 80.7054 16.8632 81.1499 17.6998C81.5682 18.5626 82.1956 19.2423 82.9538 19.739C83.7381 20.2358 84.6531 20.4711 85.6728 20.4711C87.0061 20.4711 88.078 20.105 88.9146 19.3469C89.6205 18.6933 90.091 17.8567 90.3263 16.7848H88.3394V16.7586ZM84.0257 11.9482C84.444 11.5822 84.9669 11.3992 85.5943 11.3992C86.9015 11.3992 87.6858 12.1312 87.9211 13.5952H83.1368C83.3198 12.8632 83.6074 12.3403 84.0257 11.9482Z" fill="white"/>
<path d="M90.4048 27.3984H90.3525C89.8558 26.6403 89.1238 26.2481 88.1565 26.2481C87.1891 26.2481 86.3787 26.6403 85.7512 27.3984C85.1238 28.1566 84.8101 29.1501 84.8101 30.3788C84.8101 31.6337 85.1238 32.6272 85.7251 33.3854C86.3264 34.1435 87.1369 34.5095 88.1042 34.5095C89.1499 34.5095 89.9342 34.0912 90.431 33.2546H90.4571V34.2743H92.444V23.3984H90.3787V27.3984H90.4048ZM89.9865 32.1305C89.6728 32.5488 89.2022 32.7579 88.6009 32.7579C88.078 32.7579 87.6597 32.5488 87.3722 32.1305C87.0846 31.7122 86.9277 31.137 86.9277 30.3527C86.9277 29.6207 87.0846 29.0194 87.3722 28.5749C87.6597 28.1305 88.1042 27.8952 88.6532 27.8952C89.8558 27.8952 90.4571 28.7318 90.4571 30.3788C90.4571 31.1631 90.3003 31.7383 89.9865 32.1305Z" fill="white"/>
<path d="M99.4768 27.3984H99.4245C98.9278 26.6403 98.1957 26.2481 97.2284 26.2481C96.2611 26.2481 95.4506 26.6403 94.8232 27.3984C94.1957 28.1566 93.882 29.1501 93.882 30.3788C93.882 31.6337 94.1957 32.6272 94.7971 33.3854C95.3984 34.1435 96.2088 34.5095 97.1761 34.5095C98.2219 34.5095 99.0062 34.0912 99.5029 33.2546H99.5291V34.2743H101.516V23.3984H99.4768V27.3984ZM99.0323 32.1305C98.7186 32.5488 98.248 32.7579 97.6467 32.7579C97.1238 32.7579 96.7055 32.5488 96.418 32.1305C96.1304 31.7122 95.9735 31.137 95.9735 30.3527C95.9735 29.6207 96.1304 29.0194 96.418 28.5749C96.7055 28.1305 97.15 27.8952 97.699 27.8952C98.9016 27.8952 99.5029 28.7318 99.5029 30.3788C99.5029 31.1631 99.3461 31.7383 99.0323 32.1305Z" fill="white"/>
<path d="M107.006 26.2476C105.804 26.2476 104.836 26.6397 104.078 27.424C103.32 28.2083 102.928 29.2018 102.928 30.3783C102.928 31.5547 103.32 32.5482 104.078 33.3325C104.836 34.1168 105.83 34.509 107.006 34.509C108.209 34.509 109.176 34.1168 109.934 33.3325C110.692 32.5482 111.085 31.5547 111.085 30.3783C111.085 29.2018 110.692 28.2083 109.934 27.424C109.176 26.6397 108.209 26.2476 107.006 26.2476ZM108.47 32.2345C108.13 32.7051 107.634 32.9142 107.006 32.9142C106.379 32.9142 105.882 32.6789 105.542 32.2345C105.202 31.7639 105.019 31.1626 105.019 30.3783C105.019 29.594 105.202 28.9665 105.542 28.5221C105.882 28.0515 106.379 27.8423 107.006 27.8423C107.634 27.8423 108.104 28.0776 108.47 28.5482C108.81 29.0188 108.993 29.6463 108.993 30.4044C108.993 31.1364 108.81 31.7639 108.47 32.2345Z" fill="white"/>
<path d="M116.862 26.2476C115.869 26.2476 115.085 26.6659 114.562 27.5286H114.51V26.4567H112.496V34.2737H114.562V29.8554C114.562 29.3325 114.719 28.8881 115.006 28.5744C115.294 28.2345 115.686 28.0776 116.13 28.0776C116.549 28.0776 116.889 28.2083 117.124 28.4698C117.359 28.7312 117.49 29.0711 117.49 29.5155V34.2998H119.555V29.2018C119.555 28.3391 119.294 27.6332 118.797 27.0842C118.327 26.5351 117.673 26.2476 116.862 26.2476Z" fill="white"/>
<path d="M127.555 31.0592C127.451 30.7977 127.294 30.5886 127.137 30.4317C126.98 30.2749 126.771 30.1441 126.483 30.0134C126.222 29.8827 125.961 29.8043 125.751 29.752C125.542 29.6997 125.281 29.6213 124.941 29.569C124.836 29.5428 124.679 29.5167 124.496 29.4905C124.313 29.4644 124.157 29.4121 124.052 29.386C123.947 29.3598 123.817 29.3337 123.66 29.3075C123.503 29.2814 123.398 29.2291 123.32 29.203C123.242 29.1768 123.163 29.1245 123.059 29.0722C122.98 29.02 122.902 28.9415 122.876 28.8631C122.849 28.7847 122.823 28.7062 122.823 28.6017C122.823 28.3402 122.954 28.1049 123.189 27.9742C123.425 27.8173 123.764 27.7389 124.183 27.7389C125.098 27.7389 125.621 28.1311 125.699 28.8892H127.581C127.503 28.0788 127.163 27.4513 126.588 27.0069C126.013 26.5363 125.228 26.3271 124.209 26.3271C123.268 26.3271 122.51 26.5363 121.908 26.9546C121.307 27.3729 121.019 28.0004 121.019 28.8108C121.019 29.2291 121.098 29.569 121.228 29.8566C121.385 30.1441 121.594 30.3794 121.882 30.5363C122.17 30.6932 122.457 30.8239 122.719 30.9285C122.98 31.0069 123.346 31.0853 123.764 31.1899C123.843 31.216 124 31.2422 124.209 31.2683C124.418 31.2945 124.575 31.3206 124.653 31.3468C124.732 31.3729 124.862 31.399 125.019 31.4252C125.176 31.4775 125.307 31.5036 125.359 31.5559C125.438 31.6082 125.49 31.6605 125.594 31.7128C125.673 31.7912 125.751 31.8435 125.778 31.9219C125.804 32.0004 125.83 32.1049 125.83 32.1834C125.83 32.4448 125.699 32.6801 125.464 32.837C125.202 32.9938 124.862 33.0722 124.418 33.0722C123.425 33.0722 122.849 32.6539 122.719 31.7912H120.81C120.862 32.6539 121.228 33.3075 121.856 33.8043C122.483 34.301 123.346 34.5363 124.47 34.5363C125.464 34.5363 126.248 34.301 126.849 33.8566C127.451 33.4121 127.764 32.7847 127.764 32.0265C127.738 31.6343 127.686 31.3206 127.555 31.0592Z" fill="white"/>
<path d="M80.4965 23.3984H78.222L76.9409 27.0586H78.8494C79.0847 26.2481 79.2677 25.6468 79.32 25.4638H79.3462L82.0128 34.2743H84.3135L80.4965 23.3984Z" fill="white"/>
<path d="M50.4572 30.2222C50.3527 30.2222 50.2742 30.3006 50.2742 30.379V31.9477C50.2742 32.0261 50.3527 32.1045 50.4572 32.1045H79.6599L80.235 30.2222H50.4572Z" fill="url(#paint0_linear_1633_8880)"/>
<path d="M4.8097 4.88871C8.46983 1.25473 13.7247 0.836426 20.13 0.836426C26.5613 0.836426 31.8162 1.25473 35.4764 4.88871C39.1365 8.5227 39.4764 13.7776 39.4764 20.209C39.4764 26.6404 39.0842 31.8953 35.4764 35.5292C31.8162 39.1894 26.5613 39.5292 20.13 39.5292C13.6986 39.5292 8.44369 39.1371 4.78356 35.5292C1.12343 31.8691 0.78356 26.6142 0.78356 20.209C0.757416 13.7776 1.14957 8.5227 4.8097 4.88871Z" fill="#6F0AF2"/>
<path opacity="0.65" d="M20.1303 34.98C30.815 34.98 39.4767 28.3667 39.4767 20.2087C39.4767 12.0508 30.815 5.4375 20.1303 5.4375C9.44555 5.4375 0.783875 12.0508 0.783875 20.2087C0.783875 28.3667 9.44555 34.98 20.1303 34.98Z" fill="url(#paint1_linear_1633_8880)"/>
<path opacity="0.65" d="M20.1303 34.98C30.815 34.98 39.4767 28.3667 39.4767 20.2087C39.4767 12.0508 30.815 5.4375 20.1303 5.4375C9.44555 5.4375 0.783875 12.0508 0.783875 20.2087C0.783875 28.3667 9.44555 34.98 20.1303 34.98Z" fill="url(#paint2_linear_1633_8880)"/>
<path opacity="0.8" d="M28.836 11.5031C37.3066 19.9737 40.2609 30.7188 35.4504 35.5293C30.6399 40.3397 19.8948 37.3593 11.4243 28.9149C2.95367 20.4705 0.0255685 9.69921 4.83603 4.88875C9.64648 0.0782962 20.3654 3.05869 28.836 11.5031Z" fill="url(#paint3_linear_1633_8880)"/>
<path opacity="0.3" d="M28.836 11.5031C37.3066 19.9737 40.2609 30.7188 35.4504 35.5293C30.6399 40.3397 19.8948 37.3593 11.4243 28.9149C2.95367 20.4705 0.0255685 9.69921 4.83603 4.88875C9.64648 0.0782962 20.3654 3.05869 28.836 11.5031Z" fill="url(#paint4_linear_1633_8880)"/>
<path opacity="0.4" d="M28.836 11.5031C37.3066 19.9737 40.2609 30.7188 35.4504 35.5293C30.6399 40.3397 19.8948 37.3593 11.4243 28.9149C2.95367 20.4705 0.0255685 9.69921 4.83603 4.88875C9.64648 0.0782962 20.3654 3.05869 28.836 11.5031Z" fill="url(#paint5_linear_1633_8880)"/>
<path opacity="0.3" d="M28.836 11.5031C37.3066 19.9737 40.2609 30.7188 35.4504 35.5293C30.6399 40.3397 19.8948 37.3593 11.4243 28.9149C2.95367 20.4705 0.0255685 9.69921 4.83603 4.88875C9.64648 0.0782962 20.3654 3.05869 28.836 11.5031Z" fill="url(#paint6_linear_1633_8880)"/>
<path opacity="0.9" d="M12.4177 12.4707C3.97324 20.9152 0.75755 31.4511 5.28043 35.9479C9.8033 40.4446 20.3131 37.2551 28.7575 28.8106C37.202 20.3662 40.4177 9.83023 35.8948 5.3335C31.3719 0.836764 20.8621 4.02631 12.4177 12.4707Z" fill="url(#paint7_linear_1633_8880)"/>
<path opacity="0.9" d="M12.4177 12.4707C3.97324 20.9152 0.75755 31.4511 5.28043 35.9479C9.8033 40.4446 20.3131 37.2551 28.7575 28.8106C37.202 20.3662 40.4177 9.83023 35.8948 5.3335C31.3719 0.836764 20.8621 4.02631 12.4177 12.4707Z" fill="url(#paint8_linear_1633_8880)"/>
<path opacity="0.9" d="M12.4177 12.4708C3.97324 20.9152 0.75755 31.4511 5.28043 35.9479C9.8033 40.4446 20.3131 37.2551 28.7575 28.8106C37.202 20.3662 40.4177 9.83023 35.8948 5.3335C31.3719 0.836764 20.8621 4.02631 12.4177 12.4708Z" fill="url(#paint9_linear_1633_8880)"/>
<path d="M10.6669 15.8167H17.6211C18.3793 15.8167 19.0067 15.1892 19.0067 14.431C19.0067 13.6729 18.3793 13.0454 17.6211 13.0454H10.6669C9.9087 13.0454 9.28125 13.6729 9.28125 14.431C9.33354 15.2153 9.93484 15.8167 10.6669 15.8167Z" fill="white"/>
<path d="M27.791 19.3986L25.0459 13.9868C24.4969 12.9411 23.059 12.8627 22.5623 13.9868L17.5427 23.8953C17.3074 24.3398 16.8629 24.6535 16.3401 24.6535H10.8237C10.0917 24.6535 9.46425 25.1764 9.41196 25.9084C9.33353 26.745 9.96098 27.3986 10.7714 27.3986H18.0394C18.5623 27.3986 19.0067 27.1372 19.242 26.6666L23.8433 17.5685L25.412 20.6535C25.6473 21.1502 26.144 21.4117 26.6146 21.4117C26.8237 21.4117 27.0329 21.3855 27.242 21.281C27.8695 20.8627 28.1309 20.0522 27.791 19.3986Z" fill="white"/>
<path d="M30.8237 25.3851L29.778 23.3197C29.4381 22.64 28.6015 22.3785 27.9479 22.6923C27.2681 23.0321 27.0067 23.8687 27.3204 24.5223L28.3662 26.5877C28.6015 27.0844 29.0982 27.3459 29.5688 27.3459C29.778 27.3459 29.9871 27.3197 30.1963 27.2151C30.9021 26.8753 31.1374 26.0387 30.8237 25.3851Z" fill="white"/>
<path d="M10.6669 21.5681H14.7192C15.4773 21.5681 16.1048 20.9407 16.1048 20.1825C16.1048 19.4243 15.4773 18.7969 14.7192 18.7969H10.6669C9.9087 18.7969 9.28125 19.4243 9.28125 20.1825C9.33354 20.9668 9.93484 21.5681 10.6669 21.5681Z" fill="white"/>
<path d="M10.6669 15.7639H17.6211C18.3793 15.7639 19.0067 15.1365 19.0067 14.3783C19.0067 13.6201 18.3793 12.9927 17.6211 12.9927H10.6669C9.9087 12.9927 9.28125 13.6201 9.28125 14.3783C9.33354 15.1626 9.93484 15.7639 10.6669 15.7639Z" fill="white"/>
<path d="M27.791 19.3459L25.0459 13.9341C24.4969 12.8884 23.059 12.8099 22.5623 13.9341L17.5427 23.8426C17.3074 24.287 16.8629 24.6008 16.3401 24.6008H10.8237C10.0917 24.6008 9.46425 25.1237 9.41196 25.8557C9.33353 26.6923 9.96098 27.3459 10.7714 27.3459H18.0394C18.5623 27.3459 19.0067 27.0844 19.242 26.6138L23.8433 17.5158L25.412 20.6008C25.6473 21.0975 26.144 21.3589 26.6146 21.3589C26.8237 21.3589 27.0329 21.3328 27.242 21.2282C27.8695 20.8361 28.1309 19.9995 27.791 19.3459Z" fill="white"/>
<path d="M30.8237 25.3323L29.778 23.267C29.4381 22.5872 28.6015 22.3258 27.9479 22.6395C27.2681 22.9794 27.0067 23.816 27.3204 24.4696L28.3662 26.535C28.6015 27.0317 29.0982 27.2931 29.5688 27.2931C29.778 27.2931 29.9871 27.267 30.1963 27.1624C30.9021 26.8225 31.1374 25.9859 30.8237 25.3323Z" fill="white"/>
<path d="M10.6669 21.5417H14.7192C15.4773 21.5417 16.1048 20.9143 16.1048 20.1561C16.1048 19.398 15.4773 18.7705 14.7192 18.7705H10.6669C9.9087 18.7705 9.28125 19.398 9.28125 20.1561C9.33354 20.9143 9.93484 21.5417 10.6669 21.5417Z" fill="white"/>
<path d="M76.6533 34.2745H74.4049L76.601 28H78.5879L76.6533 34.2745Z" fill="#6F0AF2"/>
<defs>
<linearGradient id="paint0_linear_1633_8880" x1="75.345" y1="31.177" x2="50.534" y2="31.177" gradientUnits="userSpaceOnUse">
<stop stop-color="#6F0AF2"/>
<stop offset="0.9995" stop-color="white" stop-opacity="0"/>
</linearGradient>
<linearGradient id="paint1_linear_1633_8880" x1="29.1055" y1="10.4688" x2="9.24395" y2="32.0045" gradientUnits="userSpaceOnUse">
<stop offset="0.00334821" stop-color="#6B0AD9" stop-opacity="0.6"/>
<stop offset="0.3007" stop-color="#690DDC" stop-opacity="0.6836"/>
<stop offset="0.5234" stop-color="#6317E5" stop-opacity="0.7462"/>
<stop offset="0.7211" stop-color="#5827F3" stop-opacity="0.8018"/>
<stop offset="0.8215" stop-color="#5132FE" stop-opacity="0.83"/>
<stop offset="0.9113" stop-color="#742DFE" stop-opacity="0.9155"/>
<stop offset="1" stop-color="#9A27FF"/>
</linearGradient>
<linearGradient id="paint2_linear_1633_8880" x1="36.835" y1="13.1471" x2="5.70364" y2="26.3034" gradientUnits="userSpaceOnUse">
<stop stop-color="#9A27FF" stop-opacity="0.75"/>
<stop offset="0.0741759" stop-color="#742DFE" stop-opacity="0.7898"/>
<stop offset="0.1493" stop-color="#5132FE" stop-opacity="0.83"/>
<stop offset="0.2532" stop-color="#5827F3" stop-opacity="0.8018"/>
<stop offset="0.458" stop-color="#6317E5" stop-opacity="0.7462"/>
<stop offset="0.6886" stop-color="#690DDC" stop-opacity="0.6836"/>
<stop offset="0.9967" stop-color="#6B0AD9" stop-opacity="0.6"/>
</linearGradient>
<linearGradient id="paint3_linear_1633_8880" x1="1.65454" y1="21.4574" x2="34.2086" y2="29.0623" gradientUnits="userSpaceOnUse">
<stop offset="0.0854828" stop-color="#9A27FF"/>
<stop offset="0.7703" stop-color="#6F0AF2" stop-opacity="0"/>
<stop offset="1" stop-color="#7A35FF" stop-opacity="0.3"/>
</linearGradient>
<linearGradient id="paint4_linear_1633_8880" x1="10.9574" y1="10.3046" x2="34.4717" y2="35.6452" gradientUnits="userSpaceOnUse">
<stop stop-color="#7A35FF" stop-opacity="0"/>
<stop offset="0.2411" stop-color="#6F0AF2" stop-opacity="0"/>
<stop offset="1" stop-color="#9A27FF"/>
</linearGradient>
<linearGradient id="paint5_linear_1633_8880" x1="10.9574" y1="10.3046" x2="34.4717" y2="35.6452" gradientUnits="userSpaceOnUse">
<stop stop-color="#7A35FF" stop-opacity="0"/>
<stop offset="0.2411" stop-color="#6F0AF2" stop-opacity="0"/>
<stop offset="1" stop-color="#9A27FF"/>
</linearGradient>
<linearGradient id="paint6_linear_1633_8880" x1="10.9574" y1="10.3046" x2="34.4717" y2="35.6452" gradientUnits="userSpaceOnUse">
<stop stop-color="#7A35FF" stop-opacity="0"/>
<stop offset="0.2411" stop-color="#6F0AF2" stop-opacity="0"/>
<stop offset="1" stop-color="#9A27FF"/>
</linearGradient>
<linearGradient id="paint7_linear_1633_8880" x1="22.8328" y1="29.2592" x2="16.8666" y2="6.46521" gradientUnits="userSpaceOnUse">
<stop stop-color="#6F0AF2" stop-opacity="0"/>
<stop offset="0.4116" stop-color="#710CF3" stop-opacity="0.4116"/>
<stop offset="0.6488" stop-color="#7A11F5" stop-opacity="0.6488"/>
<stop offset="0.8413" stop-color="#881BF9" stop-opacity="0.8413"/>
<stop offset="1" stop-color="#9A27FF"/>
</linearGradient>
<linearGradient id="paint8_linear_1633_8880" x1="27.0738" y1="30.4732" x2="16.7025" y2="9.67987" gradientUnits="userSpaceOnUse">
<stop offset="0.00082672" stop-color="#9A27FF" stop-opacity="0.3"/>
<stop offset="0.5103" stop-color="#9C27FF" stop-opacity="0.1476"/>
<stop offset="0.6938" stop-color="#A326FF" stop-opacity="0.0926574"/>
<stop offset="0.8247" stop-color="#AE25FF" stop-opacity="0.0535202"/>
<stop offset="0.9297" stop-color="#BF23FF" stop-opacity="0.0220816"/>
<stop offset="0.9701" stop-color="#C822FF" stop-opacity="0.01"/>
</linearGradient>
<linearGradient id="paint9_linear_1633_8880" x1="19.4168" y1="16.1123" x2="24.1592" y2="34.6228" gradientUnits="userSpaceOnUse">
<stop offset="0.1945" stop-color="#6F0AF2" stop-opacity="0.1"/>
<stop offset="0.4389" stop-color="#730DF3" stop-opacity="0.3584"/>
<stop offset="0.6855" stop-color="#7F15F7" stop-opacity="0.6192"/>
<stop offset="0.9326" stop-color="#9322FD" stop-opacity="0.8805"/>
<stop offset="0.9984" stop-color="#9A27FF" stop-opacity="0.95"/>
</linearGradient>
</defs>
</svg>
