<svg width="24" height="24" viewBox="0 0 24 24" fill="none" xmlns="http://www.w3.org/2000/svg">
<path d="M1.14072 0H0V4.44587H1.14072V0Z" fill="#988FBD"/>
<path d="M0 0.0103134L0 1.15103L4.4459 1.15103L4.4459 0.0103134L0 0.0103134Z" fill="#988FBD"/>
<path d="M22.8593 24L24 24L24 19.5541L22.8593 19.5541L22.8593 24Z" fill="#988FBD"/>
<path d="M24 23.9963L24 22.8556L19.5541 22.8556L19.5541 23.9963L24 23.9963Z" fill="#988FBD"/>
<path d="M9.18497 10.3835L7.37152 9.85696L5.79206 14.4198C5.73356 14.5661 5.82131 14.7123 5.9383 14.7416L7.66401 15.2973C7.78101 15.3266 7.92726 15.2681 7.98576 15.1511L9.47747 10.9392C9.53597 10.6759 9.41897 10.4419 9.18497 10.3835Z" fill="#5B4E96"/>
<path d="M5.29274 21.4981C3.39153 21.2934 1.72432 20.1527 0.788344 18.5147C0.027862 17.14 -0.147632 15.5313 0.261858 14.0103C0.700597 12.4894 1.69508 11.2024 3.09904 10.4419C3.21604 10.3834 3.33304 10.325 3.45003 10.2665C4.44451 9.79847 5.58523 9.59372 6.6967 9.73997C7.01844 9.76922 7.31094 9.82771 7.60343 9.91546L9.15365 10.3834C9.38764 10.4419 9.50464 10.7052 9.41689 10.9099L8.62716 13.1329L6.90145 12.5771C6.72596 12.5186 6.52121 12.4894 6.34571 12.4601C5.73148 12.4016 5.14649 12.4894 4.59075 12.7526C4.53226 12.7819 4.47376 12.8111 4.41526 12.8404C3.68403 13.2499 3.12829 13.9226 2.89429 14.7416C2.6603 15.5605 2.74805 16.4088 3.15754 17.1693C3.65478 18.0467 4.56151 18.661 5.58523 18.778C6.17022 18.8365 6.78445 18.7487 7.31094 18.4855C7.36944 18.4562 7.42794 18.427 7.48644 18.3977C8.18842 18.0175 8.74416 17.3155 9.0074 16.4965L12.2541 7.25379C12.6636 5.79133 13.6873 4.53361 15.062 3.77313C15.179 3.71464 15.296 3.65614 15.413 3.59764C16.4075 3.12965 17.5482 2.92491 18.6304 3.07116C20.5316 3.2759 22.1988 4.41662 23.1348 6.05457C24.7143 8.89174 23.6905 12.5186 20.8241 14.1273C20.7071 14.1858 20.5901 14.2443 20.4731 14.3028C19.4787 14.7708 18.3672 14.9756 17.2557 14.8293C16.934 14.8001 16.6415 14.7416 16.349 14.6538L15.1205 14.3028C15.0035 14.2736 14.945 14.1566 14.9743 14.0396L15.764 11.8459C15.7932 11.7289 15.9102 11.6704 16.0272 11.6997L17.0217 11.9922H17.051C17.2265 12.0507 17.4019 12.0799 17.6067 12.1091C18.2209 12.1676 18.8059 12.0799 19.3617 11.8167C19.4202 11.7874 19.4787 11.7582 19.5371 11.7289C21.0874 10.8807 21.6431 8.92099 20.7949 7.40003C20.2976 6.52256 19.3909 5.90833 18.3672 5.79133C17.7822 5.73283 17.168 5.82058 16.6415 6.08382C16.583 6.11307 16.5245 6.14232 16.466 6.17157C15.7932 6.55181 15.3253 7.13679 14.945 8.07277V8.10201L11.6983 17.3155C11.2596 18.778 10.2359 20.0357 8.8904 20.7962C8.7734 20.8547 8.65641 20.9131 8.53941 20.9716C7.51568 21.4396 6.40421 21.6444 5.29274 21.4981Z" fill="#5B4E96"/>
</svg>
