<svg width="32" height="33" viewBox="0 0 32 33" fill="none" xmlns="http://www.w3.org/2000/svg">
<rect y="0.5" width="32" height="32" rx="8" fill="white"/>
<path d="M12.9011 17.3626C12.8256 17.3626 11.2414 17.363 10.5108 17.3623C10.1347 17.3621 10.0005 17.2269 10.0005 16.8484C9.99997 15.876 9.99973 14.9037 10.0005 13.9314C10.0007 13.5576 10.1426 13.415 10.5139 13.4148C11.2446 13.4143 12.8201 13.4145 12.9011 13.4145C12.9011 13.3479 12.9009 11.9441 12.9011 11.2976C12.9016 10.3419 13.0721 9.42703 13.5577 8.58937C14.0548 7.73199 14.7782 7.14469 15.7054 6.8051C16.2991 6.58745 16.9155 6.50063 17.5457 6.50015C18.334 6.49967 19.1224 6.50039 19.911 6.50183C20.2498 6.50231 20.4001 6.65214 20.4009 6.99341C20.4023 7.90803 20.4023 8.82265 20.4009 9.73704C20.4004 10.0819 20.2563 10.2204 19.9098 10.2243C19.2635 10.2313 18.6168 10.2269 17.9713 10.2529C17.3193 10.2529 16.9764 10.5713 16.9764 11.2462C16.9608 11.96 16.9699 12.6745 16.9699 13.4143C17.031 13.4143 18.8864 13.414 19.7537 13.4143C20.1476 13.4143 20.2823 13.5497 20.2823 13.9458C20.2823 14.9128 20.2821 15.8801 20.2813 16.8472C20.2811 17.2375 20.1546 17.3621 19.7583 17.3623C18.891 17.3628 17.0428 17.3626 16.962 17.3626V25.1896C16.962 25.6069 16.8306 25.7399 16.4189 25.7399C15.4151 25.7399 14.411 25.7401 13.4071 25.7399C13.0433 25.7399 12.9014 25.5985 12.9014 25.2346C12.9011 22.6855 12.9011 17.452 12.9011 17.3626Z" fill="#3D6AD6"/>
</svg>
