<svg width="64" height="64" viewBox="0 0 64 64" fill="none" xmlns="http://www.w3.org/2000/svg">
    <rect width="64" height="64" rx="9.23077" fill="#FFEDDD"/>
    <path d="M20.5713 37.0073C20.02 33.4239 19.4687 29.8407 18.9175 26.2574C18.7952 25.4631 19.699 24.9213 20.3419 25.4035C22.0594 26.6917 23.7769 27.9797 25.4944 29.2679C26.0599 29.692 26.8655 29.554 27.2576 28.9658L31.5471 22.5315C32.0005 21.8515 32.9995 21.8515 33.4528 22.5315L37.7424 28.9658C38.1344 29.554 38.9401 29.6919 39.5056 29.2679C41.2231 27.9797 42.9405 26.6917 44.658 25.4035C45.3009 24.9213 46.2047 25.4631 46.0826 26.2574C45.5313 29.8407 44.98 33.4239 44.4288 37.0073H20.5713Z" fill="#FF9437"/>
    <path d="M43.1839 42.9703H21.8141C21.1272 42.9703 20.5703 42.4134 20.5703 41.7265V38.9941H44.4278V41.7265C44.4277 42.4134 43.8708 42.9703 43.1839 42.9703Z" fill="#FF9437"/>
</svg>
