<svg width="26" height="27" viewBox="0 0 26 27" fill="none" xmlns="http://www.w3.org/2000/svg">
<rect y="0.5" width="26" height="26" rx="6" fill="#FFEDDD"/>
<path d="M6.35156 15.4905C6.06186 13.6074 5.77216 11.7244 5.48246 9.84129C5.41821 9.42385 5.89317 9.13915 6.23102 9.39256C7.13361 10.0695 8.03616 10.7464 8.93874 11.4233C9.23592 11.6462 9.65931 11.5737 9.86534 11.2646L12.1196 7.88323C12.3578 7.5259 12.8828 7.5259 13.121 7.88323L15.3753 11.2646C15.5813 11.5737 16.0047 11.6462 16.3019 11.4233C17.2044 10.7464 18.107 10.0695 19.0096 9.39256C19.3474 9.13915 19.8224 9.42385 19.7582 9.84129C19.4685 11.7244 19.1788 13.6074 18.8891 15.4905H6.35156Z" fill="#FF9437"/>
<path d="M18.2354 18.6247H7.00522C6.64422 18.6247 6.35156 18.332 6.35156 17.971V16.5352H18.8891V17.971C18.889 18.332 18.5964 18.6247 18.2354 18.6247Z" fill="#FF9437"/>
</svg>
