<svg width="25" height="25" viewBox="0 0 25 25" fill="none" xmlns="http://www.w3.org/2000/svg">
<path d="M9.3818 12.2935C10.2037 12.2935 10.8612 11.636 10.8612 10.814C10.8612 9.99213 10.2037 9.33459 9.3818 9.33459C8.55988 9.33459 7.90234 9.99213 7.90234 10.814C7.90234 11.636 8.55988 12.2935 9.3818 12.2935Z" fill="#6941C6"/>
<path d="M22.6963 16.8959C21.9566 16.1562 20.9703 15.7452 19.984 15.5808L19.9018 15.5808L19.9018 3.82741C19.9018 3.00549 19.573 2.26577 18.9977 1.69043C18.4224 1.11508 17.6826 0.786316 16.8607 0.786316L3.21688 0.786316C2.39496 0.786316 1.65523 1.11508 1.07989 1.69043C0.504549 2.26577 0.175781 3.00549 0.175781 3.82741L0.175781 20.6767C0.175781 21.4986 0.504549 22.2384 1.07989 22.8137C1.65523 23.3891 2.39496 23.7178 3.21688 23.7178L16.3676 23.7178C17.2717 24.4575 18.258 24.7863 19.3265 24.7863C20.5593 24.7863 21.71 24.2932 22.6141 23.3891C23.5182 22.4849 24.0114 21.3343 24.0114 20.1014C24.0114 18.9507 23.5182 17.7178 22.6963 16.8959ZM1.07989 3.82741C1.07989 3.25207 1.32647 2.75892 1.73742 2.34796C2.14838 1.937 2.64154 1.69043 3.21688 1.69043L16.7785 1.69043C17.3539 1.69043 17.847 1.937 18.258 2.34796C18.6689 2.75892 18.9155 3.25207 18.9155 3.82741L18.9155 14.5123L15.3813 10.9781C15.2991 10.8959 15.1347 10.8137 15.0525 10.8137C14.8881 10.8137 14.8059 10.8959 14.7237 10.9781L9.46345 16.1562L5.51825 12.6219C5.43606 12.5397 5.27167 12.4575 5.18948 12.4575C5.0251 12.4575 4.9429 12.5397 4.86071 12.6219L1.07989 16.4849L1.07989 3.82741ZM3.21688 22.8137L3.05249 22.7315C2.55934 22.7315 2.06619 22.4849 1.65523 22.074C1.24427 21.663 1.07989 21.1699 1.07989 20.5945L1.07989 17.8L5.18948 13.6082L9.13468 17.1425C9.21688 17.2247 9.29907 17.3069 9.46345 17.3069C9.62784 17.3069 9.71003 17.2247 9.79222 17.1425L14.9703 11.9644L18.5045 15.4986L18.0936 15.663C18.0114 15.663 17.9292 15.7452 17.7648 15.7452L17.6826 15.7452C17.6004 15.7452 17.6004 15.7452 17.5182 15.8274C17.4361 15.8274 17.4361 15.8274 17.3539 15.9096L17.2717 15.9918C17.1895 15.9918 17.1895 15.9918 17.1073 16.074L16.6141 16.4028L16.5319 16.4028C16.3676 16.5671 16.2032 16.6493 16.0388 16.8959C15.1347 17.8 14.6415 18.9507 14.6415 20.1836C14.6415 20.5123 14.6415 20.7589 14.7237 21.1699L14.8059 21.4165C14.8881 21.663 14.9703 21.8274 15.0525 22.074L15.1347 22.1562C15.2169 22.3206 15.2991 22.4849 15.3813 22.5671L15.5456 22.8137L3.21688 22.8137ZM21.9566 22.8137C21.2991 23.4712 20.3128 23.8822 19.3265 23.8822C18.3402 23.8822 17.4361 23.4712 16.7785 22.8137C16.6963 22.8137 16.6963 22.7315 16.6141 22.7315C16.5319 22.6493 16.5319 22.6493 16.4498 22.5671L16.3676 22.4849L16.2854 22.4028C16.2032 22.3206 16.121 22.1562 16.0388 21.9918C16.0388 21.9096 15.9566 21.9096 15.9566 21.9096C15.9566 21.8274 15.8744 21.8274 15.8744 21.7452C15.7922 21.5808 15.7922 21.4986 15.7922 21.3343C15.7922 21.2521 15.7922 21.2521 15.71 21.1699C15.71 21.0877 15.71 21.0877 15.6278 21.0055C15.5456 20.7589 15.5456 20.5123 15.5456 20.2658C15.5456 19.2795 15.9566 18.3754 16.6141 17.6356C17.2717 16.9781 18.258 16.5671 19.2443 16.5671C20.2306 16.5671 21.1347 16.9781 21.8744 17.6356C22.5319 18.2932 22.9429 19.2795 22.9429 20.2658C23.0251 21.1699 22.6963 22.074 21.9566 22.8137Z" fill="#6941C6"/>
<path d="M20.7255 19.6898L19.7392 19.6898L19.7392 18.7035C19.7392 18.4569 19.4926 18.2103 19.246 18.2103C18.9995 18.2103 18.7529 18.4569 18.7529 18.7035L18.7529 19.6898L17.7666 19.6898C17.52 19.6898 17.2734 19.9364 17.2734 20.1829C17.2734 20.4295 17.52 20.6761 17.7666 20.6761L18.7529 20.6761L18.7529 21.6624C18.7529 21.909 18.9995 22.1555 19.246 22.1555C19.4926 22.1555 19.7392 21.909 19.7392 21.6624L19.7392 20.6761L20.7255 20.6761C20.9721 20.6761 21.2186 20.4295 21.2186 20.1829C21.2186 19.9364 21.0543 19.6898 20.7255 19.6898Z" fill="#6941C6"/>
</svg>
