<svg width="28" height="25" viewBox="0 0 28 25" fill="none" xmlns="http://www.w3.org/2000/svg">
<path d="M25.7917 0.760681L2.29167 0.760681C1.20833 0.760681 0.375 1.67735 0.375 2.67735L0.375 22.844C0.375 23.9273 1.29167 24.7607 2.29167 24.7607L25.7083 24.7607C26.7917 24.7607 27.625 23.844 27.625 22.844L27.625 2.67735C27.7083 1.59401 26.7917 0.760681 25.7917 0.760681ZM26.5417 22.844C26.5417 23.344 26.125 23.6773 25.7083 23.6773L2.29167 23.6773C1.79167 23.6773 1.45833 23.2607 1.45833 22.844L1.45833 2.67735C1.45833 2.17735 1.875 1.84401 2.29167 1.84401L25.7083 1.84401C26.2083 1.84401 26.5417 2.26068 26.5417 2.67735L26.5417 22.844Z" fill="#6941C6"/>
<path d="M16.457 13.2607L11.457 13.2607C11.207 13.2607 10.957 13.4273 10.957 13.7607L10.957 18.9274C11.0404 19.2607 11.207 19.4273 11.457 19.4273L16.457 19.4273C16.707 19.4273 16.957 19.2607 16.957 18.9274L16.957 13.7607C16.957 13.5107 16.8737 13.2607 16.457 13.2607ZM16.0404 18.594L11.957 18.594L11.957 14.344L16.0404 14.344L16.0404 18.594Z" fill="#6941C6"/>
<path d="M8.79036 13.2607L4.20703 13.2607C3.95703 13.2607 3.70703 13.4273 3.70703 13.7607L3.70703 18.9274C3.70703 19.2607 3.8737 19.4273 4.20703 19.4273L8.79036 19.4273C9.04036 19.4273 9.29036 19.2607 9.29036 18.9274L9.29036 13.7607C9.3737 13.5107 9.20703 13.2607 8.79036 13.2607ZM8.3737 18.594L4.70703 18.594L4.70703 14.344L8.3737 14.344L8.3737 18.594Z" fill="#6941C6"/>
<path d="M23.793 13.2607L18.793 13.2607C18.543 13.2607 18.293 13.4273 18.293 13.7607L18.293 18.9274C18.293 19.2607 18.543 19.4273 18.793 19.4273L23.793 19.4273C24.043 19.4273 24.293 19.2607 24.293 18.9274L24.293 13.7607C24.3763 13.5107 24.2096 13.2607 23.793 13.2607ZM23.3763 18.594L19.293 18.594L19.293 14.344L23.3763 14.344L23.3763 18.594Z" fill="#6941C6"/>
<path d="M23.793 5.76068L18.793 5.76068C18.543 5.76068 18.293 5.92735 18.293 6.26068L18.293 11.4273C18.293 11.6773 18.543 11.9273 18.793 11.9273L23.793 11.9273C24.043 11.9273 24.293 11.7607 24.293 11.4273L24.293 6.26068C24.3763 6.01068 24.2096 5.76068 23.793 5.76068ZM23.3763 11.0107L19.293 11.0107L19.293 6.76068L23.3763 6.76068L23.3763 11.0107Z" fill="#6941C6"/>
<path d="M8.79036 5.76068L4.20703 5.76068C3.95703 5.76068 3.70703 5.92735 3.70703 6.26068L3.70703 11.4273C3.70703 11.6773 3.8737 11.9273 4.20703 11.9273L8.79036 11.9273C9.04036 11.9273 9.29036 11.7607 9.29036 11.4273L9.29036 6.26068C9.3737 6.01068 9.20703 5.76068 8.79036 5.76068ZM8.3737 11.0107L4.70703 11.0107L4.70703 6.76068L8.3737 6.76068L8.3737 11.0107Z" fill="#6941C6"/>
<path d="M15.375 5.67767L12.7083 5.67767C11.7083 5.67767 10.875 6.51101 10.875 7.51101L10.875 10.1777C10.875 11.1777 11.7083 12.011 12.7083 12.011L15.375 12.011C16.375 12.011 17.2083 11.1777 17.2083 10.1777L17.2083 7.51101C17.125 6.51101 16.375 5.67767 15.375 5.67767ZM11.7083 7.51101C11.7083 7.01101 12.125 6.59434 12.625 6.59434L15.2917 6.59434C15.7917 6.59434 16.2083 7.01101 16.2083 7.51101L16.2083 10.1777C16.2083 10.6777 15.7917 11.0943 15.2917 11.0943L12.625 11.0943C12.125 11.0943 11.7083 10.6777 11.7083 10.1777L11.7083 7.51101Z" fill="#6941C6"/>
<path d="M13.957 10.0934C14.6237 10.0934 15.207 9.51005 15.207 8.84338C15.207 8.17672 14.6237 7.59338 13.957 7.59338C13.2904 7.59338 12.707 8.17672 12.707 8.84338C12.7904 9.51005 13.2904 10.0934 13.957 10.0934ZM13.957 8.17672C14.2904 8.17672 14.6237 8.51005 14.6237 8.84338C14.6237 9.17672 14.2904 9.51005 13.957 9.51005C13.6237 9.51005 13.2904 9.17672 13.2904 8.84338C13.2904 8.51005 13.6237 8.17672 13.957 8.17672Z" fill="#6941C6"/>
<path d="M15.5391 7.76001C15.6224 7.76001 15.7891 7.67668 15.8724 7.59334C15.9557 7.51001 16.0391 7.42668 16.0391 7.26001C16.0391 7.17668 15.9557 7.01001 15.8724 6.92668C15.7891 6.84334 15.7057 6.76001 15.5391 6.76001C15.3724 6.76001 15.2891 6.84334 15.2057 6.92668C15.1224 7.01001 15.0391 7.09334 15.0391 7.26001C15.0391 7.34334 15.1224 7.51001 15.2057 7.59334C15.2891 7.76001 15.3724 7.76001 15.5391 7.76001Z" fill="#6941C6"/>
</svg>
