<svg width="31" height="24" viewBox="0 0 31 24" fill="none" xmlns="http://www.w3.org/2000/svg">
<path d="M4.90526 12.9287L2.87709 12.9287C2.70808 12.9287 2.53906 13.0977 2.53906 13.2667C2.53906 13.4358 2.70808 13.6048 2.87709 13.6048L4.90526 13.6048C5.07427 13.6048 5.24329 13.4358 5.24329 13.2667C5.24329 13.0977 5.15878 12.9287 4.90526 12.9287Z" fill="#6941C6"/>
<path d="M6.25743 11.2388L1.60954 11.2388C0.764469 11.2388 0.00390625 11.9993 0.00390625 12.8444L0.00390625 13.8585C0.00390625 14.7036 0.764469 15.4641 1.60954 15.4641L1.86306 15.4641L4.65179 15.4641L6.25743 15.4641C7.1025 15.4641 7.86306 14.7036 7.86306 13.8585L7.86306 12.8444C7.86306 11.9148 7.1025 11.2388 6.25743 11.2388ZM7.1025 13.774C7.1025 14.1965 6.76447 14.6191 6.25743 14.6191L1.60954 14.6191C1.187 14.6191 0.764469 14.281 0.764469 13.774L0.764469 12.7599C0.764469 12.3374 1.1025 11.9148 1.60954 11.9148L2.62362 11.9148L6.34193 11.9148C6.76447 11.9148 7.187 12.2529 7.187 12.7599L7.187 13.774L7.1025 13.774Z" fill="#6941C6"/>
<path d="M13.8623 12.9287L11.8341 12.9287C11.6651 12.9287 11.4961 13.0977 11.4961 13.2667C11.4961 13.4358 11.6651 13.6048 11.8341 13.6048L13.8623 13.6048C14.0313 13.6048 14.2003 13.4358 14.2003 13.2667C14.2003 13.0977 14.1158 12.9287 13.8623 12.9287Z" fill="#6941C6"/>
<path d="M15.2145 11.2388L10.5666 11.2388C9.7215 11.2388 8.96094 11.9993 8.96094 12.8444L8.96094 13.8585C8.96094 14.7036 9.7215 15.4641 10.5666 15.4641L10.8201 15.4641L13.6088 15.4641L15.2145 15.4641C16.0595 15.4641 16.8201 14.7036 16.8201 13.8585L16.8201 12.8444C16.8201 11.9148 16.0595 11.2388 15.2145 11.2388ZM16.0595 13.774C16.0595 14.1965 15.7215 14.6191 15.2145 14.6191L10.5666 14.6191C10.144 14.6191 9.7215 14.281 9.7215 13.774L9.7215 12.7599C9.7215 12.3374 10.0595 11.9148 10.5666 11.9148L11.5807 11.9148L15.299 11.9148C15.7215 11.9148 16.144 12.2529 16.144 12.7599L16.144 13.774L16.0595 13.774Z" fill="#6941C6"/>
<path d="M22.9053 12.9287L20.8771 12.9287C20.7081 12.9287 20.5391 13.0977 20.5391 13.2667C20.5391 13.4358 20.7081 13.6048 20.8771 13.6048L22.9053 13.6048C23.0743 13.6048 23.2433 13.4358 23.2433 13.2667C23.2433 13.0977 23.0743 12.9287 22.9053 12.9287Z" fill="#6941C6"/>
<path d="M24.1715 11.2388L19.5236 11.2388C18.6785 11.2388 17.918 11.9993 17.918 12.8444L17.918 13.8585C17.918 14.7036 18.6785 15.4641 19.5236 15.4641L19.7771 15.4641L22.5659 15.4641L24.1715 15.4641C25.0166 15.4641 25.7771 14.7036 25.7771 13.8585L25.7771 12.8444C25.7771 11.9148 25.1011 11.2388 24.1715 11.2388ZM25.0166 13.774C25.0166 14.1965 24.6785 14.6191 24.1715 14.6191L19.5236 14.6191C19.1011 14.6191 18.6785 14.281 18.6785 13.774L18.6785 12.7599C18.6785 12.3374 19.0166 11.9148 19.5236 11.9148L20.5377 11.9148L24.256 11.9148C24.6785 11.9148 25.1011 12.2529 25.1011 12.7599C25.0166 12.8444 25.0166 13.774 25.0166 13.774Z" fill="#6941C6"/>
<path d="M28.2283 -0.00048828L5.8339 -0.000488281C4.5663 -0.000488281 3.63672 1.0136 3.63672 2.1967L3.63672 9.80233C3.63672 9.97134 3.72123 10.0559 3.89024 10.0559L4.31278 10.0559C4.48179 10.0559 4.5663 9.97134 4.5663 9.80233L4.5663 2.1967C4.5663 1.43613 5.15785 0.844582 5.91841 0.844582L28.2283 0.844582C28.9888 0.844582 29.5804 1.43613 29.5804 2.1967L29.5804 21.8023C29.5804 22.5629 28.9888 23.1544 28.2283 23.1544L5.8339 23.1544C5.07334 23.1544 4.48179 22.5629 4.48179 21.8023L4.48179 17.0699C4.48179 16.8164 4.31278 16.6474 4.05925 16.6474C3.80573 16.6474 3.63672 16.8164 3.63672 17.0699L3.63672 21.8023C3.63672 23.0699 4.6508 23.9995 5.8339 23.9995L28.1438 23.9995C29.4114 23.9995 30.3409 22.9854 30.3409 21.8023L30.3409 2.2812C30.4254 1.0136 29.4959 -0.00048828 28.2283 -0.00048828Z" fill="#6941C6"/>
<path d="M5.49609 1.85889L6.42567 1.85889L6.42567 2.78846L5.49609 2.78846L5.49609 1.85889Z" fill="#6941C6"/>
<path d="M7.27344 1.85889L8.20301 1.85889L8.20301 2.78846L7.27344 2.78846L7.27344 1.85889Z" fill="#6941C6"/>
<path d="M9.04688 1.85889L9.97645 1.85889L9.97645 2.78846L9.04687 2.78846L9.04688 1.85889Z" fill="#6941C6"/>
<path d="M5.49609 3.6333L28.651 3.6333L28.651 4.56288L5.49609 4.56288L5.49609 3.6333Z" fill="#6941C6"/>
<path d="M28.3129 13.098L27.4678 12.253C27.3833 12.1685 27.2988 12.1685 27.2988 12.1685L27.1298 12.253C27.0453 12.3375 27.0453 12.5065 27.1298 12.591L27.8058 13.267L27.1298 13.9431C27.0453 14.0276 27.0453 14.1966 27.1298 14.2811C27.2143 14.3656 27.2988 14.3656 27.2988 14.3656L27.4678 14.2811L28.3129 13.4361C28.3974 13.3516 28.3974 13.267 28.3974 13.267C28.3129 13.267 28.3129 13.1825 28.3129 13.098Z" fill="#6941C6"/>
</svg>
