<svg width="24" height="24" viewBox="0 0 24 24" fill="none" xmlns="http://www.w3.org/2000/svg">
<path d="M23.4637 9.91833e-10L0.466928 0C0.235416 0 0.00390625 0.23151 0.00390625 0.463021L0.00390625 23.537C0.00390625 23.7685 0.235416 24 0.466928 24L23.5409 24C23.7724 24 24.0039 23.7685 24.0039 23.537L24.0039 0.540192C24.0039 0.23151 23.7724 1.00488e-09 23.4637 9.91833e-10ZM23.0779 23.074L23.0007 23.074L0.92995 23.074L0.92995 4.1672L23.0779 4.1672L23.0779 23.074ZM23.0779 3.24116L23.0007 3.24116L0.92995 3.24116L0.92995 1.00321L23.0779 1.00321L23.0779 3.24116Z" fill="#6941C6"/>
<path d="M2.47292 1.62109L1.54688 1.62109L1.54687 2.54714L2.47292 2.54714L2.47292 1.62109Z" fill="#6941C6"/>
<path d="M4.09401 1.62109L3.16797 1.62109L3.16797 2.54714L4.09401 2.54714L4.09401 1.62109Z" fill="#6941C6"/>
<path d="M5.63698 1.62109L4.71094 1.62109L4.71094 2.54714L5.63698 2.54714L5.63698 1.62109Z" fill="#6941C6"/>
<path d="M4.59584 9.4155L19.4126 9.4155C19.6441 9.4155 19.8756 9.18398 19.8756 8.95247L19.8756 6.56019C19.8756 6.32868 19.6441 6.09717 19.4126 6.09717L4.59584 6.09717C4.36432 6.09717 4.13281 6.32868 4.13281 6.56019L4.13281 8.95247C4.13281 9.18398 4.28715 9.4155 4.59584 9.4155ZM5.05886 7.02321L18.8724 7.02321L18.8724 8.48945L5.05886 8.48945L5.05886 7.02321Z" fill="#6941C6"/>
<path d="M4.59584 17.7103L19.4126 17.7103C19.6441 17.7103 19.8756 17.4788 19.8756 17.2473L19.8756 11.7682C19.8756 11.5367 19.6441 11.3052 19.4126 11.3052L4.59584 11.3052C4.36432 11.3052 4.13281 11.5367 4.13281 11.7682L4.13281 17.2473C4.13281 17.4788 4.28715 17.7103 4.59584 17.7103ZM5.05886 12.2312L18.8724 12.2312L18.8724 16.7843L5.05886 16.7843L5.05886 12.2312Z" fill="#6941C6"/>
<path d="M15.0756 20.5281L4.34889 20.5281C4.23313 20.5281 4.13281 20.4355 4.13281 20.312L4.13281 19.8181C4.13281 19.7024 4.22542 19.6021 4.34889 19.6021L15.0833 19.6021C15.1991 19.6021 15.2994 19.6947 15.2994 19.8181L15.2994 20.312C15.2917 20.4278 15.1991 20.5281 15.0756 20.5281Z" fill="#6941C6"/>
</svg>
