<svg width="26" height="26" viewBox="0 0 26 26" fill="none" xmlns="http://www.w3.org/2000/svg">
<rect width="26" height="26" rx="6" fill="#ECF8EF"/>
<g clip-path="url(#clip0_1873_23117)">
<path d="M14.323 12.0229L12.7019 14.4194L10.3024 16.8067C9.4079 15.6711 8.43405 14.572 7.8418 13.2441L9.1362 11.2628L11.1205 9.34863C10.4581 10.1668 10.5069 11.3727 11.2701 12.1328C12.0852 12.9479 13.4071 12.9479 14.2222 12.1328C14.2528 12.0992 14.2894 12.0596 14.323 12.0229Z" fill="#FBBC04"/>
<path d="M14.3593 11.9761C15.0279 11.1579 14.979 9.94898 14.2158 9.18272C13.4007 8.36761 12.0788 8.36761 11.2637 9.18272C11.2301 9.2163 11.1965 9.25293 11.166 9.28651L12.5337 7.06405L14.3898 5.45215C15.7758 5.89176 16.9237 6.86867 17.5831 8.13865L16.2276 10.3214L14.3593 11.9761Z" fill="#4285F4"/>
<path d="M11.1167 9.34831L7.84102 13.2437C7.51437 12.5172 7.30372 11.7234 7.28235 10.8167C7.2793 10.7648 7.2793 10.7129 7.2793 10.661C7.2793 9.32694 7.75859 8.10275 8.55233 7.15332L11.1167 9.34831Z" fill="#EA4335"/>
<path d="M11.1171 9.34802L8.55273 7.15303C9.55712 5.95938 11.0591 5.19922 12.7412 5.19922C13.3152 5.19922 13.8708 5.28775 14.3928 5.4526L11.1171 9.34802Z" fill="#1A73E8"/>
<path d="M18.1996 10.6603C18.1996 9.75057 17.9767 8.89272 17.5829 8.13867L10.2988 16.8026C11.1261 17.8559 11.8833 18.9396 12.1977 20.2676C12.2069 20.3103 12.2191 20.3592 12.2313 20.4141C12.3442 20.9667 13.1349 20.9667 13.2509 20.4141C13.2631 20.3592 13.2723 20.3073 13.2845 20.2676C14.121 16.7294 18.1019 14.9221 18.1996 10.816C18.1996 10.7641 18.1996 10.7122 18.1996 10.6603Z" fill="#34A853"/>
</g>
<defs>
<clipPath id="clip0_1873_23117">
<rect width="10.92" height="15.6305" fill="white" transform="translate(7.2793 5.2002)"/>
</clipPath>
</defs>
</svg>
