<svg width="26" height="26" viewBox="0 0 26 26" fill="none" xmlns="http://www.w3.org/2000/svg">
    <rect width="26" height="26" rx="8" fill="#F8F9FC"/>
    <path d="M16.7688 12.2612C16.8829 12.2475 16.9922 12.247 17.0926 12.2612C17.1508 12.1279 17.1608 11.898 17.1085 11.6477C17.0308 11.2757 16.9256 11.0506 16.7082 11.0856C16.4908 11.1207 16.4827 11.3902 16.5605 11.7622C16.6042 11.9715 16.682 12.1504 16.7688 12.2612Z" fill="black"/>
    <path d="M14.8981 12.5561C15.0537 12.6243 15.1493 12.6696 15.1867 12.63C15.2108 12.6053 15.2036 12.5583 15.1664 12.4976C15.0897 12.3723 14.9318 12.2452 14.7642 12.1739C14.4216 12.0264 14.013 12.0754 13.6978 12.302C13.5937 12.3782 13.495 12.4838 13.5092 12.548C13.5138 12.5687 13.5293 12.5843 13.5658 12.5894C13.6516 12.5993 13.9515 12.4477 14.2968 12.4265C14.5406 12.4116 14.7426 12.4878 14.8981 12.5561Z" fill="black"/>
    <path d="M14.5864 12.7358C14.3838 12.7678 14.272 12.8345 14.2003 12.8967C14.1391 12.9502 14.1013 13.0093 14.1016 13.0509C14.1017 13.0707 14.1103 13.0821 14.117 13.0878C14.1263 13.096 14.1372 13.1005 14.1504 13.1005C14.1961 13.1005 14.2986 13.0594 14.2986 13.0594C14.5805 12.9585 14.7665 12.9707 14.9508 12.9917C15.0526 13.0031 15.1008 13.0095 15.1231 12.9745C15.1297 12.9646 15.1377 12.9428 15.1173 12.9098C15.0699 12.8328 14.8654 12.7027 14.5864 12.7358Z" fill="black"/>
    <path d="M16.1363 13.3889C16.2739 13.4565 16.4254 13.43 16.4747 13.3297C16.524 13.2294 16.4524 13.0933 16.3148 13.0257C16.1773 12.9581 16.0258 12.9846 15.9765 13.0849C15.9272 13.1852 15.9988 13.3213 16.1363 13.3889Z" fill="black"/>
    <path d="M17.0196 12.6172C16.9078 12.6153 16.8152 12.738 16.8126 12.8913C16.81 13.0445 16.8984 13.1703 17.0102 13.1722C17.1219 13.1741 17.2146 13.0513 17.2172 12.8981C17.2198 12.7449 17.1313 12.6191 17.0196 12.6172Z" fill="black"/>
    <path d="M9.51253 15.3807C9.48475 15.3459 9.43904 15.3565 9.39486 15.3668C9.36396 15.374 9.32897 15.3821 9.29063 15.3815C9.20843 15.3799 9.13882 15.3448 9.09974 15.2847C9.04884 15.2065 9.05177 15.09 9.10798 14.9565C9.11555 14.9385 9.12447 14.9186 9.13418 14.8968C9.22382 14.6957 9.37383 14.3591 9.20541 14.0385C9.07864 13.7971 8.87194 13.6468 8.62337 13.6152C8.38473 13.585 8.13907 13.6735 7.98241 13.8463C7.73519 14.1191 7.69657 14.4902 7.74435 14.6213C7.76188 14.6693 7.78926 14.6826 7.80917 14.6853C7.85121 14.691 7.91341 14.6604 7.9524 14.5556C7.95521 14.548 7.95893 14.5363 7.96357 14.5215C7.98091 14.4661 8.01325 14.3629 8.06619 14.2802C8.13003 14.1805 8.22948 14.1118 8.3462 14.0868C8.46509 14.0613 8.58664 14.084 8.68838 14.1506C8.86153 14.2639 8.92824 14.4761 8.85429 14.6786C8.81606 14.7833 8.75399 14.9836 8.76767 15.1481C8.79536 15.481 9.00014 15.6148 9.18416 15.629C9.36308 15.6357 9.48811 15.5353 9.51977 15.4619C9.53843 15.4185 9.5227 15.392 9.51253 15.3807Z" fill="black"/>
    <path d="M19.8408 14.7719C19.834 14.7478 19.7897 14.5857 19.7287 14.3902C19.6678 14.1948 19.6047 14.0572 19.6047 14.0572C19.8491 13.6912 19.8535 13.3638 19.821 13.1785C19.7863 12.9486 19.6906 12.7528 19.4978 12.5504C19.3049 12.3479 18.9106 12.1406 18.3563 11.985C18.2929 11.9672 18.0838 11.9098 18.0654 11.9042C18.064 11.8922 18.0502 11.2186 18.0375 10.9294C18.0283 10.7204 18.0104 10.3941 17.9091 10.0726C17.7884 9.6375 17.5782 9.25677 17.3157 9.01321C18.04 8.26242 18.4921 7.43539 18.491 6.72589C18.489 5.36146 16.8133 4.9486 14.7483 5.80369C14.7461 5.8046 14.3139 5.98789 14.3107 5.98945C14.3088 5.98755 13.5198 5.21335 13.5079 5.203C11.1535 3.1494 3.79222 11.3316 6.14574 13.3189L6.66009 13.7546C6.52666 14.1002 6.47424 14.4961 6.51707 14.922C6.57206 15.4689 6.85418 15.9932 7.3114 16.3983C7.74548 16.7828 8.31619 17.0263 8.87001 17.0258C9.78589 19.1364 11.8785 20.4311 14.3321 20.504C16.9641 20.5822 19.1735 19.3472 20.0993 17.1287C20.1598 16.973 20.4168 16.2714 20.4168 15.6522C20.4168 15.0298 20.0649 14.7719 19.8408 14.7719ZM9.07238 16.433C8.99245 16.4467 8.91083 16.4521 8.82861 16.4501C8.03367 16.4288 7.17501 15.7131 7.08968 14.8644C6.99536 13.9263 7.47469 13.2043 8.32339 13.0332C8.42485 13.0127 8.54747 13.0009 8.67967 13.0078C9.15518 13.0338 9.8559 13.399 10.016 14.4348C10.1577 15.3522 9.93257 16.2863 9.07238 16.433ZM8.18462 12.472C7.65629 12.5747 7.19065 12.8741 6.9059 13.2877C6.73568 13.1458 6.41864 12.871 6.36264 12.7639C5.90805 11.9007 6.85879 10.2224 7.52293 9.27466C9.16428 6.93234 11.735 5.15943 12.9251 5.48108C13.1185 5.53583 13.7592 6.27877 13.7592 6.27877C13.7592 6.27877 12.5697 6.93879 11.4665 7.85882C9.98011 9.00335 8.85728 10.6668 8.18462 12.472ZM16.5287 16.0823C16.5459 16.075 16.5579 16.0552 16.5559 16.0356C16.5534 16.0115 16.5319 15.994 16.5078 15.9964C16.5078 15.9964 15.2625 16.1808 14.0861 15.7501C14.2142 15.3336 14.555 15.484 15.07 15.5256C15.9982 15.5809 16.8301 15.4453 17.445 15.2688C17.9778 15.1159 18.6775 14.8145 19.221 14.3855C19.4044 14.7882 19.4691 15.2314 19.4691 15.2314C19.4691 15.2314 19.611 15.206 19.7296 15.279C19.8417 15.3479 19.9239 15.4913 19.8677 15.8619C19.7535 16.5544 19.4591 17.1164 18.9644 17.6334C18.6634 17.9575 18.2978 18.2393 17.8795 18.4442C17.6574 18.5609 17.4209 18.6618 17.171 18.7434C15.3062 19.3525 13.3975 18.6829 12.7821 17.245C12.733 17.1369 12.6915 17.0237 12.6587 16.9053C12.3965 15.9578 12.6192 14.821 13.315 14.1054C13.3151 14.1054 13.3149 14.1051 13.3149 14.105C13.3579 14.0595 13.4016 14.0058 13.4016 13.9383C13.4016 13.8818 13.3657 13.8222 13.3346 13.78C13.0912 13.4269 12.2479 12.8252 12.4171 11.6607C12.5387 10.8242 13.2703 10.235 13.9524 10.2699C14.01 10.2729 14.0677 10.2765 14.1253 10.2798C14.4209 10.2973 14.6787 10.3352 14.9221 10.3454C15.3293 10.363 15.6956 10.3038 16.1293 9.94237C16.2757 9.82039 16.393 9.71472 16.5915 9.68107C16.6123 9.67753 16.6642 9.65891 16.768 9.66382C16.8739 9.66944 16.9747 9.69854 17.0653 9.75884C17.413 9.99024 17.4623 10.5507 17.4804 10.9607C17.4906 11.1947 17.519 11.7609 17.5286 11.9235C17.5507 12.2952 17.6484 12.3476 17.8461 12.4126C17.9572 12.4492 18.0605 12.4765 18.2125 12.5192C18.6729 12.6484 18.9458 12.7795 19.1178 12.948C19.2204 13.0532 19.2681 13.1651 19.2828 13.2718C19.3371 13.6677 18.9754 14.1569 18.0179 14.6013C16.9712 15.0871 15.7014 15.2102 14.8241 15.1124C14.7568 15.1049 14.5175 15.0778 14.5167 15.0777C13.8149 14.9832 13.4146 15.8901 13.8358 16.5115C14.1072 16.912 14.8466 17.1726 15.5864 17.1727C17.2825 17.173 18.5862 16.4486 19.0712 15.8231C19.0857 15.8044 19.0871 15.8023 19.11 15.7678C19.1338 15.7318 19.1141 15.712 19.0844 15.7323C18.6882 16.0034 16.9283 17.0797 15.0459 16.756C15.0459 16.756 14.8172 16.7183 14.6083 16.6371C14.4424 16.5726 14.0952 16.4128 14.0529 16.0565C15.5722 16.5263 16.5287 16.0823 16.5287 16.0823ZM11.2161 9.2651C11.7996 8.5908 12.518 8.00455 13.1614 7.67538C13.1837 7.66399 13.2073 7.68814 13.1952 7.71003C13.1442 7.80258 13.0458 8.00067 13.0146 8.15098C13.0097 8.17437 13.0353 8.19201 13.055 8.17855C13.4553 7.90565 14.1517 7.61328 14.7625 7.57569C14.7888 7.57407 14.8015 7.60772 14.7806 7.62375C14.6877 7.69498 14.5861 7.7936 14.5119 7.89335C14.4992 7.91032 14.5111 7.93475 14.5323 7.9349C14.9612 7.93792 15.5659 8.08805 15.9599 8.30908C15.9866 8.32404 15.9676 8.3757 15.9378 8.36886C15.3415 8.23216 14.3655 8.12851 13.3515 8.37579C12.4464 8.59657 11.7555 8.93746 11.2515 9.30403C11.2261 9.32256 11.1955 9.28892 11.2161 9.2651Z" fill="black"/>
</svg>