<svg width="24" height="24" viewBox="0 0 24 24" fill="none" xmlns="http://www.w3.org/2000/svg">
<g clip-path="url(#clip0_1518_16371)">
<path d="M8.31641 21.9973H15.2952C15.1702 22.8054 13.5861 23.8343 12.2374 23.9796C10.6824 24.1482 8.796 23.2065 8.31931 21.9973H8.31641Z" fill="#5614D5"/>
<path d="M22.8634 18.7481C22.721 18.7365 22.5728 18.7423 22.4303 18.7423C22.0844 18.7423 21.7415 18.7423 21.3142 18.7423V18.1086C21.3142 15.2427 21.3258 12.3768 21.3026 9.51091C21.2968 8.86274 21.2386 8.20584 21.1107 7.5722C20.044 2.29672 14.7337 -1.02553 9.50467 0.288258C5.33079 1.33754 2.32536 5.14228 2.3428 9.47022C2.35443 12.0745 2.3428 14.6818 2.3428 17.2861C2.3428 17.5215 2.3428 18.2569 2.3428 18.7452C2.02598 18.7452 1.1104 18.7365 0.787768 18.7568C0.313991 18.7859 -0.00573523 19.1521 7.79779e-05 19.623C0.00589118 20.0822 0.308178 20.4078 0.776141 20.4485C0.906938 20.4601 1.03774 20.4572 1.16563 20.4572C8.27227 20.4572 15.3789 20.4601 22.4856 20.463C22.6164 20.463 22.7472 20.463 22.875 20.4514C23.3343 20.4049 23.6482 20.0677 23.6569 19.6201C23.6656 19.1666 23.3227 18.7917 22.8605 18.751L22.8634 18.7481Z" fill="#5614D5"/>
<path d="M17.2903 14.7337C17.8164 14.7337 18.2408 15.161 18.2408 15.6842C18.2408 16.2074 17.8135 16.6347 17.2903 16.6347C16.7671 16.6347 16.3398 16.2074 16.3398 15.6842C16.3398 15.161 16.7671 14.7337 17.2903 14.7337Z" fill="#836EFF"/>
<path d="M18.1573 8.57175L18.1719 8.56303C18.1602 8.48164 18.1486 8.40026 18.1312 8.32178C17.5528 5.4704 15.0938 3.36602 12.2046 3.19453C12.2017 3.19453 12.1959 3.19453 12.193 3.19453C12.068 3.18581 11.9459 3.18291 11.8209 3.18291H11.8035C11.6785 3.18291 11.5535 3.18872 11.4315 3.19453C11.4285 3.19453 11.4227 3.19453 11.4198 3.19453C8.53066 3.36602 6.07168 5.4704 5.49326 8.32178C5.47873 8.40026 5.4671 8.48164 5.45257 8.56303L5.4671 8.57175C5.41188 8.90892 5.38281 9.2548 5.38281 9.60359C5.38281 9.87972 5.38281 15.7365 5.38281 16.5329L7.3564 18.6635C7.3564 17.1724 7.3564 10.4436 7.35349 9.59487C7.34477 7.59222 8.76319 5.78141 10.7252 5.28729C10.8879 5.24659 11.0536 5.21462 11.2164 5.19428C11.2454 5.19137 11.2716 5.18556 11.3007 5.18265C11.3646 5.17393 11.4256 5.17102 11.4867 5.16521C11.5768 5.1594 11.6669 5.15358 11.757 5.15358C11.7744 5.15358 11.789 5.15358 11.8064 5.15358C11.8238 5.15358 11.8384 5.15358 11.8558 5.15358C11.9459 5.15358 12.036 5.1594 12.1261 5.16521C12.1901 5.17102 12.2511 5.17684 12.3122 5.18265C12.3412 5.18556 12.3674 5.19137 12.3964 5.19428C12.5621 5.21753 12.7249 5.24659 12.8877 5.28729C14.8496 5.78141 16.268 7.59222 16.2593 9.59487C16.2593 9.91169 16.2593 12.6846 16.2593 13.9809L18.2329 12.6642C18.2329 11.9143 18.2329 9.68789 18.2329 9.60359C18.2329 9.2548 18.2038 8.90892 18.1486 8.57175H18.1573Z" fill="#836EFF"/>
<path d="M21.3009 9.51349C21.3009 9.88263 21.3038 10.2489 21.3067 10.618L23.7105 9.02227L22.1613 6.69699L21.0742 7.41492C21.0858 7.46724 21.1004 7.51956 21.112 7.57478C21.2399 8.20842 21.298 8.86822 21.3038 9.51349H21.3009Z" fill="#00F9AC"/>
<path opacity="0.9" d="M5.34403 12.3765L3.28906 14.2687L8.08205 19.4424L21.31 10.6209C21.31 10.2518 21.31 9.88553 21.3042 9.51639C21.2984 8.86822 21.2402 8.21133 21.1124 7.57769C21.1007 7.52246 21.0862 7.47014 21.0746 7.41782L8.51804 15.7917L5.34403 12.3765Z" fill="#21D8A3"/>
</g>
<defs>
<clipPath id="clip0_1518_16371">
<rect width="23.9999" height="24" fill="white"/>
</clipPath>
</defs>
</svg>
