<svg width="29" height="25" viewBox="0 0 29 25" fill="none" xmlns="http://www.w3.org/2000/svg">
<path d="M26.3932 0.769165L2.89323 0.769165C1.8099 0.769165 0.976562 1.68583 0.976562 2.68583L0.976562 22.8525C0.976562 23.9358 1.89323 24.7692 2.89323 24.7692L26.3099 24.7692C27.3932 24.7692 28.2266 23.8525 28.2266 22.8525L28.2266 2.68583C28.3099 1.6025 27.3932 0.769165 26.3932 0.769165ZM27.1432 22.8525C27.1432 23.3525 26.7266 23.6858 26.3099 23.6858L2.89323 23.6858C2.39323 23.6858 2.0599 23.2692 2.0599 22.8525L2.0599 2.68583C2.0599 2.18583 2.47656 1.8525 2.89323 1.8525L26.3099 1.8525C26.8099 1.8525 27.1432 2.26916 27.1432 2.68583L27.1432 22.8525Z" fill="#6941C6"/>
<path d="M7.81047 12.6855C7.72714 12.7689 7.81047 12.6855 7.81047 12.6855C7.72714 12.7689 7.81047 12.8522 7.81047 12.8522C7.89381 12.8522 7.89381 12.7689 7.81047 12.6855C7.89381 12.7689 7.89381 12.6855 7.81047 12.6855Z" fill="#6941C6"/>
<path d="M21.3945 13.3516C20.9779 13.3516 20.5612 13.685 20.5612 14.1016L19.1445 14.5183C18.8945 14.1016 18.4779 13.7683 17.9779 13.6016L17.9779 11.185C18.3945 11.0183 18.7279 10.6016 18.7279 10.1016C18.7279 9.93496 18.7279 9.76829 18.6445 9.60162L20.3112 7.76829C20.3945 7.76829 20.4779 7.76829 20.5612 7.76829C21.0612 7.76829 21.4779 7.35162 21.4779 6.85162C21.4779 6.35162 21.0612 5.93496 20.5612 5.93496C20.0612 5.93496 19.6445 6.35162 19.6445 6.85162C19.6445 6.93496 19.6445 7.01829 19.7279 7.18496L18.0612 9.01829C17.8945 8.93496 17.8112 8.93496 17.6445 8.93496C17.1445 8.93496 16.7279 9.26829 16.5612 9.68496L13.6445 9.68496C13.4779 9.01829 12.9779 8.43496 12.2279 8.26829L12.2279 6.76829C12.5612 6.60162 12.7279 6.35162 12.7279 6.01829C12.7279 5.51829 12.3112 5.10162 11.8112 5.10162C11.3112 5.10162 10.8945 5.51829 10.8945 6.01829C10.8945 6.35162 11.0612 6.68496 11.3945 6.76829L11.3945 8.26829C10.5612 8.43496 9.97786 9.18496 9.97786 10.1016C9.97786 10.3516 10.0612 10.6016 10.1445 10.7683L8.39453 11.935C8.22786 11.8516 8.14453 11.8516 7.97786 11.8516C7.47786 11.8516 7.0612 12.2683 7.0612 12.7683C7.0612 13.2683 7.47786 13.685 7.97786 13.685C8.47786 13.685 8.89453 13.2683 8.89453 12.7683L8.89453 12.685L10.4779 11.435C10.7279 11.685 10.9779 11.8516 11.3112 11.8516L11.3112 14.2683C10.8945 14.435 10.5612 14.8516 10.5612 15.3516C10.5612 15.5183 10.5612 15.685 10.6445 15.8516L8.0612 18.6016C7.97786 18.6016 7.89453 18.6016 7.8112 18.6016C7.3112 18.6016 6.89453 19.0183 6.89453 19.5183C6.89453 20.0183 7.3112 20.435 7.8112 20.435C8.3112 20.435 8.72786 20.0183 8.72786 19.5183C8.72786 19.435 8.72786 19.3516 8.64453 19.185L11.3112 16.435C11.4779 16.5183 11.5612 16.5183 11.7279 16.5183L11.8112 16.5183L12.4779 18.0183C12.3945 18.185 12.3112 18.3516 12.3112 18.6016C12.3112 19.1016 12.7279 19.5183 13.2279 19.5183C13.7279 19.5183 14.1445 19.1016 14.1445 18.6016C14.1445 18.1016 13.7279 17.7683 13.3112 17.685L12.6445 16.185C12.7279 16.1016 12.8112 15.935 12.8945 15.7683L15.8112 15.7683C15.9779 16.435 16.4779 17.0183 17.2279 17.185L17.2279 18.685C16.8945 18.8516 16.7279 19.1016 16.7279 19.435C16.7279 19.935 17.1445 20.3516 17.6445 20.3516C18.1445 20.3516 18.5612 19.935 18.5612 19.435C18.5612 19.1016 18.3945 18.7683 18.0612 18.685L18.0612 17.2683C18.8945 17.1016 19.4779 16.3516 19.4779 15.435C19.4779 15.3516 19.4779 15.3516 19.4779 15.2683L20.8945 14.8516C21.0612 15.0183 21.3112 15.1016 21.5612 15.1016C22.0612 15.1016 22.4779 14.685 22.4779 14.185C22.4779 13.685 21.8112 13.3516 21.3945 13.3516ZM20.3945 6.76829C20.5612 6.76829 20.6445 6.85162 20.6445 7.01829C20.6445 7.18496 20.5612 7.26829 20.3945 7.26829C20.2279 7.26829 20.1445 7.18496 20.1445 7.01829C20.1445 6.85162 20.2279 6.76829 20.3945 6.76829ZM7.8112 13.0183C7.64453 13.0183 7.5612 12.935 7.5612 12.7683C7.5612 12.6016 7.64453 12.5183 7.8112 12.5183C7.97786 12.5183 8.0612 12.6016 8.0612 12.7683C8.0612 12.935 7.97786 13.0183 7.8112 13.0183ZM7.8112 19.7683C7.64453 19.7683 7.5612 19.685 7.5612 19.5183C7.5612 19.3516 7.64453 19.2683 7.8112 19.2683C7.97786 19.2683 8.0612 19.3516 8.0612 19.5183C8.0612 19.685 7.97786 19.7683 7.8112 19.7683ZM13.1445 18.3516C13.3112 18.3516 13.3945 18.435 13.3945 18.6016C13.3945 18.7683 13.3112 18.8516 13.1445 18.8516C12.9779 18.8516 12.8945 18.7683 12.8945 18.6016C12.8945 18.435 12.9779 18.3516 13.1445 18.3516ZM17.4779 9.60162C17.7279 9.60162 17.9779 9.85162 17.9779 10.1016C17.9779 10.3516 17.7279 10.6016 17.4779 10.6016C17.2279 10.6016 16.9779 10.3516 16.9779 10.1016C16.9779 9.85162 17.2279 9.60162 17.4779 9.60162ZM11.7279 5.76829C11.8945 5.76829 11.9779 5.85162 11.9779 6.01829C11.9779 6.18496 11.8945 6.26829 11.7279 6.26829C11.5612 6.26829 11.4779 6.18496 11.4779 6.01829C11.4779 5.85162 11.5612 5.76829 11.7279 5.76829ZM10.4779 10.1016C10.4779 9.43496 10.9779 8.93496 11.6445 8.93496C12.3112 8.93496 12.8112 9.43496 12.8112 10.1016C12.8112 10.7683 12.3112 11.2683 11.6445 11.2683C11.0612 11.3516 10.4779 10.7683 10.4779 10.1016ZM11.7279 15.935C11.4779 15.935 11.2279 15.685 11.2279 15.435C11.2279 15.185 11.4779 14.935 11.7279 14.935C11.9779 14.935 12.2279 15.185 12.2279 15.435C12.1445 15.685 11.9779 15.935 11.7279 15.935ZM15.8112 15.185L12.6445 15.185C12.5612 14.8516 12.3112 14.6016 11.9779 14.5183L11.9779 11.7683C12.7279 11.685 13.3112 11.1016 13.3945 10.3516L16.5612 10.3516C16.6445 10.685 16.8945 10.935 17.2279 11.0183L17.2279 13.7683C16.4779 13.8516 15.8945 14.435 15.8112 15.185ZM17.4779 19.7683C17.3112 19.7683 17.2279 19.685 17.2279 19.5183C17.2279 19.3516 17.3112 19.2683 17.4779 19.2683C17.6445 19.2683 17.7279 19.3516 17.7279 19.5183C17.7279 19.685 17.6445 19.7683 17.4779 19.7683ZM17.4779 16.6016C16.8112 16.6016 16.3112 16.1016 16.3112 15.435C16.3112 14.7683 16.8112 14.2683 17.4779 14.2683C18.1445 14.2683 18.6445 14.7683 18.6445 15.435C18.7279 16.1016 18.1445 16.6016 17.4779 16.6016ZM21.3945 14.435C21.2279 14.435 21.1445 14.3516 21.1445 14.185C21.1445 14.0183 21.2279 13.935 21.3945 13.935C21.5612 13.935 21.6445 14.0183 21.6445 14.185C21.6445 14.3516 21.4779 14.435 21.3945 14.435Z" fill="#6941C6"/>
<path d="M7.89583 8.60179C8.07993 8.60179 8.22917 8.45255 8.22917 8.26845C8.22917 8.08436 8.07993 7.93512 7.89583 7.93512C7.71174 7.93512 7.5625 8.08436 7.5625 8.26845C7.5625 8.45255 7.71174 8.60179 7.89583 8.60179Z" fill="#6941C6"/>
<path d="M16.1458 5.10191C16.3299 5.10191 16.4792 4.95267 16.4792 4.76857C16.4792 4.58448 16.3299 4.43524 16.1458 4.43524C15.9617 4.43524 15.8125 4.58448 15.8125 4.76857C15.8125 4.95267 15.9617 5.10191 16.1458 5.10191Z" fill="#6941C6"/>
<path d="M23.0599 10.935C23.244 10.935 23.3932 10.7858 23.3932 10.6017C23.3932 10.4176 23.244 10.2684 23.0599 10.2684C22.8758 10.2684 22.7266 10.4176 22.7266 10.6017C22.7266 10.7858 22.8758 10.935 23.0599 10.935Z" fill="#6941C6"/>
<path d="M23.5599 19.6034C23.744 19.6034 23.8932 19.4541 23.8932 19.27C23.8932 19.0859 23.744 18.9367 23.5599 18.9367C23.3758 18.9367 23.2266 19.0859 23.2266 19.27C23.2266 19.4541 23.3758 19.6034 23.5599 19.6034Z" fill="#6941C6"/>
<path d="M5.64583 18.0187C5.82993 18.0187 5.97917 17.8695 5.97917 17.6854C5.97917 17.5013 5.82993 17.3521 5.64583 17.3521C5.46174 17.3521 5.3125 17.5013 5.3125 17.6854C5.3125 17.8695 5.46174 18.0187 5.64583 18.0187Z" fill="#6941C6"/>
<path d="M15.1419 12.852C15.326 12.852 15.4753 12.7027 15.4753 12.5186C15.4753 12.3345 15.326 12.1853 15.1419 12.1853C14.9578 12.1853 14.8086 12.3345 14.8086 12.5186C14.8086 12.7027 14.9578 12.852 15.1419 12.852Z" fill="#6941C6"/>
</svg>
