<svg width="24" height="24" viewBox="0 0 24 24" fill="none" xmlns="http://www.w3.org/2000/svg">
<g clip-path="url(#clip0_1057_1574)">
<rect width="23.9993" height="24" rx="11.9996" fill="white"/>
<path d="M0 11.9999C0 16.9135 2.95471 21.1348 7.18278 22.9907C7.14904 22.1528 7.17678 21.1469 7.39165 20.2352C7.62236 19.2611 8.93566 13.6965 8.93566 13.6965C8.93566 13.6965 8.55233 12.9303 8.55233 11.7979C8.55233 10.0196 9.58298 8.69151 10.8666 8.69151C11.9581 8.69151 12.4854 9.51133 12.4854 10.4931C12.4854 11.5903 11.7856 13.2315 11.4257 14.7516C11.125 16.0245 12.0639 17.0628 13.3196 17.0628C15.5932 17.0628 17.1244 14.1426 17.1244 10.6828C17.1244 8.05281 15.3531 6.0843 12.1313 6.0843C8.4913 6.0843 6.22366 8.79885 6.22366 11.831C6.22366 12.8765 6.5319 13.6137 7.0147 14.1846C7.23669 14.4469 7.26753 14.5523 7.18719 14.8534C7.12963 15.0742 6.99745 15.6058 6.9427 15.8164C6.86283 16.1203 6.61655 16.229 6.34188 16.1168C4.66531 15.4323 3.88449 13.5963 3.88449 11.5323C3.88449 8.12359 6.75933 4.0362 12.4606 4.0362C17.042 4.0362 20.0574 7.35149 20.0574 10.9102C20.0574 15.6176 17.4404 19.1343 13.5827 19.1343C12.2872 19.1343 11.0686 18.434 10.6511 17.6386C10.6511 17.6386 9.9545 20.4034 9.80694 20.9373C9.55252 21.8625 9.05453 22.7872 8.5992 23.5079C9.70331 23.8344 10.8487 24.0001 12.0001 24C18.6265 24 23.9993 18.6274 23.9993 11.9999C23.9993 5.37257 18.6265 0 12.0001 0C5.373 0 0 5.37257 0 11.9999Z" fill="#CB1F27"/>
</g>
<defs>
<clipPath id="clip0_1057_1574">
<rect width="23.9993" height="24" rx="11.9996" fill="white"/>
</clipPath>
</defs>
</svg>
