<svg width="12" height="12" viewBox="0 0 12 12" fill="none" xmlns="http://www.w3.org/2000/svg">
<g clip-path="url(#clip0_7129_70709)">
<rect width="11.9996" height="12" rx="5.99982" fill="white"/>
<path d="M0 5.99993C0 8.45677 1.47736 10.5674 3.59139 11.4954C3.57452 11.0764 3.58839 10.5734 3.69583 10.1176C3.81118 9.63054 4.46783 6.84825 4.46783 6.84825C4.46783 6.84825 4.27617 6.46515 4.27617 5.89896C4.27617 5.00982 4.79149 4.34576 5.43328 4.34576C5.97903 4.34576 6.24269 4.75567 6.24269 5.24653C6.24269 5.79514 5.89278 6.61576 5.71283 7.37581C5.56251 8.01227 6.03195 8.53139 6.65982 8.53139C7.79659 8.53139 8.56222 7.07132 8.56222 5.3414C8.56222 4.02641 7.67655 3.04215 6.06565 3.04215C4.24565 3.04215 3.11183 4.39943 3.11183 5.91551C3.11183 6.43825 3.26595 6.80686 3.50735 7.09232C3.61834 7.22343 3.63377 7.27616 3.5936 7.42672C3.56481 7.53711 3.49872 7.80288 3.47135 7.90821C3.43141 8.06017 3.30828 8.1145 3.17094 8.05839C2.33265 7.71617 1.94225 6.79814 1.94225 5.76617C1.94225 4.0618 3.37966 2.0181 6.23032 2.0181C8.52102 2.0181 10.0287 3.67574 10.0287 5.45512C10.0287 7.80879 8.72018 9.56716 6.79134 9.56716C6.1436 9.56716 5.53429 9.21701 5.32557 8.81929C5.32557 8.81929 4.97725 10.2017 4.90347 10.4686C4.77626 10.9312 4.52727 11.3936 4.2996 11.754C4.85166 11.9172 5.42435 12.0001 6.00003 12C9.31323 12 11.9996 9.31371 11.9996 5.99993C11.9996 2.68629 9.31323 0 6.00003 0C2.6865 0 0 2.68629 0 5.99993Z" fill="#98A2B3"/>
</g>
<defs>
<clipPath id="clip0_7129_70709">
<rect width="11.9996" height="12" rx="5.99982" fill="white"/>
</clipPath>
</defs>
</svg>
