<svg width="33" height="16" viewBox="0 0 33 16" fill="none" xmlns="http://www.w3.org/2000/svg">
<path d="M12.8984 3.38224e-10L5.34844 0C5.09844 0 4.89844 0.15 4.89844 0.45L4.89844 7.95C4.89844 8.2 5.04844 8.4 5.34844 8.4L12.8984 8.4C13.1484 8.4 13.3484 8.25 13.3484 7.95L13.3484 0.45C13.3484 0.15 13.0984 3.46679e-10 12.8984 3.38224e-10ZM12.4484 7.5L5.79844 7.5L5.79844 0.85L12.4484 0.85L12.4484 7.5Z" fill="#6941C6"/>
<path d="M22.75 -0.00012207L15.2 -0.00012207C14.95 -0.00012207 14.75 0.149878 14.75 0.449878L14.75 7.94988C14.75 8.19988 14.9 8.39988 15.2 8.39988L22.75 8.39988C23 8.39988 23.2 8.24988 23.2 7.94988L23.2 0.449878C23.15 0.149878 23 -0.00012207 22.75 -0.00012207ZM22.3 7.49988L15.65 7.49988L15.65 0.849878L22.3 0.849878L22.3 7.49988Z" fill="#6941C6"/>
<path d="M32.5461 -0.00012207L24.9461 -0.00012207C24.7461 -0.00012207 24.4961 0.149878 24.4961 0.449878L24.4961 7.94988C24.4961 8.19988 24.6461 8.39988 24.9461 8.39988L32.4961 8.39988C32.7461 8.39988 32.9461 8.24988 32.9461 7.94988L32.9461 0.449878C32.9961 0.149878 32.8461 -0.00012207 32.5461 -0.00012207ZM32.1461 7.49988L25.4961 7.49988L25.4961 0.849878L32.1461 0.849878L32.1461 7.49988Z" fill="#6941C6"/>
<path d="M12.8984 9.69995L5.34844 9.69995C5.09844 9.69995 4.89844 9.94995 4.89844 10.15C4.89844 10.35 5.14844 10.6 5.34844 10.6L12.8984 10.6C13.1484 10.6 13.3484 10.35 13.3484 10.15C13.3484 9.94995 13.0984 9.69995 12.8984 9.69995Z" fill="#6941C6"/>
<path d="M22.75 9.69995L15.2 9.69995C14.95 9.69995 14.75 9.94995 14.75 10.15C14.75 10.35 15 10.6 15.2 10.6L22.75 10.6C23 10.6 23.2 10.35 23.2 10.15C23.15 9.94995 23 9.69995 22.75 9.69995Z" fill="#6941C6"/>
<path d="M32.5461 9.69995L24.9461 9.69995C24.6961 9.69995 24.4961 9.94995 24.4961 10.15C24.4961 10.35 24.7461 10.6 24.9461 10.6L32.4961 10.6C32.7461 10.6 32.9461 10.35 32.9461 10.15C32.9961 9.94995 32.8461 9.69995 32.5461 9.69995Z" fill="#6941C6"/>
<path d="M10.2984 11.5498L5.34844 11.5498C5.09844 11.5498 4.89844 11.7998 4.89844 11.9998C4.89844 12.2498 5.14844 12.4498 5.34844 12.4498L10.2984 12.4498C10.5484 12.4498 10.7484 12.1998 10.7484 11.9998C10.6984 11.7498 10.4984 11.5498 10.2984 11.5498Z" fill="#6941C6"/>
<path d="M20.8445 11.5498L15.0945 11.5498C14.8445 11.5498 14.6445 11.7998 14.6445 11.9998C14.6445 12.2498 14.8945 12.4498 15.0945 12.4498L20.8445 12.4498C21.0945 12.4498 21.2945 12.1998 21.2945 11.9998C21.2945 11.7498 21.0445 11.5498 20.8445 11.5498Z" fill="#6941C6"/>
<path d="M31.0961 11.5498L24.9461 11.5498C24.6961 11.5498 24.4961 11.7998 24.4961 11.9998C24.4961 12.2498 24.7461 12.4498 24.9461 12.4498L31.0461 12.4498C31.2961 12.4498 31.4961 12.1998 31.4961 11.9998C31.5461 11.7498 31.2961 11.5498 31.0961 11.5498Z" fill="#6941C6"/>
<path d="M5.64844 13.7C5.19844 13.7 4.89844 14 4.89844 14.45C4.89844 14.9 5.19844 15.2 5.64844 15.2C6.09844 15.2 6.39844 14.9 6.39844 14.45C6.39844 14 5.99844 13.7 5.64844 13.7Z" fill="#6941C6"/>
<path d="M15.3945 13.7C14.9445 13.7 14.6445 14 14.6445 14.45C14.6445 14.9 14.9445 15.2 15.3945 15.2C15.8445 15.2 16.1445 14.9 16.1445 14.45C16.1445 14 15.8945 13.7 15.3945 13.7Z" fill="#6941C6"/>
<path d="M25.2988 13.7C24.8488 13.7 24.5488 14 24.5488 14.45C24.5488 14.9 24.8488 15.2 25.2988 15.2C25.7488 15.2 26.0488 14.9 26.0488 14.45C26.0488 14 25.7488 13.7 25.2988 13.7Z" fill="#6941C6"/>
<path d="M0.795312 6.94988L1.94531 5.79988C2.09531 5.64988 2.09531 5.49988 1.94531 5.34988C1.84531 5.24988 1.79531 5.24988 1.69531 5.24988C1.59531 5.24988 1.54531 5.24988 1.44531 5.34988L0.0453125 6.74988C-0.0546875 6.84988 -0.0546875 6.89988 -0.0546875 6.99988C-0.0546875 7.09988 -0.0546875 7.09988 0.0453125 7.14988L0.0453125 7.24988L1.49531 8.69988C1.59531 8.79988 1.64531 8.79988 1.74531 8.79988C1.84531 8.79988 1.89531 8.79988 1.99531 8.69988C2.09531 8.59988 2.09531 8.54988 2.09531 8.44988C2.09531 8.34988 2.09531 8.29988 1.99531 8.19988L0.795312 6.94988Z" fill="#6941C6"/>
</svg>
