<svg width="32" height="33" viewBox="0 0 32 33" fill="none" xmlns="http://www.w3.org/2000/svg">
<rect y="0.5" width="32" height="32" rx="8" fill="white"/>
<path d="M24.9124 7.72126C24.7208 7.63104 24.4841 7.65362 24.3149 7.80017L22.406 9.35587C20.6136 7.5634 18.1673 6.5 15.6196 6.5C15.3828 6.5 15.1574 6.65782 15.0898 6.88325L13.9173 10.4268C13.8497 10.6184 13.8947 10.8327 14.0301 10.9792C14.1541 11.137 14.3683 11.2047 14.5599 11.1595C14.9206 11.0806 15.2701 11.0468 15.6196 11.0468C16.8596 11.0356 17.9982 11.4752 18.9113 12.2643L17.5135 13.4368C17.3556 13.5608 17.2767 13.7636 17.3218 13.9666C17.3556 14.1695 17.5022 14.3386 17.6939 14.3949L24.4954 16.6496C24.6644 16.7059 24.856 16.6834 25.0026 16.5819C25.1492 16.4692 25.2394 16.3001 25.2394 16.1198V8.22855C25.2393 8.01436 25.1153 7.81145 24.9124 7.72126Z" fill="#1C3AA9"/>
<path d="M16.0778 6.73448C15.9711 6.5868 15.8013 6.5 15.6198 6.5H7.72855C7.50948 6.5 7.31032 6.62664 7.21788 6.82542C7.12544 7.02345 7.15625 7.25756 7.29604 7.42515L8.86151 9.33257C7.06043 11.1306 6 13.5739 6 16.1198C6 16.3621 6.15519 16.5771 6.38517 16.6541L9.92907 17.8265C10.1177 17.8908 10.3312 17.8479 10.4818 17.7138C10.6329 17.5796 10.6998 17.3752 10.6592 17.1783C10.5833 16.8116 10.5468 16.4655 10.5468 16.1198C10.5468 14.9075 10.9861 13.7362 11.7666 12.8254L12.9315 14.2255C13.0634 14.3829 13.2693 14.4562 13.4696 14.419C13.671 14.3811 13.8352 14.2371 13.9002 14.0429L15.6198 8.85647L16.1549 7.24253C16.212 7.07042 16.1834 6.88141 16.0778 6.73448Z" fill="#4285F4"/>
<path d="M15.6198 25.7395C13.0745 25.7395 10.6305 24.6792 8.83276 22.8787L6.92587 24.4431C6.75744 24.5851 6.52183 24.6137 6.32478 24.5218C6.1266 24.4287 6 24.23 6 24.011V16.1197C6 15.9387 6.08695 15.768 6.23448 15.6623C6.38201 15.5561 6.57136 15.5269 6.742 15.5852L13.5424 17.8393C13.7373 17.9037 13.8814 18.0688 13.9189 18.2698C13.9574 18.4707 13.8826 18.6765 13.7263 18.8076L12.3259 19.9734C13.2363 20.7539 14.4077 21.1927 15.6198 21.1927C16.9772 21.1927 18.2487 20.6637 19.1988 19.7026C19.3044 19.5958 19.4476 19.5358 19.5984 19.5353H19.5995C19.7492 19.5353 19.8923 19.5947 19.998 19.7004L22.399 22.102C22.5047 22.2077 22.5642 22.3519 22.5642 22.5017C22.5642 22.6514 22.5037 22.7951 22.3979 22.9007C20.5782 24.7073 18.1716 25.7395 15.6198 25.7395Z" fill="#646893"/>
<path d="M22.3978 22.9006C22.5035 22.7949 22.5641 22.6512 22.5641 22.5015C22.5641 22.3518 22.5046 22.2076 22.3989 22.1019L19.9979 19.7003C19.8922 19.5946 19.7491 19.5352 19.5994 19.5352H19.5983C19.4475 19.5357 19.3044 19.5957 19.1987 19.7025C18.2486 20.6636 16.977 21.1926 15.6196 21.1926V25.7394C18.1715 25.7394 20.5781 24.7072 22.3978 22.9006Z" fill="#646893"/>
</svg>
