<svg width="29" height="24" viewBox="0 0 29 24" fill="none" xmlns="http://www.w3.org/2000/svg">
<g clip-path="url(#clip0_1518_16395)">
<path d="M12.1223 23.7899C5.62248 23.7899 0.222656 18.5389 0.222656 11.9999C0.222656 5.46095 5.52248 0.209961 12.1223 0.209961C14.2222 0.209961 16.2221 0.705336 18.0221 1.79516C18.522 2.09239 18.722 2.78592 18.422 3.28129C18.1221 3.77667 17.4221 3.97482 16.9221 3.6776C15.5221 2.88499 13.8222 2.38962 12.2223 2.38962C6.92243 2.38962 2.62258 6.64986 2.62258 11.9008C2.62258 17.1518 6.92243 21.4121 12.2223 21.4121C14.9222 21.4121 17.4221 20.3223 19.222 18.4398C19.622 17.9444 20.422 17.9444 20.822 18.3407C21.322 18.737 21.322 19.5296 20.922 19.926C18.622 22.5019 15.4221 23.7899 12.1223 23.7899Z" fill="url(#paint0_radial_1518_16395)"/>
<path d="M10.722 9.82026L8.32207 7.64061C7.82209 7.24431 7.12211 7.24431 6.72213 7.73969C6.32214 8.23506 6.32214 8.92859 6.82212 9.32489L9.42203 11.7027C9.52203 10.811 10.022 10.2166 10.722 9.82026Z" fill="#24E2AC"/>
<path d="M25.1223 2.78595C24.7223 2.29057 24.0223 2.1915 23.5223 2.5878L14.2227 9.91936C14.8226 10.4147 15.3226 11.0092 15.4226 11.8018L24.9223 4.37115C25.5223 3.97485 25.5223 3.28132 25.1223 2.78595Z" fill="#24E2AC"/>
<path d="M13.4241 10.6129C13.1241 10.4148 12.8241 10.4148 12.4241 10.4148C12.1242 10.4148 11.8242 10.5139 11.5242 10.6129C10.8242 10.9102 10.3242 11.6037 10.3242 12.4954V12.5945C10.4242 13.6843 11.3242 14.4769 12.4241 14.4769C13.5241 14.4769 14.3241 13.6843 14.4241 12.6935C14.4241 12.5945 14.4241 12.4954 14.4241 12.4954C14.4241 11.6037 14.0241 10.9102 13.4241 10.6129Z" fill="#3DEAB5"/>
<path d="M27.821 9.42407H24.9211C24.7211 9.42407 24.6211 9.62222 24.6211 9.7213V12.1982C24.6211 12.3963 24.8211 12.4954 24.9211 12.4954H27.821C28.021 12.4954 28.121 12.2973 28.121 12.1982V9.7213C28.221 9.62222 28.021 9.42407 27.821 9.42407Z" fill="#6C62FF"/>
<path d="M23.2233 9.42407H20.3234C20.1234 9.42407 20.0234 9.62222 20.0234 9.7213V12.1982C20.0234 12.3963 20.2234 12.4954 20.3234 12.4954H23.2233C23.4233 12.4954 23.5233 12.2973 23.5233 12.1982V9.7213C23.5233 9.62222 23.4233 9.42407 23.2233 9.42407Z" fill="#CCCCFF"/>
<path d="M23.2233 13.5852H20.3234C20.1234 13.5852 20.0234 13.7834 20.0234 13.8824V16.3593C20.0234 16.5575 20.2234 16.6565 20.3234 16.6565H23.2233C23.4233 16.6565 23.5233 16.4584 23.5233 16.3593V13.8824C23.5233 13.7834 23.4233 13.5852 23.2233 13.5852Z" fill="#CCCCFF"/>
<path d="M27.821 13.5852H24.9211C24.7211 13.5852 24.6211 13.7834 24.6211 13.8824V16.3593C24.6211 16.5575 24.8211 16.6565 24.9211 16.6565H27.821C28.021 16.6565 28.121 16.4584 28.121 16.3593V13.8824C28.221 13.7834 28.021 13.5852 27.821 13.5852Z" fill="#CCCCFF"/>
</g>
<defs>
<radialGradient id="paint0_radial_1518_16395" cx="0" cy="0" r="1" gradientUnits="userSpaceOnUse" gradientTransform="translate(20.3019 18.6108) scale(9.8318 9.74122)">
<stop stop-color="#F3F3FF"/>
<stop offset="0.09" stop-color="#E3E2FF"/>
<stop offset="0.4" stop-color="#B0ACFF"/>
<stop offset="0.66" stop-color="#8B84FF"/>
<stop offset="0.87" stop-color="#746CFF"/>
<stop offset="1" stop-color="#6C63FF"/>
</radialGradient>
<clipPath id="clip0_1518_16395">
<rect width="28.2353" height="24" fill="white"/>
</clipPath>
</defs>
</svg>
