<svg width="33" height="33" viewBox="0 0 33 33" fill="none" xmlns="http://www.w3.org/2000/svg" xmlns:xlink="http://www.w3.org/1999/xlink">
<g filter="url(#filter0_ii_618_1849)">
<g clip-path="url(#clip0_618_1849)">
<g filter="url(#filter1_i_618_1849)">
<path d="M0.404175 7.56192C0.404175 3.60874 3.60886 0.404053 7.56205 0.404053H25.2463C29.1995 0.404053 32.4042 3.60874 32.4042 7.56192V25.2462C32.4042 29.1994 29.1995 32.4041 25.2463 32.4041H7.56205C3.60886 32.4041 0.404175 29.1994 0.404175 25.2462V7.56192Z" fill="url(#paint0_linear_618_1849)"></path>
<path d="M0.404175 7.56192C0.404175 3.60874 3.60886 0.404053 7.56205 0.404053H25.2463C29.1995 0.404053 32.4042 3.60874 32.4042 7.56192V25.2462C32.4042 29.1994 29.1995 32.4041 25.2463 32.4041H7.56205C3.60886 32.4041 0.404175 29.1994 0.404175 25.2462V7.56192Z" fill="url(#pattern0_618_1849)" fill-opacity="0.5"></path>
</g>
<g filter="url(#filter2_f_618_1849)">
<path d="M8.49712 24.6671C4.35813 23.9145 3.06083 23.5551 -0.160034 26.1497V34.6863H33.6904L33.2297 9.56909C33.0012 9.5692 25.9904 12.504 22.5721 15.8856C18.2577 21.3929 15.2925 25.9026 8.49712 24.6671Z" fill="url(#paint1_linear_618_1849)"></path>
</g>
<g filter="url(#filter3_dii_618_1849)">
<path d="M33.2331 9.27857C33.2331 9.27857 33.2335 9.27843 33.4945 9.96372C33.7405 10.6092 33.7546 10.6467 33.7555 10.6489C33.7555 10.6489 33.7551 10.6493 33.7547 10.6494C33.754 10.6497 33.7529 10.6501 33.7513 10.6507C33.748 10.652 33.7428 10.6538 33.7359 10.6564C33.7222 10.6617 33.7011 10.6699 33.6734 10.6806C33.618 10.7023 33.5356 10.7349 33.4289 10.7775C33.2156 10.8628 32.9058 10.9886 32.5229 11.1504C31.7567 11.4745 30.6998 11.9412 29.5386 12.5119C27.1963 13.6629 24.5145 15.1959 22.8956 16.7939C21.9597 17.7871 21.1431 18.7708 20.3602 19.7163C19.58 20.6585 18.8253 21.5727 18.0391 22.3859C16.4505 24.0289 14.6843 25.3114 12.1292 25.7481C10.8834 25.961 9.66167 25.8409 8.50912 25.6585C7.31517 25.4696 6.26666 25.2306 5.15808 25.1299C4.27921 25.05 3.51723 25.1182 2.73985 25.3835C1.95338 25.6519 1.11189 26.1354 0.0947998 26.9395L-0.814575 25.789C0.281929 24.9222 1.27012 24.3354 2.26615 23.9955C3.27126 23.6525 4.24473 23.5741 5.29089 23.6692C6.45736 23.7752 7.67365 24.0413 8.73855 24.2098C9.84485 24.3849 10.8763 24.4745 11.8823 24.3025C14.0221 23.9368 15.5222 22.8791 16.9846 21.3666C17.724 20.6019 18.4411 19.7342 19.2305 18.7809C20.0142 17.8344 20.862 16.8127 21.8388 15.777L21.8474 15.7679L21.8565 15.7588C23.6566 13.978 26.5311 12.3558 28.8917 11.1958C30.0837 10.61 31.1668 10.1316 31.9518 9.79966C32.3445 9.63361 32.6633 9.504 32.8846 9.41554C32.9953 9.37134 33.0815 9.33728 33.1406 9.31424C33.1702 9.30272 33.193 9.29394 33.2086 9.28794C33.2164 9.28494 33.2224 9.28276 33.2266 9.28117C33.2286 9.28039 33.2301 9.27952 33.2313 9.27909C33.2318 9.27887 33.2325 9.2787 33.2328 9.27857H33.2331Z" fill="url(#paint2_linear_618_1849)"></path>
</g>
<g filter="url(#filter4_dii_618_1849)">
<path d="M25.4406 15.427C25.4406 16.6052 24.4855 17.5603 23.3073 17.5603C22.1291 17.5603 21.174 16.6052 21.174 15.427C21.174 14.2488 22.1291 13.2936 23.3073 13.2936C24.4855 13.2936 25.4406 14.2488 25.4406 15.427Z" fill="url(#paint3_radial_618_1849)"></path>
<path d="M23.3077 12.8845C24.7116 12.8847 25.8497 14.0236 25.8497 15.4274C25.8495 16.8311 24.7114 17.9692 23.3077 17.9694C21.9039 17.9694 20.765 16.8313 20.7648 15.4274C20.7648 14.0234 21.9037 12.8845 23.3077 12.8845Z" stroke="white" stroke-width="0.817778"></path>
</g>
<g filter="url(#filter5_d_618_1849)">
<path d="M17.7577 7.75798C18.1223 7.86459 18.1223 8.38101 17.7577 8.48762L15.4345 9.16705C15.31 9.20344 15.2127 9.30074 15.1763 9.42518L14.4969 11.7484C14.3903 12.113 13.8739 12.113 13.7673 11.7484L13.0878 9.42518C13.0514 9.30074 12.9541 9.20344 12.8297 9.16705L10.5065 8.48762C10.1419 8.38101 10.1419 7.86459 10.5065 7.75798L12.8297 7.07855C12.9541 7.04216 13.0514 6.94485 13.0878 6.82042L13.7673 4.49717C13.8739 4.13262 14.3903 4.13262 14.4969 4.49717L15.1763 6.82042C15.2127 6.94485 15.31 7.04216 15.4345 7.07855L17.7577 7.75798Z" fill="url(#paint4_linear_618_1849)"></path>
</g>
<g filter="url(#filter6_d_618_1849)">
<path d="M13.2479 15.8765C13.425 15.9284 13.425 16.1793 13.2479 16.2312L11.819 16.649C11.7585 16.6667 11.7112 16.714 11.6935 16.7745L11.2757 18.2033C11.2239 18.3805 10.9729 18.3805 10.9211 18.2033L10.5032 16.7745C10.4855 16.714 10.4382 16.6667 10.3777 16.649L8.94889 16.2312C8.77171 16.1793 8.77171 15.9284 8.94889 15.8765L10.3777 15.4587C10.4382 15.441 10.4855 15.3937 10.5032 15.3332L10.9211 13.9044C10.9729 13.7272 11.2239 13.7272 11.2757 13.9044L11.6935 15.3332C11.7112 15.3937 11.7585 15.441 11.819 15.4587L13.2479 15.8765Z" fill="url(#paint5_linear_618_1849)"></path>
</g>
</g>
<rect x="0.404175" y="0.404175" width="32" height="32" rx="8.87104" stroke="#B6CBFF" stroke-width="0.808367"></rect>
</g>
<defs>
<filter id="filter0_ii_618_1849" x="0" y="0" width="33.5691" height="33.5691" filterUnits="userSpaceOnUse" color-interpolation-filters="sRGB">
<feFlood flood-opacity="0" result="BackgroundImageFix"></feFlood>
<feBlend mode="normal" in="SourceGraphic" in2="BackgroundImageFix" result="shape"></feBlend>
<feColorMatrix in="SourceAlpha" type="matrix" values="0 0 0 0 0 0 0 0 0 0 0 0 0 0 0 0 0 0 127 0" result="hardAlpha"></feColorMatrix>
<feOffset dx="0.761068"></feOffset>
<feGaussianBlur stdDeviation="0.380388"></feGaussianBlur>
<feComposite in2="hardAlpha" operator="arithmetic" k2="-1" k3="1"></feComposite>
<feColorMatrix type="matrix" values="0 0 0 0 1 0 0 0 0 1 0 0 0 0 1 0 0 0 0.4 0"></feColorMatrix>
<feBlend mode="normal" in2="shape" result="effect1_innerShadow_618_1849"></feBlend>
<feColorMatrix in="SourceAlpha" type="matrix" values="0 0 0 0 0 0 0 0 0 0 0 0 0 0 0 0 0 0 127 0" result="hardAlpha"></feColorMatrix>
<feOffset dy="0.761317"></feOffset>
<feGaussianBlur stdDeviation="0.380388"></feGaussianBlur>
<feComposite in2="hardAlpha" operator="arithmetic" k2="-1" k3="1"></feComposite>
<feColorMatrix type="matrix" values="0 0 0 0 1 0 0 0 0 1 0 0 0 0 1 0 0 0 0.4 0"></feColorMatrix>
<feBlend mode="normal" in2="effect1_innerShadow_618_1849" result="effect2_innerShadow_618_1849"></feBlend>
</filter>
<filter id="filter1_i_618_1849" x="0.404175" y="0.404053" width="32" height="32.7608" filterUnits="userSpaceOnUse" color-interpolation-filters="sRGB">
<feFlood flood-opacity="0" result="BackgroundImageFix"></feFlood>
<feBlend mode="normal" in="SourceGraphic" in2="BackgroundImageFix" result="shape"></feBlend>
<feColorMatrix in="SourceAlpha" type="matrix" values="0 0 0 0 0 0 0 0 0 0 0 0 0 0 0 0 0 0 127 0" result="hardAlpha"></feColorMatrix>
<feOffset dy="0.761317"></feOffset>
<feGaussianBlur stdDeviation="0.380388"></feGaussianBlur>
<feComposite in2="hardAlpha" operator="arithmetic" k2="-1" k3="1"></feComposite>
<feColorMatrix type="matrix" values="0 0 0 0 1 0 0 0 0 1 0 0 0 0 1 0 0 0 0.4 0"></feColorMatrix>
<feBlend mode="normal" in2="shape" result="effect1_innerShadow_618_1849"></feBlend>
</filter>
<pattern id="pattern0_618_1849" patternContentUnits="objectBoundingBox" width="1.10477" height="1.10477">
<use xlink:href="#image0_618_1849" transform="scale(0.00673639)"></use>
</pattern>
<filter id="filter2_f_618_1849" x="-1.02003" y="8.70909" width="35.5705" height="26.8372" filterUnits="userSpaceOnUse" color-interpolation-filters="sRGB">
<feFlood flood-opacity="0" result="BackgroundImageFix"></feFlood>
<feBlend mode="normal" in="SourceGraphic" in2="BackgroundImageFix" result="shape"></feBlend>
<feGaussianBlur stdDeviation="0.43" result="effect1_foregroundBlur_618_1849"></feGaussianBlur>
</filter>
<filter id="filter3_dii_618_1849" x="-3.68124" y="7.12856" width="40.3034" height="23.3943" filterUnits="userSpaceOnUse" color-interpolation-filters="sRGB">
<feFlood flood-opacity="0" result="BackgroundImageFix"></feFlood>
<feColorMatrix in="SourceAlpha" type="matrix" values="0 0 0 0 0 0 0 0 0 0 0 0 0 0 0 0 0 0 127 0" result="hardAlpha"></feColorMatrix>
<feOffset dy="0.716667"></feOffset>
<feGaussianBlur stdDeviation="1.43333"></feGaussianBlur>
<feComposite in2="hardAlpha" operator="out"></feComposite>
<feColorMatrix type="matrix" values="0 0 0 0 0.315797 0 0 0 0 0 0 0 0 0 0.371526 0 0 0 0.25 0"></feColorMatrix>
<feBlend mode="normal" in2="BackgroundImageFix" result="effect1_dropShadow_618_1849"></feBlend>
<feBlend mode="normal" in="SourceGraphic" in2="effect1_dropShadow_618_1849" result="shape"></feBlend>
<feColorMatrix in="SourceAlpha" type="matrix" values="0 0 0 0 0 0 0 0 0 0 0 0 0 0 0 0 0 0 127 0" result="hardAlpha"></feColorMatrix>
<feOffset dy="0.143333"></feOffset>
<feGaussianBlur stdDeviation="0.0716667"></feGaussianBlur>
<feComposite in2="hardAlpha" operator="arithmetic" k2="-1" k3="1"></feComposite>
<feColorMatrix type="matrix" values="0 0 0 0 1 0 0 0 0 1 0 0 0 0 1 0 0 0 0.7 0"></feColorMatrix>
<feBlend mode="normal" in2="shape" result="effect2_innerShadow_618_1849"></feBlend>
<feColorMatrix in="SourceAlpha" type="matrix" values="0 0 0 0 0 0 0 0 0 0 0 0 0 0 0 0 0 0 127 0" result="hardAlpha"></feColorMatrix>
<feOffset dy="-0.143333"></feOffset>
<feGaussianBlur stdDeviation="0.43"></feGaussianBlur>
<feComposite in2="hardAlpha" operator="arithmetic" k2="-1" k3="1"></feComposite>
<feColorMatrix type="matrix" values="0 0 0 0 1 0 0 0 0 1 0 0 0 0 1 0 0 0 0.5 0"></feColorMatrix>
<feBlend mode="normal" in2="effect2_innerShadow_618_1849" result="effect3_innerShadow_618_1849"></feBlend>
</filter>
<filter id="filter4_dii_618_1849" x="15.8213" y="10.2085" width="14.9719" height="14.9719" filterUnits="userSpaceOnUse" color-interpolation-filters="sRGB">
<feFlood flood-opacity="0" result="BackgroundImageFix"></feFlood>
<feColorMatrix in="SourceAlpha" type="matrix" values="0 0 0 0 0 0 0 0 0 0 0 0 0 0 0 0 0 0 127 0" result="hardAlpha"></feColorMatrix>
<feOffset dy="2.26743"></feOffset>
<feGaussianBlur stdDeviation="2.26743"></feGaussianBlur>
<feComposite in2="hardAlpha" operator="out"></feComposite>
<feColorMatrix type="matrix" values="0 0 0 0 0 0 0 0 0 0.0528337 0 0 0 0 0.619328 0 0 0 0.3 0"></feColorMatrix>
<feBlend mode="normal" in2="BackgroundImageFix" result="effect1_dropShadow_618_1849"></feBlend>
<feBlend mode="normal" in="SourceGraphic" in2="effect1_dropShadow_618_1849" result="shape"></feBlend>
<feColorMatrix in="SourceAlpha" type="matrix" values="0 0 0 0 0 0 0 0 0 0 0 0 0 0 0 0 0 0 127 0" result="hardAlpha"></feColorMatrix>
<feOffset dy="0.272593"></feOffset>
<feGaussianBlur stdDeviation="0.272593"></feGaussianBlur>
<feComposite in2="hardAlpha" operator="arithmetic" k2="-1" k3="1"></feComposite>
<feColorMatrix type="matrix" values="0 0 0 0 1 0 0 0 0 1 0 0 0 0 1 0 0 0 0.4 0"></feColorMatrix>
<feBlend mode="normal" in2="shape" result="effect2_innerShadow_618_1849"></feBlend>
<feColorMatrix in="SourceAlpha" type="matrix" values="0 0 0 0 0 0 0 0 0 0 0 0 0 0 0 0 0 0 127 0" result="hardAlpha"></feColorMatrix>
<feOffset dy="0.272593"></feOffset>
<feComposite in2="hardAlpha" operator="arithmetic" k2="-1" k3="1"></feComposite>
<feColorMatrix type="matrix" values="0 0 0 0 1 0 0 0 0 1 0 0 0 0 1 0 0 0 0.05 0"></feColorMatrix>
<feBlend mode="normal" in2="effect2_innerShadow_618_1849" result="effect3_innerShadow_618_1849"></feBlend>
</filter>
<filter id="filter5_d_618_1849" x="7.84858" y="3.03153" width="12.567" height="12.567" filterUnits="userSpaceOnUse" color-interpolation-filters="sRGB">
<feFlood flood-opacity="0" result="BackgroundImageFix"></feFlood>
<feColorMatrix in="SourceAlpha" type="matrix" values="0 0 0 0 0 0 0 0 0 0 0 0 0 0 0 0 0 0 127 0" result="hardAlpha"></feColorMatrix>
<feOffset dy="1.19223"></feOffset>
<feGaussianBlur stdDeviation="1.19223"></feGaussianBlur>
<feComposite in2="hardAlpha" operator="out"></feComposite>
<feColorMatrix type="matrix" values="0 0 0 0 0 0 0 0 0 0 0 0 0 0 0 0 0 0 0.15 0"></feColorMatrix>
<feBlend mode="normal" in2="BackgroundImageFix" result="effect1_dropShadow_618_1849"></feBlend>
<feBlend mode="normal" in="SourceGraphic" in2="effect1_dropShadow_618_1849" result="shape"></feBlend>
</filter>
<filter id="filter6_d_618_1849" x="6.43152" y="12.5793" width="9.33367" height="9.33367" filterUnits="userSpaceOnUse" color-interpolation-filters="sRGB">
<feFlood flood-opacity="0" result="BackgroundImageFix"></feFlood>
<feColorMatrix in="SourceAlpha" type="matrix" values="0 0 0 0 0 0 0 0 0 0 0 0 0 0 0 0 0 0 127 0" result="hardAlpha"></feColorMatrix>
<feOffset dy="1.19223"></feOffset>
<feGaussianBlur stdDeviation="1.19223"></feGaussianBlur>
<feComposite in2="hardAlpha" operator="out"></feComposite>
<feColorMatrix type="matrix" values="0 0 0 0 0 0 0 0 0 0 0 0 0 0 0 0 0 0 0.15 0"></feColorMatrix>
<feBlend mode="normal" in2="BackgroundImageFix" result="effect1_dropShadow_618_1849"></feBlend>
<feBlend mode="normal" in="SourceGraphic" in2="effect1_dropShadow_618_1849" result="shape"></feBlend>
</filter>
<linearGradient id="paint0_linear_618_1849" x1="16.4042" y1="0.404053" x2="16.4042" y2="32.4041" gradientUnits="userSpaceOnUse">
<stop stop-color="#5A57FF"></stop>
<stop offset="1" stop-color="#5B98FF"></stop>
</linearGradient>
<linearGradient id="paint1_linear_618_1849" x1="20.9278" y1="17.4874" x2="20.9278" y2="46.0108" gradientUnits="userSpaceOnUse">
<stop offset="0.0831429" stop-color="#4B73FF"></stop>
<stop offset="0.359704" stop-color="#4B73FF" stop-opacity="0"></stop>
<stop offset="0.7" stop-color="#4B73FF" stop-opacity="0"></stop>
</linearGradient>
<linearGradient id="paint2_linear_618_1849" x1="33.3733" y1="10.0251" x2="0.648863" y2="26.2286" gradientUnits="userSpaceOnUse">
<stop stop-color="#BDC1FF"></stop>
<stop offset="0.420828" stop-color="#D6E8FF"></stop>
<stop offset="1" stop-color="#7391FE"></stop>
</linearGradient>
<radialGradient id="paint3_radial_618_1849" cx="0" cy="0" r="1" gradientUnits="userSpaceOnUse" gradientTransform="translate(25.2275 13.2592) rotate(134.421) scale(5.01718)">
<stop offset="0.321315" stop-color="#BAFEFF"></stop>
<stop offset="1" stop-color="#011FFF"></stop>
</radialGradient>
<linearGradient id="paint4_linear_618_1849" x1="11.1873" y1="1.46668" x2="17.0223" y2="14.9372" gradientUnits="userSpaceOnUse">
<stop stop-color="#FFE6FC"></stop>
<stop offset="0.350962" stop-color="#FFE6FC"></stop>
<stop offset="1" stop-color="#AA00F2"></stop>
</linearGradient>
<linearGradient id="paint5_linear_618_1849" x1="9.37459" y1="12.1576" x2="12.7902" y2="20.0428" gradientUnits="userSpaceOnUse">
<stop stop-color="#FFE6FC"></stop>
<stop offset="0.350962" stop-color="#FFE6FC"></stop>
<stop offset="1" stop-color="#AA00F2"></stop>
</linearGradient>
<clipPath id="clip0_618_1849">
<rect x="0.404175" y="0.404175" width="32" height="32" rx="8.87104" fill="white"></rect>
</clipPath>
<image id="image0_618_1849" width="164" height="164" preserveAspectRatio="none"></image>
</defs>
</svg>