<svg width="33" height="20" viewBox="0 0 33 20" fill="none" xmlns="http://www.w3.org/2000/svg">
<path d="M29.4812 11.3138C29.4015 11.3138 29.3218 11.2341 29.1625 11.2341C29.0031 11.0748 29.0031 10.8358 29.1625 10.6764L30.8357 9.00324L29.1625 7.33007C29.0031 7.17072 29.0031 6.93169 29.1625 6.77234C29.3218 6.61299 29.5609 6.61299 29.7202 6.77234L32.0308 8.92356L29.7999 11.1545C29.7202 11.3138 29.6405 11.3138 29.4812 11.3138Z" fill="#6941C6"/>
<path d="M2.5535 11.3138C2.63317 11.3138 2.71285 11.2341 2.8722 11.2341C3.03155 11.0748 3.03155 10.8358 2.8722 10.6764L1.19903 9.00324L2.8722 7.33007C3.03155 7.17072 3.03155 6.93169 2.8722 6.77234C2.71285 6.61299 2.47383 6.61299 2.31448 6.77234L0.00390625 8.92356L2.2348 11.1545C2.39415 11.3138 2.39415 11.3138 2.5535 11.3138Z" fill="#6941C6"/>
<path d="M21.3538 12.5088L10.5977 12.5088L10.5977 13.4649L21.3538 13.4649L21.3538 12.5088Z" fill="#6941C6"/>
<path d="M21.3538 14.979L10.5977 14.979L10.5977 15.9351L21.3538 15.9351L21.3538 14.979Z" fill="#6941C6"/>
<path d="M21.5946 6.13065e-10C20.7181 5.76012e-10 10.1214 1.28003e-10 10.1214 1.28003e-10C8.2092 0 7.09375 1.19512 7.09375 3.10732L7.17343 16.2537C7.17343 18.1659 8.5279 19.5203 10.4401 19.5203L21.5149 19.6C23.4271 19.6 24.8612 18.1659 24.8612 16.2537L24.8612 3.26667C24.8612 1.43415 23.5068 6.93909e-10 21.5946 6.13065e-10ZM23.6661 16.2537C23.6661 17.5285 22.7897 18.4049 21.5149 18.4049L10.4401 18.4049C9.32464 18.4049 8.5279 17.6878 8.36855 16.7317C8.28887 16.3333 8.28887 12.4293 8.28887 3.66504L8.28887 3.26667C8.28887 1.99187 8.92627 1.11545 10.2807 1.11545L21.5149 1.11545C22.8694 1.11545 23.6661 1.99187 23.6661 3.26667L23.6661 16.2537Z" fill="#6941C6"/>
<path d="M11.4749 10.4376C11.8709 10.4376 12.192 10.1165 12.192 9.72049C12.192 9.32446 11.8709 9.00342 11.4749 9.00342C11.0789 9.00342 10.7578 9.32446 10.7578 9.72049C10.7578 10.1165 11.0789 10.4376 11.4749 10.4376Z" fill="#6941C6"/>
<path d="M14.1038 10.4376C14.4998 10.4376 14.8209 10.1165 14.8209 9.72049C14.8209 9.32446 14.4998 9.00342 14.1038 9.00342C13.7078 9.00342 13.3867 9.32446 13.3867 9.72049C13.3867 10.1165 13.7078 10.4376 14.1038 10.4376Z" fill="#6941C6"/>
<path d="M16.7327 10.4376C17.1287 10.4376 17.4498 10.1165 17.4498 9.72049C17.4498 9.32446 17.1287 9.00342 16.7327 9.00342C16.3367 9.00342 16.0156 9.32446 16.0156 9.72049C16.0156 10.1165 16.3367 10.4376 16.7327 10.4376Z" fill="#6941C6"/>
</svg>
