<svg viewBox="0 0 28 28" xmlns="http://www.w3.org/2000/svg">
<path fill-rule="evenodd" clip-rule="evenodd" d="M17.1089 2.71757C17.5412 2.50145 18.0668 2.67665 18.2828 3.10888L20.8509 8.24492C22.4295 8.36619 23.4201 8.67584 24.0594 9.46649C25.1099 10.7661 24.6909 12.722 23.8526 16.6336L23.3527 18.9669C22.7845 21.6182 22.5005 22.9438 21.5378 23.722C20.5752 24.5002 19.2196 24.5002 16.508 24.5002H11.4925C8.78103 24.5002 7.42528 24.5002 6.4627 23.722C5.50012 22.9438 5.21605 21.6182 4.64792 18.9669L4.14791 16.6336C3.3097 12.722 2.8906 10.7661 3.94124 9.46649C4.5804 8.67585 5.57101 8.3662 7.1496 8.24493L9.71762 3.10888C9.93373 2.67665 10.4593 2.50145 10.8916 2.71757C11.3238 2.93368 11.499 3.45927 11.2829 3.8915L9.14212 8.173C9.70587 8.16686 10.321 8.16686 10.9925 8.16686H17.008C17.6796 8.16686 18.2946 8.16686 18.8584 8.173L16.7176 3.8915C16.5015 3.45927 16.6767 2.93368 17.1089 2.71757ZM8.45858 14.0002C8.45858 13.5169 8.85033 13.1252 9.33358 13.1252H18.6669C19.1501 13.1252 19.5419 13.5169 19.5419 14.0002C19.5419 14.4834 19.1501 14.8752 18.6669 14.8752H9.33358C8.85033 14.8752 8.45858 14.4834 8.45858 14.0002ZM11.6669 16.6252C11.1837 16.6252 10.7919 17.0169 10.7919 17.5002C10.7919 17.9834 11.1837 18.3752 11.6669 18.3752H16.3336C16.8168 18.3752 17.2086 17.9834 17.2086 17.5002C17.2086 17.0169 16.8168 16.6252 16.3336 16.6252H11.6669Z"/>
</svg>
