<svg viewBox="0 0 19 18" xmlns="http://www.w3.org/2000/svg">
<path d="M2.09597 11.7997C1.7538 9.57561 1.41163 7.35154 1.06946 5.12741C0.993579 4.63438 1.55456 4.29812 1.9536 4.59743C3.01965 5.39696 4.08564 6.19644 5.15169 6.99598C5.50269 7.25923 6.00275 7.17356 6.24609 6.8085L8.90857 2.81475C9.18993 2.39271 9.81003 2.39271 10.0914 2.81475L12.7539 6.8085C12.9972 7.17356 13.4973 7.25918 13.8483 6.99598C14.9143 6.19644 15.9803 5.39696 17.0464 4.59743C17.4454 4.29812 18.0064 4.63438 17.9306 5.12741C17.5884 7.35154 17.2462 9.57561 16.9041 11.7997H2.09597Z"/>
<path d="M16.1298 15.5017H2.86578C2.43941 15.5017 2.09375 15.1561 2.09375 14.7297V13.0337H16.9018V14.7297C16.9018 15.1561 16.5561 15.5017 16.1298 15.5017Z"/>
</svg>
