<svg viewBox="0 0 24 24" xmlns="http://www.w3.org/2000/svg">
<path fill-rule="evenodd" clip-rule="evenodd" d="M12 4.25C12.2508 4.25 12.4849 4.37533 12.624 4.58397L16.1703 9.90332L20.5315 6.41435C20.7758 6.21893 21.1157 6.19565 21.3843 6.35593C21.6529 6.51621 21.7939 6.82639 21.7379 7.13416L19.7379 18.1342C19.6731 18.4908 19.3625 18.75 19 18.75H5.00001C4.63754 18.75 4.32694 18.4908 4.2621 18.1342L2.2621 7.13416C2.20614 6.82639 2.34709 6.51621 2.61572 6.35593C2.88435 6.19565 3.22426 6.21893 3.46853 6.41435L7.82974 9.90332L11.376 4.58397C11.5151 4.37533 11.7492 4.25 12 4.25ZM12 6.35208L8.62404 11.416C8.50744 11.5909 8.32279 11.7089 8.11507 11.7411C7.90735 11.7734 7.69563 11.717 7.53148 11.5857L4.09641 8.83759L5.62594 17.25H18.3741L19.9036 8.83759L16.4685 11.5857C16.3044 11.717 16.0927 11.7734 15.8849 11.7411C15.6772 11.7089 15.4926 11.5909 15.376 11.416L12 6.35208Z"/>
</svg>
