<svg viewBox="0 0 24 24" xmlns="http://www.w3.org/2000/svg">
<g clip-path="url(#clip0_1518_16937)">
<path d="M14.91 7.09C14.25 6.43 14.25 5.57 14.25 4V2C14.25 2 14.2 2 14.17 2H10C7.17 2 5.76 2 4.88 2.88C4 3.76 4 5.17 4 8V16C4 18.83 4 20.24 4.88 21.12C5.76 22 7.17 22 10 22H14C16.83 22 18.24 22 19.12 21.12C20 20.24 20 18.83 20 16V7.83C20 7.83 20 7.78 20 7.75H18C16.43 7.75 15.57 7.75 14.91 7.09ZM12.17 18.18H8C7.59 18.18 7.25 17.84 7.25 17.43C7.25 17.02 7.59 16.68 8 16.68H12.17C12.58 16.68 12.92 17.02 12.92 17.43C12.92 17.84 12.58 18.18 12.17 18.18ZM16 14.92H8C7.59 14.92 7.25 14.58 7.25 14.17C7.25 13.76 7.59 13.42 8 13.42H16C16.41 13.42 16.75 13.76 16.75 14.17C16.75 14.58 16.41 14.92 16 14.92ZM16 11.66H8C7.59 11.66 7.25 11.32 7.25 10.91C7.25 10.5 7.59 10.16 8 10.16H16C16.41 10.16 16.75 10.5 16.75 10.91C16.75 11.32 16.41 11.66 16 11.66Z"/>
<path d="M15.97 6.03C16.19 6.25 16.91 6.25 18 6.25H19.25L15.75 2.75V4C15.75 5.09 15.75 5.81 15.97 6.03Z"/>
</g>
<defs>
<clipPath id="clip0_1518_16937">
<rect width="16" height="20" fill="white" transform="translate(4 2)"/>
</clipPath>
</defs>
</svg>
