<svg viewBox="0 0 10 5" xmlns="http://www.w3.org/2000/svg">
<path d="M0.96967 3.71967C0.676777 4.01256 0.676777 4.48744 0.96967 4.78033C1.26256 5.07322 1.73744 5.07322 2.03033 4.78033L0.96967 3.71967ZM5 0.75L5.53033 0.21967C5.23744 -0.0732233 4.76256 -0.0732233 4.46967 0.21967L5 0.75ZM7.96967 4.78033C8.26256 5.07322 8.73744 5.07322 9.03033 4.78033C9.32322 4.48744 9.32322 4.01256 9.03033 3.71967L7.96967 4.78033ZM2.03033 4.78033L5.53033 1.28033L4.46967 0.21967L0.96967 3.71967L2.03033 4.78033ZM4.46967 1.28033L7.96967 4.78033L9.03033 3.71967L5.53033 0.21967L4.46967 1.28033Z"/>
</svg>
