<svg viewBox="0 0 18 18" xmlns="http://www.w3.org/2000/svg">
<path fill-rule="evenodd" clip-rule="evenodd" d="M4.10195 2.47836C4.46593 2.3276 4.85603 2.25 5.25 2.25C5.64397 2.25 6.03407 2.3276 6.39805 2.47836C6.76203 2.62913 7.09274 2.8501 7.37132 3.12868C7.6499 3.40726 7.87087 3.73797 8.02164 4.10195C8.1724 4.46593 8.25 4.85603 8.25 5.25C8.25 5.64397 8.1724 6.03407 8.02164 6.39805C7.87087 6.76203 7.6499 7.09274 7.37132 7.37132C7.09274 7.6499 6.76203 7.87087 6.39805 8.02164C6.03407 8.1724 5.64397 8.25 5.25 8.25C4.85603 8.25 4.46593 8.1724 4.10195 8.02164C3.73797 7.87087 3.40726 7.6499 3.12868 7.37132C2.8501 7.09274 2.62913 6.76203 2.47836 6.39805C2.3276 6.03407 2.25 5.64397 2.25 5.25C2.25 4.85603 2.3276 4.46593 2.47836 4.10195C2.62913 3.73797 2.8501 3.40726 3.12868 3.12868C3.40726 2.8501 3.73797 2.62913 4.10195 2.47836ZM5.25 3.75C5.05302 3.75 4.85796 3.7888 4.67597 3.86418C4.49399 3.93956 4.32863 4.05005 4.18934 4.18934C4.05005 4.32863 3.93956 4.49399 3.86418 4.67597C3.7888 4.85796 3.75 5.05302 3.75 5.25C3.75 5.44698 3.7888 5.64204 3.86418 5.82403C3.93956 6.00601 4.05005 6.17137 4.18934 6.31066C4.32863 6.44995 4.49399 6.56044 4.67597 6.63582C4.85796 6.7112 5.05302 6.75 5.25 6.75C5.44698 6.75 5.64204 6.7112 5.82403 6.63582C6.00601 6.56044 6.17137 6.44995 6.31066 6.31066C6.44995 6.17137 6.56044 6.00601 6.63582 5.82403C6.7112 5.64204 6.75 5.44698 6.75 5.25C6.75 5.05302 6.7112 4.85796 6.63582 4.67597C6.56044 4.49399 6.44995 4.32863 6.31066 4.18934C6.17137 4.05005 6.00601 3.93956 5.82403 3.86418C5.64204 3.7888 5.44698 3.75 5.25 3.75ZM9.75 3C9.75 2.58579 10.0858 2.25 10.5 2.25H15C15.4142 2.25 15.75 2.58579 15.75 3V7.5C15.75 7.91421 15.4142 8.25 15 8.25H10.5C10.0858 8.25 9.75 7.91421 9.75 7.5V3ZM11.25 3.75V6.75H14.25V3.75H11.25ZM2.25 10.5C2.25 10.0858 2.58579 9.75 3 9.75H7.5C7.91421 9.75 8.25 10.0858 8.25 10.5V15C8.25 15.4142 7.91421 15.75 7.5 15.75H3C2.58579 15.75 2.25 15.4142 2.25 15V10.5ZM3.75 11.25V14.25H6.75V11.25H3.75ZM10.6287 10.6287C11.1913 10.0661 11.9544 9.75 12.75 9.75C13.5456 9.75 14.3087 10.0661 14.8713 10.6287C15.4339 11.1913 15.75 11.9544 15.75 12.75C15.75 13.5456 15.4339 14.3087 14.8713 14.8713C14.3087 15.4339 13.5456 15.75 12.75 15.75C11.9544 15.75 11.1913 15.4339 10.6287 14.8713C10.0661 14.3087 9.75 13.5456 9.75 12.75C9.75 11.9544 10.0661 11.1913 10.6287 10.6287ZM12.75 11.25C12.3522 11.25 11.9706 11.408 11.6893 11.6893C11.408 11.9706 11.25 12.3522 11.25 12.75C11.25 13.1478 11.408 13.5294 11.6893 13.8107C11.9706 14.092 12.3522 14.25 12.75 14.25C13.1478 14.25 13.5294 14.092 13.8107 13.8107C14.092 13.5294 14.25 13.1478 14.25 12.75C14.25 12.3522 14.092 11.9706 13.8107 11.6893C13.5294 11.408 13.1478 11.25 12.75 11.25Z"/>
</svg>
