<svg viewBox="0 0 18 18" xmlns="http://www.w3.org/2000/svg">
<path fill-rule="evenodd" clip-rule="evenodd" d="M2.68934 2.68934C2.97064 2.40804 3.35217 2.25 3.75 2.25H6.75C7.14783 2.25 7.52936 2.40804 7.81066 2.68934C8.09196 2.97064 8.25 3.35217 8.25 3.75V6.75C8.25 7.14783 8.09196 7.52936 7.81066 7.81066C7.52936 8.09196 7.14783 8.25 6.75 8.25H3.75C3.35217 8.25 2.97064 8.09196 2.68934 7.81066C2.40804 7.52936 2.25 7.14783 2.25 6.75V3.75C2.25 3.35217 2.40804 2.97064 2.68934 2.68934ZM6.75 3.75L3.75 3.75L3.75 6.75H6.75V3.75ZM10.1893 2.68934C10.4706 2.40804 10.8522 2.25 11.25 2.25H14.25C14.6478 2.25 15.0294 2.40804 15.3107 2.68934C15.592 2.97065 15.75 3.35218 15.75 3.75V6.75C15.75 7.14782 15.592 7.52935 15.3107 7.81066C15.0294 8.09196 14.6478 8.25 14.25 8.25H11.25C10.8522 8.25 10.4706 8.09196 10.1893 7.81066C9.90804 7.52936 9.75 7.14783 9.75 6.75V3.75C9.75 3.35217 9.90804 2.97064 10.1893 2.68934ZM14.25 3.75H11.25V6.75H14.25L14.25 3.75ZM2.68934 10.1893C2.97064 9.90804 3.35217 9.75 3.75 9.75H6.75C7.14783 9.75 7.52936 9.90804 7.81066 10.1893C8.09196 10.4706 8.25 10.8522 8.25 11.25V14.25C8.25 14.6478 8.09196 15.0294 7.81066 15.3107C7.52935 15.592 7.14782 15.75 6.75 15.75H3.75C3.35218 15.75 2.97065 15.592 2.68934 15.3107C2.40804 15.0294 2.25 14.6478 2.25 14.25V11.25C2.25 10.8522 2.40804 10.4706 2.68934 10.1893ZM6.75 11.25H3.75L3.75 14.25H6.75V11.25ZM12.75 9.75C13.1642 9.75 13.5 10.0858 13.5 10.5V12H15C15.4142 12 15.75 12.3358 15.75 12.75C15.75 13.1642 15.4142 13.5 15 13.5H13.5V15C13.5 15.4142 13.1642 15.75 12.75 15.75C12.3358 15.75 12 15.4142 12 15V13.5H10.5C10.0858 13.5 9.75 13.1642 9.75 12.75C9.75 12.3358 10.0858 12 10.5 12H12V10.5C12 10.0858 12.3358 9.75 12.75 9.75Z"/>
</svg>
