<svg viewBox="0 0 11 11" xmlns="http://www.w3.org/2000/svg">
<mask id="mask0_1734_38174" style="mask-type:alpha" maskUnits="userSpaceOnUse" x="0" y="0" width="11" height="11">
<rect x="0.40625" y="0.392578" width="10.2164" height="10.2164" fill="#D9D9D9"/>
</mask>
<g mask="url(#mask0_1734_38174)">
<path d="M5.51152 3.36875C5.2774 3.36875 5.07697 3.28539 4.91025 3.11866C4.74352 2.95193 4.66016 2.75151 4.66016 2.51738C4.66016 2.28326 4.74352 2.08283 4.91025 1.9161C5.07697 1.74938 5.2774 1.66602 5.51152 1.66602C5.74565 1.66602 5.94608 1.74938 6.1128 1.9161C6.27953 2.08283 6.36289 2.28326 6.36289 2.51738C6.36289 2.75151 6.27953 2.95193 6.1128 3.11866C5.94608 3.28539 5.74565 3.36875 5.51152 3.36875ZM4.873 9.32832V4.22012H6.15005V9.32832H4.873Z"/>
</g>
</svg>
