<svg viewBox="0 0 24 24" xmlns="http://www.w3.org/2000/svg">
<path fill-rule="evenodd" clip-rule="evenodd" d="M12 3.25C12.4142 3.25 12.75 3.58579 12.75 4V14.1893L16.4697 10.4697C16.7626 10.1768 17.2374 10.1768 17.5303 10.4697C17.8232 10.7626 17.8232 11.2374 17.5303 11.5303L12.5303 16.5303C12.2374 16.8232 11.7626 16.8232 11.4697 16.5303L6.46967 11.5303C6.17678 11.2374 6.17678 10.7626 6.46967 10.4697C6.76256 10.1768 7.23744 10.1768 7.53033 10.4697L11.25 14.1893V4C11.25 3.58579 11.5858 3.25 12 3.25ZM4 16.25C4.41421 16.25 4.75 16.5858 4.75 17V19C4.75 19.3315 4.88168 19.6494 5.11613 19.8839L5.11614 19.8839C5.35054 20.1183 5.66847 20.25 6 20.25H18C18.3315 20.25 18.6494 20.1183 18.8839 19.8839C19.1183 19.6494 19.25 19.3315 19.25 19V17C19.25 16.5858 19.5858 16.25 20 16.25C20.4142 16.25 20.75 16.5858 20.75 17V19C20.75 19.7293 20.4603 20.4288 19.9445 20.9445C19.4288 21.4603 18.7293 21.75 18 21.75H6C5.27067 21.75 4.57118 21.4603 4.05544 20.9445C3.53973 20.4288 3.25 19.7293 3.25 19V17C3.25 16.5858 3.58579 16.25 4 16.25Z"/>
</svg>
