<svg viewBox="0 0 24 24" xmlns="http://www.w3.org/2000/svg">
<path d="M7 11V11.75V11ZM5 19H4.25H5ZM7.25 11C7.25 11.4142 7.58579 11.75 8 11.75C8.41421 11.75 8.75 11.4142 8.75 11H7.25ZM12 3V2.25V3ZM16 7H16.75H16ZM15.25 11C15.25 11.4142 15.5858 11.75 16 11.75C16.4142 11.75 16.75 11.4142 16.75 11H15.25ZM5.75 13C5.75 12.6685 5.8817 12.3505 6.11612 12.1161L5.05546 11.0555C4.53973 11.5712 4.25 12.2707 4.25 13H5.75ZM6.11612 12.1161C6.35054 11.8817 6.66848 11.75 7 11.75V10.25C6.27065 10.25 5.57118 10.5397 5.05546 11.0555L6.11612 12.1161ZM7 11.75H17V10.25H7V11.75ZM17 11.75C17.3315 11.75 17.6495 11.8817 17.8839 12.1161L18.9445 11.0555C18.4288 10.5397 17.7293 10.25 17 10.25V11.75ZM17.8839 12.1161C18.1183 12.3505 18.25 12.6685 18.25 13H19.75C19.75 12.2707 19.4603 11.5712 18.9445 11.0555L17.8839 12.1161ZM18.25 13V19H19.75V13H18.25ZM18.25 19C18.25 19.3315 18.1183 19.6495 17.8839 19.8839L18.9445 20.9445C19.4603 20.4288 19.75 19.7293 19.75 19H18.25ZM17.8839 19.8839C17.6495 20.1183 17.3315 20.25 17 20.25V21.75C17.7293 21.75 18.4288 21.4603 18.9445 20.9445L17.8839 19.8839ZM17 20.25H7V21.75H17V20.25ZM7 20.25C6.66848 20.25 6.35054 20.1183 6.11612 19.8839L5.05546 20.9445C5.57118 21.4603 6.27065 21.75 7 21.75V20.25ZM6.11612 19.8839C5.8817 19.6495 5.75 19.3315 5.75 19H4.25C4.25 19.7293 4.53973 20.4288 5.05546 20.9445L6.11612 19.8839ZM5.75 19V13H4.25V19H5.75ZM10.25 16C10.25 16.4641 10.4344 16.9092 10.7626 17.2374L11.8232 16.1768C11.7763 16.1299 11.75 16.0663 11.75 16H10.25ZM10.7626 17.2374C11.0908 17.5656 11.5359 17.75 12 17.75V16.25C11.9337 16.25 11.8701 16.2237 11.8232 16.1768L10.7626 17.2374ZM12 17.75C12.4641 17.75 12.9092 17.5656 13.2374 17.2374L12.1768 16.1768C12.1299 16.2237 12.0663 16.25 12 16.25V17.75ZM13.2374 17.2374C13.5656 16.9092 13.75 16.4641 13.75 16H12.25C12.25 16.0663 12.2237 16.1299 12.1768 16.1768L13.2374 17.2374ZM13.75 16C13.75 15.5359 13.5656 15.0908 13.2374 14.7626L12.1768 15.8232C12.2237 15.8701 12.25 15.9337 12.25 16H13.75ZM13.2374 14.7626C12.9092 14.4344 12.4641 14.25 12 14.25V15.75C12.0663 15.75 12.1299 15.7763 12.1768 15.8232L13.2374 14.7626ZM12 14.25C11.5359 14.25 11.0908 14.4344 10.7626 14.7626L11.8232 15.8232C11.8701 15.7763 11.9337 15.75 12 15.75V14.25ZM10.7626 14.7626C10.4344 15.0908 10.25 15.5359 10.25 16H11.75C11.75 15.9337 11.7763 15.8701 11.8232 15.8232L10.7626 14.7626ZM8.75 11V7H7.25V11H8.75ZM8.75 7C8.75 6.13805 9.09241 5.3114 9.7019 4.7019L8.64124 3.64124C7.75044 4.53204 7.25 5.74022 7.25 7H8.75ZM9.7019 4.7019C10.3114 4.09241 11.138 3.75 12 3.75V2.25C10.7402 2.25 9.53204 2.75044 8.64124 3.64124L9.7019 4.7019ZM12 3.75C12.862 3.75 13.6886 4.09241 14.2981 4.7019L15.3588 3.64124C14.468 2.75044 13.2598 2.25 12 2.25V3.75ZM14.2981 4.7019C14.9076 5.3114 15.25 6.13805 15.25 7H16.75C16.75 5.74022 16.2496 4.53204 15.3588 3.64124L14.2981 4.7019ZM15.25 7V11H16.75V7H15.25Z"/>
</svg>
