<svg viewBox="0 0 24 24" xmlns="http://www.w3.org/2000/svg">
<path fill-rule="evenodd" clip-rule="evenodd" d="M4.17157 3.17126C3 4.34284 3 6.22845 3 9.99969V13.9997C3 17.7709 3 19.6566 4.17157 20.8281C5.34315 21.9997 7.22876 21.9997 11 21.9997H13C16.7712 21.9997 18.6569 21.9997 19.8284 20.8281C21 19.6566 21 17.7709 21 13.9997V9.99969C21 6.22845 21 4.34284 19.8284 3.17126C18.6569 1.99969 16.7712 1.99969 13 1.99969H11C7.22876 1.99969 5.34315 1.99969 4.17157 3.17126ZM7.25 7.99969C7.25 7.58548 7.58579 7.24969 8 7.24969H16C16.4142 7.24969 16.75 7.58548 16.75 7.99969C16.75 8.4139 16.4142 8.74969 16 8.74969H8C7.58579 8.74969 7.25 8.4139 7.25 7.99969ZM7.25 11.9997C7.25 11.5855 7.58579 11.2497 8 11.2497H16C16.4142 11.2497 16.75 11.5855 16.75 11.9997C16.75 12.4139 16.4142 12.7497 16 12.7497H8C7.58579 12.7497 7.25 12.4139 7.25 11.9997ZM8 15.2497C7.58579 15.2497 7.25 15.5855 7.25 15.9997C7.25 16.4139 7.58579 16.7497 8 16.7497H13C13.4142 16.7497 13.75 16.4139 13.75 15.9997C13.75 15.5855 13.4142 15.2497 13 15.2497H8Z"/>
</svg>
