<svg viewBox="0 0 11 14" xmlns="http://www.w3.org/2000/svg">
<path d="M0.230469 1.50712V12.6179C0.230436 12.7414 0.261487 12.8628 0.320418 12.9694C0.379349 13.0759 0.464026 13.1639 0.565713 13.2242C0.667399 13.2845 0.782412 13.3149 0.898885 13.3123C1.01536 13.3098 1.12907 13.2743 1.2283 13.2095L9.73994 7.65415C9.83527 7.59202 9.914 7.50501 9.96861 7.40144C10.0232 7.29786 10.0519 7.18117 10.0519 7.0625C10.0519 6.94383 10.0232 6.82714 9.96861 6.72356C9.914 6.61999 9.83527 6.53298 9.73994 6.47085L1.2283 0.91547C1.12907 0.850726 1.01536 0.815232 0.898885 0.812651C0.782412 0.810071 0.667399 0.840497 0.565713 0.900791C0.464026 0.961084 0.379349 1.04906 0.320418 1.15565C0.261487 1.26223 0.230436 1.38356 0.230469 1.50712Z"/>
</svg>
