<svg viewBox="0 0 18 18" xmlns="http://www.w3.org/2000/svg">
<path fill-rule="evenodd" clip-rule="evenodd" d="M11.7803 2.46967C12.0732 2.76256 12.0732 3.23744 11.7803 3.53033L9.60497 5.70569L12.2943 8.39503L14.4697 6.21967C14.7626 5.92678 15.2374 5.92678 15.5303 6.21967C15.8232 6.51256 15.8232 6.98744 15.5303 7.28033L13.355 9.45569L14.0302 10.1309C14.1709 10.2716 14.2499 10.4623 14.2499 10.6613C14.2499 10.8602 14.1709 11.0509 14.0302 11.1916L12.4947 12.7271C12.025 13.2141 11.4633 13.6029 10.8421 13.871C10.2185 14.1401 9.54753 14.2822 8.86841 14.2888C8.18929 14.2955 7.51565 14.1666 6.88692 13.9098C6.49114 13.7481 6.11816 13.5378 5.77632 13.2843L3.53033 15.5303C3.23744 15.8232 2.76256 15.8232 2.46967 15.5303C2.17678 15.2374 2.17678 14.7626 2.46967 14.4697L4.71564 12.2237C4.46213 11.8818 4.25176 11.5088 4.09007 11.113C3.83325 10.4842 3.7044 9.81059 3.71106 9.13147C3.71772 8.45234 3.85976 7.78137 4.12887 7.1578C4.39696 6.53657 4.7858 5.97483 5.27279 5.50518L6.8083 3.96967C7.10119 3.67678 7.57607 3.67678 7.86896 3.96967L8.54431 4.64503L10.7197 2.46967C11.0126 2.17678 11.4874 2.17678 11.7803 2.46967ZM7.33863 5.56066L6.32846 6.57083L6.31795 6.58113C5.97217 6.91361 5.69616 7.31171 5.50609 7.75215C5.31602 8.19258 5.21569 8.66651 5.21099 9.14618C5.20628 9.62586 5.29729 10.1017 5.47869 10.5457C5.66009 10.9898 5.92823 11.3933 6.26743 11.7325C6.60663 12.0716 7.01007 12.3398 7.45415 12.5212C7.89822 12.7026 8.37402 12.7936 8.8537 12.7889C9.33337 12.7842 9.80729 12.6839 10.2477 12.4938C10.6882 12.3037 11.0863 12.0277 11.4187 11.6819L11.429 11.6714L12.4392 10.6612L7.33863 5.56066Z"/>
</svg>
