<svg viewBox="0 0 28 28" xmlns="http://www.w3.org/2000/svg">
<g clip-path="url(#clip0_1_31)">
<mask id="mask0_1_31" style="mask-type:luminance" maskUnits="userSpaceOnUse" x="0" y="0" width="28" height="28">
<path d="M28 0H0V28H28V0Z" fill="white"/>
</mask>
<g mask="url(#mask0_1_31)">
<path fill-rule="evenodd" clip-rule="evenodd" d="M17.1987 5.53692C17.1985 5.53711 17.1989 5.53673 17.1987 5.53692L5.53524 17.2004C5.53505 17.2006 5.53543 17.2002 5.53524 17.2004C5.45795 17.2785 5.41406 17.3844 5.41406 17.4942C5.41406 17.6042 5.45762 17.7099 5.53524 17.788L5.53924 17.792L10.2303 22.5833H13.102L23.6164 11.9546C23.6941 11.8764 23.7376 11.7708 23.7376 11.6608C23.7376 11.5511 23.6943 11.4457 23.617 11.3676C23.6168 11.3674 23.6172 11.3678 23.617 11.3676L17.7863 5.53692C17.7861 5.53675 17.7864 5.5371 17.7863 5.53692C17.7082 5.45962 17.6023 5.41574 17.4925 5.41574C17.3827 5.41574 17.2768 5.45966 17.1987 5.53692ZM13.4157 24.0833H22.165C22.5792 24.0833 22.915 23.7475 22.915 23.3333C22.915 22.9191 22.5792 22.5833 22.165 22.5833H15.2119L24.6802 13.012C24.6805 13.0118 24.6807 13.0115 24.681 13.0112C25.0375 12.6522 25.2376 12.1668 25.2376 11.6608C25.2376 11.1544 25.0372 10.6686 24.6802 10.3096L18.8453 4.47467L18.8437 4.47308C18.4846 4.11613 17.9989 3.91574 17.4925 3.91574C16.9862 3.91574 16.5004 4.11613 16.1413 4.47308L16.1397 4.47467L4.47299 16.1414L4.4714 16.143C4.11447 16.502 3.91406 16.9877 3.91406 17.4942C3.91406 17.9995 4.11363 18.4843 4.46922 18.8432C4.46995 18.844 4.47067 18.8447 4.4714 18.8454L9.37909 23.858C9.52017 24.0021 9.71333 24.0833 9.91499 24.0833H13.4143C13.4148 24.0833 13.4152 24.0833 13.4157 24.0833Z"/>
<path fill-rule="evenodd" clip-rule="evenodd" d="M13.1181 7.63634C13.411 7.34345 13.8858 7.34345 14.1787 7.63634L21.5287 14.9864C21.8216 15.2793 21.8216 15.7541 21.5287 16.047C21.2358 16.3399 20.761 16.3399 20.4681 16.047L13.1181 8.697C12.8252 8.40411 12.8252 7.92923 13.1181 7.63634Z"/>
</g>
</g>
<defs>
<clipPath id="clip0_1_31">
<rect width="28" height="28" fill="white"/>
</clipPath>
</defs>
</svg>
