<svg viewBox="0 0 17 16" xmlns="http://www.w3.org/2000/svg">
<path fill-rule="evenodd" clip-rule="evenodd" d="M8.63503 3.46967C8.92792 3.17678 9.40279 3.17678 9.69569 3.46967L13.6957 7.46967C13.8364 7.61032 13.9154 7.80109 13.9154 8C13.9154 8.19891 13.8364 8.38968 13.6957 8.53033L9.69569 12.5303C9.40279 12.8232 8.92792 12.8232 8.63503 12.5303C8.34214 12.2374 8.34214 11.7626 8.63503 11.4697L11.3547 8.75H3.83203C3.41782 8.75 3.08203 8.41421 3.08203 8C3.08203 7.58579 3.41782 7.25 3.83203 7.25H11.3547L8.63503 4.53033C8.34214 4.23744 8.34214 3.76257 8.63503 3.46967Z"/>
</svg>
