<svg viewBox="0 0 24 24" xmlns="http://www.w3.org/2000/svg">
<path d="M8.24277 7.33998L1.86277 8.26498L1.74977 8.28798C1.57871 8.3334 1.42276 8.42339 1.29786 8.54879C1.17296 8.67418 1.08357 8.83047 1.03883 9.00171C0.994087 9.17295 0.995593 9.35299 1.04319 9.52346C1.09079 9.69392 1.18278 9.8487 1.30977 9.97198L5.93177 14.471L4.84177 20.826L4.82877 20.936C4.81829 21.1129 4.85503 21.2894 4.93522 21.4475C5.0154 21.6055 5.13615 21.7395 5.2851 21.8355C5.43405 21.9315 5.60585 21.9863 5.78291 21.9941C5.95997 22.0019 6.13593 21.9625 6.29277 21.88L11.9988 18.88L17.6918 21.88L17.7918 21.926C17.9568 21.991 18.1362 22.0109 18.3115 21.9837C18.4868 21.9566 18.6517 21.8832 18.7894 21.7712C18.927 21.6593 19.0323 21.5127 19.0946 21.3466C19.1569 21.1805 19.1738 21.0008 19.1438 20.826L18.0528 14.471L22.6768 9.97098L22.7548 9.88598C22.8662 9.74875 22.9392 9.58444 22.9665 9.40978C22.9937 9.23512 22.9742 9.05636 22.9099 8.89171C22.8455 8.72707 22.7387 8.58242 22.6003 8.4725C22.4618 8.36258 22.2967 8.29132 22.1218 8.26598L15.7418 7.33998L12.8898 1.55998C12.8072 1.39252 12.6795 1.2515 12.521 1.15289C12.3624 1.05428 12.1795 1.00201 11.9928 1.00201C11.8061 1.00201 11.6231 1.05428 11.4646 1.15289C11.306 1.2515 11.1783 1.39252 11.0958 1.55998L8.24277 7.33998Z"/>
</svg>
