<svg viewBox="0 0 24 24" xmlns="http://www.w3.org/2000/svg">
<path d="M11.9999 0.999984C12.1629 1.0006 12.3233 1.04134 12.4668 1.1186C12.6103 1.19586 12.7326 1.30727 12.8229 1.44298L12.8899 1.55898L15.7419 7.33998L22.1219 8.26498C22.8629 8.37298 23.2019 9.20498 22.8249 9.79098L22.7549 9.88598L22.6769 9.97198L18.0529 14.471L19.1429 20.826C19.1713 20.9918 19.1575 21.162 19.1027 21.321C19.0479 21.48 18.9539 21.6227 18.8295 21.7358C18.705 21.8489 18.554 21.9288 18.3905 21.9682C18.227 22.0075 18.0562 22.0051 17.8939 21.961L17.7929 21.926L17.6919 21.88L11.9989 18.88L6.29291 21.88C6.18791 21.935 6.08091 21.97 5.97291 21.986L5.86691 21.996C5.72734 22.0011 5.58825 21.977 5.45853 21.9252C5.32881 21.8735 5.21134 21.7952 5.11362 21.6954C5.01591 21.5956 4.94011 21.4765 4.89108 21.3458C4.84206 21.215 4.82088 21.0754 4.82891 20.936L4.84191 20.826L5.93191 14.471L1.30891 9.97098C1.18936 9.85454 1.10082 9.71006 1.05135 9.55068C1.00187 9.3913 0.993032 9.22208 1.02563 9.05841C1.05822 8.89474 1.13122 8.74182 1.23798 8.61355C1.34474 8.48528 1.48187 8.38574 1.63691 8.32398L1.74991 8.28798L1.86391 8.26498L8.24291 7.33998L11.0959 1.55998C11.1755 1.38859 11.3035 1.24424 11.4641 1.14473C11.6248 1.04522 11.811 0.994904 11.9999 0.999984ZM11.9999 4.27398V16.75C12.0805 16.75 12.1607 16.7597 12.2389 16.779L12.3539 16.815L12.4659 16.865L16.8289 19.164L15.9929 14.291C15.9517 14.0502 16.0001 13.8026 16.1289 13.595L16.1989 13.496L16.2809 13.406L19.8269 9.95298L14.9359 9.24498C14.6942 9.20989 14.4736 9.08753 14.3159 8.90098L14.2429 8.80398L14.1829 8.69798L11.9999 4.27398Z"/>
</svg>
