<svg viewBox="0 0 12 12" xmlns="http://www.w3.org/2000/svg">
<path d="M1.00131 6.32568C0.595322 6.18129 0.595321 5.60714 1.00131 5.46275L4.08701 4.36538C4.21678 4.31923 4.31888 4.21713 4.36503 4.08736L5.46241 1.00166C5.60679 0.595668 6.18095 0.595668 6.32533 1.00166L7.42271 4.08736C7.46885 4.21713 7.57096 4.31923 7.70073 4.36538L10.7864 5.46275C11.1924 5.60714 11.1924 6.18129 10.7864 6.32568L7.70073 7.42305C7.57096 7.4692 7.46885 7.5713 7.42271 7.70107L6.32533 10.7868C6.18095 11.1928 5.60679 11.1928 5.46241 10.7868L4.36503 7.70107C4.31888 7.57131 4.21678 7.4692 4.08701 7.42305L1.00131 6.32568Z"/>
</svg>
