<svg viewBox="0 0 24 24" xmlns="http://www.w3.org/2000/svg">
<g clip-path="url(#clip0_1_51)">
<mask id="mask0_1_51" style="mask-type:luminance" maskUnits="userSpaceOnUse" x="0" y="0" width="24" height="24">
<path d="M24 0H0V24H24V0Z" fill="white"/>
</mask>
<g mask="url(#mask0_1_51)">
<path fill-rule="evenodd" clip-rule="evenodd" d="M10.8233 3.82316C10.8701 3.77636 10.9337 3.75 11 3.75ZM10.8233 3.82318C10.7763 3.87014 10.75 3.93378 10.75 4V10C10.75 10.0663 10.7764 10.1299 10.8232 10.1768C10.8701 10.2236 10.9337 10.25 11 10.25H18C18.1989 10.25 18.3897 10.329 18.5303 10.4697L20.25 12.1893V4C20.25 3.93378 20.2237 3.87014 20.1767 3.82318M9.76253 2.7626C10.0907 2.43435 10.5359 2.25 11 2.25H20C20.4641 2.25 20.9093 2.43435 21.2375 2.7626L21.2375 2.76262C21.5655 3.09073 21.75 3.53579 21.75 4V14C21.75 14.3033 21.5673 14.5768 21.287 14.6929C21.0068 14.809 20.6842 14.7448 20.4697 14.5303L17.6893 11.75H11C10.5359 11.75 10.0907 11.5656 9.76257 11.2374C9.43444 10.9093 9.25 10.4641 9.25 10V4C9.25 3.53579 9.43447 3.09073 9.76251 2.76262L9.76253 2.7626ZM11 3.75H20ZM20 3.75C20.0663 3.75 20.1299 3.77636 20.1767 3.82316Z"/>
<path fill-rule="evenodd" clip-rule="evenodd" d="M4 10.75C3.93378 10.75 3.87014 10.7763 3.82318 10.8233C3.82317 10.8233 3.82317 10.8233 3.82316 10.8233M3.75 19.1893L5.46967 17.4697C5.61032 17.329 5.80109 17.25 6 17.25H13C13.0663 17.25 13.1299 17.2236 13.1768 17.1768C13.2236 17.1299 13.25 17.0663 13.25 17V15C13.25 14.5858 13.5858 14.25 14 14.25C14.4142 14.25 14.75 14.5858 14.75 15V17C14.75 17.4641 14.5656 17.9093 14.2374 18.2374C13.9093 18.5656 13.4641 18.75 13 18.75H6.31066L3.53033 21.5303C3.31583 21.7448 2.99324 21.809 2.71299 21.6929C2.43273 21.5768 2.25 21.3033 2.25 21V11C2.25 10.5359 2.43435 10.0907 2.7626 9.76253L2.76262 9.76251C3.09073 9.43447 3.53579 9.25 4 9.25H6C6.41421 9.25 6.75 9.58579 6.75 10C6.75 10.4142 6.41421 10.75 6 10.75H4"/>
</g>
</g>
<defs>
<clipPath id="clip0_1_51">
<rect width="24" height="24" fill="white"/>
</clipPath>
</defs>
</svg>
