<svg viewBox="0 0 18 18" xmlns="http://www.w3.org/2000/svg">
<path fill-rule="evenodd" clip-rule="evenodd" d="M6.2839 2.97336L8.03022 4.71968C8.17087 4.86034 8.24989 5.0511 8.24989 5.25001V7.50001C8.24989 7.91423 7.9141 8.25001 7.49989 8.25001H5.24989C5.05098 8.25001 4.86021 8.171 4.71956 8.03034L2.97324 6.28402C2.91833 6.6684 2.92312 7.06125 2.98956 7.44849C3.12069 8.2128 3.48555 8.91766 4.0339 9.466C4.58225 10.0144 5.28711 10.3792 6.05142 10.5103C6.81573 10.6415 7.6019 10.5324 8.30167 10.1982C8.58847 10.0613 8.93048 10.1199 9.15522 10.3447L13.6552 14.8447C13.8129 15.0024 14.0268 15.091 14.2499 15.091C14.4729 15.091 14.6868 15.0024 14.8446 14.8447C15.0023 14.687 15.0909 14.4731 15.0909 14.25C15.0909 14.027 15.0023 13.8131 14.8446 13.6553L10.3446 9.15534C10.1198 8.9306 10.0611 8.5886 10.1981 8.30179C10.5323 7.60202 10.6414 6.81585 10.5102 6.05154C10.3791 5.28723 10.0142 4.58237 9.46588 4.03402C8.91753 3.48568 8.21267 3.12081 7.44836 2.98968C7.06113 2.92324 6.66828 2.91845 6.2839 2.97336ZM4.55167 1.94824C5.53134 1.48035 6.63198 1.32769 7.70202 1.51128C8.77205 1.69487 9.75886 2.20568 10.5265 2.97336C11.2942 3.74105 11.805 4.72785 11.9886 5.79789C12.1416 6.6895 12.0611 7.60237 11.7593 8.44879L15.9052 12.5947C16.3442 13.0337 16.5909 13.6291 16.5909 14.25C16.5909 14.8709 16.3442 15.4663 15.9052 15.9053C15.4662 16.3444 14.8708 16.591 14.2499 16.591C13.629 16.591 13.0336 16.3444 12.5946 15.9053L8.44867 11.7594C7.60224 12.0612 6.68938 12.1417 5.79777 11.9887C4.72773 11.8052 3.74093 11.2943 2.97324 10.5267C2.20555 9.75898 1.69475 8.77217 1.51116 7.70214C1.32757 6.6321 1.48023 5.53147 1.94811 4.55179C2.05304 4.33208 2.25809 4.17699 2.49806 4.13581C2.73803 4.09464 2.98306 4.17252 3.15522 4.34468L5.56055 6.75001H6.74989V5.56067L4.34456 3.15534C4.1724 2.98318 4.09452 2.73816 4.13569 2.49819C4.17686 2.25822 4.33196 2.05317 4.55167 1.94824Z"/>
</svg>
