<svg width="131" height="115" viewBox="0 0 131 115" fill="none" xmlns="http://www.w3.org/2000/svg">
<path d="M0.0100098 56.5181C0.88001 36.1881 8.4 18.2981 26.02 5.52811C36.36 -1.97189 44.56 -1.8519 54.63 5.9581C61.66 11.4081 68.48 17.1881 78.34 14.9481C82.22 14.0681 86.05 12.9981 89.89 11.9481C98.71 9.52809 106.52 11.3981 112.59 18.2181C124.33 31.3981 132.18 46.3181 130.39 64.6481C129.39 74.9281 123.48 82.7181 115.14 88.1481C96.84 100.078 77.52 110.088 55.64 113.528C40.42 115.918 27 111.458 16.29 100.108C5.03001 88.1681 0.22 73.6581 0 56.5181H0.0100098Z" fill="#5F6367"/>
</svg>
