<svg width="146" height="149" viewBox="0 0 146 149" fill="none" xmlns="http://www.w3.org/2000/svg">
<path d="M22.2488 131.579C22.4756 131.132 22.7001 130.688 23.0017 130.095C22.6325 130.074 22.2102 130.047 21.7421 130.019V130.926C20.4993 130.686 19.2686 129.495 18.0862 131.149C18.0476 131.027 18.009 130.904 17.9704 130.782C18.3468 130.239 18.7112 129.69 19.1021 129.157C20.1663 127.71 19.785 125.996 18.1272 125.293C17.0655 124.842 15.912 124.602 14.802 124.259C12.3117 123.491 11.8725 122.187 13.6123 120.248C14.5365 119.219 15.7117 118.405 16.8097 117.539C17.6905 116.845 18.6557 116.257 19.5292 115.554C20.2725 114.956 20.9385 114.263 21.5973 113.648C21.2908 113.408 21.023 113.197 20.7527 112.988C21.2787 112.42 21.8048 111.851 22.3309 111.284C22.425 111.325 22.5215 111.368 22.6156 111.409V108.121C22.7411 108.061 23.0644 107.903 23.4554 107.711C22.4925 106.996 21.8048 107.31 18.5688 109.787C18.3854 109.151 18.2672 108.431 17.2923 108.812C17.1837 108.856 16.9931 108.911 16.9472 108.86C16.0061 107.838 14.6596 108.289 13.5303 107.953C12.8932 107.764 12.121 108.025 11.2113 108.1C11.2209 108.114 11.0568 107.908 10.8566 107.66C10.4222 107.972 10.0047 108.27 9.56072 108.589C9.87201 107.526 10.1761 106.484 10.4801 105.443L10.1833 105.253C9.74652 105.476 9.31217 105.702 8.87539 105.925C8.76922 105.856 8.66304 105.788 8.55686 105.719C9.22288 104.608 9.89131 103.496 10.608 102.301C10.275 102.489 9.96853 102.659 9.84788 102.726C9.47384 102.352 9.0781 102.076 8.85609 101.699C8.581 101.236 8.13698 100.439 8.31314 100.221C8.94779 99.4261 8.47965 98.5358 8.7475 97.7942C9.18186 96.587 9.91303 95.5166 8.91883 94.2014C8.74267 93.9686 9.30251 93.1838 9.66207 92.315C8.29384 93.3854 7.15726 94.2734 5.8928 95.2646C5.8373 94.4006 4.53905 94.091 5.20265 93.0422C5.63942 92.3534 6.08102 91.6694 6.58777 90.8774C5.88073 90.803 5.34985 90.7478 4.74657 90.6854C4.6959 91.0934 4.64281 91.5182 4.60179 91.835C3.36387 90.9182 2.16214 90.0566 1.00144 89.1422C0.743236 88.9382 0.564666 88.5639 0.475381 88.2351C0.357139 87.8007 0.364379 87.3351 0.316117 86.8839C0.20994 86.8623 0.106177 86.8407 0 86.8191C0.31129 86.4687 0.694974 86.1567 0.919392 85.7583C1.30066 85.0815 1.805 84.3639 1.84844 83.6367C1.90635 82.7175 2.28521 82.2399 2.95846 81.6951C5.91934 79.2999 8.80059 76.8088 11.747 74.3968C12.7291 73.5928 13.8778 72.9904 14.843 72.1672C15.7576 71.3872 16.5418 70.4512 17.3575 69.5584C17.4902 69.4145 17.4878 69.1505 17.3357 68.7497C16.8097 69.1601 16.286 69.5729 15.76 69.9833C15.6924 69.9113 15.6248 69.8393 15.5573 69.7673C16.8 68.4905 18.0404 67.2113 19.2831 65.9345L19.2348 65.8169C18.0741 66.6137 16.899 67.3889 15.76 68.2145C15.0795 68.7089 14.4859 69.3233 13.7933 69.7961C13.4868 70.0024 13.0163 69.9497 12.6422 70.0816C12.1307 70.2641 11.6408 70.5112 11.163 70.72C11.7229 69.8033 11.8749 68.6417 12.9246 67.7369C14.5993 66.2921 15.9434 64.4729 17.5071 62.8913C18.6267 61.7585 19.8767 60.7553 21.0302 59.361C20.6465 59.385 20.1301 59.2578 19.9009 59.4594C18.6967 60.5154 17.2658 61.4825 16.4936 62.8121C15.7552 64.0841 14.621 64.6097 13.6992 65.5025C13.6075 65.4233 13.5134 65.3441 13.4217 65.2625C15.3739 62.8745 17.3237 60.4842 19.2759 58.0962C19.1721 58.005 19.0683 57.9138 18.9646 57.8226C18.2817 58.3194 17.6012 58.8138 16.9183 59.3106C16.8459 59.2458 16.7735 59.1786 16.7011 59.1138C17.6229 57.9954 18.5447 56.8746 19.4665 55.7562L19.329 55.545C18.6605 55.9794 17.9921 56.4138 17.3237 56.8482C17.2633 56.7858 17.203 56.721 17.1427 56.6586C18.1031 55.509 19.0659 54.3618 20.0263 53.2122C19.9322 53.097 19.8405 52.9818 19.7464 52.8666C19.4255 52.9938 18.9236 53.0322 18.8101 53.2602C17.7966 55.3074 16.0037 56.5002 13.9405 57.6354C14.3218 57.1026 14.6403 56.6586 14.9564 56.2146C14.872 56.1306 14.7899 56.0442 14.7055 55.9602C14.1987 56.6538 13.6895 57.345 13.1828 58.0386C13.0428 57.9402 12.9029 57.8442 12.7629 57.7458C12.7412 57.3834 12.7195 57.0234 12.6857 56.4426C11.8146 57.2202 11.0399 57.9114 10.2653 58.6026C10.2074 58.5618 10.1495 58.5186 10.094 58.4778C10.9314 57.3258 11.7711 56.1714 12.6085 55.0194C12.5385 54.957 12.4685 54.8946 12.3985 54.8322L11.1896 55.8162C11.1075 55.7778 11.0255 55.7394 10.9434 55.701C11.0906 55.3578 11.1654 54.9522 11.3995 54.6858C12.454 53.481 13.5544 52.3146 14.6355 51.1315C14.7682 50.9851 15.0192 50.7979 14.995 50.6755C14.6355 48.8899 15.871 48.0307 17.0244 47.1139C17.0775 47.0731 17.0824 46.9723 17.1041 46.9123C16.607 46.6843 16.1051 46.4539 15.398 46.1299C13.3927 47.9635 11.2113 49.9579 9.02983 51.9522C8.97192 51.9018 8.91159 51.8538 8.85368 51.8034C10.8083 49.6843 12.7605 47.5651 14.7658 45.3907C14.0636 45.2203 13.5279 45.0907 12.8329 44.9227C12.0148 45.8587 11.1148 46.8883 10.2147 47.9179C10.1157 47.8387 10.0168 47.7571 9.91785 47.6779C12.1476 44.3683 15.7865 42.1027 17.3526 38.2988C17.2754 38.2196 17.1958 38.1404 17.1186 38.0636C16.4188 38.7668 15.7165 39.47 15.024 40.1684C14.5534 38.5964 14.8744 37.9676 16.397 36.8588C17.1499 36.3092 17.8015 35.5892 18.3999 34.8644C20.3642 32.4909 22.2778 30.0765 24.2203 27.6861C24.5992 27.2205 25.0239 26.7933 25.4293 26.3493C26.2039 25.4997 26.8868 24.6165 28.1682 24.3357C28.8052 24.1965 29.3047 23.4429 29.8646 22.9654C29.9756 23.071 30.0866 23.1766 30.1976 23.2846L26.2618 27.7101C26.3897 27.8301 26.5152 27.9501 26.6431 28.0677C28.9548 25.8525 31.2666 23.6349 33.5783 21.4198C33.6821 21.5086 33.7859 21.5998 33.8896 21.6886C33.3587 22.375 32.8279 23.0614 32.297 23.7477C33.5639 23.3494 34.4229 22.5118 35.2048 21.4798C35.9166 20.5366 36.8384 19.7446 37.6927 18.9094C38.1729 18.439 38.7086 18.0286 39.2009 17.5702C40.405 16.4518 41.6284 15.3478 42.7795 14.179C43.2404 13.7111 43.6241 13.1207 43.8992 12.5207C44.5797 11.0375 45.3639 10.5047 46.9638 10.5215C47.2051 10.5239 47.4899 10.3391 47.6829 10.1615C48.2162 9.6767 48.6651 9.0887 49.237 8.65911C49.9175 8.15031 50.6921 7.76632 51.4208 7.32232C51.8866 7.03912 52.345 6.74153 53.081 6.27593C53.1751 7.21432 53.2572 8.04471 53.3392 8.8847C53.3778 8.86791 53.6433 8.75271 53.9884 8.60631C54.0752 8.9807 54.1525 9.3095 54.2779 9.8423C55.5665 9.1943 56.7321 9.2759 57.649 10.5719C58.3175 10.0151 58.9111 9.5207 59.5047 9.0239C59.553 9.0647 59.6037 9.1055 59.6519 9.1439C59.454 9.4391 59.2586 9.7343 59.0776 10.0007C59.2055 10.7375 60.8126 10.6823 59.7774 12.0047C61.44 10.4327 62.427 13.0223 63.9762 12.3887C63.7204 12.7535 63.4646 13.1207 63.1364 13.5887C64.2609 14.0399 65.1538 13.6727 65.7715 13.2023C66.4858 13.4063 67.0071 13.6127 67.55 13.6943C68.3874 13.8191 68.7059 14.3398 68.3536 15.1342C68.2088 15.4606 68.0592 15.7846 67.9264 16.1158C67.8709 16.2526 67.8589 16.4062 67.7913 16.711C68.327 16.4206 68.7131 16.1518 69.1402 15.9982C69.5239 15.8614 69.9535 15.8542 70.3613 15.787C70.4554 15.943 70.5519 16.099 70.646 16.255C69.3405 17.8582 68.0375 19.4614 66.732 21.067C66.7899 21.1558 66.8502 21.2446 66.9081 21.331C68.7638 20.1142 70.6219 18.8974 72.4776 17.683C72.5186 17.7166 72.5572 17.7502 72.5982 17.7838C71.3506 19.2214 70.1031 20.659 68.5997 22.3894C69.1837 22.3054 69.6663 22.3846 69.9052 22.1806C71.5389 20.779 73.1243 19.3198 74.7217 17.8726C74.8376 17.767 74.9027 17.5534 75.0282 17.5198C77.866 16.7278 79.4345 14.0998 81.9273 12.8255C82.4968 12.5351 83.1724 12.4583 83.7588 12.1967C84.2439 11.9807 84.6686 11.6351 85.1922 11.2991C85.2887 11.5391 85.3949 11.8007 85.4963 12.0479C86.2612 11.6447 86.406 10.3535 87.7477 10.4807C87.5546 11.0567 87.4292 11.4383 87.3495 11.6759C88.1772 11.8439 89.2486 11.7575 89.5744 12.2063C89.9484 12.7199 89.6613 13.7087 89.6613 14.563C90.2308 14.3734 90.8268 14.1742 91.4228 13.975C91.4783 14.0542 91.5314 14.1358 91.5869 14.215C91.3625 14.5174 91.1405 14.8198 90.9161 15.1222C90.9885 15.211 91.0609 15.2974 91.1357 15.3862C98.0468 10.2527 104.637 4.67755 112.011 0C112.009 2.31598 109.444 2.60637 108.759 4.25515C108.855 4.36795 108.952 4.48075 109.048 4.59595C109.878 4.09916 110.711 3.60476 111.637 3.05037C111.686 3.12717 111.855 3.40796 112.045 3.71996C113.469 2.72397 114.876 1.74238 116.283 0.760792C116.379 0.866391 116.476 0.97199 116.57 1.07519C116.01 1.44718 115.45 1.82158 114.647 2.35678C116.225 2.93997 115.831 3.45356 115.17 4.02476C114.318 4.75915 113.252 5.28234 113.162 6.68153C113.134 7.13272 112.4 7.53832 111.987 7.96552C112.077 8.08551 112.168 8.20551 112.258 8.32791C113.848 7.56232 115.438 6.79673 117.108 5.99514C117.077 6.23513 117.043 6.49913 117.014 6.72233C119.299 5.88714 120.025 7.36552 120.585 9.2231C121.056 8.9663 121.505 8.71911 121.956 8.46951C122.045 8.55111 122.132 8.63271 122.221 8.71671C121.859 9.2471 121.497 9.7751 121.123 10.3247C122.076 10.6991 122.403 11.7919 122.105 13.6031C122.472 13.5407 122.815 13.4831 123.155 13.4231C123.218 13.4975 123.283 13.5719 123.346 13.6439C121.997 15.1318 120.175 16.2694 119.514 18.2998C121.217 16.7806 123.17 15.6982 125.052 14.503C124.453 15.631 122.798 15.8062 122.74 17.4454C123.894 16.5838 125.049 15.7222 126.336 14.7622C126.7 15.2446 127.035 15.6934 127.373 16.1422C125.477 15.7126 125.423 17.2822 124.644 18.079C124.967 18.283 125.206 18.4342 125.747 18.7726C125.148 19.0942 124.625 19.3774 124.101 19.6606C124.207 19.7254 124.311 19.7902 124.417 19.8526C124.806 20.1022 125.561 20.467 125.525 20.5846C125.3 21.2926 124.924 21.9598 124.543 22.6102C124.284 23.0518 123.935 23.4382 123.602 23.8821C124.948 23.4478 126.131 23.0902 127.291 22.6798C127.617 22.5646 127.878 22.2742 128.189 22.099C128.816 21.739 129.482 21.439 130.088 21.0478C131.162 20.3542 132.214 19.6246 133.247 18.8734C133.394 18.7654 133.437 18.451 133.445 18.2302C133.486 17.251 134.108 16.9006 135.254 16.627C134.69 17.6566 134.251 18.4606 133.807 19.267C135.293 19.795 135.983 18.4486 137.129 17.767C136.818 18.5998 136.599 19.1878 136.278 20.0446C136.862 19.8022 137.134 19.6894 137.47 19.5502C137.571 20.7886 135.631 21.5014 136.775 22.9198C137.173 22.7062 137.612 22.471 138.186 22.1638C138.165 22.5838 138.15 22.8646 138.131 23.2198C138.968 23.0734 139.791 22.8886 140.621 22.8094C140.923 22.7806 141.396 22.915 141.529 23.1334C141.671 23.3661 141.55 23.8005 141.451 24.1173C141.384 24.3261 141.176 24.5205 140.983 24.6525C139.982 25.3413 139.818 26.3013 139.919 27.4269C139.948 27.7533 139.613 28.1325 139.395 28.4541C139.176 28.7757 138.891 29.0517 138.597 29.3925C139.629 29.0949 140.51 28.8405 141.741 28.4829C140.776 29.7357 140.03 30.7077 139.26 31.7061C139.798 32.1501 140.177 32.4597 140.597 32.8052C141.495 31.9773 142.407 31.1325 143.321 30.2877C143.408 30.3741 143.495 30.4581 143.582 30.5445L139.188 36.4868C139.224 36.5444 139.258 36.5996 139.294 36.6572C139.69 36.3092 140.085 35.9612 140.612 35.5004C140.764 35.5772 141.097 35.7452 141.386 35.8916C141.099 36.7484 140.846 37.5044 140.481 38.5916C141.307 38.1692 141.789 37.922 142.274 37.6748C142.347 37.7348 142.421 37.7924 142.494 37.8524C141.927 38.5604 141.357 39.266 140.79 39.974C140.93 40.1132 141.07 40.25 141.21 40.3892C142.342 39.4364 143.459 38.4644 144.615 37.5428C145.025 37.2164 145.534 37.0124 146 36.7532C145.71 37.2548 145.496 37.826 145.11 38.2412C144.576 38.8148 143.915 39.2684 143.437 39.6644C143.959 39.8876 144.625 39.9668 144.878 40.3292C145.339 40.9916 144.777 41.474 144.246 41.906C141.265 44.3323 138.3 46.7731 135.329 49.2091C135.467 49.2451 135.602 49.2835 135.739 49.3195C135.822 49.6171 136.06 50.0011 135.952 50.1955C135.727 50.6011 135.368 50.9755 134.979 51.2395C132.639 52.8378 131.316 55.3266 129.509 57.3882C129.239 57.6978 129.164 58.1778 128.99 58.605C127.757 58.7226 127.267 59.1426 126.7 60.8778C127.091 60.5394 127.436 60.081 127.89 59.8962C128.3 59.7306 128.833 59.8602 129.586 59.8602C129.062 60.5658 128.739 61.0025 128.413 61.4417C128.462 61.5185 128.51 61.5953 128.556 61.6721C129.255 61.2425 129.953 60.8106 130.795 60.2922C130.942 60.465 131.208 60.7745 131.514 61.1345C131.152 61.5425 130.831 61.9073 130.51 62.2697C130.573 62.3537 130.636 62.4377 130.699 62.5217C133.401 60.7578 136.104 58.9914 138.807 57.2274C138.903 57.345 138.997 57.4626 139.094 57.5778C138.305 58.257 137.518 58.9362 136.729 59.6154C136.772 59.7066 136.816 59.7954 136.859 59.8866C137.243 59.8338 137.627 59.7786 138.022 59.7234C137.675 60.8898 136.005 62.0033 134.815 61.9025C134.67 61.8905 134.504 61.9385 134.374 62.0081C133.462 62.4881 132.651 64.5113 132.74 65.6297C132.774 66.0593 132.373 66.5249 132.154 67.0121C132.73 66.7457 133.329 66.4697 134.272 66.0353C134.072 66.7841 133.966 67.1729 133.862 67.5617C133.753 67.9721 133.647 68.3825 133.507 68.9225H134.864C134.791 69.4889 134.736 69.9425 134.651 70.6072H136.992C136.746 70.9 136.437 71.2648 136.094 71.6728C136.343 71.8672 136.591 72.0592 136.958 72.3424C135.85 73.1056 134.825 73.8136 133.802 74.5216C133.84 74.5888 133.877 74.6536 133.915 74.7208C134.354 74.5312 134.796 74.3416 135.235 74.152C135.317 74.2576 135.397 74.3608 135.479 74.4664C133.592 76.1104 131.705 77.752 129.678 79.516C130.337 79.756 130.879 79.9527 131.541 80.1951C130.853 80.8383 130.197 81.4503 129.543 82.0623L129.649 82.2279C130.3 81.9135 130.954 81.6015 131.606 81.2871C131.698 81.3903 131.789 81.4911 131.881 81.5943C131.297 82.4607 130.32 82.9599 129.521 83.6199C128.688 84.3087 127.827 84.9591 126.978 85.6263C127.057 85.7319 127.139 85.8399 127.219 85.9455C128.556 84.9279 129.871 83.8791 131.246 82.9095C131.71 82.5831 132.318 82.4655 132.861 82.2495C132.52 82.7535 132.274 83.3703 131.823 83.7375C130.834 84.5463 129.741 85.2351 128.686 85.9623C128.269 86.2503 127.832 86.5167 127.405 86.7927C127.581 86.9943 127.757 87.1935 127.936 87.3951C129.673 86.0703 131.41 84.7431 133.148 83.4183L133.358 83.6151C133.194 83.8143 133.054 84.0447 132.861 84.2079C131.447 85.3911 129.702 86.3367 128.679 87.7887C127.407 89.5934 125.571 90.6014 123.983 91.919C122.46 93.1838 121.128 94.6094 119.692 95.9462C119.174 96.4286 118.517 96.7958 117.868 97.0958C117.007 97.4942 116.56 98.0005 117.05 99.0757C118.025 98.8933 119.053 98.7013 120.081 98.5117C120.346 98.4637 120.612 98.4133 120.88 98.3821C121.41 98.3221 121.944 98.2789 122.656 98.2094C122.665 98.3341 122.694 98.7277 122.721 99.0853C123.363 98.7253 124.012 98.2214 124.748 97.9814C125.566 97.715 126.454 97.499 126.78 98.8381C126.985 99.6781 127.805 99.5701 128.387 99.0613C128.86 99.2845 129.287 99.4837 129.777 99.7141C129.27 100.216 128.698 100.787 128.124 101.358C128.199 101.454 128.273 101.553 128.351 101.649C128.732 101.509 129.113 101.373 129.535 101.219C129.656 102.222 127.578 103.012 129.376 104.06C129.161 104.42 128.997 104.696 128.833 104.97C128.877 105.004 128.922 105.04 128.966 105.073C129.275 104.857 129.586 104.644 129.895 104.428C129.938 104.461 129.979 104.495 130.023 104.528C129.697 105.008 129.144 105.469 129.106 105.971C129.067 106.484 129.528 107.034 129.738 107.497C130.1 107.665 130.551 107.737 130.699 107.987C130.802 108.164 130.53 108.599 130.368 108.887C129.871 109.768 129.309 110.543 129.967 111.685C130.363 112.372 129.929 113.142 129.14 113.569C128.271 114.04 127.216 114.412 127.762 115.789C127.817 115.928 127.588 116.212 127.443 116.392C126.813 117.169 126.167 117.93 125.527 118.698C125.592 118.777 125.66 118.856 125.725 118.938C126.094 118.876 126.464 118.811 126.924 118.732C127.438 120.505 128.351 119.336 129.284 119.104C125.267 123.02 121.246 126.939 117.098 130.981C116.768 130.393 116.604 130.103 116.437 129.81C113.923 131.307 111.177 132.455 109.526 135.169C109.06 134.027 108.689 133.957 107.9 134.612C106.58 135.709 105.216 136.755 103.925 137.886C103.57 138.198 103.443 138.75 103.158 139.155C102.842 139.604 102.468 140.012 102.118 140.439C101.753 140.091 101.389 139.746 101.025 139.398C101.075 139.342 101.128 139.287 101.179 139.232C101.107 139.215 100.998 139.16 100.964 139.191C100.366 139.722 99.8373 140.6 99.1713 140.718C98.3219 140.866 97.5376 140.775 97.0478 141.666C96.9875 141.776 96.57 141.69 96.3166 141.697C96.3842 141.418 96.3552 141.022 96.5338 140.878C97.1853 140.35 97.9237 139.928 98.597 139.422C99.2003 138.968 99.7577 138.457 100.19 137.749C99.6033 138.131 99.0145 138.515 98.4281 138.896C98.3364 138.841 98.2471 138.788 98.1554 138.733C98.6815 137.66 99.2051 136.59 99.7722 135.433C98.5053 134.66 98.0565 136.203 97.1491 136.374C97.1467 136.268 97.1443 136.163 97.1419 136.057C96.7558 136.009 96.3625 135.894 95.9884 135.935C95.7375 135.961 95.5299 136.285 95.2717 136.347C94.9074 136.434 94.514 136.398 94.1328 136.415C94.2944 136.052 94.3692 135.608 94.6299 135.339C95.5227 134.42 96.4783 133.566 97.5376 132.565C97.1129 132.33 96.7292 132.116 96.4107 131.939C94.8929 132.867 93.4764 133.736 91.9006 134.701C91.0005 134.276 89.8012 134.547 88.7226 135.431C87.6922 136.273 86.5556 136.991 85.4649 137.761C85.3853 137.655 85.3056 137.55 85.226 137.444C85.9716 136.827 86.7149 136.213 87.4605 135.596C87.4292 135.493 87.3954 135.392 87.364 135.289C86.324 135.536 85.2815 135.786 84.3114 136.016C84.4224 135.815 84.642 135.414 84.864 135.011C84.7554 134.903 84.6493 134.795 84.5407 134.684L79.7 138.971C79.589 138.858 79.478 138.745 79.3694 138.632C80.2695 137.977 81.1696 137.319 82.0672 136.664L81.5967 136.11C81.1551 136.367 80.6701 136.568 80.284 136.887C79.5407 137.502 78.8795 138.109 77.7623 138.03C77.2531 137.994 76.6546 138.438 76.1889 138.788C75.4529 139.34 74.7628 139.962 74.1209 140.622C73.8434 140.907 73.7348 141.356 73.4669 141.898C71.382 142.146 69.6204 143.343 68.2281 145.201C67.994 145.513 67.5355 145.7 67.1422 145.846C66.7223 146.002 66.2566 146.043 65.6943 146.158C65.6533 146.017 65.564 145.71 65.4048 145.167C63.5636 146.475 61.7875 147.74 60.0139 149C59.4975 147.018 60.9622 146.228 62.1229 145.263C62.3087 145.11 62.5259 144.97 62.6514 144.776C62.7648 144.603 62.7721 144.363 62.8251 144.154C62.5814 144.171 62.2701 144.099 62.1085 144.222C61.2204 144.894 60.3686 145.614 59.4734 146.343C59.15 145.131 58.6746 145.638 58.1823 146.07C57.7094 146.487 57.2099 146.874 56.4449 147.505V145.057C54.6568 146.451 53.11 147.658 51.5608 148.866C51.4836 148.779 51.4063 148.693 51.3291 148.609C51.8576 148.172 52.415 147.762 52.9073 147.284C53.1631 147.034 53.3706 146.684 53.4575 146.346C53.4888 146.218 53.0038 145.803 52.9507 145.837C52.6201 146.038 52.2702 146.286 52.0651 146.605C51.7225 147.142 50.3325 147.481 49.3769 147.032C50.7041 146.106 51.8938 145.143 53.2089 144.397C54.2803 143.79 53.3055 143.046 53.6626 142.438C53.5757 142.362 53.4864 142.285 53.3996 142.208C52.2461 143.156 51.0926 144.104 49.9416 145.052C50.1926 143.466 51.8672 142.854 52.3378 141.493C52.2244 141.406 52.1086 141.32 51.9951 141.234C51.6283 141.442 51.276 141.687 50.8899 141.85C50.0671 142.198 49.2563 142.501 49.0729 141.123C49.0439 140.902 48.5806 140.737 48.2572 140.502C48.7133 140.019 49.2707 139.429 49.8282 138.839L49.6038 138.623C48.6433 139.434 47.6829 140.245 46.7225 141.058C46.5898 140.984 46.4571 140.91 46.3243 140.835C46.4643 140.499 46.5367 140.11 46.7587 139.839C47.4609 138.975 48.2524 138.179 48.9257 137.293C49.0463 137.135 48.8509 136.487 48.6554 136.403C48.3803 136.285 47.9677 136.484 47.3861 136.592C47.2365 136.573 46.7563 136.369 46.3798 136.489C45.1468 136.883 43.9764 137.377 43.6941 138.913C43.6337 139.239 42.8664 139.775 42.695 139.688C41.2182 138.939 40.4605 140.074 39.6183 140.809C38.6941 141.615 37.8495 140.95 37.0532 140.984C36.3679 141.474 35.7043 141.949 35.0407 142.424C35.072 142.513 35.1058 142.604 35.1372 142.693C34.8525 142.626 34.5677 142.556 34.1068 142.448C34.2612 142.825 34.3626 143.065 34.4688 143.326C33.8751 143.682 33.4335 143.826 32.9461 143.108C32.7144 142.765 32.0726 142.496 31.6382 142.525C30.311 142.614 30.282 142.635 30.6078 141.334C30.6368 141.222 30.6126 141.097 30.6126 140.914C29.4157 140.888 28.2767 140.905 27.4249 142.004C27.2825 142.189 26.6913 142.03 26.2763 142.03C26.9326 141.159 27.4611 140.461 27.7845 140.034C27.4515 139.299 27.2319 138.814 26.9568 138.21C26.631 138.332 26.1146 138.522 25.2628 138.839C25.632 138.251 25.8154 137.96 26.0784 137.545C24.5702 136.952 23.8197 138.601 22.548 138.582C22.2367 136.215 24.8332 135.829 25.603 134.118H22.9896C23.4047 132.98 23.7498 132.032 24.1865 130.827C23.5422 131.175 23.0403 131.447 22.5408 131.718C22.4467 131.672 22.3502 131.624 22.2561 131.579H22.2488Z" fill="#5F6367"/>
</svg>
