<svg width="128" height="125" viewBox="0 0 128 125" fill="none" xmlns="http://www.w3.org/2000/svg">
<path d="M42.8729 100.965C36.8915 101.373 30.9067 101.761 24.9253 102.198C23.6118 102.295 22.2741 102.413 21.0055 102.749C18.3405 103.456 16.4479 102.129 14.7448 100.435C14.438 100.13 14.5138 99.0143 14.8344 98.5986C15.3722 97.8988 16.2445 97.4588 17.0684 96.8387C16.2341 95.3699 15.3033 94.1851 13.3175 94.7913C12.9452 94.9057 12.466 94.9784 12.1282 94.8398C11.4697 94.5731 10.8767 94.1435 10.2562 93.7832C10.7871 93.3225 11.2594 92.5811 11.8592 92.4529C14.5069 91.8952 16.503 90.7173 17.5131 88.0013C17.7717 87.305 18.8094 86.8547 19.561 86.4147C19.9884 86.1618 20.5607 86.1514 21.0675 86.0302C21.033 85.8708 20.9986 85.7149 20.9641 85.5555C19.8816 85.7703 18.7887 85.9436 17.72 86.2068C14.8793 86.9066 12.0454 87.6411 9.21157 88.3789C8.23593 88.6318 7.48438 88.4205 7.12239 87.4193C6.40531 85.4378 5.66065 83.4631 5.07113 81.4434C4.92978 80.9584 5.34348 80.3106 5.56067 79.5138C5.00562 79.5831 4.47816 79.7217 3.95759 79.6974C3.38875 79.6697 2.82681 79.4896 2.26142 79.3787C2.39932 78.7378 2.53032 78.0935 2.67167 77.4526C2.77854 76.9814 2.87162 76.5068 3.01987 76.0495C3.17845 75.5645 3.26809 74.8717 3.61628 74.6673C4.44024 74.1788 5.37795 73.822 6.31567 73.6003C8.94267 72.9802 11.5903 72.464 14.2277 71.882C14.7758 71.7607 15.2998 71.5321 15.8377 71.3554C15.8032 71.1718 15.7722 70.9882 15.7377 70.8046C15.1171 70.8462 14.4931 70.86 13.876 70.9362C10.9767 71.3 8.08424 71.7365 5.17455 72.0032C4.59193 72.0587 3.95414 71.494 3.34393 71.2134C3.84037 70.8081 4.2782 70.1776 4.84015 70.0425C6.72937 69.5782 8.67031 69.3392 10.5733 68.9235C14.0415 68.1648 17.4959 67.3542 20.9503 66.5331C21.333 66.4431 21.6674 66.1382 22.0259 65.9303C22.0052 65.7745 21.9811 65.6186 21.9604 65.4661C21.5088 65.3899 21.0572 65.2548 20.6055 65.2479C18.537 65.2236 16.4617 65.1162 14.4035 65.2687C12.5625 65.4038 11.8661 64.7109 12.0695 62.9233C12.104 62.6081 11.9765 62.2755 11.9592 62.1751H1.75464L1.53055 61.7663C2.09939 61.458 2.63375 61.0041 3.23706 60.8656C5.92611 60.2593 8.63239 59.7501 11.3318 59.1923C11.7903 59.0988 12.235 58.9325 12.6866 58.8008L12.6074 58.2881C11.5559 58.3713 10.5044 58.4544 9.25294 58.5514C9.41497 57.8793 9.52529 57.4324 9.66319 56.8539C6.4915 57.3874 3.41978 57.9071 0.375637 58.4198C-0.558634 54.5051 0.217053 52.773 3.07158 51.3492C2.78544 50.7013 2.16834 49.96 2.33382 49.5096C2.54067 48.9415 3.33014 48.4114 3.97482 48.2105C5.3883 47.7636 6.86727 47.535 8.28075 46.9356C7.61883 47.0257 6.95346 47.2093 6.29499 47.1851C5.55722 47.1574 4.44024 47.8814 4.23683 46.4506C4.05412 45.1896 4.73672 44.6042 5.93645 44.3028C7.41542 43.9356 8.84269 43.3674 10.3561 42.8651C10.0838 41.902 9.43221 40.8524 9.71491 40.2426C10.001 39.6295 11.2146 39.4528 12.235 38.9886C11.5007 36.8961 12.0833 35.3234 14.893 35.0947C14.5207 34.6963 14.3828 34.537 14.2346 34.388C13.6554 33.8129 13.0693 33.2413 12.4867 32.6662C13.1383 32.0738 13.7312 31.3845 14.4621 30.9202C15.0723 30.5322 15.8377 30.3486 16.5582 30.1789C17.5407 29.9502 17.8027 29.2747 17.4304 28.523C17.2684 28.1938 16.4444 27.9479 16.0066 28.0483C14.7276 28.3428 13.5106 28.9387 12.2281 29.1985C11.5662 29.3301 10.8078 28.9941 10.0941 28.8694C10.5182 28.3982 10.8733 27.8266 11.3835 27.4802C12.3453 26.822 13.3934 26.292 14.438 25.6926C13.4796 25.3947 12.7246 25.1626 11.973 24.9305C12.4281 24.1268 12.7901 23.2468 13.3624 22.5401C14.2139 21.4904 15.2171 20.5655 16.472 19.256C16.3617 18.0192 17.7958 16.2559 19.6437 16.0827C21.8604 15.8748 24.0737 15.6497 25.7596 15.4834C26.187 14.3852 26.256 13.3771 26.7731 13.0064C30.1206 10.6091 33.5647 8.34346 36.988 6.05357C37.2638 5.8665 37.6396 5.70021 37.9568 5.72446C42.7971 6.07782 46.7031 3.25096 51.0125 1.83753C56.8249 -0.0678294 62.6719 -0.57708 68.6636 0.7151C69.3911 0.870993 70.1357 0.964529 70.8769 1.01303C73.3488 1.17585 75.5828 1.47031 77.7443 3.23364C79.0785 4.32142 81.5573 4.13089 83.5361 4.25907C86.2562 4.43575 88.3489 5.55125 89.8554 7.79957C90.0898 8.14947 90.1691 8.59982 90.3208 9.00168C89.9209 9.14718 89.5279 9.38622 89.1142 9.42779C86.3976 9.7084 83.6775 9.9405 80.9609 10.1969C80.7368 10.2176 80.3541 10.2315 80.3162 10.3424C79.4371 12.951 76.9549 11.8597 75.2656 12.5768C74.9795 12.6981 74.6726 12.7743 74.3761 12.8678C74.3865 13.0722 74.3934 13.2801 74.4037 13.4845C76.2895 13.4845 78.1787 13.5849 80.0576 13.4671C85.7253 13.1103 91.3826 12.6426 97.0503 12.2962C97.7364 12.2546 98.5396 12.5318 99.1154 12.9233C99.4981 13.1831 99.8049 13.9695 99.698 14.4094C99.6118 14.7593 98.8672 15.1161 98.3811 15.1681C96.5918 15.3656 94.7853 15.4418 92.9857 15.563C92.9926 15.764 92.9995 15.9649 93.0064 16.1624C95.7817 16.1624 98.5638 16.2386 101.336 16.1381C103.39 16.0619 104.904 16.8344 105.941 18.5597C106.638 19.7167 107.403 20.8773 107.81 22.1452C108.103 23.0459 107.496 23.5621 106.376 23.7526C102.094 24.4871 97.8433 25.4051 93.5959 26.6349C94.5543 26.5344 95.5127 26.4652 96.4643 26.3301C98.5052 26.0425 100.539 25.6753 102.587 25.4605C102.997 25.4189 103.463 25.9178 103.904 26.1707C103.507 26.4998 103.156 27.0264 102.711 27.1268C100.174 27.7019 97.6157 28.1765 95.0646 28.6858C95.068 28.8659 95.0715 29.0426 95.0749 29.2227C95.9195 29.292 96.7883 29.5241 97.6088 29.4063C100.563 28.9872 103.501 28.4537 106.448 27.9617C107.127 27.8474 107.803 27.6846 108.489 27.6396C111.175 27.4733 113.912 26.7354 116.18 29.1742C116.939 29.9918 118.321 30.2239 119.414 30.7297C121.962 31.9145 122.069 32.8256 119.638 34.6998C120.807 34.8314 121.79 34.9146 122.762 35.0566C123.975 35.2367 124.606 35.8153 124.31 37.1941C124.227 37.5821 124.592 38.1086 124.837 38.5209C125.251 39.2241 125.947 39.8304 126.147 40.5787C126.854 43.215 126.792 43.2323 124.292 44.0291C124.451 44.1469 124.565 44.2889 124.703 44.3236C127.506 45.0095 127.871 45.5673 127.995 48.3941C128.057 49.7729 127.537 50.4865 126.344 50.975C123.534 52.1321 120.738 53.3203 117.959 54.5536C117.391 54.8065 116.929 55.3019 116.567 56.071C117.728 56.071 118.901 55.9948 120.052 56.1056C120.604 56.1576 121.3 56.4382 121.586 56.8539C121.759 57.1068 121.403 57.9348 121.066 58.302C119.556 59.9406 118.135 61.742 115.563 62.2305C115.912 62.4799 116.212 62.6046 116.367 62.8298C116.756 63.398 117.325 64.0111 117.328 64.607C117.328 64.9326 116.367 65.3761 115.774 65.5701C114.888 65.8576 113.947 65.965 113.061 66.2664C115.632 66.9477 116.937 68.1232 116.973 69.793C117.987 69.696 118.99 69.6337 119.983 69.4951C121.362 69.3011 122.634 69.1937 122.334 71.2896C122.707 71.3589 123.013 71.345 123.244 71.4697C123.868 71.8023 124.465 72.1903 125.072 72.5575C124.427 73.1742 123.858 74.1962 123.124 74.3347C120.028 74.9271 116.88 75.2631 113.753 75.6789C109.961 76.1812 106.169 76.6697 102.391 77.4353C103.749 77.4353 105.111 77.3833 106.465 77.4526C107.541 77.5045 108.758 77.0195 109.603 78.2598C109.754 78.4849 110.471 78.3949 110.913 78.336C115.281 77.7505 119.649 77.1408 124.017 76.5345C124.358 76.486 124.71 76.3613 125.034 76.4098C125.989 76.5519 126.933 76.7632 127.881 76.9468C127.24 78.09 126.875 79.7702 125.906 80.269C123.799 81.3499 121.386 81.8384 119.094 82.5555C117.904 82.9296 116.705 83.276 115.512 83.6363C115.546 83.7749 115.581 83.9135 115.612 84.0486C118.366 83.4839 121.121 82.8984 123.879 82.358C125.613 82.0185 126.295 82.5763 125.892 83.9862C125.796 84.3188 125.409 84.5544 125.203 84.8696C124.972 85.223 124.761 85.5937 124.592 85.9817C123.875 87.6515 123.179 89.3282 122.365 91.2612C123.165 92.3906 122.865 93.1493 120.921 93.5269C117.659 94.1574 114.395 94.7671 111.537 95.3075C110.861 96.6309 110.347 97.639 109.751 98.8099C109.575 98.5743 109.647 98.7441 109.703 98.7372C110.899 98.6055 111.94 98.4947 111.992 100.279C112.061 102.669 111.585 103.615 109.634 104.041C108.744 104.235 107.834 104.346 106.886 104.498C107.162 105.056 107.4 105.534 107.638 106.012C107.076 106.255 106.531 106.632 105.945 106.722C103.904 107.031 101.842 107.225 99.7945 107.491C98.9671 107.599 98.1466 107.772 97.2606 108.153C99.4636 108.403 101.446 108.926 102.708 111.468C99.8256 112.335 96.9814 113.187 93.7132 114.167C94.9094 114.496 95.7161 114.714 96.5229 114.936C96.5746 115.102 96.6297 115.272 96.6814 115.439C93.6304 117.302 90.6242 119.246 87.518 121.009C84.2636 122.856 80.7161 123.67 76.9652 123.787C75.5759 123.832 74.2003 124.38 72.8179 124.695C72.3145 124.809 71.8078 125.003 71.3044 125C66.3366 124.948 61.3653 124.813 56.3974 124.809C54.5841 124.809 53.7842 123.361 52.6121 122.454C52.5156 122.377 52.9293 121.362 53.305 120.992C54.1807 120.133 55.2287 119.447 56.101 118.584C56.3974 118.293 56.3768 117.676 56.5009 117.209C56.0251 117.139 55.5321 116.945 55.0771 117.015C50.5367 117.694 46.0067 118.456 41.4629 119.118C38.5256 119.547 35.5677 119.852 32.4477 120.233C32.5718 118.601 31.8099 117.933 30.424 117.718C29.9 117.638 29.3656 117.233 28.9588 116.848C27.5005 115.47 27.866 113.956 29.7449 113.419C30.6205 113.169 31.5065 112.951 32.3822 112.522C31.6996 112.522 31.017 112.556 30.3378 112.515C29.1347 112.442 28.1521 112.089 28.2797 110.575C28.3762 109.428 27.6522 109.424 26.8317 109.48C25.7251 109.553 24.4771 109.951 24.1978 108.153C24.1599 107.904 23.1291 107.637 22.5706 107.668C20.8538 107.762 19.1438 108.004 17.4304 108.17C16.4134 108.267 15.3412 108.292 15.2171 106.92C15.0896 105.482 16.3755 105.666 17.1649 105.548C23.9806 104.547 30.8101 103.629 37.6293 102.655C39.3806 102.406 41.1181 102.039 42.8591 101.727C42.8591 101.474 42.8591 101.225 42.8591 100.972L42.8729 100.965Z" fill="#5F6367"/>
</svg>
