<svg width="150" height="114" viewBox="0 0 150 114" fill="none" xmlns="http://www.w3.org/2000/svg">
<path d="M75.7899 20.0078C79.817 20.1732 83.8441 20.4354 87.8738 20.4888C102.555 20.6797 117.233 20.8732 131.914 20.8833C134.465 20.8833 136.192 21.7614 137.162 23.8561C138.051 25.7701 139.297 26.0246 141.182 25.8185C144.948 25.4036 146.383 26.2664 148.074 29.6516C149.259 32.0262 150.107 34.5205 149.989 37.2184C149.951 38.0914 149.734 38.9797 149.461 39.8145C149.175 40.6824 148.531 41.1202 147.533 41.1762C131.051 42.0925 114.57 43.0647 98.0885 43.9607C91.4617 44.3195 84.8273 44.5206 78.198 44.7955C78.198 44.9176 78.198 45.0398 78.198 45.1594C80.8768 45.1594 83.5581 45.106 86.2369 45.1696C99.3066 45.4801 112.363 45.2867 125.395 44.205C129.167 43.8919 132.933 43.4745 136.682 42.9528C138.682 42.6753 140.122 43.4007 141.199 44.9075C143.276 47.8115 144.44 51.0541 144.34 54.6607C144.261 57.5266 143.521 58.3996 140.722 58.6541C133.523 59.3056 126.314 59.8681 119.11 60.4612C118.393 60.5197 117.67 60.5426 116.935 60.7615C117.923 60.8531 118.911 60.9422 119.899 61.0364C125.74 61.604 131.582 62.169 137.42 62.7569C137.913 62.8078 138.472 62.9275 138.855 63.2125C143.291 66.5009 146.417 70.5834 146.634 76.3534C146.662 77.0686 146.58 77.7965 146.452 78.5041C146.197 79.9192 145.436 80.7896 143.922 81.1358C134.478 83.2814 124.905 84.6125 115.244 84.862C101.85 85.2081 88.4433 85.1368 75.0416 85.2412C74.2807 85.2463 73.5171 85.2412 72.7459 85.4754C75.2996 85.6128 77.8532 85.7757 80.4069 85.8851C92.1078 86.3865 103.806 86.468 115.489 85.5186C119.302 85.2081 123.099 84.7016 126.899 84.2613C128.222 84.1086 129.445 84.3911 130.239 85.4219C131.238 86.7199 132.106 88.1351 132.867 89.5884C133.258 90.3341 133.544 90.5759 134.391 90.329C136.999 89.5706 138.214 89.9905 139.695 92.2787C141.843 95.5951 143.189 99.1558 142.481 103.21C142.246 104.549 141.526 105.356 140.124 105.692C130.099 108.1 119.935 109.65 109.677 110.627C91.0148 112.406 72.2939 112.465 53.573 112.762C45.2838 112.895 37.0048 113.592 28.7156 113.926C24.211 114.109 19.7267 113.992 15.2476 113.142C9.35119 112.022 6.73114 108.133 5.83735 102.724C5.58454 101.192 5.77607 99.5147 6.1157 97.9825C6.44257 96.5139 7.62236 95.9692 8.99113 96.5393C14.6117 98.8733 20.4877 98.5246 26.356 98.3108C28.6084 98.2293 30.8556 98.041 33.1233 97.6618C31.6166 97.532 30.1125 97.3843 28.6058 97.2749C25.6359 97.0585 22.666 96.804 19.691 96.6869C18.3222 96.6335 17.3569 96.0583 16.5347 95.0606C14.4738 92.5612 13.3298 89.6877 12.9927 86.4883C12.9289 85.8749 12.9289 85.3863 12.0887 85.2437C9.97174 84.89 7.73983 84.7932 6.23828 82.8614C4.28217 80.3468 3.05131 77.5394 2.86489 74.3656C2.78828 73.0828 2.96448 71.7415 3.27347 70.4892C3.58502 69.2319 4.42773 68.8603 5.71988 69.0945C7.25464 69.3719 8.78428 69.6748 10.3701 69.7384C8.99879 69.3159 7.63513 68.8679 6.25615 68.476C4.75205 68.0484 3.57481 67.1728 2.72699 65.9028C0.622771 62.7493 -0.329746 59.2878 0.101823 55.5108C0.390387 52.9783 1.3046 52.4056 3.77399 53.1106C5.18617 53.5153 6.59579 53.9353 8.06159 54.3629C7.46659 52.4514 6.79242 50.7232 6.41448 48.9365C6.1489 47.6766 6.14379 46.32 6.27403 45.0322C6.41193 43.6629 7.0197 42.4768 8.71533 42.3699C8.16119 40.7868 7.45127 39.3233 7.16526 37.7835C6.85882 36.1469 6.76178 34.4162 6.92521 32.7618C7.10397 30.9191 8.00031 30.3337 9.88746 30.3235C15.3778 30.2955 20.8657 30.2828 26.356 30.2624C26.8591 30.2624 27.3596 30.2624 27.8755 29.9901C25.9832 29.8246 24.0935 29.6337 22.2012 29.5014C20.2068 29.3614 18.2047 29.1501 16.2129 29.2011C14.364 29.2494 13.1613 28.4171 12.1526 27.0376C10.222 24.3932 9.15201 21.4433 8.96814 18.1854C8.92729 17.4753 9.00134 16.7372 9.14946 16.0398C9.56315 14.1131 10.2833 13.5354 12.2649 13.655C16.5959 13.9171 20.9218 14.2429 25.2503 14.5407C25.618 14.5662 25.9883 14.584 26.3944 14.6094C26.4607 13.5506 26.4531 12.5784 26.5935 11.6265C26.8719 9.71248 27.4745 8.99473 29.3719 8.68676C34.9951 7.77813 40.6131 6.79823 46.267 6.1263C62.212 4.23267 78.2644 3.95015 94.2861 3.21714C106.058 2.6801 117.816 1.88345 129.478 0.0763623C130.888 -0.142525 132.159 0.0763623 133.092 1.16316C136.023 4.57118 137.458 8.5086 136.848 13.0136C136.577 15.0218 135.913 15.4366 133.919 15.7293C119.2 17.8749 104.368 18.5749 89.526 19.117C85.3176 19.2722 81.1117 19.5115 76.9033 19.7176C76.5304 19.7355 76.1602 19.794 75.7873 19.8347C75.7873 19.8907 75.7899 19.9467 75.7924 20.0053L75.7899 20.0078ZM75.726 60.2957C60.1078 59.5653 44.4896 58.8322 28.8714 58.1018C28.8663 58.2214 28.8612 58.3436 28.8561 58.4632C44.4028 60.4892 60.0338 60.6444 75.726 60.2957Z" fill="#5F6367"/>
</svg>
