<svg width="147" height="132" viewBox="0 0 147 132" fill="none" xmlns="http://www.w3.org/2000/svg">
<path d="M24.2003 131.454C25.3652 124.304 26.3069 117.685 27.5904 111.128C28.0228 108.917 27.4718 107.815 25.721 106.559C12.9072 97.3933 3.75545 85.57 0.902513 69.7428C-2.29222 52.0044 3.11371 36.6376 15.23 23.6773C28.8669 9.09877 46.2007 1.9211 65.7458 0.344659C87.9135 -1.44802 108.414 3.63704 125.657 18.3133C154.975 43.2712 153.35 82.9961 122.142 105.617C101.592 120.517 78.5874 123.97 54.0968 118.933C51.3137 118.361 49.1025 118.571 46.6122 119.917C39.4067 123.802 32.0616 127.436 24.2003 131.454Z" fill="#5F6367"/>
</svg>
