<svg width="128" height="133" viewBox="0 0 128 133" fill="none" xmlns="http://www.w3.org/2000/svg">
<path d="M63.7871 0C68.7383 0 72.7519 29.6572 72.752 66.2412C72.752 102.825 68.7383 132.482 63.7871 132.482C58.8359 132.482 54.8223 102.825 54.8223 66.2412C54.8223 29.6575 58.836 0.000563632 63.7871 0ZM44.9355 4.26074C49.4282 4.2619 53.0703 32.0112 53.0703 66.2412C53.0703 100.471 49.4282 128.221 44.9355 128.222C40.4428 128.222 36.8008 100.472 36.8008 66.2412C36.8008 32.0105 40.4428 4.26074 44.9355 4.26074ZM82.6387 4.26074C87.1314 4.26074 90.7734 32.0105 90.7734 66.2412C90.7734 100.472 87.1314 128.221 82.6387 128.221C78.146 128.22 74.5039 100.471 74.5039 66.2412C74.5039 32.0108 78.146 4.26127 82.6387 4.26074ZM28.2764 11.8799C31.7708 11.8799 34.6035 36.218 34.6035 66.2412C34.6035 96.2644 31.7707 120.603 28.2764 120.603C24.782 120.603 21.9492 96.2643 21.9492 66.2412C21.9492 36.2181 24.782 11.8799 28.2764 11.8799ZM99.2959 11.8789C102.79 11.8789 105.623 36.218 105.623 66.2412C105.623 96.2643 102.79 120.603 99.2959 120.603C95.8015 120.602 92.9688 96.2643 92.9688 66.2412C92.9688 36.2181 95.8015 11.879 99.2959 11.8789ZM13.6865 25.3086C15.7546 25.3086 17.4316 43.9237 17.4316 66.8867C17.4316 89.8498 15.7546 108.465 13.6865 108.465C11.6186 108.462 9.94238 89.848 9.94238 66.8867C9.94239 43.9255 11.6186 25.3115 13.6865 25.3086ZM113.89 25.3086C115.958 25.3115 117.634 43.9255 117.634 66.8867C117.634 89.848 115.958 108.462 113.89 108.465C111.822 108.465 110.145 89.8498 110.145 66.8867C110.145 43.9237 111.822 25.3086 113.89 25.3086ZM2.19531 46.2275C3.40764 46.2275 4.3906 55.4767 4.39062 66.8867C4.39062 78.297 3.40765 87.5469 2.19531 87.5469C0.98306 87.5459 0 78.2964 0 66.8867C2.17951e-05 55.4772 0.983073 46.2285 2.19531 46.2275ZM125.381 46.2275C126.593 46.2285 127.576 55.4772 127.576 66.8867C127.576 78.2964 126.593 87.5459 125.381 87.5469C124.169 87.5469 123.186 78.297 123.186 66.8867C123.186 55.4767 124.169 46.2275 125.381 46.2275Z" fill="#5F6367"/>
</svg>
