<svg width="124" height="126" viewBox="0 0 124 126" fill="none" xmlns="http://www.w3.org/2000/svg">
<path d="M77.153 46.448C77.153 49.0108 77.1478 51.328 77.1581 53.6469C77.1598 54.1039 77.1924 54.5625 77.2541 55.016C77.4204 56.2287 78.0511 57.1339 79.2441 57.4551C80.3651 57.7575 81.3987 57.3383 82.0655 56.4434C82.5934 55.7323 83.2207 54.815 83.1882 54.0163C83.0459 50.6237 84.2972 47.4958 84.7874 44.2338C85.5484 39.1717 85.2708 34.1559 84.2235 29.1402C83.2619 24.5332 81.1365 20.4347 79.131 16.2624C78.3288 14.591 77.8934 12.7977 78.4762 10.9374C78.9922 9.29186 80.2606 8.38662 81.9866 8.2784C84.4035 8.12552 86.5957 8.89335 88.7383 9.88104C92.3464 11.5455 95.6391 13.7116 98.5171 16.4393C101.493 19.2598 102.946 22.9083 103.647 26.8848C104.724 33.0033 103.507 38.8247 100.985 44.3506C99.1735 48.3186 96.947 52.0975 94.8798 55.947C93.3372 58.8207 92.163 61.7855 91.9745 65.1042C91.8099 67.9968 93.6165 68.2768 95.706 67.7185C96.4927 67.509 97.2315 66.9438 97.8777 66.4028C100.872 63.9052 102.936 60.6845 104.755 57.2885C107.655 51.8708 109.561 46.1182 110.548 40.0494C110.721 38.9879 111.033 37.9246 111.445 36.93C112.127 35.2793 113.304 34.9856 114.484 36.3014C115.98 37.9744 117.428 39.7368 118.601 41.6452C120.911 45.4087 122.147 49.612 123.112 53.9029C124.007 57.8846 124.273 61.8972 123.692 65.9269C122.631 73.2908 119.562 79.5794 113.477 84.1039C108.543 87.7747 102.979 89.3481 96.8664 88.5425C94.9055 88.2848 93.0149 87.5273 91.0763 87.0601C88.9492 86.5482 87.2025 87.3006 86.63 89.0664C86.3558 89.9098 86.3832 90.8666 86.3592 91.7735C86.3369 92.6582 86.4466 93.5445 86.4586 94.4309C86.5477 100.89 84.556 106.714 80.9273 111.974C77.5095 116.93 73.0409 120.674 67.4891 123.057C63.2982 124.855 58.905 125.537 54.3628 125.334C44.7057 124.905 36.6017 121.099 30.0179 114.039C29.2877 113.255 28.6364 112.336 28.1839 111.369C27.3783 109.645 28.249 108.276 30.1516 108.116C31.7697 107.98 33.3912 107.884 35.0144 107.826C42.2135 107.568 48.9566 105.622 55.3604 102.379C58.4063 100.838 61.2842 99.0309 63.8621 96.7979C64.7191 96.0558 65.4339 95.0613 65.967 94.0512C66.5875 92.8763 66.0098 91.3269 64.8871 90.5883C63.5193 89.6882 61.9989 89.4495 60.3911 89.6092C55.4272 90.1022 51.0426 92.2614 46.6443 94.3914C42.9197 96.195 39.2653 98.1807 35.4361 99.7283C31.1492 101.462 26.6429 102.384 21.9584 101.594C16.7939 100.723 13.0744 97.8251 10.721 93.2319C9.58115 91.004 8.75326 88.6112 7.85852 86.2631C7.48828 85.2909 8.05392 84.274 9.07036 84.2551C10.2925 84.231 11.5986 84.3444 12.7299 84.7687C16.326 86.1188 19.9667 87.2783 23.7942 87.6441C26.2881 87.8829 28.8078 87.9602 31.3138 87.9344C35.5389 87.8881 39.6373 86.9674 43.6944 85.8543C45.5851 85.3355 47.4928 84.8528 49.3337 84.1932C50.1016 83.9184 50.7975 83.3 51.3854 82.6988C52.2905 81.773 52.1396 80.5087 51.1249 79.7065C49.7777 78.6415 48.2333 78.3306 46.5432 78.4749C44.0544 78.6879 41.821 79.7443 39.4984 80.5121C34.5362 82.1526 29.4334 82.7555 24.233 82.5064C19.4524 82.278 14.7782 81.4191 10.2394 79.8611C5.78793 78.3324 2.87059 75.3762 1.82673 70.7263C1.08454 67.4231 0.664592 64.077 0.902847 60.6793C1.07768 58.1886 3.01286 56.4468 5.49139 56.3627C7.30487 56.3008 8.8681 56.9467 10.481 57.6441C13.6195 59.0011 16.7596 60.401 20.0061 61.4488C23.4959 62.574 27.0972 63.3658 30.6727 64.2024C32.5256 64.6352 34.4214 64.9221 36.3137 65.1437C37.6507 65.3 39.0099 65.1815 40.1875 64.3844C42.4843 62.8299 42.4072 59.8771 41.0017 57.8193C39.6715 55.8714 37.6969 54.9404 35.4498 54.6243C33.818 54.3941 32.1571 54.3684 30.5082 54.2533C28.3176 54.1004 26.1287 53.9338 23.9381 53.8032C21.2608 53.6435 18.5783 53.5473 15.9026 53.3652C13.1944 53.1814 10.5085 52.807 7.99736 51.6922C4.24356 50.026 2.09241 47.1213 1.53705 43.0537C1.30051 41.3257 1.06568 39.5908 0.976551 37.8507C0.616598 30.9352 0.299496 24.0196 0.00639147 17.1006C-0.0313179 16.1971 0.104093 15.2747 0.248074 14.3746C0.551464 12.4748 1.68789 11.3153 3.54765 10.8722C5.76736 10.3431 7.99221 9.83294 10.2119 9.30388C13.6778 8.47937 17.1247 7.5707 20.6094 6.83895C23.6193 6.20683 26.6549 5.60734 29.7094 5.29643C32.6782 4.99411 35.6863 5.0508 38.6774 5.0027C40.5937 4.97178 42.1861 5.85297 43.1751 7.40751C44.3475 9.25063 45.4496 11.1985 46.185 13.2443C47.7671 17.652 49.2463 22.1095 50.477 26.6254C51.4437 30.1742 51.9751 33.8433 52.6984 37.4608C53.1904 39.9189 53.1784 42.4869 54.2959 44.8092C54.9576 46.1851 55.8814 47.3137 57.2595 48.0283C59.4638 49.1705 62.1652 48.1605 63.6633 45.6664C64.9334 43.5484 64.9386 41.2432 64.3866 39.0051C62.3006 30.5539 58.7971 22.6884 54.1982 15.3159C52.5647 12.6981 50.7872 10.173 49.1417 7.56211C48.7269 6.9025 48.4733 6.10033 48.3121 5.32735C47.6865 2.3282 49.2789 0.218838 52.3316 0.0539367C55.6518 -0.126424 58.9445 0.146694 62.2012 0.856114C66.1127 1.70811 69.2563 3.70582 71.5274 7.02961C73.1866 9.45676 74.2271 12.1656 74.6504 15.0445C75.1732 18.6036 75.5469 22.192 75.8126 25.782C76.3285 32.7457 76.7244 39.7162 77.1547 46.4462L77.153 46.448Z" fill="#5F6367"/>
</svg>
