<svg width="130" height="144" viewBox="0 0 130 144" fill="none" xmlns="http://www.w3.org/2000/svg">
<path d="M45 8.547C54.7607 2.91167 59.641 0.0940108 65 0.0940108C70.359 0.0940108 75.2393 2.91168 85 8.547L109.952 22.953C119.713 28.5883 124.593 31.406 127.272 36.047C129.952 40.688 129.952 46.3233 129.952 57.594V86.406C129.952 97.6767 129.952 103.312 127.272 107.953C124.593 112.594 119.713 115.412 109.952 121.047L85 135.453C75.2393 141.088 70.359 143.906 65 143.906C59.641 143.906 54.7607 141.088 45 135.453L20.0481 121.047C10.2874 115.412 5.40708 112.594 2.72759 107.953C0.0480957 103.312 0.0480957 97.6767 0.0480957 86.406V57.594C0.0480957 46.3233 0.0480957 40.688 2.72759 36.047C5.40708 31.406 10.2874 28.5883 20.0481 22.953L45 8.547Z" fill="#5F6367"/>
</svg>
