<svg width="136" height="108" viewBox="0 0 136 108" fill="none" xmlns="http://www.w3.org/2000/svg">
<path d="M65.3711 24.2812C64.4513 24.8377 63.7419 25.2414 63.0605 25.6865C59.0113 28.3232 54.8762 30.8424 50.9541 33.6562C47.929 35.8274 45.651 38.8073 43.4844 41.8232C43.1416 42.3 42.9184 42.8649 42.6777 43.3213C46.3228 44.5318 49.9413 45.5479 53.416 46.9219C62.8793 50.6601 68.2865 57.7955 69.958 67.7041C72.488 82.7021 65.9727 95.5925 54.0566 102.556C41.6793 109.789 29.0151 109.328 16.9307 101.625C6.24089 94.8119 0.742705 84.7487 0.0839844 72.1309C-0.631405 58.4408 3.24568 46.013 10.8379 34.6826C17.0288 25.4439 24.9662 17.9307 34.1572 11.792C39.803 8.02213 45.7575 4.71086 51.5781 1.20215C52.0255 0.931894 52.5184 0.738704 53.2588 0.379883C57.3354 8.42404 61.315 16.278 65.3711 24.2812ZM129.845 23.8652C128.652 24.6283 127.58 25.2966 126.524 25.9893C122.8 28.4375 118.989 30.7695 115.387 33.3857C112.053 35.8067 109.567 39.057 107.298 42.8428C108.374 43.1833 109.296 43.4448 110.197 43.7627C113.043 44.771 115.948 45.6431 118.707 46.8535C127.828 50.8551 132.99 57.9542 134.58 67.7129C138.046 88.9836 121.746 104.904 104.961 106.446C94.8229 107.377 85.9788 104.486 78.3525 97.8682C76.027 95.8515 74.0052 93.4826 71.7773 91.207C77.6775 76.9357 76.4856 63.4277 68.1895 50.5576C77.0853 26.1413 95.3019 11.0112 118.006 0.0986328C121.96 8.03595 125.854 15.8575 129.845 23.8652Z" fill="#5F6367"/>
</svg>
