<svg viewBox="0 0 24 24" xmlns="http://www.w3.org/2000/svg">
<path fill-rule="evenodd" clip-rule="evenodd" d="M14.6646 2.32922C15.0351 2.14398 15.4856 2.29415 15.6708 2.66463L17.872 7.06695C19.2251 7.1709 20.0742 7.43631 20.6221 8.11401C21.5226 9.22798 21.1634 10.9044 20.4449 14.2572L20.0164 16.2572C19.5294 18.5297 19.2859 19.666 18.4608 20.333C17.6357 21 16.4737 21 14.1495 21H9.85053C7.52639 21 6.36432 21 5.53925 20.333C4.71418 19.666 4.47069 18.5297 3.98372 16.2572L3.55514 14.2572C2.83668 10.9044 2.47745 9.22798 3.378 8.11401C3.92585 7.43632 4.77494 7.17091 6.12802 7.06696L8.32918 2.66463C8.51442 2.29415 8.96493 2.14398 9.33541 2.32922C9.70589 2.51446 9.85606 2.96497 9.67082 3.33545L7.83589 7.00531C8.31911 7.00004 8.84638 7.00004 9.42196 7.00004H14.5781C15.1537 7.00004 15.6809 7.00004 16.1641 7.00531L14.3292 3.33545C14.1439 2.96497 14.2941 2.51446 14.6646 2.32922ZM7.25 12C7.25 11.5858 7.58579 11.25 8 11.25H16C16.4142 11.25 16.75 11.5858 16.75 12C16.75 12.4142 16.4142 12.75 16 12.75H8C7.58579 12.75 7.25 12.4142 7.25 12ZM10 14.25C9.58579 14.25 9.25 14.5858 9.25 15C9.25 15.4142 9.58579 15.75 10 15.75H14C14.4142 15.75 14.75 15.4142 14.75 15C14.75 14.5858 14.4142 14.25 14 14.25H10Z"/>
</svg>
