<svg viewBox="0 0 24 24" xmlns="http://www.w3.org/2000/svg">
<path d="M10 22.0002H14C17.7712 22.0002 19.6569 22.0002 20.8284 20.8286C22 19.6571 22 17.7714 22 14.0002C22 10.229 22 8.34335 20.8284 7.17178C20.4658 6.80918 20.0343 6.5588 19.4996 6.38591C19.5 6.55544 19.5 6.72881 19.5 6.90517V9.06327C19.5 9.09263 19.5003 9.12461 19.5006 9.15893C19.5035 9.49938 19.5085 10.07 19.264 10.592C19.0195 11.1141 18.578 11.4756 18.3145 11.6913C18.2882 11.7128 18.263 11.7334 18.2407 11.752L16.7342 13.0075C15.8734 13.7248 15.1241 14.3493 14.4505 14.7825C13.7245 15.2495 12.9391 15.5949 12 15.5949C11.0609 15.5949 10.2756 15.2495 9.54949 14.7825C8.87589 14.3493 8.12661 13.7248 7.26587 13.0075L5.75937 11.752C5.73681 11.7333 5.71207 11.713 5.68551 11.6913C5.42207 11.4756 4.98056 11.1141 4.73604 10.592C4.49152 10.07 4.49648 9.49938 4.49944 9.15893C4.49973 9.12462 4.50001 9.09262 4.50001 9.06327V6.90516C4.49999 6.72858 4.49998 6.55528 4.5004 6.38556C3.96577 6.55846 3.53442 6.80893 3.17157 7.17178C2 8.34335 2 10.229 2 14.0002C2 17.7714 2 19.6571 3.17157 20.8286C4.34314 22.0002 6.22877 22.0002 10 22.0002Z"/>
<path fill-rule="evenodd" clip-rule="evenodd" d="M6.71996 10.5997L8.15922 11.7991C9.99586 13.3296 10.9141 14.0949 12.0003 14.0949C13.0864 14.0949 14.0048 13.3296 15.8414 11.7991L17.2807 10.5997C17.6345 10.3048 17.8115 10.1574 17.9059 9.95578C18.0003 9.75421 18.0003 9.52389 18.0003 9.06325V7C18.0003 6.67937 18.0003 6.38054 17.9984 6.10169C17.9867 4.3306 17.9007 3.36486 17.2681 2.73223C16.5358 2 15.3573 2 13.0003 2H11.0003C8.6433 2 7.46479 2 6.73256 2.73223C6.09993 3.36486 6.01203 4.3306 6.00033 6.10169C5.99848 6.38054 6.00033 6.67937 6.00033 7V9.06325C6.00033 9.52389 6.00033 9.75421 6.09474 9.95578C6.18915 10.1574 6.36608 10.3048 6.71996 10.5997ZM9.25024 6C9.25024 5.58579 9.58603 5.25 10.0002 5.25H14.0002C14.4144 5.25 14.7502 5.58579 14.7502 6C14.7502 6.41421 14.4144 6.75 14.0002 6.75H10.0002C9.58603 6.75 9.25024 6.41421 9.25024 6ZM10.2502 9C10.2502 8.58579 10.586 8.25 11.0002 8.25H13.0002C13.4144 8.25 13.7502 8.58579 13.7502 9C13.7502 9.41421 13.4144 9.75 13.0002 9.75H11.0002C10.586 9.75 10.2502 9.41421 10.2502 9Z"/>
</svg>
