<?xml version="1.0" encoding="UTF-8"?>
<svg width="453px" height="446px" viewBox="0 0 453 446" version="1.1" xmlns="http://www.w3.org/2000/svg" xmlns:xlink="http://www.w3.org/1999/xlink">
    <!-- Generator: Sketch 50.2 (55047) - http://www.bohemiancoding.com/sketch -->
    <title>EA Logo</title>
    <desc>Created with Sketch.</desc>
    <defs>
        <linearGradient x1="50%" y1="0%" x2="50%" y2="100%" id="linearGradient-1">
            <stop stop-color="#2460FF" offset="0%"></stop>
            <stop stop-color="#B80AFF" offset="100%"></stop>
        </linearGradient>
        <path d="M86.5578125,142.765625 L145.339062,142.765625 L145.620312,142.90625 L145.83125,142.90625 C149.346893,142.90625 152.206239,144.710919 154.409375,148.320312 C155.159379,149.82032 155.534375,151.36718 155.534375,152.960938 C155.534375,156.851582 153.612519,159.851552 149.76875,161.960938 C148.456243,162.570316 147.143757,162.875 145.83125,162.875 L85.925,162.875 C83.1124859,162.875 80.6281357,161.58595 78.471875,159.007812 C77.0656179,157.132803 76.3625,155.210947 76.3625,153.242188 L76.3625,152.398438 C76.3625,149.304672 77.9093595,146.656261 81.003125,144.453125 C82.6906334,143.42187 84.3546792,142.90625 85.9953125,142.90625 L86.2765625,142.90625 L86.5578125,142.765625 Z M86.4171875,193.039062 L116.721875,193.179688 C118.73751,193.179688 120.893738,194.210927 123.190625,196.273438 C125.018759,198.382823 125.932812,200.679675 125.932812,203.164062 C125.932812,206.63283 124.315641,209.468739 121.08125,211.671875 C119.487492,212.60938 117.940632,213.078125 116.440625,213.078125 L85.784375,213.078125 C82.78436,213.078125 80.1828235,211.57814 77.9796875,208.578125 C76.9015571,206.890617 76.3625,205.203133 76.3625,203.515625 L76.3625,202.671875 C76.3625,199.484359 78.0265458,196.742199 81.3546875,194.445312 C83.0421959,193.601558 84.63593,193.179688 86.1359375,193.179688 L86.2765625,193.179688 C86.3703129,193.179688 86.4171875,193.132813 86.4171875,193.039062 Z M145.26875,193.179688 L145.760937,193.179688 C149.557831,193.179688 152.534364,195.148418 154.690625,199.085938 C155.253128,200.492195 155.534375,201.851556 155.534375,203.164062 C155.534375,207.101582 153.589082,210.124989 149.698437,212.234375 C148.29218,212.796878 147.050005,213.078125 145.971875,213.078125 L144.9875,213.078125 C141.799984,213.078125 139.081261,211.414079 136.83125,208.085938 C135.94062,206.398429 135.495312,204.734383 135.495312,203.09375 C135.495312,199.249981 137.417168,196.250011 141.260937,194.09375 C142.71407,193.484372 144.049994,193.179688 145.26875,193.179688 Z M86.5578125,243.101562 L145.339062,243.101562 C145.339062,243.195313 146.065618,243.312499 147.51875,243.453125 C149.956262,244.062503 151.807806,245.164055 153.073437,246.757812 C154.714071,248.679697 155.534375,250.8828 155.534375,253.367188 C155.534375,257.164081 153.612519,260.164051 149.76875,262.367188 C148.596869,262.789065 147.800002,263 147.378125,263 L84.51875,263 C82.8781167,263 80.9093864,261.898449 78.6125,259.695312 C77.1124925,257.679677 76.3625,255.640635 76.3625,253.578125 L76.3625,252.945312 C76.3625,249.476545 78.1202949,246.640636 81.6359375,244.4375 C82.6671926,243.828122 84.2609267,243.406251 86.4171875,243.171875 C86.4171875,243.125 86.464062,243.101562 86.5578125,243.101562 Z M246.01875,143.820312 L246.8625,143.820312 C250.518768,143.820312 253.542175,145.648419 255.932812,149.304688 C273.792277,184.78924 282.839061,202.906246 283.073437,203.65625 C283.729691,205.953136 284.057812,207.335935 284.057812,207.804688 C284.057812,212.023459 282.01877,215.328113 277.940625,217.71875 C276.206241,218.562504 274.495321,218.984375 272.807812,218.984375 C269.151544,218.984375 266.081262,217.320329 263.596875,213.992188 C263.315624,213.57031 258.323486,203.63291 248.620312,184.179688 C247.964059,183.523434 247.237504,183.195312 246.440625,183.195312 C244.940617,183.195312 243.72188,184.507799 242.784375,187.132812 L206.784375,258.359375 C205.378118,260.468761 203.315639,261.968746 200.596875,262.859375 C200.221873,262.953125 199.893751,263 199.6125,263 L195.885937,263 C194.245304,263 192.300011,262.062509 190.05,260.1875 C187.799989,257.890614 186.675,255.218765 186.675,252.171875 C186.675,250.062489 188.268734,246.078154 191.45625,240.21875 C191.45625,240.078124 203.878001,215.25806 228.721875,165.757812 C234.159402,154.789008 237.08906,149.000003 237.510937,148.390625 C239.995325,145.343735 242.831234,143.820312 246.01875,143.820312 Z M294.815625,241.554688 L295.729687,241.554688 C299.292205,241.554688 302.268738,243.33592 304.659375,246.898438 C305.69063,248.820322 306.20625,250.624992 306.20625,252.3125 C306.20625,256.390645 304.23752,259.624988 300.3,262.015625 C298.893743,262.671878 297.839066,263 297.135937,263 L293.479687,263 C291.792179,263 289.776574,261.96876 287.432812,259.90625 C285.417177,257.609364 284.409375,255.101576 284.409375,252.382812 C284.409375,248.914045 285.885923,245.984387 288.839062,243.59375 C290.854698,242.234368 292.846865,241.554688 294.815625,241.554688 Z" id="path-2"></path>
        <filter x="-17.6%" y="-21.2%" width="135.2%" height="167.4%" filterUnits="objectBoundingBox" id="filter-3">
            <feOffset dx="0" dy="15" in="SourceAlpha" result="shadowOffsetOuter1"></feOffset>
            <feGaussianBlur stdDeviation="11" in="shadowOffsetOuter1" result="shadowBlurOuter1"></feGaussianBlur>
            <feColorMatrix values="0 0 0 0 0   0 0 0 0 0   0 0 0 0 0  0 0 0 0.25 0" type="matrix" in="shadowBlurOuter1"></feColorMatrix>
        </filter>
        <circle id="path-4" cx="318.5" cy="60.5" r="55.5"></circle>
        <filter x="-65.8%" y="-44.1%" width="222.5%" height="222.5%" filterUnits="objectBoundingBox" id="filter-5">
            <feOffset dx="-5" dy="19" in="SourceAlpha" result="shadowOffsetOuter1"></feOffset>
            <feGaussianBlur stdDeviation="19.5" in="shadowOffsetOuter1" result="shadowBlurOuter1"></feGaussianBlur>
            <feColorMatrix values="0 0 0 0 0   0 0 0 0 0   0 0 0 0 0  0 0 0 0.28161798 0" type="matrix" in="shadowBlurOuter1"></feColorMatrix>
        </filter>
        <circle id="path-6" cx="319" cy="61" r="17"></circle>
        <filter x="-152.9%" y="-111.8%" width="388.2%" height="388.2%" filterUnits="objectBoundingBox" id="filter-7">
            <feOffset dx="-3" dy="11" in="SourceAlpha" result="shadowOffsetOuter1"></feOffset>
            <feGaussianBlur stdDeviation="14.5" in="shadowOffsetOuter1" result="shadowBlurOuter1"></feGaussianBlur>
            <feColorMatrix values="0 0 0 0 0.382304935   0 0 0 0 0.0324290316   0 0 0 0 0.516581633  0 0 0 0.654381793 0" type="matrix" in="shadowBlurOuter1"></feColorMatrix>
        </filter>
        <circle id="path-8" cx="63.5" cy="348.5" r="9.5"></circle>
        <filter x="-147.4%" y="-89.5%" width="363.2%" height="363.2%" filterUnits="objectBoundingBox" id="filter-9">
            <feOffset dx="-3" dy="8" in="SourceAlpha" result="shadowOffsetOuter1"></feOffset>
            <feGaussianBlur stdDeviation="7" in="shadowOffsetOuter1" result="shadowBlurOuter1"></feGaussianBlur>
            <feColorMatrix values="0 0 0 0 0   0 0 0 0 0   0 0 0 0 0  0 0 0 0.28161798 0" type="matrix" in="shadowBlurOuter1"></feColorMatrix>
        </filter>
        <linearGradient x1="79.4076969%" y1="0%" x2="6.26301354%" y2="100%" id="linearGradient-10">
            <stop stop-color="#FF710F" offset="0%"></stop>
            <stop stop-color="#CB16A9" offset="100%"></stop>
        </linearGradient>
    </defs>
    <g id="EA-Logo" stroke="none" stroke-width="1" fill="none" fill-rule="evenodd">
        <g id="Group-5" transform="translate(29.000000, 19.000000)">
            <circle id="Oval-2" fill="url(#linearGradient-1)" cx="187" cy="208" r="187"></circle>
            <g id="EA">
                <use fill="black" fill-opacity="1" filter="url(#filter-3)" xlink:href="#path-2"></use>
                <use fill="#FFFFFF" fill-rule="evenodd" xlink:href="#path-2"></use>
            </g>
            <g id="Oval-3" opacity="0.913225446">
                <use fill="black" fill-opacity="1" filter="url(#filter-5)" xlink:href="#path-4"></use>
                <use fill="#FFFFFF" fill-rule="evenodd" xlink:href="#path-4"></use>
            </g>
            <g id="Oval-3">
                <use fill="black" fill-opacity="1" filter="url(#filter-7)" xlink:href="#path-6"></use>
                <use fill="#A43DFF" fill-rule="evenodd" xlink:href="#path-6"></use>
            </g>
            <g id="Oval-3-Copy-2" opacity="0.913225446" transform="translate(63.500000, 348.500000) rotate(-7.000000) translate(-63.500000, -348.500000) ">
                <use fill="black" fill-opacity="1" filter="url(#filter-9)" xlink:href="#path-8"></use>
                <use fill="#FFFFFF" fill-rule="evenodd" xlink:href="#path-8"></use>
            </g>
            <circle id="Oval-3-Copy-4" fill="#F5A623" cx="385" cy="117" r="12"></circle>
            <circle id="Oval-3-Copy-5" fill="#D8D8D8" cx="257" cy="9" r="9"></circle>
            <path d="M145.182623,334.548531 C139.966285,339.764869 137.156925,346.476118 136.753323,353.300766 C136.311922,360.746058 133.113592,367.759704 127.839945,373.033351 C122.604098,378.270418 115.653858,381.543128 108.259778,381.941852 C100.95349,382.335699 93.769137,385.480378 88.3930654,391.383204 C83.408402,396.856823 80.9099736,403.833889 80.8989995,410.813393 L80.8989995,410.914598 C80.9111929,417.89898 83.4144987,424.878484 88.4064781,430.352103 C99.6170933,442.645492 118.683918,442.977153 130.316425,431.343426 C135.532764,426.127088 138.340904,419.418278 138.745725,412.591191 C139.185907,405.144679 142.384237,398.132253 147.659103,392.857387 C152.894951,387.62032 159.843972,384.350049 167.239271,383.951325 C174.544339,383.557478 181.729912,380.41036 187.104764,374.508753 C192.077234,369.048547 194.575662,362.093429 194.59883,355.130996 L194.59883,354.934682 C194.575662,347.964933 192.073576,341.002499 187.092571,335.541074 C181.332407,329.223671 173.498145,326.06558 165.663883,326.06558 C158.251513,326.06558 150.839143,328.89323 145.182623,334.548531" id="Fill-1" fill="url(#linearGradient-10)" opacity="0.897879464" transform="translate(137.748915, 382.946435) rotate(34.000000) translate(-137.748915, -382.946435) "></path>
            <path d="M220.972652,42 C213.584652,42.035 207.609652,48.035 207.609652,55.43 C207.609652,58.85 208.887652,61.971 210.992652,64.341 C213.289652,66.927 214.540652,70.274 214.540652,73.732 L214.539652,73.732 C214.539652,76.922 213.499652,80.038 211.513652,82.514 C209.037652,84.5 205.920652,85.541 202.731652,85.541 C199.272652,85.541 195.925652,84.29 193.340652,81.994 C190.969652,79.888 187.849652,78.609 184.429652,78.609 C176.801652,78.609 170.659652,84.969 171.014652,92.675 C171.330652,99.551 176.908652,105.132 183.784652,105.454 C187.483652,105.627 190.869652,104.303 193.393652,102.036 C195.949652,99.743 199.300652,98.537 202.733652,98.537 C206.191652,98.537 209.539652,99.788 212.125652,102.085 C214.494652,104.189 217.614652,105.469 221.035652,105.469 C222.732652,105.469 224.354652,105.152 225.849652,104.578 C225.856652,104.576 225.863652,104.574 225.869652,104.57 C226.071652,104.492 226.271652,104.411 226.467652,104.323 C226.485652,104.315 226.501652,104.307 226.519652,104.299 C226.705652,104.216 226.888652,104.13 227.070652,104.038 C227.097652,104.024 227.125652,104.009 227.152652,103.995 C227.322652,103.908 227.489652,103.818 227.656652,103.725 C227.693652,103.704 227.729652,103.681 227.765652,103.659 C227.920652,103.569 228.073652,103.479 228.223652,103.384 C228.270652,103.355 228.315652,103.323 228.361652,103.292 C228.499652,103.202 228.637652,103.111 228.772652,103.017 C228.828652,102.977 228.882652,102.936 228.936652,102.896 C229.058652,102.806 229.181652,102.717 229.301652,102.623 C229.366652,102.572 229.427652,102.52 229.491652,102.468 C229.598652,102.381 229.705652,102.295 229.809652,102.205 C229.882652,102.143 229.952652,102.077 230.023652,102.013 C230.115652,101.931 230.207652,101.848 230.296652,101.763 C230.377652,101.687 230.452652,101.608 230.530652,101.531 C230.608652,101.454 230.686652,101.377 230.762652,101.298 C230.847652,101.208 230.929652,101.116 231.012652,101.024 C231.076652,100.952 231.141652,100.883 231.204652,100.811 C231.294652,100.706 231.380652,100.599 231.467652,100.492 C231.518652,100.429 231.572652,100.366 231.621652,100.302 C231.715652,100.182 231.805652,100.06 231.894652,99.938 C231.934652,99.882 231.976652,99.829 232.015652,99.774 C232.110652,99.639 232.201652,99.501 232.291652,99.362 C232.321652,99.317 232.353652,99.271 232.383652,99.224 C232.478652,99.074 232.569652,98.921 232.658652,98.767 C232.679652,98.73 232.702652,98.694 232.723652,98.656 C232.818652,98.491 232.906652,98.322 232.994652,98.152 C233.008652,98.125 233.022652,98.099 233.037652,98.071 C233.129652,97.89 233.214652,97.707 233.298652,97.519 C233.305652,97.503 233.314652,97.486 233.321652,97.469 C233.409652,97.272 233.491652,97.072 233.569652,96.871 L233.578652,96.851 C234.152652,95.356 234.467652,93.733 234.467652,92.037 C234.467652,88.617 233.189652,85.496 231.083652,83.125 C228.787652,80.54 227.536652,77.191 227.536652,73.733 C227.536652,70.301 228.741652,66.949 231.035652,64.395 C233.302652,61.87 234.625652,58.484 234.453652,54.786 C234.131652,47.91 228.550652,42.332 221.673652,42.015 C221.486652,42.006 221.299652,42.001 221.113652,42 L220.972652,42 Z" id="Fill-1" fill="#FFFFFF" opacity="0.096875"></path>
        </g>
    </g>
</svg>