<?xml version="1.0" encoding="UTF-8"?>
<svg xmlns="http://www.w3.org/2000/svg" viewBox="0 0 80 80">
    <path style="line-height:normal;text-indent:0;text-align:start;text-decoration-line:none;text-decoration-style:solid;text-decoration-color:#000;text-transform:none;block-progression:tb;isolation:auto;mix-blend-mode:normal" d="M 9 11 C 6.8026661 11 5 12.802666 5 15 L 5 27 L 5 28 L 5 65 C 5 67.197334 6.8026661 69 9 69 L 71 69 C 73.197334 69 75 67.197334 75 65 L 75 27 C 75 24.802666 73.197334 23 71 23 L 70 23 L 70 21 C 70 18.802666 68.197334 17 66 17 L 28.166016 17 L 27.205078 14.693359 L 27.205078 14.691406 C 26.27448 12.459084 24.086456 11 21.667969 11 L 9 11 z M 9 13 L 21.667969 13 C 23.284912 13 24.7376 13.968195 25.359375 15.460938 L 26.833984 19 L 66 19 C 67.116666 19 68 19.883334 68 21 L 68 23 L 9 23 C 8.2573422 23 7.5981308 23.261659 7 23.619141 L 7 15 C 7 13.883334 7.8833339 13 9 13 z M 9 25 L 71 25 C 72.116666 25 73 25.883334 73 27 L 73 65 C 73 66.116666 72.116666 67 71 67 L 9 67 C 7.8833339 67 7 66.116666 7 65 L 7 28 L 7 27 C 7 25.883334 7.8833339 25 9 25 z M 69 26 A 1 1 0 0 0 68 27 A 1 1 0 0 0 69 28 A 1 1 0 0 0 70 27 A 1 1 0 0 0 69 26 z M 40 29 C 37.250484 29 35 31.250484 35 34 C 35 34.36902 35.197011 34.656907 35.275391 35 L 31 35 C 29.35503 35 28 36.35503 28 38 L 28 41.275391 C 27.656907 41.197011 27.36902 41 27 41 C 24.250484 41 22 43.250484 22 46 C 22 48.749516 24.250484 51 27 51 C 27.36902 51 27.656907 50.802989 28 50.724609 L 28 55 C 28 56.64497 29.35503 58 31 58 L 34 58 L 37.414062 58 L 37.09375 56.751953 C 37.032056 56.511196 37 56.259976 37 56 C 37 54.331516 38.331516 53 40 53 C 41.668484 53 43 54.331516 43 56 C 43 56.259976 42.96794 56.511196 42.90625 56.751953 L 42.585938 58 L 45 58 L 49 58 C 50.64497 58 52 56.64497 52 55 L 52 51 L 52 48.585938 L 50.751953 48.90625 C 50.511196 48.967944 50.259976 49 50 49 C 48.331516 49 47 47.668484 47 46 C 47 44.331516 48.331516 43 50 43 C 50.259976 43 50.511196 43.03206 50.751953 43.09375 L 52 43.414062 L 52 41 L 52 38 C 52 36.35503 50.64497 35 49 35 L 44.724609 35 C 44.802989 34.656907 45 34.36902 45 34 C 45 31.250484 42.749516 29 40 29 z M 69 30 A 1 1 0 0 0 68 31 A 1 1 0 0 0 69 32 A 1 1 0 0 0 70 31 A 1 1 0 0 0 69 30 z M 40 31 C 41.668484 31 43 32.331516 43 34 C 43 34.539832 42.847747 35.040361 42.582031 35.496094 L 41.705078 37 L 49 37 C 49.56503 37 50 37.43497 50 38 L 50 41 C 47.250484 41 45 43.250484 45 46 C 45 48.749516 47.250484 51 50 51 L 50 55 C 50 55.56503 49.56503 56 49 56 L 45 56 C 45 53.250484 42.749516 51 40 51 C 37.250484 51 35 53.250484 35 56 L 34 56 L 31 56 C 30.43497 56 30 55.56503 30 55 L 30 47.705078 L 28.496094 48.582031 C 28.040361 48.847747 27.539832 49 27 49 C 25.331516 49 24 47.668484 24 46 C 24 44.331516 25.331516 43 27 43 C 27.539832 43 28.040361 43.152253 28.496094 43.417969 L 30 44.294922 L 30 38 C 30 37.43497 30.43497 37 31 37 L 38.294922 37 L 37.417969 35.496094 C 37.152253 35.040361 37 34.539832 37 34 C 37 32.331516 38.331516 31 40 31 z M 69 34 A 1 1 0 0 0 68 35 A 1 1 0 0 0 69 36 A 1 1 0 0 0 70 35 A 1 1 0 0 0 69 34 z M 69 38 A 1 1 0 0 0 68 39 A 1 1 0 0 0 69 40 A 1 1 0 0 0 70 39 A 1 1 0 0 0 69 38 z M 69 42 A 1 1 0 0 0 68 43 A 1 1 0 0 0 69 44 A 1 1 0 0 0 70 43 A 1 1 0 0 0 69 42 z M 69 46 A 1 1 0 0 0 68 47 A 1 1 0 0 0 69 48 A 1 1 0 0 0 70 47 A 1 1 0 0 0 69 46 z M 69 50 A 1 1 0 0 0 68 51 A 1 1 0 0 0 69 52 A 1 1 0 0 0 70 51 A 1 1 0 0 0 69 50 z M 69 54 A 1 1 0 0 0 68 55 A 1 1 0 0 0 69 56 A 1 1 0 0 0 70 55 A 1 1 0 0 0 69 54 z M 69 58 A 1 1 0 0 0 68 59 A 1 1 0 0 0 69 60 A 1 1 0 0 0 70 59 A 1 1 0 0 0 69 58 z M 9 62 A 1 1 0 0 0 8 63 A 1 1 0 0 0 9 64 A 1 1 0 0 0 10 63 A 1 1 0 0 0 9 62 z M 13 62 A 1 1 0 0 0 12 63 A 1 1 0 0 0 13 64 A 1 1 0 0 0 14 63 A 1 1 0 0 0 13 62 z M 17 62 A 1 1 0 0 0 16 63 A 1 1 0 0 0 17 64 A 1 1 0 0 0 18 63 A 1 1 0 0 0 17 62 z M 21 62 A 1 1 0 0 0 20 63 A 1 1 0 0 0 21 64 A 1 1 0 0 0 22 63 A 1 1 0 0 0 21 62 z M 25 62 A 1 1 0 0 0 24 63 A 1 1 0 0 0 25 64 A 1 1 0 0 0 26 63 A 1 1 0 0 0 25 62 z M 29 62 A 1 1 0 0 0 28 63 A 1 1 0 0 0 29 64 A 1 1 0 0 0 30 63 A 1 1 0 0 0 29 62 z M 33 62 A 1 1 0 0 0 32 63 A 1 1 0 0 0 33 64 A 1 1 0 0 0 34 63 A 1 1 0 0 0 33 62 z M 37 62 A 1 1 0 0 0 36 63 A 1 1 0 0 0 37 64 A 1 1 0 0 0 38 63 A 1 1 0 0 0 37 62 z M 41 62 A 1 1 0 0 0 40 63 A 1 1 0 0 0 41 64 A 1 1 0 0 0 42 63 A 1 1 0 0 0 41 62 z M 45 62 A 1 1 0 0 0 44 63 A 1 1 0 0 0 45 64 A 1 1 0 0 0 46 63 A 1 1 0 0 0 45 62 z M 49 62 A 1 1 0 0 0 48 63 A 1 1 0 0 0 49 64 A 1 1 0 0 0 50 63 A 1 1 0 0 0 49 62 z M 53 62 A 1 1 0 0 0 52 63 A 1 1 0 0 0 53 64 A 1 1 0 0 0 54 63 A 1 1 0 0 0 53 62 z M 57 62 A 1 1 0 0 0 56 63 A 1 1 0 0 0 57 64 A 1 1 0 0 0 58 63 A 1 1 0 0 0 57 62 z M 61 62 A 1 1 0 0 0 60 63 A 1 1 0 0 0 61 64 A 1 1 0 0 0 62 63 A 1 1 0 0 0 61 62 z M 65 62 A 1 1 0 0 0 64 63 A 1 1 0 0 0 65 64 A 1 1 0 0 0 66 63 A 1 1 0 0 0 65 62 z M 69 62 A 1 1 0 0 0 68 63 A 1 1 0 0 0 69 64 A 1 1 0 0 0 70 63 A 1 1 0 0 0 69 62 z"></path>
</svg>