<?xml version="1.0" encoding="UTF-8"?>
<svg version="1.1" width="80px" id="Layer_1" xmlns="http://www.w3.org/2000/svg" xmlns:xlink="http://www.w3.org/1999/xlink" x="0px" y="0px" viewBox="0 0 960 960" style="enable-background:new 0 0 960 960;" xml:space="preserve">
<style type="text/css">
	.st0{fill:#FFFFFF;}
	.st1{fill:#6c63ff;}
	.st2{fill:#FFFFFF;}
	.st3{fill:#CCCCCC;}
	.st4{fill:#E6E6E6;}
	.st5{fill:#6c63ff;}
	.st6{fill:#F2F2F2;}
	.st7{fill:none;stroke:#999999;stroke-width:17.9763;stroke-linecap:round;stroke-miterlimit:10;}
	.st8{fill:none;stroke:#333333;stroke-width:8.9882;stroke-linecap:round;stroke-miterlimit:10;}
	.st9{fill:none;stroke:#C1272D;stroke-width:5.9921;stroke-linecap:round;stroke-miterlimit:10;}
	.st10{fill:#245F7F;}
</style>
<g>
	<path class="st0" d="M601.2,699.8H205c-30.7,0-55.6-24.9-55.6-55.6V248c0-30.7,24.9-55.6,55.6-55.6h396.2   c30.7,0,55.6,24.9,55.6,55.6v396.2C656.8,674.9,631.9,699.8,601.2,699.8z"/>
	<path class="st1" d="M601.2,192.4H205c-30.7,0-55.6,24.9-55.6,55.6v88.5h507.4V248C656.8,217.3,631.9,192.4,601.2,192.4z"/>
	<circle class="st2" cx="253.3" cy="264.5" r="36.7"/>
	<circle class="st2" cx="551.6" cy="264.5" r="36.7"/>
	<path class="st3" d="M253.3,275.7L253.3,275.7c-11.8,0-21.3-9.6-21.3-21.3v-85.8c0-11.8,9.6-21.3,21.3-21.3l0,0   c11.8,0,21.3,9.6,21.3,21.3v85.8C274.6,266.2,265.1,275.7,253.3,275.7z"/>
	<path class="st3" d="M551.6,275.7L551.6,275.7c-11.8,0-21.3-9.6-21.3-21.3v-85.8c0-11.8,9.6-21.3,21.3-21.3l0,0   c11.8,0,21.3,9.6,21.3,21.3v85.8C573,266.2,563.4,275.7,551.6,275.7z"/>
	<rect x="215.7" y="370.9" class="st4" width="75.2" height="75.2"/>
	<rect x="313" y="370.9" class="st4" width="75.2" height="75.2"/>
	<rect x="410.2" y="370.9" class="st4" width="75.2" height="75.2"/>
	<rect x="507.5" y="370.9" class="st4" width="75.2" height="75.2"/>
	<rect x="215.7" y="465" class="st4" width="75.2" height="75.2"/>
	<rect x="313" y="465" class="st1" width="75.2" height="75.2" opacity="0.75"/>
	<rect x="410.2" y="465" class="st4" width="75.2" height="75.2"/>
	<rect x="507.5" y="465" class="st4" width="75.2" height="75.2"/>
	<rect x="215.7" y="559.1" class="st4" width="75.2" height="75.2"/>
	<rect x="313" y="559.1" class="st4" width="75.2" height="75.2"/>
	<rect x="410.2" y="559.1" class="st4" width="75.2" height="75.2"/>
	<rect x="507.5" y="559.1" class="st4" width="75.2" height="75.2"/>
	<g>
		<circle class="st5" cx="621.9" cy="624" r="188.7"/>
		<circle class="st0" cx="621.9" cy="624" r="148"/>
		<path class="st6" d="M486.6,636.8c0-81.7,66.3-148,148-148c37.6,0,72,14.1,98.1,37.2c-27.1-30.6-66.7-49.9-110.8-49.9    c-81.7,0-148,66.3-148,148c0,44.1,19.3,83.7,49.9,110.8C500.7,708.7,486.6,674.4,486.6,636.8z"/>
		<polyline class="st7" points="621.9,530.4 621.9,624 559,624   "/>
		<g>
			<line class="st8" x1="621.9" y1="508.3" x2="621.9" y2="497.1"/>
			<line class="st8" x1="621.9" y1="756.3" x2="621.9" y2="745.1"/>
			<line class="st8" x1="740.3" y1="626.7" x2="751.5" y2="626.7"/>
			<line class="st8" x1="492.3" y1="626.7" x2="503.5" y2="626.7"/>
			<line class="st8" x1="705.6" y1="710.4" x2="713.5" y2="718.3"/>
			<line class="st8" x1="530.3" y1="535.1" x2="538.2" y2="543"/>
			<line class="st8" x1="538.2" y1="710.4" x2="530.3" y2="718.3"/>
			<line class="st8" x1="713.5" y1="535.1" x2="705.6" y2="543"/>
		</g>
		<line class="st9" x1="604.4" y1="606.3" x2="684.5" y2="687.4"/>
		<circle class="st10" cx="621.9" cy="624" r="16.1"/>
	</g>
</g>
</svg>