<svg width="66" height="60" viewBox="0 0 66 60" fill="none" xmlns="http://www.w3.org/2000/svg">
<path d="M47.7198 20.6923C45.3292 20.6923 43.3958 18.7589 43.3958 16.3683V9.11816H15.0091C13.1672 9.11816 11.678 10.6074 11.678 12.4493V20.0261H8.56888C7.64138 20.0261 6.89677 20.7707 6.89677 21.6982C6.89677 22.6257 7.64138 23.3703 8.56888 23.3703H11.678H19.2416C20.1691 23.3703 20.9138 24.1149 20.9138 25.0424C20.9138 25.9699 20.1691 26.7145 19.2416 26.7145H18.5754H11.678H4.78051C3.85301 26.7145 3.1084 27.4591 3.1084 28.3866C3.1084 29.3141 3.85301 30.0587 4.78051 30.0587H11.678H16.1326C17.0601 30.0587 17.8047 30.8033 17.8047 31.7308C17.8047 32.6583 17.0601 33.4029 16.1326 33.4029H11.678H10.45C9.52251 33.4029 8.7779 34.1476 8.7779 35.075C8.7779 36.0025 9.52251 36.7472 10.45 36.7472H11.678V56.6688C11.678 58.5107 13.1672 59.9999 15.0091 59.9999H51.6257C53.4676 59.9999 54.9569 58.5107 54.9569 56.6688V20.6923H47.7198Z" fill="url(#paint0_linear_163_1079)"/>
<path d="M2.56042 24.2458C1.14958 24.2458 0 23.0963 0 21.6854C0 20.2746 1.14958 19.125 2.56042 19.125C3.97126 19.125 5.12084 20.2746 5.12084 21.6854C5.12084 23.0963 3.97126 24.2458 2.56042 24.2458ZM2.56042 20.2484C1.76355 20.2484 1.11039 20.9016 1.11039 21.6985C1.11039 22.4953 1.76355 23.1485 2.56042 23.1485C3.35728 23.1485 4.01045 22.4823 4.01045 21.6854C4.01045 20.8886 3.35728 20.2484 2.56042 20.2484Z" fill="url(#paint1_linear_163_1079)"/>
<path d="M5.00414 36.708C5.92762 36.708 6.67625 35.9594 6.67625 35.0359C6.67625 34.1124 5.92762 33.3638 5.00414 33.3638C4.08066 33.3638 3.33203 34.1124 3.33203 35.0359C3.33203 35.9594 4.08066 36.708 5.00414 36.708Z" fill="url(#paint2_linear_163_1079)"/>
<path d="M20.6922 23.3574H19.2422C20.1697 23.3574 20.9143 24.102 20.9143 25.0295C20.9143 25.957 20.1697 26.7016 19.2422 26.7016H20.6922C21.6197 26.7016 22.3643 25.957 22.3643 25.0295C22.3643 24.102 21.6197 23.3574 20.6922 23.3574Z" fill="#1FD36E"/>
<path d="M20.9143 23.3574H19.2422C20.1697 23.3574 20.9143 24.102 20.9143 25.0295C20.9143 25.957 20.1697 26.7016 19.2422 26.7016H20.9143C21.8418 26.7016 22.5864 25.957 22.5864 25.0295C22.5864 24.102 21.8418 23.3574 20.9143 23.3574Z" fill="#1AC660"/>
<path d="M17.5828 30.0332H16.1328C17.0603 30.0332 17.8049 30.7778 17.8049 31.7053C17.8049 32.6328 17.0603 33.3774 16.1328 33.3774H17.5828C18.5103 33.3774 19.255 32.6328 19.255 31.7053C19.255 30.7778 18.4973 30.0332 17.5828 30.0332Z" fill="#12B269"/>
<path d="M54.9572 20.6924L51.9004 17.6226L54.9572 20.6924Z" fill="#1FD36E"/>
<path d="M46.2182 11.9398L43.3965 9.11816L46.2182 11.9398Z" fill="#1FD36E"/>
<path d="M47.7198 20.6923H54.9569L51.9001 17.6355H47.8374C46.936 17.6355 46.2045 16.9039 46.2045 16.0026V11.9398L43.3828 9.11816V16.3553C43.3959 18.7459 45.3293 20.6923 47.7198 20.6923Z" fill="#1FD36E"/>
<path d="M51.9003 17.622L46.2178 11.9395L51.9003 17.622Z" fill="white"/>
<path d="M49.4705 15.1792H52.6579C53.2327 15.1792 53.6899 14.7089 53.6899 14.1472V10.9597C53.6899 10.385 53.2197 9.92773 52.6579 9.92773H49.4705C48.8957 9.92773 48.4385 10.398 48.4385 10.9597V14.1472C48.4385 14.7089 48.8957 15.1792 49.4705 15.1792Z" fill="url(#paint3_linear_163_1079)"/>
<path d="M59.5816 10.0851H57.0343C56.2505 10.0851 55.6104 9.445 55.6104 8.6612V6.11385C55.6104 5.33005 56.2505 4.68994 57.0343 4.68994H59.5816C60.3654 4.68994 61.0055 5.33005 61.0055 6.11385V8.6612C61.0055 9.445 60.3654 10.0851 59.5816 10.0851ZM57.0343 5.80033C56.8644 5.80033 56.7207 5.94402 56.7207 6.11385V8.6612C56.7207 8.83103 56.8644 8.97472 57.0343 8.97472H59.5816C59.7514 8.97472 59.8951 8.83103 59.8951 8.6612V6.11385C59.8951 5.94402 59.7514 5.80033 59.5816 5.80033H57.0343V5.80033Z" fill="url(#paint4_linear_163_1079)"/>
<path d="M58.4847 15.4283H60.3527C60.6271 15.4283 60.8492 15.2062 60.8492 14.9319V13.0638C60.8492 12.7895 60.6271 12.5674 60.3527 12.5674H58.4847C58.2104 12.5674 57.9883 12.7895 57.9883 13.0638V14.9319C57.9883 15.2062 58.2104 15.4283 58.4847 15.4283Z" fill="#0BB782"/>
<path d="M50.5295 6.45313H51.7052C51.862 6.45313 51.9926 6.32249 51.9926 6.16573V4.99003C51.9926 4.83327 51.862 4.70264 51.7052 4.70264H50.5295C50.3727 4.70264 50.2421 4.83327 50.2421 4.99003V6.16573C50.229 6.32249 50.3597 6.45313 50.5295 6.45313Z" fill="#3AC9AD"/>
<path d="M54.7884 1.75049H55.7551C55.9771 1.75049 56.147 1.5676 56.147 1.35859V0.391901C56.147 0.169824 55.9641 0 55.7551 0H54.7884C54.5663 0 54.3965 0.182887 54.3965 0.391901V1.35859C54.3965 1.58067 54.5663 1.75049 54.7884 1.75049Z" fill="#1EE277"/>
<path d="M51.7312 59.9615H39.6084L32.7109 47.8387L44.8337 47.3945L51.7312 59.9615Z" fill="url(#paint5_linear_163_1079)"/>
<path d="M37.4918 59.962H35.2711L28.7002 47.9437L30.4899 47.395L37.4918 59.962Z" fill="url(#paint6_linear_163_1079)"/>
<path d="M38.2755 21.1365H28.1514L21.2539 9.11816H31.7046L38.2755 21.1365Z" fill="url(#paint7_linear_163_1079)"/>
<path d="M24.8079 21.1365H21.5812L15.0234 9.11816H18.1325L24.8079 21.1365Z" fill="url(#paint8_linear_163_1079)"/>
<path d="M45.748 36.4861H33.5991C33.2464 36.4861 32.959 36.1987 32.959 35.846V35.4541C32.959 35.1014 33.2464 34.814 33.5991 34.814H45.748C46.1007 34.814 46.3881 35.1014 46.3881 35.4541V35.846C46.3881 36.1987 46.1007 36.4861 45.748 36.4861Z" fill="#13A55F"/>
<path d="M29.7579 36.4861C30.2197 36.4861 30.594 36.1118 30.594 35.65C30.594 35.1883 30.2197 34.814 29.7579 34.814C29.2962 34.814 28.9219 35.1883 28.9219 35.65C28.9219 36.1118 29.2962 36.4861 29.7579 36.4861Z" fill="#13A55F"/>
<path d="M45.4216 35.8195H33.4425C33.0375 35.8195 32.7109 35.4929 32.7109 35.0879V34.6568C32.7109 34.2519 33.0375 33.9253 33.4425 33.9253H45.4216C45.8265 33.9253 46.1531 34.2519 46.1531 34.6568V35.0879C46.1401 35.4929 45.8135 35.8195 45.4216 35.8195Z" fill="white"/>
<path d="M44.1152 48.5045H33.4425C33.0375 48.5045 32.7109 48.178 32.7109 47.773V47.3419C32.7109 46.9369 33.0375 46.6104 33.4425 46.6104H44.1152C44.5202 46.6104 44.8468 46.9369 44.8468 47.3419V47.773C44.8337 48.178 44.5071 48.5045 44.1152 48.5045Z" fill="#B6FFC4"/>
<path d="M29.5363 35.8201C30.0557 35.8201 30.4768 35.399 30.4768 34.8795C30.4768 34.3601 30.0557 33.939 29.5363 33.939C29.0168 33.939 28.5957 34.3601 28.5957 34.8795C28.5957 35.399 29.0168 35.8201 29.5363 35.8201Z" fill="white"/>
<path d="M41.5293 40.718H33.5737C33.221 40.718 32.9336 40.4306 32.9336 40.0779V39.686C32.9336 39.3333 33.221 39.0459 33.5737 39.0459H41.5293C41.882 39.0459 42.1694 39.3333 42.1694 39.686V40.0779C42.1694 40.4306 41.882 40.718 41.5293 40.718Z" fill="#14A560"/>
<path d="M29.7579 40.718C30.2197 40.718 30.594 40.3437 30.594 39.882C30.594 39.4202 30.2197 39.0459 29.7579 39.0459C29.2962 39.0459 28.9219 39.4202 28.9219 39.882C28.9219 40.3437 29.2962 40.718 29.7579 40.718Z" fill="#14A560"/>
<path d="M45.0548 43.6054L43.0692 45.0554H33.755C33.2978 45.0554 32.9189 44.6766 32.9189 44.2194C32.9189 43.7621 33.2978 43.3833 33.755 43.3833H43.043L45.0548 43.6054Z" fill="#14A560"/>
<path d="M29.7579 45.0559C30.2197 45.0559 30.594 44.6816 30.594 44.2198C30.594 43.7581 30.2197 43.3838 29.7579 43.3838C29.2962 43.3838 28.9219 43.7581 28.9219 44.2198C28.9219 44.6816 29.2962 45.0559 29.7579 45.0559Z" fill="#14A560"/>
<path d="M41.2146 40.0524H33.4288C33.0239 40.0524 32.6973 39.7258 32.6973 39.3208V38.8898C32.6973 38.4848 33.0239 38.1582 33.4288 38.1582H41.2146C41.6195 38.1582 41.9461 38.4848 41.9461 38.8898V39.3208C41.9461 39.7258 41.6195 40.0524 41.2146 40.0524Z" fill="#D7FFDF"/>
<path d="M29.5363 40.0393C30.0557 40.0393 30.4768 39.6182 30.4768 39.0988C30.4768 38.5793 30.0557 38.1582 29.5363 38.1582C29.0168 38.1582 28.5957 38.5793 28.5957 39.0988C28.5957 39.6182 29.0168 40.0393 29.5363 40.0393Z" fill="#D7FFDF"/>
<path d="M29.5363 44.3762C30.0557 44.3762 30.4768 43.9551 30.4768 43.4357C30.4768 42.9162 30.0557 42.4951 29.5363 42.4951C29.0168 42.4951 28.5957 42.9162 28.5957 43.4357C28.5957 43.9551 29.0168 44.3762 29.5363 44.3762Z" fill="#D4FFDB"/>
<path d="M29.5363 48.4915C30.0557 48.4915 30.4768 48.0704 30.4768 47.5509C30.4768 47.0315 30.0557 46.6104 29.5363 46.6104C29.0168 46.6104 28.5957 47.0315 28.5957 47.5509C28.5957 48.0704 29.0168 48.4915 29.5363 48.4915Z" fill="#B6FFC4"/>
<path d="M54.9589 39.4914L48.375 42.3784L54.9589 36.4868V39.4914Z" fill="#11A35D"/>
<path d="M63.6726 31.2618L48.2709 42.4441L46.4551 39.962L61.8568 28.7798L63.6726 31.2618Z" fill="url(#paint9_linear_163_1079)"/>
<path d="M64.8751 30.3865L63.6732 31.2617L61.8574 28.7797L63.0593 27.9044C63.5818 27.5125 64.3264 27.6301 64.7183 28.1657L65.1363 28.7405C65.5152 29.25 65.3976 29.9946 64.8751 30.3865Z" fill="#003136"/>
<path d="M43.0059 44.3896L45.096 43.6189L44.3775 42.6392L43.0059 44.3896Z" fill="#134649"/>
<path d="M46.5193 39.9224L44.377 42.6395L45.0954 43.6193L48.3351 42.4044L46.5193 39.9224Z" fill="url(#paint10_linear_163_1079)"/>
<path d="M16.5775 36.708L11.6787 37.8184V36.708H16.5775Z" fill="#12B269"/>
<path d="M43.0571 44.3894H33.6515C33.129 44.3894 32.7109 43.9714 32.7109 43.4489C32.7109 42.9263 33.129 42.5083 33.6515 42.5083H44.4941L43.0571 44.3894Z" fill="#D4FFDB"/>
<defs>
<linearGradient id="paint0_linear_163_1079" x1="51.3839" y1="8.37334" x2="10.4154" y2="67.7251" gradientUnits="userSpaceOnUse">
<stop stop-color="#68FF61"/>
<stop offset="1" stop-color="#01BAB4"/>
</linearGradient>
<linearGradient id="paint1_linear_163_1079" x1="3.86101" y1="19.4873" x2="1.26298" y2="23.895" gradientUnits="userSpaceOnUse">
<stop stop-color="#68FF61"/>
<stop offset="1" stop-color="#01BAB4"/>
</linearGradient>
<linearGradient id="paint2_linear_163_1079" x1="15.5091" y1="17.2292" x2="3.15327" y2="38.1915" gradientUnits="userSpaceOnUse">
<stop stop-color="#68FF61"/>
<stop offset="1" stop-color="#01BAB4"/>
</linearGradient>
<linearGradient id="paint3_linear_163_1079" x1="49.1844" y1="14.6553" x2="53.0719" y2="10.3079" gradientUnits="userSpaceOnUse">
<stop stop-color="#68FF61"/>
<stop offset="1" stop-color="#01BAB4"/>
</linearGradient>
<linearGradient id="paint4_linear_163_1079" x1="56.3897" y1="9.83133" x2="60.0964" y2="5.10204" gradientUnits="userSpaceOnUse">
<stop stop-color="#68FF61"/>
<stop offset="1" stop-color="#01BAB4"/>
</linearGradient>
<linearGradient id="paint5_linear_163_1079" x1="40.2788" y1="50.312" x2="46.7377" y2="62.2277" gradientUnits="userSpaceOnUse">
<stop stop-color="#0FB797"/>
<stop offset="1" stop-color="#2FD98F"/>
</linearGradient>
<linearGradient id="paint6_linear_163_1079" x1="29.7835" y1="47.9851" x2="36.3698" y2="59.9401" gradientUnits="userSpaceOnUse">
<stop stop-color="#0BA88A"/>
<stop offset="1" stop-color="#1DCD9D"/>
</linearGradient>
<linearGradient id="paint7_linear_163_1079" x1="27.5066" y1="9.19529" x2="31.9006" y2="20.75" gradientUnits="userSpaceOnUse">
<stop stop-color="#7DF777"/>
<stop offset="1" stop-color="#45E87D" stop-opacity="0"/>
</linearGradient>
<linearGradient id="paint8_linear_163_1079" x1="16.4932" y1="8.96204" x2="23.295" y2="21.3083" gradientUnits="userSpaceOnUse">
<stop stop-color="#7DF777"/>
<stop offset="1" stop-color="#45E87D" stop-opacity="0"/>
</linearGradient>
<linearGradient id="paint9_linear_163_1079" x1="47.304" y1="40.5062" x2="58.8361" y2="33.2348" gradientUnits="userSpaceOnUse">
<stop stop-color="#68FF61"/>
<stop offset="1" stop-color="#01BAB4"/>
</linearGradient>
<linearGradient id="paint10_linear_163_1079" x1="45.5041" y1="42.4021" x2="48.3065" y2="40.5941" gradientUnits="userSpaceOnUse">
<stop stop-color="#68FF61"/>
<stop offset="1" stop-color="#01BAB4"/>
</linearGradient>
</defs>
</svg>
