<svg width="60" height="67" viewBox="0 0 60 67" fill="none" xmlns="http://www.w3.org/2000/svg">
<path fill-rule="evenodd" clip-rule="evenodd" d="M16.458 58.6829C17.1441 58.8376 17.8579 58.9193 18.5908 58.9193H37.8278C45.4068 58.9193 51.5509 52.7747 51.5509 45.1948C51.5509 39.0503 47.5134 33.8489 41.947 32.0993L16.458 58.6829Z" fill="#6E58F7"/>
<path d="M8 17.0872C8 12.0685 12.0681 8 17.0863 8H38.392C43.4102 8 47.4782 12.0685 47.4782 17.0872V28.7455C47.4782 31.172 46.5079 33.4977 44.7834 35.2045L23.4776 56.2916C17.7401 61.9703 8 57.9056 8 49.8326V17.0872Z" fill="url(#paint0_linear_454_119)"/>
<path d="M25.5469 21.6305C25.5469 18.775 27.8615 16.4602 30.7166 16.4602H47.4792V26.8008H30.7166C27.8615 26.8008 25.5469 24.486 25.5469 21.6305Z" fill="white"/>
<path d="M30.8435 24.1379C32.1431 24.1379 33.1967 23.0155 33.1967 21.6311C33.1967 20.2466 32.1431 19.1242 30.8435 19.1242C29.5438 19.1242 28.4902 20.2466 28.4902 21.6311C28.4902 23.0155 29.5438 24.1379 30.8435 24.1379Z" fill="#6E58F7"/>
<defs>
<linearGradient id="paint0_linear_454_119" x1="13.5616" y1="53.9613" x2="47.4828" y2="8.00334" gradientUnits="userSpaceOnUse">
<stop stop-color="#A293FF"/>
<stop offset="1" stop-color="#6E58F7"/>
</linearGradient>
</defs>
</svg>
