<?xml version="1.0" encoding="utf-8"?>
<!-- Generator: Adobe Illustrator 24.3.0, SVG Export Plug-In . SVG Version: 6.00 Build 0)  -->
<svg version="1.1" id="Layer_1" xmlns="http://www.w3.org/2000/svg" xmlns:xlink="http://www.w3.org/1999/xlink" x="0px" y="0px"
	 viewBox="0 0 104 131" style="enable-background:new 0 0 104 131;" xml:space="preserve">
<style type="text/css">
	.st0{fill:none;}
	.st1{fill:#FF1F1F;}
	.st2{fill:#AA02D3;}
	.st3{fill:#AF1CF4;}
	.st4{fill:#EF726C;}
	.st5{fill:#FF7878;}
	.st6{fill:#2D2F54;}
	.st7{fill:#0847F9;}
	.st8{fill:#8761FF;}
	.st9{fill:#25BF88;}
	.st10{opacity:0.12;fill:#0847F9;}
</style>
<g>
	<g>
		<g>
			<path class="st0" d="M81.4,72.3c-0.1,0-0.3,0-0.4,0C81.2,72.3,81.3,72.3,81.4,72.3z"/>
			<path class="st1" d="M81.4,72.3c-0.1,0-0.3,0-0.4,0c-2.8-0.1-5.5-1.7-6.8-4.4c-1.7-3.3-0.8-7.3,2-9.6c-6.1,3-32.2,15.9-38,18.7
				c-0.4,0.2-0.6,0.3-0.8,0.4c-3.6,1.7-5.4,5.9-3.9,9.9c0.3,0.8,0.8,1.6,1.5,2.3c2.1,2.3,5.3,3,8.1,2.1c0.2-0.1,0.4-0.1,0.6-0.2
				l1.2-0.5l2.3-1c0.5-0.2,36.8-18,36.8-18c0.3-0.2,0.7-0.3,1-0.5C83.7,72,82.6,72.3,81.4,72.3z"/>
			<path class="st2" d="M104,37.8c-0.3-5-1.2-9.7-2.8-13.9c-0.8-2.2-2-4.3-3.4-6.3c-1.3-1.8-2.7-3.5-4.3-5.2
				C89,7.6,83.5,4.2,77.2,2.2C69.7-0.2,62-0.2,54.3,2.1c-0.3,0.1-0.6,0.2-0.9,0.3c0,0,0,0,0,0C49.7,3.6,46.1,5.5,42.7,8
				c-4.3,3.2-7.8,7.3-10.6,12.1c-1.8,3.2-2.9,6.7-3.3,10.6c0.6-2.2,2-4.1,4.2-5.2c4-2,8.8-0.3,10.8,3.6c0.4,0.9,0.7,1.8,0.8,2.7
				c0-0.3,0.1-0.6,0.1-0.8c0.7-4.4,3.3-8.1,8.2-11.3c1.9-1.2,3.8-2.2,5.8-2.8c5.1-1.7,10.4-1.4,15.9,0.8
				c8.6,3.5,14.3,12.7,13.7,21.8c-0.3,4.2-1.2,7.4-2.9,10.2c-1.8,2.8-4,5.2-6.6,6.9c3.7-1.2,7.8,0.5,9.6,4c1.9,3.9,0.4,8.7-3.5,10.6
				c7.9-3.9,13.9-10.9,16.7-19.3v0c0.4-1.2,0.8-2.4,1.2-3.5l0,0l0,0C103.7,45,104.1,41.4,104,37.8z"/>
			<path class="st3" d="M84.9,71.5C84.9,71.5,84.9,71.5,84.9,71.5C84.9,71.5,84.9,71.5,84.9,71.5C84.8,71.5,84.9,71.5,84.9,71.5z"/>
			<path class="st4" d="M88.5,60.8c-1.8-3.6-5.9-5.2-9.6-4c-0.4,0.1-0.7,0.3-1.1,0.4c-0.6,0.3-1.1,0.7-1.6,1.1
				c-2.7,2.3-3.6,6.3-2,9.6c1.3,2.7,4,4.3,6.8,4.4c0.1,0,0.3,0,0.4,0c1.1,0,2.3-0.3,3.4-0.8c0,0,0.1,0,0.1-0.1
				C88.8,69.5,90.4,64.7,88.5,60.8z"/>
		</g>
		<path class="st5" d="M44.7,32c-0.1-1.2-0.5-2.4-1.3-3.6c-2-3.2-6.1-4.5-9.6-3.1c-2.6,1-4.3,3.1-4.9,5.5c-0.3,1.1-0.4,2.3-0.2,3.4
			c0.1,0.7,0.4,1.5,0.7,2.2c0.8,1.6,2.1,2.8,3.5,3.6c2.2,1.1,4.9,1.2,7.3,0.1C43.4,38.5,45.1,35.2,44.7,32z"/>
	</g>
	<g>
		<path class="st0" d="M22.6,58.3c0.1,0,0.3,0,0.4,0C22.8,58.3,22.7,58.3,22.6,58.3z"/>
		<path class="st6" d="M70.6,42.7c-1.9-3.9-6.6-5.4-10.5-3.5c-0.3,0.2-0.6,0.3-0.9,0.5l-2.3,1c-0.5,0.2-36.8,18-36.8,18
			c-0.3,0.2-0.7,0.3-1,0.5c1.1-0.5,2.3-0.8,3.4-0.8c0.1,0,0.3,0,0.4,0c2.8,0.1,5.5,1.7,6.8,4.4c1.7,3.3,0.8,7.3-2,9.6
			c6.1-3,32.2-15.9,38-18.7c0,0,0,0,0,0c0.4-0.1,0.8-0.3,1.2-0.5C70.9,51.2,72.5,46.6,70.6,42.7z"/>
		<path class="st7" d="M0,92.9c0.3,5,1.2,9.7,2.8,13.9c0.8,2.2,2,4.3,3.4,6.3c1.3,1.8,2.7,3.5,4.3,5.2c4.6,4.8,10.1,8.2,16.3,10.2
			c7.5,2.4,15.2,2.4,22.9,0.1c0.3-0.1,0.6-0.2,0.9-0.3c0,0,0,0,0,0c3.7-1.2,7.3-3.1,10.6-5.7c4.3-3.2,7.8-7.3,10.6-12.1
			c1.8-3.2,2.9-6.7,3.3-10.6c-0.6,2.2-2,4.1-4.2,5.2c-4,2-8.8,0.3-10.8-3.6c-0.4-0.9-0.7-1.8-0.8-2.7c0,0.3-0.1,0.6-0.1,0.8
			c-0.7,4.4-3.3,8.1-8.2,11.3c-1.9,1.2-3.8,2.2-5.8,2.8c-5.1,1.7-10.4,1.4-15.9-0.8C20.8,109.3,15,100.1,15.6,91
			c0.3-4.2,1.2-7.4,2.9-10.2c1.8-2.8,4-5.2,6.6-6.9c-3.7,1.2-7.8-0.5-9.6-4c-1.9-3.9-0.4-8.7,3.5-10.6C11.2,63.2,5.1,70.1,2.4,78.6
			v0c-0.4,1.2-0.8,2.4-1.2,3.5l0,0l0,0C0.3,85.7-0.1,89.3,0,92.9z"/>
		<path class="st3" d="M19.1,59.2C19.1,59.2,19.1,59.2,19.1,59.2C19.1,59.2,19.1,59.2,19.1,59.2C19.2,59.2,19.1,59.2,19.1,59.2z"/>
		<path class="st8" d="M29.8,62.8c-1.3-2.7-4-4.3-6.8-4.4c-0.1,0-0.3,0-0.4,0c-1.1,0-2.3,0.3-3.4,0.8c0,0-0.1,0-0.1,0.1
			c-3.9,2-5.5,6.7-3.5,10.6c1.8,3.6,5.9,5.2,9.6,4l0,0c0.4-0.1,0.7-0.3,1.1-0.4c0.6-0.3,1.1-0.7,1.6-1.1
			C30.5,70.1,31.5,66.1,29.8,62.8z"/>
	</g>
	<path class="st9" d="M75.2,96.5c-0.1-0.7-0.4-1.5-0.7-2.2c-0.8-1.6-2.1-2.8-3.5-3.6c-2.2-1.1-4.9-1.2-7.3-0.1
		c-3.1,1.5-4.8,4.8-4.4,8c0.1,1.2,0.5,2.4,1.3,3.6c2,3.2,6.1,4.5,9.6,3.1c2.6-1,4.3-3.1,4.9-5.5C75.4,98.8,75.4,97.7,75.2,96.5z"/>
	<path class="st10" d="M75.2,96.5c-0.1-0.7-0.4-1.5-0.7-2.2c-0.8-1.6-2.1-2.8-3.5-3.6c-2.2-1.1-4.9-1.2-7.3-0.1
		c-3.1,1.5-4.8,4.8-4.4,8c0.1,1.2,0.5,2.4,1.3,3.6c2,3.2,6.1,4.5,9.6,3.1c2.6-1,4.3-3.1,4.9-5.5C75.4,98.8,75.4,97.7,75.2,96.5z"/>
</g>
</svg>
