<svg width="54" height="60" viewBox="0 0 54 60" fill="none" xmlns="http://www.w3.org/2000/svg">
<path d="M23.0558 8.13752L1.22179 26.5558C-0.0507431 27.527 -0.385621 29.3018 0.485062 30.6748L6.11101 39.4151L13.9472 51.5712L41.6081 28.6321L27.0409 8.7403C26.1032 7.46777 24.3284 7.19987 23.0558 8.13752Z" fill="#00E8D7"/>
<path d="M49.0094 16.9116L4.06873 28.197C1.1553 29.1346 0.987856 31.4788 2.12644 33.2201L18.1671 57.9676C18.9038 59.1062 20.2768 59.642 21.5494 59.3071L50.4159 51.9063C51.7554 51.5715 52.2577 50.165 52.1907 48.8924L53.1954 19.3897C53.1284 17.2799 50.8512 16.4427 49.0094 16.9116Z" fill="url(#paint0_linear_163_1197)"/>
<path d="M6.37903 46.3808L13.5454 57.6997C13.7798 58.0345 13.5789 58.5034 13.1771 58.6038L7.95295 59.9768C7.61807 60.0773 7.24971 59.8429 7.21622 59.4745L5.27393 46.7826C5.17346 46.1798 6.01066 45.845 6.37903 46.3808Z" fill="#7664F9"/>
<path d="M39.4977 15.1698C41.2548 15.1698 42.6791 13.7455 42.6791 11.9885C42.6791 10.2315 41.2548 8.80713 39.4977 8.80713C37.7407 8.80713 36.3164 10.2315 36.3164 11.9885C36.3164 13.7455 37.7407 15.1698 39.4977 15.1698Z" fill="#00E8D7"/>
<path d="M48.2045 8.3045C49.4991 8.3045 50.5486 7.25499 50.5486 5.96036C50.5486 4.66572 49.4991 3.61621 48.2045 3.61621C46.9099 3.61621 45.8604 4.66572 45.8604 5.96036C45.8604 7.25499 46.9099 8.3045 48.2045 8.3045Z" fill="#43EFDE"/>
<path d="M35.5128 4.15249C36.6594 4.15249 37.589 3.22292 37.589 2.07624C37.589 0.929566 36.6594 0 35.5128 0C34.3661 0 33.4365 0.929566 33.4365 2.07624C33.4365 3.22292 34.3661 4.15249 35.5128 4.15249Z" fill="#43EFDE"/>
<path d="M1.48926 30.8758L1.69018 30.0386C1.58972 30.34 1.52275 30.6079 1.48926 30.8758Z" fill="url(#paint1_linear_163_1197)"/>
<path d="M7.01526 27.46L4.06833 28.1967C2.7958 28.5985 2.05906 29.2683 1.6907 30.0385L1.48977 30.8757C1.4228 31.6794 1.65721 32.4831 2.12604 33.2199L13.7128 51.1024L39.331 54.7525L47.7364 52.6093L36.9534 31.6459L7.01526 27.46Z" fill="url(#paint2_linear_163_1197)"/>
<path d="M7.01526 27.46L4.06833 28.1967C2.7958 28.5985 2.05906 29.2683 1.6907 30.0385L1.48977 30.8757C1.4228 31.6794 1.65721 32.4831 2.12604 33.2199L13.7128 51.1024L39.331 54.7525L47.7364 52.6093L36.9534 31.6459L7.01526 27.46Z" fill="url(#paint3_linear_163_1197)"/>
<defs>
<linearGradient id="paint0_linear_163_1197" x1="15.7835" y1="59.0693" x2="41.2061" y2="15.8814" gradientUnits="userSpaceOnUse">
<stop stop-color="#211F84"/>
<stop offset="0.6359" stop-color="#3B38CD"/>
<stop offset="1" stop-color="#4844F2"/>
</linearGradient>
<linearGradient id="paint1_linear_163_1197" x1="2.16827" y1="30.712" x2="45.8281" y2="49.2069" gradientUnits="userSpaceOnUse">
<stop stop-color="#211F84"/>
<stop offset="0.1969" stop-color="#222088"/>
<stop offset="0.3865" stop-color="#262493"/>
<stop offset="0.5731" stop-color="#2D2BA7"/>
<stop offset="0.7578" stop-color="#3734C2"/>
<stop offset="0.9397" stop-color="#4340E5"/>
<stop offset="1" stop-color="#4844F2"/>
</linearGradient>
<linearGradient id="paint2_linear_163_1197" x1="1.86205" y1="31.4361" x2="45.5219" y2="49.9309" gradientUnits="userSpaceOnUse">
<stop stop-color="#4B4BF9"/>
<stop offset="0.2504" stop-color="#4A48F6" stop-opacity="0.7496"/>
<stop offset="1" stop-color="#4844F2" stop-opacity="0"/>
</linearGradient>
<linearGradient id="paint3_linear_163_1197" x1="11.0919" y1="31.4868" x2="30.4907" y2="44.9638" gradientUnits="userSpaceOnUse">
<stop stop-color="#4B4BF9"/>
<stop offset="0.2766" stop-color="#4947F5" stop-opacity="0.7234"/>
<stop offset="1" stop-color="#4844F2" stop-opacity="0"/>
</linearGradient>
</defs>
</svg>
