<svg width="21" height="21" viewBox="0 0 21 21" fill="none" xmlns="http://www.w3.org/2000/svg">
<path d="M3.56572 3.57702C5.32685 1.82847 7.85533 1.6272 10.9373 1.6272C14.0319 1.6272 16.5603 1.82847 18.3215 3.57702C20.0826 5.32557 20.2461 7.85404 20.2461 10.9486C20.2461 14.0432 20.0574 16.5716 18.3215 18.3202C16.5603 20.0813 14.0319 20.2448 10.9373 20.2448C7.84275 20.2448 5.31427 20.0561 3.55314 18.3202C1.79202 16.559 1.62848 14.0306 1.62848 10.9486C1.6159 7.85404 1.8046 5.32557 3.56572 3.57702Z" fill="white"/>
<path d="M6.38449 8.83538H9.73063C10.0954 8.83538 10.3973 8.53347 10.3973 8.16867C10.3973 7.80386 10.0954 7.50195 9.73063 7.50195H6.38449C6.01968 7.50195 5.71777 7.80386 5.71777 8.16867C5.74293 8.54605 6.03226 8.83538 6.38449 8.83538Z" fill="white"/>
<path d="M14.6239 10.5588L13.3031 7.9549C13.0389 7.45172 12.347 7.41398 12.108 7.9549L9.69275 12.7225C9.57954 12.9364 9.36569 13.0873 9.1141 13.0873H6.45983C6.1076 13.0873 5.80569 13.3389 5.78053 13.6911C5.74279 14.0937 6.0447 14.4082 6.43467 14.4082H9.93176C10.1834 14.4082 10.3972 14.2824 10.5104 14.0559L12.7244 9.67829L13.4792 11.1627C13.5924 11.4017 13.8314 11.5275 14.0578 11.5275C14.1585 11.5275 14.2591 11.5149 14.3597 11.4646C14.6616 11.2633 14.7874 10.8733 14.6239 10.5588Z" fill="white"/>
<path d="M16.083 13.4394L15.5798 12.4456C15.4163 12.1185 15.0138 11.9927 14.6993 12.1437C14.3722 12.3072 14.2464 12.7098 14.3974 13.0243L14.9005 14.018C15.0138 14.2571 15.2528 14.3828 15.4792 14.3828C15.5798 14.3828 15.6805 14.3703 15.7811 14.32C16.1208 14.1564 16.234 13.7539 16.083 13.4394Z" fill="white"/>
<path d="M6.38449 11.603H8.33431C8.69911 11.603 9.00102 11.301 9.00102 10.9362C9.00102 10.5714 8.69911 10.2695 8.33431 10.2695H6.38449C6.01968 10.2695 5.71777 10.5714 5.71777 10.9362C5.74293 11.3136 6.03226 11.603 6.38449 11.603Z" fill="white"/>
<path d="M6.38449 8.80999H9.73063C10.0954 8.80999 10.3973 8.50808 10.3973 8.14328C10.3973 7.77847 10.0954 7.47656 9.73063 7.47656H6.38449C6.01968 7.47656 5.71777 7.77847 5.71777 8.14328C5.74293 8.52066 6.03226 8.80999 6.38449 8.80999Z" fill="#23282D"/>
<path d="M14.6239 10.5335L13.3031 7.92951C13.0389 7.42633 12.347 7.38859 12.108 7.92951L9.69275 12.6971C9.57954 12.911 9.36569 13.0619 9.1141 13.0619H6.45983C6.1076 13.0619 5.80569 13.3135 5.78053 13.6658C5.74279 14.0683 6.0447 14.3828 6.43467 14.3828H9.93176C10.1834 14.3828 10.3972 14.257 10.5104 14.0306L12.7244 9.6529L13.4792 11.1373C13.5924 11.3763 13.8314 11.5021 14.0578 11.5021C14.1585 11.5021 14.2591 11.4895 14.3597 11.4392C14.6616 11.2505 14.7874 10.8479 14.6239 10.5335Z" fill="#23282D"/>
<path d="M16.083 13.414L15.5798 12.4202C15.4163 12.0932 15.0138 11.9674 14.6993 12.1183C14.3722 12.2818 14.2464 12.6844 14.3974 12.9989L14.9005 13.9927C15.0138 14.2317 15.2528 14.3575 15.4792 14.3575C15.5798 14.3575 15.6805 14.3449 15.7811 14.2946C16.1208 14.131 16.234 13.7285 16.083 13.414Z" fill="#23282D"/>
<path d="M6.38449 11.59H8.33431C8.69911 11.59 9.00102 11.2881 9.00102 10.9233C9.00102 10.5585 8.69911 10.2566 8.33431 10.2566H6.38449C6.01968 10.2566 5.71777 10.5585 5.71777 10.9233C5.74293 11.2881 6.03226 11.59 6.38449 11.59Z" fill="#23282D"/>
</svg>
