<?xml version="1.0" encoding="UTF-8"?>
<svg width="20px" height="20px" viewBox="0 0 500 500" version="1.1" xmlns="http://www.w3.org/2000/svg" xmlns:xlink="http://www.w3.org/1999/xlink">
    <!-- Generator: Sketch 52.4 (67378) - http://www.bohemiancoding.com/sketch -->
    <title>Layout</title>
    <desc>Created with Sketch.</desc>
    <g id="Page-1" stroke="none" stroke-width="1" fill="none" fill-rule="evenodd">
        <g id="EA-Icon-White" transform="translate(-6.000000, -6.000000)">
            <g id="Layout" transform="translate(6.000000, 6.000000)">
                <circle id="Oval" fill="#FFFFFF" cx="250" cy="250" r="250"></circle>
                <path d="M99.7198474,162 L184.587381,162 L184.993446,162.201576 L185.297995,162.201576 C190.37383,162.201576 194.502113,164.788436 197.68297,169.962234 C198.765815,172.112383 199.307229,174.329692 199.307229,176.614226 C199.307229,182.191177 196.532481,186.491412 190.982901,189.51506 C189.087923,190.388559 187.192973,190.825301 185.297995,190.825301 L98.8062017,190.825301 C94.7455338,190.825301 91.1586644,188.977544 88.0454857,185.281974 C86.0151517,182.594287 85,179.839449 85,177.017377 L85,175.807924 C85,171.37324 87.2333338,167.576939 91.7000685,164.418906 C94.1364692,162.940678 96.538995,162.201576 98.9077179,162.201576 L99.3137827,162.201576 L99.7198474,162 Z M99.5162779,233.566265 L143.268136,233.768548 C146.178174,233.768548 149.291191,235.25194 152.60728,238.21877 C155.246617,241.253027 156.566265,244.556947 156.566265,248.130628 C156.566265,253.120296 154.231502,257.199625 149.561907,260.368738 C147.260947,261.717297 145.027696,262.391566 142.862087,262.391566 L98.602666,262.391566 C94.2714472,262.391566 90.5155247,260.233904 87.334786,255.918516 C85.7782542,253.49111 85,251.063741 85,248.636335 L85,247.422638 C85,242.837538 87.4024369,238.893062 92.2073827,235.589093 C94.6436933,234.37539 96.9446188,233.768548 99.1102281,233.768548 L99.313253,233.768548 C99.4486036,233.768548 99.5162779,233.701121 99.5162779,233.566265 Z M184.540583,233.566265 L185.248573,233.566265 C190.710237,233.566265 194.991847,236.41821 198.093532,242.122185 C198.902667,244.159319 199.307229,246.128519 199.307229,248.029844 C199.307229,253.733819 196.509011,258.113591 190.912492,261.169292 C188.889654,261.984146 187.10284,262.391566 185.551997,262.391566 L184.136018,262.391566 C179.550918,262.391566 175.640156,259.980994 172.403614,255.159777 C171.122484,252.715216 170.481928,250.304644 170.481928,247.927988 C170.481928,242.359821 173.246432,238.014001 178.775523,234.890396 C180.865789,234.007637 182.787457,233.566265 184.540583,233.566265 Z M99.7198474,306.126506 L184.587381,306.126506 C184.587381,306.262315 185.636372,306.432074 187.734383,306.635787 C191.253629,307.518545 193.926862,309.114276 195.754162,311.423028 C198.122885,314.207111 199.307229,317.398573 199.307229,320.997509 C199.307229,326.497771 196.532481,330.843592 190.982901,334.035102 C189.290956,334.646242 188.140451,334.951807 187.531351,334.951807 L96.7758779,334.951807 C94.407155,334.951807 91.5647301,333.356076 88.2485181,330.164566 C86.0828285,327.244674 85,324.290874 85,321.303078 L85,320.386372 C85,315.361442 87.5378793,311.253283 92.6137142,308.061774 C94.1026257,307.179016 96.4036363,306.567885 99.516815,306.228362 C99.516815,306.160458 99.5844918,306.126506 99.7198474,306.126506 Z M328.836284,163.987952 L330.041973,163.987952 C335.266652,163.987952 339.586995,166.61038 343.003132,171.855315 C368.52368,222.758082 381.451218,248.747018 381.786134,249.822902 C382.723897,253.117797 383.192771,255.101429 383.192771,255.773856 C383.192771,261.825705 380.279051,266.566248 374.451525,269.995629 C371.973151,271.205998 369.528306,271.811174 367.116915,271.811174 C361.892236,271.811174 357.504911,269.424092 353.954808,264.649856 C353.55291,264.044671 346.41932,249.789421 332.553825,221.883676 C331.616062,220.942278 330.57784,220.471585 329.439128,220.471585 C327.29567,220.471585 325.554137,222.354354 324.214475,226.119949 L272.771737,328.294808 C270.762245,331.320732 267.815034,333.472468 263.930016,334.75008 C263.394152,334.884565 262.925277,334.951807 262.523379,334.951807 L257.198251,334.951807 C254.853844,334.951807 252.074089,333.606972 248.858901,330.917262 C245.643714,327.622367 244.036145,323.789587 244.036145,319.418808 C244.036145,316.392884 246.313535,310.677335 250.868383,302.271991 C250.868383,302.070262 268.61863,266.465756 304.119656,195.457405 C311.889691,179.7226 316.07607,171.418244 316.678918,170.544088 C320.22902,166.173309 324.281435,163.987952 328.836284,163.987952 Z M398.89759,308.114458 L400.189759,308.114458 C405.225929,308.114458 409.433718,310.673784 412.813253,315.792514 C414.271092,318.553934 415,321.146936 415,323.571598 C415,329.431197 412.216895,334.078395 406.650602,337.513332 C404.662641,338.456256 403.171692,338.927711 402.177711,338.927711 L397.009036,338.927711 C394.623482,338.927711 391.774113,337.445995 388.460843,334.48252 C385.611432,331.182286 384.186747,327.579024 384.186747,323.672625 C384.186747,318.688598 386.274076,314.47918 390.448795,311.044243 C393.298207,309.091043 396.114444,308.114458 398.89759,308.114458 Z" id="EA" fill="#23282D"></path>
            </g>
        </g>
    </g>
</svg>