<?xml version="1.0" encoding="utf-8"?>
<!-- Generator: Adobe Illustrator 23.0.0, SVG Export Plug-In . SVG Version: 6.00 Build 0)  -->
<svg version="1.1" id="Layer_1" xmlns="http://www.w3.org/2000/svg" xmlns:xlink="http://www.w3.org/1999/xlink" x="0px" y="0px"
	 viewBox="0 0 35 35" style="enable-background:new 0 0 35 35;" xml:space="preserve">
<style type="text/css">
	.st0{fill-rule:evenodd;clip-rule:evenodd;fill:url(#Oval-2_1_);}
	.st1{fill-rule:evenodd;clip-rule:evenodd;}
	.st2{fill-rule:evenodd;clip-rule:evenodd;fill:#FFFFFF;}
	.st3{opacity:0.9132;}
	.st4{fill-rule:evenodd;clip-rule:evenodd;fill:#A43DFF;}
	.st5{fill-rule:evenodd;clip-rule:evenodd;fill:#F5A623;}
	.st6{fill-rule:evenodd;clip-rule:evenodd;fill:#D8D8D8;}
	.st7{opacity:0.8979;fill-rule:evenodd;clip-rule:evenodd;fill:url(#Fill-1_1_);enable-background:new    ;}
	.st8{opacity:9.687500e-02;fill-rule:evenodd;clip-rule:evenodd;fill:#FFFFFF;enable-background:new    ;}
</style>
<g id="EA-Logo">
	<g id="Group-5" transform="translate(29.000000, 19.000000)">
		
			<linearGradient id="Oval-2_1_" gradientUnits="userSpaceOnUse" x1="-811.9344" y1="790.0274" x2="-811.9344" y2="789.944" gradientTransform="matrix(374 0 0 -374 303651 295453)">
			<stop  offset="0" style="stop-color:#2460FF"/>
			<stop  offset="1" style="stop-color:#B80AFF"/>
		</linearGradient>
		<circle id="Oval-2" class="st0" cx="-12.5" cy="-1.6" r="15.6"/>
		<g id="EA_1_">
			<g>
				<path id="path-2_1_" class="st1" d="M-20.8-7.1h4.9l0,0h0c0.3,0,0.5,0.2,0.7,0.5c0.1,0.1,0.1,0.3,0.1,0.4c0,0.3-0.2,0.6-0.5,0.8
					c-0.1,0.1-0.2,0.1-0.3,0.1h-5c-0.2,0-0.4-0.1-0.6-0.3c-0.1-0.2-0.2-0.3-0.2-0.5v-0.1c0-0.3,0.1-0.5,0.4-0.7
					C-21.2-7-21-7.1-20.8-7.1L-20.8-7.1L-20.8-7.1z M-20.9-2.9l2.5,0c0.2,0,0.3,0.1,0.5,0.3c0.2,0.2,0.2,0.4,0.2,0.6
					c0,0.3-0.1,0.5-0.4,0.7c-0.1,0.1-0.3,0.1-0.4,0.1h-2.6c-0.3,0-0.5-0.1-0.7-0.4c-0.1-0.1-0.1-0.3-0.1-0.4v-0.1
					c0-0.3,0.1-0.5,0.4-0.7C-21.1-2.8-21-2.9-20.9-2.9L-20.9-2.9C-20.9-2.9-20.9-2.9-20.9-2.9z M-15.9-2.9L-15.9-2.9
					c0.4,0,0.6,0.2,0.8,0.5c0,0.1,0.1,0.2,0.1,0.3c0,0.3-0.2,0.6-0.5,0.8c-0.1,0-0.2,0.1-0.3,0.1H-16c-0.3,0-0.5-0.1-0.7-0.4
					c-0.1-0.1-0.1-0.3-0.1-0.4c0-0.3,0.2-0.6,0.5-0.8C-16.2-2.9-16-2.9-15.9-2.9z M-20.8,1.3h4.9c0,0,0.1,0,0.2,0
					c0.2,0.1,0.4,0.1,0.5,0.3c0.1,0.2,0.2,0.3,0.2,0.6c0,0.3-0.2,0.6-0.5,0.8c-0.1,0-0.2,0.1-0.2,0.1H-21c-0.1,0-0.3-0.1-0.5-0.3
					c-0.1-0.2-0.2-0.3-0.2-0.5V2.1c0-0.3,0.1-0.5,0.4-0.7C-21.2,1.3-21,1.3-20.8,1.3C-20.9,1.3-20.8,1.3-20.8,1.3z M-7.5-7L-7.5-7
					c0.4,0,0.6,0.2,0.8,0.5c1.5,3,2.2,4.5,2.3,4.5c0.1,0.2,0.1,0.3,0.1,0.3c0,0.4-0.2,0.6-0.5,0.8C-5-0.8-5.2-0.7-5.3-0.7
					c-0.3,0-0.6-0.1-0.8-0.4c0,0-0.4-0.9-1.2-2.5c-0.1-0.1-0.1-0.1-0.2-0.1c-0.1,0-0.2,0.1-0.3,0.3l-3,5.9c-0.1,0.2-0.3,0.3-0.5,0.4
					c0,0-0.1,0-0.1,0h-0.3c-0.1,0-0.3-0.1-0.5-0.2c-0.2-0.2-0.3-0.4-0.3-0.7c0-0.2,0.1-0.5,0.4-1c0,0,1-2.1,3.1-6.2
					c0.5-0.9,0.7-1.4,0.7-1.4C-8-6.9-7.8-7-7.5-7z M-3.5,1.2L-3.5,1.2c0.4,0,0.6,0.1,0.8,0.4c0.1,0.2,0.1,0.3,0.1,0.5
					c0,0.3-0.2,0.6-0.5,0.8c-0.1,0.1-0.2,0.1-0.3,0.1h-0.3c-0.1,0-0.3-0.1-0.5-0.3c-0.2-0.2-0.3-0.4-0.3-0.6c0-0.3,0.1-0.5,0.4-0.7
					C-3.8,1.2-3.6,1.2-3.5,1.2z"/>
			</g>
			<g>
				<path class="st2" d="M-20.8-7.1h4.9l0,0h0c0.3,0,0.5,0.2,0.7,0.5c0.1,0.1,0.1,0.3,0.1,0.4c0,0.3-0.2,0.6-0.5,0.8
					c-0.1,0.1-0.2,0.1-0.3,0.1h-5c-0.2,0-0.4-0.1-0.6-0.3c-0.1-0.2-0.2-0.3-0.2-0.5v-0.1c0-0.3,0.1-0.5,0.4-0.7
					C-21.2-7-21-7.1-20.8-7.1L-20.8-7.1L-20.8-7.1z M-20.9-2.9l2.5,0c0.2,0,0.3,0.1,0.5,0.3c0.2,0.2,0.2,0.4,0.2,0.6
					c0,0.3-0.1,0.5-0.4,0.7c-0.1,0.1-0.3,0.1-0.4,0.1h-2.6c-0.3,0-0.5-0.1-0.7-0.4c-0.1-0.1-0.1-0.3-0.1-0.4v-0.1
					c0-0.3,0.1-0.5,0.4-0.7C-21.1-2.8-21-2.9-20.9-2.9L-20.9-2.9C-20.9-2.9-20.9-2.9-20.9-2.9z M-15.9-2.9L-15.9-2.9
					c0.4,0,0.6,0.2,0.8,0.5c0,0.1,0.1,0.2,0.1,0.3c0,0.3-0.2,0.6-0.5,0.8c-0.1,0-0.2,0.1-0.3,0.1H-16c-0.3,0-0.5-0.1-0.7-0.4
					c-0.1-0.1-0.1-0.3-0.1-0.4c0-0.3,0.2-0.6,0.5-0.8C-16.2-2.9-16-2.9-15.9-2.9z M-20.8,1.3h4.9c0,0,0.1,0,0.2,0
					c0.2,0.1,0.4,0.1,0.5,0.3c0.1,0.2,0.2,0.3,0.2,0.6c0,0.3-0.2,0.6-0.5,0.8c-0.1,0-0.2,0.1-0.2,0.1H-21c-0.1,0-0.3-0.1-0.5-0.3
					c-0.1-0.2-0.2-0.3-0.2-0.5V2.1c0-0.3,0.1-0.5,0.4-0.7C-21.2,1.3-21,1.3-20.8,1.3C-20.9,1.3-20.8,1.3-20.8,1.3z M-7.5-7L-7.5-7
					c0.4,0,0.6,0.2,0.8,0.5c1.5,3,2.2,4.5,2.3,4.5c0.1,0.2,0.1,0.3,0.1,0.3c0,0.4-0.2,0.6-0.5,0.8C-5-0.8-5.2-0.7-5.3-0.7
					c-0.3,0-0.6-0.1-0.8-0.4c0,0-0.4-0.9-1.2-2.5c-0.1-0.1-0.1-0.1-0.2-0.1c-0.1,0-0.2,0.1-0.3,0.3l-3,5.9c-0.1,0.2-0.3,0.3-0.5,0.4
					c0,0-0.1,0-0.1,0h-0.3c-0.1,0-0.3-0.1-0.5-0.2c-0.2-0.2-0.3-0.4-0.3-0.7c0-0.2,0.1-0.5,0.4-1c0,0,1-2.1,3.1-6.2
					c0.5-0.9,0.7-1.4,0.7-1.4C-8-6.9-7.8-7-7.5-7z M-3.5,1.2L-3.5,1.2c0.4,0,0.6,0.1,0.8,0.4c0.1,0.2,0.1,0.3,0.1,0.5
					c0,0.3-0.2,0.6-0.5,0.8c-0.1,0.1-0.2,0.1-0.3,0.1h-0.3c-0.1,0-0.3-0.1-0.5-0.3c-0.2-0.2-0.3-0.4-0.3-0.6c0-0.3,0.1-0.5,0.4-0.7
					C-3.8,1.2-3.6,1.2-3.5,1.2z"/>
			</g>
		</g>
		<g id="Oval-3" class="st3">
			<g>
				<circle id="path-4" class="st1" cx="-1.5" cy="-14" r="4.6"/>
			</g>
			<g>
				<circle class="st2" cx="-1.5" cy="-14" r="4.6"/>
			</g>
		</g>
		<g>
			<g>
				<circle id="path-6" class="st1" cx="-1.4" cy="-13.9" r="1.4"/>
			</g>
			<g>
				<circle class="st4" cx="-1.4" cy="-13.9" r="1.4"/>
			</g>
		</g>
		
			<g id="Oval-3-Copy-2" transform="translate(63.500000, 348.500000) rotate(-7.000000) translate(-63.500000, -348.500000) " class="st3">
			<g>
				<circle id="path-8" class="st1" cx="19.1" cy="2.1" r="0.8"/>
			</g>
			<g>
				<circle class="st2" cx="19.1" cy="2.1" r="0.8"/>
			</g>
		</g>
		<circle id="Oval-3-Copy-4" class="st5" cx="4.1" cy="-9.2" r="1"/>
		<circle id="Oval-3-Copy-5" class="st6" cx="-6.6" cy="-18.2" r="0.8"/>
		
			<linearGradient id="Fill-1_1_" gradientUnits="userSpaceOnUse" x1="-806.8762" y1="791.6802" x2="-806.9372" y2="791.5967" gradientTransform="matrix(94.2614 63.5801 63.6147 -94.3127 25683.3633 125977.8984)">
			<stop  offset="0" style="stop-color:#FF710F"/>
			<stop  offset="1" style="stop-color:#CB16A9"/>
		</linearGradient>
		<path id="Fill-1" class="st7" d="M-13.8,10c-0.6,0.1-1.1,0.5-1.5,0.9c-0.4,0.5-0.9,0.8-1.5,0.9c-0.6,0.1-1.2,0-1.8-0.3
			c-0.5-0.3-1.2-0.4-1.8-0.3c-0.6,0.1-1.1,0.5-1.4,1l0,0c-0.3,0.5-0.5,1.1-0.4,1.7c0.2,1.4,1.5,2.3,2.9,2c0.6-0.1,1.1-0.5,1.5-0.9
			c0.4-0.5,0.9-0.8,1.5-0.9c0.6-0.1,1.2,0,1.8,0.3c0.5,0.3,1.2,0.4,1.8,0.3c0.6-0.1,1.1-0.5,1.4-1l0,0c0.3-0.5,0.5-1.1,0.4-1.7
			c-0.1-0.7-0.5-1.3-1-1.7C-12.5,10-13.1,9.8-13.8,10"/>
		<path class="st8" d="M-9.6-15.5c-0.6,0-1.1,0.5-1.1,1.1c0,0.3,0.1,0.5,0.3,0.7c0.2,0.2,0.3,0.5,0.3,0.8h0c0,0.3-0.1,0.5-0.3,0.7
			c-0.2,0.2-0.5,0.3-0.7,0.3c-0.3,0-0.6-0.1-0.8-0.3c-0.2-0.2-0.5-0.3-0.7-0.3c-0.6,0-1.1,0.5-1.1,1.2c0,0.6,0.5,1,1.1,1.1
			c0.3,0,0.6-0.1,0.8-0.3c0.2-0.2,0.5-0.3,0.8-0.3c0.3,0,0.6,0.1,0.8,0.3c0.2,0.2,0.5,0.3,0.7,0.3c0.1,0,0.3,0,0.4-0.1c0,0,0,0,0,0
			c0,0,0,0,0,0c0,0,0,0,0,0c0,0,0,0,0,0c0,0,0,0,0,0c0,0,0,0,0,0c0,0,0,0,0,0c0,0,0,0,0,0c0,0,0,0,0,0c0,0,0,0,0,0c0,0,0,0,0,0
			c0,0,0,0,0,0c0,0,0,0,0,0c0,0,0,0,0,0c0,0,0,0,0,0c0,0,0,0,0,0c0,0,0,0,0,0s0,0,0,0c0,0,0,0,0,0c0,0,0,0,0,0c0,0,0,0,0,0
			c0,0,0,0,0,0c0,0,0,0,0,0c0,0,0,0,0,0c0,0,0,0,0,0c0,0,0,0,0,0c0,0,0,0,0,0c0,0,0,0,0,0c0,0,0,0,0,0c0,0,0,0,0,0c0,0,0,0,0,0
			c0,0,0,0,0,0c0,0,0,0,0,0l0,0c0-0.1,0.1-0.3,0.1-0.4c0-0.3-0.1-0.5-0.3-0.7c-0.2-0.2-0.3-0.5-0.3-0.8c0-0.3,0.1-0.6,0.3-0.8
			c0.2-0.2,0.3-0.5,0.3-0.8C-8.5-15-9-15.5-9.6-15.5C-9.6-15.5-9.6-15.5-9.6-15.5L-9.6-15.5z"/>
	</g>
</g>
</svg>
