<?xml version="1.0" encoding="utf-8"?>
<!-- Generator: Adobe Illustrator 23.0.0, SVG Export Plug-In . SVG Version: 6.00 Build 0)  -->
<svg version="1.1" id="Layer_1" xmlns="http://www.w3.org/2000/svg" xmlns:xlink="http://www.w3.org/1999/xlink" x="0px" y="0px"
	 viewBox="0 0 35 35" style="enable-background:new 0 0 35 35;" xml:space="preserve">
<style type="text/css">
	.st0{fill-rule:evenodd;clip-rule:evenodd;fill:#F7F7F7;}
</style>
<g id="EA">
	<g>
		<path id="path-2" class="st0" d="M1.6,8.4h8.9l0,0h0c0.5,0,1,0.3,1.3,0.8c0.1,0.2,0.2,0.5,0.2,0.7c0,0.6-0.3,1-0.9,1.4
			c-0.2,0.1-0.4,0.1-0.6,0.1H1.5c-0.4,0-0.8-0.2-1.1-0.6C0.1,10.5,0,10.3,0,10V9.8C0,9.4,0.3,9,0.7,8.6C1,8.5,1.3,8.4,1.6,8.4
			L1.6,8.4L1.6,8.4z M1.6,16l4.6,0c0.3,0,0.6,0.2,1,0.5c0.3,0.3,0.4,0.7,0.4,1c0,0.5-0.2,1-0.7,1.3C6.6,19,6.4,19,6.1,19H1.5
			c-0.5,0-0.9-0.2-1.2-0.7C0.1,18.1,0,17.9,0,17.6v-0.1c0-0.5,0.3-0.9,0.8-1.3C1.1,16.1,1.3,16,1.6,16L1.6,16C1.6,16,1.6,16,1.6,16z
			 M10.5,16L10.5,16c0.7,0,1.1,0.3,1.4,0.9c0.1,0.2,0.1,0.4,0.1,0.6c0,0.6-0.3,1.1-0.9,1.4C11,19,10.8,19,10.6,19h-0.1
			c-0.5,0-0.9-0.3-1.2-0.8C9.1,18,9,17.8,9,17.5c0-0.6,0.3-1,0.9-1.4C10.1,16.1,10.3,16,10.5,16z M1.6,23.6h8.9c0,0,0.1,0,0.3,0.1
			c0.4,0.1,0.7,0.3,0.8,0.5c0.2,0.3,0.4,0.6,0.4,1c0,0.6-0.3,1-0.9,1.4c-0.2,0.1-0.3,0.1-0.4,0.1H1.3c-0.2,0-0.5-0.2-0.9-0.5
			C0.2,25.8,0,25.5,0,25.2v-0.1c0-0.5,0.3-1,0.8-1.3C1,23.7,1.2,23.7,1.6,23.6C1.6,23.6,1.6,23.6,1.6,23.6z M25.8,8.5h0.1
			c0.6,0,1,0.3,1.4,0.8c2.7,5.4,4.1,8.1,4.1,8.3c0.1,0.3,0.1,0.6,0.1,0.6c0,0.6-0.3,1.1-0.9,1.5c-0.3,0.1-0.5,0.2-0.8,0.2
			c-0.6,0-1-0.3-1.4-0.8c0-0.1-0.8-1.6-2.3-4.5c-0.1-0.1-0.2-0.1-0.3-0.1c-0.2,0-0.4,0.2-0.6,0.6l-5.5,10.8
			c-0.2,0.3-0.5,0.5-0.9,0.7c-0.1,0-0.1,0-0.1,0h-0.6c-0.2,0-0.5-0.1-0.9-0.4c-0.3-0.3-0.5-0.8-0.5-1.2c0-0.3,0.2-0.9,0.7-1.8
			c0,0,1.9-3.8,5.7-11.3c0.8-1.7,1.3-2.5,1.3-2.6C24.9,8.8,25.3,8.5,25.8,8.5z M33.2,23.4h0.1c0.5,0,1,0.3,1.4,0.8
			c0.2,0.3,0.2,0.6,0.2,0.8c0,0.6-0.3,1.1-0.9,1.5c-0.2,0.1-0.4,0.1-0.5,0.1H33c-0.3,0-0.6-0.2-0.9-0.5c-0.3-0.3-0.5-0.7-0.5-1.1
			c0-0.5,0.2-1,0.7-1.3C32.6,23.5,32.9,23.4,33.2,23.4z"/>
	</g>
	<g>
		<path class="st0" d="M1.6,8.4h8.9l0,0h0c0.5,0,1,0.3,1.3,0.8c0.1,0.2,0.2,0.5,0.2,0.7c0,0.6-0.3,1-0.9,1.4
			c-0.2,0.1-0.4,0.1-0.6,0.1H1.5c-0.4,0-0.8-0.2-1.1-0.6C0.1,10.5,0,10.3,0,10V9.8C0,9.4,0.3,9,0.7,8.6C1,8.5,1.3,8.4,1.6,8.4
			L1.6,8.4L1.6,8.4z M1.6,16l4.6,0c0.3,0,0.6,0.2,1,0.5c0.3,0.3,0.4,0.7,0.4,1c0,0.5-0.2,1-0.7,1.3C6.6,19,6.4,19,6.1,19H1.5
			c-0.5,0-0.9-0.2-1.2-0.7C0.1,18.1,0,17.9,0,17.6v-0.1c0-0.5,0.3-0.9,0.8-1.3C1.1,16.1,1.3,16,1.6,16L1.6,16C1.6,16,1.6,16,1.6,16z
			 M10.5,16L10.5,16c0.7,0,1.1,0.3,1.4,0.9c0.1,0.2,0.1,0.4,0.1,0.6c0,0.6-0.3,1.1-0.9,1.4C11,19,10.8,19,10.6,19h-0.1
			c-0.5,0-0.9-0.3-1.2-0.8C9.1,18,9,17.8,9,17.5c0-0.6,0.3-1,0.9-1.4C10.1,16.1,10.3,16,10.5,16z M1.6,23.6h8.9c0,0,0.1,0,0.3,0.1
			c0.4,0.1,0.7,0.3,0.8,0.5c0.2,0.3,0.4,0.6,0.4,1c0,0.6-0.3,1-0.9,1.4c-0.2,0.1-0.3,0.1-0.4,0.1H1.3c-0.2,0-0.5-0.2-0.9-0.5
			C0.2,25.8,0,25.5,0,25.2v-0.1c0-0.5,0.3-1,0.8-1.3C1,23.7,1.2,23.7,1.6,23.6C1.6,23.6,1.6,23.6,1.6,23.6z M25.8,8.5h0.1
			c0.6,0,1,0.3,1.4,0.8c2.7,5.4,4.1,8.1,4.1,8.3c0.1,0.3,0.1,0.6,0.1,0.6c0,0.6-0.3,1.1-0.9,1.5c-0.3,0.1-0.5,0.2-0.8,0.2
			c-0.6,0-1-0.3-1.4-0.8c0-0.1-0.8-1.6-2.3-4.5c-0.1-0.1-0.2-0.1-0.3-0.1c-0.2,0-0.4,0.2-0.6,0.6l-5.5,10.8
			c-0.2,0.3-0.5,0.5-0.9,0.7c-0.1,0-0.1,0-0.1,0h-0.6c-0.2,0-0.5-0.1-0.9-0.4c-0.3-0.3-0.5-0.8-0.5-1.2c0-0.3,0.2-0.9,0.7-1.8
			c0,0,1.9-3.8,5.7-11.3c0.8-1.7,1.3-2.5,1.3-2.6C24.9,8.8,25.3,8.5,25.8,8.5z M33.2,23.4h0.1c0.5,0,1,0.3,1.4,0.8
			c0.2,0.3,0.2,0.6,0.2,0.8c0,0.6-0.3,1.1-0.9,1.5c-0.2,0.1-0.4,0.1-0.5,0.1H33c-0.3,0-0.6-0.2-0.9-0.5c-0.3-0.3-0.5-0.7-0.5-1.1
			c0-0.5,0.2-1,0.7-1.3C32.6,23.5,32.9,23.4,33.2,23.4z"/>
	</g>
</g>
</svg>
