<svg width="25" height="25" viewBox="0 0 367 367" fill="none" xmlns="http://www.w3.org/2000/svg">
<path d="M173.491 345.511C263.779 345.511 336.972 272.317 336.972 182.029C336.972 91.7402 263.779 18.5469 173.491 18.5469C83.2021 18.5469 10.0088 91.7402 10.0088 182.029C10.0088 272.317 83.2021 345.511 173.491 345.511Z" fill="white"/>
<path fill-rule="evenodd" clip-rule="evenodd" d="M127.959 102.446H218.826L219.218 102.643H219.513C224.91 102.643 229.325 104.998 232.76 109.708C233.937 111.67 234.526 113.731 234.526 115.792C234.526 120.894 231.582 124.82 225.597 127.567C223.536 128.352 221.573 128.745 219.513 128.745H126.879C122.562 128.745 118.735 127.077 115.398 123.74C113.24 121.287 112.16 118.834 112.16 116.184V115.105C112.16 111.082 114.515 107.647 119.324 104.703C121.973 103.329 124.524 102.643 127.076 102.643H127.468L127.959 102.446ZM129.038 169.762L179.869 169.959C183.205 169.959 186.836 171.332 190.663 174.08C193.705 176.926 195.275 179.968 195.275 183.206C195.275 187.818 192.527 191.547 187.13 194.491C184.481 195.766 181.831 196.355 179.378 196.355H127.959C122.954 196.355 118.538 194.393 114.908 190.369C113.141 188.112 112.16 185.855 112.16 183.598V182.519C112.16 178.3 114.908 174.669 120.501 171.627C123.347 170.547 125.996 169.959 128.548 169.959H128.744C129.038 169.959 129.038 169.86 129.038 169.762ZM221.181 169.762H221.868C226.872 169.762 230.699 172.314 233.545 177.514C234.33 179.379 234.624 181.145 234.624 182.912C234.624 188.112 232.073 192.136 226.97 194.883C225.106 195.668 223.536 195.963 222.064 195.963H220.788C216.569 195.963 213.036 193.804 210.092 189.388C208.915 187.131 208.326 184.972 208.326 182.813C208.326 177.711 210.877 173.786 215.882 170.94C217.844 170.155 219.611 169.762 221.181 169.762ZM127.959 235.312H218.826C218.826 235.41 219.905 235.606 222.162 235.803C225.891 236.588 228.835 238.06 230.797 240.12C233.349 242.672 234.624 245.517 234.624 248.854C234.624 253.858 231.681 257.783 225.695 260.727C223.928 261.316 222.653 261.61 221.966 261.61H124.721C122.169 261.61 119.127 260.139 115.595 257.293C113.24 254.643 112.16 251.994 112.16 249.246V248.265C112.16 243.653 114.908 239.924 120.305 237.078C121.875 236.293 124.328 235.705 127.664 235.41C127.763 235.41 127.861 235.312 127.959 235.312Z" fill="black"/>
<path fill-rule="evenodd" clip-rule="evenodd" d="M127.959 102.446H218.826L219.218 102.643H219.513C224.91 102.643 229.325 104.998 232.76 109.708C233.937 111.67 234.526 113.731 234.526 115.792C234.526 120.894 231.582 124.82 225.597 127.567C223.536 128.352 221.573 128.745 219.513 128.745H126.879C122.562 128.745 118.735 127.077 115.398 123.74C113.24 121.287 112.16 118.834 112.16 116.184V115.105C112.16 111.082 114.515 107.647 119.324 104.703C121.973 103.329 124.524 102.643 127.076 102.643H127.468L127.959 102.446ZM129.038 169.762L179.869 169.959C183.205 169.959 186.836 171.332 190.663 174.08C193.705 176.926 195.275 179.968 195.275 183.206C195.275 187.818 192.527 191.547 187.13 194.491C184.481 195.766 181.831 196.355 179.378 196.355H127.959C122.954 196.355 118.538 194.393 114.908 190.369C113.141 188.112 112.16 185.855 112.16 183.598V182.519C112.16 178.3 114.908 174.669 120.501 171.627C123.347 170.547 125.996 169.959 128.548 169.959H128.744C129.038 169.959 129.038 169.86 129.038 169.762ZM221.181 169.762H221.868C226.872 169.762 230.699 172.314 233.545 177.514C234.33 179.379 234.624 181.145 234.624 182.912C234.624 188.112 232.073 192.136 226.97 194.883C225.106 195.668 223.536 195.963 222.064 195.963H220.788C216.569 195.963 213.036 193.804 210.092 189.388C208.915 187.131 208.326 184.972 208.326 182.813C208.326 177.711 210.877 173.786 215.882 170.94C217.844 170.155 219.611 169.762 221.181 169.762ZM127.959 235.312H218.826C218.826 235.41 219.905 235.606 222.162 235.803C225.891 236.588 228.835 238.06 230.797 240.12C233.349 242.672 234.624 245.517 234.624 248.854C234.624 253.858 231.681 257.783 225.695 260.727C223.928 261.316 222.653 261.61 221.966 261.61H124.721C122.169 261.61 119.127 260.139 115.595 257.293C113.24 254.643 112.16 251.994 112.16 249.246V248.265C112.16 243.653 114.908 239.924 120.305 237.078C121.875 236.293 124.328 235.705 127.664 235.41C127.763 235.41 127.861 235.312 127.959 235.312Z" fill="url(#paint0_linear_1601_2)"/>
<g opacity="0.9132">
<g opacity="0.9132">
<path opacity="0.9132" d="M288.399 101.562C315.225 101.562 336.972 79.815 336.972 52.9886C336.972 26.1621 315.225 4.41504 288.399 4.41504C261.572 4.41504 239.825 26.1621 239.825 52.9886C239.825 79.815 261.572 101.562 288.399 101.562Z" fill="white"/>
</g>
<g opacity="0.9132">
<path opacity="0.3" d="M288.399 101.562C315.225 101.562 336.972 79.815 336.972 52.9886C336.972 26.1621 315.225 4.41504 288.399 4.41504C261.572 4.41504 239.825 26.1621 239.825 52.9886C239.825 79.815 261.572 101.562 288.399 101.562Z" fill="#D4E0EE"/>
</g>
</g>
<path d="M288.89 68.2968C297.073 68.2968 303.707 61.6629 303.707 53.4795C303.707 45.2961 297.073 38.6621 288.89 38.6621C280.706 38.6621 274.072 45.2961 274.072 53.4795C274.072 61.6629 280.706 68.2968 288.89 68.2968Z" fill="black"/>
<path d="M288.89 68.2968C297.073 68.2968 303.707 61.6629 303.707 53.4795C303.707 45.2961 297.073 38.6621 288.89 38.6621C280.706 38.6621 274.072 45.2961 274.072 53.4795C274.072 61.6629 280.706 68.2968 288.89 68.2968Z" fill="white"/>
<g opacity="0.9132">
<g opacity="0.9132">
<path opacity="0.9132" d="M66.469 313.087C71.0412 312.526 74.2926 308.364 73.7312 303.792C73.1698 299.22 69.0082 295.968 64.436 296.53C59.8637 297.091 56.6123 301.253 57.1737 305.825C57.7351 310.397 61.8967 313.649 66.469 313.087Z" fill="black"/>
</g>
<g opacity="0.9132">
<path opacity="0.9132" d="M66.469 313.087C71.0412 312.526 74.2926 308.364 73.7312 303.792C73.1698 299.22 69.0082 295.968 64.436 296.53C59.8637 297.091 56.6123 301.253 57.1737 305.825C57.7351 310.397 61.8967 313.649 66.469 313.087Z" fill="white"/>
</g>
</g>
<path d="M346.589 112.945C352.387 112.945 357.088 108.244 357.088 102.445C357.088 96.6462 352.387 91.9453 346.589 91.9453C340.79 91.9453 336.089 96.6462 336.089 102.445C336.089 108.244 340.79 112.945 346.589 112.945Z" fill="white"/>
<path d="M234.625 15.7982C238.96 15.7982 242.475 12.2835 242.475 7.94792C242.475 3.61234 238.96 0.0976562 234.625 0.0976562C230.289 0.0976562 226.774 3.61234 226.774 7.94792C226.774 12.2835 230.289 15.7982 234.625 15.7982Z" fill="#D8D8D8"/>
<path opacity="0.3" fill-rule="evenodd" clip-rule="evenodd" d="M159.458 303.51C153.079 304.786 147.78 308.22 144.15 313.029C140.225 318.229 134.435 321.762 128.057 322.94C121.678 324.215 115.104 323.136 109.51 319.799C104.015 316.561 97.2443 315.286 90.4735 316.954C84.1933 318.524 78.9925 322.351 75.558 327.355L75.4598 327.453C72.0254 332.556 70.4553 338.836 71.4366 345.215C73.5954 359.64 87.2353 369.158 101.366 366.41C107.744 365.135 113.043 361.7 116.674 356.892C120.599 351.691 126.388 348.159 132.767 346.981C139.145 345.705 145.72 346.785 151.313 350.121C156.808 353.359 163.579 354.635 170.35 352.967C176.63 351.397 181.831 347.668 185.266 342.565L185.364 342.467C188.798 337.364 190.368 331.084 189.387 324.706C188.307 317.346 184.186 311.164 178.495 307.337C173.098 303.805 166.327 302.235 159.458 303.51Z" fill="#D4E0EE"/>
<path opacity="0.3" fill-rule="evenodd" clip-rule="evenodd" d="M203.125 36.7979C196.648 36.7979 191.448 42.0968 191.448 48.5732C191.448 51.5171 192.527 54.2647 194.392 56.3254C196.354 58.5823 197.532 61.5262 197.532 64.5682C197.532 67.3157 196.648 70.0633 194.882 72.2222C192.723 73.9885 189.976 74.8716 187.228 74.8716C184.186 74.8716 181.242 73.7922 178.985 71.7315C176.925 69.8671 174.177 68.7877 171.233 68.7877C164.56 68.7877 159.163 74.381 159.458 81.0537C159.752 87.0395 164.659 91.9459 170.644 92.2403C173.883 92.4366 176.827 91.259 179.083 89.2965C181.34 87.3339 184.284 86.2545 187.228 86.2545C190.27 86.2545 193.214 87.3339 195.471 89.3946C197.532 91.259 200.279 92.3385 203.223 92.3385C204.695 92.3385 206.167 92.0441 207.443 91.5534C207.639 91.4553 207.835 91.4553 207.933 91.3572C208.129 91.259 208.228 91.1609 208.424 91.1609C208.424 91.1609 208.424 91.1609 208.522 91.1609C208.718 91.0628 208.816 90.9647 208.914 90.9647C208.914 90.9647 209.013 90.9647 209.013 90.8665C209.111 90.7684 209.307 90.6703 209.405 90.6703L209.503 90.5722C209.601 90.474 209.7 90.3759 209.896 90.3759L209.994 90.2778C210.092 90.1796 210.19 90.0815 210.288 90.0815C210.386 90.0815 210.386 89.9834 210.485 89.9834C210.583 89.8852 210.681 89.7871 210.779 89.7871C210.877 89.689 210.877 89.689 210.975 89.5909C211.073 89.4927 211.171 89.4927 211.171 89.3946C211.27 89.2965 211.27 89.2965 211.368 89.1984C211.466 89.1002 211.466 89.1002 211.564 89.0021C211.662 88.904 211.662 88.8058 211.76 88.8058C211.858 88.7077 211.858 88.7077 211.956 88.6096C212.055 88.5115 212.153 88.4133 212.153 88.3152C212.153 88.2171 212.251 88.2171 212.251 88.1189C212.349 88.0208 212.447 87.9227 212.447 87.8246L212.545 87.7264C212.643 87.6283 212.742 87.5302 212.742 87.3339L212.84 87.2358C212.938 87.1377 213.036 86.9414 213.036 86.8433C213.036 86.8433 213.036 86.7451 213.134 86.7451C213.232 86.647 213.33 86.4508 213.33 86.3526C213.33 86.3526 213.33 86.3526 213.33 86.2545C213.428 86.0582 213.527 85.9601 213.527 85.7639C213.625 85.5676 213.723 85.3714 213.723 85.2732C214.213 83.9976 214.508 82.5256 214.508 81.0537C214.508 78.1099 213.428 75.3623 211.564 73.3016C209.601 71.0446 208.424 68.1008 208.424 65.0588C208.424 62.0168 209.503 59.1711 211.466 56.9141C213.428 54.6572 214.606 51.7134 214.41 48.4751C214.115 42.4893 209.209 37.5829 203.223 37.2885C203.027 37.2885 202.929 37.2885 202.732 37.2885H203.125V36.7979Z" fill="#D4E0EE"/>
<defs>
<linearGradient id="paint0_linear_1601_2" x1="173.378" y1="102.413" x2="173.378" y2="261.611" gradientUnits="userSpaceOnUse">
<stop stop-color="#2460FF"/>
<stop offset="1" stop-color="#B80AFF"/>
</linearGradient>
</defs>
</svg>
