<svg width="65" height="60" viewBox="0 0 65 60" fill="none" xmlns="http://www.w3.org/2000/svg">
<path d="M56.4476 55.2854C58.1241 55.2854 59.4832 53.9263 59.4832 52.2499C59.4832 50.5734 58.1241 49.2144 56.4476 49.2144C54.7712 49.2144 53.4121 50.5734 53.4121 52.2499C53.4121 53.9263 54.7712 55.2854 56.4476 55.2854Z" fill="#597DFC"/>
<path d="M46.8244 49.5371C45.4681 49.5371 44.3701 50.6351 44.3701 51.9914C44.3701 53.3477 45.4681 54.4456 46.8244 54.4456C48.1807 54.4456 49.2786 53.3477 49.2786 51.9914C49.2786 50.6351 48.1807 49.5371 46.8244 49.5371Z" fill="#597DFC"/>
<path d="M62.9057 56.3833C62.2598 56.3833 61.7432 56.9 61.7432 57.5458C61.7432 58.1917 62.2598 58.7084 62.9057 58.7084C63.5516 58.7084 64.0682 58.1917 64.0682 57.5458C64.0682 56.9 63.5516 56.3833 62.9057 56.3833Z" fill="#597DFC"/>
<path d="M51.7982 59.9998C52.69 59.9998 53.4129 59.2769 53.4129 58.3851C53.4129 57.4934 52.69 56.7705 51.7982 56.7705C50.9065 56.7705 50.1836 57.4934 50.1836 58.3851C50.1836 59.2769 50.9065 59.9998 51.7982 59.9998Z" fill="#597DFC"/>
<path d="M23.2507 15.9524C23.5737 16.017 23.832 16.0816 24.1549 16.0816H24.2195C26.0279 16.0816 27.4488 14.6607 27.4488 12.8523C27.4488 11.0439 26.0279 9.62305 24.2195 9.62305C22.4111 9.62305 20.9902 11.0439 20.9902 12.8523C20.9902 14.0795 21.7007 15.1774 22.734 15.6941C22.9278 15.8233 23.1216 15.8878 23.2507 15.9524Z" fill="#597DFC"/>
<path d="M45.0807 37.1367C47.4058 33.3907 48.7621 28.9989 48.7621 24.2842C48.7621 12.5296 40.366 2.71259 29.2573 0.516685C27.6426 0.193757 25.8988 0 24.155 0C10.7212 0 0 10.915 0 24.3488C0 35.7158 7.6211 45.2745 18.1485 47.9225C16.4693 47.1475 4.9085 39.1389 5.03768 23.6383C5.10226 13.6276 13.4984 5.48977 23.5737 5.16685C34.4241 4.77933 43.4015 13.563 43.4015 24.3488C43.4015 32.3574 38.5576 39.1389 31.6469 42.0452C30.1615 42.5619 25.0592 43.7244 20.8611 37.9763C18.084 33.7137 18.4069 29.2573 18.5361 28.0301C18.7944 25.4467 20.6674 23.6383 23.1216 23.6383C23.2508 23.6383 23.4446 23.6383 23.5737 23.6383C26.3509 23.8967 28.1593 25.7696 28.0301 28.4177C27.901 30.6136 27.3197 32.8741 26.4155 34.9408L26.2863 35.1346C26.1572 35.4575 25.9634 35.7804 25.8342 36.1033C25.7051 36.4263 25.6405 36.8138 25.7696 37.1367C25.9634 37.9117 26.7384 38.4284 27.5135 38.2993C27.901 38.2347 28.2885 37.9763 28.5468 37.6534C30.6136 34.5533 32.2282 31.324 32.2282 27.3843C32.2282 25.0592 31.3886 22.9279 29.8385 21.3778C28.2239 19.7632 25.9634 18.859 23.4446 18.859C23.2508 18.859 23.1216 18.859 22.9279 18.859C21.6362 18.9236 20.4736 19.1819 19.4403 19.634C19.4403 19.634 14.0797 21.3778 13.6921 27.5135C13.24 30.9365 13.563 36.7492 18.6652 42.3681C19.2465 43.0786 19.8924 43.7244 20.6674 44.3057C21.4424 44.9516 22.3466 45.5328 23.38 46.0495C23.8321 46.3079 24.2842 46.5662 24.8009 46.76C24.8009 46.76 24.8654 46.76 24.8654 46.8245C25.7696 47.2121 26.7384 47.4704 27.7072 47.5996C29.774 47.9225 31.9699 47.5996 34.0366 46.76C35.6512 46.0495 37.1367 45.2099 38.5576 44.1765L42.4973 47.8579C43.5307 46.8891 44.9516 46.3079 46.5016 46.3079C48.8913 46.3079 50.958 47.7287 51.9268 49.7955C52.4435 48.4392 53.5414 47.4058 54.8977 47.0183L45.0807 37.1367Z" fill="#597DFC"/>
</svg>
