<svg width="60" height="60" viewBox="0 0 60 60" fill="none" xmlns="http://www.w3.org/2000/svg">
<path d="M0 0V11.58H3.36V3.36H11.52V0H0Z" fill="#9595C1"/>
<path d="M56.6399 48.4199V56.6399H48.4199V59.9999H59.9999V48.4199H56.6399Z" fill="#9595C1"/>
<path d="M57.8999 15.1201C55.6199 10.9801 51.42 8.22007 46.68 7.62007C43.92 7.32007 41.1 7.74007 38.64 8.94007C38.34 9.06007 38.1 9.24007 37.8 9.36007C34.44 11.2201 31.8 14.4601 30.78 18.0601L22.68 41.1001C22.02 43.2001 20.64 44.8801 18.84 45.8401C18.72 45.9601 18.54 45.9601 18.36 46.0801C16.98 46.7401 15.48 46.9801 14.04 46.8001C11.52 46.5001 9.23995 45.0001 8.03995 42.7801C7.01995 40.9201 6.77995 38.7601 7.31995 36.7801C7.85995 34.6801 9.23995 33.0001 11.16 31.9801C11.28 31.8601 11.46 31.8001 11.64 31.7401C13.02 31.0801 14.46 30.8401 16.02 31.0201C16.08 31.0201 16.14 31.0201 16.2 31.0801L14.52 35.8801C14.4 36.1801 14.58 36.6001 14.88 36.6601L19.14 38.1001C19.44 38.2201 19.8 38.0401 19.92 37.7401L23.64 27.1801C23.76 26.8801 23.7 26.6401 23.58 26.4001C23.46 26.1601 23.28 25.9801 22.98 25.8601L19.08 24.7201C18.96 24.6601 18.9 24.6601 18.78 24.6601L18.48 24.6001C17.94 24.4801 17.4 24.3601 16.86 24.3001C14.1 24.0001 11.28 24.4201 8.75995 25.6201C8.45995 25.7401 8.21995 25.9201 7.91995 26.1001C4.43995 28.0201 1.91995 31.2001 0.839952 35.0401C-0.240047 38.8801 0.239952 42.8401 2.09995 46.2601C4.43995 50.4001 8.63995 53.1601 13.38 53.7601C16.14 54.0601 18.96 53.6401 21.42 52.4401C21.72 52.3201 21.96 52.1401 22.26 52.0201C25.62 50.1601 28.2 46.9201 29.28 43.3201L37.38 20.2801V20.2201C38.2799 17.9401 39.4799 16.4401 41.1599 15.4801C41.2799 15.3601 41.46 15.3001 41.64 15.2401C43.02 14.5801 44.5199 14.3401 45.9599 14.5201C48.4799 14.8201 50.7599 16.3201 51.9599 18.5401C54.0599 22.3801 52.74 27.2401 48.84 29.3401C48.72 29.4601 48.5399 29.5201 48.3599 29.5801C46.9799 30.2401 45.54 30.4801 43.98 30.3001C43.5 30.2401 43.08 30.1801 42.6 30.0001L40.08 29.2201C39.78 29.1001 39.5399 29.2801 39.4199 29.5201L37.5 35.0401C37.38 35.3401 37.5599 35.6401 37.8599 35.7601L40.98 36.6601C41.76 36.8401 42.4799 37.0201 43.2599 37.1401C46.0199 37.4401 48.8399 37.0201 51.2999 35.8201C51.5999 35.7001 51.8999 35.5201 52.1999 35.3401C59.2799 31.3201 61.8599 22.2601 57.8999 15.1201Z" fill="#5B4E96"/>
</svg>
