<svg width="14" height="25" viewBox="0 0 14 25" fill="none" xmlns="http://www.w3.org/2000/svg">
<path d="M3.76965 14.1146C3.67153 14.1146 1.61309 14.1152 0.663716 14.1142C0.174966 14.1139 0.000591684 13.9383 0.000591684 13.4464C-3.33153e-05 12.183 -0.000345815 10.9196 0.000591684 9.65612C0.000904184 9.1705 0.185279 8.98519 0.667779 8.98487C1.61715 8.98425 3.66434 8.98456 3.76965 8.98456C3.76965 8.898 3.76934 7.07394 3.76965 6.23394C3.77028 4.99206 3.99184 3.80331 4.62278 2.71488C5.26871 1.60082 6.20871 0.837692 7.4134 0.396442C8.18496 0.11363 8.9859 0.000817827 9.80465 0.000192827C10.829 -0.000432172 11.8534 0.000505318 12.8781 0.00238032C13.3184 0.00300532 13.5137 0.197693 13.5146 0.64113C13.5165 1.82957 13.5165 3.018 13.5146 4.20613C13.514 4.65425 13.3268 4.83425 12.8765 4.83925C12.0368 4.84831 11.1965 4.84269 10.3578 4.87644C9.51058 4.87644 9.06496 5.29019 9.06496 6.16706C9.04465 7.09456 9.05652 8.023 9.05652 8.98425C9.1359 8.98425 11.5468 8.98394 12.6737 8.98425C13.1856 8.98425 13.3606 9.16019 13.3606 9.67487C13.3606 10.9314 13.3603 12.1883 13.3593 13.4449C13.359 13.9521 13.1946 14.1139 12.6796 14.1142C11.5528 14.1149 9.15121 14.1146 9.04621 14.1146V24.2849C9.04621 24.827 8.87558 24.9999 8.34058 24.9999C7.03621 24.9999 5.73152 25.0002 4.42715 24.9999C3.95434 24.9999 3.76996 24.8161 3.76996 24.3433C3.76965 21.0311 3.76965 14.2308 3.76965 14.1146Z" fill="#3D6AD6"/>
</svg>
