<svg width="297" height="48" viewBox="0 0 297 48" fill="none" xmlns="http://www.w3.org/2000/svg">
<path d="M21.9229 41.0906C31.4407 41.0906 39.1564 33.3749 39.1564 23.8572C39.1564 14.3394 31.4407 6.6237 21.9229 6.6237C12.4051 6.6237 4.68945 14.3394 4.68945 23.8572C4.68945 33.3749 12.4051 41.0906 21.9229 41.0906Z" fill="url(#paint0_linear_883_1491)"/>
<path fill-rule="evenodd" clip-rule="evenodd" d="M12.6613 17.8195H18.0541C18.4058 17.8195 18.6402 17.9953 18.8161 18.347C18.8747 18.4643 18.9333 18.6401 18.9333 18.7574C18.9333 19.1091 18.7575 19.4022 18.4058 19.578C18.2885 19.6366 18.1713 19.6366 18.0541 19.6366H12.5441C12.3096 19.6366 12.0751 19.5194 11.8406 19.2849C11.7234 19.1091 11.6648 18.9332 11.6648 18.7574V18.6987C11.6648 18.4057 11.782 18.1712 12.0751 17.9953C12.3096 17.8781 12.4854 17.8195 12.6613 17.8195ZM12.6613 22.4502H15.4749C15.6508 22.4502 15.8852 22.5675 16.0611 22.7433C16.2369 22.9192 16.2956 23.1537 16.2956 23.3881C16.2956 23.6812 16.1197 23.9743 15.8266 24.1501C15.6508 24.2088 15.5335 24.2674 15.4163 24.2674H12.6027C12.3096 24.2674 12.0751 24.1501 11.8993 23.8571C11.782 23.6812 11.7234 23.564 11.7234 23.3881V23.3295C11.7234 23.0364 11.8993 22.8019 12.1923 22.5675C12.3682 22.5089 12.4854 22.4502 12.6613 22.4502ZM18.1127 22.4502C18.523 22.4502 18.7575 22.6261 18.9919 22.9778C19.0506 23.095 19.0506 23.2123 19.0506 23.3295C19.0506 23.6812 18.8747 23.9743 18.523 24.1501C18.4058 24.2088 18.2885 24.2088 18.1713 24.2088H18.0541C17.761 24.2088 17.5265 24.0329 17.292 23.7398C17.2334 23.564 17.1748 23.4467 17.1748 23.2709C17.1748 22.9192 17.3507 22.6261 17.7024 22.4502C17.8782 22.5089 17.9955 22.4502 18.1127 22.4502ZM12.6613 27.081H18.0541C18.0541 27.081 18.1127 27.081 18.2299 27.1396C18.4644 27.1982 18.6402 27.3155 18.7575 27.4327C18.9333 27.6086 18.9919 27.7844 18.9919 28.0189C18.9919 28.3706 18.8161 28.6637 18.4644 28.8395C18.3472 28.8981 18.2885 28.8981 18.2299 28.8981H12.4268C12.251 28.8981 12.0751 28.7809 11.8993 28.6051C11.782 28.4292 11.6648 28.2533 11.6648 28.0189V27.9603C11.6648 27.6672 11.8406 27.3741 12.1337 27.1982C12.3096 27.1396 12.4854 27.081 12.6613 27.081ZM27.3742 17.9367H27.4328C27.7845 17.9367 28.0776 18.1126 28.2535 18.4643C29.8947 21.7468 30.7154 23.3881 30.774 23.4467C30.8326 23.6812 30.8912 23.7984 30.8912 23.8571C30.8912 24.2674 30.7154 24.5605 30.3051 24.7949C30.1292 24.8535 30.012 24.9122 29.8361 24.9122C29.4844 24.9122 29.1913 24.7363 29.0155 24.4432C29.0155 24.3846 28.5465 23.5054 27.6087 21.6882C27.5501 21.6296 27.4914 21.571 27.4328 21.571C27.3156 21.571 27.1984 21.6882 27.0811 21.9227L23.7399 28.4878C23.6227 28.6637 23.4468 28.8395 23.1538 28.8981C23.0951 28.8981 23.0951 28.8981 23.0365 28.8981H22.6848C22.509 28.8981 22.3331 28.8395 22.1573 28.6637C21.9228 28.4292 21.8642 28.1947 21.8642 27.9016C21.8642 27.7258 22.04 27.3155 22.3331 26.7879C22.3331 26.7879 23.5055 24.5018 25.7915 19.9297C26.3191 18.9332 26.5536 18.4057 26.6122 18.347C26.8467 18.054 27.0811 17.9367 27.3742 17.9367ZM31.8877 26.9638H31.9463C32.298 26.9638 32.5325 27.1396 32.767 27.4327C32.8842 27.6086 32.8842 27.7844 32.8842 27.9603C32.8842 28.312 32.7084 28.6051 32.3567 28.8395C32.2394 28.8981 32.1222 28.9568 32.0636 28.9568H31.7119C31.536 28.9568 31.3602 28.8395 31.1257 28.6637C30.9499 28.4292 30.8326 28.1947 30.8326 27.9603C30.8326 27.6672 30.9499 27.3741 31.2429 27.1396C31.536 27.0224 31.7119 26.9638 31.8877 26.9638Z" fill="black"/>
<path fill-rule="evenodd" clip-rule="evenodd" d="M12.6613 17.8195H18.0541C18.4058 17.8195 18.6402 17.9953 18.8161 18.347C18.8747 18.4643 18.9333 18.6401 18.9333 18.7574C18.9333 19.1091 18.7575 19.4022 18.4058 19.578C18.2885 19.6366 18.1713 19.6366 18.0541 19.6366H12.5441C12.3096 19.6366 12.0751 19.5194 11.8406 19.2849C11.7234 19.1091 11.6648 18.9332 11.6648 18.7574V18.6987C11.6648 18.4057 11.782 18.1712 12.0751 17.9953C12.3096 17.8781 12.4854 17.8195 12.6613 17.8195ZM12.6613 22.4502H15.4749C15.6508 22.4502 15.8852 22.5675 16.0611 22.7433C16.2369 22.9192 16.2956 23.1537 16.2956 23.3881C16.2956 23.6812 16.1197 23.9743 15.8266 24.1501C15.6508 24.2088 15.5335 24.2674 15.4163 24.2674H12.6027C12.3096 24.2674 12.0751 24.1501 11.8993 23.8571C11.782 23.6812 11.7234 23.564 11.7234 23.3881V23.3295C11.7234 23.0364 11.8993 22.8019 12.1923 22.5675C12.3682 22.5089 12.4854 22.4502 12.6613 22.4502ZM18.1127 22.4502C18.523 22.4502 18.7575 22.6261 18.9919 22.9778C19.0506 23.095 19.0506 23.2123 19.0506 23.3295C19.0506 23.6812 18.8747 23.9743 18.523 24.1501C18.4058 24.2088 18.2885 24.2088 18.1713 24.2088H18.0541C17.761 24.2088 17.5265 24.0329 17.292 23.7398C17.2334 23.564 17.1748 23.4467 17.1748 23.2709C17.1748 22.9192 17.3507 22.6261 17.7024 22.4502C17.8782 22.5089 17.9955 22.4502 18.1127 22.4502ZM12.6613 27.081H18.0541C18.0541 27.081 18.1127 27.081 18.2299 27.1396C18.4644 27.1982 18.6402 27.3155 18.7575 27.4327C18.9333 27.6086 18.9919 27.7844 18.9919 28.0189C18.9919 28.3706 18.8161 28.6637 18.4644 28.8395C18.3472 28.8981 18.2885 28.8981 18.2299 28.8981H12.4268C12.251 28.8981 12.0751 28.7809 11.8993 28.6051C11.782 28.4292 11.6648 28.2533 11.6648 28.0189V27.9603C11.6648 27.6672 11.8406 27.3741 12.1337 27.1982C12.3096 27.1396 12.4854 27.081 12.6613 27.081ZM27.3742 17.9367H27.4328C27.7845 17.9367 28.0776 18.1126 28.2535 18.4643C29.8947 21.7468 30.7154 23.3881 30.774 23.4467C30.8326 23.6812 30.8912 23.7984 30.8912 23.8571C30.8912 24.2674 30.7154 24.5605 30.3051 24.7949C30.1292 24.8535 30.012 24.9122 29.8361 24.9122C29.4844 24.9122 29.1913 24.7363 29.0155 24.4432C29.0155 24.3846 28.5465 23.5054 27.6087 21.6882C27.5501 21.6296 27.4914 21.571 27.4328 21.571C27.3156 21.571 27.1984 21.6882 27.0811 21.9227L23.7399 28.4878C23.6227 28.6637 23.4468 28.8395 23.1538 28.8981C23.0951 28.8981 23.0951 28.8981 23.0365 28.8981H22.6848C22.509 28.8981 22.3331 28.8395 22.1573 28.6637C21.9228 28.4292 21.8642 28.1947 21.8642 27.9016C21.8642 27.7258 22.04 27.3155 22.3331 26.7879C22.3331 26.7879 23.5055 24.5018 25.7915 19.9297C26.3191 18.9332 26.5536 18.4057 26.6122 18.347C26.8467 18.054 27.0811 17.9367 27.3742 17.9367ZM31.8877 26.9638H31.9463C32.298 26.9638 32.5325 27.1396 32.767 27.4327C32.8842 27.6086 32.8842 27.7844 32.8842 27.9603C32.8842 28.312 32.7084 28.6051 32.3567 28.8395C32.2394 28.8981 32.1222 28.9568 32.0636 28.9568H31.7119C31.536 28.9568 31.3602 28.8395 31.1257 28.6637C30.9499 28.4292 30.8326 28.1947 30.8326 27.9603C30.8326 27.6672 30.9499 27.3741 31.2429 27.1396C31.536 27.0224 31.7119 26.9638 31.8877 26.9638Z" fill="white"/>
<g opacity="0.9132">
<path d="M34.0567 15.3577C36.8732 15.3577 39.1564 13.0744 39.1564 10.258C39.1564 7.44147 36.8732 5.15826 34.0567 5.15826C31.2402 5.15826 28.957 7.44147 28.957 10.258C28.957 13.0744 31.2402 15.3577 34.0567 15.3577Z" fill="black"/>
<path d="M34.0567 15.3577C36.8732 15.3577 39.1564 13.0744 39.1564 10.258C39.1564 7.44147 36.8732 5.15826 34.0567 5.15826C31.2402 5.15826 28.957 7.44147 28.957 10.258C28.957 13.0744 31.2402 15.3577 34.0567 15.3577Z" fill="white"/>
</g>
<path d="M34.1154 11.8992C34.9895 11.8992 35.698 11.1906 35.698 10.3165C35.698 9.44241 34.9895 8.73383 34.1154 8.73383C33.2413 8.73383 32.5327 9.44241 32.5327 10.3165C32.5327 11.1906 33.2413 11.8992 34.1154 11.8992Z" fill="black"/>
<path d="M34.1154 11.8992C34.9895 11.8992 35.698 11.1906 35.698 10.3165C35.698 9.44241 34.9895 8.73383 34.1154 8.73383C33.2413 8.73383 32.5327 9.44241 32.5327 10.3165C32.5327 11.1906 33.2413 11.8992 34.1154 11.8992Z" fill="#A43DFF"/>
<g opacity="0.9132">
<path d="M10.6976 37.6852C11.1796 37.626 11.5223 37.1873 11.4632 36.7053C11.404 36.2233 10.9653 35.8806 10.4833 35.9398C10.0013 35.999 9.65857 36.4377 9.71775 36.9196C9.77693 37.4016 10.2156 37.7444 10.6976 37.6852Z" fill="black"/>
<path d="M10.6976 37.6852C11.1796 37.626 11.5223 37.1873 11.4632 36.7053C11.404 36.2233 10.9653 35.8806 10.4833 35.9398C10.0013 35.999 9.65857 36.4377 9.71775 36.9196C9.77693 37.4016 10.2156 37.7444 10.6976 37.6852Z" fill="white"/>
</g>
<path d="M40.2114 16.5886C40.8265 16.5886 41.3251 16.09 41.3251 15.4749C41.3251 14.8598 40.8265 14.3611 40.2114 14.3611C39.5963 14.3611 39.0977 14.8598 39.0977 15.4749C39.0977 16.09 39.5963 16.5886 40.2114 16.5886Z" fill="#F5A623"/>
<path d="M28.3707 6.33058C28.8239 6.33058 29.1913 5.96317 29.1913 5.50995C29.1913 5.05672 28.8239 4.6893 28.3707 4.6893C27.9175 4.6893 27.55 5.05672 27.55 5.50995C27.55 5.96317 27.9175 6.33058 28.3707 6.33058Z" fill="#D8D8D8"/>
<path opacity="0.8979" fill-rule="evenodd" clip-rule="evenodd" d="M20.4576 36.6356C19.8128 36.7529 19.2266 37.1046 18.8749 37.6321C18.4646 38.1597 17.8784 38.57 17.175 38.6872C16.5302 38.8045 15.8268 38.6872 15.2406 38.3355C14.6545 37.9838 13.9511 37.8666 13.2477 38.0425C12.6029 38.2183 12.0167 38.6286 11.665 39.1562C11.3133 39.6837 11.1374 40.3285 11.2547 41.0319C11.4891 42.556 12.896 43.5525 14.42 43.2594C15.0648 43.1422 15.651 42.7905 16.0027 42.2629C16.413 41.7353 16.9992 41.325 17.7026 41.2078C18.3474 41.0905 19.0508 41.2078 19.6369 41.5595C20.2231 41.9112 20.9265 42.0284 21.6299 41.8526C22.2747 41.6767 22.8609 41.2664 23.2126 40.7388C23.5643 40.2113 23.7401 39.5665 23.6229 38.8631C23.5057 38.1011 23.0953 37.4563 22.4506 37.046C21.923 36.6943 21.2196 36.5184 20.4576 36.6356Z" fill="url(#paint1_linear_883_1491)"/>
<path opacity="0.096875" fill-rule="evenodd" clip-rule="evenodd" d="M25.0882 8.55809C24.3848 8.55809 23.8572 9.08565 23.8572 9.78906C23.8572 10.0821 23.9745 10.3752 24.1503 10.6097C24.3848 10.8442 24.502 11.1372 24.502 11.489C24.502 11.782 24.3848 12.0751 24.2089 12.3096C23.9744 12.4854 23.6814 12.6027 23.3883 12.6027C23.0952 12.6027 22.7435 12.4854 22.509 12.251C22.2746 12.0751 21.9815 11.9579 21.6884 11.9579C20.985 11.9579 20.3988 12.5441 20.4574 13.2475C20.4574 13.8923 20.985 14.4198 21.6298 14.4198C21.9815 14.4198 22.2746 14.3026 22.509 14.1267C22.7435 13.8923 23.0366 13.775 23.3883 13.775C23.6814 13.775 24.0331 13.8923 24.2675 14.1267C24.502 14.3026 24.7951 14.4198 25.0882 14.4198C25.264 14.4198 25.3813 14.4198 25.5571 14.3612H25.6157H25.6743H25.733C25.733 14.3612 25.733 14.3612 25.7916 14.3612C25.7916 14.3612 25.7916 14.3612 25.8502 14.3612C25.8502 14.3612 25.8502 14.3612 25.9088 14.3612C25.9088 14.3612 25.9088 14.3612 25.9674 14.3612C25.9674 14.3612 25.9674 14.3612 25.9674 14.3026C25.9674 14.3026 25.9674 14.3026 25.9674 14.244C25.9674 14.244 25.9674 14.244 25.9674 14.1853C25.9674 14.1853 25.9674 14.1853 25.9674 14.1267V14.0681V14.0095V13.9509C26.026 13.8336 26.0261 13.6578 26.0261 13.4819C26.0261 13.1888 25.9088 12.8958 25.733 12.6613C25.4985 12.4268 25.3813 12.1337 25.3813 11.782C25.3813 11.489 25.4985 11.1372 25.733 10.9028C25.9674 10.6683 26.0847 10.3752 26.0261 10.0235C25.9674 9.37873 25.4985 8.85118 24.8537 8.85118C25.1468 8.55809 25.0882 8.55809 25.0882 8.55809Z" fill="white"/>
<path d="M54.69 18.4058V21.747C54.8072 21.747 54.9831 21.747 55.3348 21.747C55.6865 21.747 56.0382 21.747 56.5071 21.747C56.9761 21.747 57.445 21.747 57.9726 21.747C58.5001 21.747 58.9691 21.747 59.438 21.747C59.9069 21.747 60.2587 21.747 60.6104 21.747C60.9621 21.747 61.1379 21.747 61.2551 21.747V23.0365H53.3418V18.3472H54.69V18.4058ZM53.2832 16.999V15.768H64.4205V16.999H53.2832ZM64.6549 31.1257V32.3567H53.2832V31.1257V24.502H57.2692V25.7915H54.6314V31.1257H64.6549ZM71.1028 17.761C70.8684 17.9955 70.7511 18.1713 70.6339 18.4058H68.9926C68.9926 18.3472 69.0512 18.2885 69.0512 18.2299C69.1099 18.1713 69.1098 18.1127 69.1685 18.0541C69.4029 17.5265 69.7546 17.0576 70.2236 16.6473C70.6339 16.2369 71.2201 15.9439 71.9821 15.6508C72.6855 15.4163 73.5061 15.2991 74.444 15.2991C74.9129 15.2991 75.3233 15.3577 75.7336 15.4163C76.1439 15.4749 76.4956 15.5922 76.8473 15.7094C77.5507 15.9439 78.1369 16.2956 78.6058 16.7645C78.8403 16.999 79.0162 17.2334 79.192 17.5265C79.3679 17.761 79.5437 18.0541 79.6609 18.3472C79.8954 18.9333 80.0126 19.5781 80.0126 20.2229H79.7782H78.4886H77.1404V18.9333H78.3127C78.2541 18.7575 78.1955 18.6989 78.1955 18.6403C77.961 18.1713 77.668 17.8196 77.3162 17.5265C76.9645 17.2334 76.4956 16.999 76.0267 16.8817C75.5577 16.7059 75.0888 16.6473 74.5026 16.6473C73.682 16.6473 73.0372 16.7645 72.5096 16.999C71.8649 17.1162 71.4545 17.4093 71.1028 17.761ZM77.9024 30.3637C78.1955 30.0706 78.43 29.7189 78.6058 29.3672H80.2471C80.0126 30.1878 79.5437 30.8912 78.8403 31.4188C77.7852 32.2394 76.3198 32.7084 74.3854 32.7084C73.5061 32.7084 72.7441 32.5912 71.9821 32.3567C71.2787 32.1222 70.6339 31.7705 70.1063 31.3602C69.5788 30.8912 69.1685 30.3637 68.8754 29.6603C68.5823 28.9569 68.4064 28.1949 68.4064 27.3156H68.6409H69.9305H71.2787V28.6052H70.2236C70.2822 28.8396 70.3994 29.0155 70.458 29.1913C70.7511 29.7189 71.1028 30.1292 71.5131 30.4223C71.9235 30.774 72.3924 31.0085 72.9786 31.1257C73.2717 31.1843 73.5648 31.243 73.8578 31.3016C74.1509 31.3602 74.444 31.3602 74.7371 31.3602C75.4991 31.3602 76.1439 31.2429 76.6715 31.0671C77.1404 30.8912 77.6093 30.6568 77.9024 30.3637ZM80.0713 25.8502C80.3057 26.4363 80.4816 27.0811 80.4816 27.8432V28.019H80.3057H78.9575H77.7266V26.7294H78.7231C78.6645 26.6708 78.6645 26.6122 78.6058 26.5536C78.5472 26.495 78.5472 26.4363 78.4886 26.3777C78.1955 25.9674 77.7852 25.6157 77.3749 25.3812C76.9059 25.1468 76.3784 24.9123 75.7922 24.7951C75.4991 24.7364 75.206 24.6192 74.8543 24.5606C74.5613 24.502 74.2095 24.3847 73.9165 24.3261C73.6234 24.2675 73.2717 24.1503 72.9786 24.0917C72.6855 23.9744 72.3924 23.9158 72.0993 23.7986C71.4545 23.5641 70.927 23.3296 70.5167 22.9779C70.0477 22.6262 69.6374 22.2159 69.4029 21.6883C69.1098 21.1608 68.9926 20.516 68.934 19.6954H69.1685H70.458H71.8062V20.9849H70.8098C70.927 21.1608 71.0442 21.3366 71.1614 21.4539C71.5131 21.8056 71.9235 22.04 72.3924 22.2745C72.6269 22.3918 72.8614 22.4504 73.1544 22.5676C73.4475 22.6262 73.7406 22.6848 74.0337 22.7435C74.3268 22.8021 74.6199 22.9193 74.913 22.9779C75.206 23.0365 75.4991 23.0952 75.7922 23.1538C76.0853 23.2124 76.3784 23.3296 76.6715 23.3882C76.9646 23.4469 77.2576 23.5641 77.5507 23.6227C78.1369 23.8572 78.6644 24.0917 79.0748 24.4434C79.4265 24.9123 79.8368 25.3226 80.0713 25.8502ZM86.2261 17.761C85.9916 17.9955 85.8744 18.1713 85.7571 18.4058H84.1158C84.1158 18.3472 84.1745 18.2885 84.1745 18.2299C84.2331 18.1713 84.2331 18.1127 84.2917 18.0541C84.5262 17.5265 84.8779 17.0576 85.3468 16.6473C85.7571 16.2369 86.3433 15.9439 87.1053 15.6508C87.8087 15.4163 88.6294 15.2991 89.5673 15.2991C90.0362 15.2991 90.4465 15.3577 90.8568 15.4163C91.2671 15.4749 91.6188 15.5922 91.9706 15.7094C92.674 15.9439 93.2601 16.2956 93.7291 16.7645C93.9635 16.999 94.1394 17.2334 94.3152 17.5265C94.4911 17.761 94.667 18.0541 94.7842 18.3472C95.0187 18.9333 95.1359 19.5781 95.1359 20.2229H94.9014H93.6118H92.2636V18.9333H93.436C93.3774 18.7575 93.3188 18.6989 93.3188 18.6403C93.0843 18.1713 92.7912 17.8196 92.4395 17.5265C92.0878 17.2334 91.6189 16.999 91.1499 16.8817C90.681 16.7059 90.212 16.6473 89.6259 16.6473C88.8052 16.6473 88.1604 16.7645 87.6329 16.999C86.9881 17.1162 86.5192 17.4093 86.2261 17.761ZM93.0257 30.3637C93.3188 30.0706 93.5532 29.7189 93.7291 29.3672H95.3704C95.1359 30.1878 94.667 30.8912 93.9635 31.4188C92.9084 32.2394 91.443 32.7084 89.5086 32.7084C88.6294 32.7084 87.8674 32.5912 87.1053 32.3567C86.4019 32.1222 85.7571 31.7705 85.2296 31.3602C84.702 30.8912 84.2917 30.3637 83.9986 29.6603C83.7055 28.9569 83.5297 28.1949 83.5297 27.3156H83.7641H85.0537H86.4019V28.6052H85.3468C85.4054 28.8396 85.5227 29.0155 85.5813 29.1913C85.8744 29.7189 86.2261 30.1292 86.6364 30.4223C87.0467 30.774 87.5157 31.0085 88.1018 31.1257C88.3949 31.1843 88.688 31.243 88.9811 31.3016C89.2742 31.3602 89.5673 31.3602 89.8603 31.3602C90.6224 31.3602 91.2672 31.2429 91.7947 31.0671C92.2636 30.8912 92.674 30.6568 93.0257 30.3637ZM95.1945 25.8502C95.429 26.4363 95.6048 27.0811 95.6048 27.8432V28.019H95.429H94.0808H92.8498V26.7294H93.8463C93.7877 26.6708 93.7877 26.6122 93.7291 26.5536C93.6704 26.495 93.6705 26.4363 93.6118 26.3777C93.3188 25.9674 92.9084 25.6157 92.4981 25.3812C92.0292 25.1468 91.5016 24.9123 90.9154 24.7951C90.6224 24.7364 90.3293 24.6192 89.9776 24.5606C89.6845 24.502 89.3328 24.3847 89.0397 24.3261C88.7466 24.2675 88.3949 24.1503 88.1018 24.0917C87.8087 23.9744 87.5157 23.9158 87.2226 23.7986C86.5778 23.5641 86.0502 23.3296 85.6399 22.9779C85.171 22.6262 84.7606 22.2159 84.5262 21.6883C84.2331 21.1608 84.1158 20.516 84.0572 19.6954H84.2917H85.5813H86.9295V20.9849H85.933C86.0502 21.1608 86.1675 21.3366 86.2847 21.4539C86.6364 21.8056 87.0467 22.04 87.5157 22.2745C87.7501 22.3918 87.9846 22.4504 88.2777 22.5676C88.5708 22.6262 88.8638 22.6848 89.1569 22.7435C89.45 22.8021 89.7431 22.9193 90.0362 22.9779C90.3293 23.0365 90.6224 23.0952 90.9154 23.1538C91.2085 23.2124 91.5016 23.3296 91.7947 23.3882C92.0878 23.4469 92.3809 23.5641 92.674 23.6227C93.2601 23.8572 93.7877 24.0917 94.198 24.4434C94.5497 24.9123 94.9014 25.3226 95.1945 25.8502ZM100.001 18.4058V21.747C100.118 21.747 100.294 21.747 100.646 21.747C100.998 21.747 101.349 21.747 101.818 21.747C102.287 21.747 102.756 21.747 103.284 21.747C103.811 21.747 104.28 21.747 104.749 21.747C105.218 21.747 105.57 21.747 105.921 21.747C106.273 21.747 106.449 21.747 106.566 21.747V23.0365H98.6529V18.3472H100.001V18.4058ZM98.6529 16.999V15.768H109.79V16.999H98.6529ZM109.966 31.1257V32.3567H98.5943V31.1257V24.502H102.58V25.7915H99.9425V31.1257H109.966ZM114.48 32.3567V19.2264H116.062V32.3567H114.48ZM125.91 15.7094H127.493V28.8983H125.91V15.7094ZM119.286 22.7435L116.062 17.8782H114.48V15.768H116.238L119.99 21.4539H121.924V22.7435H120.869H119.286ZM125.851 30.2465H127.434V32.3567H125.617L121.045 25.4399H119.11V24.1503H120.165H121.748L125.851 30.2465ZM131.654 15.7094H143.73V17.0576H131.654V15.7094ZM138.513 26.026V31.0085H139.568V32.2981H138.513H136.93H135.875V31.0085H136.93V26.026H138.513ZM137.692 18.4058H138.513H141.678V19.6954H138.513V24.6778H136.93V19.6954H133.765V18.4058H136.93H137.692ZM147.012 15.7094H148.419V23.9158H147.012V15.7094ZM145.723 25.3226H147.012H148.419V26.6122V32.2981H147.012V26.6122H145.723V25.3226ZM159.849 17.3507C159.673 17.8196 159.439 18.4644 159.087 19.3437C158.794 20.1643 158.442 21.1022 158.032 22.0987C157.68 23.0952 157.27 24.1503 156.86 25.264C156.449 26.3191 156.039 27.3742 155.687 28.3121C155.336 29.25 154.984 30.1292 154.75 30.8326C154.515 31.536 154.281 32.0636 154.163 32.3567H152.522C153.636 29.5431 154.75 26.788 155.805 24.033C156.918 21.278 157.974 18.523 159.087 15.7094H160.904C161.022 16.0025 161.139 16.2956 161.197 16.5886C161.315 16.8817 161.432 17.1162 161.491 17.4093H159.849V17.3507ZM163.073 25.7915H159.732V24.3847H162.546C162.37 23.8572 162.135 23.271 161.901 22.6262C161.666 21.9814 161.432 21.3366 161.256 20.8091C161.022 20.1057 160.787 19.4609 160.494 18.7575H162.077C162.487 19.8712 162.897 21.0436 163.366 22.2745C163.835 23.5055 164.304 24.6778 164.715 25.7915H164.187H163.073ZM165.242 27.0225C165.477 27.5501 165.652 28.0776 165.77 28.4879C165.945 28.8983 166.121 29.3086 166.239 29.7189C166.414 30.1292 166.59 30.5395 166.766 30.9499C166.942 31.3602 167.118 31.8291 167.352 32.4153H165.711C165.535 32.005 165.359 31.536 165.183 31.1257C165.008 30.7154 164.89 30.3051 164.715 29.8361C164.539 29.3672 164.363 28.8983 164.187 28.4879H159.673V27.0811H161.549H163.601H165.242V27.0225ZM171.455 31.0085H181.948V32.3567H171.455V31.0085ZM171.455 22.8021H170.4V21.5125H171.455V15.768H173.038V21.5125V22.8021H171.455ZM173.038 24.1503V26.026V28.1362H175.441V29.4258H173.038H171.455V28.1362V26.026V24.1503H173.038ZM200.178 17.3507C200.002 17.8196 199.768 18.4644 199.416 19.3437C199.123 20.1643 198.771 21.1022 198.361 22.0987C198.009 23.0952 197.599 24.1503 197.188 25.264C196.778 26.3191 196.368 27.3742 196.016 28.3121C195.664 29.25 195.313 30.1292 195.078 30.8326C194.785 31.536 194.609 32.0636 194.492 32.3567H192.909C194.023 29.5431 195.137 26.788 196.192 24.033C197.306 21.278 198.361 18.523 199.475 15.7094H201.292C201.409 16.0025 201.526 16.2956 201.585 16.5886C201.702 16.8817 201.819 17.1162 201.878 17.4093H200.178V17.3507ZM203.402 25.7915H200.061V24.3847H202.874C202.698 23.8572 202.464 23.271 202.23 22.6262C201.995 21.9814 201.761 21.3366 201.585 20.8091C201.35 20.1057 201.116 19.4609 200.823 18.7575H202.405C202.816 19.8712 203.226 21.0436 203.695 22.2745C204.164 23.5055 204.633 24.6778 205.043 25.7915H204.516H203.402ZM205.629 27.0225C205.864 27.5501 206.04 28.0776 206.157 28.4879C206.333 28.8983 206.509 29.3086 206.626 29.7189C206.802 30.1292 206.978 30.5395 207.153 30.9499C207.329 31.3602 207.505 31.8291 207.74 32.4153H206.098C205.922 32.005 205.747 31.536 205.571 31.1257C205.395 30.7154 205.278 30.3051 205.102 29.8361C204.926 29.3672 204.75 28.8983 204.574 28.4879H200.061V27.0811H201.936H203.988H205.629V27.0225ZM211.491 24.4434H212.839V28.4293H214.129H215.418V29.7189H214.129H212.839H211.491V28.4879V24.4434ZM212.839 23.1538H211.491V19.754V18.4644H212.839H214.129H215.418V19.754H214.129H212.839V23.1538ZM222.277 16.9404C222.804 17.3507 223.273 17.8196 223.625 18.4058C223.977 18.992 224.27 19.5781 224.504 20.2229C224.739 20.8677 224.856 21.5125 224.914 22.1573C225.032 22.8021 225.032 23.3882 225.032 23.9744C225.032 24.502 224.973 25.0881 224.914 25.6743C224.856 26.2605 224.739 26.788 224.563 27.3742C224.387 27.9018 224.211 28.4293 223.977 28.9569C223.742 29.4844 223.39 29.8948 223.039 30.3051C222.687 30.7154 222.218 31.1257 221.808 31.3602C221.339 31.5947 220.87 31.8291 220.342 31.9464C219.815 32.0636 219.346 32.1808 218.76 32.2394C218.232 32.2981 217.704 32.2981 217.177 32.2981H211.491V30.9499H213.074H216.825C217.529 30.9499 218.173 30.8912 218.818 30.8326C219.463 30.7154 220.108 30.5395 220.694 30.1878C221.28 29.8948 221.69 29.5431 222.042 29.0741C222.394 28.6052 222.687 28.0776 222.921 27.5501C223.156 26.9639 223.273 26.3777 223.332 25.7915C223.449 25.1468 223.449 24.5606 223.449 23.9744C223.449 23.3882 223.39 22.7435 223.332 22.1573C223.273 21.5125 223.097 20.9263 222.921 20.3988C222.687 19.8126 222.394 19.3437 222.042 18.8747C221.69 18.4058 221.221 17.9955 220.635 17.7024C220.108 17.4679 219.522 17.2921 218.877 17.1748C218.232 17.1162 217.529 17.0576 216.825 17.0576H214.363H213.074H211.491V15.7094H217.177C218.115 15.7094 218.994 15.768 219.815 15.8852C220.694 16.0611 221.515 16.4128 222.277 16.9404ZM228.256 24.4434H229.604V28.4293H230.893H232.183V29.7189H230.893H229.604H228.256V28.4879V24.4434ZM229.604 23.1538H228.256V19.754V18.4644H229.604H230.893H232.183V19.754H230.893H229.604V23.1538ZM239.1 16.9404C239.627 17.3507 240.096 17.8196 240.448 18.4058C240.8 18.992 241.093 19.5781 241.327 20.2229C241.562 20.8677 241.679 21.5125 241.738 22.1573C241.855 22.8021 241.855 23.3882 241.855 23.9744C241.855 24.502 241.796 25.0881 241.738 25.6743C241.679 26.2605 241.562 26.788 241.386 27.3742C241.21 27.9018 241.034 28.4293 240.8 28.9569C240.565 29.4844 240.213 29.8948 239.862 30.3051C239.51 30.7154 239.041 31.1257 238.631 31.3602C238.162 31.5947 237.693 31.8291 237.165 31.9464C236.638 32.0636 236.169 32.1808 235.583 32.2394C235.055 32.2981 234.528 32.2981 234 32.2981H228.314V30.9499H229.897H233.648C234.352 30.9499 234.997 30.8912 235.641 30.8326C236.286 30.7154 236.931 30.5395 237.517 30.1878C238.103 29.8948 238.514 29.5431 238.865 29.0741C239.217 28.6052 239.51 28.0776 239.745 27.5501C239.979 26.9639 240.096 26.3777 240.155 25.7915C240.272 25.1468 240.272 24.5606 240.272 23.9744C240.272 23.3882 240.213 22.7435 240.155 22.1573C240.096 21.5125 239.92 20.9263 239.745 20.3988C239.51 19.8126 239.217 19.3437 238.865 18.8747C238.514 18.4058 238.045 17.9955 237.458 17.7024C236.931 17.4679 236.345 17.2921 235.7 17.1748C235.055 17.1162 234.352 17.0576 233.648 17.0576H231.186H229.838H228.256V15.7094H233.941C234.879 15.7094 235.759 15.768 236.579 15.8852C237.458 16.0611 238.279 16.4128 239.1 16.9404ZM245.079 21.278C244.961 21.747 244.844 22.2159 244.786 22.7435H243.203C243.262 22.3918 243.262 22.04 243.379 21.6883C243.437 21.3366 243.555 20.9849 243.672 20.6919C243.965 19.6367 244.434 18.6989 245.137 17.8782C245.841 17.0576 246.603 16.4714 247.541 16.0025C248.479 15.5335 249.592 15.2991 250.823 15.2991C252.113 15.2991 253.226 15.5335 254.223 16.0025C255.161 16.4128 255.981 17.0576 256.685 17.8782C257.33 18.6989 257.799 19.6367 258.15 20.6919C258.268 21.0436 258.326 21.3366 258.385 21.6883C258.443 22.04 258.502 22.3918 258.561 22.7435H258.326H256.978H255.688V21.4539H256.744C256.744 21.3953 256.685 21.278 256.685 21.2194C256.685 21.1608 256.626 21.0436 256.626 20.9849C256.333 20.0471 255.923 19.285 255.395 18.6403C254.809 17.9955 254.164 17.4679 253.461 17.1162C252.64 16.7645 251.82 16.5886 250.882 16.5886C249.768 16.5886 248.889 16.8231 248.127 17.2334C247.365 17.6438 246.72 18.1713 246.251 18.8747C246.017 19.2264 245.782 19.5781 245.606 19.9884C245.313 20.3988 245.196 20.8091 245.079 21.278ZM258.619 24.0917C258.619 24.6778 258.561 25.264 258.502 25.7915C258.443 26.3777 258.326 26.9053 258.15 27.4328C257.974 27.9604 257.799 28.4879 257.564 28.9569C257.33 29.4258 257.037 29.8361 256.685 30.2465C256.392 30.6568 255.982 31.0085 255.571 31.3016C255.161 31.5947 254.692 31.8877 254.223 32.1222C253.285 32.5911 252.171 32.8256 250.882 32.8256C249.592 32.8256 248.478 32.5911 247.482 32.1222C247.013 31.8877 246.544 31.5947 246.134 31.3016C245.723 31.0085 245.372 30.6568 245.02 30.2465C244.375 29.4844 243.906 28.5466 243.555 27.4915C243.262 26.4363 243.086 25.3226 243.086 24.1503H243.203H244.668H245.841V25.4399H244.786C244.844 25.9674 244.903 26.4363 245.079 26.9053C245.313 27.7845 245.665 28.5466 246.192 29.25C246.72 29.8948 247.365 30.4809 248.068 30.8326C248.83 31.243 249.768 31.4188 250.882 31.4188C251.937 31.4188 252.875 31.243 253.637 30.8326C254.399 30.4223 255.044 29.8948 255.571 29.25C256.04 28.6052 256.45 27.7845 256.685 26.9053C256.919 26.026 257.037 25.0881 257.037 24.1503H258.619V24.0917ZM262.722 32.3567V19.2264H264.305V32.3567H262.722ZM274.153 15.7094H275.735V28.8983H274.153V15.7094ZM267.588 22.7435L264.364 17.8782H262.781V15.768H264.54L268.291 21.4539H270.225V22.7435H269.17H267.588ZM274.094 30.2465H275.677V32.3567H273.86L269.288 25.4399H267.353V24.1503H268.408H269.991L274.094 30.2465ZM282.652 17.761C282.418 17.9955 282.301 18.1713 282.183 18.4058H280.542C280.542 18.3472 280.601 18.2885 280.601 18.2299C280.659 18.1713 280.659 18.1127 280.718 18.0541C280.952 17.5265 281.304 17.0576 281.773 16.6473C282.183 16.2369 282.77 15.9439 283.532 15.6508C284.235 15.4163 285.056 15.2991 285.993 15.2991C286.462 15.2991 286.873 15.3577 287.283 15.4163C287.693 15.4749 288.045 15.5922 288.397 15.7094C289.1 15.9439 289.686 16.2956 290.155 16.7645C290.39 16.999 290.566 17.2334 290.742 17.5265C290.917 17.761 291.093 18.0541 291.21 18.3472C291.445 18.9333 291.562 19.5781 291.562 20.2229H291.328H290.038H288.69V18.9333H289.862C289.804 18.7575 289.745 18.6989 289.745 18.6403C289.511 18.1713 289.217 17.8196 288.866 17.5265C288.514 17.2334 288.045 16.999 287.576 16.8817C287.107 16.7059 286.638 16.6473 286.052 16.6473C285.232 16.6473 284.587 16.7645 284.059 16.999C283.414 17.1162 283.004 17.4093 282.652 17.761ZM289.452 30.3637C289.745 30.0706 289.979 29.7189 290.155 29.3672H291.797C291.562 30.1878 291.093 30.8912 290.39 31.4188C289.335 32.2394 287.869 32.7084 285.935 32.7084C285.056 32.7084 284.294 32.5912 283.532 32.3567C282.828 32.1222 282.183 31.7705 281.656 31.3602C281.128 30.8912 280.718 30.3637 280.425 29.6603C280.132 28.9569 279.956 28.1949 279.956 27.3156H280.19H281.48H282.828V28.6052H281.773C281.832 28.8396 281.949 29.0155 282.008 29.1913C282.301 29.7189 282.652 30.1292 283.063 30.4223C283.473 30.774 283.942 31.0085 284.528 31.1257C284.821 31.1843 285.114 31.243 285.407 31.3016C285.7 31.3602 285.993 31.3602 286.287 31.3602C287.049 31.3602 287.693 31.2429 288.221 31.0671C288.69 30.8912 289.159 30.6568 289.452 30.3637ZM291.621 25.8502C291.855 26.4363 292.031 27.0811 292.031 27.8432V28.019H291.855H290.507H289.276V26.7294H290.273C290.214 26.6708 290.214 26.6122 290.155 26.5536C290.097 26.495 290.097 26.4363 290.038 26.3777C289.745 25.9674 289.335 25.6157 288.924 25.3812C288.455 25.1468 287.928 24.9123 287.342 24.7951C287.049 24.7364 286.756 24.6192 286.404 24.5606C286.111 24.502 285.759 24.3847 285.466 24.3261C285.173 24.2675 284.821 24.1503 284.528 24.0917C284.235 23.9744 283.942 23.9158 283.649 23.7986C283.004 23.5641 282.476 23.3296 282.066 22.9779C281.597 22.6262 281.187 22.2159 280.952 21.6883C280.659 21.1608 280.542 20.516 280.484 19.6954H280.718H282.008H283.356V20.9849H282.359C282.476 21.1608 282.594 21.3366 282.711 21.4539C283.063 21.8056 283.473 22.04 283.942 22.2745C284.176 22.3918 284.411 22.4504 284.704 22.5676C284.997 22.6262 285.29 22.6848 285.583 22.7435C285.876 22.8021 286.169 22.9193 286.462 22.9779C286.756 23.0365 287.049 23.0952 287.342 23.1538C287.635 23.2124 287.928 23.3296 288.221 23.3882C288.514 23.4469 288.807 23.5641 289.1 23.6227C289.686 23.8572 290.214 24.0917 290.624 24.4434C290.976 24.9123 291.328 25.3226 291.621 25.8502Z" fill="#4D417F"/>
<defs>
<linearGradient id="paint0_linear_883_1491" x1="21.9433" y1="6.60682" x2="21.9433" y2="41.0914" gradientUnits="userSpaceOnUse">
<stop stop-color="#2460FF"/>
<stop offset="1" stop-color="#B80AFF"/>
</linearGradient>
<linearGradient id="paint1_linear_883_1491" x1="23.0859" y1="37.9377" x2="10.8676" y2="42.336" gradientUnits="userSpaceOnUse">
<stop stop-color="#FF710F"/>
<stop offset="1" stop-color="#CB16A9"/>
</linearGradient>
</defs>
</svg>
