<svg width="20" height="20" viewBox="0 0 20 20" fill="none" xmlns="http://www.w3.org/2000/svg">
<g clip-path="url(#clip0_68_1141)">
<path d="M4.43242 12.086L3.73625 14.6849L1.19176 14.7388C0.431328 13.3283 0 11.7146 0 9.99979C0 8.34154 0.403281 6.77779 1.11812 5.40088H1.11867L3.38398 5.81619L4.37633 8.06791C4.16863 8.67342 4.05543 9.32342 4.05543 9.99979C4.05551 10.7338 4.18848 11.4372 4.43242 12.086Z" fill="#FBBB00"/>
<path d="M19.8252 8.13184C19.94 8.73676 19.9999 9.36148 19.9999 9.99996C19.9999 10.7159 19.9246 11.4143 19.7812 12.0879C19.2944 14.3802 18.0224 16.3818 16.2604 17.7983L16.2598 17.7978L13.4065 17.6522L13.0027 15.1313C14.1719 14.4456 15.0857 13.3725 15.567 12.0879H10.2197V8.13184H15.645H19.8252Z" fill="#518EF8"/>
<path d="M16.2598 17.798L16.2603 17.7985C14.5466 19.176 12.3697 20.0001 9.99989 20.0001C6.19165 20.0001 2.88067 17.8716 1.19165 14.7392L4.43231 12.0864C5.27681 14.3403 7.45099 15.9447 9.99989 15.9447C11.0955 15.9447 12.1219 15.6485 13.0026 15.1315L16.2598 17.798Z" fill="#28B446"/>
<path d="M16.383 2.30219L13.1434 4.95438C12.2319 4.38461 11.1544 4.05547 10 4.05547C7.39344 4.05547 5.17859 5.73348 4.37641 8.06813L1.11871 5.40109H1.11816C2.78246 2.19231 6.13519 0 10 0C12.4264 0 14.6511 0.864297 16.383 2.30219Z" fill="#F14336"/>
</g>
<defs>
<clipPath id="clip0_68_1141">
<rect width="20" height="20" fill="white"/>
</clipPath>
</defs>
</svg>
