<?xml version="1.0" encoding="utf-8"?>
<!-- Generator: Adobe Illustrator 23.0.0, SVG Export Plug-In . SVG Version: 6.00 Build 0)  -->
<svg version="1.1" id="Layer_1" xmlns="http://www.w3.org/2000/svg" xmlns:xlink="http://www.w3.org/1999/xlink" x="0px" y="0px"
	 viewBox="0 0 500 500" style="enable-background:new 0 0 500 500;" xml:space="preserve">
<style type="text/css">
	.st0{fill:url(#SVGID_1_);}
	.st1{fill:url(#SVGID_2_);}
	.st2{fill:url(#SVGID_3_);}
	.st3{fill:url(#SVGID_4_);}
	.st4{fill:url(#SVGID_5_);}
	.st5{fill:url(#SVGID_6_);}
	.st6{fill:url(#SVGID_7_);}
	.st7{fill:url(#SVGID_8_);}
	.st8{fill:url(#SVGID_9_);}
	.st9{fill:url(#SVGID_10_);}
</style>
<g>
	<linearGradient id="SVGID_1_" gradientUnits="userSpaceOnUse" x1="-2.5273" y1="250.782" x2="497.9953" y2="250.782">
		<stop  offset="0" style="stop-color:#5725FF"/>
		<stop  offset="1" style="stop-color:#9271FF"/>
	</linearGradient>
	<path class="st0" d="M428.9,76.4C382.2,28.3,319.4,1.4,252,0.6c-1,0-2,0-3,0c-65.7,0-127.8,25.5-175,71.8
		C26.5,119.2-0.1,182-0.8,249.1c-0.4,66,24.8,128.6,71,176.1c46.6,48,109.3,74.9,176.5,75.8c1.1,0,2.1,0,3.2,0c0,0,0,0,0,0
		c65.7,0,127.8-25.5,174.9-71.7c47.7-46.8,74.3-109.5,74.9-176.6C500.3,186.6,475.2,124,428.9,76.4z M249.8,481.4l-0.8,0
		C121.8,481,18.5,377.4,18.8,250.4c0.3-127,103.7-230.3,230.5-230.3l0.4,0c127.2,0.2,230.5,103.7,230.4,230.8
		C480.1,378,376.7,481.4,249.8,481.4z"/>
	<linearGradient id="SVGID_2_" gradientUnits="userSpaceOnUse" x1="-2.5273" y1="237.9246" x2="498.4112" y2="237.9246">
		<stop  offset="0" style="stop-color:#5725FF"/>
		<stop  offset="1" style="stop-color:#9271FF"/>
	</linearGradient>
	<path class="st1" d="M258.1,108.1c-3.1-3.1-5.8-4.5-8.6-4.5c-2.8,0-5.5,1.4-8.5,4.5c-33.2,33.2-66.5,66.4-99.7,99.7
		c-6,6-6.1,11.2-0.2,17.1c10.1,10.3,20.6,20.7,31.1,31.1c3.2,3.1,5.9,4.6,8.6,4.6c2.7,0,5.4-1.4,8.5-4.5c5-4.9,10-9.9,14.8-14.7
		c2.5-2.5,5-5,7.5-7.5c0.7-0.7,1.4-1.4,2.4-2.3c0,0,0,0,0.1,0l0,126.5c0,11.5,2.7,14.2,14.4,14.2l25.4,0l17.6,0
		c10.6,0,13.5-2.9,13.5-13.7c0-31.8,0-127.4,0-127.4c2.3,2.3,4.6,4.7,7,7c5.8,5.9,11.8,11.9,17.8,17.8c3.1,3.1,5.9,4.5,8.5,4.5
		c0,0,0,0,0,0c2.7,0,5.4-1.4,8.6-4.6c10.1-10,20.6-20.5,31.1-31.1c5.9-6,5.9-11.1-0.1-17.1C324.5,174.5,291.3,141.3,258.1,108.1z
		 M317.5,236.4l-6.4-6.4c-7-7-14-14.1-21.1-21.2c-0.7-0.7-1.4-1.5-2.1-2.2c-1.7-1.9-3.5-3.9-5.7-5.2c-2.7-1.5-5.9-2.5-8.5-2.5
		c-0.6,0-1.3,0.1-1.8,0.2c-4,0.7-6.4,4.4-6.5,9.7c0,2.7,0,5.4,0,8.1l0,39.2c0,30.2,0,60.5,0,90.7c0,0.6,0,1.2,0,1.7c0,2,0,3.6-0.3,4
		c-0.2,0.2-1.7,0.2-2.2,0.2c-0.4,0-0.8,0-1.2,0c-0.6,0-1.2,0-1.9,0l-1.9,0c-2,0-4,0-6,0c-2,0-4,0-6.1,0c-3.3,0-6.1,0.1-8.6,0.2
		c-0.2,0-0.4,0-0.6,0c-1.2,0-1.9-0.2-2.4-0.6c-0.6-0.6-0.7-2.1-0.7-3.9c0.1-35.8,0.1-72.2,0.1-107.4l0-29.2c0-0.8,0-1.6,0-2.4
		c0-5.3-2.1-8.8-6.2-10.4c-1.2-0.5-2.5-0.7-3.7-0.7c-2.8,0-5.5,1.3-8,3.8c-9.7,9.8-19.7,19.7-29.3,29.3l-4.3,4.3
		c-0.2,0.2-0.3,0.3-0.5,0.5L162,216.5l87.7-87.7l87.3,87.4L317.5,236.4z"/>
	<linearGradient id="SVGID_3_" gradientUnits="userSpaceOnUse" x1="-2.5273" y1="223.0584" x2="498.4112" y2="223.0584">
		<stop  offset="0" style="stop-color:#5725FF"/>
		<stop  offset="1" style="stop-color:#9271FF"/>
	</linearGradient>
	<path class="st2" d="M71.6,228.6c6.4-47.4,28.3-86.7,64.9-116.7c24.7-20.3,53.7-33.1,86-38.1c9-1.4,18.2-2.1,27.2-2.1
		c8.8,0,17.8,0.7,26.7,2c0.9,0.1,1.7,0.2,2.6,0.2c5.5,0,9.2-3.1,10.1-8.2c0.4-2.5-0.1-4.9-1.5-6.8c-1.7-2.3-4.5-3.9-8.2-4.5
		c-9.7-1.6-19.7-2.4-29.5-2.4c-12.3,0-24.9,1.3-37.4,3.7C160,66,118.4,92.5,88.7,134.3c-40.8,57.5-49,120.9-24.4,188.5
		c8.8,24.2,23.4,46.7,43.3,67.1c1.9,1.9,4.6,4.2,8.1,4.2c1.1,0,2.2-0.2,3.4-0.6c3.3-1.2,5.5-3.6,6.2-6.5c0.8-3.6-0.7-7.6-4.1-11.2
		c-32-33.2-49.1-73.7-50.7-120.5c0-1.4,0-2.7,0-4.1c0-3.1-0.1-6.2,0.1-9.3C70.8,236.5,71.1,232.4,71.6,228.6z"/>
	<linearGradient id="SVGID_4_" gradientUnits="userSpaceOnUse" x1="-2.5273" y1="242.9939" x2="498.4112" y2="242.9939">
		<stop  offset="0" style="stop-color:#5725FF"/>
		<stop  offset="1" style="stop-color:#9271FF"/>
	</linearGradient>
	<path class="st3" d="M396.5,117.2c-6.4-6.9-13.6-13.2-20.5-19.3c-1.1-1-2.2-1.9-3.3-2.9c-2-1.8-4.4-2.8-6.9-2.8
		c-2.8,0-5.4,1.2-7.3,3.4c-3.6,4.3-3,9.6,1.6,14c0.9,0.9,1.8,1.7,2.8,2.4c0.4,0.3,0.7,0.6,1.1,0.9c44.2,37.9,65.9,86.3,64.5,143.7
		c-1,40.4-14.9,77-41.3,108.7c-1.4,1.7-2.9,3.3-4.4,4.8c-2.4,2.5-4.9,5.1-6.8,8c-1.8,2.7-2.4,7.2-1.3,10.2c0.9,2.6,5,5.4,7.8,5.4
		l0.1,0c3.4-0.1,7.1-2.4,9.3-4.6c35.3-36.5,55.3-82.5,56.3-129.6C448.9,204.2,430.5,153.7,396.5,117.2z"/>
	<linearGradient id="SVGID_5_" gradientUnits="userSpaceOnUse" x1="-2.5273" y1="77.7156" x2="498.4112" y2="77.7156">
		<stop  offset="0" style="stop-color:#5725FF"/>
		<stop  offset="1" style="stop-color:#9271FF"/>
	</linearGradient>
	<path class="st4" d="M311.6,82.5c5.7,2.7,12,5.4,19.2,8.3c1.2,0.5,2.5,0.8,3.8,0.8c3.7,0,7.1-2.1,8.7-5.5c2.4-5,0.4-10.4-4.7-12.9
		c-4.7-2.3-9.5-4.3-14.2-6.3c-1.4-0.6-2.7-1.2-4.1-1.7c-1-0.4-2.1-0.7-3-1c-0.3-0.1-0.6-0.2-0.9-0.3l-0.2-0.1l-0.3,0
		c-5.4,0.6-8.7,3.3-9.7,7.9C305.1,76.4,307.1,80.4,311.6,82.5z"/>
	<linearGradient id="SVGID_6_" gradientUnits="userSpaceOnUse" x1="-2.5273" y1="431.2239" x2="498.4112" y2="431.2239">
		<stop  offset="0" style="stop-color:#5725FF"/>
		<stop  offset="1" style="stop-color:#9271FF"/>
	</linearGradient>
	<path class="st5" d="M249.7,412.9l-0.2,0c-5.3,0-9.3,3.8-9.7,9.5c-0.2,2-0.1,4-0.1,5.9c0,0.9,0,1.8,0,2.7c0,0.8,0,1.7,0,2.5
		c0,2-0.1,4,0.1,6c0.4,5.7,4.5,9.9,9.6,10l0.2,0c5.1,0,9.4-4.2,9.7-9.7c0.3-5.6,0.3-11.5,0-17.6C258.9,416.9,255,413,249.7,412.9z"
		/>
	<linearGradient id="SVGID_7_" gradientUnits="userSpaceOnUse" x1="-2.5273" y1="407.6321" x2="498.4112" y2="407.6321">
		<stop  offset="0" style="stop-color:#5725FF"/>
		<stop  offset="1" style="stop-color:#9271FF"/>
	</linearGradient>
	<path class="st6" d="M164.4,390.4l-0.4,0l-0.3,0.2c-0.2,0.2-0.6,0.4-1.1,0.6c-1.5,0.8-3.5,1.8-4.7,3.5c-3.7,5.3-6.8,11.1-9.4,16
		c-2.4,4.5-0.9,9.6,3.5,12.4c1.7,1,3.5,1.6,5.4,1.6c3,0,5.7-1.5,7.4-4c4.1-6.1,7.3-11.7,9.8-17c1.3-2.8,1.2-5.9-0.4-8.5
		C172.2,392.3,168.7,390.5,164.4,390.4z"/>
	<linearGradient id="SVGID_8_" gradientUnits="userSpaceOnUse" x1="-2.5273" y1="407.1936" x2="498.4112" y2="407.1936">
		<stop  offset="0" style="stop-color:#5725FF"/>
		<stop  offset="1" style="stop-color:#9271FF"/>
	</linearGradient>
	<path class="st7" d="M351.5,414.6c0-0.6,0-1.3-0.3-1.9c-1-1.7-1.9-3.4-2.8-5.1c-2.6-4.8-5.3-9.7-8.5-14.3c-1.4-2-3.6-3.1-6.1-3.1
		c-1.8,0-3.7,0.6-5.5,1.7c-4.5,2.8-6,7.1-3.9,11.4c2.9,5.9,6.1,12.2,10.4,17.8c1.6,2.1,5.5,3.1,8.4,3.1c0.5,0,1,0,1.4-0.1
		c4-0.5,6.7-3.9,7-8.7l0-0.1l0-0.1C351.5,415,351.5,414.8,351.5,414.6z"/>
	<linearGradient id="SVGID_9_" gradientUnits="userSpaceOnUse" x1="-2.5273" y1="425.1868" x2="498.4112" y2="425.1868">
		<stop  offset="0" style="stop-color:#5725FF"/>
		<stop  offset="1" style="stop-color:#9271FF"/>
	</linearGradient>
	<path class="st8" d="M208.8,407.6c-0.9-0.3-1.8-0.4-2.8-0.4c-3.9,0-7.4,2.3-8.6,5.7c-1.6,4.6-2.9,9.4-4,13.6
		c-0.4,1.6-0.8,3.2-1.3,4.6l0,0.1l0,0.1c-0.2,5.9,2.4,10.2,7,11.4c0.9,0.2,1.9,0.4,2.8,0.4c0,0,0,0,0,0c4.2,0,7.5-2.4,8.8-6.2
		c2.1-6.5,3.8-12.8,5-18.9C216.5,413.2,214,409.3,208.8,407.6z"/>
	<linearGradient id="SVGID_10_" gradientUnits="userSpaceOnUse" x1="-2.5273" y1="425.1707" x2="498.4112" y2="425.1707">
		<stop  offset="0" style="stop-color:#5725FF"/>
		<stop  offset="1" style="stop-color:#9271FF"/>
	</linearGradient>
	<path class="st9" d="M305.6,426.7c-1.1-4.3-2.4-9.3-4.2-14c-1.3-3.5-4.3-5.5-8.1-5.5c-0.9,0-1.9,0.1-2.9,0.4
		c-5.2,1.4-8,5.4-7.1,10.3c1.2,6.6,3,13.3,5.4,19.8c1.2,3.5,4.2,5.5,8.1,5.5c0.9,0,1.9-0.1,2.9-0.4c4.8-1.2,7.2-4.7,7.4-10.9l0-0.2
		l-0.1-0.2C306.5,430.1,306.1,428.4,305.6,426.7z"/>
</g>
</svg>
