<?xml version="1.0" encoding="utf-8"?>
<!-- Generator: Adobe Illustrator 23.0.0, SVG Export Plug-In . SVG Version: 6.00 Build 0)  -->
<svg version="1.1" id="Layer_1" xmlns="http://www.w3.org/2000/svg" xmlns:xlink="http://www.w3.org/1999/xlink" x="0px" y="0px"
	 viewBox="0 0 500 500" style="enable-background:new 0 0 500 500;" xml:space="preserve">
<style type="text/css">
	.st0{fill:url(#SVGID_1_);}
</style>
<g>
	<linearGradient id="SVGID_1_" gradientUnits="userSpaceOnUse" x1="22.1892" y1="250.5491" x2="476.903" y2="250.5491">
		<stop  offset="0" style="stop-color:#5725FF"/>
		<stop  offset="1" style="stop-color:#9271FF"/>
	</linearGradient>
	<path class="st0" d="M66.5,500.1c-24.43,0-44.31-19.93-44.31-44.42v-61.3c0-42.22,31.52-77.68,73.33-82.47l0.48-0.05
		c25.23-2.89,48.29-13.65,66.67-31.12l1.13-1.07l-1.08-1.11c-13.44-13.81-23.51-30.8-29.11-49.12l-0.33-1.09h-2.75
		c-36.51,0-66.22-29.71-66.22-66.22v-0.19c0-36.26,29.5-65.97,65.75-66.22l1.21-0.01l0.28-1.18c6.13-26.15,21.12-49.89,42.22-66.84
		C195.17,10.48,222.09,1,249.55,1s54.37,9.48,75.79,26.69c21.1,16.95,36.09,40.69,42.22,66.84l0.28,1.18l1.21,0.01
		c36.18,0.26,65.61,30.01,65.61,66.32c0,36.57-29.65,66.31-66.09,66.31h-2.73l-0.33,1.09c-5.66,18.55-15.9,35.71-29.59,49.62
		l-1.1,1.12l1.14,1.08c18.31,17.27,42.15,28.27,67.11,30.96c42.1,4.55,73.86,40.03,73.86,82.53v60.93
		c0,24.49-19.88,44.42-44.31,44.42H66.5z M198.82,305.3c-25.74,27.48-60.51,44.97-97.89,49.25l-0.5,0.06
		c-20.1,2.3-35.26,19.39-35.26,39.77v62.73h368.73l0.01-62.37c0-20.51-15.26-37.62-35.49-39.8c-37.73-4.07-72.85-21.59-98.87-49.33
		l-0.74-0.79l-0.99,0.43c-15.28,6.66-31.53,10.03-48.28,10.03c-17.03,0-33.51-3.48-48.98-10.34l-1-0.44L198.82,305.3z M249.55,43.99
		c-43.13,0-78.21,35.09-78.21,78.21v71.9c0,43.13,35.09,78.21,78.21,78.21c29.02,0,55.52-15.98,69.16-41.71l1.2-2.25h-68.75
		c-11.85,0-21.49-9.64-21.49-21.49s9.64-21.49,21.49-21.49h76.61V122.2c0-0.98-0.02-1.96-0.05-2.93c-0.06-0.68-0.09-1.27-0.1-1.86
		C325.06,76.2,290.78,43.99,249.55,43.99z M126.55,139.04c-11.16,1.94-19.26,11.57-19.26,22.9v0.19c0,11.34,8.1,20.97,19.27,22.9
		l1.8,0.31v-46.6L126.55,139.04z M370.74,185.32l1.8-0.32c11.07-1.96,19.11-11.62,19.11-22.97c0-11.36-8.04-21.03-19.11-22.98
		l-1.8-0.32V185.32z"/>
</g>
</svg>
