<svg style="enable-background:new 0 0 48 48;" version="1.1" viewBox="0 0 48 48" xml:space="preserve" xmlns="http://www.w3.org/2000/svg" xmlns:xlink="http://www.w3.org/1999/xlink"><g id="Icons"><g><g id="Icons_7_"><g><path d="M35.72935,25.74662l0.8357-0.8271c1.611-1.611,2.4122-3.7475,2.4122-5.8668      c0-2.1279-0.8012-4.2558-2.4122-5.8668c-3.2221-3.2221-8.5031-3.2221-11.7337,0l-0.8271,0.8356l-0.8356-0.8356      c-3.222-3.2221-8.5031-3.2221-11.7251,0c-1.6196,1.611-2.4208,3.7389-2.4208,5.8668c0,2.1193,0.8012,4.2558,2.4208,5.8668      l0.8271,0.8271l11.3076,11.3077c0.2353,0.2352,0.6167,0.2351,0.8519-0.0002L35.72935,25.74662" style="fill:#EF4B53;"></path></g></g><path d="M17.80325,12.24382c0,0-6.9318-0.5491-7.6524,7.3092c0,0,1.4413-5.765,7.8583-5.4905    c0,0,1.5941,0.1605,1.5901-0.8317C19.59495,12.14722,17.80325,12.24382,17.80325,12.24382z" style="fill:#F47682;"></path></g></g></svg>