<svg xmlns="http://www.w3.org/2000/svg" xmlns:xlink="http://www.w3.org/1999/xlink" version="1.1" id="icon-bolt" x="0px" y="0px" viewBox="0 0 64 64" style="enable-background:new 0 0 64 64;" xml:space="preserve">
<linearGradient id="SVGID_1__52550" gradientUnits="userSpaceOnUse" x1="32" y1="5.625" x2="32" y2="59.1799" spreadMethod="reflect">
	<stop offset="0" style="stop-color:#1A6DFF"></stop>
	<stop offset="1" style="stop-color:#C822FF"></stop>
</linearGradient>
<path style="fill:url(#SVGID_1__52550);" d="M24.028,58h-1.963c-0.688,0-1.318-0.347-1.688-0.927c-0.369-0.582-0.416-1.302-0.123-1.926  L27.011,40H15.999c-1.188,0-2.232-0.673-2.726-1.757c-0.494-1.086-0.313-2.32,0.471-3.219L38.468,6.684  C38.848,6.249,39.396,6,39.971,6h1.964c0.687,0,1.316,0.346,1.686,0.926c0.371,0.581,0.417,1.302,0.126,1.926L36.667,24h11.335  c1.188,0,2.232,0.673,2.726,1.757c0.494,1.086,0.313,2.32-0.471,3.219L25.531,57.316C25.153,57.75,24.605,58,24.028,58z M39.971,8  l-24.72,28.339c-0.395,0.452-0.221,0.938-0.157,1.077C15.157,37.553,15.406,38,15.999,38h14.095l-8.021,17.979L24.028,56  l24.721-28.339c0.395-0.452,0.221-0.938,0.157-1.077C48.843,26.447,48.594,26,48.001,26H33.524l8.41-17.995L39.971,8z"></path>
<linearGradient id="SVGID_2__52550" gradientUnits="userSpaceOnUse" x1="31.9999" y1="18.75" x2="31.9999" y2="44.8088" spreadMethod="reflect">
	<stop offset="0" style="stop-color:#6DC7FF"></stop>
	<stop offset="1" style="stop-color:#E6ABFF"></stop>
</linearGradient>
<path style="fill:url(#SVGID_2__52550);" d="M31.226,43.457l4.006-8.011C35.564,34.782,35.081,34,34.338,34H23.093  c-0.849,0-1.313-0.99-0.769-1.642l9.974-11.968c0.393-0.472,1.128,0.038,0.823,0.571l-4.311,7.545  C28.428,29.171,28.909,30,29.676,30h11.231c0.833,0,1.302,0.958,0.79,1.616l-9.625,12.375C31.7,44.47,30.954,44.001,31.226,43.457z"></path>
</svg>