<svg xmlns="http://www.w3.org/2000/svg" xmlns:xlink="http://www.w3.org/1999/xlink" version="1.1" id="Layer_1" x="0px" y="0px" viewBox="0 0 48 48" style="enable-background:new 0 0 48 48;" xml:space="preserve">
<g id="surface1">
	<path style="fill:#FF3D00;" d="M39,39c0,1.1-0.9,2-2,2H11c-1.1,0-2-0.9-2-2V20h30V39z"></path>
	<path style="fill:#4CAF50;" d="M22,22h4v19h-4V22z"></path>
	<path style="fill:#4CAF50;" d="M31.5,16H19.7l2.3-2c0.5-0.7,3.8-7,8.5-7C35,7,36,10.2,36,11.5C36,13.3,34.8,16,31.5,16z M25.6,13   h5.9c1.4,0,1.5-1.1,1.5-1.5c0-0.4-0.3-1.5-2.5-1.5C28.9,10,27,11.5,25.6,13z"></path>
	<path style="fill:#4CAF50;" d="M28.3,16H16.5c-3.3,0-4.5-2.7-4.5-4.5c0-1.3,1-4.5,5.5-4.5c4.7,0,8,6.3,8.5,7L28.3,16z M17.5,10   c-2.4,0-2.5,1.3-2.5,1.5c0,0.7,0.3,1.5,1.5,1.5h5.9C21,11.5,19.1,10,17.5,10z"></path>
	<path style="fill:#2E7D32;" d="M26,14c0,1.1-0.9,2-2,2s-2-0.9-2-2s0.9-2,2-2S26,12.9,26,14z"></path>
	<path style="fill:#DD2C00;" d="M41,22H7v-4c0-1.1,0.9-2,2-2h30c1.1,0,2,0.9,2,2V22z"></path>
	<path style="fill:#DD2C00;" d="M31,31c0,3.9-3.1,7-7,7s-7-3.1-7-7s3.1-7,7-7S31,27.1,31,31z"></path>
	<path style="fill:#388E3C;" d="M22,16h4v6h-4V16z"></path>
	<rect x="23" y="27" style="fill:#FFFFFF;" width="2" height="8"></rect>
	
		<rect x="23" y="27" transform="matrix(0.499 -0.8666 0.8666 0.499 -14.8591 36.2984)" style="fill:#FFFFFF;" width="2" height="8"></rect>
	
		<rect x="20" y="30" transform="matrix(0.873 -0.4878 0.4878 0.873 -12.0767 15.6257)" style="fill:#FFFFFF;" width="8" height="2"></rect>
</g>
</svg>