<?xml version="1.0" encoding="utf-8"?>
<!-- Generator: Adobe Illustrator 23.0.0, SVG Export Plug-In . SVG Version: 6.00 Build 0)  -->
<svg version="1.1" id="Layer_1" xmlns="http://www.w3.org/2000/svg" xmlns:xlink="http://www.w3.org/1999/xlink" x="0px" y="0px"
	 viewBox="0 0 500 500" style="enable-background:new 0 0 500 500;" xml:space="preserve">
<style type="text/css">
	.st0{fill:url(#SVGID_1_);}
	.st1{fill:url(#SVGID_2_);}
</style>
<g>
	<linearGradient id="SVGID_1_" gradientUnits="userSpaceOnUse" x1="2.0012" y1="192.8752" x2="498" y2="192.8752">
		<stop  offset="0" style="stop-color:#5725FF"/>
		<stop  offset="1" style="stop-color:#9271FF"/>
	</linearGradient>
	<path class="st0" d="M168,373.08c2.06,5.79,7.54,9.67,13.69,9.67h137.59c6.15,0,11.63-3.87,13.69-9.67
		c8.63-24.28,29.25-41.87,53.62-46.95v56.62h29.06h33.64h34.17c4.72,0,9.14-2.29,11.86-6.14c2.73-3.85,3.41-8.78,1.84-13.23
		c-14.34-40.56-52.93-67.81-96.05-67.81c-17.68,0-34.6,4.68-49.41,13.01v-43.05h23.19c8.03,0,14.53-6.51,14.53-14.53
		c0-8.03-6.51-14.53-14.53-14.53h-23.19V205.4c49.23-7.07,87.19-49.52,87.19-100.68V75.66c0-8.03-6.51-14.53-14.53-14.53
		c-8.03,0-14.53,6.51-14.53,14.53v29.06c0,36.09-26.45,66.1-60.97,71.71c-4.55-11.92-14.17-21.34-26.21-25.61v-17.03
		c0-18.45-6.93-35.31-18.3-48.14c27.63-10.29,47.37-36.93,47.37-68.11c0-8.03-6.51-14.53-14.53-14.53s-14.53,6.51-14.53,14.53
		c0,24.04-19.56,43.59-43.59,43.59h-58.12c-24.04,0-43.59-19.56-43.59-43.59c0-8.03-6.51-14.53-14.53-14.53s-14.53,6.51-14.53,14.53
		c0,31.17,19.74,57.81,47.37,68.11c-11.38,12.83-18.3,29.69-18.3,48.14v17.03c-12.05,4.27-21.67,13.7-26.21,25.61
		c-34.53-5.61-60.97-35.62-60.97-71.71V75.66c0-8.03-6.51-14.53-14.53-14.53c-8.03,0-14.53,6.51-14.53,14.53v29.06
		c0,51.15,37.96,93.61,87.19,100.68v31.07h-25.29c-8.03,0-14.53,6.51-14.53,14.53c0,8.03,6.51,14.53,14.53,14.53h25.29v42.5
		c-14.57-8-31.15-12.46-48.44-12.46c-43.54,0-82.74,27.67-97,67.79c-1.58,4.45-0.9,9.39,1.82,13.25c2.72,3.86,7.15,6.15,11.87,6.15
		h41.1h27.68h29.06v-56.62C138.75,331.21,159.37,348.81,168,373.08z M415.66,326.09c17.51,3.57,33.08,13.46,43.72,27.59h-43.72
		V326.09z M206.41,133.78c0-24.04,19.56-43.59,43.59-43.59s43.59,19.56,43.59,43.59v14.53h-87.19V133.78z M177.34,191.91
		c0-8.01,6.52-14.53,14.53-14.53h43.59h29.06h43.59c8.01,0,14.53,6.52,14.53,14.53v140.67c0,0.15,0.02,0.29,0.02,0.44
		c-5.12,6.27-9.54,13.19-13.09,20.67h-45.06h-29.06h-44.09c-3.78-7.94-8.52-15.24-14.04-21.81V191.91z M85.31,353.69H40.88
		c10.85-14,26.8-23.98,44.43-27.58V353.69z"/>
	<linearGradient id="SVGID_2_" gradientUnits="userSpaceOnUse" x1="2.0012" y1="455.261" x2="498" y2="455.261">
		<stop  offset="0" style="stop-color:#5725FF"/>
		<stop  offset="1" style="stop-color:#9271FF"/>
	</linearGradient>
	<path class="st1" d="M483.47,411.81h-67.81v-0.29h-29.06v56.91c-24.37-5.07-44.99-22.67-53.62-46.95
		c-2.06-5.79-7.54-9.67-13.69-9.67H181.69c-6.15,0-11.63,3.87-13.69,9.67c-8.63,24.28-29.25,41.88-53.62,46.95v-56.78H85.31v0.16
		H16.53c-4.72,0-9.15,2.29-11.87,6.15c-2.72,3.86-3.4,8.8-1.82,13.24c14.23,40.03,53.35,67.79,97,67.79
		c39.24,0,74.82-22.97,91.54-58.12h118.21c16.71,35.15,52.3,58.12,91.53,58.12c43.11,0,81.71-27.25,96.05-67.81
		c1.57-4.45,0.89-9.38-1.84-13.23C492.61,414.1,488.19,411.81,483.47,411.81z M85.31,468.46c-17.64-3.6-33.58-13.58-44.43-27.58
		h44.43V468.46z M415.66,468.47v-27.59h43.72C448.73,455,433.17,464.9,415.66,468.47z"/>
</g>
</svg>
