<?xml version="1.0" encoding="utf-8"?>
<!-- Generator: Adobe Illustrator 23.0.0, SVG Export Plug-In . SVG Version: 6.00 Build 0)  -->
<svg version="1.1" id="Layer_1" xmlns="http://www.w3.org/2000/svg" xmlns:xlink="http://www.w3.org/1999/xlink" x="0px" y="0px"
	 viewBox="0 0 500 500" style="enable-background:new 0 0 500 500;" xml:space="preserve">
<style type="text/css">
	.st0{fill:url(#SVGID_1_);}
</style>
<linearGradient id="SVGID_1_" gradientUnits="userSpaceOnUse" x1="0" y1="250.782" x2="500" y2="250.782">
	<stop  offset="0" style="stop-color:#5725FF"/>
	<stop  offset="1" style="stop-color:#9271FF"/>
</linearGradient>
<path class="st0" d="M250,500.8c-137.8,0-250-112.1-250-250c0-137.9,112.2-250,250-250s250,112.1,250,250
	C500,388.6,387.8,500.8,250,500.8z M250,25.2c-124.4,0-225.6,101.2-225.6,225.6S125.6,476.4,250,476.4s225.6-101.2,225.6-225.6
	S374.4,25.2,250,25.2L250,25.2z M261.5,423.9c-2.2,0-4.4-0.6-6.4-1.8l-60-36.9c-0.4-0.2-0.7-0.4-1.1-0.7L66.9,306.2
	c-4.2-2.6-6.4-7.5-5.6-12.3c0.8-4.9,4.5-8.8,9.3-9.9c0.8-0.2,78.2-19.3,130.3-110c3.3-5.7,10.4-7.8,16.2-4.8l34.1,17.7l56.1-111
	c3-6,10.4-8.4,16.4-5.4c6,3,8.4,10.4,5.4,16.4c0,0,0,0,0,0l-56.2,111.2l14.2,7.4l55.8-110.4c3-6,10.3-8.4,16.4-5.4
	c6,3,8.4,10.4,5.4,16.4l-55.9,110.6l30.8,16c4.2,2.2,6.7,6.6,6.6,11.3c-0.1,4-4.4,100.1-75.7,176.1
	C268.1,422.5,264.8,423.9,261.5,423.9z M220.5,372.1l38.7,23.8c22.5-26.1,36.9-54.4,46.1-79.5l-126-73.2c-28.8,29.9-58,46.6-78,55.5
	l32.1,19.7l29.2-21.7c5.4-4,13.1-2.9,17.1,2.5c4,5.4,2.9,13-2.5,17.1l-21.4,15.9l43.4,26.7l22.1-22.1c4.8-4.7,12.5-4.8,17.3,0
	c4.8,4.8,4.7,12.5,0,17.2L220.5,372.1L220.5,372.1z M195.7,224.6l117.2,68.1c5.1-18.5,7.2-33.6,8.1-42.1l-105.1-54.5
	C209.4,206.5,202.6,216,195.7,224.6L195.7,224.6z"/>
</svg>
