<?xml version="1.0" encoding="utf-8"?>
<!-- Generator: Adobe Illustrator 23.0.0, SVG Export Plug-In . SVG Version: 6.00 Build 0)  -->
<svg version="1.1" id="Layer_1" xmlns="http://www.w3.org/2000/svg" xmlns:xlink="http://www.w3.org/1999/xlink" x="0px" y="0px"
	 viewBox="0 0 500 500" style="enable-background:new 0 0 500 500;" xml:space="preserve">
<style type="text/css">
	.st0{fill:url(#SVGID_1_);}
</style>
<g>
	<linearGradient id="SVGID_1_" gradientUnits="userSpaceOnUse" x1="-3.051759e-05" y1="251.286" x2="500" y2="251.286">
		<stop  offset="0" style="stop-color:#5725FF"/>
		<stop  offset="1" style="stop-color:#9271FF"/>
	</linearGradient>
	<path class="st0" d="M498.43,223.54c-0.79-7.03-8.98-12.32-16.07-12.32c-22.91,0-43.25-13.44-51.77-34.25
		c-8.7-21.32-3.09-46.16,13.98-61.82c5.37-4.91,6.03-13.15,1.52-18.86c-11.73-14.89-25.05-28.34-39.6-40
		c-5.69-4.57-14.05-3.94-19,1.53c-14.91,16.5-41.67,22.64-62.36,14.01c-21.52-9.06-35.1-30.87-33.77-54.28
		c0.44-7.36-4.94-13.75-12.27-14.6c-18.68-2.16-37.52-2.23-56.26-0.15c-7.23,0.8-12.61,7.04-12.37,14.31
		c0.81,23.19-12.92,44.61-34.23,53.34c-20.44,8.34-47.02,2.26-61.89-14.1c-4.91-5.4-13.14-6.05-18.87-1.58
		c-14.97,11.75-28.6,25.21-40.44,39.98c-4.61,5.74-3.93,14.06,1.49,18.99c17.41,15.76,23.02,40.82,13.98,62.38
		c-8.63,20.56-29.96,33.8-54.4,33.8C8.18,209.67,2.54,215,1.67,222.21c-2.19,18.77-2.22,37.91-0.11,56.85
		c0.79,7.05,9.23,12.3,16.4,12.3c21.77-0.56,42.67,12.91,51.44,34.25c8.74,21.31,3.11,46.15-13.98,61.83
		c-5.35,4.91-6.03,13.12-1.52,18.83c11.61,14.8,24.95,28.26,39.55,40.02c5.72,4.61,14.06,3.97,19.03-1.51
		c14.96-16.53,41.73-22.66,62.33-14.01c21.58,9.03,35.15,30.84,33.83,54.26c-0.44,7.36,4.95,13.77,12.26,14.6
		c9.57,1.12,19.17,1.67,28.8,1.67c9.15,0,18.3-0.49,27.45-1.51c7.24-0.8,12.61-7.05,12.36-14.32c-0.83-23.18,12.94-44.6,34.22-53.32
		c20.57-8.39,47.04-2.25,61.91,14.09c4.94,5.37,13.1,6.03,18.87,1.58c14.95-11.73,28.55-25.18,40.44-40
		c4.61-5.73,3.96-14.06-1.49-19c-17.4-15.74-23.04-40.82-14.01-62.36c8.5-20.27,29.05-33.89,51.15-33.89l3.09,0.09
		c7.17,0.58,13.77-4.94,14.63-12.26C500.53,261.59,500.55,242.47,498.43,223.54z M373.74,325.19c-0.9,1.54-1.88,3.04-2.83,4.54
		l-51.16-51.16c3.88-9.14,5.93-19.06,5.93-29.3c0-20.03-7.81-38.88-21.98-53.04c-14.16-14.16-33.01-21.97-53.05-21.97
		c-6.69,0-13.34,0.89-19.78,2.64c-2.82,0.77-5.13,3.09-5.88,5.92c-0.76,2.89,0.1,5.85,2.36,8.11c0,0,26.45,26.66,35.3,35.51
		c0.93,0.92,0.92,3.14,0.8,3.94l-0.08,0.58c-0.9,9.73-2.62,21.41-4.03,25.9c-0.19,0.19-0.37,0.35-0.57,0.55
		c-0.2,0.2-0.39,0.39-0.59,0.6c-4.55,1.46-16.41,3.2-26.29,4.08l0.01-0.06l-0.45,0.12c-0.08,0.01-0.22,0.02-0.42,0.02
		c-1.07,0-2.64-0.3-4.07-1.72c-9.21-9.22-34.63-34.45-34.63-34.45c-2.28-2.28-4.62-2.75-6.18-2.75c-3.63,0-6.88,2.63-7.91,6.39
		c-7,25.89,0.42,53.74,19.35,72.69c14.17,14.17,33.02,21.97,53.05,21.97c10.24,0,20.15-2.04,29.3-5.93l51.66,51.67
		c-0.78,0.53-1.54,1.09-2.34,1.61l-1.72,1.11c-23.17,14.83-50.84,23.24-80.54,22.64c-76.23-1.55-138.75-63.37-141.08-139.58
		c-2.54-83.24,65.51-151.21,148.76-148.57c77.16,2.45,139.27,66.56,139.43,143.75C394.19,278.12,386.73,303.5,373.74,325.19z"/>
</g>
</svg>
