<?xml version="1.0" encoding="utf-8"?>
<!-- Generator: Adobe Illustrator 23.0.0, SVG Export Plug-In . SVG Version: 6.00 Build 0)  -->
<svg version="1.1" id="Layer_1" xmlns="http://www.w3.org/2000/svg" xmlns:xlink="http://www.w3.org/1999/xlink" x="0px" y="0px"
	 viewBox="0 0 500 500" style="enable-background:new 0 0 500 500;" xml:space="preserve">
<style type="text/css">
	.st0{fill:url(#SVGID_1_);}
</style>
<linearGradient id="SVGID_1_" gradientUnits="userSpaceOnUse" x1="34.5243" y1="249.6" x2="484" y2="249.6">
	<stop  offset="0" style="stop-color:#5725FF"/>
	<stop  offset="1" style="stop-color:#9271FF"/>
</linearGradient>
<path class="st0" d="M266.7,500.83c-4.27,0-8.43-1.75-11.42-4.81c-4.06-4.16-5.54-10.21-3.85-15.78l23.84-78.48
	c0.76-2.5,2.14-4.81,4-6.66l109.47-109.22c10.52-10.52,24.53-16.31,39.46-16.31c14.93,0,28.95,5.8,39.48,16.33
	C478.2,296.42,484,310.44,484,325.37c0,14.93-5.8,28.95-16.32,39.48L358.44,473.87c-1.94,1.94-4.37,3.35-7.01,4.08l-80.48,22.29
	C269.57,500.63,268.13,500.83,266.7,500.83z M304.63,414.86l-14.25,46.9l48.49-13.43l76.99-76.85l-33.84-33.84L304.63,414.86z
	 M428.2,301.45c-6.4,0-12.41,2.49-16.92,7l-6.67,6.66l33.84,33.84l6.68-6.67c9.32-9.33,9.32-24.5-0.01-33.83
	C440.61,303.94,434.6,301.45,428.2,301.45z M110.29,500.83c-41.78,0-75.77-33.99-75.77-75.77V74.14c0-41.78,33.99-75.77,75.77-75.77
	h245.13c41.78,0,75.77,33.99,75.77,75.77v122.62c0,8.8-7.16,15.95-15.95,15.95c-8.8,0-15.95-7.16-15.95-15.95V74.14
	c0-24.19-19.68-43.86-43.86-43.86H110.29c-24.19,0-43.86,19.68-43.86,43.86v350.92c0,24.19,19.68,43.86,43.86,43.86h66.68
	c8.8,0,15.95,7.16,15.95,15.95s-7.16,15.95-15.95,15.95H110.29z M130.12,309.42c-8.8,0-15.95-7.16-15.95-15.95
	s7.16-15.95,15.95-15.95h124.73c8.8,0,15.95,7.16,15.95,15.95s-7.16,15.95-15.95,15.95H130.12z M130.12,229.66
	c-8.8,0-15.95-7.16-15.95-15.95s7.16-15.95,15.95-15.95h205.37c8.8,0,15.95,7.16,15.95,15.95s-7.16,15.95-15.95,15.95H130.12z
	 M130.12,149.91c-8.8,0-15.95-7.16-15.95-15.95s7.16-15.95,15.95-15.95h205.37c8.8,0,15.95,7.16,15.95,15.95
	s-7.16,15.95-15.95,15.95H130.12z"/>
</svg>
