
<svg viewBox="0 0 40 40" fill="none" xmlns="http://www.w3.org/2000/svg">
	<path d="M4.80854 4.88823C8.46867 1.25424 13.7236 0.835938 20.1288 0.835938C26.5602 0.835938 31.8151 1.25424 35.4752 4.88823C39.1353 8.52221 39.4752 13.7771 39.4752 20.2085C39.4752 26.6399 39.083 31.8948 35.4752 35.5287C31.8151 39.1889 26.5602 39.5288 20.1288 39.5288C13.6974 39.5288 8.44253 39.1366 4.7824 35.5287C1.12227 31.8686 0.7824 26.6137 0.7824 20.2085C0.756256 13.7771 1.14841 8.52221 4.80854 4.88823Z" fill="#6F0AF2"/>
	<path opacity="0.65" d="M20.1277 34.98C30.8124 34.98 39.4741 28.3667 39.4741 20.2087C39.4741 12.0508 30.8124 5.4375 20.1277 5.4375C9.44293 5.4375 0.78125 12.0508 0.78125 20.2087C0.78125 28.3667 9.44293 34.98 20.1277 34.98Z" fill="url(#paint0_linear_2034_37029)"/>
	<path opacity="0.65" d="M20.1277 34.98C30.8124 34.98 39.4741 28.3667 39.4741 20.2087C39.4741 12.0508 30.8124 5.4375 20.1277 5.4375C9.44293 5.4375 0.78125 12.0508 0.78125 20.2087C0.78125 28.3667 9.44293 34.98 20.1277 34.98Z" fill="url(#paint1_linear_2034_37029)"/>
	<path opacity="0.8" d="M28.833 11.5026C37.3036 19.9732 40.2578 30.7183 35.4474 35.5288C30.6369 40.3392 19.8918 37.3589 11.4212 28.9144C2.95062 20.47 0.0225167 9.69872 4.83297 4.88827C9.64343 0.0778079 20.3624 3.0582 28.833 11.5026Z" fill="url(#paint2_linear_2034_37029)"/>
	<path opacity="0.3" d="M28.833 11.5026C37.3036 19.9732 40.2578 30.7183 35.4474 35.5288C30.6369 40.3392 19.8918 37.3589 11.4212 28.9144C2.95062 20.47 0.0225167 9.69872 4.83297 4.88827C9.64343 0.0778079 20.3624 3.0582 28.833 11.5026Z" fill="url(#paint3_linear_2034_37029)"/>
	<path opacity="0.4" d="M28.833 11.5026C37.3036 19.9732 40.2578 30.7183 35.4474 35.5288C30.6369 40.3392 19.8918 37.3589 11.4212 28.9144C2.95062 20.47 0.0225167 9.69872 4.83297 4.88827C9.64343 0.0778079 20.3624 3.0582 28.833 11.5026Z" fill="url(#paint4_linear_2034_37029)"/>
	<path opacity="0.3" d="M28.833 11.5026C37.3036 19.9732 40.2578 30.7183 35.4474 35.5288C30.6369 40.3392 19.8918 37.3589 11.4212 28.9144C2.95062 20.47 0.0225167 9.69872 4.83297 4.88827C9.64343 0.0778079 20.3624 3.0582 28.833 11.5026Z" fill="url(#paint5_linear_2034_37029)"/>
	<path opacity="0.9" d="M12.414 12.4707C3.96951 20.9152 0.753827 31.4511 5.2767 35.9479C9.79958 40.4446 20.3094 37.2551 28.7538 28.8106C37.1983 20.3662 40.414 9.83023 35.8911 5.3335C31.3682 0.836764 20.8584 4.02631 12.414 12.4707Z" fill="url(#paint6_linear_2034_37029)"/>
	<path opacity="0.9" d="M12.414 12.4707C3.96951 20.9152 0.753827 31.4511 5.2767 35.9479C9.79958 40.4446 20.3094 37.2551 28.7538 28.8106C37.1983 20.3662 40.414 9.83023 35.8911 5.3335C31.3682 0.836764 20.8584 4.02631 12.414 12.4707Z" fill="url(#paint7_linear_2034_37029)"/>
	<path opacity="0.9" d="M12.414 12.4708C3.96951 20.9152 0.753827 31.4511 5.2767 35.9479C9.79958 40.4446 20.3094 37.2551 28.7538 28.8106C37.1983 20.3662 40.414 9.83023 35.8911 5.3335C31.3682 0.836764 20.8584 4.02631 12.414 12.4708Z" fill="url(#paint8_linear_2034_37029)"/>
	<path d="M10.6669 15.8162H17.6211C18.3793 15.8162 19.0067 15.1887 19.0067 14.4305C19.0067 13.6724 18.3793 13.0449 17.6211 13.0449H10.6669C9.9087 13.0449 9.28125 13.6724 9.28125 14.4305C9.33354 15.2149 9.93484 15.8162 10.6669 15.8162Z" fill="white"/>
	<path d="M27.792 19.3986L25.0469 13.9868C24.4978 12.9411 23.0599 12.8627 22.5632 13.9868L17.5436 23.8953C17.3083 24.3398 16.8639 24.6535 16.341 24.6535H10.8246C10.0926 24.6535 9.46517 25.1764 9.41288 25.9084C9.33445 26.745 9.9619 27.3986 10.7724 27.3986H18.0403C18.5632 27.3986 19.0076 27.1372 19.2429 26.6666L23.8442 17.5685L25.4129 20.6535C25.6482 21.1502 26.1449 21.4117 26.6155 21.4117C26.8246 21.4117 27.0338 21.3855 27.2429 21.281C27.8704 20.8627 28.1318 20.0522 27.792 19.3986Z" fill="white"/>
	<path d="M30.8225 25.3851L29.7767 23.3197C29.4369 22.64 28.6003 22.3785 27.9467 22.6923C27.2669 23.0321 27.0055 23.8687 27.3192 24.5223L28.365 26.5877C28.6003 27.0844 29.097 27.3459 29.5676 27.3459C29.7767 27.3459 29.9859 27.3197 30.195 27.2151C30.9009 26.8753 31.1362 26.0387 30.8225 25.3851Z" fill="white"/>
	<path d="M10.6669 21.5681H14.7192C15.4773 21.5681 16.1048 20.9407 16.1048 20.1825C16.1048 19.4243 15.4773 18.7969 14.7192 18.7969H10.6669C9.9087 18.7969 9.28125 19.4243 9.28125 20.1825C9.33354 20.9668 9.93484 21.5681 10.6669 21.5681Z" fill="white"/>
	<path d="M10.6669 15.7634H17.6211C18.3793 15.7634 19.0067 15.136 19.0067 14.3778C19.0067 13.6196 18.3793 12.9922 17.6211 12.9922H10.6669C9.9087 12.9922 9.28125 13.6196 9.28125 14.3778C9.33354 15.1621 9.93484 15.7634 10.6669 15.7634Z" fill="white"/>
	<path d="M27.792 19.3459L25.0469 13.9341C24.4978 12.8884 23.0599 12.8099 22.5632 13.9341L17.5436 23.8426C17.3083 24.287 16.8639 24.6008 16.341 24.6008H10.8246C10.0926 24.6008 9.46517 25.1237 9.41288 25.8557C9.33445 26.6923 9.9619 27.3459 10.7724 27.3459H18.0403C18.5632 27.3459 19.0076 27.0844 19.2429 26.6138L23.8442 17.5158L25.4129 20.6008C25.6482 21.0975 26.1449 21.3589 26.6155 21.3589C26.8246 21.3589 27.0338 21.3328 27.2429 21.2282C27.8704 20.8361 28.1318 19.9995 27.792 19.3459Z" fill="white"/>
	<path d="M30.8225 25.3323L29.7767 23.267C29.4369 22.5872 28.6003 22.3258 27.9467 22.6395C27.2669 22.9794 27.0055 23.816 27.3192 24.4696L28.365 26.535C28.6003 27.0317 29.097 27.2931 29.5676 27.2931C29.7767 27.2931 29.9859 27.267 30.195 27.1624C30.9009 26.8225 31.1362 25.9859 30.8225 25.3323Z" fill="white"/>
	<path d="M10.6669 21.5408H14.7192C15.4773 21.5408 16.1048 20.9133 16.1048 20.1552C16.1048 19.397 15.4773 18.7695 14.7192 18.7695H10.6669C9.9087 18.7695 9.28125 19.397 9.28125 20.1552C9.33354 20.9133 9.93484 21.5408 10.6669 21.5408Z" fill="white"/>
	<defs>
		<linearGradient id="paint0_linear_2034_37029" x1="29.1029" y1="10.4688" x2="9.24133" y2="32.0045" gradientUnits="userSpaceOnUse">
			<stop offset="0.00334821" stop-color="#6B0AD9" stop-opacity="0.6"/>
			<stop offset="0.3007" stop-color="#690DDC" stop-opacity="0.6836"/>
			<stop offset="0.5234" stop-color="#6317E5" stop-opacity="0.7462"/>
			<stop offset="0.7211" stop-color="#5827F3" stop-opacity="0.8018"/>
			<stop offset="0.8215" stop-color="#5132FE" stop-opacity="0.83"/>
			<stop offset="0.9113" stop-color="#742DFE" stop-opacity="0.9155"/>
			<stop offset="1" stop-color="#9A27FF"/>
		</linearGradient>
		<linearGradient id="paint1_linear_2034_37029" x1="36.8324" y1="13.1471" x2="5.70101" y2="26.3034" gradientUnits="userSpaceOnUse">
			<stop stop-color="#9A27FF" stop-opacity="0.75"/>
			<stop offset="0.0741759" stop-color="#742DFE" stop-opacity="0.7898"/>
			<stop offset="0.1493" stop-color="#5132FE" stop-opacity="0.83"/>
			<stop offset="0.2532" stop-color="#5827F3" stop-opacity="0.8018"/>
			<stop offset="0.458" stop-color="#6317E5" stop-opacity="0.7462"/>
			<stop offset="0.6886" stop-color="#690DDC" stop-opacity="0.6836"/>
			<stop offset="0.9967" stop-color="#6B0AD9" stop-opacity="0.6"/>
		</linearGradient>
		<linearGradient id="paint2_linear_2034_37029" x1="1.65149" y1="21.4569" x2="34.2055" y2="29.0618" gradientUnits="userSpaceOnUse">
			<stop offset="0.0854828" stop-color="#9A27FF"/>
			<stop offset="0.7703" stop-color="#6F0AF2" stop-opacity="0"/>
			<stop offset="1" stop-color="#7A35FF" stop-opacity="0.3"/>
		</linearGradient>
		<linearGradient id="paint3_linear_2034_37029" x1="10.9544" y1="10.3042" x2="34.4686" y2="35.6447" gradientUnits="userSpaceOnUse">
			<stop stop-color="#7A35FF" stop-opacity="0"/>
			<stop offset="0.2411" stop-color="#6F0AF2" stop-opacity="0"/>
			<stop offset="1" stop-color="#9A27FF"/>
		</linearGradient>
		<linearGradient id="paint4_linear_2034_37029" x1="10.9544" y1="10.3042" x2="34.4686" y2="35.6447" gradientUnits="userSpaceOnUse">
			<stop stop-color="#7A35FF" stop-opacity="0"/>
			<stop offset="0.2411" stop-color="#6F0AF2" stop-opacity="0"/>
			<stop offset="1" stop-color="#9A27FF"/>
		</linearGradient>
		<linearGradient id="paint5_linear_2034_37029" x1="10.9544" y1="10.3042" x2="34.4686" y2="35.6447" gradientUnits="userSpaceOnUse">
			<stop stop-color="#7A35FF" stop-opacity="0"/>
			<stop offset="0.2411" stop-color="#6F0AF2" stop-opacity="0"/>
			<stop offset="1" stop-color="#9A27FF"/>
		</linearGradient>
		<linearGradient id="paint6_linear_2034_37029" x1="22.8291" y1="29.2592" x2="16.8629" y2="6.46521" gradientUnits="userSpaceOnUse">
			<stop stop-color="#6F0AF2" stop-opacity="0"/>
			<stop offset="0.4116" stop-color="#710CF3" stop-opacity="0.4116"/>
			<stop offset="0.6488" stop-color="#7A11F5" stop-opacity="0.6488"/>
			<stop offset="0.8413" stop-color="#881BF9" stop-opacity="0.8413"/>
			<stop offset="1" stop-color="#9A27FF"/>
		</linearGradient>
		<linearGradient id="paint7_linear_2034_37029" x1="27.0701" y1="30.4732" x2="16.6987" y2="9.67987" gradientUnits="userSpaceOnUse">
			<stop offset="0.00082672" stop-color="#9A27FF" stop-opacity="0.3"/>
			<stop offset="0.5103" stop-color="#9C27FF" stop-opacity="0.1476"/>
			<stop offset="0.6938" stop-color="#A326FF" stop-opacity="0.0926574"/>
			<stop offset="0.8247" stop-color="#AE25FF" stop-opacity="0.0535202"/>
			<stop offset="0.9297" stop-color="#BF23FF" stop-opacity="0.0220816"/>
			<stop offset="0.9701" stop-color="#C822FF" stop-opacity="0.01"/>
		</linearGradient>
		<linearGradient id="paint8_linear_2034_37029" x1="19.4131" y1="16.1123" x2="24.1555" y2="34.6228" gradientUnits="userSpaceOnUse">
			<stop offset="0.1945" stop-color="#6F0AF2" stop-opacity="0.1"/>
			<stop offset="0.4389" stop-color="#730DF3" stop-opacity="0.3584"/>
			<stop offset="0.6855" stop-color="#7F15F7" stop-opacity="0.6192"/>
			<stop offset="0.9326" stop-color="#9322FD" stop-opacity="0.8805"/>
			<stop offset="0.9984" stop-color="#9A27FF" stop-opacity="0.95"/>
		</linearGradient>
	</defs>
</svg>
