<?xml version="1.0" encoding="utf-8"?>
<!-- Generator: Adobe Illustrator 23.0.0, SVG Export Plug-In . SVG Version: 6.00 Build 0)  -->
<svg version="1.1" id="Layer_1" xmlns="http://www.w3.org/2000/svg" xmlns:xlink="http://www.w3.org/1999/xlink" x="0px" y="0px"
	 viewBox="0 0 500 500" style="enable-background:new 0 0 500 500;" xml:space="preserve">
<style type="text/css">
	.st0{fill:url(#SVGID_1_);}
	.st1{fill:url(#SVGID_2_);}
	.st2{fill:url(#SVGID_3_);}
</style>
<g>
	<linearGradient id="SVGID_1_" gradientUnits="userSpaceOnUse" x1="10.7322" y1="250.6266" x2="508.4976" y2="250.6266">
		<stop  offset="0" style="stop-color:#5725FF"/>
		<stop  offset="1" style="stop-color:#9271FF"/>
	</linearGradient>
	<path class="st0" d="M103.03,0.46c65.49,0.51,114.22,62.05,99.12,126.43c-2.1,8.96-0.04,14.2,6.13,20.31
		c48.88,48.47,97.59,97.12,145.91,146.15c6.65,6.74,12.42,8.13,21.41,6.1c63.95-14.4,124.12,33.06,124.41,97.93
		c0.04,8.1-1.2,16.35-2.95,24.28c-3.29,14.88-15.4,18.74-26.48,8.33c-13.28-12.48-25.71-25.87-38.98-38.35
		c-9.99-9.39-25.26-10.11-36.12-2.69c-10.79,7.37-15.64,21.09-10.93,33.49c1.78,4.69,5.05,9.12,8.56,12.8
		c10.77,11.31,22.6,21.69,32.74,33.52c4.28,5,8.36,13.45,7.01,19c-1.15,4.72-9.77,9.63-15.82,10.87
		c-72.17,14.84-134.72-48.92-118.82-121.14c2.17-9.88,0.36-16.1-6.84-23.21c-48.73-48.09-97.1-96.56-145.19-145.28
		c-6.56-6.65-12.27-8.23-21.38-6.19C52.4,219.01-11.53,157.31,2.28,84.99c1.4-7.35,2.5-16.64,11.38-17.03
		c6.34-0.28,14.14,3.28,19.16,7.6c11.81,10.16,22.21,21.95,33.44,32.82c13.25,12.82,31.09,13.26,42.83,1.4
		c11.88-12,11.3-29.33-1.74-42.75C95.94,55.3,83.73,44.29,72.99,31.97c-3.84-4.4-6.92-12.3-5.65-17.45
		c1.1-4.45,8.39-8.55,13.78-10.46C87.99,1.63,95.69,1.55,103.03,0.46z"/>
	<linearGradient id="SVGID_2_" gradientUnits="userSpaceOnUse" x1="10.7322" y1="381.7935" x2="508.4976" y2="381.7935">
		<stop  offset="0" style="stop-color:#5725FF"/>
		<stop  offset="1" style="stop-color:#9271FF"/>
	</linearGradient>
	<path class="st1" d="M156.64,262.29c27.4,27.47,54.42,54.56,81.98,82.19c-0.87,1.2-1.88,3.11-3.34,4.57
		c-44.44,44.47-88.86,88.97-133.44,133.29c-24.9,24.76-61.33,25.27-84.88,1.55c-23.22-23.39-22.77-59.63,1.52-84.09
		c44.3-44.62,88.82-89,133.28-133.46C153.28,264.81,155.08,263.56,156.64,262.29z M181.34,338.85c-3.94-4.67-6.84-11.33-10.78-12.02
		c-5.57-0.98-13.75,0.55-17.64,4.3C124,358.97,95.8,387.56,67.53,416.08c-7.85,7.92-8.14,16.03-1.58,22.53
		c6.45,6.39,14.24,5.82,22.37-2.25c28.23-28.02,56.39-56.11,84.37-84.38C175.89,348.75,177.84,344.26,181.34,338.85z"/>
	<linearGradient id="SVGID_3_" gradientUnits="userSpaceOnUse" x1="10.7322" y1="110.2108" x2="508.4976" y2="110.2108">
		<stop  offset="0" style="stop-color:#5725FF"/>
		<stop  offset="1" style="stop-color:#9271FF"/>
	</linearGradient>
	<path class="st2" d="M323,219.3c-15.44-15.37-28.56-28.42-42.01-41.81c32.57-32.35,65.1-64.66,97.73-97.07
		c-3.9-4.85-7.03-7.65-8.78-11.15c-3.85-7.69-2.32-14.81,5.16-19.37c25.69-15.66,51.55-31.05,77.39-46.45
		c7.14-4.25,13.64-2.35,19.25,3.09c7.47,7.24,14.72,14.71,22.13,22.01c7.17,7.06,7.63,14.42,2.36,23.03
		c-14.15,23.13-27.79,46.58-41.88,69.75c-9.17,15.07-16.86,15.83-29.97,3.54c-1.31-1.22-2.76-2.29-5.41-4.49
		C386.99,153.35,355.26,186.05,323,219.3z"/>
</g>
</svg>
