<?xml version="1.0" encoding="utf-8"?>
<!-- Generator: Adobe Illustrator 23.0.0, SVG Export Plug-In . SVG Version: 6.00 Build 0)  -->
<svg version="1.1" id="Layer_1" xmlns="http://www.w3.org/2000/svg" xmlns:xlink="http://www.w3.org/1999/xlink" x="0px" y="0px"
	 viewBox="0 0 500 500" style="enable-background:new 0 0 500 500;" xml:space="preserve">
<style type="text/css">
	.st0{fill:url(#SVGID_1_);}
	.st1{fill:url(#SVGID_2_);}
	.st2{fill:url(#SVGID_3_);}
	.st3{fill:url(#SVGID_4_);}
</style>
<g>
	<linearGradient id="SVGID_1_" gradientUnits="userSpaceOnUse" x1="-5.1489" y1="250.8" x2="500.383" y2="250.8">
		<stop  offset="0" style="stop-color:#5725FF"/>
		<stop  offset="1" style="stop-color:#9271FF"/>
	</linearGradient>
	<path class="st0" d="M250,0.8C112.2,0.8,0,112.9,0,250.8s112.2,250,250,250s250-112.2,250-250C500,112.9,387.8,0.8,250,0.8z
		 M250,476.4c-124.4,0-225.6-101.2-225.6-225.6S125.6,25.2,250,25.2s225.6,101.2,225.6,225.6S374.4,476.4,250,476.4z"/>
	<linearGradient id="SVGID_2_" gradientUnits="userSpaceOnUse" x1="-5.1489" y1="238.6994" x2="500.383" y2="238.6994">
		<stop  offset="0" style="stop-color:#5725FF"/>
		<stop  offset="1" style="stop-color:#9271FF"/>
	</linearGradient>
	<path class="st1" d="M324.1,265.8c-3.4,0-6.9,0.4-10.4,1.1c-1.7,0.4-3.2,0.6-4.5,0.6c-4,0-7.4-1.6-10.7-4.9
		c-20.9-21.3-43.8-44.2-72.1-72.3c-4.5-4.5-5.8-8.7-4.4-14.7c3.2-13.9,0-28.3-8.8-39.3c-8.8-11-21.8-17.3-35.6-17.3
		c-3.2,0-6.5,0.4-9.8,1c-1.7,0.4-3.8,1.8-4.3,2.5c0,0.9,1,3.2,2.5,4.8c3.1,3.6,6.6,7,10.2,10.5c1.8,1.8,3.7,3.6,5.6,5.5
		c4.6,4.7,7,10,6.9,15.5c-0.1,4.8-2,9.2-5.7,12.9c-3.6,3.5-8,5.3-12.7,5.3c-5.3,0-10.7-2.4-15.2-6.8c-2.5-2.4-5-4.9-7.4-7.3
		c-3.1-3.1-6.3-6.4-9.5-9.5c-2.2-2.1-3.6-2.2-4-2.2c-1.6,0-2.2,3.1-2.3,3.7c-0.8,4.7-1.7,10.8-0.9,16.2
		c3.5,24.1,21.6,40.3,45.2,40.3c3.8,0,7.7-0.4,11.6-1.3c1.4-0.3,2.6-0.5,3.8-0.5c3.6,0,6.6,1.4,9.5,4.3
		c22.2,22.5,46.1,46.6,70.2,70.2c4.1,4,11,10.7,6.4,21.5c-0.2,0.4-0.2,1.5-0.2,2.3c0,0.7,0,1.5-0.1,2.4c-1,12,3.1,23.7,11.5,32.9
		c8.8,9.6,21.2,15.1,34.1,15.1c3.3,0,6.7-0.4,10-1.1c1.5-0.3,3.4-1.7,3.9-2.4c0-0.8-0.8-3-2.1-4.4c-3.3-3.7-6.9-7.3-10.5-10.8
		c-2.1-2.1-4.4-4.3-6.5-6.5c-8.1-8.4-8.3-19.9-0.4-27.5c3.5-3.4,8.1-5.3,12.9-5.3c5.1,0,10.2,2.1,14.2,6c2.2,2.1,4.4,4.4,6.5,6.5
		c3.6,3.7,7,7.2,10.8,10.4c1.3,1.1,3.5,2.1,4.8,2.1c0,0,0,0,0,0c0.7-0.6,1.8-2.5,2.2-4.1c2.9-13.6-0.4-27.6-9-38.3
		C351,272.1,338,265.8,324.1,265.8z"/>
	<linearGradient id="SVGID_3_" gradientUnits="userSpaceOnUse" x1="-5.1489" y1="300.7668" x2="500.383" y2="300.7668">
		<stop  offset="0" style="stop-color:#5725FF"/>
		<stop  offset="1" style="stop-color:#9271FF"/>
	</linearGradient>
	<path class="st2" d="M188.6,265.5c-17.4,17.2-35.4,35-52.6,52.9c-2.8,2.9-4.9,8.5-5.7,15c-1.1,9.4,4.7,18.8,14.1,23
		c3.5,1.6,7.1,2.3,10.7,2.3c6.4,0,12.2-2.4,16.8-7c10.4-10.3,20.9-20.8,31.1-30.9c7.9-7.9,15.7-15.7,23.6-23.5
		c3.5-3.5,7.2-6.9,10.8-10.2c0.5-0.4,8.8-8.6,9.3-9l-35.1-35.2C206.5,247.8,193.6,260.5,188.6,265.5z M219.2,282
		c0,2.5-0.8,6.3-4.9,10.5l-4.7,4.7c-11.9,12-24.3,24.3-36.5,36.4c-1.5,1.5-3.2,2.5-5,3.6c-0.1,0-0.3,0.2-0.6,0.3
		c-3,1.5-6.6,1.3-9.3-0.7c0,0-0.1-0.1-0.1-0.1c-2.1-1.6-4.4-3.3-5.2-6.2c-1.1-3.9,0-9.1,2.5-12c3.9-4.5,8.2-8.7,12.3-12.8
		c1.5-1.5,3.1-3,4.6-4.5l5.7-5.7c6.6-6.6,13.2-13.2,19.9-19.8c3.3-3.3,6.7-5,10.2-5c2.8,0,5.4,1.1,7.6,3.2
		C217.9,276.3,219.1,279.1,219.2,282z"/>
	<linearGradient id="SVGID_4_" gradientUnits="userSpaceOnUse" x1="-5.1489" y1="171.0199" x2="500.383" y2="171.0199">
		<stop  offset="0" style="stop-color:#5725FF"/>
		<stop  offset="1" style="stop-color:#9271FF"/>
	</linearGradient>
	<path class="st3" d="M365.1,127.9c-2.6-2.7-5-5.3-7.7-7.3c-0.7-0.5-2.5-1.1-3.8-1.1c-0.2,0-0.4,0-0.4,0
		c-13.3,7.3-26.5,15.4-38.8,23c-0.8,0.5-1.2,1-1.3,1.5c-0.1,0.8,0.3,1.9,1.1,3c0.5,0.6,1,1.3,1.8,2.1c0.4,0.4,0.8,0.9,1.3,1.5
		l2.7,3.1l-55.2,54.9l14,13.9l54.4-55.5l3.2,2.8c0.8,0.7,1.3,1.2,1.8,1.5c0.8,0.7,1.3,1.1,1.7,1.5c2.9,2.7,4.1,2.9,4.4,2.9
		c0.4,0,1.6-0.8,3.4-3.6c3.6-6,7.3-12.1,10.8-18c3.4-5.6,6.8-11.5,10.3-17.2c1.6-2.7,1.2-4-0.4-5.6
		C367.2,130.2,366.1,129,365.1,127.9z"/>
</g>
</svg>
