<?xml version="1.0" encoding="utf-8"?>
<!-- Generator: Adobe Illustrator 23.0.0, SVG Export Plug-In . SVG Version: 6.00 Build 0)  -->
<svg version="1.1" id="OBJECTS" xmlns="http://www.w3.org/2000/svg" xmlns:xlink="http://www.w3.org/1999/xlink" x="0px" y="0px"
	 viewBox="0 0 500 500" style="enable-background:new 0 0 500 500;" xml:space="preserve">
<style type="text/css">
	.st0{fill-rule:evenodd;clip-rule:evenodd;fill:url(#Oval-2_2_);}
	.st1{fill-rule:evenodd;clip-rule:evenodd;}
	.st2{fill-rule:evenodd;clip-rule:evenodd;fill:#FFFFFF;}
	.st3{opacity:0.9132;}
	.st4{fill-rule:evenodd;clip-rule:evenodd;fill:#A43DFF;}
	.st5{fill-rule:evenodd;clip-rule:evenodd;fill:#F5A623;}
	.st6{fill-rule:evenodd;clip-rule:evenodd;fill:#D8D8D8;}
	.st7{opacity:0.8979;fill-rule:evenodd;clip-rule:evenodd;fill:url(#Fill-1_2_);enable-background:new    ;}
	.st8{opacity:0.0969;fill-rule:evenodd;clip-rule:evenodd;fill:#FFFFFF;enable-background:new    ;}
</style>
<g id="EA-Logo_1_">
	<g id="Group-5_1_" transform="translate(29.000000, 19.000000)">
		
			<linearGradient id="Oval-2_2_" gradientUnits="userSpaceOnUse" x1="-735.5507" y1="505.9755" x2="-735.5507" y2="504.7895" gradientTransform="matrix(374 0 0 -374 275303 189242)">
			<stop  offset="0" style="stop-color:#2460FF"/>
			<stop  offset="1" style="stop-color:#B80AFF"/>
		</linearGradient>
		<circle id="Oval-2_1_" class="st0" cx="207.06" cy="228.95" r="221.79"/>
		<g id="EA_1_">
			<g>
				<path id="path-2_1_" class="st1" d="M87.93,151.58h69.72l0.33,0.17h0.25c4.17,0,7.56,2.14,10.17,6.42
					c0.89,1.78,1.33,3.61,1.33,5.5c0,4.61-2.28,8.17-6.84,10.67c-1.56,0.72-3.11,1.08-4.67,1.08H87.18c-3.34,0-6.28-1.53-8.84-4.59
					c-1.67-2.22-2.5-4.5-2.5-6.84v-1c0-3.67,1.83-6.81,5.5-9.42c2-1.22,3.98-1.83,5.92-1.83h0.33L87.93,151.58z M87.76,211.21
					l35.94,0.17c2.39,0,4.95,1.22,7.67,3.67c2.17,2.5,3.25,5.23,3.25,8.17c0,4.11-1.92,7.48-5.75,10.09
					c-1.89,1.11-3.72,1.67-5.5,1.67H87.01c-3.56,0-6.64-1.78-9.26-5.34c-1.28-2-1.92-4-1.92-6v-1c0-3.78,1.97-7.03,5.92-9.76
					c2-1,3.89-1.5,5.67-1.5h0.17C87.71,211.38,87.76,211.32,87.76,211.21z M157.56,211.38h0.58c4.5,0,8.03,2.33,10.59,7
					c0.67,1.67,1,3.28,1,4.84c0,4.67-2.31,8.26-6.92,10.76c-1.67,0.67-3.14,1-4.42,1h-1.17c-3.78,0-7-1.97-9.67-5.92
					c-1.06-2-1.58-3.98-1.58-5.92c0-4.56,2.28-8.12,6.84-10.67C154.53,211.74,156.12,211.38,157.56,211.38z M87.93,270.58h69.72
					c0,0.11,0.86,0.25,2.59,0.42c2.89,0.72,5.09,2.03,6.59,3.92c1.95,2.28,2.92,4.89,2.92,7.84c0,4.5-2.28,8.06-6.84,10.67
					c-1.39,0.5-2.33,0.75-2.84,0.75H85.51c-1.95,0-4.28-1.31-7-3.92c-1.78-2.39-2.67-4.81-2.67-7.26v-0.75
					c0-4.11,2.08-7.48,6.25-10.09c1.22-0.72,3.11-1.22,5.67-1.5C87.76,270.61,87.82,270.58,87.93,270.58z M277.05,152.83h1
					c4.34,0,7.92,2.17,10.76,6.5c21.18,42.09,31.91,63.57,32.19,64.46c0.78,2.72,1.17,4.36,1.17,4.92c0,5-2.42,8.92-7.26,11.76
					c-2.06,1-4.09,1.5-6.09,1.5c-4.34,0-7.98-1.97-10.92-5.92c-0.33-0.5-6.25-12.29-17.76-35.36c-0.78-0.78-1.64-1.17-2.59-1.17
					c-1.78,0-3.22,1.56-4.34,4.67l-42.7,84.48c-1.67,2.5-4.11,4.28-7.34,5.34c-0.44,0.11-0.83,0.17-1.17,0.17h-4.42
					c-1.95,0-4.25-1.11-6.92-3.34c-2.67-2.72-4-5.89-4-9.51c0-2.5,1.89-7.23,5.67-14.18c0-0.17,14.73-29.6,44.2-88.31
					c6.45-13.01,9.92-19.88,10.42-20.6C269.91,154.64,273.27,152.83,277.05,152.83z M334.93,268.75h1.08
					c4.23,0,7.76,2.11,10.59,6.34c1.22,2.28,1.83,4.42,1.83,6.42c0,4.84-2.33,8.67-7,11.51c-1.67,0.78-2.92,1.17-3.75,1.17h-4.34
					c-2,0-4.39-1.22-7.17-3.67c-2.39-2.72-3.59-5.7-3.59-8.92c0-4.11,1.75-7.59,5.25-10.42
					C330.23,269.56,332.59,268.75,334.93,268.75z"/>
			</g>
			<g>
				<path class="st2" d="M87.93,151.58h69.72l0.33,0.17h0.25c4.17,0,7.56,2.14,10.17,6.42c0.89,1.78,1.33,3.61,1.33,5.5
					c0,4.61-2.28,8.17-6.84,10.67c-1.56,0.72-3.11,1.08-4.67,1.08H87.18c-3.34,0-6.28-1.53-8.84-4.59c-1.67-2.22-2.5-4.5-2.5-6.84
					v-1c0-3.67,1.83-6.81,5.5-9.42c2-1.22,3.98-1.83,5.92-1.83h0.33L87.93,151.58z M87.76,211.21l35.94,0.17
					c2.39,0,4.95,1.22,7.67,3.67c2.17,2.5,3.25,5.23,3.25,8.17c0,4.11-1.92,7.48-5.75,10.09c-1.89,1.11-3.72,1.67-5.5,1.67H87.01
					c-3.56,0-6.64-1.78-9.26-5.34c-1.28-2-1.92-4-1.92-6v-1c0-3.78,1.97-7.03,5.92-9.76c2-1,3.89-1.5,5.67-1.5h0.17
					C87.71,211.38,87.76,211.32,87.76,211.21z M157.56,211.38h0.58c4.5,0,8.03,2.33,10.59,7c0.67,1.67,1,3.28,1,4.84
					c0,4.67-2.31,8.26-6.92,10.76c-1.67,0.67-3.14,1-4.42,1h-1.17c-3.78,0-7-1.97-9.67-5.92c-1.06-2-1.58-3.98-1.58-5.92
					c0-4.56,2.28-8.12,6.84-10.67C154.53,211.74,156.12,211.38,157.56,211.38z M87.93,270.58h69.72c0,0.11,0.86,0.25,2.59,0.42
					c2.89,0.72,5.09,2.03,6.59,3.92c1.95,2.28,2.92,4.89,2.92,7.84c0,4.5-2.28,8.06-6.84,10.67c-1.39,0.5-2.33,0.75-2.84,0.75H85.51
					c-1.95,0-4.28-1.31-7-3.92c-1.78-2.39-2.67-4.81-2.67-7.26v-0.75c0-4.11,2.08-7.48,6.25-10.09c1.22-0.72,3.11-1.22,5.67-1.5
					C87.76,270.61,87.82,270.58,87.93,270.58z M277.05,152.83h1c4.34,0,7.92,2.17,10.76,6.5c21.18,42.09,31.91,63.57,32.19,64.46
					c0.78,2.72,1.17,4.36,1.17,4.92c0,5-2.42,8.92-7.26,11.76c-2.06,1-4.09,1.5-6.09,1.5c-4.34,0-7.98-1.97-10.92-5.92
					c-0.33-0.5-6.25-12.29-17.76-35.36c-0.78-0.78-1.64-1.17-2.59-1.17c-1.78,0-3.22,1.56-4.34,4.67l-42.7,84.48
					c-1.67,2.5-4.11,4.28-7.34,5.34c-0.44,0.11-0.83,0.17-1.17,0.17h-4.42c-1.95,0-4.25-1.11-6.92-3.34c-2.67-2.72-4-5.89-4-9.51
					c0-2.5,1.89-7.23,5.67-14.18c0-0.17,14.73-29.6,44.2-88.31c6.45-13.01,9.92-19.88,10.42-20.6
					C269.91,154.64,273.27,152.83,277.05,152.83z M334.93,268.75h1.08c4.23,0,7.76,2.11,10.59,6.34c1.22,2.28,1.83,4.42,1.83,6.42
					c0,4.84-2.33,8.67-7,11.51c-1.67,0.78-2.92,1.17-3.75,1.17h-4.34c-2,0-4.39-1.22-7.17-3.67c-2.39-2.72-3.59-5.7-3.59-8.92
					c0-4.11,1.75-7.59,5.25-10.42C330.23,269.56,332.59,268.75,334.93,268.75z"/>
			</g>
		</g>
		<g id="Oval-3_1_" class="st3">
			<g>
				<circle id="path-4_1_" class="st1" cx="363.02" cy="54.02" r="65.82"/>
			</g>
			<g>
				<circle class="st2" cx="363.02" cy="54.02" r="65.82"/>
			</g>
		</g>
		<g>
			<g>
				<circle id="path-6_1_" class="st1" cx="363.61" cy="54.61" r="20.16"/>
			</g>
			<g>
				<circle class="st4" cx="363.61" cy="54.61" r="20.16"/>
			</g>
		</g>
		
			<g id="Oval-3-Copy-2_1_" transform="translate(63.500000, 348.500000) rotate(-7.000000) translate(-63.500000, -348.500000) " class="st3">
			<g>
				<circle id="path-8_1_" class="st1" cx="54.87" cy="394.88" r="11.27"/>
			</g>
			<g>
				<circle class="st2" cx="54.87" cy="394.88" r="11.27"/>
			</g>
		</g>
		<circle id="Oval-3-Copy-4_1_" class="st5" cx="441.89" cy="121.03" r="14.23"/>
		<circle id="Oval-3-Copy-5_1_" class="st6" cx="290.08" cy="-7.06" r="10.67"/>
		
			<linearGradient id="Fill-1_2_" gradientUnits="userSpaceOnUse" x1="-731.4705" y1="509.0337" x2="-732.3381" y2="507.8477" gradientTransform="matrix(94.2614 63.5801 63.6147 -94.3127 36789.3086 94925.375)">
			<stop  offset="0" style="stop-color:#FF710F"/>
			<stop  offset="1" style="stop-color:#CB16A9"/>
		</linearGradient>
		<path id="Fill-1_1_" class="st7" d="M188.05,393.79c-8.59,1.67-15.8,6.41-20.72,12.85c-5.37,7.03-13.17,11.8-21.85,13.49
			c-8.62,1.68-17.63,0.29-25.16-4.23c-7.45-4.46-16.59-6.13-25.8-3.89c-8.53,2.08-15.62,7.28-20.25,14.13l-0.07,0.1
			c-4.62,6.88-6.79,15.4-5.51,24.09c2.87,19.52,21.4,32.49,40.55,28.77c8.59-1.67,15.8-6.4,20.72-12.85
			c5.37-7.03,13.17-11.8,21.85-13.49c8.62-1.68,17.62-0.28,25.16,4.23c7.44,4.46,16.6,6.13,25.8,3.89
			c8.51-2.07,15.58-7.25,20.22-14.08l0.13-0.19c4.6-6.87,6.76-15.37,5.48-24.05c-1.47-10.03-7.08-18.33-14.79-23.53
			C206.53,394.11,197.36,391.98,188.05,393.79"/>
		<path class="st8" d="M247.35,32.07c-8.76,0.04-15.85,7.16-15.85,15.93c0,4.06,1.52,7.76,4.01,10.57
			c2.72,3.07,4.21,7.04,4.21,11.14h0c0,3.78-1.23,7.48-3.59,10.42c-2.94,2.36-6.63,3.59-10.42,3.59c-4.1,0-8.07-1.48-11.14-4.21
			c-2.81-2.5-6.51-4.01-10.57-4.01c-9.05,0-16.33,7.54-15.91,16.68c0.37,8.16,6.99,14.77,15.15,15.16c4.39,0.21,8.4-1.37,11.4-4.05
			c3.03-2.72,7.01-4.15,11.08-4.15c4.1,0,8.07,1.48,11.14,4.21c2.81,2.5,6.51,4.01,10.57,4.01c2.01,0,3.94-0.38,5.71-1.06
			c0.01,0,0.02,0,0.02-0.01c0.24-0.09,0.48-0.19,0.71-0.29c0.02-0.01,0.04-0.02,0.06-0.03c0.22-0.1,0.44-0.2,0.65-0.31
			c0.03-0.02,0.07-0.03,0.1-0.05c0.2-0.1,0.4-0.21,0.6-0.32c0.04-0.02,0.09-0.05,0.13-0.08c0.18-0.11,0.37-0.21,0.54-0.33
			c0.06-0.03,0.11-0.07,0.16-0.11c0.16-0.11,0.33-0.21,0.49-0.33c0.07-0.05,0.13-0.1,0.19-0.14c0.14-0.11,0.29-0.21,0.43-0.32
			c0.08-0.06,0.15-0.12,0.23-0.18c0.13-0.1,0.25-0.21,0.38-0.31c0.09-0.07,0.17-0.15,0.25-0.23c0.11-0.1,0.22-0.2,0.32-0.3
			c0.1-0.09,0.19-0.18,0.28-0.28c0.09-0.09,0.19-0.18,0.28-0.28c0.1-0.11,0.2-0.22,0.3-0.32c0.08-0.09,0.15-0.17,0.23-0.25
			c0.11-0.12,0.21-0.25,0.31-0.38c0.06-0.07,0.12-0.15,0.18-0.23c0.11-0.14,0.22-0.29,0.32-0.43c0.05-0.07,0.1-0.13,0.14-0.19
			c0.11-0.16,0.22-0.32,0.33-0.49c0.04-0.05,0.07-0.11,0.11-0.16c0.11-0.18,0.22-0.36,0.33-0.54c0.02-0.04,0.05-0.09,0.08-0.13
			c0.11-0.2,0.22-0.4,0.32-0.6c0.02-0.03,0.03-0.06,0.05-0.1c0.11-0.21,0.21-0.43,0.31-0.65c0.01-0.02,0.02-0.04,0.03-0.06
			c0.1-0.23,0.2-0.47,0.29-0.71l0.01-0.02c0.68-1.77,1.05-3.7,1.05-5.71c0-4.06-1.52-7.76-4.01-10.57
			c-2.72-3.07-4.21-7.04-4.21-11.14c0-4.07,1.43-8.05,4.15-11.08c2.69-2.99,4.26-7.01,4.05-11.4c-0.38-8.16-7-14.77-15.16-15.15
			c-0.22-0.01-0.44-0.02-0.66-0.02H247.35z"/>
	</g>
</g>
</svg>
