<?xml version="1.0" encoding="utf-8"?>
<!-- Generator: Adobe Illustrator 23.0.0, SVG Export Plug-In . SVG Version: 6.00 Build 0)  -->
<svg version="1.1" id="Layer_1" xmlns="http://www.w3.org/2000/svg" xmlns:xlink="http://www.w3.org/1999/xlink" x="0px" y="0px"
	 viewBox="0 0 500 500" style="enable-background:new 0 0 500 500;" xml:space="preserve">
<style type="text/css">
	.st0{fill:url(#SVGID_1_);}
</style>
<linearGradient id="SVGID_1_" gradientUnits="userSpaceOnUse" x1="0.408" y1="249.3124" x2="493.897" y2="249.3124">
	<stop  offset="0" style="stop-color:#5725FF"/>
	<stop  offset="1" style="stop-color:#9271FF"/>
</linearGradient>
<path class="st0" d="M493.02,310.32c-9.36-54.01-73.97-80.4-116.59-41.94c-5.11,4.61-10.69,6.49-17.59,5.9
	c-4.43-0.38-7.36-1.8-7.29-7.07c0.31-21.06,1.44-41.71-0.17-62.72c-0.9-11.8,0.43-24.48-6.34-35.19
	c-10.63-16.79-24.64-27.58-45.78-27.63c-23.08-0.06-73.65-2.01-75.54-2.01c-2.74-8.35-0.7-15.07,3.85-21.29
	c1.23-1.68,2.33-3.46,3.59-5.11c10.48-13.67,14.44-29.04,13.97-46.27c-1.33-49.5-50.35-78.36-93.62-62.77
	c-45.84,16.52-60.71,73.63-29.21,111.08c6.54,7.78,9.02,15.2,4.86,25.18c-1.86,0-56.96,0.81-82.28,1.4
	c-19.6,0.46-42.72,21.88-43.35,40.65c-0.25,7.26-0.5,20.17-0.6,25.81c0.45,13.48,0.05,26.87-0.26,40.38
	c-0.02,3.95-0.04,8.12-0.06,12.48c0.64,3.64,3.33,4.74,7.14,5.07c6.9,0.59,12.48-1.29,17.59-5.9
	c42.63-38.47,107.23-12.07,116.59,41.94c0.14,0.83,0.58,1.62,0.88,2.43v15.63c-1,3.63-1.93,7.29-3,10.9
	c-14.63,49.35-72.89,67.39-112.46,34.49c-7.72-6.42-15.48-8.48-25.9-5.77c0,4.13-0.65,36.72-1.02,62.22
	c0.09,13.6,0.23,22.96,0.46,25.53v1.03h0.09c0.32,3.63,0.64,7.26,0.99,10.88c0.94,9.94,6.08,17.69,13.18,24.66
	c4.23,4.15,8.8,7.35,13.69,9.69c6.59,3.16,13.87,4.61,21.18,4.61h250.71c7.35,0,14.63-1.65,21.15-5.05
	c0.05-0.02,0.09-0.05,0.14-0.07c10.33-5.42,17.68-14.26,24.06-24.01c3.56-5.44,5.17-10.9,5.21-17.44
	c0.12-22.39,1.28-78.56,1.28-84.06c10.42-2.71,18.17-0.65,25.9,5.77c39.56,32.9,97.83,14.86,112.46-34.49
	c1.07-3.61,2.01-7.27,3-10.9v-15.63C493.6,311.94,493.16,311.15,493.02,310.32z"/>
</svg>
