<svg width="125" height="133" viewBox="0 0 125 133" fill="none" xmlns="http://www.w3.org/2000/svg">
<path d="M94.0265 62.922C94.9948 62.8062 95.9227 62.8015 96.7749 62.9223C97.2685 61.7904 97.3533 59.8399 96.9094 57.7159C96.25 54.5586 95.3571 52.6479 93.5119 52.9454C91.6671 53.2429 91.5989 55.53 92.2586 58.6873C92.6297 60.4633 93.2904 61.9814 94.0265 62.922Z" fill="black"/>
<path d="M78.188 65.4206C79.5082 65.9997 80.3192 66.3837 80.6369 66.0482C80.8411 65.8386 80.7799 65.4395 80.4646 64.9247C79.8134 63.8613 78.4733 62.7826 77.0513 62.177C74.1435 60.9255 70.6761 61.3417 68.001 63.264C67.118 63.911 66.2802 64.8073 66.4005 65.3517C66.4393 65.5276 66.5712 65.66 66.8814 65.7036C67.6095 65.787 70.1542 64.5005 73.0848 64.3209C75.1541 64.1945 76.8678 64.8415 78.188 65.4206Z" fill="black"/>
<path d="M75.5323 66.9355C73.8133 67.207 72.8647 67.7737 72.2563 68.301C71.7366 68.7552 71.4155 69.2569 71.4181 69.61C71.4194 69.778 71.4922 69.8746 71.5495 69.9233C71.6277 69.9925 71.7207 70.0308 71.8322 70.0308C72.2206 70.0308 73.0902 69.6821 73.0902 69.6821C75.4828 68.8257 77.0611 68.9291 78.6253 69.1076C79.4895 69.2045 79.8978 69.2584 80.0872 68.962C80.1432 68.8773 80.2113 68.6928 80.0383 68.4124C79.6361 67.7587 77.9001 66.6546 75.5323 66.9355Z" fill="black"/>
<path d="M88.6782 72.4977C89.8455 73.0713 91.1309 72.8462 91.5494 71.995C91.9676 71.1436 91.3602 69.9887 90.1929 69.415C89.0254 68.8416 87.7402 69.0665 87.3217 69.918C86.9035 70.7689 87.5109 71.924 88.6782 72.4977Z" fill="black"/>
<path d="M96.183 65.9396C95.2347 65.9236 94.448 66.9649 94.426 68.2654C94.404 69.5656 95.1549 70.6332 96.1032 70.6493C97.0516 70.6653 97.8383 69.624 97.8603 68.3237C97.8823 67.023 97.1314 65.9557 96.183 65.9396Z" fill="black"/>
<path d="M32.4842 89.3894C32.2484 89.0938 31.8605 89.184 31.4856 89.2713C31.2233 89.3324 30.9264 89.4014 30.6009 89.3957C29.9034 89.3822 29.3126 89.0842 28.981 88.5745C28.549 87.9112 28.5739 86.9222 29.0509 85.7893C29.1152 85.637 29.1909 85.4673 29.2733 85.2823C30.034 83.576 31.307 80.7198 29.8778 77.9984C28.8019 75.9501 27.0477 74.6745 24.9383 74.4065C22.9131 74.15 20.8283 74.9009 19.4988 76.368C17.4007 78.6827 17.073 81.8319 17.4785 82.9448C17.6272 83.3524 17.8596 83.4651 18.0286 83.4882C18.3854 83.5364 18.9132 83.2765 19.2441 82.3872C19.2679 82.3229 19.2995 82.2237 19.3389 82.0978C19.4861 81.6275 19.7605 80.7519 20.2098 80.05C20.7516 79.2035 21.5955 78.6205 22.5861 78.4083C23.5951 78.1924 24.6266 78.3847 25.49 78.9501C26.9594 79.9119 27.5255 81.7127 26.898 83.4312C26.5736 84.3197 26.0468 86.0189 26.1629 87.415C26.3979 90.2409 28.1358 91.3758 29.6974 91.4963C31.2158 91.5536 32.2769 90.7016 32.5456 90.0782C32.7039 89.71 32.5705 89.4856 32.4842 89.3894Z" fill="black"/>
<path d="M120.112 84.2215C120.054 84.0171 119.678 82.641 119.161 80.9824C118.643 79.3238 118.108 78.1565 118.108 78.1565C120.183 75.05 120.22 72.2718 119.944 70.699C119.649 68.7484 118.838 67.0865 117.201 65.3685C115.564 63.6504 112.217 61.891 107.514 60.5703C106.975 60.4195 105.201 59.9326 105.045 59.8849C105.033 59.7829 104.916 54.0663 104.808 51.6123C104.73 49.8384 104.578 47.069 103.719 44.3405C102.695 40.6484 100.91 37.4173 98.683 35.3504C104.83 28.9788 108.666 21.9602 108.657 15.939C108.64 4.35978 94.4188 0.856064 76.8943 8.11276C76.8756 8.12054 73.2076 9.67599 73.1812 9.6892C73.1648 9.67314 66.4686 3.10283 66.3678 3.01499C46.3872 -14.4129 -16.0843 55.0258 3.88886 71.8904L8.25386 75.5879C7.12154 78.5211 6.67665 81.8812 7.04018 85.4951C7.50684 90.1366 9.90104 94.5858 13.7812 98.0237C17.465 101.287 22.3084 103.353 27.0084 103.349C34.781 121.261 52.5398 132.249 73.3628 132.867C95.6988 133.53 114.449 123.05 122.305 104.222C122.819 102.901 125 96.9473 125 91.692C125 86.4103 122.014 84.2215 120.112 84.2215ZM28.7258 98.3186C28.0474 98.4344 27.3548 98.4802 26.6571 98.4637C19.9108 98.2825 12.6238 92.2092 11.8996 85.0067C11.0992 77.0454 15.167 70.9182 22.3695 69.4659C23.2306 69.2923 24.2711 69.1923 25.3931 69.2503C29.4285 69.4713 35.3751 72.5703 36.7337 81.3609C37.9367 89.1465 36.0258 97.0738 28.7258 98.3186ZM21.1919 64.7031C16.7082 65.5748 12.7565 68.1159 10.34 71.6261C8.89542 70.4215 6.2048 68.0895 5.72959 67.1808C1.87167 59.8551 9.94016 45.6123 15.5764 37.5692C29.5057 17.6911 51.3222 2.64523 61.4216 5.37498C63.0631 5.83957 68.5008 12.1445 68.5008 12.1445C68.5008 12.1445 58.4056 17.7458 49.0436 25.5536C36.4292 35.2667 26.9004 49.3839 21.1919 64.7031ZM92.0036 95.3419C92.15 95.2799 92.2513 95.1123 92.2345 94.9459C92.2138 94.7415 92.0311 94.5928 91.8266 94.6135C91.8266 94.6135 81.2585 96.178 71.2749 92.523C72.3621 88.9887 75.2538 90.2651 79.6243 90.6177C87.5018 91.0872 94.5621 89.9365 99.7798 88.4389C104.301 87.141 110.24 84.5827 114.852 80.9425C116.408 84.3599 116.958 88.1209 116.958 88.1209C116.958 88.1209 118.162 87.9053 119.168 88.5249C120.119 89.11 120.817 90.3268 120.341 93.4719C119.371 99.3485 116.873 104.118 112.675 108.505C110.12 111.256 107.017 113.648 103.468 115.387C101.583 116.377 99.5751 117.233 97.4551 117.926C81.6295 123.095 65.4306 117.412 60.2085 105.209C59.7916 104.292 59.4394 103.332 59.1614 102.327C56.9359 94.2857 58.8256 84.6379 64.7308 78.5654C64.7313 78.5649 64.73 78.563 64.7302 78.5623C65.0945 78.1754 65.4659 77.7202 65.4659 77.147C65.4659 76.6676 65.1611 76.1621 64.8971 75.8038C62.8312 72.8071 55.6745 67.7005 57.111 57.8183C58.1426 50.7191 64.3514 45.719 70.1402 46.0154C70.6292 46.0406 71.1189 46.0709 71.6071 46.0997C74.1158 46.2481 76.3043 46.5697 78.3694 46.6562C81.8254 46.8052 84.9337 46.3031 88.6147 43.2357C89.8569 42.2005 90.8521 41.3037 92.5369 41.0182C92.7136 40.9881 93.1541 40.8301 94.0345 40.8718C94.9331 40.9195 95.7887 41.1664 96.5575 41.6782C99.5085 43.642 99.9273 48.3982 100.08 51.8776C100.167 53.8637 100.408 58.6689 100.49 60.0484C100.677 63.2026 101.507 63.6475 103.184 64.1997C104.127 64.5101 105.003 64.7417 106.294 65.104C110.2 66.2008 112.516 67.3134 113.976 68.743C114.847 69.6361 115.252 70.5852 115.377 71.4906C115.838 74.851 112.768 79.0023 104.642 82.7739C95.7589 86.8969 84.983 87.9408 77.5374 87.1114C76.9663 87.048 74.9359 86.8176 74.9289 86.8168C68.9732 86.0143 65.5757 93.7115 69.1502 98.9847C71.4539 102.383 77.7286 104.595 84.0066 104.596C98.4008 104.598 109.465 98.4512 113.58 93.1423C113.703 92.9834 113.716 92.9661 113.91 92.673C114.112 92.3675 113.945 92.1996 113.693 92.3722C110.33 94.6728 95.3951 103.807 79.4201 101.059C79.4201 101.059 77.4788 100.74 75.7067 100.05C74.2985 99.503 71.3516 98.1473 70.9932 95.1234C83.8861 99.1107 92.0036 95.3419 92.0036 95.3419ZM46.9186 37.4881C51.8705 31.7656 57.9669 26.7904 63.4277 23.9969C63.6166 23.9002 63.8171 24.1052 63.7145 24.291C63.281 25.0763 62.4462 26.7574 62.1813 28.0331C62.1401 28.2315 62.3568 28.3813 62.5241 28.267C65.9216 25.9511 71.8315 23.4698 77.0153 23.1509C77.2381 23.1371 77.3456 23.4227 77.1684 23.5587C76.3802 24.1632 75.5178 25.0001 74.8882 25.8467C74.7809 25.9907 74.8817 26.198 75.0613 26.1993C78.7013 26.225 83.833 27.499 87.1771 29.3747C87.4036 29.5017 87.2424 29.9401 86.9893 29.8821C81.9291 28.722 73.6455 27.8423 65.0409 29.9409C57.3593 31.8145 51.4963 34.7075 47.2189 37.8184C47.0033 37.9757 46.7437 37.6902 46.9186 37.4881Z" fill="black"/>
</svg>
