<svg width="93" height="134" viewBox="0 0 93 134" fill="none" xmlns="http://www.w3.org/2000/svg">
<g clip-path="url(#clip0_62_959)">
<path d="M59.9807 58.109L46.175 78.5186L25.7394 98.8501C18.1216 89.1783 9.82776 79.8185 4.78387 68.5088L15.8076 51.6351L32.7073 35.3335C27.0654 42.3013 27.4814 52.5711 33.9812 59.045C40.9231 65.9868 52.1808 65.9868 59.1227 59.045C59.3827 58.759 59.6947 58.421 59.9807 58.109Z" fill="#FBBC04"/>
<path d="M60.2927 57.7185C65.9866 50.7507 65.5706 40.4549 59.0707 33.929C52.1289 26.9872 40.8711 26.9872 33.9293 33.929C33.6433 34.215 33.3573 34.527 33.0973 34.813L44.745 15.8854L60.5527 2.15771C72.3564 5.90163 82.1322 14.2215 87.7481 25.0372L76.2044 43.6268L60.2927 57.7185Z" fill="#4285F4"/>
<path d="M32.6813 35.3332L4.7839 68.5085C2.00196 62.3207 0.207996 55.5608 0.0259994 47.839C0 47.397 0 46.955 0 46.513C0 35.1512 4.08191 24.7255 10.8418 16.6396L32.6813 35.3332Z" fill="#EA4335"/>
<path d="M32.6813 35.3332L10.8418 16.6396C19.3956 6.47386 32.1873 0 46.513 0C51.4009 0 56.1328 0.753984 60.5787 2.15795L32.6813 35.3332Z" fill="#1A73E8"/>
<path d="M93 46.5131C93 38.7653 91.102 31.4595 87.7481 25.0376L25.7134 98.824C32.7593 107.794 39.2071 117.024 41.8851 128.333C41.9631 128.697 42.0671 129.113 42.1711 129.581C43.1331 134.287 49.8669 134.287 50.8549 129.581C50.9589 129.113 51.0369 128.671 51.1409 128.333C58.2647 98.2 92.168 82.8084 93 47.8391C93 47.3971 93 46.9551 93 46.5131Z" fill="#34A853"/>
</g>
<defs>
<clipPath id="clip0_62_959">
<rect width="93" height="133.117" fill="white"/>
</clipPath>
</defs>
</svg>
