<svg width="60" height="60" viewBox="0 0 60 60" fill="none" xmlns="http://www.w3.org/2000/svg">
<path fill-rule="evenodd" clip-rule="evenodd" d="M20.791 54.9917C26.6256 54.9917 32.4325 54.9917 38.2364 54.9917C37.9216 57.0108 33.9633 59.5841 30.5885 59.9511C26.6977 60.3733 21.9856 58.0165 20.791 54.9917Z" fill="#5614D5"/>
<path fill-rule="evenodd" clip-rule="evenodd" d="M57.159 46.8714C56.7997 46.8407 56.4359 46.8591 56.0735 46.8591C55.2121 46.8576 54.3508 46.8591 53.2852 46.8591C53.2852 46.2019 53.2852 45.7398 53.2852 45.2776C53.2836 38.1134 53.3113 30.9492 53.2591 23.7849C53.2468 22.1666 53.1009 20.5237 52.78 18.9392C50.1084 5.73921 36.8348 -2.56584 23.7638 0.721477C13.3276 3.3455 5.81483 12.8574 5.85782 23.6728C5.88392 30.1861 5.86089 36.6993 5.85935 43.2125C5.85935 43.8021 5.85628 45.6431 5.85321 46.8576C5.05787 46.8514 2.76857 46.8376 1.96862 46.8852C0.781743 46.9543 -0.0151361 47.8725 0.000218044 49.0486C0.0155722 50.194 0.774066 51.0093 1.93944 51.1137C2.26342 51.1429 2.59046 51.1368 2.91597 51.1368C20.6822 51.1429 38.45 51.1475 56.2163 51.1506C56.5418 51.1506 56.8688 51.1552 57.1928 51.1229C58.3413 51.0078 59.129 50.1633 59.1505 49.0455C59.1704 47.9139 58.3183 46.9712 57.159 46.8714Z" fill="#5614D5"/>
<path d="M43.2241 41.5922C44.5376 41.5922 45.6024 40.5273 45.6024 39.2138C45.6024 37.9003 44.5376 36.8354 43.2241 36.8354C41.9105 36.8354 40.8457 37.9003 40.8457 39.2138C40.8457 40.5273 41.9105 41.5922 43.2241 41.5922Z" fill="#836EFF"/>
<path fill-rule="evenodd" clip-rule="evenodd" d="M45.3918 21.4305L45.4286 21.4059C45.3964 21.2048 45.3687 20.999 45.3303 20.804C43.887 13.672 37.7393 8.41633 30.5167 7.98488C30.5075 7.98488 30.4982 7.98335 30.489 7.98335C30.1789 7.96492 29.8687 7.95264 29.5555 7.95264C29.5478 7.95264 29.5417 7.95264 29.534 7.95264C29.5263 7.95264 29.5202 7.95264 29.5125 7.95264C29.1993 7.95264 28.8876 7.96492 28.579 7.98335C28.5698 7.98335 28.5606 7.98488 28.5513 7.98488C21.3288 8.41633 15.181 13.672 13.7377 20.804C13.6978 20.999 13.6701 21.2048 13.6394 21.4059L13.6763 21.4305C13.5365 22.275 13.4628 23.1379 13.4659 24.01C13.469 24.704 13.4705 39.3441 13.4721 41.3356L18.4053 46.6604C18.4053 42.9324 18.4038 26.1089 18.3961 23.9916C18.3762 18.9861 21.9214 14.4582 26.8271 13.2252C27.234 13.1224 27.6455 13.0471 28.0585 12.9903C28.1276 12.9811 28.1951 12.9704 28.2658 12.9627C28.4224 12.9443 28.579 12.9304 28.7341 12.9182C28.9582 12.9028 29.1824 12.8905 29.4096 12.889C29.4511 12.889 29.4926 12.8859 29.534 12.8844C29.5755 12.8844 29.6169 12.8875 29.6584 12.889C29.8856 12.8905 30.1098 12.9028 30.334 12.9182C30.4906 12.9304 30.6472 12.9443 30.8023 12.9627C30.8714 12.9704 30.9404 12.9811 31.0095 12.9903C31.4226 13.0471 31.8341 13.1224 32.2409 13.2252C37.1451 14.4582 40.6919 18.9876 40.6719 23.9916C40.6688 24.7854 40.6673 31.7131 40.6658 34.9544L45.6006 31.6609C45.6006 29.7831 45.6021 24.2219 45.6021 24.0115C45.6052 23.1363 45.533 22.275 45.3918 21.4305Z" fill="#836EFF"/>
<path fill-rule="evenodd" clip-rule="evenodd" d="M53.2591 23.7825C53.2652 24.7023 53.2683 25.6235 53.2729 26.5432L59.2825 22.5527L55.4071 16.7427L52.6895 18.5376C52.7186 18.6712 52.7539 18.8017 52.7816 18.9352C53.1009 20.5213 53.2483 22.1658 53.2591 23.7825Z" fill="#00F9AC"/>
<path opacity="0.9" fill-rule="evenodd" clip-rule="evenodd" d="M13.3597 30.9395L8.2207 35.667L20.2031 48.5983L53.2728 26.5451C53.2682 25.6254 53.2666 24.7042 53.259 23.7845C53.2467 22.1661 53.1008 20.5232 52.7799 18.9387C52.7523 18.8036 52.7185 18.6731 52.6878 18.541L21.2932 39.4764L13.3597 30.9395Z" fill="#21D8A3"/>
</svg>
