<svg width="84" height="84" viewBox="0 0 84 84" fill="none" xmlns="http://www.w3.org/2000/svg">
<path d="M42 0C18.8051 0 0 18.8051 0 42C0 65.1949 18.8051 84 42 84C65.1949 84 84 65.1949 84 42C84 18.8051 65.1757 0 42 0ZM56.9137 45.1438C50.2236 48.6709 43.4377 52.0064 36.6134 55.2843C34.4473 56.3195 32.8946 55.2652 32.7987 52.7923C32.6837 49.3802 32.7796 45.9681 32.7796 42.5751C32.7796 42.5751 32.7796 42.5751 32.7604 42.5751C32.7604 39.3546 32.7029 36.1342 32.7796 32.9137C32.8562 30.1342 34.4281 29.0607 36.8818 30.2492C43.5335 33.4505 50.1278 36.7668 56.6837 40.1214C59.2524 41.4633 59.4058 43.8403 56.9137 45.1438Z" fill="white"/>
</svg>
