<svg width="25" height="25" viewBox="0 0 25 25" fill="none" xmlns="http://www.w3.org/2000/svg">
<path d="M24.575 1.58691C24.326 1.46967 24.0184 1.49902 23.7986 1.68944L21.3182 3.71092C18.9891 1.38178 15.8104 0 12.4998 0C12.1922 0 11.8993 0.205077 11.8114 0.497995L10.2879 5.10251C10.2001 5.35149 10.2586 5.62985 10.4345 5.82028C10.5956 6.02531 10.8739 6.11325 11.1229 6.05461C11.5917 5.95207 12.0457 5.90817 12.4998 5.90817C14.1111 5.89352 15.5907 6.46481 16.7771 7.49015L14.9608 9.01363C14.7557 9.17476 14.6531 9.43838 14.7118 9.70205C14.7557 9.96572 14.9461 10.1855 15.1952 10.2587L24.0331 13.1884C24.2528 13.2616 24.5017 13.2324 24.6922 13.1005C24.8826 12.954 24.9999 12.7343 24.9999 12.4999V2.24608C24.9998 1.96776 24.8387 1.70409 24.575 1.58691Z" fill="#1C3AA9"/>
<path d="M13.0951 0.304686C12.9565 0.112792 12.7358 0 12.4999 0H2.24608C1.96142 0 1.70263 0.16455 1.58251 0.422849C1.46239 0.680172 1.50243 0.98437 1.68407 1.20214L3.71824 3.68064C1.37792 6.01706 0 9.19185 0 12.4999C0 12.8149 0.201659 13.0942 0.500486 13.1943L5.10544 14.7177C5.35056 14.8012 5.6279 14.7455 5.8237 14.5712C6.01999 14.3969 6.1069 14.1313 6.05417 13.8754C5.95553 13.3989 5.90817 12.9491 5.90817 12.4999C5.90817 10.9247 6.47897 9.40278 7.49312 8.21919L9.00679 10.0385C9.17817 10.2431 9.44575 10.3383 9.706 10.29C9.96772 10.2407 10.1811 10.0537 10.2656 9.80122L12.4999 3.062L13.1952 0.964839C13.2695 0.741207 13.2324 0.495603 13.0951 0.304686Z" fill="#4285F4"/>
<path d="M12.4999 25C9.19263 25 6.01691 23.6222 3.68089 21.2826L1.20307 23.3154C0.984223 23.4999 0.678073 23.5371 0.422019 23.4177C0.164501 23.2968 0 23.0386 0 22.7539V12.5C0 12.2647 0.112988 12.043 0.304686 11.9057C0.496384 11.7676 0.742428 11.7297 0.964155 11.8055L9.80058 14.7345C10.0538 14.8181 10.2412 15.0327 10.2898 15.2938C10.3399 15.5549 10.2426 15.8223 10.0395 15.9926L8.21988 17.5075C9.40288 18.5217 10.9249 19.0918 12.4999 19.0918C14.2637 19.0918 15.916 18.4045 17.1505 17.1556C17.2878 17.0169 17.4738 16.9389 17.6698 16.9382H17.6712C17.8657 16.9382 18.0517 17.0155 18.189 17.1528L21.3089 20.2734C21.4462 20.4107 21.5235 20.5981 21.5235 20.7927C21.5235 20.9873 21.4449 21.174 21.3075 21.3113C18.9429 23.6587 15.8158 25 12.4999 25Z" fill="#646893"/>
<path d="M21.3076 21.3111C21.4449 21.1738 21.5236 20.987 21.5236 20.7925C21.5236 20.598 21.4464 20.4106 21.309 20.2732L18.1891 17.1526C18.0518 17.0153 17.8658 16.938 17.6713 16.938H17.6699C17.4739 16.9387 17.288 17.0167 17.1506 17.1554C15.916 18.4043 14.2638 19.0916 12.5 19.0916V24.9998C15.8159 24.9998 18.943 23.6585 21.3076 21.3111Z" fill="#646893"/>
</svg>
