<svg width="52" height="60" viewBox="0 0 52 60" fill="none" xmlns="http://www.w3.org/2000/svg">
<path d="M48.3745 34.5216C48.418 34.3477 48.418 34.1303 48.418 33.9564C48.418 32.3042 47.0701 30.9998 45.4614 30.9998C44.2006 30.9998 43.1136 31.7824 42.7223 32.9129L42.6354 33.0433C42.5919 33.1303 42.5919 33.2607 42.5484 33.3911C40.5484 41.1303 34.5049 48.0433 26.6354 51.6085L27.2441 46.1303C27.2875 45.8259 27.2006 45.5216 26.9832 45.3042C26.7658 45.0868 26.5049 44.9564 26.1571 44.9564C26.1571 44.9564 23.9832 44.9564 23.9397 44.9564C15.331 44.9564 8.28753 39.4346 6.37449 31.2172C5.28753 26.4346 6.11362 21.4781 8.72232 17.3042C10.7223 14.1303 13.5049 11.739 16.8528 10.2172C17.0267 10.1737 17.2441 10.0868 17.418 9.95635L17.5049 9.91287C18.3745 9.39113 18.9397 8.43461 18.9397 7.34766C18.9397 5.69548 17.5919 4.34766 15.9397 4.34766C15.6354 4.34766 15.3745 4.39113 15.1136 4.47809V4.43461L14.8093 4.56505C10.2006 6.56505 6.37449 9.8694 3.72232 14.0868C0.287535 19.6085 -0.8429 26.1737 0.635361 32.5216C2.89623 42.3477 10.7658 49.4346 20.7658 50.6955L19.7658 59.9998L23.9832 58.8694C31.7658 56.7824 38.9397 51.6955 43.6354 44.9564C45.8527 41.7824 47.418 38.3911 48.331 34.8259C48.331 34.7824 48.331 34.7824 48.331 34.739L48.3745 34.5216Z" fill="url(#paint0_linear_163_1172)"/>
<path d="M51.2876 21.348C51.2441 21.1306 51.0702 20.9567 50.8093 20.9132L48.3745 20.4349L47.6354 18.0871C47.5484 17.8262 47.3311 17.6958 47.0702 17.6958C46.8528 17.6958 46.6789 17.8262 46.5484 18.0001L45.3745 20.1741H42.8963C42.6789 20.1741 42.4615 20.3045 42.3745 20.5219C42.2876 20.7393 42.3311 21.0001 42.505 21.1741L44.2006 23.0001L43.418 25.348C43.3745 25.5219 43.3745 25.7393 43.505 25.8697C43.6354 26.0436 43.8093 26.1306 43.9832 26.1306C44.0702 26.1306 44.1571 26.1306 44.2441 26.0871L46.4615 25.0436L48.4615 26.5219C48.5484 26.6088 48.6789 26.6523 48.8093 26.6523C48.9832 26.6523 49.1571 26.5654 49.2441 26.4349C49.3745 26.3045 49.418 26.1306 49.3745 25.9567L49.0702 23.4784L51.0702 22.0436C51.2441 21.8262 51.3311 21.6088 51.2876 21.348Z" fill="#FF7D73"/>
<path d="M31.8533 3.73913C31.8098 3.52174 31.6359 3.30435 31.3751 3.26087L28.9838 2.78261L28.2446 0.434783C28.1577 0.173913 27.9403 0 27.6794 0C27.462 0 27.2881 0.130435 27.1577 0.304348L25.9403 2.47826L23.462 2.43478C23.2446 2.43478 23.0272 2.56522 22.8968 2.78261C22.8098 3 22.8533 3.26087 22.9838 3.43478L24.6794 5.26087L23.8968 7.6087C23.8533 7.78261 23.8533 8 23.9838 8.13043C24.1142 8.30435 24.2881 8.3913 24.462 8.3913C24.549 8.3913 24.6359 8.3913 24.7229 8.34783L26.9838 7.30435L28.9838 8.78261C29.0707 8.86957 29.2012 8.91304 29.3316 8.91304C29.5055 8.91304 29.6794 8.82609 29.7664 8.69565C29.8968 8.56522 29.9403 8.3913 29.8968 8.21739L29.5925 5.73913L31.6359 4.30435C31.8098 4.21739 31.9403 4 31.8533 3.73913Z" fill="#FF7D73"/>
<path d="M45.2877 11.7826L43.1572 9.5217L44.1137 6.56518C44.2007 6.34778 44.1572 6.13039 44.0268 5.95648C43.8964 5.78257 43.679 5.69561 43.5051 5.69561C43.4181 5.69561 43.2877 5.73909 43.2007 5.73909L40.3746 7.04344L37.8964 5.21735C37.7659 5.13039 37.6355 5.08691 37.5051 5.08691C37.3311 5.08691 37.1137 5.17387 36.9833 5.30431C36.8529 5.43474 36.8094 5.65213 36.8094 5.82604L37.2007 8.913L34.679 10.7391C34.4616 10.913 34.3746 11.1739 34.4181 11.4347C34.4616 11.6956 34.679 11.913 34.9398 11.9565L37.9833 12.5217L38.9398 15.4782C39.0268 15.7391 39.2877 15.9565 39.592 15.9565C39.8529 15.9565 40.0703 15.826 40.1572 15.6087L41.679 12.8695H44.7659C45.0268 12.8695 45.2877 12.6956 45.3746 12.4782C45.5485 12.2608 45.5051 11.9565 45.2877 11.7826Z" fill="#FF5850"/>
<defs>
<linearGradient id="paint0_linear_163_1172" x1="35.0754" y1="20.4112" x2="-14.4937" y2="60.2167" gradientUnits="userSpaceOnUse">
<stop stop-color="#004FFF"/>
<stop offset="1" stop-color="#0033C1"/>
</linearGradient>
</defs>
</svg>
