<svg width="307" height="40" viewBox="0 0 307 40" fill="none" xmlns="http://www.w3.org/2000/svg">
<path d="M4.30892 14.2736C4.30892 14.1068 4.30892 13.9281 4.30892 13.7494C4.33274 11.986 4.24934 10.1989 4.40423 8.44743C4.76167 4.42033 8.02624 0.929378 12.0057 0.226423C14.9486 -0.285901 17.7723 4.74955e-05 20.2624 1.82297C22.8479 3.71737 24.1942 6.2909 24.2776 9.50782C24.3134 10.9376 24.2895 12.3673 24.2895 13.7851C24.2895 13.94 24.2895 14.1068 24.2895 14.2855C25.3976 14.3451 26.3507 14.6787 27.149 15.4055C28.0664 16.2395 28.5549 17.288 28.5549 18.5152C28.5668 23.0308 28.5907 27.5583 28.543 32.0739C28.4953 36.3393 24.8972 39.9255 20.6199 39.9732C16.4021 40.0089 12.1725 40.0089 7.95475 39.9732C3.6417 39.9374 0.0435244 36.3154 0.0196954 32.0024C-0.0160481 27.5702 0.0077809 23.138 0.0077809 18.7177C0.0077809 16.2753 1.6639 14.5119 4.11828 14.3094C4.17786 14.2974 4.22551 14.2855 4.30892 14.2736ZM14.3052 17.1569C11.0525 17.1569 7.79986 17.1569 4.53529 17.1569C3.41533 17.1569 2.87918 17.705 2.87918 18.8369C2.87918 23.138 2.87918 27.4272 2.87918 31.7284C2.87918 34.8261 5.19059 37.1375 8.28836 37.1375C12.2916 37.1375 16.283 37.1375 20.2863 37.1375C23.4079 37.1375 25.7074 34.8261 25.7193 31.6926C25.7193 27.4153 25.7193 23.1261 25.7193 18.8488C25.7193 17.6931 25.1831 17.1569 24.0274 17.1569C20.7867 17.1569 17.5459 17.1569 14.3052 17.1569ZM21.43 14.2855C21.43 12.6771 21.4658 11.1044 21.4181 9.53165C21.3347 6.8628 20.0837 4.87308 17.7246 3.61014C16.3902 2.89527 14.9366 2.82378 13.4712 2.89527C10.3496 3.05016 7.59732 5.51646 7.2518 8.62614C7.08499 10.0916 7.18031 11.5929 7.15648 13.0703C7.14457 13.4634 7.15648 13.8685 7.15648 14.2736C11.9342 14.2855 16.6523 14.2855 21.43 14.2855Z" fill="#F43030"/>
<path d="M14.2934 21.4341C15.5206 21.4341 16.581 22.1847 16.9861 23.3285C17.4031 24.4961 17.0338 25.771 16.0449 26.5216C15.8066 26.7003 15.7232 26.8909 15.7232 27.1769C15.7351 28.547 15.7351 29.9053 15.7232 31.2755C15.7232 32.2167 15.1155 32.8601 14.2815 32.8482C13.4594 32.8363 12.8756 32.1929 12.8756 31.2755C12.8756 29.9291 12.8637 28.5709 12.8756 27.2245C12.8756 26.9028 12.8041 26.7003 12.5301 26.4858C11.5531 25.7471 11.2076 24.4842 11.6127 23.3285C12.0059 22.1847 13.0662 21.4341 14.2934 21.4341Z" fill="#F43030"/>
<path d="M300.705 9.51973C301.575 9.50782 302.242 8.72146 302.087 7.86362C301.646 5.40923 300.359 3.38377 298.227 1.82297C295.748 4.74955e-05 292.925 -0.285901 289.982 0.226423C286.002 0.929378 282.75 4.42033 282.38 8.44743C282.226 10.1989 282.309 11.986 282.285 13.7494C282.285 13.9281 282.285 14.0949 282.285 14.2736C282.202 14.2974 282.154 14.3094 282.118 14.3094C279.664 14.5119 278.02 16.2753 278.008 18.7177C278.008 23.1499 277.984 27.5821 278.02 32.0024C278.044 36.3154 281.642 39.9374 285.955 39.9732C290.172 40.0089 294.402 40.0089 298.62 39.9732C302.897 39.9374 306.495 36.3512 306.543 32.0739C306.591 27.5583 306.567 23.0308 306.555 18.5152C306.555 17.2761 306.055 16.2395 305.149 15.4055C304.351 14.6787 303.386 14.3332 302.29 14.2855H285.168C285.168 13.8685 285.168 13.4753 285.168 13.0822C285.192 11.5929 285.109 10.1035 285.264 8.63806C285.609 5.52837 288.361 3.05016 291.483 2.90719C292.949 2.8357 294.402 2.90719 295.737 3.62206C297.726 4.69436 298.93 6.26707 299.299 8.3402C299.43 9.03124 300.014 9.53165 300.717 9.53165L300.705 9.51973ZM303.684 31.6926C303.684 34.8261 301.384 37.1256 298.251 37.1375C294.247 37.1375 290.256 37.1375 286.253 37.1375C283.155 37.1375 280.843 34.8261 280.843 31.7284C280.843 27.4272 280.843 23.138 280.843 18.8369C280.843 17.705 281.38 17.1569 282.5 17.1569C285.752 17.1569 289.005 17.1569 292.269 17.1569C295.51 17.1569 298.751 17.1569 301.992 17.1569C303.135 17.1569 303.672 17.6931 303.684 18.8488C303.695 23.1261 303.695 27.4153 303.684 31.6926Z" fill="#00B05C"/>
<path d="M292.281 31.2758C289.148 31.2758 286.443 29.0478 285.86 25.9739C285.728 25.3305 286.157 24.699 286.801 24.5799C287.444 24.4607 288.076 24.8777 288.195 25.5211C288.576 27.4751 290.292 28.8929 292.281 28.8929C294.271 28.8929 295.987 27.4751 296.368 25.533C296.499 24.8897 297.119 24.4607 297.762 24.5918C298.405 24.7228 298.834 25.3424 298.703 25.9858C298.108 29.0597 295.403 31.2758 292.281 31.2758Z" fill="#00B05C"/>
<path d="M159.875 0C152.625 0 146.75 5.875 146.75 13.125C146.75 14.5625 147 16 147.5 17.375L133.375 31.625C133.125 31.8125 133 32.125 133 32.5V38.75C133 39.4375 133.562 40 134.25 40H140.5C141.188 40 141.75 39.4375 141.75 38.75V33.75H146.75C147.438 33.75 148 33.1875 148 32.5V27.5H152.062C152.75 27.5 153.312 26.9375 153.312 26.25C153.312 25.5625 152.75 25 152.062 25H146.75C146.062 25 145.5 25.5625 145.5 26.25V31.25H140.5C139.812 31.25 139.25 31.8125 139.25 32.5V37.5H135.5V33L148.562 19.8125C150.938 23.8125 155.25 26.25 159.875 26.25C167.125 26.25 173 20.375 173 13.125C173 5.875 167.125 0 159.875 0ZM159.875 23.75C154 23.75 149.25 19 149.25 13.125C149.25 7.25 154 2.5 159.875 2.5C165.75 2.5 170.5 7.25 170.5 13.125C170.5 19 165.75 23.75 159.875 23.75Z" fill="#5E2EFF"/>
<path d="M159.875 16.25C161.601 16.25 163 14.8509 163 13.125C163 11.3991 161.601 10 159.875 10C158.149 10 156.75 11.3991 156.75 13.125C156.75 14.8509 158.149 16.25 159.875 16.25Z" fill="#5E2EFF"/>
<g clip-path="url(#clip0_252_520)">
<path d="M58.6 21.3003H53V22.8003H58.6V21.3003Z" fill="#909ABC"/>
<path d="M69.6996 21.3003H64.0996V22.8003H69.6996V21.3003Z" fill="#909ABC"/>
<path d="M80.8002 21.3003H75.2002V22.8003H80.8002V21.3003Z" fill="#909ABC"/>
<path d="M104.8 21.4002L100.5 17.1002C100.2 16.9002 99.8998 16.9002 99.6998 17.1002C99.3998 17.3002 99.2998 17.8002 99.4998 18.2002L102.6 21.3002H86.2998V22.8002H102.4L99.3998 25.8002C99.2998 25.9002 99.1998 26.1002 99.1998 26.3002C99.1998 26.5002 99.2998 26.7002 99.3998 26.8002C99.6998 27.1002 100.2 27.1002 100.5 26.8002L104.8 22.5002C105.1 22.2002 105.1 21.7002 104.8 21.4002Z" fill="#909ABC"/>
</g>
<g clip-path="url(#clip1_252_520)">
<path d="M206.6 21.3003H201V22.8003H206.6V21.3003Z" fill="#909ABC"/>
<path d="M217.7 21.3003H212.1V22.8003H217.7V21.3003Z" fill="#909ABC"/>
<path d="M228.8 21.3003H223.2V22.8003H228.8V21.3003Z" fill="#909ABC"/>
<path d="M252.8 21.4002L248.5 17.1002C248.2 16.9002 247.9 16.9002 247.7 17.1002C247.4 17.3002 247.3 17.8002 247.5 18.2002L250.6 21.3002H234.3V22.8002H250.4L247.4 25.8002C247.3 25.9002 247.2 26.1002 247.2 26.3002C247.2 26.5002 247.3 26.7002 247.4 26.8002C247.7 27.1002 248.2 27.1002 248.5 26.8002L252.8 22.5002C253.1 22.2002 253.1 21.7002 252.8 21.4002Z" fill="#909ABC"/>
</g>
<defs>
<clipPath id="clip0_252_520">
<rect width="52" height="10" fill="white" transform="translate(53 17)"/>
</clipPath>
<clipPath id="clip1_252_520">
<rect width="52" height="10" fill="white" transform="translate(201 17)"/>
</clipPath>
</defs>
</svg>
