<svg xmlns="http://www.w3.org/2000/svg" id="Icons" viewBox="0 0 74 74" width="512" height="512">
    <style>path {stroke: #974CF3;}</style>
    <path d="M65,72H9a3,3,0,0,1-3-3V30a1,1,0,0,1,2,0V69a1,1,0,0,0,1,1H65a1,1,0,0,0,1-1V30a1,1,0,0,1,2,0V69A3,3,0,0,1,65,72Z"/>
    <path d="M70,31H52.31a1,1,0,0,1,0-2H70V19H4V29H21.69a1,1,0,1,1,0,2H4a2,2,0,0,1-2-2V19a2,2,0,0,1,2-2H70a2,2,0,0,1,2,2V29A2,2,0,0,1,70,31Z"/>
    <path d="M37,19a1,1,0,0,1-.86-1.509c2.193-3.712,7.618-12.538,10.615-14.326a8.2,8.2,0,1,1,8.4,14.078c-1.222.73-3.7,1.319-7.369,1.75a1,1,0,1,1-.233-1.986c4.439-.522,6.025-1.151,6.576-1.48A6.179,6.179,0,0,0,56.971,11.7a6.194,6.194,0,0,0-9.191-6.818c-2.126,1.269-6.517,7.871-9.918,13.626A1,1,0,0,1,37,19Z"/>
    <path d="M37,19a1,1,0,0,1-.862-.491c-3.4-5.756-7.792-12.358-9.917-13.626a6.2,6.2,0,1,0-6.347,10.644c.55.329,2.136.958,6.576,1.48a1,1,0,1,1-.233,1.986c-3.667-.431-6.147-1.02-7.369-1.75a8.2,8.2,0,1,1,8.4-14.078c3,1.788,8.42,10.614,10.614,14.326A1,1,0,0,1,37,19Z"/>
    <path d="M42,72H32a1,1,0,0,1-1-1V29.12a1,1,0,0,1,2,0V70h8V29.12a1,1,0,0,1,2,0V71A1,1,0,0,1,42,72Z"/>
    <path d="M41.94,30H32.06a1,1,0,1,1,0-2h9.88a1,1,0,0,1,0,2Z"/>
    <path d="M46.692,40.563a1,1,0,0,1-.912-.59L36.088,18.41a1,1,0,0,1,1.824-.82l8.613,19.162,1.29-4.114a1,1,0,0,1,1.365-.613l3.77,1.7-7.163-15.3a1,1,0,1,1,1.812-.848L55.906,35.32a1,1,0,0,1-1.316,1.335l-5.2-2.344-1.74,5.55a1,1,0,0,1-.895.7Z"/>
    <path d="M27.308,40.563l-.06,0a1,1,0,0,1-.895-.7l-1.74-5.55-5.2,2.344a1,1,0,0,1-1.316-1.335L26.4,17.576a1,1,0,1,1,1.812.848l-7.163,15.3,3.77-1.7a1,1,0,0,1,1.365.613l1.29,4.114L36.088,17.59a1,1,0,0,1,1.824.82L28.22,39.973A1,1,0,0,1,27.308,40.563Z"/>
</svg>