<svg width="40" height="40" viewBox="0 0 40 40" fill="none" xmlns="http://www.w3.org/2000/svg">
<path d="M20.1092 36.0344C20.4169 35.6904 20.6884 35.3825 20.9418 35.129C21.3942 34.622 21.7562 34.2236 22.1363 33.8434C24.1454 31.8153 26.1725 29.8053 28.1816 27.7954C31.4757 24.4998 34.8965 21.0955 38.2449 17.7275C40.5798 15.3735 40.5798 13.7981 38.2811 11.4622C35.4576 8.60118 32.4169 5.54097 28.6884 1.8651C27.3852 0.579448 26.3897 0 25.4305 0C24.5074 0 23.4938 0.579448 22.2449 1.81077C15.168 8.87279 8.29018 15.7537 1.79244 22.2725C-0.6148 24.699 -0.596701 26.2019 1.88294 28.7008C2.93271 29.751 4.00058 30.8194 5.03226 31.8515C6.98701 33.7709 8.99606 35.7628 10.9146 37.7909C12.3626 39.3119 13.9372 40 16.0368 40H16.1635C18.987 39.9638 21.9915 39.9457 25.901 39.9457C27.6748 39.9457 29.4304 39.9457 31.2042 39.9457C32.978 39.9457 34.7336 39.9457 36.5074 39.9457C37.0685 39.9457 37.6295 39.9457 38.2087 39.9457C38.6974 39.9457 39.1861 39.9095 39.6748 39.8732C39.7472 39.8732 39.8015 39.8551 39.8739 39.8551V36.9398H19.2766L20.1092 36.0344ZM25.5752 3.58533L36.7427 14.6854L27.0232 24.4092L15.8739 13.273L25.5752 3.58533ZM14.4983 36.6863L3.2585 25.4233L12.8513 15.79L24.1816 27.1254L14.4983 36.6863Z" fill="#5E2EFF"/>
</svg>
