<svg width="44" height="40" viewBox="0 0 44 40" fill="none" xmlns="http://www.w3.org/2000/svg">
<path d="M41.9159 9.89275C40.2352 8.68439 37.9298 9.03448 36.6466 10.6946C36.34 11.0898 36.0674 11.4964 35.7722 11.8916C33.7621 14.6697 31.752 17.4478 29.742 20.2259C29.6625 20.3388 29.5262 20.4969 29.4127 20.4969C28.8676 20.4856 28.3225 20.4292 27.766 20.3953C27.7547 20.2598 27.7547 20.1355 27.7547 20.0113C27.7547 15.6409 27.7433 11.2705 27.7547 6.90009C27.7547 5.94018 27.4821 5.07062 26.9256 4.2914C26.0739 3.08304 24.8702 2.3377 23.5415 1.76175C21.2475 0.756669 18.8173 0.31624 16.3303 0.112965C12.7644 -0.180654 9.25534 0.112965 5.83711 1.16322C5.0876 1.38908 4.33808 1.69399 3.634 2.04408C1.83971 2.92494 0.45425 4.17846 0 6.2338C0 12.3772 0 18.5206 0 24.6641C0.556456 26.0531 1.61259 26.9678 2.91855 27.5777C3.95197 28.0633 5.03081 28.4811 6.12101 28.786C9.3689 29.6895 12.6963 29.9831 16.0577 29.6895C17.0798 29.5991 17.7044 29.8589 18.2154 30.672C18.7264 31.4964 19.4646 31.8126 20.4299 31.519C20.4639 31.5077 20.5094 31.5302 20.5548 31.5302C20.146 32.4789 20.1914 32.8967 21.0204 33.563C22.2923 34.5907 23.621 35.5506 24.9383 36.5218C25.5515 36.9735 26.1988 37.2332 26.937 36.6573C26.937 37.4252 27.2777 37.8656 27.9136 38.1141C29.3786 38.69 30.8322 39.2547 32.2858 39.8532C33.5009 40.3501 34.3413 39.5031 34.2731 38.4529C34.1709 36.8041 34.2618 35.144 34.6933 33.5404C35.0908 32.061 35.6018 30.6155 36.1015 29.1587C36.5671 27.8148 36.5557 26.5048 35.8744 25.2287C35.7381 24.969 35.8176 24.8222 35.9652 24.6302C36.9986 23.2186 38.0207 21.7956 39.0428 20.384C40.3147 18.6223 41.6206 16.8832 42.8584 15.0988C44.0622 13.371 43.6193 11.1011 41.9159 9.89275ZM3.61128 5.04803C5.03081 4.00907 6.65476 3.45571 8.35819 3.09433C10.1752 2.69907 12.0263 2.55226 14.4224 2.55226C16.5688 2.57485 19.2148 2.81201 21.7245 3.78321C22.5308 4.09941 23.2803 4.56243 24.0525 4.98027C24.2001 5.05932 24.3251 5.18355 24.45 5.29648C25.4266 6.18863 25.4266 7.08078 24.4273 7.95035C23.3144 8.91025 21.963 9.46361 20.5662 9.82499C15.8647 11.0559 11.1518 11.0672 6.49577 9.58784C5.49642 9.26034 4.50843 8.75215 3.634 8.16491C2.20311 7.2163 2.21447 6.0644 3.61128 5.04803ZM2.53244 14.9633C2.58922 13.642 2.5438 12.3208 2.5438 10.9882C2.5438 10.864 2.5438 10.7397 2.5438 10.559C6.08694 12.5805 9.90264 13.2242 13.8546 13.2242C17.8066 13.2242 21.6223 12.5918 25.1881 10.559C25.1881 10.7736 25.1881 10.9204 25.1881 11.0672C25.1881 12.3095 25.1541 13.5517 25.1995 14.7826C25.2336 15.6861 24.8588 16.3524 24.1774 16.8944C23.1894 17.685 22.0425 18.1593 20.8273 18.4755C16.0691 19.7064 11.3108 19.7742 6.57526 18.3738C5.47371 18.0463 4.42893 17.5833 3.49772 16.8832C2.86177 16.4201 2.49837 15.8329 2.53244 14.9633ZM17.1479 26.1886C16.6823 26.3354 16.2962 26.5387 16.0804 27.013C16.0464 27.1034 15.8987 27.1824 15.7965 27.1824C12.2761 27.3631 8.80109 27.1485 5.46235 25.9176C4.59928 25.6014 3.8157 25.0706 3.02076 24.5963C2.66872 24.393 2.53244 24.0429 2.5438 23.5912C2.57787 22.3377 2.55515 21.0842 2.55515 19.8306C2.55515 19.6951 2.55515 19.5596 2.55515 19.3676C6.10966 21.3552 9.93671 21.965 13.8887 21.9537C17.8293 21.9537 21.6336 21.3439 25.1881 19.345C25.1881 20.1356 25.1995 20.8922 25.1768 21.6375C25.1768 21.7166 25.0519 21.8182 24.9724 21.886C22.6443 23.8171 20.0551 25.2965 17.1479 26.1886ZM33.7053 28.3004C33.0239 30.1525 32.3539 32.0046 32.0246 33.9583C31.8656 34.9295 31.7748 35.9119 31.6498 36.9283C31.0366 36.6799 30.3893 36.4314 29.7079 36.1491C29.8783 35.3812 30.0486 34.6358 30.219 33.8792C30.253 33.7324 30.2984 33.5743 30.3212 33.4275C30.4347 32.8628 30.2076 32.3208 29.7306 32.0384C29.265 31.7561 28.7086 31.79 28.2657 32.1627C27.6411 32.6708 27.0392 33.2129 26.426 33.7324C25.9377 34.1502 25.9263 34.1728 25.3812 33.7776C24.7225 33.3145 24.0866 32.8289 23.4279 32.3433C24.0184 31.7561 24.5635 31.2027 25.1086 30.6494C25.597 30.1525 25.7105 29.6104 25.438 29.0797C25.1654 28.5489 24.6658 28.323 23.9617 28.4247C22.8715 28.5828 21.7699 28.7296 20.6911 28.9103C20.2822 28.978 19.9756 28.9554 19.7599 28.5602C19.669 28.4021 19.5327 28.2778 19.3851 28.0972C19.5441 28.0294 19.6576 27.9616 19.7826 27.9165C22.3264 26.8888 24.6203 25.4659 26.7099 23.7154C27.9363 22.6878 28.7994 22.6539 30.1054 23.5799C31.0252 24.2349 31.9451 24.8899 32.865 25.5562C33.8189 26.2564 34.1028 27.205 33.7053 28.3004ZM40.6781 13.8001C39.9058 14.8956 39.1109 15.9684 38.3273 17.0638C36.9418 18.9837 35.545 20.9035 34.1596 22.8233C34.0801 22.9362 33.9892 23.0379 33.887 23.1621C33.2056 22.6652 32.5356 22.1909 31.8543 21.7053C31.8997 21.6262 31.9224 21.5585 31.9565 21.5133C34.1596 18.4642 36.374 15.4151 38.5771 12.3659C39.0314 11.7335 39.6333 11.5528 40.2352 11.8464C41.0074 12.2191 41.2118 13.0661 40.6781 13.8001Z" fill="#5E2EFF"/>
</svg>
