<?xml version="1.0" encoding="iso-8859-1"?>
<!-- Generator: Adobe Illustrator 19.1.0, SVG Export Plug-In . SVG Version: 6.00 Build 0)  -->
<svg version="1.1" id="Capa_1" xmlns="http://www.w3.org/2000/svg" xmlns:xlink="http://www.w3.org/1999/xlink" x="0px" y="0px"
	 viewBox="0 0 483.391 483.391" style="enable-background:new 0 0 483.391 483.391;" xml:space="preserve">
<g>
	<path d="M91.466,1.163c-5.2,0.8-7.3,7.1-3.6,10.8l32.5,32.5c15.4,15.4,15.4,40.4,0,55.9l-20,20c-15.4,15.4-40.4,15.4-55.9,0
		l-32.5-32.5c-3.7-3.7-10-1.6-10.8,3.6c-4.8,32.5,5.2,66.8,30.3,91.8c24.5,24.5,58,34.7,90,30.5c14.1-1.9,28.2,2.9,38.2,12.9
		l242.9,242.9c18.5,18.5,48.4,18.4,66.9-0.1s18.6-48.5,0.1-66.9l-242.9-243c-10-10-14.8-24.1-12.9-38.2c4.2-31.9-6-65.4-30.5-90
		C158.166,6.463,123.866-3.637,91.466,1.163z M441.566,422.063c5.4,5.4,5.4,14.1,0,19.5s-14.1,5.4-19.5,0l-247.8-247.8
		c-5.4-5.4-5.4-14.1,0-19.5s14.1-5.4,19.5,0L441.566,422.063z"/>
</g>
<g>
</g>
<g>
</g>
<g>
</g>
<g>
</g>
<g>
</g>
<g>
</g>
<g>
</g>
<g>
</g>
<g>
</g>
<g>
</g>
<g>
</g>
<g>
</g>
<g>
</g>
<g>
</g>
<g>
</g>
</svg>
